<svg width="1360" height="443" viewBox="0 0 1360 443" fill="none" xmlns="http://www.w3.org/2000/svg">
<g filter="url(#filter0_i_411_57)">
<rect width="1360" height="442.791" rx="31.6279" fill="url(#paint0_linear_411_57)"/>
</g>
<g opacity="0.8">
<g clip-path="url(#clip0_411_57)">
<path d="M1288.64 641.995H1288.16C1269.23 618.015 1250.67 593.47 1232.16 569.006C1171.1 488.263 1110.71 408.406 1039.98 352.818C876.896 224.646 658.757 225.546 250.529 641.995H250.015C658.599 225.1 876.945 224.222 1040.22 352.538C1110.98 408.156 1171.39 488.029 1232.47 568.791C1251.02 593.328 1269.64 617.95 1288.64 641.995ZM1304.72 641.995H1304.23C1280.07 613.951 1256.4 584.839 1232.76 555.771C1167.13 475.055 1101.71 394.597 1026.74 338.111C850.89 205.647 622.32 205.048 214.763 642.005H214.26C622.154 204.602 850.936 205.212 1026.97 337.825C1101.99 394.341 1167.41 474.812 1233.05 555.545C1256.76 584.7 1280.49 613.886 1304.72 641.995ZM1323.66 641.995H1323.15C1293.4 610.247 1264.21 576.685 1234.94 543.049C1164.37 461.925 1093.42 380.363 1013.48 322.819C824.315 186.642 584.74 185.048 180.649 641.995H180.151C584.564 184.588 824.348 186.22 1013.71 322.528C1093.67 380.097 1164.64 461.675 1235.23 542.815C1264.57 576.54 1293.84 610.181 1323.66 641.995ZM1345.48 641.995H1344.95C1309.36 606.977 1274.26 569.098 1238.92 530.97C1162.87 448.907 1085.66 365.593 999.875 306.793C796.928 167.678 545.855 165.807 148.243 641.995H147.762C545.673 165.361 796.96 167.251 1000.1 306.496C1085.92 365.324 1163.14 448.649 1239.21 530.727C1274.62 568.954 1309.8 606.909 1345.48 641.995ZM1360 632.659V633.163C1321.7 597.732 1283.55 558.931 1244.91 519.635C1162.69 436.009 1078.28 350.149 985.511 289.839C768.455 148.733 505.515 147.583 117.597 641.995H117.124C505.314 147.134 768.463 148.314 985.717 289.537C1078.53 349.872 1162.96 435.745 1245.19 519.377C1283.73 558.588 1321.79 597.299 1360.02 632.659H1360ZM1360 609.167V609.662C1324.79 578.11 1289.3 543.933 1253.21 509.196C1163.96 423.279 1071.09 333.878 969.895 271.778C738.546 129.808 463.619 130.635 88.8029 641.995H88.3432C463.407 130.188 738.551 129.372 970.096 271.473C1071.32 333.593 1164.21 423.007 1253.48 508.929C1289.47 543.588 1324.88 577.669 1360.02 609.18L1360 609.167ZM1360 585.612V586.101C1328.61 558.801 1296.7 529.609 1264.16 499.845C1166.83 410.819 1063.88 316.647 952.487 252.461C706.871 110.936 420.126 115.264 61.9402 641.995H61.4887C419.895 114.831 706.855 110.507 952.678 252.151C1064.11 316.343 1167.08 410.542 1264.42 499.581C1296.87 529.264 1328.7 558.376 1360.02 585.612H1360ZM1360 562.002V562.483C1333.32 539.932 1306.05 516.137 1278.21 491.837C1171.61 398.813 1056.5 298.342 932.694 231.78C673.026 92.1764 375.061 101.764 37.0957 641.995H36.6578C374.833 101.327 673.004 91.7521 932.876 231.462C1056.72 298.042 1171.85 398.522 1278.46 491.568C1306.22 515.792 1333.4 539.516 1360.02 562.002H1360ZM1360 538.338V538.814C1339.11 521.637 1317.74 503.77 1295.93 485.529C1178.78 387.544 1048.84 278.864 909.903 209.691C636.668 73.656 328.593 90.4765 14.4327 641.995H14.0029C328.337 90.0494 636.635 73.2317 910.074 209.368C1049.05 278.562 1179.01 387.256 1296.18 485.255C1317.9 503.421 1339.18 521.224 1360.02 538.338H1360ZM1360 514.625V515.096C1346.28 504.114 1332.31 492.888 1318.1 481.417C1189.14 377.54 1040.93 258.159 883.497 186.229C599.429 56.4329 285.312 81.2285 0.0166665 630.372V629.556C285.345 80.777 599.524 56.0738 883.658 185.899C1041.13 257.852 1189.36 377.249 1318.34 481.139C1332.47 492.516 1346.36 503.678 1360.02 514.625H1360ZM1360 490.869V491.334L1345.8 480.261C1204.05 369.66 1033 236.209 852.886 161.512C564.294 41.832 252.337 73.0739 0.00306982 590.728V589.868C252.397 72.6332 564.403 41.473 853.036 161.172C1033.21 235.893 1204.27 369.361 1346.04 479.98L1360 490.869ZM1360 467.071V467.534C1208.36 352.206 1016.66 209.659 817.537 135.756C527.117 27.9709 220.881 66.3065 0.0166665 548.187V547.3C220.962 65.874 527.218 27.62 817.673 135.416C1016.75 209.302 1208.38 351.768 1360.02 467.071H1360ZM1360 443.233V443.693C1200.07 324.965 990.594 178.953 777.009 109.285C488.11 15.0481 191.665 60.5972 0.00306982 502.241V501.305C191.777 60.143 488.221 14.7026 777.121 108.94C990.668 178.604 1200.08 324.522 1360.02 443.233H1360ZM1360 419.365V419.817C1174.86 285.563 917.135 118.528 667.072 66.9294C405.857 13.0299 153.017 85.1697 0.0166665 452.236V451.271C153.136 84.7128 405.955 12.6845 667.148 66.5731C917.184 118.166 1174.84 285.117 1360.02 419.365H1360ZM1360 395.462V395.911C1171.31 262.157 901.18 98.0407 643.805 48.3735C383.741 -1.81046 136.727 64.9084 0.0166665 397.972V397.001C136.887 64.457 383.869 -2.15856 643.895 48.0254C901.218 97.6763 1171.29 261.714 1360.02 395.462H1360ZM1360 371.526V371.975C1168.28 239.024 886.576 78.3098 622.437 30.1631C519.455 11.3951 419.147 9.73318 327.891 33.506C236.635 57.2788 154.445 106.478 87.6687 189.427C54.3405 230.828 24.8557 280.634 0.0166665 339.881V338.919C24.8095 280.003 54.1909 230.434 87.3831 189.204C154.213 106.19 236.483 56.9469 327.807 33.1551C419.131 9.36324 519.485 11.0253 622.519 29.8069C886.609 77.9454 1168.26 238.586 1360.02 371.526H1360ZM1360 347.56V348.003C1155.54 209.218 842.428 42.6942 560.595 5.76476C463.924 -6.89955 370.932 -4.32104 287.273 19.8598C203.614 44.0406 129.304 89.8127 69.9451 163.533C43.4877 196.399 20.0087 234.821 0.000347168 279.359V278.442C19.9461 234.201 43.3272 196.012 69.6487 163.307C129.048 89.5244 203.435 43.7115 287.156 19.5117C370.878 -4.68818 463.91 -7.26671 560.633 5.40577C842.45 42.3325 1155.5 208.78 1360.02 347.56H1360ZM1360 323.564V324.007C1211.42 225.222 1002.32 113.711 789.646 45.2972C630.736 -5.8116 469.84 -32.8674 330.722 -12.5545C191.605 7.7585 74.3107 75.4185 2.51635 213.722C1.67315 215.354 0.83539 216.994 0.00306982 218.64V217.824C0.728403 216.402 1.45374 214.985 2.17907 213.573C74.036 75.1465 191.456 7.42672 330.663 -12.9026C469.869 -33.2318 630.798 -6.16784 789.76 44.9654C1002.37 113.346 1211.41 224.804 1360.02 323.564H1360ZM1360 299.549V299.987C1201.17 196.51 969.822 80.5539 739.041 15.2059C581.912 -29.2852 425.06 -50.3163 291.576 -27.966C168.474 -7.35658 65.2477 50.1551 -0.0078125 160.185V159.456C65.3266 49.6765 168.51 -7.71551 291.516 -28.3222C425.068 -50.6833 581.969 -29.6496 739.147 14.8578C969.865 80.1867 1201.17 196.089 1360.02 299.549H1360ZM1360 275.507V275.945C1190.63 167.741 935.123 47.5765 686.028 -13.7486C531.486 -51.7987 379.424 -67.1965 251.962 -43.0321C147.305 -23.1924 59.2419 23.336 0.00306982 105.893V105.257C59.2991 22.8817 147.318 -23.565 251.891 -43.3911C379.41 -67.5664 531.529 -52.1631 686.123 -14.1021C935.153 47.2094 1190.6 167.322 1360.02 275.507H1360ZM1360 251.446V251.879C1179.97 139.048 898.691 15.0807 631.549 -41.313C480.26 -73.2512 333.513 -83.5192 212.283 -57.8152C126.121 -39.5396 52.8554 -3.09153 0.0166665 56.6505V56.0902C52.9016 -3.52947 126.129 -39.9258 212.217 -58.1688C333.505 -83.8864 480.303 -73.6185 631.641 -41.6693C898.705 14.7135 1179.92 138.62 1360.02 251.446H1360ZM287.33 641.995C694.082 245.927 902.594 243.291 1053.71 366.861C1120.77 421.699 1176.53 501.371 1233.32 582.511C1247.21 602.367 1261.17 622.304 1275.37 641.995H1274.91C1260.76 622.372 1246.85 602.5 1233 582.715C1176.23 501.594 1120.49 421.941 1053.46 367.139C902.518 243.716 694.229 246.371 287.858 641.995H287.33Z" fill="#DCDCDC"/>
</g>
</g>
<defs>
<filter id="filter0_i_411_57" x="0" y="0" width="1360" height="442.791" filterUnits="userSpaceOnUse" color-interpolation-filters="sRGB">
<feFlood flood-opacity="0" result="BackgroundImageFix"/>
<feBlend mode="normal" in="SourceGraphic" in2="BackgroundImageFix" result="shape"/>
<feColorMatrix in="SourceAlpha" type="matrix" values="0 0 0 0 0 0 0 0 0 0 0 0 0 0 0 0 0 0 127 0" result="hardAlpha"/>
<feOffset/>
<feGaussianBlur stdDeviation="2"/>
<feComposite in2="hardAlpha" operator="arithmetic" k2="-1" k3="1"/>
<feColorMatrix type="matrix" values="0 0 0 0 0 0 0 0 0 0 0 0 0 0 0 0 0 0 0.25 0"/>
<feBlend mode="normal" in2="shape" result="effect1_innerShadow_411_57"/>
</filter>
<linearGradient id="paint0_linear_411_57" x1="0" y1="221.395" x2="1360" y2="221.395" gradientUnits="userSpaceOnUse">
<stop stop-color="#5F56AF"/>
<stop offset="0.640007" stop-color="#AFABD7"/>
</linearGradient>
<clipPath id="clip0_411_57">
<rect width="1360" height="442.791" rx="52.7132" fill="white"/>
</clipPath>
</defs>
</svg>
