<svg width="51" height="52" viewBox="0 0 51 52" fill="none" xmlns="http://www.w3.org/2000/svg">
<circle cx="25.65" cy="26.2174" r="24.8023" fill="#5F56AF" stroke="white"/>
<g clip-path="url(#clip0_3093_9768)">
<path d="M35.6954 34.5134C35.6954 34.5134 33.0626 29.9884 32.5904 29.1769C33.1277 29.013 33.7001 28.8682 33.9379 28.4576C34.3343 27.7733 33.6287 26.6509 33.814 25.9174C34.0048 25.1626 35.1314 24.5095 35.1314 23.7422C35.1314 22.9947 33.9667 22.1214 33.7757 21.371C33.5892 20.6377 34.2926 19.5141 33.8949 18.8307C33.4973 18.1472 32.1729 18.2033 31.6277 17.6787C31.0667 17.1388 31.0684 15.8179 30.3918 15.4561C29.7124 15.093 28.6083 15.8269 27.854 15.653C27.1083 15.4812 26.4421 14.3584 25.6631 14.3584C24.8727 14.3584 23.6154 15.632 23.4182 15.6778C22.6643 15.8531 21.5588 15.121 20.8801 15.4857C20.2041 15.8487 20.2083 17.1697 19.6484 17.7105C19.104 18.2361 17.7795 18.1824 17.3831 18.8666C16.9868 19.5507 17.6923 20.6729 17.5071 21.4067C17.3214 22.1424 16.1556 22.8878 16.1556 23.7386C16.1556 24.5059 17.285 25.157 17.477 25.9114C17.6636 26.6447 16.9602 27.7682 17.3578 28.4519C17.5743 28.824 18.0654 28.9768 18.556 29.1237C18.6132 29.1408 18.7215 29.2048 18.6481 29.3117C18.3126 29.8909 15.6115 34.5525 15.6115 34.5525C15.3967 34.9232 15.5712 35.2411 15.9992 35.2591L18.0943 35.3465C18.5223 35.3645 19.0592 35.6755 19.2877 36.0379L20.4057 37.8119C20.6341 38.1743 20.9966 38.1675 21.2115 37.7968C21.2115 37.7968 24.3395 32.3963 24.3408 32.3947C24.4036 32.3214 24.4666 32.3365 24.4968 32.3621C24.8391 32.6535 25.3162 32.9442 25.7144 32.9442C26.1049 32.9442 26.4665 32.6706 26.8242 32.3654C26.8534 32.3406 26.9242 32.2897 26.976 32.3953C26.9768 32.3969 30.1014 37.7678 30.1014 37.7678C30.3168 38.1381 30.6794 38.1444 30.9071 37.7816L32.022 36.0054C32.2498 35.6428 32.7861 35.3306 33.2142 35.3119L35.3091 35.2206C35.7369 35.2018 35.9108 34.8836 35.6954 34.5134ZM29.1256 29.6555C26.8091 31.0032 24.0286 30.8588 21.9049 29.5192C18.793 27.5259 17.769 23.4025 19.6398 20.1736C21.5318 16.9075 25.6911 15.7551 28.9866 17.5499C29.0039 17.5594 29.021 17.5691 29.0382 17.5787C29.0626 17.5922 29.087 17.606 29.1113 17.6198C30.128 18.206 31.0096 19.0567 31.6409 20.1418C33.5703 23.4582 32.442 27.7261 29.1256 29.6555Z" fill="white"/>
<path d="M28.5967 18.5956C28.587 18.59 28.5773 18.5849 28.5677 18.5793C26.8073 17.5605 24.5635 17.486 22.683 18.58C19.8925 20.2035 18.9429 23.7946 20.5664 26.5851C21.0618 27.4366 21.7406 28.1164 22.5239 28.6042C22.5905 28.6464 22.6578 28.6879 22.7267 28.7277C25.5203 30.3462 29.1094 29.3901 30.7277 26.5967C32.346 23.8031 31.3902 20.2141 28.5967 18.5956ZM29.2955 23.1624L28.3174 24.1159C28.0144 24.4111 27.825 24.9939 27.8966 25.4109L28.1275 26.7572C28.1991 27.1742 27.9513 27.3542 27.5768 27.1574L26.3677 26.5217C25.9932 26.3249 25.3804 26.3249 25.006 26.5217L23.797 27.1574C23.4225 27.3542 23.1746 27.1742 23.2461 26.7572L23.477 25.4109C23.5486 24.9939 23.3592 24.4111 23.0562 24.1159L22.0781 23.1624C21.7751 22.8672 21.8699 22.5758 22.2885 22.5149L23.6402 22.3184C24.0589 22.2576 24.5547 21.8974 24.7419 21.518L25.3464 20.2932C25.5337 19.9139 25.8401 19.9139 26.0273 20.2932L26.6318 21.518C26.8191 21.8974 27.3148 22.2576 27.7335 22.3184L29.0852 22.5149C29.5038 22.5758 29.5985 22.8672 29.2955 23.1624Z" fill="white"/>
</g>
<defs>
<clipPath id="clip0_3093_9768">
<rect width="23.7209" height="23.7209" fill="white" transform="translate(13.7891 14.3564)"/>
</clipPath>
</defs>
</svg>
