<svg width="51" height="52" viewBox="0 0 51 52" fill="none" xmlns="http://www.w3.org/2000/svg">
<circle cx="25.5562" cy="26.2379" r="24.8023" fill="#5F56AF" stroke="white"/>
<g clip-path="url(#clip0_3093_9784)">
<path d="M22.7262 25.5439C23.1093 25.5439 23.4211 25.8557 23.4211 26.2389C23.4211 26.622 23.1093 26.9338 22.7262 26.9338C22.3431 26.9338 22.0312 26.622 22.0312 26.2389C22.0312 25.8557 22.3431 25.5439 22.7262 25.5439Z" fill="white"/>
<path d="M23.4197 22.8332V24.2731C23.2024 24.1957 22.9684 24.1536 22.7247 24.1536C21.5753 24.1536 20.6399 25.089 20.6399 26.2384C20.6399 27.3879 21.5753 28.3233 22.7247 28.3233C22.9684 28.3233 23.2024 28.2811 23.4197 28.2037V29.6437C23.1922 29.69 22.9596 29.7132 22.7247 29.7132C20.809 29.7132 19.25 28.1542 19.25 26.2384C19.25 24.3227 20.809 22.7637 22.7247 22.7637C22.9596 22.7637 23.1922 22.7868 23.4197 22.8332Z" fill="white"/>
<path d="M17.8611 26.2384C17.8611 28.9209 20.0432 31.1031 22.7257 31.1031C22.9597 31.1031 23.1918 31.0869 23.4207 31.0535V35.2728H21.3358C20.9522 35.2728 20.6409 34.9614 20.6409 34.5778V33.5938C20.0724 33.4321 19.5243 33.2032 19.0022 32.91L18.3031 33.6095C18.0316 33.881 17.5919 33.881 17.3204 33.6095L15.3547 31.6438C15.0831 31.3722 15.0841 30.9316 15.3547 30.6611L16.0542 29.9615C15.7605 29.4398 15.5321 28.8918 15.3704 28.3233H14.3864C14.0027 28.3233 13.6914 28.012 13.6914 27.6283V24.8485C13.6914 24.4649 14.0027 24.1536 14.3864 24.1536H15.3704C15.5321 23.5851 15.7605 23.037 16.0542 22.5149L15.3547 21.8158C15.0841 21.5453 15.0831 21.1047 15.3547 20.8331L17.3204 18.8673C17.5919 18.5959 18.0316 18.5959 18.3031 18.8673L19.0027 19.5669C19.5243 19.2732 20.0724 19.0448 20.6409 18.8831V17.8991C20.6409 17.5154 20.9522 17.2041 21.3358 17.2041H23.4207V21.4234C23.1918 21.39 22.9597 21.3738 22.7257 21.3738C20.0432 21.3738 17.8611 23.5559 17.8611 26.2384Z" fill="white"/>
<path d="M33.2445 17.6109V21.3738H37.0075L33.2445 17.6109ZM26.8973 21.3738H29.7698C30.1534 21.3738 30.4648 21.6851 30.4648 22.0687C30.4648 22.4524 30.1534 22.7637 29.7698 22.7637H26.8973C26.5137 22.7637 26.2024 22.4524 26.2024 22.0687C26.2024 21.6851 26.5137 21.3738 26.8973 21.3738ZM33.9395 31.1031H26.8973C26.5137 31.1031 26.2024 30.7917 26.2024 30.4081C26.2024 30.0245 26.5137 29.7132 26.8973 29.7132H33.9395C34.3231 29.7132 34.6344 30.0245 34.6344 30.4081C34.6344 30.7917 34.3231 31.1031 33.9395 31.1031ZM33.9395 28.3233H26.8973C26.5137 28.3233 26.2024 28.012 26.2024 27.6283C26.2024 27.2447 26.5137 26.9334 26.8973 26.9334H33.9395C34.3231 26.9334 34.6344 27.2447 34.6344 27.6283C34.6344 28.012 34.3231 28.3233 33.9395 28.3233ZM33.9395 25.5435H26.8973C26.5137 25.5435 26.2024 25.2322 26.2024 24.8485C26.2024 24.4649 26.5137 24.1536 26.8973 24.1536H33.9395C34.3231 24.1536 34.6344 24.4649 34.6344 24.8485C34.6344 25.2322 34.3231 25.5435 33.9395 25.5435ZM32.5496 22.7637C32.166 22.7637 31.8547 22.4524 31.8547 22.0687V17.2041H24.8125V35.2728H36.7193C37.1029 35.2728 37.4142 34.9614 37.4142 34.5778V22.7637H32.5496Z" fill="white"/>
</g>
<defs>
<clipPath id="clip0_3093_9784">
<rect width="23.7209" height="23.7209" fill="white" transform="translate(13.6953 14.377)"/>
</clipPath>
</defs>
</svg>
