<svg width="51" height="52" viewBox="0 0 51 52" fill="none" xmlns="http://www.w3.org/2000/svg">
<circle cx="25.5562" cy="25.9283" r="24.8023" fill="#5F56AF" stroke="white"/>
<g clip-path="url(#clip0_3093_9778)">
<path fill-rule="evenodd" clip-rule="evenodd" d="M23.7534 14.8929L24.3845 16.555C24.4035 16.6049 24.4477 16.637 24.501 16.6396L26.2768 16.7262C26.3975 16.7321 26.447 16.8842 26.3527 16.96L24.967 18.0737C24.9254 18.1072 24.9085 18.1591 24.9225 18.2107L25.3889 19.9262C25.4207 20.0429 25.2913 20.1369 25.1901 20.0707L23.7026 19.097C23.6579 19.0677 23.6033 19.0677 23.5586 19.097L22.0711 20.0707C21.9699 20.1369 21.8405 20.0429 21.8723 19.9262L22.3387 18.2106C22.3527 18.1591 22.3358 18.1071 22.2942 18.0737L20.9085 16.9599C20.8142 16.8842 20.8637 16.732 20.9844 16.7261L22.7602 16.6396C22.8136 16.637 22.8577 16.6049 22.8767 16.5549L23.5078 14.8929C23.5503 14.7805 23.7108 14.7805 23.7534 14.8929ZM32.3391 28.9695C34.5696 28.9695 36.3778 30.7777 36.3778 33.0082C36.3778 35.2387 34.5696 37.0469 32.3391 37.0469C30.1086 37.0469 28.3004 35.2387 28.3004 33.0082C28.3004 30.7777 30.1086 28.9695 32.3391 28.9695ZM31.8086 33.3645L30.9062 32.462C30.6723 32.2282 30.2929 32.2282 30.059 32.462C29.8251 32.6959 29.8251 33.0753 30.059 33.3092L31.3863 34.6365C31.6202 34.8704 31.9996 34.8704 32.2334 34.6365C33.0335 33.8365 33.8245 33.0274 34.6208 32.2237C34.853 31.9893 34.8523 31.6112 34.6182 31.3784C34.3841 31.1456 34.0049 31.1462 33.7724 31.381L31.8086 33.3645ZM16.9839 34.8792L27.9393 34.8791C27.6946 34.3045 27.5591 33.6722 27.5591 33.0082C27.5591 31.9984 27.8726 31.062 28.407 30.2902C27.1379 29.1587 25.4647 28.4709 23.6307 28.4709C20.1002 28.4709 17.1651 31.0188 16.563 34.3761C16.5157 34.6398 16.716 34.8792 16.9839 34.8792ZM23.6307 20.7462C25.6358 20.7462 27.2614 22.3717 27.2614 24.3769C27.2614 26.382 25.6358 28.0076 23.6307 28.0076C21.6255 28.0076 20 26.382 20 24.3769C19.9999 22.3717 21.6255 20.7462 23.6307 20.7462ZM29.8703 17.2455C29.8277 17.1331 29.6672 17.1331 29.6245 17.2455L28.9935 18.9076C28.9745 18.9576 28.9303 18.9897 28.8769 18.9923L27.1012 19.0788C26.9804 19.0847 26.931 19.2368 27.0252 19.3126L28.411 20.4264C28.4526 20.4599 28.4695 20.5117 28.4554 20.5633L27.989 22.2789C27.9573 22.3956 28.0867 22.4896 28.1879 22.4234L29.6753 21.4496C29.7201 21.4204 29.7746 21.4204 29.8193 21.4496L31.3069 22.4234C31.408 22.4896 31.5374 22.3956 31.5057 22.2789L31.0392 20.5634C31.0252 20.5118 31.0421 20.4599 31.0837 20.4264L32.4695 19.3126C32.5637 19.2369 32.5143 19.0847 32.3935 19.0789L30.6177 18.9923C30.5644 18.9897 30.5202 18.9576 30.5012 18.9077L29.8703 17.2455ZM17.6366 17.2455C17.5939 17.1331 17.4334 17.1331 17.3908 17.2455L16.7597 18.9076C16.7408 18.9576 16.6966 18.9897 16.6432 18.9923L14.8675 19.0788C14.7467 19.0847 14.6972 19.2368 14.7915 19.3126L16.1772 20.4264C16.2189 20.4599 16.2357 20.5117 16.2217 20.5633L15.7553 22.2789C15.7235 22.3956 15.8529 22.4896 15.9541 22.4234L17.4416 21.4496C17.4863 21.4204 17.5409 21.4204 17.5856 21.4496L19.0731 22.4234C19.1743 22.4896 19.3037 22.3956 19.272 22.2789L18.8056 20.5634C18.7915 20.5118 18.8084 20.4599 18.85 20.4264L20.2358 19.3126C20.33 19.2369 20.2806 19.0847 20.1598 19.0789L18.384 18.9923C18.3307 18.9897 18.2865 18.9576 18.2675 18.9077L17.6366 17.2455Z" fill="white"/>
</g>
<defs>
<clipPath id="clip0_3093_9778">
<rect width="23.7209" height="23.7209" fill="white" transform="translate(13.6953 14.0674)"/>
</clipPath>
</defs>
</svg>
