<svg width="51" height="52" viewBox="0 0 51 52" fill="none" xmlns="http://www.w3.org/2000/svg">
<circle cx="25.65" cy="25.9078" r="24.8023" fill="#5F56AF" stroke="white"/>
<g clip-path="url(#clip0_3093_9627)">
<path d="M36.0651 28.8565V27.3594H29.1633C29.1633 29.2966 27.5929 30.8671 25.6556 30.8671C23.7183 30.8671 22.1479 29.2967 22.1479 27.3594H15.2461V28.8565L18.2431 29.1739C18.43 29.9402 18.7327 30.6612 19.1316 31.3172L17.2363 33.6614L19.3536 35.7787L21.6978 33.8834C22.3538 34.2823 23.0748 34.5849 23.8411 34.7719L24.1584 37.7689H27.1527L27.4701 34.7719C28.2364 34.5849 28.9574 34.2823 29.6134 33.8834L31.9576 35.7787L34.0749 33.6614L32.1796 31.3172C32.5785 30.6612 32.8812 29.9402 33.0681 29.1739L36.0651 28.8565Z" fill="white"/>
<path d="M25.6535 14.0459C24.171 14.0459 22.9648 15.2521 22.9648 16.7346C22.9648 18.2171 24.171 19.4232 25.6535 19.4232C27.136 19.4232 28.3422 18.2171 28.3422 16.7346C28.3422 15.2521 27.136 14.0459 25.6535 14.0459Z" fill="white"/>
<path d="M28.5257 20.1689H22.8005C21.4825 20.169 20.4102 21.2413 20.4102 22.5593V25.9698H30.916V22.5593C30.916 21.2413 29.8437 20.1689 28.5257 20.1689Z" fill="white"/>
<path d="M19.9554 15.2881C18.6273 15.2881 17.5469 16.3686 17.5469 17.6966C17.5469 19.014 18.6102 20.0872 19.9236 20.1044C20.4675 19.4682 21.218 19.0141 22.0707 18.8475C22.2576 18.5054 22.364 18.1132 22.364 17.6966C22.364 16.3685 21.2835 15.2881 19.9554 15.2881Z" fill="white"/>
<path d="M17.3874 20.7744C16.2067 20.7744 15.2461 21.735 15.2461 22.9157V25.971H19.0128V22.5604C19.0128 21.9148 19.1758 21.3066 19.4623 20.7744H17.3874Z" fill="white"/>
<path d="M31.3734 15.2881C30.0453 15.2881 28.9648 16.3686 28.9648 17.6966C28.9648 18.1132 29.0712 18.5054 29.2581 18.8475C30.1108 19.0141 30.8613 19.4682 31.4052 20.1044C32.7186 20.0872 33.782 19.014 33.782 17.6966C33.782 16.3685 32.7015 15.2881 31.3734 15.2881Z" fill="white"/>
<path d="M33.9147 20.7744H31.8398C32.1264 21.3066 32.2894 21.9148 32.2894 22.5604V25.9709H36.0561V22.9157C36.0561 21.735 35.0954 20.7744 33.9147 20.7744Z" fill="white"/>
</g>
<defs>
<clipPath id="clip0_3093_9627">
<rect width="23.7209" height="23.7209" fill="white" transform="translate(13.7891 14.0469)"/>
</clipPath>
</defs>
</svg>
