<svg width="56" height="56" viewBox="0 0 56 56" fill="none" xmlns="http://www.w3.org/2000/svg">
<path d="M21.2711 35.6615L16.0444 40.8732C15.5824 41.3361 14.8031 40.9021 14.9515 40.2656L15.8661 36.3997H12.7964C12.3988 36.3997 12.1347 36.0749 12.1328 35.7371C12.1328 35.5737 12.1925 35.4067 12.3279 35.2713L17.5545 30.0596C18.0175 29.5967 18.7959 30.0307 18.6484 30.6672L17.7328 34.5331H20.8035C21.2011 34.5331 21.4643 34.8579 21.4661 35.1957C21.4671 35.3591 21.4073 35.5261 21.2711 35.6615Z" fill="#2D3ED8"/>
<path d="M36.5118 49.3511L29.173 42.0132C30.2081 40.0588 30.8008 37.8328 30.8008 35.4668C30.8008 27.7351 24.5325 21.4668 16.8008 21.4668C9.06905 21.4668 2.80078 27.7351 2.80078 35.4668C2.80078 43.1985 9.06905 49.4668 16.8008 49.4668C20.1328 49.4668 23.1904 48.2973 25.5946 46.3532L32.5526 53.3103C33.0594 53.8189 33.7594 54.1335 34.5341 54.1335C36.0797 54.1335 37.3341 52.88 37.3341 51.3335C37.3341 50.5588 37.0196 49.8588 36.5118 49.3511ZM16.8008 44.8001C11.646 44.8001 7.46745 40.6207 7.46745 35.4668C7.46745 30.312 11.646 26.1335 16.8008 26.1335C21.9556 26.1335 26.1341 30.312 26.1341 35.4668C26.1341 40.6207 21.9556 44.8001 16.8008 44.8001Z" fill="black"/>
<path d="M53.2005 29.8662H44.7875C45.9625 28.3047 46.6672 26.3699 46.6672 24.2662C46.6672 21.721 45.6461 19.4166 43.9941 17.7329H52.2672C53.2976 17.7329 54.1339 16.8966 54.1339 15.8662C54.1339 14.8358 53.2976 13.9995 52.2672 13.9995H36.4005C36.4005 10.7366 35.106 7.77981 33.0097 5.59954H43.8672C44.8976 5.59954 45.7339 4.76328 45.7339 3.73288C45.7339 2.70248 44.8976 1.86621 43.8672 1.86621H24.2672C18.8604 1.86621 14.2852 5.40448 12.7163 10.2895C12.524 10.2774 12.3308 10.2662 12.1339 10.2662C6.46385 10.2662 1.86719 14.8629 1.86719 20.5329C1.86719 22.7383 2.56905 24.7767 3.75252 26.4493C6.61599 22.3137 11.3891 19.5995 16.8005 19.5995C24.9308 19.5995 31.6228 25.7185 32.5477 33.5995H53.2005C54.2309 33.5995 55.0672 32.7633 55.0672 31.7329C55.0672 30.7025 54.2309 29.8662 53.2005 29.8662ZM24.7339 7.46621H24.2672C21.1788 7.46621 18.6672 9.97781 18.6672 13.0662V13.5329C18.6672 14.3057 18.04 14.9329 17.2672 14.9329C16.4944 14.9329 15.8672 14.3057 15.8672 13.5329V13.0662C15.8672 8.43408 19.6351 4.66621 24.2672 4.66621H24.7339C25.5067 4.66621 26.1339 5.29341 26.1339 6.06621C26.1339 6.83901 25.5067 7.46621 24.7339 7.46621Z" fill="#F5811B"/>
<path d="M41.0659 45.7333C42.0968 45.7333 42.9326 44.8976 42.9326 43.8667C42.9326 42.8357 42.0968 42 41.0659 42C40.035 42 39.1992 42.8357 39.1992 43.8667C39.1992 44.8976 40.035 45.7333 41.0659 45.7333Z" fill="black"/>
<path d="M48.5346 45.7333C49.5656 45.7333 50.4013 44.8976 50.4013 43.8667C50.4013 42.8357 49.5656 42 48.5346 42C47.5037 42 46.668 42.8357 46.668 43.8667C46.668 44.8976 47.5037 45.7333 48.5346 45.7333Z" fill="black"/>
</svg>
