<svg width="150" height="218" viewBox="0 0 150 218" fill="none" xmlns="http://www.w3.org/2000/svg">
<path d="M149.5 1V0.5H149H11C5.20101 0.5 0.5 5.20101 0.5 11V207C0.5 212.799 5.20101 217.5 11 217.5H149H149.5V217V1Z" fill="#8177D7" stroke="#8177D7"/>
<path d="M31.7587 49.8813C30.0471 49.8813 28.547 49.4198 27.2584 48.4966C25.9699 47.5543 24.9602 46.2561 24.2294 44.6022C23.5178 42.929 23.1621 40.9866 23.1621 38.7749C23.1621 36.544 23.5178 34.6016 24.2294 32.9477C24.9602 31.2937 25.9603 30.0052 27.2296 29.0821C28.5181 28.1589 30.0182 27.6974 31.7299 27.6974C33.4415 27.6974 34.932 28.1589 36.2013 29.0821C37.4898 30.0052 38.4899 31.3033 39.2014 32.9765C39.9322 34.6305 40.2977 36.5633 40.2977 38.7749C40.2977 40.9866 39.9419 42.929 39.2303 44.6022C38.5187 46.2561 37.5186 47.5543 36.2301 48.4966C34.9608 49.4198 33.4703 49.8813 31.7587 49.8813ZM31.7587 46.7658C32.8165 46.7658 33.73 46.4388 34.4992 45.7849C35.2685 45.1311 35.8647 44.2079 36.2878 43.0156C36.7109 41.8232 36.9225 40.4096 36.9225 38.7749C36.9225 37.1402 36.7109 35.7267 36.2878 34.5343C35.8647 33.3419 35.2685 32.4188 34.4992 31.7649C33.73 31.111 32.8068 30.7841 31.7299 30.7841C30.6721 30.7841 29.7586 31.111 28.9893 31.7649C28.22 32.4188 27.6239 33.3419 27.2008 34.5343C26.7776 35.7267 26.5661 37.1402 26.5661 38.7749C26.5661 40.3904 26.7776 41.8039 27.2008 43.0156C27.6239 44.2079 28.22 45.1311 28.9893 45.7849C29.7778 46.4388 30.701 46.7658 31.7587 46.7658ZM47.1294 49.5352V30.9283H43.0042V28.0435H50.5046V49.5352H47.1294Z" fill="#AFABD7"/>
<g filter="url(#filter0_d_397_64)">
<path d="M67.2279 135.355L67.2276 135.355C66.1032 136.436 65.4665 137.905 65.4665 139.442V145.014C65.4665 145.573 64.9809 146.028 64.3912 146.022C64.2808 146.021 64.1608 146.001 64.0337 145.958C64.0335 145.957 64.0333 145.957 64.0331 145.957L55.0762 142.886C55.0761 142.886 55.0761 142.886 55.076 142.886C54.0644 142.538 53.4066 141.627 53.4066 140.624V100.366L70.3031 107.8C71.026 108.118 71.4764 108.804 71.4764 109.545V130.486C71.4764 130.989 71.2676 131.477 70.8903 131.839L70.89 131.839L67.2279 135.355ZM67.5609 135.701L71.2229 132.186L64.3857 146.503C65.214 146.512 65.9472 145.868 65.9472 145.014V139.442C65.9472 138.039 66.5282 136.695 67.5609 135.701Z" fill="#DFDDEF" stroke="#DFDDEF" stroke-width="0.961593"/>
<path d="M59.6773 98.9027H88.9777C90.3897 98.9027 91.5019 99.9972 91.5019 101.307V107.557H75.0672C74.5227 106.133 73.408 104.945 71.9351 104.296L71.9349 104.296L59.6773 98.9027Z" fill="#DFDDEF" stroke="#DFDDEF" stroke-width="0.961593"/>
<path d="M75.4378 111.405H95.9917C96.2988 111.405 96.5126 111.638 96.5126 111.885V113.809C96.5126 114.057 96.2988 114.289 95.9917 114.289H75.4378V111.405Z" fill="#DFDDEF" stroke="#DFDDEF" stroke-width="0.961593"/>
<path d="M85.4999 133.876C85.4849 131.787 87.7481 128.715 91.9906 128.715C96.2331 128.715 98.4963 131.787 98.4813 133.876H85.4999ZM85.4999 133.876C85.5053 134.66 86.0614 135.446 86.9904 135.446M85.4999 133.876L86.9904 135.446M86.9904 135.446H96.9909M86.9904 135.446H96.9909M96.9909 135.446C97.9211 135.446 98.4758 134.66 98.4813 133.876L96.9909 135.446ZM75.4433 121.983V118.137H100.004C100.311 118.137 100.525 118.37 100.525 118.618V137.849C100.525 138.097 100.311 138.33 100.004 138.33H69.8093C69.8716 138.244 69.9417 138.164 70.0198 138.089L73.6818 134.573C74.2814 133.998 74.7203 133.303 75.0137 132.561H80.4716C81.5478 132.561 82.4549 131.718 82.4549 130.638C82.4549 129.558 81.5478 128.715 80.4716 128.715H75.4433V125.83H80.4716C81.5478 125.83 82.4549 124.987 82.4549 123.907C82.4549 122.827 81.5478 121.983 80.4716 121.983H75.4433ZM95.4764 124.387C95.4764 122.51 93.8961 121.022 91.9906 121.022C90.0851 121.022 88.5049 122.51 88.5049 124.387C88.5049 126.264 90.085 127.753 91.9906 127.753C93.8962 127.753 95.4764 126.264 95.4764 124.387Z" fill="#DFDDEF" stroke="#DFDDEF" stroke-width="0.961593"/>
</g>
<defs>
<filter id="filter0_d_397_64" x="49.0794" y="95.5755" width="55.7723" height="55.7748" filterUnits="userSpaceOnUse" color-interpolation-filters="sRGB">
<feFlood flood-opacity="0" result="BackgroundImageFix"/>
<feColorMatrix in="SourceAlpha" type="matrix" values="0 0 0 0 0 0 0 0 0 0 0 0 0 0 0 0 0 0 127 0" result="hardAlpha"/>
<feOffset dy="1"/>
<feGaussianBlur stdDeviation="1.92319"/>
<feComposite in2="hardAlpha" operator="out"/>
<feColorMatrix type="matrix" values="0 0 0 0 0 0 0 0 0 0 0 0 0 0 0 0 0 0 0.25 0"/>
<feBlend mode="normal" in2="BackgroundImageFix" result="effect1_dropShadow_397_64"/>
<feBlend mode="normal" in="SourceGraphic" in2="effect1_dropShadow_397_64" result="shape"/>
</filter>
</defs>
</svg>
