<svg width="150" height="218" viewBox="0 0 150 218" fill="none" xmlns="http://www.w3.org/2000/svg">
<path d="M149.5 1V0.5H149H11C5.20101 0.5 0.5 5.20101 0.5 11V207C0.5 212.799 5.20101 217.5 11 217.5H149H149.5V217V1Z" fill="#8177D7" stroke="#8177D7"/>
<path d="M32.0165 49.8813C30.3049 49.8813 28.8048 49.4198 27.5163 48.4966C26.2277 47.5543 25.2181 46.2561 24.4872 44.6022C23.7757 42.929 23.4199 40.9866 23.4199 38.7749C23.4199 36.544 23.7757 34.6016 24.4872 32.9477C25.2181 31.2937 26.2181 30.0052 27.4874 29.0821C28.7759 28.1589 30.276 27.6974 31.9877 27.6974C33.6993 27.6974 35.1898 28.1589 36.4591 29.0821C37.7476 30.0052 38.7477 31.3033 39.4592 32.9765C40.1901 34.6305 40.5555 36.5633 40.5555 38.7749C40.5555 40.9866 40.1997 42.929 39.4881 44.6022C38.7765 46.2561 37.7765 47.5543 36.4879 48.4966C35.2186 49.4198 33.7282 49.8813 32.0165 49.8813ZM32.0165 46.7658C33.0743 46.7658 33.9878 46.4388 34.7571 45.7849C35.5263 45.1311 36.1225 44.2079 36.5456 43.0156C36.9687 41.8232 37.1803 40.4096 37.1803 38.7749C37.1803 37.1402 36.9687 35.7267 36.5456 34.5343C36.1225 33.3419 35.5263 32.4188 34.7571 31.7649C33.9878 31.111 33.0647 30.7841 31.9877 30.7841C30.9299 30.7841 30.0164 31.111 29.2471 31.7649C28.4779 32.4188 27.8817 33.3419 27.4586 34.5343C27.0355 35.7267 26.8239 37.1402 26.8239 38.7749C26.8239 40.3904 27.0355 41.8039 27.4586 43.0156C27.8817 44.2079 28.4779 45.1311 29.2471 45.7849C30.0356 46.4388 30.9588 46.7658 32.0165 46.7658ZM43.7524 49.5352V47.0831L49.6373 40.7943C50.7912 39.5634 51.6951 38.573 52.349 37.823C53.0221 37.0537 53.5029 36.3806 53.7914 35.8036C54.0991 35.2266 54.253 34.6208 54.253 33.9862C54.253 32.9477 53.9357 32.1496 53.301 31.5918C52.6664 31.0149 51.849 30.7264 50.8489 30.7264C49.8104 30.7264 48.9161 31.0245 48.1661 31.6207C47.4161 32.1976 46.8968 33.0438 46.6083 34.1593L43.6081 33.2938C43.8389 32.1592 44.3005 31.1783 44.9928 30.3514C45.6852 29.5052 46.5314 28.8513 47.5314 28.3897C48.5507 27.9282 49.647 27.6974 50.8201 27.6974C52.1856 27.6974 53.3779 27.957 54.3972 28.4763C55.4165 28.9763 56.205 29.6783 56.7627 30.5822C57.3397 31.4861 57.6282 32.5342 57.6282 33.7266C57.6282 34.5151 57.4743 35.2843 57.1666 36.0344C56.8781 36.7652 56.4262 37.5441 55.8108 38.3711C55.1953 39.1788 54.4068 40.0923 53.4452 41.1116L48.2526 46.6504H58.032V49.5352H43.7524Z" fill="#AFABD7"/>
<g filter="url(#filter0_d_398_66)">
<path d="M69.3158 103.135C69.3158 105.508 67.5406 107.368 65.4257 107.368C63.3107 107.368 61.5355 105.508 61.5355 103.135C61.5355 100.763 63.3107 98.9027 65.4257 98.9027C67.5406 98.9027 69.3158 100.763 69.3158 103.135Z" fill="#DFDDEF" stroke="#DFDDEF" stroke-width="0.961593"/>
<path d="M81.2699 102.083L81.27 102.083C81.3167 101.853 81.4922 101.731 81.6494 101.731H100.396C100.582 101.731 100.788 101.907 100.786 102.19V102.193C100.786 102.223 100.783 102.257 100.776 102.295C100.776 102.295 100.776 102.296 100.776 102.296L93.2902 139.068L93.2902 139.068C93.2434 139.299 93.068 139.421 92.9108 139.421H74.1637C73.9778 139.421 73.7723 139.244 73.7738 138.961V138.959C73.7738 138.928 73.777 138.894 73.7845 138.856C73.7845 138.856 73.7846 138.856 73.7847 138.855L81.2699 102.083ZM84.2204 121.528H88.5914C89.6153 121.528 90.3835 120.644 90.3835 119.633C90.3835 118.622 89.6153 117.738 88.5914 117.738H84.2204C83.1964 117.738 82.4283 118.622 82.4283 119.633C82.4283 120.644 83.1964 121.528 84.2204 121.528ZM85.0946 115.872H92.9623C93.9863 115.872 94.7544 114.988 94.7544 113.977C94.7544 112.966 93.9863 112.082 92.9623 112.082H85.0946C84.0706 112.082 83.3025 112.966 83.3025 113.977C83.3025 114.988 84.0706 115.872 85.0946 115.872ZM85.9688 110.215H93.8365C94.8605 110.215 95.6286 109.331 95.6286 108.32C95.6286 107.309 94.8605 106.425 93.8365 106.425H85.9688C84.9448 106.425 84.1767 107.309 84.1767 108.32C84.1767 109.331 84.9448 110.215 85.9688 110.215Z" fill="#DFDDEF" stroke="#DFDDEF" stroke-width="0.961593"/>
<path d="M59.241 111.651L59.241 111.651L55.6379 117.426C55.6378 117.426 55.6376 117.426 55.6374 117.427C55.4993 117.651 55.4168 117.921 55.4168 118.217C55.4168 118.895 55.8472 119.428 56.3821 119.575C56.3824 119.575 56.3827 119.575 56.383 119.575L63.3791 121.461L63.3791 121.461C63.4898 121.491 63.5865 121.507 63.6779 121.507C64.3439 121.507 64.9455 120.912 64.9455 120.102C64.9455 119.422 64.5132 118.888 63.9763 118.743L59.3886 117.503L58.766 117.334L59.1052 116.786L61.5144 112.888L61.7592 112.492L62.1629 112.724L66.8224 115.402L67.252 115.649L66.9923 116.071L66.4056 117.024C67.333 117.943 67.8052 119.29 67.6119 120.744C67.3414 122.78 65.624 124.354 63.6779 124.354C63.356 124.354 63.0357 124.309 62.7015 124.217C62.7012 124.217 62.701 124.217 62.7008 124.217L60.1444 123.528L56.2816 142.822L56.2283 143.088L55.9729 143.18L55.0087 143.527L55.0083 143.527C54.2142 143.812 53.6618 144.601 53.6684 145.563C53.6703 145.842 53.8823 146.018 54.0618 146.018H59.6103C60.1905 146.018 60.7329 145.568 60.8556 144.883C60.8556 144.883 60.8557 144.883 60.8557 144.883L63.5001 130.085C63.6028 129.509 64.0833 129.048 64.6928 129.048H64.694C65.3975 129.049 65.9071 129.652 65.9071 130.32V144.613C65.9071 145.423 66.5086 146.018 67.1747 146.018H72.4198C72.601 146.018 72.8132 145.842 72.8132 145.557V145.557C72.814 144.581 72.2667 143.811 71.4737 143.525L59.241 111.651ZM59.241 111.651C59.8077 110.742 60.745 110.213 61.7311 110.213H68.2805C69.271 110.213 70.2122 110.747 70.7782 111.662C70.7783 111.662 70.7783 111.662 70.7783 111.662L73.8204 116.584L73.9614 116.812H74.2294H75.5012L74.9294 119.621H73.294C72.8719 119.621 72.4844 119.39 72.2482 119.008L71.0803 117.12L70.1907 115.682V117.373V142.727V143.066L70.5095 143.18L71.473 143.525L59.241 111.651Z" fill="#DFDDEF" stroke="#DFDDEF" stroke-width="0.961593"/>
<path d="M86.9138 144.857L86.9138 144.857L86.9145 144.854L87.512 142.27H89.2221L88.5129 145.323L88.5128 145.323C88.4137 145.751 88.0733 146.022 87.7136 146.022C87.2882 146.022 86.8831 145.639 86.8831 145.089C86.8831 145.017 86.8936 144.941 86.9138 144.857Z" fill="#DFDDEF" stroke="#DFDDEF" stroke-width="0.961593"/>
<path d="M75.5466 144.857L75.5466 144.857L75.5473 144.854L76.1448 142.27H77.855L77.1457 145.323L77.1457 145.323C77.0465 145.751 76.7061 146.022 76.3464 146.022C75.921 146.022 75.516 145.639 75.516 145.089C75.516 145.017 75.5265 144.941 75.5466 144.857Z" fill="#DFDDEF" stroke="#DFDDEF" stroke-width="0.961593"/>
<path d="M96.4178 137.299L97.2337 133.29L99.877 144.851L99.877 144.851L99.8779 144.856C99.8981 144.94 99.9086 145.016 99.9086 145.087C99.9086 145.638 99.5036 146.021 99.0781 146.021C98.7184 146.021 98.3781 145.75 98.2789 145.322L98.2789 145.322L96.4178 137.299Z" fill="#DFDDEF" stroke="#DFDDEF" stroke-width="0.961593"/>
</g>
<defs>
<filter id="filter0_d_398_66" x="49.3411" y="95.5755" width="55.7723" height="55.7728" filterUnits="userSpaceOnUse" color-interpolation-filters="sRGB">
<feFlood flood-opacity="0" result="BackgroundImageFix"/>
<feColorMatrix in="SourceAlpha" type="matrix" values="0 0 0 0 0 0 0 0 0 0 0 0 0 0 0 0 0 0 127 0" result="hardAlpha"/>
<feOffset dy="1"/>
<feGaussianBlur stdDeviation="1.92319"/>
<feComposite in2="hardAlpha" operator="out"/>
<feColorMatrix type="matrix" values="0 0 0 0 0 0 0 0 0 0 0 0 0 0 0 0 0 0 0.25 0"/>
<feBlend mode="normal" in2="BackgroundImageFix" result="effect1_dropShadow_398_66"/>
<feBlend mode="normal" in="SourceGraphic" in2="effect1_dropShadow_398_66" result="shape"/>
</filter>
</defs>
</svg>
