<svg width="151" height="218" viewBox="0 0 151 218" fill="none" xmlns="http://www.w3.org/2000/svg">
<path d="M150.5 1V0.5H150H10C4.75329 0.5 0.5 4.7533 0.5 10V208C0.5 213.247 4.7533 217.5 10 217.5H150H150.5V217V1Z" fill="#8177D7" stroke="#8177D7"/>
<path d="M32.2743 49.8813C30.5627 49.8813 29.0626 49.4198 27.7741 48.4966C26.4855 47.5543 25.4759 46.2561 24.7451 44.6022C24.0335 42.929 23.6777 40.9866 23.6777 38.7749C23.6777 36.544 24.0335 34.6016 24.7451 32.9477C25.4759 31.2937 26.4759 30.0052 27.7452 29.0821C29.0338 28.1589 30.5338 27.6974 32.2455 27.6974C33.9571 27.6974 35.4476 28.1589 36.7169 29.0821C38.0054 30.0052 39.0055 31.3033 39.7171 32.9765C40.4479 34.6305 40.8133 36.5633 40.8133 38.7749C40.8133 40.9866 40.4575 42.929 39.7459 44.6022C39.0343 46.2561 38.0343 47.5543 36.7457 48.4966C35.4764 49.4198 33.986 49.8813 32.2743 49.8813ZM32.2743 46.7658C33.3321 46.7658 34.2456 46.4388 35.0149 45.7849C35.7841 45.1311 36.3803 44.2079 36.8034 43.0156C37.2265 41.8232 37.4381 40.4096 37.4381 38.7749C37.4381 37.1402 37.2265 35.7267 36.8034 34.5343C36.3803 33.3419 35.7841 32.4188 35.0149 31.7649C34.2456 31.111 33.3225 30.7841 32.2455 30.7841C31.1877 30.7841 30.2742 31.111 29.5049 31.7649C28.7357 32.4188 28.1395 33.3419 27.7164 34.5343C27.2933 35.7267 27.0817 37.1402 27.0817 38.7749C27.0817 40.3904 27.2933 41.8039 27.7164 43.0156C28.1395 44.2079 28.7357 45.1311 29.5049 45.7849C30.2934 46.4388 31.2166 46.7658 32.2743 46.7658ZM51.0202 49.8813C49.8663 49.8813 48.7797 49.6698 47.7604 49.2467C46.7604 48.8236 45.8949 48.2274 45.1641 47.4581C44.4525 46.6888 43.9429 45.7849 43.6352 44.7464L46.52 43.6502C46.9046 44.6695 47.4912 45.458 48.2797 46.0157C49.0682 46.5734 49.9817 46.8523 51.0202 46.8523C51.8664 46.8523 52.5972 46.6888 53.2126 46.3619C53.8473 46.035 54.3377 45.5734 54.6839 44.9772C55.0493 44.381 55.232 43.6598 55.232 42.8136C55.232 41.9866 55.0493 41.2751 54.6839 40.6789C54.3377 40.0827 53.8473 39.6307 53.2126 39.323C52.5972 39.0153 51.8664 38.8615 51.0202 38.8615C50.674 38.8615 50.3182 38.8903 49.9528 38.948C49.6067 39.0057 49.299 39.0826 49.0297 39.1788L48.2797 37.5922L53.9338 30.9283H44.7891V28.0435H57.7417V30.7841L52.203 37.4191L52.1164 36.3229C53.405 36.3421 54.5396 36.6306 55.5205 37.1883C56.5013 37.7268 57.261 38.4768 57.7994 39.4384C58.3572 40.3808 58.636 41.477 58.636 42.7271C58.636 44.0733 58.3091 45.2945 57.6552 46.3907C57.0013 47.4677 56.0974 48.3235 54.9435 48.9582C53.8088 49.5736 52.5011 49.8813 51.0202 49.8813Z" fill="#AFABD7"/>
<g filter="url(#filter0_d_398_76)">
<path d="M75.2875 142.391H54.8792V125.636C54.8792 120.884 58.6588 117.045 63.3026 117.045H66.8642C71.508 117.045 75.2875 120.884 75.2875 125.636V142.391Z" fill="#DFDDEF" stroke="#DFDDEF" stroke-width="0.961593"/>
<path d="M71.7228 106.589C71.7228 110.34 68.7405 113.365 65.0803 113.365C61.4202 113.365 58.4378 110.34 58.4378 106.589C58.4378 102.838 61.4202 99.8128 65.0803 99.8128C68.7405 99.8128 71.7228 102.838 71.7228 106.589Z" fill="#DFDDEF" stroke="#DFDDEF" stroke-width="0.961593"/>
<path d="M94.8873 104.772C94.8873 108.022 92.3036 110.641 89.1352 110.641C85.9668 110.641 83.3831 108.022 83.3831 104.772C83.3831 101.522 85.9668 98.9027 89.1352 98.9027C92.3036 98.9027 94.8873 101.522 94.8873 104.772Z" fill="#DFDDEF" stroke="#DFDDEF" stroke-width="0.961593"/>
<path d="M93.5725 139.67H93.3617L93.2188 139.825L87.6221 145.902C87.5456 145.977 87.446 146.02 87.3396 146.02C87.1212 146.02 86.93 145.838 86.93 145.594V126.544C86.93 126.299 87.1212 126.118 87.3396 126.118C87.4392 126.118 87.5321 126.155 87.6063 126.22C87.6064 126.22 87.6066 126.221 87.6068 126.221L101.851 138.919C101.851 138.919 101.851 138.919 101.851 138.919C101.94 138.999 101.996 139.114 101.996 139.244C101.996 139.488 101.805 139.67 101.586 139.67H93.5725Z" fill="#DFDDEF" stroke="#DFDDEF" stroke-width="0.961593"/>
<path d="M87.3418 122.432C85.1046 122.432 83.2994 124.283 83.2994 126.542V135.132H79.8089V122.913C79.8089 118.16 83.5884 114.323 88.2322 114.323H90.0131C94.6569 114.323 98.4364 118.16 98.4364 122.913V130.966L90.0107 123.454C89.2737 122.797 88.3267 122.432 87.3418 122.432Z" fill="#DFDDEF" stroke="#DFDDEF" stroke-width="0.961593"/>
</g>
<defs>
<filter id="filter0_d_398_76" x="50.5521" y="95.5755" width="55.7709" height="55.7709" filterUnits="userSpaceOnUse" color-interpolation-filters="sRGB">
<feFlood flood-opacity="0" result="BackgroundImageFix"/>
<feColorMatrix in="SourceAlpha" type="matrix" values="0 0 0 0 0 0 0 0 0 0 0 0 0 0 0 0 0 0 127 0" result="hardAlpha"/>
<feOffset dy="1"/>
<feGaussianBlur stdDeviation="1.92319"/>
<feComposite in2="hardAlpha" operator="out"/>
<feColorMatrix type="matrix" values="0 0 0 0 0 0 0 0 0 0 0 0 0 0 0 0 0 0 0.25 0"/>
<feBlend mode="normal" in2="BackgroundImageFix" result="effect1_dropShadow_398_76"/>
<feBlend mode="normal" in="SourceGraphic" in2="effect1_dropShadow_398_76" result="shape"/>
</filter>
</defs>
</svg>
