<svg width="56" height="56" viewBox="0 0 56 56" fill="none" xmlns="http://www.w3.org/2000/svg">
<path d="M27.9982 28.0003C31.6064 28.0003 34.5315 25.0752 34.5315 21.4669C34.5315 17.8587 31.6064 14.9336 27.9982 14.9336C24.3899 14.9336 21.4648 17.8587 21.4648 21.4669C21.4648 25.0752 24.3899 28.0003 27.9982 28.0003Z" fill="#514040"/>
<path d="M8.40182 42C7.37142 42 6.53516 42.8363 6.53516 43.8667C6.53516 44.8971 7.37142 45.7333 8.40182 45.7333H10.2685V49.4667H18.6685V42H8.40182Z" fill="#50C870"/>
<path d="M6.53411 19.5996C4.47238 19.5996 2.80078 21.2712 2.80078 23.3329V27.0663H10.2674V23.3329C10.2674 21.2712 8.59585 19.5996 6.53411 19.5996Z" fill="black"/>
<path d="M6.53437 17.7338C8.08077 17.7338 9.33437 16.4802 9.33437 14.9338C9.33437 13.3874 8.08077 12.1338 6.53437 12.1338C4.98798 12.1338 3.73438 13.3874 3.73438 14.9338C3.73438 16.4802 4.98798 17.7338 6.53437 17.7338Z" fill="black"/>
<path d="M15.8661 19.5996C13.8044 19.5996 12.1328 21.2712 12.1328 23.3329V27.0663H19.5995V23.3329C19.5995 21.2712 17.9279 19.5996 15.8661 19.5996Z" fill="black"/>
<path d="M15.8664 17.7338C17.4128 17.7338 18.6664 16.4802 18.6664 14.9338C18.6664 13.3874 17.4128 12.1338 15.8664 12.1338C14.32 12.1338 13.0664 13.3874 13.0664 14.9338C13.0664 16.4802 14.32 17.7338 15.8664 17.7338Z" fill="black"/>
<path d="M11.1984 12.1332C12.7448 12.1332 13.9984 10.8796 13.9984 9.3332C13.9984 7.78681 12.7448 6.5332 11.1984 6.5332C9.65204 6.5332 8.39844 7.78681 8.39844 9.3332C8.39844 10.8796 9.65204 12.1332 11.1984 12.1332Z" fill="black"/>
<path d="M20.5344 12.1332C22.0808 12.1332 23.3344 10.8796 23.3344 9.3332C23.3344 7.78681 22.0808 6.5332 20.5344 6.5332C18.988 6.5332 17.7344 7.78681 17.7344 9.3332C17.7344 10.8796 18.988 12.1332 20.5344 12.1332Z" fill="black"/>
<path d="M50.4008 29.8662C49.9957 29.8662 49.613 29.9558 49.2668 30.1107L42.0717 33.3037L37.0802 30.7053C36.0209 30.1546 34.844 29.8662 33.6484 29.8662H22.3532C21.1585 29.8662 19.9806 30.1546 18.9213 30.7053L13.9298 33.3037L6.73571 30.1107C6.38758 29.9558 6.00585 29.8662 5.60078 29.8662C4.05705 29.8662 2.80078 31.0814 2.80078 32.6662C2.80078 33.8086 3.48585 34.7858 4.46678 35.2217L12.8742 38.9587C13.2196 39.1118 13.5985 39.1995 14.0008 39.1995C14.4422 39.1995 14.8548 39.0885 15.2262 38.9065L20.5341 36.2605V49.4662H35.4674V36.2605L40.7762 38.9055C41.1468 39.0885 41.5593 39.1995 42.0008 39.1995C42.403 39.1995 42.7829 39.1118 43.1273 38.9597L51.5348 35.2226C52.5157 34.7858 53.2008 33.8086 53.2008 32.6662C53.2008 31.0422 51.8988 29.8662 50.4008 29.8662Z" fill="#FBB040"/>
<path d="M47.5987 42C48.6291 42 49.4654 42.8363 49.4654 43.8667C49.4654 44.8971 48.6291 45.7333 47.5987 45.7333H45.732V49.4667H37.332V42H47.5987Z" fill="#2D3ED8"/>
<path d="M49.4677 19.5996C51.5294 19.5996 53.201 21.2712 53.201 23.3329V27.0663H45.7344V23.3329C45.7344 21.2712 47.406 19.5996 49.4677 19.5996Z" fill="black"/>
<path d="M49.468 17.7338C51.0144 17.7338 52.268 16.4802 52.268 14.9338C52.268 13.3874 51.0144 12.1338 49.468 12.1338C47.9216 12.1338 46.668 13.3874 46.668 14.9338C46.668 16.4802 47.9216 17.7338 49.468 17.7338Z" fill="black"/>
<path d="M40.1318 19.5996C42.1935 19.5996 43.8651 21.2712 43.8651 23.3329V27.0663H36.3984V23.3329C36.3984 21.2712 38.07 19.5996 40.1318 19.5996Z" fill="black"/>
<path d="M40.132 17.7338C41.6784 17.7338 42.932 16.4802 42.932 14.9338C42.932 13.3874 41.6784 12.1338 40.132 12.1338C38.5856 12.1338 37.332 13.3874 37.332 14.9338C37.332 16.4802 38.5856 17.7338 40.132 17.7338Z" fill="black"/>
<path d="M44.8 12.1332C46.3464 12.1332 47.6 10.8796 47.6 9.3332C47.6 7.78681 46.3464 6.5332 44.8 6.5332C43.2536 6.5332 42 7.78681 42 9.3332C42 10.8796 43.2536 12.1332 44.8 12.1332Z" fill="black"/>
<path d="M35.468 12.1332C37.0144 12.1332 38.268 10.8796 38.268 9.3332C38.268 7.78681 37.0144 6.5332 35.468 6.5332C33.9216 6.5332 32.668 7.78681 32.668 9.3332C32.668 10.8796 33.9216 12.1332 35.468 12.1332Z" fill="black"/>
</svg>
