<svg width="56" height="56" viewBox="0 0 56 56" fill="none" xmlns="http://www.w3.org/2000/svg">
<path d="M10.7349 14.0001C13.57 14.0001 15.8682 11.7018 15.8682 8.86673C15.8682 6.03167 13.57 3.7334 10.7349 3.7334C7.89983 3.7334 5.60156 6.03167 5.60156 8.86673C5.60156 11.7018 7.89983 14.0001 10.7349 14.0001Z" fill="black"/>
<path d="M18.6674 27.9995H2.80078V20.5329C2.80078 17.955 4.88958 15.8662 7.46745 15.8662H14.0008C16.5786 15.8662 18.6674 17.955 18.6674 20.5329V27.9995Z" fill="#FB5B0D"/>
<path d="M22.8677 39.2003C25.7028 39.2003 28.001 36.902 28.001 34.0669C28.001 31.2319 25.7028 28.9336 22.8677 28.9336C20.0326 28.9336 17.7344 31.2319 17.7344 34.0669C17.7344 36.902 20.0326 39.2003 22.8677 39.2003Z" fill="black"/>
<path d="M14.9336 52.2664V45.7331C14.9336 43.1552 17.0224 41.0664 19.6003 41.0664H26.1336C28.7115 41.0664 30.8003 43.1552 30.8003 45.7331V52.2664H14.9336Z" fill="#50C870"/>
<path d="M44.3323 23.3335C47.6828 23.3335 50.399 20.6174 50.399 17.2669C50.399 13.9163 47.6828 11.2002 44.3323 11.2002C40.9818 11.2002 38.2656 13.9163 38.2656 17.2669C38.2656 20.6174 40.9818 23.3335 44.3323 23.3335Z" fill="black"/>
<path d="M35.4648 41.0669V29.8669C35.4648 27.289 37.5536 25.2002 40.1315 25.2002H48.5315C51.1094 25.2002 53.1982 27.289 53.1982 29.8669V41.0669H35.4648Z" fill="#2D3ED8"/>
<path d="M35.818 11.4659C34.3834 10.6287 29.4872 6.5332 20.068 6.5332C19.2952 6.5332 18.668 7.1604 18.668 7.9332C18.668 8.706 19.2952 9.3332 20.068 9.3332C25.276 9.3332 29.9305 10.6679 34.1576 13.7105C34.3928 13.8897 34.683 13.9999 35.0013 13.9999C35.7741 13.9999 36.4013 13.3727 36.4013 12.5999C36.4013 12.1323 36.1708 11.7197 35.818 11.4659Z" fill="black"/>
<path d="M31.7551 22.3063C32.2862 22.1084 32.6651 21.5997 32.6651 20.9996C32.6651 20.2268 32.0379 19.5996 31.2651 19.5996C31.1615 19.5996 31.0607 19.6127 30.9636 19.6341C27.9424 20.5404 25.2442 21.9628 22.9836 23.5989C22.6299 23.8528 22.3984 24.2644 22.3984 24.7329C22.3984 25.5057 23.0256 26.1329 23.7984 26.1329C24.1158 26.1329 24.4079 26.0275 24.6431 25.8483C26.7618 24.3232 29.1875 23.0567 31.7551 22.3063Z" fill="black"/>
</svg>
