<svg width="56" height="56" viewBox="0 0 56 56" fill="none" xmlns="http://www.w3.org/2000/svg">
<path d="M21.237 39.1997H32.9998C34.2971 39.1997 35.4656 40.1909 35.4656 41.5134C35.4656 42.8089 34.4352 43.8589 33.1472 43.8663H27.999C27.4838 43.8663 27.0656 44.2845 27.0656 44.7997C27.0656 45.3149 27.4838 45.733 27.999 45.733H32.269C33.7446 45.733 35.1866 45.2934 36.4111 44.4711L46.5555 37.6503C46.857 37.4487 47.22 37.333 47.6102 37.333C48.6312 37.333 49.4656 38.1945 49.4656 39.2109C49.4656 39.7839 49.1959 40.2889 48.7862 40.6295L37.673 50.4193C36.2468 51.6121 34.4464 52.2663 32.5872 52.2663H25.1924C23.9539 52.2663 22.7163 52.1786 21.4899 52.0031L10.2656 50.3997V41.0663L17.9927 39.5207C19.0604 39.307 20.1478 39.1997 21.237 39.1997Z" fill="#514040"/>
<path d="M3.73438 37.333H6.53437C7.56477 37.333 8.40104 38.1693 8.40104 39.1997V52.2663C8.40104 53.2967 7.56477 54.133 6.53437 54.133H3.73438V37.333Z" fill="#2D3ED8"/>
<path d="M24.8359 13.5863C26.4459 13.8458 28.1306 13.9998 29.8657 13.9998C31.6007 13.9998 33.2854 13.8458 34.8954 13.5863C32.9662 7.16407 29.8657 2.7998 29.8657 2.7998C29.8657 2.7998 26.7651 7.16407 24.8359 13.5863Z" fill="black"/>
<path d="M24.1263 16.3076C23.6419 18.4991 23.332 20.8651 23.332 23.3338C23.332 25.8024 23.6419 28.1684 24.1263 30.3599C25.9538 30.0528 27.8755 29.8671 29.8654 29.8671C31.8552 29.8671 33.777 30.0528 35.6044 30.3599C36.0888 28.1684 36.3987 25.8024 36.3987 23.3338C36.3987 20.8651 36.0888 18.4991 35.6044 16.3076C33.777 16.6147 31.8552 16.8004 29.8654 16.8004C27.8755 16.8004 25.9538 16.6147 24.1263 16.3076Z" fill="black"/>
<path d="M22.1328 4.33365C22.9793 5.35938 23.6009 6.57085 23.9491 7.89245C24.8143 5.89698 25.6888 4.25618 26.3645 3.10352C24.8917 3.35738 23.4815 3.78485 22.1328 4.33365Z" fill="black"/>
<path d="M14.9315 2.7998C10.808 2.7998 7.46484 6.143 7.46484 10.2665C7.46484 15.8665 14.9315 22.3998 14.9315 22.3998C14.9315 22.3998 22.3982 15.8665 22.3982 10.2665C22.3982 6.143 19.055 2.7998 14.9315 2.7998ZM14.9315 13.0665C13.385 13.0665 12.1315 11.813 12.1315 10.2665C12.1315 8.71994 13.385 7.46647 14.9315 7.46647C16.478 7.46647 17.7315 8.71994 17.7315 10.2665C17.7315 11.813 16.478 13.0665 14.9315 13.0665Z" fill="#50C870"/>
<path d="M20.8746 18.6357C18.8548 21.3872 16.6018 23.4191 16.1612 23.8045L14.932 24.8797L13.7028 23.8045C13.3136 23.4639 11.5039 21.8315 9.6923 19.556C9.46363 20.7824 9.33203 22.0415 9.33203 23.3332C9.33203 27.3213 10.4735 31.0425 12.441 34.1935C14.7696 33.0483 17.8366 31.7864 21.3814 30.9231C20.8634 28.5608 20.532 26.0072 20.532 23.3332C20.532 21.7157 20.6646 20.1496 20.8746 18.6357Z" fill="black"/>
<path d="M42 13.0668C42 9.97466 44.5069 7.4668 47.6 7.4668C50.6921 7.4668 53.2 9.97466 53.2 13.0668C53.2 16.8001 47.6 22.4001 47.6 22.4001C47.6 22.4001 42 16.8001 42 13.0668Z" fill="#FBB040"/>
<path d="M42.8657 7.45752C40.1815 5.25765 36.9353 3.71672 33.3672 3.10352C34.5572 5.13445 36.366 8.63818 37.6531 13.0276C38.5332 12.8139 39.3797 12.5703 40.1945 12.3118C40.4335 10.3639 41.4209 8.64472 42.8657 7.45752Z" fill="black"/>
<path d="M32.9998 37.3337C33.1165 37.3337 33.2257 37.3579 33.3395 37.3673C33.8865 36.0821 34.4259 34.6438 34.8945 33.0814C33.2854 32.821 31.6007 32.667 29.8657 32.667C28.1306 32.667 26.4459 32.821 24.8359 33.0805C25.3017 34.6298 25.8355 36.0559 26.3769 37.3337H32.9998Z" fill="black"/>
<path d="M15.615 38.0935L17.6263 37.6912C18.8145 37.4542 20.0287 37.3338 21.2374 37.3338H23.3542C22.9034 36.1886 22.4666 34.9603 22.0793 33.6396C18.9675 34.3975 16.2394 35.4858 14.1133 36.5003C14.5818 37.0612 15.0895 37.5867 15.615 38.0935Z" fill="black"/>
<path d="M37.3347 41.5132C37.3347 41.5431 37.3347 41.5739 37.3337 41.6047L45.2064 36.3118C43.1428 35.3523 40.5761 34.3508 37.6557 33.6396C37.1536 35.3514 36.4928 37.0118 35.8945 38.4239C36.7719 39.1883 37.3347 40.284 37.3347 41.5132Z" fill="black"/>
<path d="M47.6009 25.0394C45.1509 22.5894 41.6742 18.955 40.487 15.1162C39.8272 15.3169 39.0338 15.5773 38.3516 15.7434C38.8696 18.1057 39.2009 20.6593 39.2009 23.3333C39.2009 26.0073 38.8696 28.5609 38.3516 30.9222C41.8973 31.7865 44.9633 33.0483 47.292 34.1926C49.2594 31.0426 50.4009 27.3214 50.4009 23.3333C50.4009 23.0458 50.3626 22.5903 50.3001 22.2282C49.3658 23.3006 48.916 23.7234 47.6009 25.0394Z" fill="black"/>
</svg>
