<svg width="56" height="56" viewBox="0 0 56 56" fill="none" xmlns="http://www.w3.org/2000/svg">
<path d="M26.1344 49.4671H3.73438V31.7337C3.73438 26.5799 7.91291 22.4004 13.0677 22.4004H16.801C21.9558 22.4004 26.1344 26.5799 26.1344 31.7337V49.4671Z" fill="#2D3ED8"/>
<path d="M14.9315 19.6003C19.0552 19.6003 22.3982 16.2574 22.3982 12.1337C22.3982 8.00993 19.0552 4.66699 14.9315 4.66699C10.8078 4.66699 7.46484 8.00993 7.46484 12.1337C7.46484 16.2574 10.8078 19.6003 14.9315 19.6003Z" fill="black"/>
<path d="M40.1349 16.8001C43.7432 16.8001 46.6682 13.875 46.6682 10.2667C46.6682 6.65847 43.7432 3.7334 40.1349 3.7334C36.5266 3.7334 33.6016 6.65847 33.6016 10.2667C33.6016 13.875 36.5266 16.8001 40.1349 16.8001Z" fill="black"/>
<path d="M38.8795 31.9639L53.8128 45.0306C54.0079 45.2023 54.132 45.4534 54.132 45.7334C54.132 46.2495 53.7148 46.6667 53.1987 46.6667H44.7987L38.9252 52.9266C38.7554 53.0955 38.522 53.2001 38.2654 53.2001C37.7492 53.2001 37.332 52.7829 37.332 52.2667V32.6667C37.332 32.1506 37.7492 31.7334 38.2654 31.7334C38.5006 31.7334 38.7152 31.8211 38.8795 31.9639Z" fill="#FB5B0D"/>
<path d="M34.5339 32.6663C34.5339 30.6073 36.2092 28.9329 38.2672 28.9329C39.1744 28.9329 40.048 29.2624 40.7293 29.8588L50.4005 38.3223V28.9329C50.4005 23.7781 46.222 19.5996 41.0672 19.5996H39.2005C34.0457 19.5996 29.8672 23.7781 29.8672 28.9329V41.9996H34.5339V32.6663Z" fill="#50C870"/>
</svg>
