<svg width="56" height="56" viewBox="0 0 56 56" fill="none" xmlns="http://www.w3.org/2000/svg">
<path d="M52.9217 24.2571C52.8601 24.259 52.7976 24.2665 52.7341 24.2665C49.3834 24.2665 46.6674 21.5505 46.6674 18.1998C46.6674 16.391 47.4645 14.7717 48.7189 13.661C47.2452 11.5339 45.4513 9.64767 43.4092 8.0666C42.2957 9.40967 40.6157 10.2665 38.7341 10.2665C35.3834 10.2665 32.6674 7.55047 32.6674 4.1998C32.6674 3.87687 32.7001 3.5614 32.7486 3.25247C31.2105 2.9594 29.6248 2.7998 28.0008 2.7998C26.3768 2.7998 24.791 2.9594 23.2529 3.25247C23.3014 3.5614 23.3341 3.87687 23.3341 4.1998C23.3341 7.55047 20.6181 10.2665 17.2674 10.2665C15.3858 10.2665 13.7058 9.40967 12.5924 8.0666C10.5502 9.64767 8.75638 11.5339 7.28265 13.661C8.53798 14.7717 9.33411 16.3919 9.33411 18.1998C9.33411 21.5505 6.61811 24.2665 3.26745 24.2665C3.20398 24.2665 3.14145 24.259 3.07985 24.2571C2.89785 25.4789 2.80078 26.7277 2.80078 27.9998C2.80078 29.5958 2.95571 31.1545 3.23945 32.6683C3.24878 32.6683 3.25811 32.6665 3.26745 32.6665C6.61811 32.6665 9.33411 35.3825 9.33411 38.7331C9.33411 40.345 8.70131 41.8066 7.67558 42.893C9.07185 44.7942 10.7285 46.4901 12.5933 47.933C13.7058 46.5899 15.3858 45.7331 17.2674 45.7331C20.6181 45.7331 23.3341 48.4491 23.3341 51.7998C23.3341 52.1227 23.3014 52.4382 23.2529 52.7471C24.791 53.0402 26.3768 53.1998 28.0008 53.1998C29.6248 53.1998 31.2105 53.0402 32.7486 52.7471C32.7001 52.4382 32.6674 52.1227 32.6674 51.7998C32.6674 48.4491 35.3834 45.7331 38.7341 45.7331C40.6157 45.7331 42.2957 46.5899 43.4092 47.933C45.273 46.4901 46.9297 44.7942 48.3269 42.893C47.3002 41.8066 46.6674 40.345 46.6674 38.7331C46.6674 35.3825 49.3834 32.6665 52.7341 32.6665C52.7434 32.6665 52.7528 32.6683 52.7621 32.6683C53.0458 31.1545 53.2008 29.5958 53.2008 27.9998C53.2008 26.7277 53.1037 25.4789 52.9217 24.2571ZM39.1569 31.3411C37.7056 36.4185 33.0324 40.1331 27.4893 40.1331C24.5064 40.1331 21.782 39.0505 19.6689 37.265L17.1872 39.7467C16.9389 39.995 16.6038 40.1331 16.2538 40.1331C15.5249 40.1331 14.9341 39.5423 14.9341 38.8134V30.7998C14.9341 30.2837 15.3513 29.8665 15.8674 29.8665H23.881C24.61 29.8665 25.2008 30.4573 25.2008 31.1862C25.2008 31.5362 25.0626 31.8713 24.8144 32.1195L23.0476 33.8863C24.3934 34.2979 25.897 34.5331 27.4893 34.5331C31.8414 34.5331 35.5617 32.8093 37.056 30.3761C37.2576 30.0466 37.6346 29.8665 38.021 29.8665C38.6725 29.8665 39.2008 30.3882 39.2008 31.0033C39.2008 31.1134 39.1896 31.2282 39.1569 31.3411ZM40.1341 25.1998C40.1341 25.7159 39.7169 26.1331 39.2008 26.1331H31.1872C30.4583 26.1331 29.8674 25.5423 29.8674 24.8134C29.8674 24.4634 30.0056 24.1283 30.2538 23.8801L32.0206 22.1133C30.6748 21.7017 29.1712 21.4665 27.5789 21.4665C23.2268 21.4665 19.5065 23.1903 18.0122 25.6235C17.8106 25.953 17.4336 26.1331 17.0472 26.1331C16.3836 26.1331 15.8674 25.5843 15.8674 24.9581C15.8674 24.8591 15.8824 24.7583 15.9113 24.6585C17.3626 19.5821 22.0358 15.8665 27.5789 15.8665C30.5618 15.8665 33.2862 16.9491 35.3993 18.7346L37.881 16.2529C38.1293 16.0046 38.4644 15.8665 38.8144 15.8665C39.5433 15.8665 40.1341 16.4573 40.1341 17.1862V25.1998Z" fill="#2D3ED8"/>
</svg>
