<svg width="100" height="101" viewBox="0 0 100 101" fill="none" xmlns="http://www.w3.org/2000/svg">
<path fill-rule="evenodd" clip-rule="evenodd" d="M35.5247 0C39.3453 0 42.8531 0.0893454 43.3446 0.201027C43.8362 0.312709 44.4841 0.603081 44.7969 0.826445C45.1097 1.07214 45.5566 1.58588 45.78 2.01027C46.1151 2.56868 46.2492 3.32811 46.4056 7.01361L48.5728 7.14763C50.1145 7.23697 50.9411 7.39333 51.4774 7.70604C51.9019 7.9294 52.4157 8.37613 52.6615 8.68884C52.8849 9.00155 53.1754 9.6493 53.2871 10.1407C53.3988 10.6321 53.5105 13.3795 53.5105 21.4206H17.7624V16.2162C17.7624 13.3795 17.8741 10.6321 17.9858 10.1407C18.0975 9.6493 18.388 9.00155 18.6114 8.68884C18.8572 8.37613 19.371 7.9294 19.7955 7.70604C20.3318 7.39333 21.1584 7.23697 24.8673 7.01361L24.9567 4.89166C25.0237 3.32811 25.1578 2.56868 25.4929 2.01027C25.7163 1.58588 26.1632 1.07214 26.476 0.826445C26.7888 0.603081 27.392 0.312709 27.8165 0.223363C28.241 0.111682 31.7042 0.0223363 35.5247 0V0ZM14.1876 10.6991V16.6852C14.1876 22.247 14.2099 22.6937 14.6344 23.3861C14.8802 23.7659 15.4164 24.3019 15.8186 24.5476C16.5112 24.9944 16.9357 24.9944 35.6364 24.9944C54.3372 24.9944 54.7617 24.9944 55.4767 24.5476C55.8565 24.3019 56.3927 23.7659 56.6385 23.3861C57.063 22.6937 57.0853 22.247 57.0853 10.6991L62.8497 10.7438C68.1226 10.8108 68.6588 10.8555 69.3514 11.2575C69.7759 11.5032 70.2898 11.9499 70.5356 12.2627C70.759 12.5754 71.0495 13.2231 71.1612 13.7145C71.2729 14.2059 71.3846 17.333 71.407 26.6696L69.9994 27.7194C69.2174 28.3001 68.2343 29.2159 67.8098 29.7297C67.3629 30.2657 66.782 31.0252 66.0224 32.142L58.694 32.1867C51.7008 32.2537 51.3433 32.276 50.3826 32.7451C49.824 33.0131 48.9526 33.6609 48.4164 34.1969C47.8802 34.733 47.2323 35.6041 46.4726 37.1677V84.2973L46.9641 85.3025C47.2323 85.8609 47.8802 86.732 48.4164 87.2681C48.9526 87.8042 49.824 88.4519 50.3826 88.7199C51.321 89.189 51.7901 89.2113 65.1063 89.4347L65.6872 90.2165C66.0224 90.6409 66.648 91.2663 67.0948 91.6013C67.5417 91.9364 68.3684 92.3608 68.9269 92.5618C69.4855 92.7405 70.2898 92.8968 71.4963 92.8968L71.3623 95.0635C71.2729 96.6494 71.1388 97.4535 70.8037 98.0119C70.5803 98.4363 70.1334 98.95 69.8206 99.1957C69.5078 99.4191 68.8599 99.7094 68.3684 99.8211C67.8321 99.9551 54.8064 100.044 35.6364 100.044C16.4665 100.044 3.44076 99.9551 2.90454 99.8211C2.413 99.7094 1.76507 99.4191 1.45227 99.1957C1.13947 98.95 0.692621 98.4363 0.446852 98.0119C0 97.2524 0 96.8504 0 55.3718C0 13.8932 0 13.4911 0.446852 12.7317C0.692621 12.3073 1.13947 11.7936 1.45227 11.5479C1.76507 11.3245 2.36832 11.0342 2.79283 10.9448C3.21733 10.8331 5.96547 10.7438 14.1876 10.6991ZM12.4001 35.1574C9.8084 32.5664 9.49561 32.3654 8.80299 32.3654C8.33379 32.3654 7.8646 32.5217 7.64117 32.7674C7.44009 32.9684 7.26135 33.5045 7.26135 33.9289C7.26135 34.6213 7.50711 34.9564 9.42858 36.8773C11.3724 38.8206 11.7075 39.0663 12.4001 39.0663C13.1151 39.0663 13.5173 38.7312 17.1591 35.0904C20.7563 31.4942 21.1138 31.0698 21.1138 30.3551C21.1361 29.886 20.9574 29.417 20.7339 29.1936C20.5105 28.9702 19.9743 28.7915 19.5498 28.7915C18.8348 28.7915 18.4773 29.0819 15.5951 31.9856L12.4001 35.1574ZM12.4001 53.0265C9.8084 50.4355 9.47326 50.2344 8.80299 50.2344C8.33379 50.2344 7.84225 50.3908 7.61883 50.6142C7.41774 50.8375 7.26135 51.3512 7.26135 51.798C7.239 52.4904 7.48477 52.8031 9.42858 54.7464C11.35 56.6673 11.6852 56.913 12.3778 56.913C13.0928 56.913 13.4949 56.578 17.1368 52.9595C20.7563 49.341 21.0914 48.9166 21.1138 48.2242C21.1138 47.7551 20.9574 47.2637 20.7116 47.0403C20.4882 46.8393 19.9743 46.6606 19.5274 46.6606C18.8125 46.6606 18.455 46.9287 15.5728 49.8324L12.4001 53.0265ZM12.4001 70.8955C9.8084 68.3045 9.47326 68.1035 8.80299 68.1035C8.33379 68.1035 7.8646 68.2599 7.64117 68.5056C7.44009 68.7066 7.26135 69.2427 7.26135 69.667C7.26135 70.3595 7.48477 70.6945 9.42858 72.6154C11.35 74.5587 11.7075 74.8044 12.4001 74.8044C13.1151 74.8044 13.5173 74.4694 17.1368 70.8285C20.7563 67.2324 21.1138 66.808 21.1138 66.0932C21.1138 65.6242 20.9574 65.1551 20.7116 64.9317C20.5105 64.7084 19.9743 64.5297 19.5498 64.5297C18.8348 64.5297 18.4773 64.8201 15.5728 67.7238L12.4001 70.8955ZM12.4001 88.7646C9.8084 86.1736 9.49561 85.9726 8.80299 85.9726C8.33379 85.9726 7.8646 86.1289 7.64117 86.3523C7.44009 86.5757 7.26135 87.0894 7.26135 87.5361C7.26135 88.2285 7.50711 88.5413 9.42858 90.4845C11.3724 92.4054 11.7075 92.6511 12.4001 92.6511C13.1151 92.6511 13.5173 92.3161 17.1591 88.6976C20.7563 85.0791 21.1138 84.6547 21.1138 83.9623C21.1361 83.4932 20.9574 83.0018 20.7339 82.7785C20.5105 82.5775 19.9743 82.3988 19.5498 82.3988C18.8348 82.3988 18.4773 82.6668 15.5951 85.5705L12.4001 88.7646ZM84.1199 10.9671C85.9743 11.0342 86.4212 11.1235 87.6947 11.7489C88.5661 12.1733 89.5491 12.8881 90.1971 13.5805C90.778 14.2059 91.5376 15.3004 91.8728 16.0152C92.409 17.1543 92.476 17.534 92.476 19.6336C92.476 21.7333 92.409 22.113 91.8728 23.2745C91.5376 23.9669 90.778 25.0614 90.1971 25.6868C89.5491 26.3792 88.5661 27.094 87.6947 27.5184C86.3318 28.1885 86.0637 28.2331 83.8965 28.2331C81.7739 28.2331 81.3941 28.1661 80.2546 27.6301C79.5397 27.2727 78.4449 26.5356 77.8416 25.9548C77.149 25.3071 76.4117 24.3243 75.9872 23.4308C75.3393 22.0906 75.2722 21.8226 75.2722 19.6336C75.2722 17.5787 75.3616 17.132 75.8531 16.0598C76.1659 15.3897 76.8139 14.3846 77.3054 13.8485C77.7969 13.3125 78.4896 12.6647 78.847 12.3967C79.2269 12.151 80.0759 11.7042 80.7462 11.4139C81.7963 10.9895 82.3101 10.9225 84.1199 10.9671ZM84.8795 28.6575C90.6439 28.7245 91.2472 28.7692 92.476 29.2159C93.2133 29.484 94.2188 29.9307 94.7103 30.2211C95.2018 30.5114 96.1849 31.3379 96.8552 32.0527C97.5478 32.7897 98.3074 33.7725 98.5532 34.2639C98.8213 34.7553 99.2011 35.7158 99.4246 36.3859C99.715 37.3017 99.8267 38.3738 99.8491 40.6298C99.8491 43.2878 99.8044 43.7346 99.4022 44.427C99.1341 44.8514 98.5979 45.4321 98.1734 45.7225C97.7489 45.9905 96.8999 46.2809 96.2743 46.3479C95.671 46.4149 89.6385 46.4373 82.8687 46.3926C70.9378 46.3256 70.5579 46.3032 69.7983 45.8565C69.3738 45.6108 68.7929 45.0524 68.5248 44.628C68.2343 44.2036 68.0109 43.6452 68.0109 42.8634H57.063V78.6016H68.5694L69.061 77.5518C69.3291 76.9487 70.0217 75.9436 70.625 75.2735C71.2282 74.6034 72.256 73.6876 72.9262 73.2409C73.6189 72.8165 74.8254 72.2581 75.6074 72.0124C76.9256 71.6103 77.7299 71.5656 83.9858 71.5656C90.1971 71.5656 91.0461 71.6103 92.1409 71.99C92.8335 72.2134 93.7719 72.6154 94.2634 72.8611C94.755 73.1068 95.7604 73.8663 96.4753 74.5587C97.1903 75.2511 98.017 76.2116 98.3074 76.703C98.5979 77.1944 99.0448 78.1995 99.3129 78.9366C99.6927 80.0311 99.7821 80.8352 99.8267 83.4039C99.8491 86.1959 99.8044 86.6203 99.4022 87.3128C99.1341 87.7371 98.5979 88.3179 98.1734 88.6083C97.7489 88.8763 96.8999 89.1667 96.2743 89.2337C95.671 89.3007 89.6385 89.323 82.8687 89.2784C70.9378 89.2113 70.5579 89.189 69.7983 88.7423C69.3738 88.4966 68.7929 87.9382 68.5248 87.5138C68.2343 87.0894 68.0109 86.531 68.0109 85.7492L60.3697 85.7045C53.1754 85.6375 52.6615 85.6152 51.9465 85.1908C51.5444 84.9451 51.0082 84.4984 50.7847 84.1857C50.539 83.873 50.2485 83.2252 50.1368 82.7338C50.0251 82.1977 49.9357 73.1739 49.9357 60.7325C49.9357 48.2912 50.0251 39.2673 50.1368 38.7312C50.2485 38.2398 50.539 37.5921 50.7847 37.2794C51.0082 36.9666 51.5444 36.5199 51.9465 36.2742C52.6615 35.8498 53.1754 35.8275 68.5694 35.6935L69.061 34.6437C69.3291 34.0629 70.0441 33.0354 70.6473 32.3654C71.2506 31.6953 72.2336 30.8242 72.8369 30.4221C73.4401 30.02 74.4009 29.551 74.9371 29.35C75.4957 29.1489 76.5458 28.9032 77.2831 28.7915C78.0204 28.6799 81.4388 28.6352 84.8795 28.6575ZM84.1199 53.8529C85.9743 53.9199 86.4212 54.0093 87.6947 54.6347C88.5661 55.0591 89.5491 55.7738 90.1971 56.4663C90.778 57.0917 91.5376 58.1862 91.8728 58.9009C92.409 60.0401 92.476 60.4198 92.476 62.5194C92.476 64.619 92.409 64.9988 91.8728 66.1602C91.5376 66.8527 90.778 67.9472 90.1971 68.5726C89.5491 69.265 88.5661 69.9798 87.6947 70.4042C86.3318 71.0742 86.0637 71.1189 83.8965 71.1189C81.7739 71.1189 81.3941 71.0519 80.2546 70.5158C79.5397 70.1585 78.4449 69.4213 77.8416 68.8406C77.149 68.1929 76.4117 67.2101 75.9872 66.3166C75.3393 64.9764 75.2722 64.7084 75.2722 62.5194C75.2722 60.4645 75.3616 60.0177 75.8531 58.9456C76.1659 58.2755 76.8139 57.2704 77.3054 56.7343C77.7969 56.1982 78.4896 55.5505 78.847 55.2824C79.2269 55.0367 80.0759 54.59 80.7462 54.2996C81.7963 53.8753 82.3101 53.8082 84.1199 53.8529Z" fill="#5F56AF" fill-opacity="0.5"/>
</svg>
