<svg width="101" height="101" viewBox="0 0 101 101" fill="none" xmlns="http://www.w3.org/2000/svg">
<path fill-rule="evenodd" clip-rule="evenodd" d="M87.6004 1.02001C89.5298 1.06108 90.4945 1.1843 91.5003 1.51289C92.2392 1.75933 93.4297 2.29327 94.1481 2.72454C94.8871 3.15581 96.0776 4.12103 96.8165 4.86034C97.5554 5.59966 98.5201 6.79077 98.9512 7.53009C99.3822 8.24887 99.9159 9.43999 100.162 10.1793C100.45 11.0829 100.614 12.274 100.675 13.8759C100.757 15.642 100.696 16.5662 100.45 17.5725C100.265 18.3118 99.7517 19.6466 99.3206 20.5502C98.8485 21.5155 98.0275 22.7271 97.3091 23.5075C96.6523 24.2263 95.5234 25.212 94.7844 25.7049C94.0455 26.1773 92.855 26.8139 92.1161 27.0809C91.3771 27.3684 90.0429 27.697 89.1398 27.8407C88.1546 27.9845 86.923 28.0255 86.0609 27.9434C85.2604 27.8613 84.0289 27.6148 83.2899 27.3889C82.551 27.163 81.4016 26.6907 80.7242 26.3416C79.9647 25.9308 78.8358 25.0272 77.7479 23.9388C76.6601 22.8503 75.7569 21.7208 75.3464 20.961C74.9975 20.2833 74.5254 19.1332 74.2996 18.3939C74.0738 17.6546 73.8275 16.3608 73.7454 15.5188C73.6428 14.5536 73.6838 13.4035 73.848 12.4383C73.9917 11.5963 74.3201 10.3025 74.6075 9.56321C74.8743 8.82389 75.5106 7.63277 75.9827 6.89346C76.4753 6.15414 77.4606 5.02463 78.179 4.36746C78.959 3.64869 80.17 2.82722 81.1347 2.35488C82.0378 1.92362 83.2899 1.4102 83.9057 1.24591C84.7062 1.04055 85.7941 0.9584 87.6004 1.02001ZM83.8031 4.28532C83.2284 4.47015 82.2226 4.98356 81.5452 5.41483C80.8679 5.84609 79.8826 6.68809 79.3284 7.26312C78.7948 7.85867 78.0353 9.00872 77.6453 9.80964C77.1732 10.7749 76.8448 11.8838 76.6806 12.9517C76.4959 14.2455 76.4959 14.9027 76.7011 16.0322C76.8448 16.8126 77.1527 17.9626 77.399 18.5582C77.6453 19.1538 78.22 20.1395 78.6716 20.7556C79.1232 21.3717 79.5337 21.8851 79.5953 21.8851C79.6569 21.8851 79.9237 21.4949 80.2111 21.0226C80.4984 20.5708 81.1963 19.8109 81.7505 19.3591C82.3047 18.9073 83.2899 18.3118 83.9057 18.0243C84.7062 17.6546 85.5273 17.4698 86.6767 17.4082C87.8672 17.3466 88.6677 17.4082 89.5503 17.6751C90.2277 17.86 91.1103 18.2091 91.5003 18.435C91.8903 18.6814 92.6703 19.2975 93.2039 19.8109C93.7581 20.3243 94.3329 21.0021 94.4971 21.3101C94.7434 21.803 94.8255 21.8441 95.1334 21.6182C95.3181 21.4949 95.8312 20.8172 96.2623 20.1395C96.7139 19.4618 97.2475 18.3118 97.4733 17.5725C97.7402 16.6688 97.8838 15.642 97.8838 14.3893C97.8838 13.0339 97.7812 12.1919 97.4528 11.2061C97.2065 10.4668 96.796 9.5016 96.5291 9.04979C96.2623 8.59799 95.6876 7.8176 95.236 7.30419C94.805 6.79077 93.9429 6.05146 93.3271 5.62019C92.7113 5.20946 91.7055 4.67551 91.0898 4.42907C90.474 4.18264 89.3451 3.91566 88.6061 3.85405C87.8467 3.7719 86.6972 3.7719 86.0404 3.83351C85.363 3.89512 84.3573 4.10049 83.8031 4.28532ZM87.6004 72.2612C89.7556 72.3228 90.4124 72.4255 91.7055 72.8773C92.5471 73.1854 93.7376 73.7399 94.3534 74.1095C94.9692 74.4586 96.0776 75.3828 96.8165 76.1221C97.5554 76.8614 98.4791 77.9704 98.828 78.5865C99.1975 79.2026 99.7517 80.3937 100.06 81.2357C100.491 82.4679 100.614 83.2688 100.696 85.1376C100.757 86.8832 100.696 87.8485 100.45 88.8342C100.265 89.5735 99.7517 90.9084 99.3206 91.812C98.8485 92.7772 98.0275 93.9889 97.3091 94.7693C96.6523 95.4881 95.4823 96.4943 94.6818 97.0078C93.8813 97.5417 92.465 98.2399 91.5003 98.5685C89.9403 99.123 89.5093 99.1846 87.2925 99.1846C85.1988 99.1641 84.5831 99.0819 83.1873 98.6301C82.2842 98.3221 80.95 97.7471 80.2316 97.3158C79.5132 96.8845 78.3021 95.8577 77.5222 95.0362C76.7422 94.2353 75.8185 93.0647 75.4901 92.4692C75.1412 91.8942 74.6485 90.703 74.3817 89.861C74.1149 89.019 73.8275 87.6636 73.7454 86.8832C73.6633 86.0207 73.7043 84.7885 73.848 83.8028C73.9917 82.8992 74.3201 81.5643 74.6075 80.825C74.8743 80.0857 75.5106 78.8945 75.9827 78.1552C76.4753 77.4159 77.4606 76.2864 78.179 75.6292C78.959 74.9104 80.17 74.089 81.1347 73.6166C82.0378 73.1854 83.2899 72.672 83.9057 72.5077C84.7062 72.3023 85.7736 72.2202 87.6004 72.2612ZM81.4631 76.7177C80.8474 77.1079 79.8826 77.9499 79.3284 78.5659C78.7537 79.182 77.9943 80.3321 77.6043 81.133C77.1527 82.0777 76.8448 83.1661 76.6806 84.3162C76.4548 85.8153 76.4753 86.2877 76.7832 87.7047C76.968 88.6083 77.399 89.9021 77.7479 90.5798C78.0969 91.2575 78.6716 92.1406 79.0206 92.5308C79.3695 92.921 79.6774 93.1469 79.7184 93.0442C79.7595 92.921 80.129 92.387 80.56 91.8531C80.991 91.2986 81.7915 90.5387 82.3663 90.1486C82.9205 89.7584 83.9673 89.2655 84.6652 89.0396C85.3836 88.8137 86.533 88.6289 87.2309 88.6289C87.9493 88.6289 89.0372 88.7726 89.653 88.9574C90.2687 89.1423 91.1103 89.4708 91.5003 89.6967C91.8903 89.9432 92.6703 90.5593 93.2039 91.0727C93.7581 91.5861 94.3329 92.2638 94.4971 92.5719C94.7434 93.0647 94.8255 93.1058 95.1334 92.8799C95.3181 92.7567 95.8312 92.079 96.2623 91.4013C96.7139 90.7236 97.2475 89.5735 97.4733 88.8342C97.7402 87.9306 97.8838 86.9038 97.8838 85.6511C97.9044 84.234 97.7812 83.4742 97.4117 82.3652C97.1449 81.5643 96.5497 80.3732 96.1186 79.716C95.667 79.0383 94.8255 78.0936 94.2713 77.6007C93.6965 77.1284 92.7729 76.4918 92.2187 76.2042C91.644 75.9167 90.6792 75.5471 90.0635 75.3828C89.4477 75.2185 88.093 75.0747 87.0872 75.0747C85.712 75.0747 84.891 75.198 83.9057 75.5471C83.1668 75.7935 82.0584 76.3275 81.4631 76.7177ZM15.144 73.7399C16.1087 73.7809 17.5455 74.0274 18.3255 74.2738C19.126 74.4997 20.3165 74.9926 20.9939 75.3417C21.7533 75.7524 22.8823 76.6561 23.9701 77.7445C25.058 78.8329 25.9612 79.9624 26.3717 80.7223C26.7206 81.4 27.1927 82.55 27.4185 83.2894C27.6443 84.0287 27.8906 85.2609 27.9727 86.0618C28.0548 86.9243 28.0137 88.1565 27.8701 89.1423C27.7264 90.0459 27.398 91.3807 27.1106 92.1201C26.8438 92.8594 26.2075 94.0505 25.7354 94.7898C25.2427 95.5291 24.2575 96.6586 23.5391 97.3158C22.7591 98.0346 21.5481 98.856 20.5834 99.3284C19.6802 99.7596 18.3461 100.273 17.6071 100.458C16.6014 100.704 15.6777 100.766 13.9125 100.684C12.3114 100.622 11.1209 100.458 10.2178 100.17C9.47887 99.9239 8.28837 99.39 7.56997 98.9587C6.83103 98.5275 5.64053 97.5622 4.9016 96.8229C4.16267 96.0836 3.19795 94.8925 2.76691 94.1532C2.33587 93.4344 1.80219 92.2433 1.55588 91.504C1.24799 90.5798 1.08379 89.4503 1.02221 87.8074C0.960632 86.0618 1.02221 85.0966 1.26852 84.1108C1.45325 83.3715 1.9664 82.0366 2.39744 81.133C2.86954 80.1678 3.69057 78.9561 4.40898 78.1758C5.06581 77.457 6.19473 76.4712 6.93366 75.9989C7.67259 75.506 8.78099 74.9104 9.39677 74.664C10.0125 74.4176 11.1825 74.089 11.9625 73.9247C12.8041 73.7604 14.1177 73.6783 15.144 73.7399ZM9.60203 77.7445C8.8631 78.1141 7.81628 78.8535 7.26208 79.3669C6.70788 79.8803 5.88684 80.866 5.4558 81.5437C5.02476 82.2215 4.47056 83.3715 4.24477 84.1108C3.97794 85.0144 3.83426 86.0412 3.83426 87.294C3.83426 88.6494 3.93688 89.4914 4.2653 90.4771C4.51161 91.2165 4.9016 92.1406 5.14791 92.5308C5.3737 92.921 5.82527 93.5987 6.15368 94.0094L6.7284 94.7898C8.10364 92.9621 8.8631 92.1817 9.31466 91.8736C9.74571 91.5656 10.5873 91.1138 11.1415 90.8673C11.7162 90.6209 12.722 90.3539 13.3993 90.2512C14.1177 90.1691 15.144 90.1896 15.8624 90.2923C16.5398 90.4155 17.6071 90.7441 18.2229 91.0522C18.8387 91.3397 19.8239 92.0584 20.3986 92.6335C20.9528 93.188 21.5891 93.8862 21.7739 94.1737L22.1228 94.6871C23.1081 93.5782 23.6623 92.6951 24.0112 92.0174C24.3601 91.3397 24.7707 90.1896 24.9143 89.4503C25.0785 88.711 25.2017 87.7047 25.2017 87.1913C25.2017 86.6779 25.017 85.5278 24.7912 84.6242C24.5654 83.7206 24.0728 82.4884 23.7033 81.8723C23.3544 81.2768 22.5744 80.3115 21.9997 79.716C21.4044 79.141 20.4397 78.3606 19.8444 78.0115C19.2287 77.6418 17.9971 77.1489 17.094 76.923C16.1908 76.6971 15.0003 76.5123 14.4256 76.5328C13.8714 76.5328 12.8451 76.6561 12.1678 76.8203C11.4904 76.9641 10.341 77.3748 9.60203 77.7445ZM43.0592 15.1081V18.4966L41.8277 18.8457C41.1503 19.0511 40.4114 19.2154 40.1856 19.2154C39.9598 19.2154 39.7751 19.2975 39.7751 19.4207C39.7751 19.5234 39.4056 19.6877 38.954 19.7699C38.5025 19.8725 38.133 19.9752 38.133 20.0368C38.133 20.0984 37.5583 20.4065 36.8604 20.7556C36.142 21.0842 35.4441 21.4949 35.3004 21.6182C35.1567 21.7619 34.8899 21.8851 34.7257 21.8851C34.5615 21.8851 34.4383 21.9673 34.4383 22.0905C34.4383 22.1932 34.2947 22.2959 34.1305 22.2959C33.9662 22.2959 33.8226 22.378 33.8226 22.5012C33.8226 22.6039 33.6173 22.7477 33.371 22.7887C33.1042 22.8298 33.6994 22.8709 34.7052 22.8914C36.3472 22.912 36.4909 22.953 36.4909 23.3227C36.4909 23.5965 36.6278 23.7334 36.9014 23.7334C37.1272 23.7334 37.312 23.8772 37.312 24.0415C37.312 24.2058 37.5377 24.4727 37.8251 24.5959C38.1946 24.7808 38.3383 25.0272 38.3383 25.4174C38.3383 25.9103 38.4204 25.9924 38.913 25.9924C39.303 25.9924 39.5493 26.1362 39.734 26.5058C39.8982 26.855 40.0214 28.9908 40.1445 33.3856C40.2472 38.417 40.2266 39.7519 40.0419 39.7519C39.8982 39.7519 39.7751 39.9367 39.7751 40.1626C39.7751 40.4912 39.6314 40.5734 39.1593 40.5734C38.6051 40.5734 38.5435 40.635 38.5435 41.1895C38.5435 41.6823 38.4204 41.8466 37.9277 42.0109C37.5993 42.1136 37.312 42.36 37.312 42.5243C37.312 42.7092 37.1272 42.8324 36.7988 42.8324C36.4294 42.8324 36.2857 42.9351 36.2857 43.2431C36.2857 43.6333 36.142 43.6538 32.591 43.6538C29.04 43.6538 28.8964 43.6333 28.8964 43.2431C28.8964 42.9351 28.7527 42.8324 28.3832 42.8324C28.0548 42.8324 27.8701 42.7092 27.8701 42.5243C27.8701 42.36 27.6443 42.0931 27.3569 41.9493C27.0695 41.8261 26.8438 41.6413 26.8438 41.5386C26.8438 41.4564 26.7001 41.3948 26.5359 41.3948C26.3717 41.3948 26.0433 41.1484 25.8175 40.8198C25.5712 40.5118 25.3864 40.101 25.407 39.8957C25.407 39.7108 25.3249 39.5465 25.2017 39.5465C25.0785 39.5465 24.9964 38.5197 24.9554 34.3097L24.4422 35.85C24.1754 36.692 23.888 38.0268 23.8265 38.8278C23.7444 39.9778 23.8265 40.7377 24.2986 42.627C24.6064 43.9208 24.9143 45.0298 24.9964 45.0914C25.058 45.153 25.2222 45.4405 25.3659 45.7486C25.4891 46.0772 25.6122 46.7343 25.6122 47.2477C25.6122 48.0897 25.6533 48.1719 26.1254 48.1719C26.4743 48.1719 26.6796 48.3156 26.7822 48.6237C26.8438 48.8907 27.0285 49.2192 27.1927 49.3425C27.3364 49.4862 27.4595 49.7532 27.4595 49.9175C27.4595 50.0818 27.6032 50.2666 27.7674 50.3282C27.9316 50.3898 28.0753 50.5747 28.0753 50.7389C28.0753 50.9032 28.1779 51.047 28.2806 51.047C28.4037 51.047 28.4858 51.2318 28.4858 51.4577C28.4858 51.6836 28.609 51.8685 28.7527 51.8685C28.8758 51.8479 29.1016 51.9711 29.2453 52.1149C29.4506 52.3203 29.1837 52.7105 26.3306 55.5856L25.2633 54.1891C24.6885 53.4292 23.7854 52.0122 23.2928 51.047C22.7796 50.0818 22.1228 48.6442 21.8149 47.8638C21.5276 47.0629 21.0965 45.5021 20.8502 44.3726C20.5423 42.8735 20.4192 41.5591 20.4192 39.5465C20.4192 37.7188 20.5423 36.1375 20.7681 34.9258C20.9734 33.899 21.4044 32.2971 21.7533 31.3319C22.0818 30.3667 22.7386 28.8881 23.1902 28.0461C23.6417 27.2041 24.4422 25.9103 24.9554 25.171C25.4891 24.4317 26.4743 23.2405 27.1517 22.5218C27.829 21.803 29.04 20.7351 29.82 20.119C30.6205 19.5234 31.9958 18.5993 32.8989 18.0859C33.802 17.5725 35.321 16.8742 36.2857 16.5251C37.2504 16.176 38.8104 15.7242 39.7751 15.5188C40.7398 15.3134 41.8687 15.1286 43.0592 15.1081ZM31.1337 27.1425C31.1337 27.3068 30.7642 27.697 30.2921 28.005C29.7584 28.3541 29.2248 28.9497 28.9579 29.5042C28.6911 29.9971 28.4858 30.7158 28.4858 31.065C28.4858 31.4346 28.5885 31.9891 28.7116 32.2971C28.8143 32.6257 29.1632 33.1186 29.4711 33.4267L30.0253 33.9811C29.2248 34.1865 28.8348 34.4124 28.6295 34.5972C28.4243 34.7821 28.26 35.2133 28.2806 35.583C28.2806 35.9526 28.4037 36.5071 28.5679 36.8152C28.7321 37.1438 29.1221 37.6366 29.4506 37.9242C29.7584 38.2322 30.2305 38.5813 30.4974 38.7045C30.7437 38.8278 31.0721 39.1769 31.2158 39.4849C31.3389 39.793 31.7084 40.1421 32.0368 40.2653C32.4063 40.4091 32.7757 40.4091 33.1657 40.2653C33.4736 40.1421 33.8431 39.793 33.9868 39.4849C34.1099 39.1769 34.3973 38.8688 34.6025 38.8072C34.7873 38.7251 35.2594 38.4376 35.6288 38.1911C35.9778 37.9242 36.4294 37.4107 36.5936 37.0822C36.7578 36.733 36.9014 36.0553 36.9014 35.5419C36.9014 35.0285 36.7783 34.3713 36.6141 34.0427C36.4704 33.7347 35.9983 33.1802 35.5878 32.8106C35.0541 32.3382 34.9515 32.1534 35.2183 32.1534C35.4031 32.1739 35.8136 31.9891 36.142 31.7427C36.5525 31.4346 36.6962 31.1676 36.6962 30.6542C36.6962 30.3051 36.4704 29.689 36.2241 29.2988C35.9778 28.9086 35.3825 28.3336 34.9104 28.005C34.4178 27.697 34.0278 27.2862 34.0278 27.1219C34.0278 26.9576 33.8226 26.6701 33.5763 26.5058C33.3094 26.3416 32.8784 26.1978 32.591 26.1978C32.3036 26.1978 31.8521 26.3416 31.5852 26.5058C31.3184 26.6907 31.1131 26.9782 31.1337 27.1425ZM46.5486 15.1081H47.267C47.657 15.1081 48.7038 15.2518 49.5864 15.4367C50.4485 15.6009 51.8648 15.9911 52.7064 16.2581C53.5479 16.5456 54.9847 17.1412 55.8879 17.6135C56.791 18.0653 58.1868 18.8868 58.9668 19.4207C59.7673 19.9752 61.0809 21.1047 61.9225 21.9262C62.764 22.7477 63.9751 24.1236 64.5909 24.9656C65.2272 25.8076 66.1303 27.2452 66.6024 28.1488C67.0745 29.0524 67.7313 30.6131 68.0803 31.64C68.4087 32.6463 68.8397 34.3097 69.0244 35.3366C69.1887 36.3428 69.3323 37.3081 69.3323 37.4313C69.3323 37.6366 68.8602 37.6777 65.8019 37.5956L65.3093 35.9526C65.0424 35.049 64.7345 34.0017 64.6524 33.632C64.5703 33.2624 64.4677 32.9748 64.4061 32.9748C64.3445 32.9748 63.9751 32.2971 63.5851 31.4551C63.1951 30.5926 62.8051 29.9149 62.723 29.8944C62.6204 29.8944 62.5588 30.9623 62.5588 32.2561C62.5588 33.899 62.4562 34.8437 62.2509 35.3366C62.0867 35.7267 61.7993 36.0553 61.6351 36.0553C61.4709 36.0553 61.3272 36.1991 61.3272 36.3634C61.3272 36.5277 61.2246 36.6714 61.1015 36.6714C60.9783 36.6714 60.7525 36.8152 60.5883 36.9795C60.4036 37.1438 60.0957 37.2875 59.8699 37.2875C59.6646 37.2875 59.4799 37.3697 59.4799 37.4929C59.4799 37.6161 57.7968 37.6983 54.8616 37.6983C50.3869 37.6983 50.2433 37.6777 50.2433 37.2875C50.2433 36.9589 50.0996 36.8768 49.6275 36.8768C49.0733 36.8768 49.0117 36.8152 49.0117 36.2607C49.0117 35.7267 48.9296 35.6446 48.4575 35.6446C48.0059 35.6651 47.8212 35.5214 47.5954 34.9874C47.3491 34.4329 47.3286 33.324 47.4517 28.5595C47.5338 25.3969 47.6981 22.4601 47.8007 22.0289C47.9033 21.6182 48.0881 21.269 48.1907 21.269C48.3138 21.269 48.437 21.0842 48.4986 20.8583C48.5601 20.6119 48.7654 20.4476 49.0117 20.4476C49.2375 20.4476 49.4222 20.3243 49.4222 20.1806C49.4428 20.0574 49.5864 19.8315 49.7917 19.7083C50.0996 19.5029 50.0585 19.4413 49.4838 19.3386C49.0733 19.2564 48.8065 19.0922 48.8065 18.9073C48.8065 18.6609 48.5396 18.5993 46.5486 18.5993V15.1081ZM52.9937 22.912C52.809 23.0762 52.3164 23.5691 51.8648 23.9799C51.3106 24.5138 51.0233 25.0067 50.9411 25.5201C50.859 25.9514 50.859 26.6291 50.9411 27.0193C51.0027 27.4095 51.3311 28.0872 51.6801 28.4979C52.1932 29.1345 52.2343 29.2783 51.9469 29.2783C51.7417 29.2783 51.3722 29.4631 51.1259 29.689C50.7975 29.956 50.6538 30.3256 50.6538 30.8185C50.6538 31.2087 50.7769 31.7837 50.9411 32.0918C51.0848 32.4204 51.4748 32.8927 51.8032 33.2008C52.1316 33.4883 52.5832 33.7758 52.809 33.8374C53.0348 33.9195 53.3221 34.2481 53.4658 34.5562C53.6095 34.8642 54.02 35.2544 54.3895 35.4187C54.9847 35.6857 55.1284 35.6857 55.58 35.4187C55.8674 35.2544 56.1958 34.9053 56.2984 34.6588C56.4216 34.4124 56.9142 34.0017 57.4068 33.7552C57.8994 33.4883 58.4947 32.9954 58.741 32.6668C59.0078 32.2766 59.1925 31.64 59.2336 30.9212C59.2747 30.0997 59.1926 29.6069 58.9052 29.0729C58.6999 28.6827 58.2278 28.1488 57.8584 27.8818L57.2221 27.43C58.1868 27.2657 58.5973 27.0193 58.7615 26.7523C58.9257 26.5058 59.0694 26.0746 59.0694 25.7871C59.0694 25.4996 58.8847 24.9656 58.6589 24.5959C58.4331 24.2468 57.8173 23.6513 57.2836 23.2816C56.7294 22.9325 56.3189 22.5012 56.36 22.3575C56.3805 22.2137 56.1547 21.9057 55.8468 21.6798C55.5184 21.4333 55.1079 21.2485 54.9026 21.269C54.6974 21.269 54.2458 21.5771 53.9174 21.9262C53.589 22.2959 53.1579 22.7477 52.9937 22.912ZM87.7646 30.9212C87.8877 30.9212 88.2161 31.0239 88.483 31.1266C88.7293 31.2498 89.4477 32.215 90.125 33.3856C90.7613 34.5151 91.3361 35.6651 91.3977 35.9526C91.4798 36.3223 91.3361 36.6304 90.905 37.0822C90.5766 37.4107 90.1045 37.6983 89.8787 37.6983C89.5298 37.6983 89.4477 37.8215 89.4477 38.3554C89.4477 38.7251 89.3861 39.3412 89.304 39.7314C89.2014 40.1216 88.9551 40.5528 88.7293 40.7171C88.4009 40.943 87.7235 40.9636 85.2809 40.8403C82.6126 40.6966 82.2636 40.635 82.2636 40.3064C82.2636 40.06 82.0994 39.9573 81.7505 39.9573C81.381 39.9573 81.2168 39.834 81.1347 39.4849C81.0731 39.2385 81.0321 38.7867 81.0321 37.9036L83.6594 37.8831C85.4657 37.8625 86.0815 37.8215 85.6504 37.6983C85.322 37.5956 84.8499 37.3081 84.6241 37.0822C84.3983 36.8357 84.2136 36.3839 84.2341 36.0759C84.2341 35.7884 84.7678 34.6383 85.4041 33.5293C86.0404 32.4409 86.7793 31.3935 87.0462 31.2292C87.2925 31.065 87.6209 30.9212 87.7646 30.9212ZM74.0533 37.9036V40.9841H72.7191C71.9802 40.9841 71.2002 40.8814 70.9744 40.7787C70.7486 40.6555 70.4818 40.3475 70.3586 40.06C70.2149 39.6903 70.2355 39.3822 70.3997 38.951C70.5434 38.6429 70.8512 38.2733 71.077 38.1501C71.3028 38.0268 72.0623 37.9242 74.0533 37.9036ZM16.0061 38.109C17.1966 38.109 18.2229 38.2117 18.5308 38.3554C18.8181 38.4992 19.126 38.8278 19.2492 39.0742C19.3518 39.3412 19.4544 39.6698 19.4544 39.793C19.475 39.9367 19.2902 40.3064 19.0439 40.6144C18.6745 41.1484 18.5103 41.1895 15.965 41.1895V42.7297C15.965 43.9619 15.9035 44.2699 15.6572 44.2699C15.4314 44.2699 15.3493 44.0235 15.3493 42.2163H12.8862L12.8656 40.5939C12.8451 39.0331 12.8656 38.9304 13.4198 38.5403C13.8919 38.1706 14.2614 38.109 16.0061 38.109ZM45.5428 41.1895H49.5454C52.9527 41.1895 53.5274 41.2305 53.5274 41.4975C53.5274 41.6618 53.7121 41.8056 53.9379 41.8056C54.2116 41.8056 54.3827 41.9767 54.4511 42.319C54.5195 42.6612 54.6905 42.8324 54.9642 42.8324C55.2721 42.8324 55.3747 42.9761 55.3747 43.3458C55.3747 43.7565 55.4774 43.8592 55.8879 43.8592C56.2779 43.8592 56.4831 44.0235 56.6884 44.5164C56.8937 45.0093 57.0373 46.6727 57.1605 50.3898C57.2426 53.2239 57.3863 55.565 57.4889 55.565C57.571 55.565 57.6326 55.4418 57.6326 55.2981C57.6326 55.1748 57.8994 54.8052 58.2073 54.4766C58.5152 54.1685 58.9257 53.9221 59.131 53.9221C59.3157 53.9221 59.4799 53.7578 59.4799 53.5525C59.4799 53.3676 59.6441 53.039 59.8494 52.8337C60.0341 52.6283 60.3625 52.464 60.5678 52.4846C60.8141 52.4846 60.9167 52.3203 60.9167 51.9711C60.9167 51.6836 61.0604 51.4167 61.2246 51.355C61.3888 51.2934 61.5325 51.1086 61.5325 50.9443C61.5325 50.78 61.6762 50.6363 61.8404 50.6363C62.0046 50.6363 62.1483 50.4514 62.1483 50.2255C62.1483 49.9996 62.2714 49.6916 62.4151 49.5478C62.5793 49.4246 62.764 49.096 62.8256 48.8291C62.9077 48.5826 63.113 48.3772 63.2772 48.3772C63.4619 48.3772 63.5851 48.1924 63.5851 47.8638C63.5851 47.5763 63.7288 47.2067 63.893 47.0424C64.0572 46.8781 64.2009 46.6111 64.2009 46.4674C64.2009 46.3441 64.324 45.9129 64.4677 45.5432C64.5909 45.1735 64.8372 44.886 64.9808 44.886C65.1245 44.886 65.2272 44.5985 65.2272 44.1056C65.2477 43.6949 65.3708 42.8735 65.7814 41.2921L67.5671 41.2305C68.8602 41.21 69.3323 41.2511 69.3323 41.4359C69.3323 41.5797 69.1887 42.5243 69.0244 43.5512C68.8397 44.5575 68.4702 46.1388 68.1829 47.0424C67.875 47.946 67.2797 49.4246 66.8282 50.3282C66.3766 51.2318 65.6171 52.5667 65.1245 53.306C64.6319 54.0453 63.544 55.3802 62.723 56.2633C61.902 57.1463 60.4857 58.4196 59.5825 59.0973C58.6794 59.7545 57.0579 60.7608 55.9905 61.2947C54.9232 61.8492 53.2811 62.5475 52.3369 62.835C51.4132 63.1225 49.8533 63.5127 48.868 63.677C47.8623 63.8413 46.097 63.985 44.9065 63.985C43.716 63.985 41.9098 63.8413 40.904 63.677C39.8982 63.4921 38.5435 63.2046 37.9277 63.0198C37.312 62.8555 36.0188 62.3626 35.0541 61.9519C34.0894 61.5412 32.5294 60.6786 31.5647 60.042C30.6 59.4054 29.5942 58.6866 28.7937 58.0499L30.2921 56.4892C31.0926 55.6472 31.8726 54.9489 31.9752 54.9489C32.0984 54.9489 32.2215 55.1338 32.2831 55.3597C32.3447 55.6061 32.55 55.7704 32.7963 55.7704C33.0221 55.7704 33.2478 55.9142 33.3094 56.0784C33.371 56.2427 33.5557 56.3865 33.7199 56.3865C33.8841 56.3865 34.0278 56.4686 34.0278 56.5919C34.0278 56.6945 34.1715 56.7972 34.3357 56.7972C34.4999 56.7972 34.6436 56.8794 34.6436 57.0026C34.6436 57.1053 34.7873 57.208 34.9515 57.208C35.1157 57.208 35.2594 57.3517 35.2594 57.516C35.2594 57.6803 35.4441 57.8241 35.6699 57.8241C35.8957 57.8241 36.4909 58.0294 37.0041 58.2759C37.5172 58.5428 37.9277 58.8098 37.9277 58.8919C37.9277 58.9946 38.1535 59.0562 38.4409 59.0562C38.7282 59.0562 38.954 59.1179 38.954 59.2C38.954 59.3027 39.3235 59.4259 39.7751 59.508C40.2266 59.6107 40.5961 59.7545 40.5961 59.8777C40.5961 59.9804 40.8014 60.0831 41.0682 60.0831C41.3145 60.0831 42.2587 60.2268 43.1618 60.3911C44.065 60.576 44.8244 60.6786 44.8655 60.617C44.886 60.5349 44.7629 60.3706 44.5987 60.2268C44.4344 60.1036 44.1881 59.8777 44.0239 59.775C43.8802 59.6518 43.5724 59.467 43.3466 59.3438C43.1413 59.2205 42.8745 58.933 42.7513 58.6866C42.6282 58.4401 42.4845 58.2348 42.4024 58.2348C42.2998 58.2348 42.2382 55.3186 42.2382 51.7658C42.2382 47.5147 42.3203 45.1119 42.464 44.7217C42.5871 44.4137 43.0387 43.8181 43.4492 43.3869C43.8597 42.9761 44.3113 42.627 44.455 42.627C44.5781 42.627 44.7013 42.5449 44.6808 42.4422C44.6602 42.36 44.8655 42.0315 45.1118 41.7234L45.5428 41.1895ZM47.7596 45.6459C47.5954 45.8102 47.1439 46.1798 46.7539 46.4879C46.3639 46.7959 45.9328 47.3504 45.7892 47.7201C45.6249 48.0897 45.5018 48.7469 45.5018 49.1987C45.5018 49.6505 45.6044 50.2255 45.7481 50.4925C45.8713 50.7389 46.1791 51.1908 46.446 51.4577L46.9386 51.9711C45.8918 52.3613 45.5018 52.7105 45.3376 53.039C45.0913 53.5525 45.1118 53.7373 45.4607 54.5382C45.666 55.0516 46.1791 55.7704 46.6102 56.1401C47.0207 56.5097 47.4723 56.7972 47.616 56.8178C47.7596 56.8178 48.0059 57.1053 48.1702 57.4749C48.3549 57.8651 48.7243 58.2348 49.0528 58.3375C49.5043 58.5018 49.7712 58.4812 50.1817 58.2348C50.4896 58.05 50.8385 57.7214 50.9411 57.4749C51.0643 57.2285 51.5774 56.8178 52.0701 56.5508C52.6448 56.2427 53.1785 55.7499 53.4658 55.257C53.7121 54.8052 53.9174 54.0864 53.9174 53.6757C53.9174 53.2444 53.7942 52.6078 53.6506 52.2381C53.5069 51.8685 53.0348 51.2729 52.6243 50.9032C51.988 50.3282 51.9264 50.2255 52.2959 50.2255C52.5216 50.2255 52.9527 49.9791 53.24 49.6711C53.6916 49.1987 53.7532 48.9933 53.6506 48.3772C53.5685 47.9871 53.2811 47.371 52.9937 47.0013C52.7064 46.6316 52.1932 46.1798 51.8238 46.0155C51.4543 45.8307 51.0233 45.3789 50.8385 45.0298C50.5717 44.4753 50.4075 44.3726 49.6891 44.311C48.9501 44.2699 48.7859 44.3316 48.4575 44.8039C48.2523 45.0914 47.9444 45.4816 47.7596 45.6459ZM15.9445 61.1099V62.6501C15.9445 64.1698 15.965 64.1904 16.4577 64.1904C16.745 64.1904 17.1556 64.3752 17.3813 64.6011C17.6071 64.827 17.8534 65.2172 17.915 65.4842C18.0176 65.8128 17.7303 66.5315 16.9092 67.9896C16.2935 69.1191 15.5751 70.2281 15.3287 70.454C15.0824 70.6799 14.6309 70.8648 14.323 70.8648C14.0151 70.8648 13.584 70.7415 13.3993 70.5567C13.1941 70.3924 12.5372 69.3861 11.9215 68.2977C11.2236 67.0655 10.8336 66.1003 10.8131 65.6895C10.8131 65.1967 10.9773 64.9092 11.3878 64.6011C11.6957 64.3752 12.1472 64.1904 12.4141 64.1904C12.8246 64.1904 12.8656 64.1082 12.8656 63.0609C12.8656 62.0751 12.9272 61.9314 13.2762 61.9314C13.5498 61.9314 13.6867 61.7944 13.6867 61.5206C13.6867 61.1715 13.8304 61.1099 15.9445 61.1099ZM46.8975 64.6216C47.3286 64.6216 47.7596 64.6833 47.8828 64.7654C48.0059 64.8475 48.2112 65.1145 48.3549 65.3815C48.478 65.6279 48.5807 66.3878 48.5807 68.2977H45.5018L45.4813 66.9217C45.4813 65.9154 45.5634 65.3815 45.8097 65.0734C46.056 64.7449 46.3639 64.6011 46.8975 64.6216ZM64.6319 82.0777C64.8987 82.0777 65.9456 82.55 66.9513 83.1251C67.9776 83.7001 69.0244 84.3778 69.2708 84.6037C69.5581 84.8707 69.7429 85.2814 69.7429 85.6511C69.7429 86.0002 69.6197 86.4314 69.476 86.6163C69.3323 86.8216 68.306 87.4788 67.2182 88.1154C66.0892 88.7521 64.9603 89.2449 64.6524 89.2449C64.3445 89.2449 63.8725 89.0396 63.6261 88.7931C63.3593 88.5262 63.154 88.0949 63.154 87.1913H60.0752V86.4314C60.0752 86.0002 60.1573 85.3019 60.383 84.1108H61.7788C63.113 84.1108 63.154 84.1108 63.1746 83.5974C63.1746 83.3099 63.4004 82.8375 63.6672 82.5706C63.9546 82.2831 64.3856 82.0572 64.6319 82.0777ZM45.5018 83.084H47.0412C48.5601 83.084 48.5807 83.1045 48.5807 83.5974C48.5807 83.926 48.7038 84.1108 48.8886 84.1108C49.1349 84.1108 49.1964 84.4189 49.1964 87.1913H47.7596C46.6102 87.1913 46.2407 87.1297 45.9123 86.7806C45.5839 86.452 45.5018 86.1029 45.5018 84.7269V83.084Z" fill="#5F56AF" fill-opacity="0.5" stroke="#5F56AF" stroke-opacity="0.5" stroke-width="0.205259"/>
<path d="M40.2226 19.2157C40.4894 19.2157 41.1052 19.0719 41.6184 18.9282C42.1315 18.7639 42.6652 18.6201 42.7883 18.6201C42.9936 18.5996 43.0552 20.7559 43.0552 38.8281L36.3432 45.5641L36.3401 45.5672C29.6518 52.2385 29.6106 52.2795 29.0565 52.0331C28.7281 51.8893 28.4818 51.6018 28.4818 51.417C28.4818 51.2116 28.3997 51.0473 28.2765 51.0473C28.1534 51.0473 28.0713 50.9036 28.0713 50.7393C28.0713 50.575 27.9276 50.3902 27.7634 50.3286C27.5992 50.2669 27.4555 50.0821 27.4555 49.9178C27.4555 49.7535 27.3323 49.4866 27.1887 49.3633C27.0245 49.2196 26.8397 48.891 26.7781 48.6446C26.6755 48.316 26.4703 48.1722 26.1213 48.1722C25.6492 48.1722 25.6082 48.0901 25.6082 47.2481C25.6082 46.7347 25.485 46.0775 25.3619 45.7694C25.2182 45.4409 25.054 45.1533 24.9924 45.0917C24.9103 45.0301 24.6024 43.9212 24.2945 42.6274C23.8224 40.738 23.7403 39.9781 23.8224 38.8281C23.884 38.0477 24.1714 36.6923 24.9513 34.3101L24.9719 36.9387C24.9924 38.52 25.0745 39.5469 25.1977 39.5469C25.3208 39.5469 25.4029 39.7112 25.4029 39.9165C25.3824 40.1014 25.5671 40.5121 25.8134 40.8407C26.0392 41.1487 26.3676 41.3952 26.5318 41.3952C26.696 41.3952 26.8397 41.4568 26.8397 41.5595C26.8397 41.6416 27.0655 41.8264 27.3529 41.9702C27.6402 42.0934 27.866 42.3604 27.866 42.5247C27.866 42.7095 28.0507 42.8327 28.3792 42.8327C28.7486 42.8327 28.8923 42.9354 28.8923 43.2434C28.8923 43.6336 29.036 43.6542 32.587 43.6542C36.1379 43.6542 36.2816 43.6336 36.2816 43.2434C36.2816 42.9354 36.4253 42.8327 36.7948 42.8327C37.1232 42.8327 37.3079 42.7095 37.3079 42.5247C37.3079 42.3604 37.5748 42.1345 37.9237 42.0113C38.4163 41.847 38.5395 41.6827 38.5395 41.1898C38.5395 40.6353 38.6011 40.5737 39.1553 40.5737C39.6273 40.5737 39.771 40.4916 39.771 40.163C39.771 39.9371 39.8942 39.7522 40.0173 39.7522C40.2226 39.7522 40.2431 38.4174 40.12 33.3859C40.0173 28.9911 39.8942 26.8553 39.7094 26.5062C39.5452 26.1365 39.2989 25.9928 38.8884 25.9928C38.4163 25.9928 38.3342 25.9106 38.3342 25.4383C38.3342 25.0275 38.1905 24.7811 37.8211 24.6168C37.5337 24.4731 37.3079 24.2061 37.3079 24.0418C37.3079 23.8775 37.1232 23.7337 36.8974 23.7337C36.6237 23.7337 36.4869 23.5968 36.4869 23.323C36.4869 22.9534 36.3432 22.9123 34.6806 22.8917C33.6954 22.8712 33.1001 22.8301 33.3464 22.7891C33.6133 22.748 33.8185 22.6248 33.8185 22.5016C33.8185 22.3989 33.9622 22.2962 34.1264 22.2962C34.2906 22.2962 34.4343 22.214 34.4343 22.0908C34.4343 21.9881 34.5575 21.8855 34.7217 21.8855C34.8859 21.8855 35.1527 21.7622 35.2964 21.639C35.4401 21.4953 36.1379 21.1051 36.8564 20.7559C37.5542 20.4274 38.129 20.0988 38.129 20.0372C38.129 19.9756 38.4984 19.8729 38.95 19.7907C39.4016 19.688 39.771 19.5443 39.771 19.4211C39.771 19.3184 39.9763 19.2157 40.2226 19.2157Z" fill="#5F56AF" fill-opacity="0.5"/>
<path d="M46.5446 37.6986V28.1491V18.5996H47.6735C48.5356 18.5996 48.8024 18.6612 48.8024 18.9077C48.8024 19.0925 49.0693 19.2568 49.4592 19.3389C50.0545 19.4416 50.0955 19.5032 49.7877 19.7086C49.5824 19.8318 49.4387 20.0577 49.4182 20.2015C49.4182 20.3247 49.2335 20.4479 49.0077 20.4479C48.7614 20.4479 48.5561 20.6122 48.4945 20.8586C48.4329 21.0845 48.3098 21.2694 48.1866 21.2694C48.0635 21.2694 47.8993 21.6185 47.7966 22.0497C47.694 22.4605 47.5298 25.3972 47.4477 28.5598C47.3246 33.3243 47.3451 34.4333 47.5914 34.9878C47.8172 35.5217 48.0019 35.6655 48.4329 35.6449C48.9256 35.6449 49.0077 35.7271 49.0077 36.261C49.0077 36.8155 49.0693 36.8771 49.6235 36.8771C50.0955 36.8771 50.2392 36.9593 50.2392 37.2879C50.2392 37.678 50.0955 37.6986 46.5446 37.6986Z" fill="#5F56AF" fill-opacity="0.5"/>
<path d="M85.3385 22.0908C85.6122 22.0908 85.749 21.9539 85.749 21.6801C85.749 21.331 85.8927 21.2694 86.57 21.2694C87.0216 21.2694 87.74 21.4337 88.1505 21.639C88.5816 21.8238 88.951 22.0497 88.9716 22.1524C89.0126 22.2346 89.4437 22.2962 89.9568 22.2962C90.7984 22.2962 90.8805 22.3373 90.8805 22.8096C90.8805 23.1176 90.7573 23.323 90.5931 23.323C90.4289 23.323 90.1621 23.4462 90.0184 23.59C89.8747 23.7337 89.2794 23.9802 88.7253 24.1239C88.1505 24.2882 87.2884 24.4114 86.7753 24.3704C86.2621 24.3498 85.8106 24.2677 85.749 24.1855C85.6874 24.0829 85.3385 23.8775 84.969 23.7132C84.5995 23.5489 84.2917 23.3846 84.2917 23.323C84.2917 23.2614 84.4353 23.0766 84.6201 22.9123C84.8048 22.748 84.9485 22.481 84.928 22.3578C84.928 22.214 85.1127 22.0908 85.3385 22.0908Z" fill="#5F56AF" fill-opacity="0.5"/>
<path d="M62.2469 35.3369C62.4521 34.844 62.5548 33.8993 62.5548 32.2564C62.5548 30.7572 62.6369 29.8947 62.76 29.8947C62.8832 29.8947 63.2321 30.5108 63.54 31.2706C63.8479 32.0305 64.1968 32.7493 64.2995 32.852C64.4226 32.9752 64.6279 33.4886 64.7715 34.002C64.8947 34.5154 65.2026 35.5422 65.8389 37.6986H62.6574C60.6664 37.6986 59.4759 37.6164 59.4759 37.4932C59.4759 37.37 59.6606 37.2879 59.8659 37.2879C60.0916 37.2879 60.3995 37.1441 60.5843 36.9798C60.7485 36.8155 60.9743 36.6718 61.0974 36.6718C61.2206 36.6718 61.3232 36.528 61.3232 36.3637C61.3232 36.1994 61.4669 36.0557 61.6311 36.0557C61.7953 36.0557 62.0827 35.7271 62.2469 35.3369Z" fill="#5F56AF" fill-opacity="0.5"/>
<path d="M74.0492 40.9844V39.4442V37.9039H81.028V38.479C81.028 38.787 81.0691 39.2388 81.1307 39.5058C81.2128 39.8344 81.377 39.9576 81.7465 39.9576C82.1159 39.9576 82.2596 40.0603 82.2596 40.3683C82.2596 40.738 82.4238 40.7791 83.9632 40.8407C84.8869 40.8817 83.0396 40.9228 74.0492 40.9844Z" fill="#5F56AF" fill-opacity="0.5"/>
<path d="M53.9339 41.8059C53.7081 41.8059 53.5234 41.6621 53.5234 41.4978C53.5234 41.2309 54.3444 41.1898 65.8389 41.1898L65.6131 41.9702C65.49 42.3809 65.3668 43.2229 65.3052 43.8185C65.2642 44.4962 65.1205 44.8864 64.9768 44.8864C64.8331 44.8864 64.5868 45.1739 64.4637 45.5435C64.32 45.9132 64.1968 46.3445 64.1968 46.4882C64.1968 46.6114 64.0531 46.8784 63.8889 47.0427C63.7247 47.207 63.581 47.5767 63.581 47.8642C63.581 48.1928 63.4579 48.3776 63.2732 48.3776C63.109 48.3776 62.9037 48.5829 62.8216 48.8499C62.76 49.0964 62.5753 49.4249 62.4111 49.5687C62.2674 49.6919 62.1442 50 62.1442 50.2259C62.1442 50.4518 62.0006 50.6366 61.8363 50.6366C61.6721 50.6366 61.5285 50.7804 61.5285 50.9446C61.5285 51.1089 61.3848 51.2938 61.2206 51.3554C61.0564 51.417 60.9127 51.684 60.9127 51.9715C60.9127 52.3206 60.7895 52.4849 60.5637 52.4849C60.3585 52.4849 60.0301 52.6492 59.8248 52.8545C59.6196 53.0394 59.4553 53.368 59.4759 53.5733C59.4759 53.7787 59.3322 53.9224 59.1269 53.9224C58.9217 53.9224 58.5112 54.1689 58.2033 54.4769C57.8954 54.8055 57.6285 55.1752 57.6285 55.3189C57.6285 55.4421 57.567 55.5654 57.4849 55.5654C57.3822 55.5654 57.2386 53.2242 57.1564 50.3902C57.0333 46.673 56.8896 45.0096 56.6844 44.5372C56.4791 44.0238 56.2738 43.8595 55.8838 43.8595C55.4733 43.8595 55.3707 43.7569 55.3707 43.3461C55.3707 42.9765 55.2681 42.8327 54.9602 42.8327C54.6865 42.8327 54.5154 42.6616 54.447 42.3193C54.3786 41.977 54.2076 41.8059 53.9339 41.8059Z" fill="#5F56AF" fill-opacity="0.5"/>
<path d="M13.2926 61.9317C12.8821 61.9317 12.8821 61.7879 12.8821 52.0742V42.2166H15.3452V43.2434C15.3452 44.0238 15.4273 44.2703 15.6531 44.2703C15.92 44.2703 15.961 45.3382 15.961 61.1102H14.8321C13.8468 61.1102 13.7032 61.1513 13.7032 61.521C13.7032 61.7948 13.5663 61.9317 13.2926 61.9317Z" fill="#5F56AF" fill-opacity="0.5"/>
<path d="M32.2586 55.3189C32.0533 54.8877 32.4433 54.4359 37.2874 49.5687C40.1815 46.6525 42.542 44.2703 42.5625 44.2703C42.5831 44.2703 42.5215 44.4962 42.4189 44.7837C42.3162 45.0712 42.2341 48.2133 42.2341 51.7661C42.2341 55.3189 42.2957 58.2351 42.3778 58.2351C42.4804 58.2351 42.6241 58.4405 42.7473 58.6869C42.8704 58.9334 43.1373 59.2209 43.3631 59.3441C43.5683 59.4673 43.8762 59.6521 44.0199 59.7754C44.1636 59.8986 44.4099 60.1039 44.5946 60.2477C44.7588 60.3709 44.882 60.5352 44.8409 60.6174C44.8204 60.679 44.0609 60.5763 43.1578 60.3915C42.2547 60.2272 41.3105 60.0834 41.0436 60.0834C40.7973 60.0834 40.5921 60.0013 40.5921 59.878C40.5921 59.7548 40.2226 59.6111 39.771 59.5289C39.3195 59.4262 38.95 59.303 38.95 59.2209C38.95 59.1182 38.7242 59.0566 38.4368 59.0566C38.1495 59.0566 37.9237 58.995 37.9237 58.9128C37.9237 58.8101 37.5132 58.5432 37 58.2967C36.4869 58.0298 35.8916 57.8244 35.6659 57.8244C35.4401 57.8244 35.2553 57.6806 35.2553 57.5163C35.2553 57.352 35.1117 57.2083 34.9474 57.2083C34.7832 57.2083 34.6396 57.1261 34.6396 57.0029C34.6396 56.8797 34.4959 56.7976 34.3317 56.7976C34.1675 56.7976 34.0238 56.7154 34.0238 56.5922C34.0238 56.469 33.8801 56.3868 33.7159 56.3868C33.5517 56.3868 33.367 56.2431 33.3054 56.0788C33.2438 55.9145 33.0385 55.7707 32.8333 55.7707C32.6485 55.7707 32.3817 55.5654 32.2586 55.3189Z" fill="#5F56AF" fill-opacity="0.5"/>
<path d="M45.5183 83.0843V75.6912V68.298H48.5972V83.0843H45.5183Z" fill="#5F56AF" fill-opacity="0.5"/>
<path d="M49.2129 87.1916V85.6514V84.1111H60.3995L60.2559 84.871C60.1738 85.3023 60.0916 86.0005 60.0916 87.1916H49.2129Z" fill="#5F56AF" fill-opacity="0.5"/>
<path d="M85.5437 93.3115C85.8927 93.2088 86.1595 93.0035 86.1595 92.8392C86.1595 92.6338 86.3648 92.5311 86.7753 92.5311C87.1037 92.5311 87.74 92.6954 88.1505 92.9008C88.5816 93.0856 88.951 93.3115 88.9716 93.4142C89.0126 93.4963 89.4437 93.558 89.9568 93.558C90.7984 93.558 90.8805 93.599 90.8805 94.0714C90.8805 94.3794 90.7573 94.5848 90.5931 94.5848C90.4289 94.5848 90.1621 94.708 90.0184 94.8517C89.8747 94.9955 89.2794 95.2419 88.7253 95.3857C88.1505 95.55 87.2884 95.6732 86.7753 95.6321C86.2621 95.6116 85.8106 95.5295 85.749 95.4473C85.6874 95.3446 85.3385 95.1393 84.969 94.975C84.5995 94.8107 84.2917 94.6464 84.2917 94.5848C84.2917 94.5232 84.4353 94.3383 84.6201 94.174C84.8048 94.0098 84.9485 93.7839 84.928 93.6606C84.928 93.5374 85.1948 93.3937 85.5437 93.3115Z" fill="#5F56AF" fill-opacity="0.5"/>
<path d="M12.9437 94.8517C12.9642 94.7491 13.2926 94.5437 13.6826 94.3589C14.3395 94.0508 14.4216 94.0508 15.3247 94.4616C15.8379 94.6875 16.392 95.0571 16.5357 95.2625C16.6589 95.4473 16.9668 95.6116 17.1926 95.6116C17.4389 95.6116 17.6031 95.7554 17.6031 95.9813C17.6031 96.2277 17.2131 96.4536 16.1047 96.8233C15.0579 97.1724 14.4216 97.2751 13.9084 97.1724C13.5184 97.0902 12.8 96.8438 11.4453 96.2277L11.8969 95.6116C12.1432 95.283 12.4716 94.9955 12.6153 94.9955C12.759 94.9955 12.9026 94.9339 12.9437 94.8517Z" fill="#5F56AF" fill-opacity="0.5"/>
<path d="M40.2226 19.2157C40.4894 19.2157 41.1052 19.0719 41.6184 18.9282C42.1315 18.7639 42.6652 18.6201 42.7883 18.6201C42.9936 18.5996 43.0552 20.7559 43.0552 38.8281L36.3432 45.5641L36.3401 45.5672C29.6518 52.2385 29.6106 52.2795 29.0565 52.0331C28.7281 51.8893 28.4818 51.6018 28.4818 51.417C28.4818 51.2116 28.3997 51.0473 28.2765 51.0473C28.1534 51.0473 28.0713 50.9036 28.0713 50.7393C28.0713 50.575 27.9276 50.3902 27.7634 50.3286C27.5992 50.2669 27.4555 50.0821 27.4555 49.9178C27.4555 49.7535 27.3323 49.4866 27.1887 49.3633C27.0245 49.2196 26.8397 48.891 26.7781 48.6446C26.6755 48.316 26.4703 48.1722 26.1213 48.1722C25.6492 48.1722 25.6082 48.0901 25.6082 47.2481C25.6082 46.7347 25.485 46.0775 25.3619 45.7694C25.2182 45.4409 25.054 45.1533 24.9924 45.0917C24.9103 45.0301 24.6024 43.9212 24.2945 42.6274C23.8224 40.738 23.7403 39.9781 23.8224 38.8281C23.884 38.0477 24.1714 36.6923 24.9513 34.3101L24.9719 36.9387C24.9924 38.52 25.0745 39.5469 25.1977 39.5469C25.3208 39.5469 25.4029 39.7112 25.4029 39.9165C25.3824 40.1014 25.5671 40.5121 25.8134 40.8407C26.0392 41.1487 26.3676 41.3952 26.5318 41.3952C26.696 41.3952 26.8397 41.4568 26.8397 41.5595C26.8397 41.6416 27.0655 41.8264 27.3529 41.9702C27.6402 42.0934 27.866 42.3604 27.866 42.5247C27.866 42.7095 28.0507 42.8327 28.3792 42.8327C28.7486 42.8327 28.8923 42.9354 28.8923 43.2434C28.8923 43.6336 29.036 43.6542 32.587 43.6542C36.1379 43.6542 36.2816 43.6336 36.2816 43.2434C36.2816 42.9354 36.4253 42.8327 36.7948 42.8327C37.1232 42.8327 37.3079 42.7095 37.3079 42.5247C37.3079 42.3604 37.5748 42.1345 37.9237 42.0113C38.4163 41.847 38.5395 41.6827 38.5395 41.1898C38.5395 40.6353 38.6011 40.5737 39.1553 40.5737C39.6273 40.5737 39.771 40.4916 39.771 40.163C39.771 39.9371 39.8942 39.7522 40.0173 39.7522C40.2226 39.7522 40.2431 38.4174 40.12 33.3859C40.0173 28.9911 39.8942 26.8553 39.7094 26.5062C39.5452 26.1365 39.2989 25.9928 38.8884 25.9928C38.4163 25.9928 38.3342 25.9106 38.3342 25.4383C38.3342 25.0275 38.1905 24.7811 37.8211 24.6168C37.5337 24.4731 37.3079 24.2061 37.3079 24.0418C37.3079 23.8775 37.1232 23.7337 36.8974 23.7337C36.6237 23.7337 36.4869 23.5968 36.4869 23.323C36.4869 22.9534 36.3432 22.9123 34.6806 22.8917C33.6954 22.8712 33.1001 22.8301 33.3464 22.7891C33.6133 22.748 33.8185 22.6248 33.8185 22.5016C33.8185 22.3989 33.9622 22.2962 34.1264 22.2962C34.2906 22.2962 34.4343 22.214 34.4343 22.0908C34.4343 21.9881 34.5575 21.8855 34.7217 21.8855C34.8859 21.8855 35.1527 21.7622 35.2964 21.639C35.4401 21.4953 36.1379 21.1051 36.8564 20.7559C37.5542 20.4274 38.129 20.0988 38.129 20.0372C38.129 19.9756 38.4984 19.8729 38.95 19.7907C39.4016 19.688 39.771 19.5443 39.771 19.4211C39.771 19.3184 39.9763 19.2157 40.2226 19.2157Z" stroke="#5F56AF" stroke-opacity="0.5" stroke-width="0.205259"/>
<path d="M46.5446 37.6986V28.1491V18.5996H47.6735C48.5356 18.5996 48.8024 18.6612 48.8024 18.9077C48.8024 19.0925 49.0693 19.2568 49.4592 19.3389C50.0545 19.4416 50.0955 19.5032 49.7877 19.7086C49.5824 19.8318 49.4387 20.0577 49.4182 20.2015C49.4182 20.3247 49.2335 20.4479 49.0077 20.4479C48.7614 20.4479 48.5561 20.6122 48.4945 20.8586C48.4329 21.0845 48.3098 21.2694 48.1866 21.2694C48.0635 21.2694 47.8993 21.6185 47.7966 22.0497C47.694 22.4605 47.5298 25.3972 47.4477 28.5598C47.3246 33.3243 47.3451 34.4333 47.5914 34.9878C47.8172 35.5217 48.0019 35.6655 48.4329 35.6449C48.9256 35.6449 49.0077 35.7271 49.0077 36.261C49.0077 36.8155 49.0693 36.8771 49.6235 36.8771C50.0955 36.8771 50.2392 36.9593 50.2392 37.2879C50.2392 37.678 50.0955 37.6986 46.5446 37.6986Z" stroke="#5F56AF" stroke-opacity="0.5" stroke-width="0.205259"/>
<path d="M85.3385 22.0908C85.6122 22.0908 85.749 21.9539 85.749 21.6801C85.749 21.331 85.8927 21.2694 86.57 21.2694C87.0216 21.2694 87.74 21.4337 88.1505 21.639C88.5816 21.8238 88.951 22.0497 88.9716 22.1524C89.0126 22.2346 89.4437 22.2962 89.9568 22.2962C90.7984 22.2962 90.8805 22.3373 90.8805 22.8096C90.8805 23.1176 90.7573 23.323 90.5931 23.323C90.4289 23.323 90.1621 23.4462 90.0184 23.59C89.8747 23.7337 89.2794 23.9802 88.7253 24.1239C88.1505 24.2882 87.2884 24.4114 86.7753 24.3704C86.2621 24.3498 85.8106 24.2677 85.749 24.1855C85.6874 24.0829 85.3385 23.8775 84.969 23.7132C84.5995 23.5489 84.2917 23.3846 84.2917 23.323C84.2917 23.2614 84.4353 23.0766 84.6201 22.9123C84.8048 22.748 84.9485 22.481 84.928 22.3578C84.928 22.214 85.1127 22.0908 85.3385 22.0908Z" stroke="#5F56AF" stroke-opacity="0.5" stroke-width="0.205259"/>
<path d="M62.2469 35.3369C62.4521 34.844 62.5548 33.8993 62.5548 32.2564C62.5548 30.7572 62.6369 29.8947 62.76 29.8947C62.8832 29.8947 63.2321 30.5108 63.54 31.2706C63.8479 32.0305 64.1968 32.7493 64.2995 32.852C64.4226 32.9752 64.6279 33.4886 64.7715 34.002C64.8947 34.5154 65.2026 35.5422 65.8389 37.6986H62.6574C60.6664 37.6986 59.4759 37.6164 59.4759 37.4932C59.4759 37.37 59.6606 37.2879 59.8659 37.2879C60.0916 37.2879 60.3995 37.1441 60.5843 36.9798C60.7485 36.8155 60.9743 36.6718 61.0974 36.6718C61.2206 36.6718 61.3232 36.528 61.3232 36.3637C61.3232 36.1994 61.4669 36.0557 61.6311 36.0557C61.7953 36.0557 62.0827 35.7271 62.2469 35.3369Z" stroke="#5F56AF" stroke-opacity="0.5" stroke-width="0.205259"/>
<path d="M74.0492 40.9844V39.4442V37.9039H81.028V38.479C81.028 38.787 81.0691 39.2388 81.1307 39.5058C81.2128 39.8344 81.377 39.9576 81.7465 39.9576C82.1159 39.9576 82.2596 40.0603 82.2596 40.3683C82.2596 40.738 82.4238 40.7791 83.9632 40.8407C84.8869 40.8817 83.0396 40.9228 74.0492 40.9844Z" stroke="#5F56AF" stroke-opacity="0.5" stroke-width="0.205259"/>
<path d="M53.9339 41.8059C53.7081 41.8059 53.5234 41.6621 53.5234 41.4978C53.5234 41.2309 54.3444 41.1898 65.8389 41.1898L65.6131 41.9702C65.49 42.3809 65.3668 43.2229 65.3052 43.8185C65.2642 44.4962 65.1205 44.8864 64.9768 44.8864C64.8331 44.8864 64.5868 45.1739 64.4637 45.5435C64.32 45.9132 64.1968 46.3445 64.1968 46.4882C64.1968 46.6114 64.0531 46.8784 63.8889 47.0427C63.7247 47.207 63.581 47.5767 63.581 47.8642C63.581 48.1928 63.4579 48.3776 63.2732 48.3776C63.109 48.3776 62.9037 48.5829 62.8216 48.8499C62.76 49.0964 62.5753 49.4249 62.4111 49.5687C62.2674 49.6919 62.1442 50 62.1442 50.2259C62.1442 50.4518 62.0006 50.6366 61.8363 50.6366C61.6721 50.6366 61.5285 50.7804 61.5285 50.9446C61.5285 51.1089 61.3848 51.2938 61.2206 51.3554C61.0564 51.417 60.9127 51.684 60.9127 51.9715C60.9127 52.3206 60.7895 52.4849 60.5637 52.4849C60.3585 52.4849 60.0301 52.6492 59.8248 52.8545C59.6196 53.0394 59.4553 53.368 59.4759 53.5733C59.4759 53.7787 59.3322 53.9224 59.1269 53.9224C58.9217 53.9224 58.5112 54.1689 58.2033 54.4769C57.8954 54.8055 57.6285 55.1752 57.6285 55.3189C57.6285 55.4421 57.567 55.5654 57.4849 55.5654C57.3822 55.5654 57.2386 53.2242 57.1564 50.3902C57.0333 46.673 56.8896 45.0096 56.6844 44.5372C56.4791 44.0238 56.2738 43.8595 55.8838 43.8595C55.4733 43.8595 55.3707 43.7569 55.3707 43.3461C55.3707 42.9765 55.2681 42.8327 54.9602 42.8327C54.6865 42.8327 54.5154 42.6616 54.447 42.3193C54.3786 41.977 54.2076 41.8059 53.9339 41.8059Z" stroke="#5F56AF" stroke-opacity="0.5" stroke-width="0.205259"/>
<path d="M13.2926 61.9317C12.8821 61.9317 12.8821 61.7879 12.8821 52.0742V42.2166H15.3452V43.2434C15.3452 44.0238 15.4273 44.2703 15.6531 44.2703C15.92 44.2703 15.961 45.3382 15.961 61.1102H14.8321C13.8468 61.1102 13.7032 61.1513 13.7032 61.521C13.7032 61.7948 13.5663 61.9317 13.2926 61.9317Z" stroke="#5F56AF" stroke-opacity="0.5" stroke-width="0.205259"/>
<path d="M32.2586 55.3189C32.0533 54.8877 32.4433 54.4359 37.2874 49.5687C40.1815 46.6525 42.542 44.2703 42.5625 44.2703C42.5831 44.2703 42.5215 44.4962 42.4189 44.7837C42.3162 45.0712 42.2341 48.2133 42.2341 51.7661C42.2341 55.3189 42.2957 58.2351 42.3778 58.2351C42.4804 58.2351 42.6241 58.4405 42.7473 58.6869C42.8704 58.9334 43.1373 59.2209 43.3631 59.3441C43.5683 59.4673 43.8762 59.6521 44.0199 59.7754C44.1636 59.8986 44.4099 60.1039 44.5946 60.2477C44.7588 60.3709 44.882 60.5352 44.8409 60.6174C44.8204 60.679 44.0609 60.5763 43.1578 60.3915C42.2547 60.2272 41.3105 60.0834 41.0436 60.0834C40.7973 60.0834 40.5921 60.0013 40.5921 59.878C40.5921 59.7548 40.2226 59.6111 39.771 59.5289C39.3195 59.4262 38.95 59.303 38.95 59.2209C38.95 59.1182 38.7242 59.0566 38.4368 59.0566C38.1495 59.0566 37.9237 58.995 37.9237 58.9128C37.9237 58.8101 37.5132 58.5432 37 58.2967C36.4869 58.0298 35.8916 57.8244 35.6659 57.8244C35.4401 57.8244 35.2553 57.6806 35.2553 57.5163C35.2553 57.352 35.1117 57.2083 34.9474 57.2083C34.7832 57.2083 34.6396 57.1261 34.6396 57.0029C34.6396 56.8797 34.4959 56.7976 34.3317 56.7976C34.1675 56.7976 34.0238 56.7154 34.0238 56.5922C34.0238 56.469 33.8801 56.3868 33.7159 56.3868C33.5517 56.3868 33.367 56.2431 33.3054 56.0788C33.2438 55.9145 33.0385 55.7707 32.8333 55.7707C32.6485 55.7707 32.3817 55.5654 32.2586 55.3189Z" stroke="#5F56AF" stroke-opacity="0.5" stroke-width="0.205259"/>
<path d="M45.5183 83.0843V75.6912V68.298H48.5972V83.0843H45.5183Z" stroke="#5F56AF" stroke-opacity="0.5" stroke-width="0.205259"/>
<path d="M49.2129 87.1916V85.6514V84.1111H60.3995L60.2559 84.871C60.1738 85.3023 60.0916 86.0005 60.0916 87.1916H49.2129Z" stroke="#5F56AF" stroke-opacity="0.5" stroke-width="0.205259"/>
<path d="M85.5437 93.3115C85.8927 93.2088 86.1595 93.0035 86.1595 92.8392C86.1595 92.6338 86.3648 92.5311 86.7753 92.5311C87.1037 92.5311 87.74 92.6954 88.1505 92.9008C88.5816 93.0856 88.951 93.3115 88.9716 93.4142C89.0126 93.4963 89.4437 93.558 89.9568 93.558C90.7984 93.558 90.8805 93.599 90.8805 94.0714C90.8805 94.3794 90.7573 94.5848 90.5931 94.5848C90.4289 94.5848 90.1621 94.708 90.0184 94.8517C89.8747 94.9955 89.2794 95.2419 88.7253 95.3857C88.1505 95.55 87.2884 95.6732 86.7753 95.6321C86.2621 95.6116 85.8106 95.5295 85.749 95.4473C85.6874 95.3446 85.3385 95.1393 84.969 94.975C84.5995 94.8107 84.2917 94.6464 84.2917 94.5848C84.2917 94.5232 84.4353 94.3383 84.6201 94.174C84.8048 94.0098 84.9485 93.7839 84.928 93.6606C84.928 93.5374 85.1948 93.3937 85.5437 93.3115Z" stroke="#5F56AF" stroke-opacity="0.5" stroke-width="0.205259"/>
<path d="M12.9437 94.8517C12.9642 94.7491 13.2926 94.5437 13.6826 94.3589C14.3395 94.0508 14.4216 94.0508 15.3247 94.4616C15.8379 94.6875 16.392 95.0571 16.5357 95.2625C16.6589 95.4473 16.9668 95.6116 17.1926 95.6116C17.4389 95.6116 17.6031 95.7554 17.6031 95.9813C17.6031 96.2277 17.2131 96.4536 16.1047 96.8233C15.0579 97.1724 14.4216 97.2751 13.9084 97.1724C13.5184 97.0902 12.8 96.8438 11.4453 96.2277L11.8969 95.6116C12.1432 95.283 12.4716 94.9955 12.6153 94.9955C12.759 94.9955 12.9026 94.9339 12.9437 94.8517Z" stroke="#5F56AF" stroke-opacity="0.5" stroke-width="0.205259"/>
<path d="M49.1136 84.0285C48.7031 84.008 48.7031 83.8642 48.7031 74.8692V65.7305L48.7442 74.8076C48.8058 83.2892 48.8263 83.9053 49.1752 83.9669C49.4215 84.0217 49.401 84.0422 49.1136 84.0285Z" fill="#80BD81" fill-opacity="0.3" stroke="#5F56AF" stroke-opacity="0.5" stroke-width="0.205259"/>
<path d="M71.6935 37.8003L78.3645 37.6976C82.0386 37.636 85.2611 37.636 85.5485 37.6771C85.8359 37.7181 86.1027 37.7797 86.1232 37.8208C86.1438 37.8619 82.9007 37.8824 71.6935 37.8003Z" fill="#80BD81" fill-opacity="0.3"/>
<path d="M61.7795 41.2299C57.5102 41.2093 52.1119 41.1683 49.7309 41.1272C47.3498 41.1067 50.7982 41.0656 57.3665 41.0245C63.9553 41.004 69.3741 41.0451 69.4152 41.1477C69.4562 41.2299 66.0284 41.271 61.7795 41.2299Z" fill="#80BD81" fill-opacity="0.3"/>
<path d="M59.7885 84.0485C57.9823 84.0896 54.9444 84.0896 53.015 84.0485C51.0856 84.028 52.5839 83.9869 56.2991 83.9869C60.0143 83.9869 61.5948 84.028 59.7885 84.0485Z" fill="#80BD81" fill-opacity="0.3"/>
<path d="M71.6935 37.8003L78.3645 37.6976C82.0386 37.636 85.2611 37.636 85.5485 37.6771C85.8359 37.7181 86.1027 37.7797 86.1232 37.8208C86.1438 37.8619 82.9007 37.8824 71.6935 37.8003Z" stroke="#5F56AF" stroke-opacity="0.5" stroke-width="0.205259"/>
<path d="M61.7795 41.2299C57.5102 41.2093 52.1119 41.1683 49.7309 41.1272C47.3498 41.1067 50.7982 41.0656 57.3665 41.0245C63.9553 41.004 69.3741 41.0451 69.4152 41.1477C69.4562 41.2299 66.0284 41.271 61.7795 41.2299Z" stroke="#5F56AF" stroke-opacity="0.5" stroke-width="0.205259"/>
<path d="M59.7885 84.0485C57.9823 84.0896 54.9444 84.0896 53.015 84.0485C51.0856 84.028 52.5839 83.9869 56.2991 83.9869C60.0143 83.9869 61.5948 84.028 59.7885 84.0485Z" stroke="#5F56AF" stroke-opacity="0.5" stroke-width="0.205259"/>
<path d="M16.1075 59.4401C16.0869 62.5411 16.0664 59.9535 16.0664 53.6899C16.0664 47.4262 16.0869 44.8797 16.1075 48.0423C16.1485 51.2049 16.1485 56.3391 16.1075 59.4401Z" fill="#80BD81" fill-opacity="0.1" stroke="#5F56AF" stroke-opacity="0.5" stroke-width="0.205259"/>
<path d="M46.4884 33.1533C46.4679 36.2543 46.4474 33.6257 46.4474 27.3004C46.4474 20.9752 46.4679 18.4286 46.4884 21.6529C46.5295 24.8771 46.5295 30.0523 46.4884 33.1533Z" fill="#80BD81" fill-opacity="0.2"/>
<path d="M17.0954 39.0473C16.5412 39.0884 15.6586 39.0884 15.1454 39.0473C14.6323 39.0062 15.1044 38.9857 16.1717 38.9857C17.2391 38.9857 17.6701 39.0062 17.0954 39.0473Z" fill="#80BD81" fill-opacity="0.2"/>
<path d="M46.4884 33.1533C46.4679 36.2543 46.4474 33.6257 46.4474 27.3004C46.4474 20.9752 46.4679 18.4286 46.4884 21.6529C46.5295 24.8771 46.5295 30.0523 46.4884 33.1533Z" stroke="#5F56AF" stroke-opacity="0.5" stroke-width="0.205259"/>
<path d="M17.0954 39.0473C16.5412 39.0884 15.6586 39.0884 15.1454 39.0473C14.6323 39.0062 15.1044 38.9857 16.1717 38.9857C17.2391 38.9857 17.6701 39.0062 17.0954 39.0473Z" stroke="#5F56AF" stroke-opacity="0.5" stroke-width="0.205259"/>
<path d="M28.5859 59.1321L37.0015 50.671V50.6505C41.6199 46.0092 45.4377 42.1895 45.4582 42.1895C45.4993 42.1895 45.5198 42.21 45.5198 42.2305C45.5198 42.2716 41.702 46.0709 28.5859 59.1321Z" fill="#80BD81" fill-opacity="0.6" stroke="#5F56AF" stroke-opacity="0.5" stroke-width="0.205259"/>
<path d="M12.8223 59.0292C12.8018 62.4793 12.7812 59.7479 12.7812 52.9709C12.7812 46.1938 12.8018 43.3803 12.8223 46.7072C12.8634 50.0342 12.8634 55.579 12.8223 59.0292Z" fill="#5F56AF" fill-opacity="0.5" stroke="#5F56AF" stroke-opacity="0.5" stroke-width="0.205259"/>
<path d="M26.332 55.668L33.6187 48.3365V48.3159C37.6213 44.2908 40.9259 40.9844 40.9465 40.9844C40.9875 40.9844 41.008 41.0049 41.008 41.0254C41.008 41.0665 37.7034 44.3729 26.332 55.668Z" fill="#5F56AF" fill-opacity="0.5"/>
<path d="M45.4621 81.1538C45.4416 83.7414 45.4211 81.6672 45.4211 76.5331C45.4211 71.399 45.4416 69.2632 45.4621 71.8097C45.5032 74.3562 45.5032 78.5457 45.4621 81.1538Z" fill="#5F56AF" fill-opacity="0.5"/>
<path d="M26.332 55.668L33.6187 48.3365V48.3159C37.6213 44.2908 40.9259 40.9844 40.9465 40.9844C40.9875 40.9844 41.008 41.0049 41.008 41.0254C41.008 41.0665 37.7034 44.3729 26.332 55.668Z" stroke="#5F56AF" stroke-opacity="0.5" stroke-width="0.205259"/>
<path d="M45.4621 81.1538C45.4416 83.7414 45.4211 81.6672 45.4211 76.5331C45.4211 71.399 45.4416 69.2632 45.4621 71.8097C45.5032 74.3562 45.5032 78.5457 45.4621 81.1538Z" stroke="#5F56AF" stroke-opacity="0.5" stroke-width="0.205259"/>
<path d="M43.2051 32.7424C43.1846 35.8434 43.1641 33.3585 43.1641 27.1976C43.1641 21.0366 43.1846 18.5106 43.2051 21.55C43.2462 24.5894 43.2462 29.6414 43.2051 32.7424Z" fill="#5F56AF" fill-opacity="0.5" stroke="#5F56AF" stroke-opacity="0.5" stroke-width="0.205259"/>
<path d="M84.174 9.35126C84.4203 9.08428 84.995 8.69409 85.4466 8.46819C86.0418 8.20121 86.6166 8.09853 87.5197 8.1396C88.4434 8.18067 88.977 8.34497 89.5723 8.73516C90.0854 9.06375 90.5781 9.63877 90.9475 10.3781C91.2759 11.0558 91.5017 11.8156 91.5017 12.3085C91.5017 12.7603 91.317 13.4996 91.1117 13.9514C90.9065 14.4032 90.4344 15.0604 90.0444 15.4095C89.6544 15.7381 88.977 16.1488 88.5255 16.2926C88.0123 16.4774 87.3144 16.5185 86.6781 16.4364C86.0418 16.3748 85.344 16.1078 84.8513 15.7587C84.3998 15.4301 83.825 14.7729 83.5582 14.2595C83.2503 13.6639 83.0861 12.9862 83.0861 12.3701C83.0861 11.8156 83.2298 11.0353 83.4145 10.6245C83.5787 10.1933 83.9277 9.61823 84.174 9.35126Z" fill="#5F56AF" fill-opacity="0.5"/>
<path d="M84.174 80.613C84.4203 80.346 84.995 79.9559 85.4466 79.7299C86.0418 79.463 86.6166 79.3603 87.5197 79.4014C88.4434 79.4424 88.977 79.6067 89.5723 79.9969C90.0854 80.3255 90.5781 80.9005 90.9475 81.6398C91.2759 82.3176 91.5017 83.0774 91.5017 83.5703C91.5017 84.0221 91.317 84.7614 91.1117 85.2132C90.9065 85.665 90.4344 86.3222 90.0444 86.6713C89.6544 86.9999 88.977 87.4106 88.5255 87.5544C88.0123 87.7392 87.3144 87.7803 86.6781 87.6981C86.0418 87.6365 85.344 87.3695 84.8513 87.0204C84.3998 86.6918 83.825 86.0347 83.5582 85.5212C83.2503 84.9257 83.0861 84.248 83.0861 83.6319C83.0861 83.0774 83.2298 82.297 83.4145 81.8863C83.5787 81.455 83.9277 80.88 84.174 80.613Z" fill="#5F56AF" fill-opacity="0.5"/>
<path d="M12.3334 81.5372C12.7029 81.3113 13.2571 81.0648 13.606 80.9827C13.9549 80.9005 14.5502 80.9005 14.9402 80.9416C15.3302 81.0032 15.8844 81.147 16.1717 81.2497C16.4591 81.3523 16.9517 81.6809 17.2596 81.989C17.588 82.297 18.0396 82.9131 18.2654 83.3649C18.5938 84.0015 18.6759 84.4739 18.6143 85.4596C18.5527 86.4865 18.4296 86.8561 17.8959 87.5133C17.547 87.9446 16.9928 88.4785 16.6644 88.7044C16.336 88.9509 15.6791 89.1973 15.207 89.2794C14.7144 89.3616 13.9344 89.3205 13.4418 89.2178C12.9697 89.0946 12.1897 88.6839 11.7176 88.2937C11.1224 87.8008 10.7324 87.2669 10.4861 86.6097C10.2603 85.9114 10.1987 85.3159 10.2808 84.5971C10.3766 83.9126 10.6298 83.2965 11.0403 82.7488C11.3892 82.3176 11.9639 81.7631 12.3334 81.5372Z" fill="#5F56AF" fill-opacity="0.5"/>
<path d="M54.1036 27.218C54.0625 27.1154 54.2267 26.9716 54.4525 26.9305C54.6783 26.8895 55.0478 26.8895 55.2735 26.9511C55.4993 27.0127 55.7867 27.1975 55.9304 27.3823C56.0741 27.5672 56.1972 27.7725 56.1972 27.8752C56.1972 27.9574 55.8072 27.9163 55.3351 27.7931C54.8425 27.6698 54.3909 27.5466 54.3088 27.485C54.2062 27.4439 54.1241 27.3207 54.1036 27.218Z" fill="#5F56AF" fill-opacity="0.5"/>
<path d="M54.3499 31.9209C54.1241 31.8182 53.8573 31.5307 53.7341 31.2843C53.5494 30.8941 53.5699 30.8735 54.3088 31.0173C54.7193 31.0994 55.2735 31.2432 55.5404 31.3253C55.7867 31.428 55.992 31.6129 55.992 31.7155C55.992 31.8388 55.7046 31.962 55.3762 32.0236C55.0478 32.0852 54.5757 32.0441 54.3499 31.9209Z" fill="#5F56AF" fill-opacity="0.5"/>
<path d="M31.7304 32.1673C31.7098 32.0647 31.7714 31.9209 31.874 31.8593C31.9767 31.7771 32.3051 31.7155 32.6335 31.7155C33.003 31.7155 33.3109 31.8798 33.5161 32.1879C33.6803 32.4343 33.7829 32.6602 33.7624 32.6808C33.7419 32.7013 33.2903 32.6191 32.7567 32.5165C32.2025 32.4138 31.7509 32.2495 31.7304 32.1673Z" fill="#5F56AF" fill-opacity="0.5"/>
<path d="M31.8535 36.6854C31.7304 36.6032 31.5046 36.3363 31.3404 36.0898L31.053 35.6586L32.2846 35.9461C32.9619 36.0898 33.5366 36.2747 33.5572 36.3363C33.5982 36.3979 33.5777 36.5416 33.5161 36.6443C33.4545 36.7675 33.1056 36.8497 32.7567 36.8497C32.3872 36.8497 31.9767 36.7675 31.8535 36.6854Z" fill="#5F56AF" fill-opacity="0.5"/>
<path d="M49.1774 50.3627C48.9721 50.26 48.8079 50.0957 48.8284 49.9725C48.8284 49.8493 49.1568 49.7877 49.5674 49.8082C50.06 49.8493 50.4158 50.0341 50.6347 50.3627C50.9631 50.835 50.9631 50.835 50.2447 50.6913C49.8547 50.6091 49.3621 50.4654 49.1774 50.3627Z" fill="#5F56AF" fill-opacity="0.5"/>
<path d="M49.0337 54.7781C48.7668 54.6754 48.4795 54.3879 48.3974 54.1414C48.2537 53.7102 48.2742 53.6896 48.7668 53.7923C49.0747 53.8745 49.6289 53.9977 49.9984 54.1004C50.3473 54.203 50.6552 54.3879 50.6552 54.4906C50.6552 54.6138 50.4089 54.7575 50.101 54.8397C49.7726 54.9013 49.3005 54.8807 49.0337 54.7781Z" fill="#5F56AF" fill-opacity="0.5"/>
<path d="M84.174 9.35126C84.4203 9.08428 84.995 8.69409 85.4466 8.46819C86.0418 8.20121 86.6166 8.09853 87.5197 8.1396C88.4434 8.18067 88.977 8.34497 89.5723 8.73516C90.0854 9.06375 90.5781 9.63877 90.9475 10.3781C91.2759 11.0558 91.5017 11.8156 91.5017 12.3085C91.5017 12.7603 91.317 13.4996 91.1117 13.9514C90.9065 14.4032 90.4344 15.0604 90.0444 15.4095C89.6544 15.7381 88.977 16.1488 88.5255 16.2926C88.0123 16.4774 87.3144 16.5185 86.6781 16.4364C86.0418 16.3748 85.344 16.1078 84.8513 15.7587C84.3998 15.4301 83.825 14.7729 83.5582 14.2595C83.2503 13.6639 83.0861 12.9862 83.0861 12.3701C83.0861 11.8156 83.2298 11.0353 83.4145 10.6245C83.5787 10.1933 83.9277 9.61823 84.174 9.35126Z" stroke="#5F56AF" stroke-opacity="0.5" stroke-width="0.205259"/>
<path d="M84.174 80.613C84.4203 80.346 84.995 79.9559 85.4466 79.7299C86.0418 79.463 86.6166 79.3603 87.5197 79.4014C88.4434 79.4424 88.977 79.6067 89.5723 79.9969C90.0854 80.3255 90.5781 80.9005 90.9475 81.6398C91.2759 82.3176 91.5017 83.0774 91.5017 83.5703C91.5017 84.0221 91.317 84.7614 91.1117 85.2132C90.9065 85.665 90.4344 86.3222 90.0444 86.6713C89.6544 86.9999 88.977 87.4106 88.5255 87.5544C88.0123 87.7392 87.3144 87.7803 86.6781 87.6981C86.0418 87.6365 85.344 87.3695 84.8513 87.0204C84.3998 86.6918 83.825 86.0347 83.5582 85.5212C83.2503 84.9257 83.0861 84.248 83.0861 83.6319C83.0861 83.0774 83.2298 82.297 83.4145 81.8863C83.5787 81.455 83.9277 80.88 84.174 80.613Z" stroke="#5F56AF" stroke-opacity="0.5" stroke-width="0.205259"/>
<path d="M12.3334 81.5372C12.7029 81.3113 13.2571 81.0648 13.606 80.9827C13.9549 80.9005 14.5502 80.9005 14.9402 80.9416C15.3302 81.0032 15.8844 81.147 16.1717 81.2497C16.4591 81.3523 16.9517 81.6809 17.2596 81.989C17.588 82.297 18.0396 82.9131 18.2654 83.3649C18.5938 84.0015 18.6759 84.4739 18.6143 85.4596C18.5527 86.4865 18.4296 86.8561 17.8959 87.5133C17.547 87.9446 16.9928 88.4785 16.6644 88.7044C16.336 88.9509 15.6791 89.1973 15.207 89.2794C14.7144 89.3616 13.9344 89.3205 13.4418 89.2178C12.9697 89.0946 12.1897 88.6839 11.7176 88.2937C11.1224 87.8008 10.7324 87.2669 10.4861 86.6097C10.2603 85.9114 10.1987 85.3159 10.2808 84.5971C10.3766 83.9126 10.6298 83.2965 11.0403 82.7488C11.3892 82.3176 11.9639 81.7631 12.3334 81.5372Z" stroke="#5F56AF" stroke-opacity="0.5" stroke-width="0.205259"/>
<path d="M54.1036 27.218C54.0625 27.1154 54.2267 26.9716 54.4525 26.9305C54.6783 26.8895 55.0478 26.8895 55.2735 26.9511C55.4993 27.0127 55.7867 27.1975 55.9304 27.3823C56.0741 27.5672 56.1972 27.7725 56.1972 27.8752C56.1972 27.9574 55.8072 27.9163 55.3351 27.7931C54.8425 27.6698 54.3909 27.5466 54.3088 27.485C54.2062 27.4439 54.1241 27.3207 54.1036 27.218Z" stroke="#5F56AF" stroke-opacity="0.5" stroke-width="0.205259"/>
<path d="M54.3499 31.9209C54.1241 31.8182 53.8573 31.5307 53.7341 31.2843C53.5494 30.8941 53.5699 30.8735 54.3088 31.0173C54.7193 31.0994 55.2735 31.2432 55.5404 31.3253C55.7867 31.428 55.992 31.6129 55.992 31.7155C55.992 31.8388 55.7046 31.962 55.3762 32.0236C55.0478 32.0852 54.5757 32.0441 54.3499 31.9209Z" stroke="#5F56AF" stroke-opacity="0.5" stroke-width="0.205259"/>
<path d="M31.7304 32.1673C31.7098 32.0647 31.7714 31.9209 31.874 31.8593C31.9767 31.7771 32.3051 31.7155 32.6335 31.7155C33.003 31.7155 33.3109 31.8798 33.5161 32.1879C33.6803 32.4343 33.7829 32.6602 33.7624 32.6808C33.7419 32.7013 33.2903 32.6191 32.7567 32.5165C32.2025 32.4138 31.7509 32.2495 31.7304 32.1673Z" stroke="#5F56AF" stroke-opacity="0.5" stroke-width="0.205259"/>
<path d="M31.8535 36.6854C31.7304 36.6032 31.5046 36.3363 31.3404 36.0898L31.053 35.6586L32.2846 35.9461C32.9619 36.0898 33.5366 36.2747 33.5572 36.3363C33.5982 36.3979 33.5777 36.5416 33.5161 36.6443C33.4545 36.7675 33.1056 36.8497 32.7567 36.8497C32.3872 36.8497 31.9767 36.7675 31.8535 36.6854Z" stroke="#5F56AF" stroke-opacity="0.5" stroke-width="0.205259"/>
<path d="M49.1774 50.3627C48.9721 50.26 48.8079 50.0957 48.8284 49.9725C48.8284 49.8493 49.1568 49.7877 49.5674 49.8082C50.06 49.8493 50.4158 50.0341 50.6347 50.3627C50.9631 50.835 50.9631 50.835 50.2447 50.6913C49.8547 50.6091 49.3621 50.4654 49.1774 50.3627Z" stroke="#5F56AF" stroke-opacity="0.5" stroke-width="0.205259"/>
<path d="M49.0337 54.7781C48.7668 54.6754 48.4795 54.3879 48.3974 54.1414C48.2537 53.7102 48.2742 53.6896 48.7668 53.7923C49.0747 53.8745 49.6289 53.9977 49.9984 54.1004C50.3473 54.203 50.6552 54.3879 50.6552 54.4906C50.6552 54.6138 50.4089 54.7575 50.101 54.8397C49.7726 54.9013 49.3005 54.8807 49.0337 54.7781Z" stroke="#5F56AF" stroke-opacity="0.5" stroke-width="0.205259"/>
</svg>
