<svg width="100" height="103" viewBox="0 0 100 103" fill="none" xmlns="http://www.w3.org/2000/svg">
<path fill-rule="evenodd" clip-rule="evenodd" d="M50.4162 0.0373998C52.4415 0.086209 54.2717 0.281446 55.1745 0.525492C55.9798 0.745134 57.5659 1.37965 58.7128 1.91656C59.8597 2.45346 61.5434 3.47845 62.4951 4.21059C63.4468 4.91832 64.7156 6.08975 65.3257 6.79748C65.9357 7.52962 66.9118 8.82306 67.473 9.70163C68.0343 10.5802 68.8151 12.1421 69.2056 13.1915C69.6204 14.2165 70.1084 16.0224 70.3037 17.1938C70.4989 18.3897 70.6697 19.9028 70.6697 20.5617C70.6697 21.245 70.4989 22.7337 70.3037 23.9295C70.1084 25.1009 69.6204 26.9069 69.2056 27.9319C68.8151 28.9813 67.9367 30.714 67.229 31.7878C66.5458 32.8616 65.1793 34.5211 64.2032 35.4485C63.2271 36.3759 61.6654 37.5961 60.7626 38.1574C59.8353 38.6943 58.3224 39.4509 57.3707 39.8413C56.419 40.2074 54.8085 40.6955 51.8803 41.3056V53.0198L58.7128 59.1942C62.4707 62.562 65.6185 65.5882 65.6917 65.8811C65.7649 66.1983 65.6917 66.7596 65.5209 67.1745C65.3257 67.565 64.9109 68.0043 64.5692 68.1263C64.2276 68.2483 63.6908 68.2727 63.3491 68.1995C63.0075 68.1019 59.8841 65.4662 56.3946 62.318C52.9052 59.1454 50.0014 56.5829 49.9281 56.5829C49.8549 56.5829 46.9511 59.1698 43.4617 62.318C39.9722 65.4662 36.8488 68.1019 36.5071 68.1995C36.1655 68.2727 35.6287 68.2483 35.2871 68.1263C34.9454 68.0043 34.5306 67.565 34.3354 67.1745C34.1646 66.7596 34.0914 66.1983 34.1646 65.9055C34.2378 65.5882 37.3856 62.562 47.976 53.0198V41.3056L46.0971 40.9151C45.0478 40.6955 43.4129 40.2074 42.4856 39.8413C41.5583 39.4509 40.021 38.6943 39.0937 38.1574C38.1909 37.5961 36.6292 36.3759 35.6531 35.4485C34.677 34.5211 33.3105 32.8616 32.6273 31.7878C31.9196 30.714 31.0411 28.9813 30.6507 27.9319C30.2359 26.9069 29.7478 25.0277 29.5282 23.8075C29.2598 22.27 29.1866 20.8789 29.2842 19.4635C29.3574 18.3165 29.6502 16.5105 29.9187 15.4367C30.1871 14.3629 30.8459 12.6058 31.3828 11.532C31.8952 10.4582 32.9201 8.82306 33.6277 7.89569C34.3354 6.94391 35.7019 5.55285 36.6292 4.7719C37.5564 3.99095 39.3378 2.84393 40.5334 2.23382C41.7291 1.5993 43.7301 0.818348 44.9258 0.501088C46.8291 0.0129951 47.5612 -0.0602187 50.4162 0.0373998ZM47.0975 13.1183L45.6578 15.3391C41.8755 16.5593 40.5578 17.0718 40.2894 17.3159C39.9722 17.5599 39.8014 17.9992 39.8014 18.5361C39.8258 19.1462 40.2406 19.9028 41.4607 21.6111L43.0956 23.8563C42.8028 28.42 42.8516 29.0057 43.1932 29.6646C43.4373 30.1527 43.8277 30.5188 44.2425 30.6164C44.7306 30.7384 45.6578 30.5188 47.4148 29.8843L49.9281 28.9813C54.1985 30.5188 55.1257 30.7384 55.5894 30.6164C56.0286 30.5188 56.419 30.1527 56.663 29.6646C57.0047 29.0057 57.0535 28.42 56.9071 26.3456L56.7607 23.8563C59.6157 19.9028 60.0305 19.1462 60.0549 18.5361C60.0549 17.9992 59.8841 17.5599 59.5669 17.3159C59.2984 17.0718 57.9807 16.5593 56.6386 16.12L54.1985 15.3391C51.9291 11.8492 51.0262 10.751 50.709 10.629C50.4162 10.5314 50.0257 10.4338 49.8549 10.4582C49.7085 10.4582 49.3425 10.5558 49.0497 10.6778C48.7813 10.7754 47.9028 11.8736 47.0975 13.1183ZM12.5202 76.3507C12.691 76.3263 13.0814 76.4483 13.3742 76.5947C13.6914 76.7411 14.2039 77.1316 14.5455 77.4489C14.8871 77.7417 15.5948 78.2054 16.1316 78.425C16.7173 78.6691 17.7666 78.8399 18.6938 78.8399C19.6455 78.8399 20.6704 78.6691 21.256 78.425C21.7928 78.181 22.5493 77.6929 22.9641 77.3268C23.3546 76.9608 23.9402 76.5947 24.233 76.4971C24.5747 76.3995 26.2584 76.6923 28.6254 77.3024C31.6512 78.059 32.7493 78.4739 33.7009 79.1084C34.3598 79.5721 35.1406 80.2554 35.4335 80.6459C35.7263 81.0119 36.2143 81.8173 36.5315 82.4274C37.1172 83.5012 37.1172 83.6476 37.2392 98.4124L36.7024 98.9737C36.1655 99.4862 35.9703 99.535 29.1866 99.5106V94.9958C29.1866 90.5053 29.1866 90.4809 28.5766 89.8708C28.1373 89.4315 27.6981 89.2607 27.0392 89.2607C26.5512 89.2607 25.9656 89.4071 25.7459 89.578C25.5263 89.7488 25.2335 90.1149 25.0871 90.4077C24.8919 90.7738 24.7943 92.4821 24.7943 99.5106H12.5934V95.2398C12.5934 92.4821 12.4958 90.7738 12.3005 90.4077C12.1541 90.1149 11.8613 89.7488 11.6417 89.578C11.4221 89.4071 10.8364 89.2607 10.324 89.2607C9.64074 89.2607 9.22591 89.4315 8.81108 89.8708C8.20104 90.4809 8.20104 90.5297 8.20104 99.5106H4.71158C1.41733 99.535 1.22212 99.4862 0.148438 98.4124L0.197241 90.969C0.270447 83.6476 0.270447 83.5012 0.85609 82.4274C1.17331 81.8173 1.66135 81.0119 1.95417 80.6459C2.24699 80.2554 3.00345 79.5721 3.6867 79.1084C4.61397 78.4739 5.78526 78.059 8.56706 77.3268C10.568 76.7899 12.3737 76.3507 12.5202 76.3507ZM75.0132 76.3507C75.1596 76.3263 75.5501 76.4483 75.8429 76.5947C76.1601 76.7411 76.6725 77.1316 77.0142 77.4489C77.3558 77.7417 78.0634 78.2054 78.6003 78.425C79.1859 78.6691 80.2352 78.8399 81.1625 78.8399C82.1141 78.8399 83.139 78.6691 83.7247 78.425C84.2615 78.181 85.018 77.6929 85.4328 77.3268C85.8232 76.9608 86.4089 76.5947 86.7017 76.4971C87.0433 76.3995 88.727 76.6923 91.094 77.3024C94.1198 78.059 95.2179 78.4739 96.1696 79.1084C96.8284 79.5721 97.6093 80.2554 97.9021 80.6459C98.1949 81.0119 98.683 81.8173 99.0002 82.4274C99.5858 83.5012 99.5858 83.6476 99.7078 98.4124L99.171 98.9737C98.6342 99.4862 98.439 99.535 91.6553 99.5106V94.9958C91.6553 90.5053 91.6553 90.4809 91.0452 89.8708C90.606 89.4315 90.1667 89.2607 89.5079 89.2607C89.0199 89.2607 88.4342 89.4071 88.2146 89.578C87.995 89.7488 87.7022 90.1149 87.5557 90.4077C87.3605 90.7738 87.2629 92.4821 87.2629 99.5106H75.062V95.2398C75.062 92.4821 74.9644 90.7738 74.7692 90.4077C74.6228 90.1149 74.33 89.7488 74.1103 89.578C73.8907 89.4071 73.3051 89.2607 72.7926 89.2607C72.1094 89.2607 71.6946 89.4315 71.2797 89.8708C70.6697 90.4809 70.6697 90.5297 70.6697 99.5106H67.1802C63.886 99.535 63.6908 99.4862 62.6171 98.4124L62.6659 90.969C62.7391 83.6476 62.7391 83.5012 63.3247 82.4274C63.642 81.8173 64.13 81.0119 64.4228 80.6459C64.7156 80.2554 65.4721 79.5721 66.1553 79.1084C67.0826 78.4739 68.2539 78.059 71.0357 77.3268C73.0367 76.7899 74.8424 76.3507 74.9888 76.3507H75.0132Z" fill="#5F56AF" fill-opacity="0.5"/>
<path d="M0.0732054 97.2115C0.0488036 98.8222 0 97.4068 0 94.0389C0 90.6711 0.0488036 89.3776 0.0732054 91.1104C0.122009 92.8431 0.122009 95.6008 0.0732054 97.2115Z" fill="#80BD81" fill-opacity="0.8"/>
<path d="M37.408 97.2115C37.3836 98.8222 37.3348 97.4068 37.3348 94.0389C37.3348 90.6711 37.3836 89.3776 37.408 91.1104C37.4568 92.8431 37.4568 95.6008 37.408 97.2115Z" fill="#80BD81" fill-opacity="0.8"/>
<path d="M62.5418 97.2115C62.5174 98.8222 62.4686 97.4068 62.4686 94.0389C62.4686 90.6711 62.5174 89.3776 62.5418 91.1104C62.5906 92.8431 62.5906 95.6008 62.5418 97.2115Z" fill="#80BD81" fill-opacity="0.8"/>
<path d="M99.8766 97.2115C99.8522 98.8222 99.8034 97.4068 99.8034 94.0389C99.8034 90.6711 99.8522 89.3776 99.8766 91.1104C99.9254 92.8431 99.9254 95.6008 99.8766 97.2115Z" fill="#80BD81" fill-opacity="0.8"/>
<path d="M6.85691 102.141C6.05165 102.19 4.61194 102.19 3.68467 102.141C2.733 102.092 3.39185 102.068 5.14878 102.068C6.88131 102.068 7.66217 102.092 6.85691 102.141Z" fill="#80BD81" fill-opacity="0.8"/>
<path d="M21.864 102.141C20.1803 102.19 17.3741 102.19 15.6416 102.141C13.8846 102.117 15.2755 102.068 18.6918 102.068C22.108 102.068 23.5478 102.117 21.864 102.141Z" fill="#80BD81" fill-opacity="0.8"/>
<path d="M33.9429 102.141C33.1377 102.19 31.698 102.19 30.7707 102.141C29.819 102.092 30.4779 102.068 32.2348 102.068C33.9673 102.068 34.7482 102.092 33.9429 102.141Z" fill="#80BD81" fill-opacity="0.8"/>
<path d="M69.3256 102.141C68.5203 102.19 67.0806 102.19 66.1533 102.141C65.2016 102.092 65.8605 102.068 67.6174 102.068C69.35 102.068 70.1308 102.092 69.3256 102.141Z" fill="#80BD81" fill-opacity="0.8"/>
<path d="M84.3327 102.141C82.6489 102.19 79.8427 102.19 78.1102 102.141C76.3533 102.117 77.7442 102.068 81.1604 102.068C84.5767 102.068 86.0164 102.117 84.3327 102.141Z" fill="#80BD81" fill-opacity="0.8"/>
<path d="M96.4116 102.141C95.6063 102.19 94.1666 102.19 93.2393 102.141C92.2877 102.092 92.9465 102.068 94.7034 102.068C96.436 102.068 97.2168 102.092 96.4116 102.141Z" fill="#80BD81" fill-opacity="0.8"/>
<path d="M12.5185 100.14C12.4941 101.214 12.4453 100.237 12.4453 97.9434C12.4453 95.6494 12.4941 94.7952 12.5185 95.9911C12.5673 97.1869 12.5673 99.066 12.5185 100.14Z" fill="#80BD81" fill-opacity="0.6"/>
<path d="M24.9634 100.14C24.939 101.214 24.8902 100.237 24.8902 97.9434C24.8902 95.6494 24.939 94.7952 24.9634 95.9911C25.0122 97.1869 25.0122 99.066 24.9634 100.14Z" fill="#80BD81" fill-opacity="0.6"/>
<path d="M74.9872 100.14C74.9628 101.214 74.914 100.237 74.914 97.9434C74.914 95.6494 74.9628 94.7952 74.9872 95.9911C75.036 97.1869 75.036 99.066 74.9872 100.14Z" fill="#80BD81" fill-opacity="0.6"/>
<path d="M87.4321 100.14C87.4077 101.214 87.3589 100.237 87.3589 97.9434C87.3589 95.6494 87.4077 94.7952 87.4321 95.9911C87.4809 97.1869 87.4809 99.066 87.4321 100.14Z" fill="#80BD81" fill-opacity="0.6"/>
<path d="M8.37008 99.8963C8.34568 101.092 8.29688 100.165 8.29688 97.8219C8.29688 95.4791 8.34568 94.4785 8.37008 95.6255C8.41888 96.7725 8.41888 98.7005 8.37008 99.8963Z" fill="#80BD81" fill-opacity="0.3"/>
<path d="M29.1116 99.8963C29.0872 101.092 29.0384 100.165 29.0384 97.8219C29.0384 95.4791 29.0872 94.4785 29.1116 95.6255C29.1604 96.7725 29.1604 98.7005 29.1116 99.8963Z" fill="#80BD81" fill-opacity="0.3"/>
<path d="M70.8387 99.8963C70.8143 101.092 70.7655 100.165 70.7655 97.8219C70.7655 95.4791 70.8143 94.4785 70.8387 95.6255C70.8875 96.7725 70.8875 98.7005 70.8387 99.8963Z" fill="#80BD81" fill-opacity="0.3"/>
<path d="M91.5803 99.8963C91.5559 101.092 91.5071 100.165 91.5071 97.8219C91.5071 95.4791 91.5559 94.4785 91.5803 95.6255C91.6291 96.7725 91.6291 98.7005 91.5803 99.8963Z" fill="#80BD81" fill-opacity="0.3"/>
<path d="M47.9013 52.4886C47.8769 54.1725 47.8281 52.9035 47.8281 49.6821C47.8281 46.4607 47.8769 45.094 47.9013 46.6315C47.9501 48.169 47.9501 50.8047 47.9013 52.4886Z" fill="#80BD81" fill-opacity="0.741176"/>
<path d="M52.0496 52.4886C52.0252 54.1725 51.9764 52.9035 51.9764 49.6821C51.9764 46.4607 52.0252 45.094 52.0496 46.6315C52.0984 48.169 52.0984 50.8047 52.0496 52.4886Z" fill="#80BD81" fill-opacity="0.741176"/>
<path d="M13.5686 40.3178C14.3006 39.9518 15.5695 39.5125 16.3748 39.3417C17.18 39.1464 18.1561 39 18.5709 39C18.9858 39 20.0106 39.122 20.8891 39.3173C21.7676 39.4881 23.0853 39.9518 23.8173 40.3178C24.5494 40.7083 25.6963 41.5137 26.3307 42.1238C26.9896 42.7339 27.8436 43.7345 28.2097 44.3446C28.6001 44.9547 29.1613 46.1017 29.4297 46.9071C29.869 48.1029 29.9422 48.8107 29.869 50.8118C29.7958 52.9594 29.6982 53.4475 28.9905 54.9606C28.5269 55.9124 27.8192 57.1082 27.38 57.6451C26.9408 58.182 25.8915 59.085 25.013 59.6707C24.159 60.2564 22.7437 60.9398 21.8652 61.2082C20.9867 61.4767 19.5714 61.6719 18.693 61.6719C17.8145 61.6719 16.3992 61.4767 15.5207 61.2082C14.6422 60.9398 13.2757 60.3052 12.4705 59.7683C11.6652 59.2558 10.5915 58.3529 10.1035 57.7428C9.61547 57.157 8.85902 55.9124 8.39538 54.9606C7.68773 53.4475 7.59012 52.9594 7.51692 50.8118C7.44371 48.8107 7.51692 48.1029 7.95615 46.9071C8.22457 46.1017 8.78581 44.9547 9.17624 44.3446C9.54227 43.7345 10.3963 42.7339 11.0552 42.1238C11.6896 41.5137 12.8365 40.7083 13.5686 40.3178Z" fill="#5F56AF" fill-opacity="0.5"/>
<path d="M76.0372 40.3178C76.7693 39.9518 78.0382 39.5125 78.8434 39.3417C79.6487 39.1464 80.6492 39 81.0396 39C81.43 39 82.4793 39.122 83.3578 39.3173C84.2362 39.4881 85.5539 39.9518 86.286 40.3178C87.018 40.7083 88.1649 41.5137 88.7994 42.1238C89.4582 42.7339 90.3123 43.7345 90.6783 44.3446C91.0687 44.9547 91.63 46.1017 91.8984 46.9071C92.3376 48.1029 92.4108 48.8107 92.3376 50.8118C92.2644 52.9594 92.1668 53.4475 91.4592 54.9606C90.9955 55.9124 90.2879 57.1082 89.8486 57.6451C89.4094 58.182 88.3601 59.085 87.4817 59.6707C86.6276 60.2564 85.2123 60.9398 84.3338 61.2082C83.4554 61.4767 82.0401 61.6719 81.1616 61.6719C80.2831 61.6719 78.8678 61.4767 77.9894 61.2082C77.1109 60.9398 75.7444 60.3052 74.9391 59.7683C74.1339 59.2558 73.0602 58.3529 72.5722 57.7428C72.0841 57.157 71.3277 55.9124 70.864 54.9606C70.1564 53.4475 70.0588 52.9594 69.9856 50.8118C69.9124 48.8107 69.9856 48.1029 70.4248 46.9071C70.6932 46.1017 71.2545 44.9547 71.6449 44.3446C72.0109 43.7345 72.865 42.7339 73.5238 42.1238C74.1583 41.5137 75.3052 40.7083 76.0372 40.3178Z" fill="#5F56AF" fill-opacity="0.5"/>
</svg>
