<svg width="32" height="32" viewBox="0 0 32 32" fill="none" xmlns="http://www.w3.org/2000/svg">
<circle cx="15.7431" cy="15.7567" r="15.4696" fill="#5F56AF"/>
<path d="M16.6262 6.91699C16.6262 6.42878 16.2304 6.03301 15.7422 6.03301C15.254 6.03301 14.8582 6.42878 14.8582 6.91699H16.6262ZM15.1171 25.2216C15.4623 25.5668 16.022 25.5668 16.3673 25.2216L21.9929 19.596C22.3381 19.2508 22.3381 18.6911 21.9929 18.3459C21.6476 18.0007 21.0879 18.0007 20.7427 18.3459L15.7422 23.3464L10.7417 18.3459C10.3964 18.0007 9.83673 18.0007 9.49152 18.3459C9.14631 18.6911 9.14631 19.2508 9.49152 19.596L15.1171 25.2216ZM14.8582 6.91699L14.8582 24.5965H16.6262L16.6262 6.91699H14.8582Z" fill="white"/>
</svg>
