<svg width="38" height="38" viewBox="0 0 38 38" fill="none" xmlns="http://www.w3.org/2000/svg">
<rect width="38" height="38" fill="#373737"/>
<g clip-path="url(#clip0_0_1)">
<rect width="1440" height="6490" transform="translate(-372 -364)" fill="white"/>
<path d="M-304.864 -25.368C-302.128 -25.368 -299.704 -24.84 -297.592 -23.784C-295.48 -22.776 -293.848 -21.36 -292.696 -19.536C-291.496 -17.712 -290.896 -15.624 -290.896 -13.272V11.136C-290.896 11.376 -290.992 11.592 -291.184 11.784C-291.328 11.928 -291.52 12 -291.76 12H-298.384C-298.624 12 -298.84 11.928 -299.032 11.784C-299.176 11.592 -299.248 11.376 -299.248 11.136V9.336C-299.248 9.192 -299.296 9.096 -299.392 9.048C-299.488 9 -299.584 9.024 -299.68 9.12C-301.696 11.424 -304.6 12.576 -308.392 12.576C-311.56 12.576 -314.248 11.736 -316.456 10.056C-318.664 8.328 -319.768 5.544 -319.768 1.704C-319.768 -2.328 -318.496 -5.328 -315.952 -7.296C-313.36 -9.264 -309.808 -10.248 -305.296 -10.248H-299.608C-299.368 -10.248 -299.248 -10.368 -299.248 -10.608V-12.408C-299.248 -14.184 -299.752 -15.576 -300.76 -16.584C-301.72 -17.64 -303.064 -18.168 -304.792 -18.168C-306.184 -18.168 -307.336 -17.832 -308.248 -17.16C-309.112 -16.536 -309.664 -15.672 -309.904 -14.568C-310.048 -14.04 -310.384 -13.776 -310.912 -13.776L-317.896 -14.208C-318.136 -14.208 -318.352 -14.28 -318.544 -14.424C-318.688 -14.616 -318.736 -14.808 -318.688 -15C-318.4 -18.072 -316.984 -20.568 -314.44 -22.488C-311.848 -24.408 -308.656 -25.368 -304.864 -25.368ZM-306.232 5.808C-304.36 5.808 -302.728 5.28 -301.336 4.224C-299.944 3.12 -299.248 1.68 -299.248 -0.0960009V-3.84C-299.248 -4.08 -299.368 -4.2 -299.608 -4.2H-304.432C-306.544 -4.2 -308.224 -3.744 -309.472 -2.832C-310.672 -1.92 -311.272 -0.600001 -311.272 1.128C-311.272 2.664 -310.816 3.84 -309.904 4.656C-308.944 5.424 -307.72 5.808 -306.232 5.808ZM-268.537 -25.224C-267.193 -25.224 -266.017 -24.936 -265.009 -24.36C-264.625 -24.168 -264.481 -23.808 -264.577 -23.28L-265.801 -16.728C-265.849 -16.152 -266.185 -15.984 -266.809 -16.224C-267.433 -16.464 -268.153 -16.584 -268.969 -16.584C-269.305 -16.584 -269.809 -16.536 -270.481 -16.44C-272.113 -16.296 -273.481 -15.552 -274.585 -14.208C-275.641 -12.864 -276.169 -11.184 -276.169 -9.168V11.136C-276.169 11.376 -276.265 11.592 -276.457 11.784C-276.601 11.928 -276.793 12 -277.033 12H-283.657C-283.897 12 -284.113 11.928 -284.305 11.784C-284.449 11.592 -284.521 11.376 -284.521 11.136V-23.928C-284.521 -24.168 -284.449 -24.36 -284.305 -24.504C-284.113 -24.696 -283.897 -24.792 -283.657 -24.792H-277.033C-276.793 -24.792 -276.601 -24.696 -276.457 -24.504C-276.265 -24.36 -276.169 -24.168 -276.169 -23.928V-20.832C-276.169 -20.64 -276.145 -20.52 -276.097 -20.472C-276.001 -20.472 -275.905 -20.544 -275.809 -20.688C-274.081 -23.712 -271.657 -25.224 -268.537 -25.224ZM-233.114 -12.552C-232.97 -10.968 -232.898 -9.144 -232.898 -7.08L-232.97 -3.984C-232.97 -3.408 -233.258 -3.12 -233.834 -3.12H-253.13C-253.37 -3.12 -253.49 -3 -253.49 -2.76C-253.394 -1.416 -253.298 -0.432 -253.202 0.192C-252.962 1.776 -252.29 3.048 -251.186 4.008C-250.082 4.968 -248.69 5.448 -247.01 5.448C-245.57 5.4 -244.37 5.04 -243.41 4.368C-242.402 3.696 -241.634 2.76 -241.106 1.56C-240.866 1.032 -240.506 0.84 -240.026 0.983999L-234.122 2.208C-233.546 2.4 -233.354 2.76 -233.546 3.288C-234.506 6.264 -236.162 8.568 -238.514 10.2C-240.818 11.784 -243.65 12.576 -247.01 12.576C-250.994 12.576 -254.186 11.616 -256.586 9.696C-258.986 7.776 -260.546 5.112 -261.266 1.704C-261.506 0.408 -261.674 -0.96 -261.77 -2.4C-261.818 -3.84 -261.842 -5.76 -261.842 -8.16C-261.842 -10.656 -261.722 -12.552 -261.482 -13.848C-261.002 -17.352 -259.514 -20.136 -257.018 -22.2C-254.522 -24.312 -251.354 -25.368 -247.514 -25.368C-243.338 -25.368 -239.978 -24.192 -237.434 -21.84C-234.842 -19.488 -233.402 -16.392 -233.114 -12.552ZM-247.442 -18.168C-249.026 -18.168 -250.346 -17.688 -251.402 -16.728C-252.41 -15.816 -253.034 -14.568 -253.274 -12.984C-253.418 -11.928 -253.49 -10.728 -253.49 -9.384C-253.49 -9.144 -253.37 -9.024 -253.13 -9.024H-241.682C-241.442 -9.024 -241.322 -9.144 -241.322 -9.384C-241.418 -11.016 -241.514 -12.192 -241.61 -12.912C-241.802 -14.496 -242.426 -15.768 -243.482 -16.728C-244.538 -17.688 -245.858 -18.168 -247.442 -18.168ZM-199.521 12.576C-203.409 12.576 -206.601 11.544 -209.097 9.48C-211.593 7.368 -213.105 4.536 -213.633 0.983999C-214.017 -1.32 -214.209 -3.792 -214.209 -6.432C-214.209 -9.168 -214.017 -11.688 -213.633 -13.992C-213.105 -17.496 -211.569 -20.256 -209.025 -22.272C-206.481 -24.336 -203.289 -25.368 -199.449 -25.368C-195.657 -25.368 -192.513 -24.336 -190.017 -22.272C-187.521 -20.256 -186.009 -17.52 -185.481 -14.064C-185.097 -11.664 -184.905 -9.144 -184.905 -6.504C-184.905 -3.624 -185.073 -1.152 -185.409 0.911999C-185.937 4.512 -187.449 7.368 -189.945 9.48C-192.441 11.544 -195.633 12.576 -199.521 12.576ZM-199.521 5.376C-197.937 5.376 -196.617 4.848 -195.561 3.792C-194.457 2.736 -193.785 1.344 -193.545 -0.384C-193.353 -2.88 -193.257 -4.896 -193.257 -6.432C-193.257 -8.016 -193.353 -10.056 -193.545 -12.552C-193.785 -14.28 -194.457 -15.648 -195.561 -16.656C-196.617 -17.664 -197.937 -18.168 -199.521 -18.168C-201.153 -18.168 -202.497 -17.664 -203.553 -16.656C-204.609 -15.648 -205.257 -14.28 -205.497 -12.552C-205.689 -10.872 -205.785 -8.832 -205.785 -6.432C-205.785 -3.984 -205.689 -1.968 -205.497 -0.384C-205.257 1.344 -204.609 2.736 -203.553 3.792C-202.497 4.848 -201.153 5.376 -199.521 5.376ZM-159.544 -23.928C-159.544 -24.168 -159.472 -24.36 -159.328 -24.504C-159.136 -24.696 -158.92 -24.792 -158.68 -24.792H-152.056C-151.816 -24.792 -151.624 -24.696 -151.48 -24.504C-151.288 -24.36 -151.192 -24.168 -151.192 -23.928V11.136C-151.192 11.376 -151.288 11.592 -151.48 11.784C-151.624 11.928 -151.816 12 -152.056 12H-158.68C-158.92 12 -159.136 11.928 -159.328 11.784C-159.472 11.592 -159.544 11.376 -159.544 11.136V9.192C-159.544 9.048 -159.592 8.976 -159.688 8.976C-159.784 8.928 -159.88 8.976 -159.976 9.12C-161.608 11.376 -164.176 12.504 -167.68 12.504C-170.944 12.504 -173.656 11.544 -175.816 9.624C-177.976 7.656 -179.056 4.8 -179.056 1.056V-23.928C-179.056 -24.168 -178.984 -24.36 -178.84 -24.504C-178.648 -24.696 -178.432 -24.792 -178.192 -24.792H-171.568C-171.328 -24.792 -171.136 -24.696 -170.992 -24.504C-170.8 -24.36 -170.704 -24.168 -170.704 -23.928V-1.032C-170.704 0.983999 -170.248 2.568 -169.336 3.72C-168.376 4.824 -167.008 5.376 -165.232 5.376C-163.456 5.376 -162.064 4.8 -161.056 3.648C-160.048 2.448 -159.544 0.84 -159.544 -1.176V-23.928ZM-128.278 -25.224C-126.934 -25.224 -125.758 -24.936 -124.75 -24.36C-124.366 -24.168 -124.222 -23.808 -124.318 -23.28L-125.542 -16.728C-125.59 -16.152 -125.926 -15.984 -126.55 -16.224C-127.174 -16.464 -127.894 -16.584 -128.71 -16.584C-129.046 -16.584 -129.55 -16.536 -130.222 -16.44C-131.854 -16.296 -133.222 -15.552 -134.326 -14.208C-135.382 -12.864 -135.91 -11.184 -135.91 -9.168V11.136C-135.91 11.376 -136.006 11.592 -136.198 11.784C-136.342 11.928 -136.534 12 -136.774 12H-143.398C-143.638 12 -143.854 11.928 -144.046 11.784C-144.19 11.592 -144.262 11.376 -144.262 11.136V-23.928C-144.262 -24.168 -144.19 -24.36 -144.046 -24.504C-143.854 -24.696 -143.638 -24.792 -143.398 -24.792H-136.774C-136.534 -24.792 -136.342 -24.696 -136.198 -24.504C-136.006 -24.36 -135.91 -24.168 -135.91 -23.928V-20.832C-135.91 -20.64 -135.886 -20.52 -135.838 -20.472C-135.742 -20.472 -135.646 -20.544 -135.55 -20.688C-133.822 -23.712 -131.398 -25.224 -128.278 -25.224ZM-86.9504 -37.536C-86.9504 -37.776 -86.8784 -37.968 -86.7344 -38.112C-86.5424 -38.304 -86.3264 -38.4 -86.0864 -38.4H-79.4624C-79.2224 -38.4 -79.0304 -38.304 -78.8864 -38.112C-78.6944 -37.968 -78.5984 -37.776 -78.5984 -37.536V11.136C-78.5984 11.376 -78.6944 11.592 -78.8864 11.784C-79.0304 11.928 -79.2224 12 -79.4624 12H-86.0864C-86.3264 12 -86.5424 11.928 -86.7344 11.784C-86.8784 11.592 -86.9504 11.376 -86.9504 11.136V9.264C-86.9504 9.12 -86.9984 9.024 -87.0944 8.976C-87.1904 8.928 -87.2864 8.976 -87.3824 9.12C-89.2064 11.424 -91.8224 12.576 -95.2304 12.576C-101.086 12.576 -104.83 8.928 -106.462 1.632C-106.99 -0.576001 -107.254 -3.288 -107.254 -6.504C-107.254 -9.672 -107.038 -12.312 -106.606 -14.424C-105.118 -21.72 -101.254 -25.368 -95.0144 -25.368C-91.5584 -25.368 -89.0144 -24.264 -87.3824 -22.056C-87.2864 -21.912 -87.1904 -21.864 -87.0944 -21.912C-86.9984 -21.96 -86.9504 -22.056 -86.9504 -22.2V-37.536ZM-87.7424 0.84C-87.2624 -0.840001 -87.0224 -3.264 -87.0224 -6.432C-87.0224 -9.696 -87.2864 -12.168 -87.8144 -13.848C-88.5824 -16.728 -90.2144 -18.168 -92.7104 -18.168C-95.2544 -18.168 -97.0064 -16.752 -97.9664 -13.92C-98.5904 -12.096 -98.9024 -9.6 -98.9024 -6.432C-98.9024 -3.504 -98.6384 -1.104 -98.1104 0.768C-97.2464 3.84 -95.4704 5.376 -92.7824 5.376C-90.2384 5.376 -88.5584 3.864 -87.7424 0.84ZM-55.555 -25.224C-54.211 -25.224 -53.035 -24.936 -52.027 -24.36C-51.643 -24.168 -51.499 -23.808 -51.595 -23.28L-52.819 -16.728C-52.867 -16.152 -53.203 -15.984 -53.827 -16.224C-54.451 -16.464 -55.171 -16.584 -55.987 -16.584C-56.323 -16.584 -56.827 -16.536 -57.499 -16.44C-59.131 -16.296 -60.499 -15.552 -61.603 -14.208C-62.659 -12.864 -63.187 -11.184 -63.187 -9.168V11.136C-63.187 11.376 -63.283 11.592 -63.475 11.784C-63.619 11.928 -63.811 12 -64.051 12H-70.675C-70.915 12 -71.131 11.928 -71.323 11.784C-71.467 11.592 -71.539 11.376 -71.539 11.136V-23.928C-71.539 -24.168 -71.467 -24.36 -71.323 -24.504C-71.131 -24.696 -70.915 -24.792 -70.675 -24.792H-64.051C-63.811 -24.792 -63.619 -24.696 -63.475 -24.504C-63.283 -24.36 -63.187 -24.168 -63.187 -23.928V-20.832C-63.187 -20.64 -63.163 -20.52 -63.115 -20.472C-63.019 -20.472 -62.923 -20.544 -62.827 -20.688C-61.099 -23.712 -58.675 -25.224 -55.555 -25.224ZM-43.0416 -29.832C-44.5296 -29.832 -45.7536 -30.312 -46.7136 -31.272C-47.6256 -32.232 -48.0816 -33.456 -48.0816 -34.944C-48.0816 -36.432 -47.6256 -37.656 -46.7136 -38.616C-45.7536 -39.576 -44.5296 -40.056 -43.0416 -40.056C-41.5056 -40.056 -40.2816 -39.576 -39.3696 -38.616C-38.4096 -37.704 -37.9296 -36.48 -37.9296 -34.944C-37.9296 -33.456 -38.4096 -32.232 -39.3696 -31.272C-40.3296 -30.312 -41.5536 -29.832 -43.0416 -29.832ZM-46.3536 12C-46.5936 12 -46.8096 11.928 -47.0016 11.784C-47.1456 11.592 -47.2176 11.376 -47.2176 11.136V-24C-47.2176 -24.24 -47.1456 -24.432 -47.0016 -24.576C-46.8096 -24.768 -46.5936 -24.864 -46.3536 -24.864H-39.7296C-39.4896 -24.864 -39.2976 -24.768 -39.1536 -24.576C-38.9616 -24.432 -38.8656 -24.24 -38.8656 -24V11.136C-38.8656 11.376 -38.9616 11.592 -39.1536 11.784C-39.2976 11.928 -39.4896 12 -39.7296 12H-46.3536ZM-22.4243 12C-22.9523 12 -23.2883 11.76 -23.4323 11.28L-33.5123 -23.928L-33.5843 -24.216C-33.5843 -24.648 -33.3203 -24.864 -32.7923 -24.864H-25.5203C-25.0403 -24.864 -24.7283 -24.624 -24.5843 -24.144L-18.8963 -0.312C-18.8483 -0.120001 -18.7763 -0.0240008 -18.6803 -0.0240008C-18.5843 -0.0240008 -18.5123 -0.120001 -18.4643 -0.312L-12.8483 -24.072C-12.7043 -24.6 -12.3923 -24.864 -11.9123 -24.864L-4.56832 -24.72C-3.94432 -24.72 -3.70432 -24.408 -3.84832 -23.784L-13.9283 11.28C-14.0723 11.76 -14.4083 12 -14.9363 12H-22.4243ZM5.58086 -29.832C4.09286 -29.832 2.86886 -30.312 1.90886 -31.272C0.99686 -32.232 0.540861 -33.456 0.540861 -34.944C0.540861 -36.432 0.99686 -37.656 1.90886 -38.616C2.86886 -39.576 4.09286 -40.056 5.58086 -40.056C7.11686 -40.056 8.34086 -39.576 9.25286 -38.616C10.2129 -37.704 10.6929 -36.48 10.6929 -34.944C10.6929 -33.456 10.2129 -32.232 9.25286 -31.272C8.29286 -30.312 7.06886 -29.832 5.58086 -29.832ZM2.26886 12C2.02886 12 1.81286 11.928 1.62086 11.784C1.47686 11.592 1.40486 11.376 1.40486 11.136V-24C1.40486 -24.24 1.47686 -24.432 1.62086 -24.576C1.81286 -24.768 2.02886 -24.864 2.26886 -24.864H8.89286C9.13286 -24.864 9.32486 -24.768 9.46886 -24.576C9.66086 -24.432 9.75686 -24.24 9.75686 -24V11.136C9.75686 11.376 9.66086 11.592 9.46886 11.784C9.32486 11.928 9.13286 12 8.89286 12H2.26886ZM33.9742 -25.368C37.4782 -25.368 40.2142 -24.264 42.1822 -22.056C44.1502 -19.848 45.1342 -16.8 45.1342 -12.912V11.136C45.1342 11.376 45.0382 11.592 44.8462 11.784C44.7022 11.928 44.5102 12 44.2702 12H37.6462C37.4062 12 37.1902 11.928 36.9982 11.784C36.8542 11.592 36.7822 11.376 36.7822 11.136V-11.76C36.7822 -13.728 36.2782 -15.288 35.2702 -16.44C34.3102 -17.592 32.9902 -18.168 31.3102 -18.168C29.5822 -18.168 28.1902 -17.568 27.1342 -16.368C26.1262 -15.216 25.6222 -13.656 25.6222 -11.688V11.136C25.6222 11.376 25.5262 11.592 25.3342 11.784C25.1902 11.928 24.9982 12 24.7582 12H18.1342C17.8942 12 17.6782 11.928 17.4862 11.784C17.3422 11.592 17.2702 11.376 17.2702 11.136V-23.928C17.2702 -24.168 17.3422 -24.36 17.4862 -24.504C17.6782 -24.696 17.8942 -24.792 18.1342 -24.792H24.7582C24.9982 -24.792 25.1902 -24.696 25.3342 -24.504C25.5262 -24.36 25.6222 -24.168 25.6222 -23.928V-22.056C25.6222 -21.912 25.6702 -21.816 25.7662 -21.768C25.8622 -21.72 25.9582 -21.768 26.0542 -21.912C27.9742 -24.216 30.6142 -25.368 33.9742 -25.368ZM71.4294 -23.928C71.4294 -24.168 71.5014 -24.36 71.6454 -24.504C71.8374 -24.696 72.0534 -24.792 72.2934 -24.792H78.9174C79.1574 -24.792 79.3494 -24.696 79.4934 -24.504C79.6854 -24.36 79.7814 -24.168 79.7814 -23.928V10.056C79.7814 15.624 78.2694 19.752 75.2454 22.44C72.2214 25.176 67.8534 26.544 62.1414 26.544C61.4694 26.544 60.4134 26.496 58.9734 26.4C58.3974 26.352 58.1094 26.04 58.1094 25.464L58.3254 19.704C58.3254 19.128 58.6374 18.864 59.2614 18.912C59.7414 18.96 60.4614 18.984 61.4214 18.984C65.0214 18.984 67.5894 18.24 69.1254 16.752C70.6614 15.264 71.4294 12.864 71.4294 9.552V8.904C71.4294 8.76 71.3814 8.664 71.2854 8.616C71.1894 8.568 71.0934 8.616 70.9974 8.76C69.1734 10.872 66.6534 11.928 63.4374 11.928C60.3174 11.928 57.6774 11.016 55.5174 9.192C53.3574 7.32 52.0134 4.68 51.4854 1.272C51.1974 -0.168 51.0534 -2.76 51.0534 -6.504C51.0534 -10.488 51.2454 -13.224 51.6294 -14.712C52.1094 -17.976 53.3574 -20.568 55.3734 -22.488C57.3894 -24.408 59.9814 -25.368 63.1494 -25.368C66.4614 -25.368 69.0774 -24.288 70.9974 -22.128C71.0934 -22.032 71.1894 -21.984 71.2854 -21.984C71.3814 -22.032 71.4294 -22.128 71.4294 -22.272V-23.928ZM71.2134 -0.24C71.3574 -2.064 71.4294 -4.152 71.4294 -6.504C71.4294 -9.24 71.3334 -11.4 71.1414 -12.984C70.9494 -14.52 70.3494 -15.768 69.3414 -16.728C68.3334 -17.688 67.0614 -18.168 65.5254 -18.168C63.9894 -18.168 62.7174 -17.688 61.7094 -16.728C60.7014 -15.768 60.0774 -14.52 59.8374 -12.984C59.5494 -11.208 59.4054 -9.048 59.4054 -6.504C59.4054 -4.152 59.5254 -2.064 59.7654 -0.24C60.0054 1.296 60.6534 2.544 61.7094 3.504C62.7654 4.464 64.0614 4.944 65.5974 4.944C67.1814 4.944 68.4534 4.464 69.4134 3.504C70.4214 2.544 71.0214 1.296 71.2134 -0.24ZM117.252 -24.792C117.492 -24.792 117.684 -24.696 117.828 -24.504C118.02 -24.36 118.116 -24.168 118.116 -23.928V-19.032C118.116 -18.792 118.02 -18.576 117.828 -18.384C117.684 -18.24 117.492 -18.168 117.252 -18.168H111.42C111.18 -18.168 111.06 -18.048 111.06 -17.808V11.136C111.06 11.376 110.964 11.592 110.772 11.784C110.628 11.928 110.436 12 110.196 12H103.644C103.404 12 103.188 11.928 102.996 11.784C102.852 11.592 102.78 11.376 102.78 11.136V-17.808C102.78 -18.048 102.66 -18.168 102.42 -18.168H98.9643C98.7243 -18.168 98.5083 -18.24 98.3163 -18.384C98.1723 -18.576 98.1003 -18.792 98.1003 -19.032V-23.928C98.1003 -24.168 98.1723 -24.36 98.3163 -24.504C98.5083 -24.696 98.7243 -24.792 98.9643 -24.792H102.42C102.66 -24.792 102.78 -24.912 102.78 -25.152V-26.736C102.78 -29.76 103.188 -32.112 104.004 -33.792C104.868 -35.52 106.212 -36.744 108.036 -37.464C109.908 -38.232 112.404 -38.592 115.524 -38.544H117.036C117.276 -38.544 117.468 -38.448 117.612 -38.256C117.804 -38.112 117.9 -37.92 117.9 -37.68V-32.712C117.9 -32.472 117.804 -32.256 117.612 -32.064C117.468 -31.92 117.276 -31.848 117.036 -31.848H115.884C114.108 -31.8 112.86 -31.344 112.14 -30.48C111.42 -29.664 111.06 -28.248 111.06 -26.232V-25.152C111.06 -24.912 111.18 -24.792 111.42 -24.792H117.252ZM135.931 12.576C132.043 12.576 128.851 11.544 126.355 9.48C123.859 7.368 122.347 4.536 121.819 0.983999C121.435 -1.32 121.243 -3.792 121.243 -6.432C121.243 -9.168 121.435 -11.688 121.819 -13.992C122.347 -17.496 123.883 -20.256 126.427 -22.272C128.971 -24.336 132.163 -25.368 136.003 -25.368C139.795 -25.368 142.939 -24.336 145.435 -22.272C147.931 -20.256 149.443 -17.52 149.971 -14.064C150.355 -11.664 150.547 -9.144 150.547 -6.504C150.547 -3.624 150.379 -1.152 150.043 0.911999C149.515 4.512 148.003 7.368 145.507 9.48C143.011 11.544 139.819 12.576 135.931 12.576ZM135.931 5.376C137.515 5.376 138.835 4.848 139.891 3.792C140.995 2.736 141.667 1.344 141.907 -0.384C142.099 -2.88 142.195 -4.896 142.195 -6.432C142.195 -8.016 142.099 -10.056 141.907 -12.552C141.667 -14.28 140.995 -15.648 139.891 -16.656C138.835 -17.664 137.515 -18.168 135.931 -18.168C134.299 -18.168 132.955 -17.664 131.899 -16.656C130.843 -15.648 130.195 -14.28 129.955 -12.552C129.763 -10.872 129.667 -8.832 129.667 -6.432C129.667 -3.984 129.763 -1.968 129.955 -0.384C130.195 1.344 130.843 2.736 131.899 3.792C132.955 4.848 134.299 5.376 135.931 5.376ZM172.668 -25.224C174.012 -25.224 175.188 -24.936 176.196 -24.36C176.58 -24.168 176.724 -23.808 176.628 -23.28L175.404 -16.728C175.356 -16.152 175.02 -15.984 174.396 -16.224C173.772 -16.464 173.052 -16.584 172.236 -16.584C171.9 -16.584 171.396 -16.536 170.724 -16.44C169.092 -16.296 167.724 -15.552 166.62 -14.208C165.564 -12.864 165.036 -11.184 165.036 -9.168V11.136C165.036 11.376 164.94 11.592 164.748 11.784C164.604 11.928 164.412 12 164.172 12H157.548C157.308 12 157.092 11.928 156.9 11.784C156.756 11.592 156.684 11.376 156.684 11.136V-23.928C156.684 -24.168 156.756 -24.36 156.9 -24.504C157.092 -24.696 157.308 -24.792 157.548 -24.792H164.172C164.412 -24.792 164.604 -24.696 164.748 -24.504C164.94 -24.36 165.036 -24.168 165.036 -23.928V-20.832C165.036 -20.64 165.06 -20.52 165.108 -20.472C165.204 -20.472 165.3 -20.544 165.396 -20.688C167.124 -23.712 169.548 -25.224 172.668 -25.224ZM193.907 12.576C190.019 12.576 186.827 11.592 184.331 9.624C181.883 7.608 180.395 4.872 179.867 1.416C179.483 -0.552 179.291 -3.192 179.291 -6.504C179.291 -9.528 179.483 -12.144 179.867 -14.352C180.395 -17.712 181.907 -20.376 184.403 -22.344C186.899 -24.36 190.067 -25.368 193.907 -25.368C197.603 -25.368 200.723 -24.408 203.267 -22.488C205.811 -20.616 207.347 -18.144 207.875 -15.072C207.923 -14.88 207.971 -14.64 208.019 -14.352C208.067 -14.064 208.091 -13.704 208.091 -13.272V-13.128C208.091 -12.696 207.827 -12.432 207.299 -12.336L200.747 -11.688H200.603C200.171 -11.688 199.907 -11.952 199.811 -12.48C199.811 -12.816 199.763 -13.176 199.667 -13.56C199.427 -14.856 198.779 -15.936 197.723 -16.8C196.715 -17.712 195.419 -18.168 193.835 -18.168C192.251 -18.168 190.931 -17.688 189.875 -16.728C188.867 -15.768 188.243 -14.496 188.003 -12.912C187.763 -11.088 187.643 -8.928 187.643 -6.432C187.643 -3.696 187.787 -1.488 188.075 0.192C188.315 1.776 188.939 3.048 189.947 4.008C190.955 4.92 192.251 5.376 193.835 5.376C195.467 5.376 196.787 4.92 197.795 4.008C198.851 3.048 199.475 1.896 199.667 0.551999L199.739 -0.168001C199.787 -0.408001 199.907 -0.600001 200.099 -0.744C200.291 -0.936 200.507 -1.008 200.747 -0.960001L207.227 -0.384C207.803 -0.288 208.091 0.0239997 208.091 0.551999L207.947 1.776C207.515 5.04 206.027 7.656 203.483 9.624C200.939 11.592 197.747 12.576 193.907 12.576ZM241.473 -12.552C241.617 -10.968 241.689 -9.144 241.689 -7.08L241.617 -3.984C241.617 -3.408 241.329 -3.12 240.753 -3.12H221.457C221.217 -3.12 221.097 -3 221.097 -2.76C221.193 -1.416 221.289 -0.432 221.385 0.192C221.625 1.776 222.297 3.048 223.401 4.008C224.505 4.968 225.897 5.448 227.577 5.448C229.017 5.4 230.217 5.04 231.177 4.368C232.185 3.696 232.953 2.76 233.481 1.56C233.721 1.032 234.081 0.84 234.561 0.983999L240.465 2.208C241.041 2.4 241.233 2.76 241.041 3.288C240.081 6.264 238.425 8.568 236.073 10.2C233.769 11.784 230.937 12.576 227.577 12.576C223.593 12.576 220.401 11.616 218.001 9.696C215.601 7.776 214.041 5.112 213.321 1.704C213.081 0.408 212.913 -0.96 212.817 -2.4C212.769 -3.84 212.745 -5.76 212.745 -8.16C212.745 -10.656 212.865 -12.552 213.105 -13.848C213.585 -17.352 215.073 -20.136 217.569 -22.2C220.065 -24.312 223.233 -25.368 227.073 -25.368C231.249 -25.368 234.609 -24.192 237.153 -21.84C239.745 -19.488 241.185 -16.392 241.473 -12.552ZM227.145 -18.168C225.561 -18.168 224.241 -17.688 223.185 -16.728C222.177 -15.816 221.553 -14.568 221.313 -12.984C221.169 -11.928 221.097 -10.728 221.097 -9.384C221.097 -9.144 221.217 -9.024 221.457 -9.024H232.905C233.145 -9.024 233.265 -9.144 233.265 -9.384C233.169 -11.016 233.073 -12.192 232.977 -12.912C232.785 -14.496 232.161 -15.768 231.105 -16.728C230.049 -17.688 228.729 -18.168 227.145 -18.168ZM259.794 12.432C255.618 12.432 252.282 11.496 249.786 9.624C247.29 7.752 246.042 5.304 246.042 2.28V1.704C246.042 1.464 246.114 1.272 246.258 1.128C246.45 0.936 246.666 0.84 246.906 0.84H253.17C253.41 0.84 253.602 0.936 253.746 1.128C253.938 1.272 254.034 1.464 254.034 1.704V1.92C254.034 3.072 254.586 4.08 255.69 4.944C256.794 5.76 258.162 6.168 259.794 6.168C261.378 6.168 262.65 5.784 263.61 5.016C264.618 4.248 265.122 3.288 265.122 2.136C265.122 0.983999 264.618 0.0959991 263.61 -0.528001C262.65 -1.152 261.138 -1.824 259.074 -2.544L257.202 -3.192C253.938 -4.248 251.322 -5.568 249.354 -7.152C247.386 -8.784 246.402 -11.184 246.402 -14.352C246.402 -17.712 247.602 -20.352 250.002 -22.272C252.402 -24.24 255.57 -25.224 259.506 -25.224C263.586 -25.224 266.826 -24.216 269.226 -22.2C271.674 -20.232 272.898 -17.592 272.898 -14.28V-14.208C272.898 -13.968 272.802 -13.752 272.61 -13.56C272.466 -13.416 272.274 -13.344 272.034 -13.344H265.986C265.746 -13.344 265.53 -13.416 265.338 -13.56C265.194 -13.752 265.122 -13.968 265.122 -14.208V-14.496C265.122 -15.696 264.618 -16.68 263.61 -17.448C262.602 -18.264 261.282 -18.672 259.65 -18.672C258.066 -18.672 256.794 -18.288 255.834 -17.52C254.874 -16.8 254.394 -15.864 254.394 -14.712C254.394 -13.8 254.73 -13.032 255.402 -12.408C256.074 -11.832 256.818 -11.376 257.634 -11.04C258.498 -10.704 259.986 -10.176 262.098 -9.456C264.354 -8.688 266.25 -7.896 267.786 -7.08C269.37 -6.264 270.714 -5.136 271.818 -3.696C272.922 -2.256 273.474 -0.432001 273.474 1.776C273.474 5.088 272.226 7.704 269.73 9.624C267.282 11.496 263.97 12.432 259.794 12.432Z" fill="#212121"/>
<g filter="url(#filter0_d_0_1)">
<rect x="-372" y="-286" width="1440" height="429" fill="white"/>
</g>
<circle cx="19" cy="19" r="19" fill="#5F56AF" fill-opacity="0.4"/>
<path d="M23.5 12H14.5C11.8 12 10 13.2353 10 16.1176V21.8824C10 24.7647 11.8 26 14.5 26H23.5C26.2 26 28 24.7647 28 21.8824V16.1176C28 13.2353 26.2 12 23.5 12ZM23.923 17.0153L21.106 19.0741C20.512 19.5106 19.756 19.7247 19 19.7247C18.244 19.7247 17.479 19.5106 16.894 19.0741L14.077 17.0153C13.789 16.8012 13.744 16.4059 13.969 16.1424C14.203 15.8788 14.626 15.8294 14.914 16.0435L17.731 18.1024C18.415 18.6047 19.576 18.6047 20.26 18.1024L23.077 16.0435C23.365 15.8294 23.797 15.8706 24.022 16.1424C24.256 16.4059 24.211 16.8012 23.923 17.0153Z" fill="#212121"/>
</g>
<defs>
<filter id="filter0_d_0_1" x="-376" y="-288" width="1448" height="437" filterUnits="userSpaceOnUse" color-interpolation-filters="sRGB">
<feFlood flood-opacity="0" result="BackgroundImageFix"/>
<feColorMatrix in="SourceAlpha" type="matrix" values="0 0 0 0 0 0 0 0 0 0 0 0 0 0 0 0 0 0 127 0" result="hardAlpha"/>
<feOffset dy="2"/>
<feGaussianBlur stdDeviation="2"/>
<feComposite in2="hardAlpha" operator="out"/>
<feColorMatrix type="matrix" values="0 0 0 0 0 0 0 0 0 0 0 0 0 0 0 0 0 0 0.25 0"/>
<feBlend mode="normal" in2="BackgroundImageFix" result="effect1_dropShadow_0_1"/>
<feBlend mode="normal" in="SourceGraphic" in2="effect1_dropShadow_0_1" result="shape"/>
</filter>
<clipPath id="clip0_0_1">
<rect width="1440" height="6490" fill="white" transform="translate(-372 -364)"/>
</clipPath>
</defs>
</svg>
