<svg width="5" height="5" viewBox="0 0 5 5" fill="none" xmlns="http://www.w3.org/2000/svg">
<path d="M2.56122 4.272C2.48122 4.272 2.44122 4.232 2.44122 4.152L2.45322 2.712C2.45322 2.664 2.43322 2.652 2.39322 2.676L1.13322 3.42L1.07322 3.444C1.03322 3.444 0.997219 3.42 0.965219 3.372L0.821219 3.096C0.805219 3.064 0.797219 3.04 0.797219 3.024C0.797219 2.984 0.817219 2.952 0.857219 2.928L2.12922 2.196C2.14522 2.188 2.15322 2.176 2.15322 2.16C2.15322 2.144 2.14522 2.132 2.12922 2.124L0.857219 1.392C0.825219 1.376 0.805219 1.352 0.797219 1.32C0.797219 1.288 0.805219 1.256 0.821219 1.224L0.965219 0.935999C1.00522 0.855999 1.06122 0.839999 1.13322 0.887999L2.39322 1.644C2.43322 1.66 2.45322 1.648 2.45322 1.608L2.44122 0.155999C2.44122 0.0759995 2.48122 0.0359995 2.56122 0.0359995H2.88522C2.96522 0.0359995 3.00522 0.0759995 3.00522 0.155999L2.99322 1.608C2.99322 1.648 3.01322 1.66 3.05322 1.644L4.31322 0.887999C4.34522 0.872 4.36922 0.864 4.38522 0.864C4.42522 0.864 4.45722 0.888 4.48122 0.935999L4.63722 1.224C4.64522 1.24 4.64922 1.26 4.64922 1.284C4.64922 1.332 4.62922 1.368 4.58922 1.392L3.31722 2.124C3.30922 2.132 3.30522 2.144 3.30522 2.16C3.30522 2.176 3.30922 2.188 3.31722 2.196L4.58922 2.928C4.62122 2.944 4.63722 2.968 4.63722 3C4.64522 3.032 4.64122 3.064 4.62522 3.096L4.48122 3.384C4.44122 3.464 4.38522 3.48 4.31322 3.432L3.05322 2.676C3.01322 2.652 2.99322 2.664 2.99322 2.712L3.00522 4.152C3.00522 4.232 2.96522 4.272 2.88522 4.272H2.56122Z" fill="#6F767D"/>
</svg>
