<svg width="16" height="16" viewBox="0 0 16 16" fill="none" xmlns="http://www.w3.org/2000/svg">
<path d="M8 0C12.4182 0 16 3.48015 16 7.77313C16 12.0661 12.4182 15.5463 8 15.5463C3.58172 15.5463 0 12.0661 0 7.77313C0 3.48015 3.58172 0 8 0ZM8 1.16597C4.24446 1.16597 1.2 4.1241 1.2 7.77313C1.2 11.4222 4.24446 14.3803 8 14.3803C11.7555 14.3803 14.8 11.4222 14.8 7.77313C14.8 4.1241 11.7555 1.16597 8 1.16597ZM7 8.89192L10.5758 5.41762C10.8101 5.18995 11.1899 5.18995 11.4242 5.41762C11.6373 5.62459 11.6566 5.94847 11.4823 6.17669L11.4242 6.24206L7.42424 10.1286C7.21128 10.3356 6.87792 10.3544 6.64304 10.1851L6.57576 10.1286L4.57574 8.18534C4.34142 7.95767 4.34142 7.5886 4.57574 7.36092C4.78875 7.15392 5.12208 7.13511 5.35697 7.30449L5.42426 7.36092L7 8.89192Z" fill="white"/>
</svg>
