<svg width="32" height="32" viewBox="0 0 32 32" fill="none" xmlns="http://www.w3.org/2000/svg">
<path fill-rule="evenodd" clip-rule="evenodd" d="M1.30301 0.0713084C0.924484 0.194416 0.568505 0.412309 0.380033 0.636329C-0.0224259 1.11476 -0.000427106 0.513472 0.000469393 11.0371C0.00122797 20.6337 0.00212456 20.6962 0.14253 20.9844C0.329347 21.3679 0.647397 21.6628 1.06979 21.8441C1.3977 21.9849 1.48445 21.9922 2.84196 21.9928L4.26939 21.9934L4.29263 25.6666C4.31835 29.7252 4.30704 29.6153 4.77784 30.3671C5.2503 31.1216 6.26762 31.7774 7.20281 31.9302C7.77374 32.0235 24.2293 32.0231 24.7971 31.9298C25.8053 31.7641 26.8317 31.0704 27.2934 30.2427C27.7057 29.5033 27.7208 29.3347 27.7222 25.479L27.7234 21.9934L29.1543 21.9928C30.5156 21.9922 30.6021 21.9849 30.9301 21.8441C31.3525 21.6628 31.6705 21.3679 31.8574 20.9844C31.9978 20.6962 31.9987 20.6337 31.9994 11.0371C32.0003 0.445509 32.0266 1.11576 31.5912 0.617322C31.4797 0.489713 31.2233 0.302331 31.0214 0.200919L30.6543 0.0165382L16.1034 0.00334587C4.32332 -0.00734557 1.505 0.0055967 1.30301 0.0713084ZM1.30784 0.876418C1.18102 0.953946 1.01351 1.11569 0.935587 1.23593C0.802905 1.44075 0.79394 1.55348 0.79394 3.01764V4.58072L11.6381 4.59654L22.4823 4.61236V2.67396V0.735553H12.0104H1.53845L1.30784 0.876418ZM23.3099 2.67427V4.61298L27.2579 4.59685L31.206 4.58072V3.01764C31.206 1.55348 31.197 1.44075 31.0643 1.23593C30.9864 1.11569 30.8189 0.953946 30.6921 0.876418L30.4614 0.735553H26.8857H23.3099V2.67427ZM26.4396 1.35534C26.1008 1.49483 25.8337 1.79501 25.7281 2.15508C25.4913 2.96194 26.336 3.74816 27.2389 3.56134C27.5351 3.50007 27.5579 3.50589 27.8022 3.70602C28.249 4.07197 28.382 4.13112 28.5636 4.04433C28.9317 3.86852 28.912 3.68583 28.4803 3.27199C28.1645 2.96931 28.1401 2.92499 28.2045 2.77149C28.4327 2.22723 28.1254 1.62432 27.482 1.35428C27.1312 1.20698 26.7991 1.20735 26.4396 1.35534ZM2.59183 1.64658C2.50308 1.72711 2.4835 1.91274 2.4835 2.67471C2.4835 3.85076 2.42812 3.79918 3.69032 3.79918C4.9519 3.79918 4.89715 3.84995 4.89715 2.67989C4.89715 1.48545 4.96521 1.54835 3.6726 1.54835C2.88058 1.54835 2.68011 1.56655 2.59183 1.64658ZM6.37575 1.63707C6.25376 1.71798 6.2419 1.80726 6.2419 2.64301C6.2419 3.83663 6.20197 3.79918 7.47548 3.79918C8.74596 3.79918 8.69003 3.8507 8.69003 2.67989C8.69003 1.4862 8.75678 1.54835 7.47369 1.54835C6.74994 1.54835 6.47623 1.57049 6.37575 1.63707ZM10.1686 1.63695C10.0492 1.71604 10.0324 1.82008 10.0124 2.60424C9.99016 3.47319 9.99188 3.48463 10.1644 3.641C10.3335 3.79437 10.3667 3.79918 11.2576 3.79918C12.5404 3.79918 12.4829 3.85176 12.4829 2.67989C12.4829 1.4862 12.5497 1.54835 11.2666 1.54835C10.5436 1.54835 10.269 1.57049 10.1686 1.63695ZM26.625 2.15076C26.5464 2.24136 26.4821 2.36922 26.4821 2.43493C26.4821 2.60168 26.7878 2.86134 26.9841 2.86134C27.1987 2.86134 27.4476 2.61568 27.4476 2.40404C27.4476 2.0124 26.8932 1.84171 26.625 2.15076ZM3.24207 2.67377V3.04891H3.69032H4.13857V2.67377V2.29863H3.69032H3.24207V2.67377ZM7.03495 2.67377V3.04891H7.4832H7.93145V2.67377V2.29863H7.4832H7.03495V2.67377ZM10.8278 2.67377V3.04891H11.2416H11.6554V2.67377V2.29863H11.2416H10.8278V2.67377ZM0.775596 12.9744L0.79394 20.5866L0.944345 20.8055C1.23957 21.235 1.38811 21.2719 2.91451 21.2947L4.27649 21.315L4.27753 15.6989C4.27836 10.9107 4.29387 10.0237 4.3827 9.68216C4.68088 8.53512 5.72579 7.56838 7.00047 7.26027C7.52989 7.13229 24.493 7.13791 25.0249 7.26627C25.9397 7.48704 26.8597 8.14991 27.2931 8.90063C27.7304 9.65803 27.7213 9.51348 27.7224 15.6989L27.7234 21.315L29.0854 21.2947C30.3437 21.2759 30.4657 21.264 30.6887 21.138C30.8215 21.063 30.9922 20.9083 31.068 20.7941C31.2037 20.5901 31.2062 20.4606 31.2243 12.9744L31.2426 5.36226H15.9999H0.757322L0.775596 12.9744ZM6.99323 8.05919C6.22707 8.29234 5.61476 8.82541 5.29947 9.53367L5.13851 9.89518V19.6175V29.3398L5.35491 29.7539C5.60938 30.2408 5.95136 30.6031 6.40072 30.8617C7.10419 31.2667 6.60925 31.2468 15.9999 31.2468C25.3906 31.2468 24.8957 31.2667 25.5992 30.8617C26.0485 30.6031 26.3905 30.2408 26.645 29.7539L26.8614 29.3398V19.6175V9.89518L26.7012 9.53555C26.3811 8.81666 25.7793 8.29947 24.9787 8.05494C24.5598 7.92702 24.4695 7.9257 15.9849 7.92839C7.53258 7.93102 7.40845 7.93283 6.99323 8.05919ZM7.9009 10.4406C7.75526 10.6291 7.76595 10.7597 7.93869 10.9015C8.07965 11.0172 8.31226 11.0206 15.9999 11.0206C23.6876 11.0206 23.9202 11.0172 24.0612 10.9015C24.2339 10.7597 24.2446 10.6291 24.099 10.4406L23.9917 10.3016H15.9999H8.00821L7.9009 10.4406ZM8.01614 14.7551C7.80615 14.8469 7.75029 15.0779 7.89097 15.2726L8.00359 15.4285H15.9999H23.9963L24.1089 15.2726C24.2546 15.0711 24.1917 14.8458 23.9634 14.7514C23.7189 14.6504 8.2475 14.654 8.01614 14.7551ZM7.93145 19.2424C7.8556 19.3112 7.79353 19.4237 7.79353 19.4925C7.79353 19.5612 7.8556 19.6738 7.93145 19.7426C8.06779 19.8662 8.1613 19.8676 15.9999 19.8676C23.8386 19.8676 23.9321 19.8662 24.0684 19.7426C24.1443 19.6738 24.2064 19.5612 24.2064 19.4925C24.2064 19.4237 24.1443 19.3112 24.0684 19.2424C23.9321 19.1188 23.8386 19.1173 15.9999 19.1173C8.1613 19.1173 8.06779 19.1188 7.93145 19.2424ZM20.3445 21.1539C19.3644 21.3064 18.8199 21.491 18.134 21.9029C17.6039 22.2212 17.0764 22.709 16.7274 23.2036L16.4785 23.5565H12.2501C8.24137 23.5565 8.01586 23.5624 7.90766 23.6708C7.75795 23.8208 7.76284 24.0121 7.91966 24.1407C8.034 24.2345 8.42432 24.2442 12.1004 24.2442H16.1551L16.1096 24.4474C15.8349 25.6741 15.9431 26.5793 16.4832 27.5736L16.6785 27.9331H12.4474C9.89699 27.9331 8.14675 27.957 8.04131 27.9934C7.81298 28.0721 7.74257 28.3222 7.89097 28.5275L8.00359 28.6834H12.6794H17.3551L17.5223 28.845C17.7449 29.0603 18.5035 29.5102 18.9244 29.6767C20.0316 30.1144 21.3205 30.1523 22.4963 29.7816C23.2201 29.5533 23.6968 29.2703 24.3457 28.6834C25.3231 27.7992 25.7481 26.8641 25.7522 25.5885C25.7548 24.7631 25.6364 24.306 25.226 23.5565C24.8101 22.7968 23.93 22.0002 23.103 21.6346C22.7806 21.492 22.3285 21.3321 22.0983 21.2793C21.6652 21.1797 20.6466 21.1069 20.3445 21.1539ZM20.2066 21.9074C18.94 22.13 17.7241 22.9542 17.2075 23.9405C16.7809 24.7547 16.6713 25.5173 16.8627 26.3369C17.0337 27.0684 17.3767 27.6335 17.9837 28.1832C18.5273 28.6757 18.9723 28.9252 19.7239 29.1592C20.2921 29.336 21.5303 29.3196 22.1375 29.1271C23.3912 28.7296 24.3641 27.8436 24.765 26.7344C25.0006 26.0821 25.0006 25.0948 24.765 24.4425C24.3631 23.3304 23.3757 22.4332 22.1375 22.055C21.6967 21.9204 20.6068 21.8371 20.2066 21.9074ZM22.107 23.6329C22.0479 23.7093 21.9996 23.8781 21.9996 24.0081V24.2442H21.7C21.4973 24.2442 21.3634 24.2812 21.2862 24.3586C21.0121 24.6331 21.2608 24.9945 21.7237 24.9945H21.9996V25.2446C21.9996 25.5331 22.1847 25.7448 22.4372 25.7448C22.6765 25.7448 22.8271 25.5558 22.8271 25.2553C22.8271 24.9952 22.8279 24.9945 23.0876 24.9945C23.4305 24.9945 23.6547 24.8486 23.6547 24.6255C23.6547 24.3822 23.4593 24.2442 23.1148 24.2442H22.8271V23.9726C22.8271 23.7888 22.7863 23.6674 22.701 23.5974C22.521 23.4497 22.2353 23.4668 22.107 23.6329ZM19.0263 23.8895C18.6294 24.0234 18.3675 24.2246 18.2126 24.5145C18.0804 24.7621 18.0688 24.8931 18.0688 26.1352C18.0688 27.6179 18.086 27.683 18.479 27.683C18.7815 27.683 18.8532 27.5438 18.8845 26.895L18.9128 26.3075H19.4907H20.0687V26.9202C20.0687 27.5807 20.1148 27.6836 20.41 27.682C20.7635 27.6801 20.7903 27.6211 20.8273 26.7632C20.8462 26.3234 20.8462 25.6661 20.8273 25.3025C20.7966 24.7145 20.7718 24.6127 20.6031 24.3816C20.2796 23.9385 19.5533 23.7118 19.0263 23.8895ZM19.078 24.6864C18.9183 24.8004 18.8963 24.8607 18.8963 25.1866V25.5572H19.4922H20.088L20.0473 25.1977C20.0154 24.9148 19.9684 24.8082 19.827 24.6975C19.6026 24.5219 19.3147 24.5176 19.078 24.6864Z" fill="#5f56af"/>
</svg>
