<svg width="45" height="45" viewBox="0 0 45 45" fill="none" xmlns="http://www.w3.org/2000/svg">
<mask id="path-1-inside-1_219_8071" fill="white">
<path fill-rule="evenodd" clip-rule="evenodd" d="M7.05484 0.506796C5.88175 1.11956 5.17228 2.15801 4.89266 3.67096C4.54373 5.56006 5.23288 7.88719 6.53044 9.20145C7.17859 9.85776 7.24282 9.80006 5.56059 10.0717C3.20135 10.4527 1.18978 11.5197 0.449819 12.7824L0 13.55L0.00163303 19.9755L0.00344759 26.4011L0.548347 27.3514C0.949718 28.0513 1.34383 28.4454 2.04369 28.8467C2.56627 29.1465 3.13694 29.3924 3.31149 29.3935C3.60871 29.3949 3.62903 29.8747 3.62903 36.9105C3.62903 41.044 3.67857 44.5551 3.73917 44.7129C3.83625 44.9661 4.50218 45 9.35782 45C14.6181 45 14.8747 44.9842 15.0541 44.6491C15.1748 44.4233 15.2419 41.6361 15.2419 36.8466C15.2419 30.2583 15.2742 29.3951 15.5214 29.3951C16.5081 29.3951 18.354 27.7103 18.6892 26.5037C18.788 26.1478 18.8693 23.8359 18.8699 21.3658L18.871 16.8749H19.506H20.1411V21.6436V26.4124L19.5937 26.6191C18.7283 26.9455 18.5068 27.7299 18.516 30.4326C18.5242 32.7926 18.7247 33.8129 19.3074 34.4567C19.5532 34.7283 19.597 35.3611 19.5979 38.6635C19.5984 40.8012 19.6821 42.8498 19.7837 43.216C19.8873 43.5892 20.2482 44.127 20.6055 44.4408L21.2425 45L31.4428 44.9993C41.3537 44.9987 41.6602 44.9882 42.2438 44.6324C43.2633 44.0107 43.3669 43.4929 43.3669 39.0141V35.0123L43.8659 34.2591C44.3515 33.526 44.3664 33.4266 44.4224 30.5415L44.4801 27.5771L43.9374 27.0344C43.6391 26.7361 43.2648 26.4919 43.1056 26.4919C42.8473 26.4919 42.8217 25.9862 42.8649 21.7287L42.9133 16.9656L43.7262 16.9077C44.7169 16.8373 45 16.6248 45 15.9518C45 15.5566 44.4876 14.8314 42.8044 12.8441C41.5969 11.4184 40.4755 10.2032 40.3124 10.1439C39.6336 9.89659 39.3598 10.1624 35.1622 15.1442C34.8661 15.4958 34.8505 15.3198 34.8447 11.5674L34.8387 7.62082H35.8264C36.6414 7.62082 36.8635 7.55023 37.0965 7.21745C37.2518 6.99571 37.379 6.68561 37.379 6.52847C37.379 6.37134 36.1902 4.83806 34.7373 3.12134C32.3359 0.283973 32.0427 -0.000181366 31.5165 8.67735e-08C30.991 0.000362991 30.7023 0.278529 28.3972 3.00667C26.429 5.33597 25.8445 6.14652 25.8022 6.60559C25.7311 7.37876 26.0127 7.5867 27.2232 7.65529L28.2157 7.71154L28.3065 13.8809L28.3972 20.0503L28.8406 20.1129C29.7298 20.2385 29.7581 20.0231 29.7581 13.1486C29.7581 5.9872 29.7927 6.1692 28.4282 6.1692C28.0619 6.1692 27.7621 6.12547 27.7621 6.07212C27.7621 5.98883 30.6425 2.5465 31.302 1.84156C31.4907 1.6396 31.8683 1.99144 33.4444 3.83754L35.3577 6.07847L34.5992 6.17392C34.182 6.22636 33.7388 6.33323 33.6139 6.41144C33.4419 6.51922 33.3871 7.6905 33.3871 11.2542C33.3871 15.716 33.4049 15.9644 33.738 16.1427C34.192 16.3857 34.2162 16.3828 34.5536 16.0455C34.7863 15.8127 34.8387 15.8074 34.8387 16.0173C34.8387 16.4891 35.4778 16.8749 36.2593 16.8749H37.0161V19.856C37.0161 22.3239 37.0651 22.886 37.3012 23.1221C37.6387 23.4594 37.6628 23.4623 38.1168 23.2194C38.4458 23.0434 38.4677 22.8047 38.4677 19.4152C38.4677 16.0257 38.4458 15.7871 38.1168 15.6111C37.9238 15.5078 37.5532 15.4233 37.2936 15.4233C36.855 15.4233 36.9267 15.2999 38.2943 13.7011C39.1045 12.7539 39.8284 11.9412 39.9032 11.8949C39.978 11.8488 40.7034 12.6033 41.5156 13.5717L42.9921 15.3325L42.3441 15.4432C41.9877 15.504 41.6241 15.6673 41.5363 15.8061C41.4484 15.9448 41.3753 18.406 41.3737 21.2751L41.371 26.4919H39.2153H37.0597L36.9807 25.4008C36.8897 24.1401 36.5021 23.4975 35.505 22.9535C34.9254 22.6374 34.8396 22.5046 34.8393 21.9231C34.8389 21.556 34.7104 21.1274 34.5536 20.9704C33.9307 20.3475 33.3871 20.7812 33.3871 21.9011V22.6814H31.5726H29.7581V21.9684C29.7581 21.5623 29.6354 21.133 29.473 20.9704C28.8582 20.3557 28.3065 20.7794 28.3065 21.8663C28.3065 22.5598 28.2567 22.6335 27.5899 22.9278C26.6814 23.3284 26.1731 24.1482 26.0187 25.4612L25.8977 26.4919H23.7451H21.5927L21.59 21.2751C21.5884 18.406 21.5153 15.9448 21.4274 15.8061C21.3396 15.6673 20.9738 15.504 20.6149 15.4432L19.962 15.3325L21.4351 13.6087C22.2451 12.6607 22.9591 11.871 23.0215 11.8539C23.0839 11.8367 23.8135 12.6329 24.6429 13.6231C26.0512 15.3044 26.1194 15.4233 25.6743 15.4233C25.4123 15.4233 25.04 15.5078 24.8469 15.6111C24.5179 15.7871 24.496 16.0257 24.496 19.4152C24.496 22.8047 24.5179 23.0434 24.8469 23.2194C25.3009 23.4623 25.325 23.4594 25.6625 23.1221C25.8986 22.886 25.9476 22.3239 25.9476 19.856V16.8749H26.7512C27.6436 16.8749 28.125 16.5358 28.125 15.9072C28.125 15.4723 23.8308 10.2929 23.302 10.09C22.827 9.90766 22.2928 10.3586 20.5592 12.4055L18.9619 14.291L18.634 13.4119C18.014 11.7501 16.2093 10.6063 13.4831 10.1475C11.6343 9.83653 11.6775 9.88099 12.4227 9.0561C13.4042 7.96975 13.8255 6.86906 13.929 5.12149C14.032 3.37846 13.7339 2.35761 12.817 1.31317C11.9861 0.366897 11.0537 0.00852833 9.41081 0.00381057C8.24189 0.000362975 7.87355 0.0791133 7.05484 0.506796ZM7.61226 1.86025C6.65728 2.50386 6.29601 3.28646 6.30617 4.68927C6.3205 6.65241 7.06246 8.12652 8.38307 8.81641C10.3825 9.86103 12.5252 7.70955 12.5173 4.66532C12.5115 2.52182 11.4496 1.45234 9.32625 1.4518C8.4776 1.45144 8.07732 1.54688 7.61226 1.86025ZM5.43629 11.6024C3.61415 11.9869 2.5855 12.4707 1.9281 13.2518L1.45161 13.818L1.45234 19.9282C1.45288 25.7051 1.47266 26.0705 1.81361 26.6296C2.13605 27.1585 3.13675 27.9409 3.49294 27.9428C3.56788 27.9431 3.62903 25.7047 3.62903 22.9684C3.62903 20.2321 3.67857 17.8642 3.73917 17.7063C3.88433 17.3278 4.82534 17.3278 4.9705 17.7063C5.03111 17.8642 5.08065 20.6827 5.08065 23.9697V29.946L9.39012 29.8974L13.6996 29.8487L13.7903 23.6793L13.881 17.51L14.2993 17.4506C15.2214 17.32 15.2419 17.4383 15.2419 22.8849C15.2419 25.6672 15.3047 27.9435 15.3813 27.9435C15.4579 27.9435 15.8137 27.7442 16.1719 27.5009C17.3912 26.6724 17.4194 26.5013 17.4194 19.9137C17.4194 14.1077 17.4137 14.0168 17.0111 13.4195C16.4557 12.5955 15.2744 12.0288 13.234 11.6079C11.0054 11.1481 7.60083 11.1457 5.43629 11.6024ZM33.4637 17.1188C33.4121 17.2529 33.3944 17.9672 33.4239 18.7065C33.4738 19.9529 33.5081 20.0547 33.8961 20.1096C34.6208 20.2123 34.8387 19.8453 34.8387 18.5221C34.8387 17.8215 34.7469 17.2186 34.621 17.0926C34.3276 16.7992 33.5798 16.8161 33.4637 17.1188ZM29.2137 26.129C29.2137 26.4732 29.3347 26.4919 31.5726 26.4919C33.8104 26.4919 33.9315 26.4732 33.9315 26.129C33.9315 25.7847 33.8104 25.7661 31.5726 25.7661C29.3347 25.7661 29.2137 25.7847 29.2137 26.129ZM20.1411 30.5535V33.1633L20.8432 33.7977C21.2293 34.1464 21.9847 34.5959 22.5216 34.7962C23.6676 35.2235 26.554 35.7459 27.7703 35.7459C28.5345 35.7459 28.7033 35.6643 29.4209 34.9466C30.0511 34.3164 30.3971 34.1208 31.0573 34.0219C32.1498 33.8581 33.3813 34.3765 33.946 35.238L34.347 35.8497L35.8176 35.7109C39.1371 35.3975 41.5201 34.6588 42.4704 33.6483C42.891 33.2012 42.9162 33.0454 42.9721 30.5604L43.0309 27.9435H40.84H38.6492V29.3922C38.6492 30.7364 38.6109 30.8837 38.1199 31.4335L37.5906 32.0262L31.774 32.0788C26.7188 32.1245 25.8837 32.0931 25.3938 31.8398C24.6567 31.4588 24.3145 30.5992 24.3145 29.1287V27.9435H22.2278H20.1411V30.5535ZM25.9476 29.2136V30.4838H31.4624C37.6926 30.4838 37.1976 30.6183 37.1976 28.9266V27.9435H31.5726H25.9476V29.2136ZM21.2298 39.5299C21.2298 42.0748 21.293 43.176 21.4476 43.3306C21.6116 43.4947 24.0906 43.5484 31.49 43.5484C40.7776 43.5484 41.3312 43.5302 41.615 43.2165C41.8727 42.932 41.9153 42.3871 41.9153 39.3866C41.9153 36.1248 41.8939 35.8976 41.5978 36.0234C40.4399 36.5151 36.024 37.379 34.6676 37.379C34.5838 37.379 34.4644 37.5817 34.4021 37.8294C34.2465 38.4499 33.3201 39.465 32.66 39.7384C31.8867 40.0587 30.469 39.8812 29.7584 39.3752C29.4336 39.144 29.0132 38.6049 28.8241 38.1774C28.5028 37.451 28.424 37.3933 27.6222 37.2968C25.525 37.0444 23.0997 36.5902 22.2039 36.2821L21.2298 35.947V39.5299Z"/>
</mask>
<path fill-rule="evenodd" clip-rule="evenodd" d="M7.05484 0.506796C5.88175 1.11956 5.17228 2.15801 4.89266 3.67096C4.54373 5.56006 5.23288 7.88719 6.53044 9.20145C7.17859 9.85776 7.24282 9.80006 5.56059 10.0717C3.20135 10.4527 1.18978 11.5197 0.449819 12.7824L0 13.55L0.00163303 19.9755L0.00344759 26.4011L0.548347 27.3514C0.949718 28.0513 1.34383 28.4454 2.04369 28.8467C2.56627 29.1465 3.13694 29.3924 3.31149 29.3935C3.60871 29.3949 3.62903 29.8747 3.62903 36.9105C3.62903 41.044 3.67857 44.5551 3.73917 44.7129C3.83625 44.9661 4.50218 45 9.35782 45C14.6181 45 14.8747 44.9842 15.0541 44.6491C15.1748 44.4233 15.2419 41.6361 15.2419 36.8466C15.2419 30.2583 15.2742 29.3951 15.5214 29.3951C16.5081 29.3951 18.354 27.7103 18.6892 26.5037C18.788 26.1478 18.8693 23.8359 18.8699 21.3658L18.871 16.8749H19.506H20.1411V21.6436V26.4124L19.5937 26.6191C18.7283 26.9455 18.5068 27.7299 18.516 30.4326C18.5242 32.7926 18.7247 33.8129 19.3074 34.4567C19.5532 34.7283 19.597 35.3611 19.5979 38.6635C19.5984 40.8012 19.6821 42.8498 19.7837 43.216C19.8873 43.5892 20.2482 44.127 20.6055 44.4408L21.2425 45L31.4428 44.9993C41.3537 44.9987 41.6602 44.9882 42.2438 44.6324C43.2633 44.0107 43.3669 43.4929 43.3669 39.0141V35.0123L43.8659 34.2591C44.3515 33.526 44.3664 33.4266 44.4224 30.5415L44.4801 27.5771L43.9374 27.0344C43.6391 26.7361 43.2648 26.4919 43.1056 26.4919C42.8473 26.4919 42.8217 25.9862 42.8649 21.7287L42.9133 16.9656L43.7262 16.9077C44.7169 16.8373 45 16.6248 45 15.9518C45 15.5566 44.4876 14.8314 42.8044 12.8441C41.5969 11.4184 40.4755 10.2032 40.3124 10.1439C39.6336 9.89659 39.3598 10.1624 35.1622 15.1442C34.8661 15.4958 34.8505 15.3198 34.8447 11.5674L34.8387 7.62082H35.8264C36.6414 7.62082 36.8635 7.55023 37.0965 7.21745C37.2518 6.99571 37.379 6.68561 37.379 6.52847C37.379 6.37134 36.1902 4.83806 34.7373 3.12134C32.3359 0.283973 32.0427 -0.000181366 31.5165 8.67735e-08C30.991 0.000362991 30.7023 0.278529 28.3972 3.00667C26.429 5.33597 25.8445 6.14652 25.8022 6.60559C25.7311 7.37876 26.0127 7.5867 27.2232 7.65529L28.2157 7.71154L28.3065 13.8809L28.3972 20.0503L28.8406 20.1129C29.7298 20.2385 29.7581 20.0231 29.7581 13.1486C29.7581 5.9872 29.7927 6.1692 28.4282 6.1692C28.0619 6.1692 27.7621 6.12547 27.7621 6.07212C27.7621 5.98883 30.6425 2.5465 31.302 1.84156C31.4907 1.6396 31.8683 1.99144 33.4444 3.83754L35.3577 6.07847L34.5992 6.17392C34.182 6.22636 33.7388 6.33323 33.6139 6.41144C33.4419 6.51922 33.3871 7.6905 33.3871 11.2542C33.3871 15.716 33.4049 15.9644 33.738 16.1427C34.192 16.3857 34.2162 16.3828 34.5536 16.0455C34.7863 15.8127 34.8387 15.8074 34.8387 16.0173C34.8387 16.4891 35.4778 16.8749 36.2593 16.8749H37.0161V19.856C37.0161 22.3239 37.0651 22.886 37.3012 23.1221C37.6387 23.4594 37.6628 23.4623 38.1168 23.2194C38.4458 23.0434 38.4677 22.8047 38.4677 19.4152C38.4677 16.0257 38.4458 15.7871 38.1168 15.6111C37.9238 15.5078 37.5532 15.4233 37.2936 15.4233C36.855 15.4233 36.9267 15.2999 38.2943 13.7011C39.1045 12.7539 39.8284 11.9412 39.9032 11.8949C39.978 11.8488 40.7034 12.6033 41.5156 13.5717L42.9921 15.3325L42.3441 15.4432C41.9877 15.504 41.6241 15.6673 41.5363 15.8061C41.4484 15.9448 41.3753 18.406 41.3737 21.2751L41.371 26.4919H39.2153H37.0597L36.9807 25.4008C36.8897 24.1401 36.5021 23.4975 35.505 22.9535C34.9254 22.6374 34.8396 22.5046 34.8393 21.9231C34.8389 21.556 34.7104 21.1274 34.5536 20.9704C33.9307 20.3475 33.3871 20.7812 33.3871 21.9011V22.6814H31.5726H29.7581V21.9684C29.7581 21.5623 29.6354 21.133 29.473 20.9704C28.8582 20.3557 28.3065 20.7794 28.3065 21.8663C28.3065 22.5598 28.2567 22.6335 27.5899 22.9278C26.6814 23.3284 26.1731 24.1482 26.0187 25.4612L25.8977 26.4919H23.7451H21.5927L21.59 21.2751C21.5884 18.406 21.5153 15.9448 21.4274 15.8061C21.3396 15.6673 20.9738 15.504 20.6149 15.4432L19.962 15.3325L21.4351 13.6087C22.2451 12.6607 22.9591 11.871 23.0215 11.8539C23.0839 11.8367 23.8135 12.6329 24.6429 13.6231C26.0512 15.3044 26.1194 15.4233 25.6743 15.4233C25.4123 15.4233 25.04 15.5078 24.8469 15.6111C24.5179 15.7871 24.496 16.0257 24.496 19.4152C24.496 22.8047 24.5179 23.0434 24.8469 23.2194C25.3009 23.4623 25.325 23.4594 25.6625 23.1221C25.8986 22.886 25.9476 22.3239 25.9476 19.856V16.8749H26.7512C27.6436 16.8749 28.125 16.5358 28.125 15.9072C28.125 15.4723 23.8308 10.2929 23.302 10.09C22.827 9.90766 22.2928 10.3586 20.5592 12.4055L18.9619 14.291L18.634 13.4119C18.014 11.7501 16.2093 10.6063 13.4831 10.1475C11.6343 9.83653 11.6775 9.88099 12.4227 9.0561C13.4042 7.96975 13.8255 6.86906 13.929 5.12149C14.032 3.37846 13.7339 2.35761 12.817 1.31317C11.9861 0.366897 11.0537 0.00852833 9.41081 0.00381057C8.24189 0.000362975 7.87355 0.0791133 7.05484 0.506796ZM7.61226 1.86025C6.65728 2.50386 6.29601 3.28646 6.30617 4.68927C6.3205 6.65241 7.06246 8.12652 8.38307 8.81641C10.3825 9.86103 12.5252 7.70955 12.5173 4.66532C12.5115 2.52182 11.4496 1.45234 9.32625 1.4518C8.4776 1.45144 8.07732 1.54688 7.61226 1.86025ZM5.43629 11.6024C3.61415 11.9869 2.5855 12.4707 1.9281 13.2518L1.45161 13.818L1.45234 19.9282C1.45288 25.7051 1.47266 26.0705 1.81361 26.6296C2.13605 27.1585 3.13675 27.9409 3.49294 27.9428C3.56788 27.9431 3.62903 25.7047 3.62903 22.9684C3.62903 20.2321 3.67857 17.8642 3.73917 17.7063C3.88433 17.3278 4.82534 17.3278 4.9705 17.7063C5.03111 17.8642 5.08065 20.6827 5.08065 23.9697V29.946L9.39012 29.8974L13.6996 29.8487L13.7903 23.6793L13.881 17.51L14.2993 17.4506C15.2214 17.32 15.2419 17.4383 15.2419 22.8849C15.2419 25.6672 15.3047 27.9435 15.3813 27.9435C15.4579 27.9435 15.8137 27.7442 16.1719 27.5009C17.3912 26.6724 17.4194 26.5013 17.4194 19.9137C17.4194 14.1077 17.4137 14.0168 17.0111 13.4195C16.4557 12.5955 15.2744 12.0288 13.234 11.6079C11.0054 11.1481 7.60083 11.1457 5.43629 11.6024ZM33.4637 17.1188C33.4121 17.2529 33.3944 17.9672 33.4239 18.7065C33.4738 19.9529 33.5081 20.0547 33.8961 20.1096C34.6208 20.2123 34.8387 19.8453 34.8387 18.5221C34.8387 17.8215 34.7469 17.2186 34.621 17.0926C34.3276 16.7992 33.5798 16.8161 33.4637 17.1188ZM29.2137 26.129C29.2137 26.4732 29.3347 26.4919 31.5726 26.4919C33.8104 26.4919 33.9315 26.4732 33.9315 26.129C33.9315 25.7847 33.8104 25.7661 31.5726 25.7661C29.3347 25.7661 29.2137 25.7847 29.2137 26.129ZM20.1411 30.5535V33.1633L20.8432 33.7977C21.2293 34.1464 21.9847 34.5959 22.5216 34.7962C23.6676 35.2235 26.554 35.7459 27.7703 35.7459C28.5345 35.7459 28.7033 35.6643 29.4209 34.9466C30.0511 34.3164 30.3971 34.1208 31.0573 34.0219C32.1498 33.8581 33.3813 34.3765 33.946 35.238L34.347 35.8497L35.8176 35.7109C39.1371 35.3975 41.5201 34.6588 42.4704 33.6483C42.891 33.2012 42.9162 33.0454 42.9721 30.5604L43.0309 27.9435H40.84H38.6492V29.3922C38.6492 30.7364 38.6109 30.8837 38.1199 31.4335L37.5906 32.0262L31.774 32.0788C26.7188 32.1245 25.8837 32.0931 25.3938 31.8398C24.6567 31.4588 24.3145 30.5992 24.3145 29.1287V27.9435H22.2278H20.1411V30.5535ZM25.9476 29.2136V30.4838H31.4624C37.6926 30.4838 37.1976 30.6183 37.1976 28.9266V27.9435H31.5726H25.9476V29.2136ZM21.2298 39.5299C21.2298 42.0748 21.293 43.176 21.4476 43.3306C21.6116 43.4947 24.0906 43.5484 31.49 43.5484C40.7776 43.5484 41.3312 43.5302 41.615 43.2165C41.8727 42.932 41.9153 42.3871 41.9153 39.3866C41.9153 36.1248 41.8939 35.8976 41.5978 36.0234C40.4399 36.5151 36.024 37.379 34.6676 37.379C34.5838 37.379 34.4644 37.5817 34.4021 37.8294C34.2465 38.4499 33.3201 39.465 32.66 39.7384C31.8867 40.0587 30.469 39.8812 29.7584 39.3752C29.4336 39.144 29.0132 38.6049 28.8241 38.1774C28.5028 37.451 28.424 37.3933 27.6222 37.2968C25.525 37.0444 23.0997 36.5902 22.2039 36.2821L21.2298 35.947V39.5299Z" stroke="#444444" stroke-width="2" mask="url(#path-1-inside-1_219_8071)"/>
</svg>
