<svg width="45" height="45" viewBox="0 0 45 45" fill="none" xmlns="http://www.w3.org/2000/svg">
<mask id="path-1-inside-1_219_8114" fill="white">
<path fill-rule="evenodd" clip-rule="evenodd" d="M11.4401 2.63635C7.16383 4.07887 3.3208 5.46209 2.90017 5.71007C1.88063 6.31087 0.966198 7.41681 0.493452 8.62035C0.13863 9.52367 0.10599 9.91708 0.0972164 13.3796C0.0886179 16.7885 0.117572 17.1731 0.394832 17.35C0.61857 17.4926 0.785277 17.4929 1.00902 17.3514C1.27838 17.1809 1.32681 16.7476 1.40385 13.8223C1.4851 10.732 1.52037 10.4471 1.88291 9.93562C2.25949 9.40471 3.2192 8.81326 3.7116 8.8085C3.8418 8.80726 4.63919 9.01835 5.48378 9.27763L7.01924 9.74888L7.01959 11.7068C7.01994 14.6075 7.09066 14.7097 9.73919 15.6381C12.3045 16.5374 12.6757 16.5626 13.3501 15.8843C13.8421 15.3892 13.863 15.3029 13.863 13.7545C13.863 12.2807 13.8904 12.1493 14.1787 12.2412C14.3524 12.2966 15.2802 12.6069 16.2406 12.9308L17.9868 13.5196L18.0333 18.5484L18.0798 23.5773L16.9811 23.8846C15.2637 24.3647 13.9713 25.1549 12.7187 26.4904C12.0934 27.1573 11.5817 27.7748 11.5817 27.8629C11.5817 27.951 10.6294 27.7026 9.46562 27.3112C8.30183 26.9195 7.30492 26.644 7.25052 26.6987C6.97344 26.9774 7.47461 27.3045 8.88355 27.7641C11.468 28.6072 11.2534 28.4485 10.9302 29.2761C10.7766 29.669 10.594 29.9906 10.5243 29.9906C10.4546 29.9906 10.0617 29.8714 9.65145 29.7258C8.73965 29.4023 8.42308 29.3919 8.42308 29.6852C8.42308 29.8086 8.87705 30.0667 9.4321 30.2589L10.4411 30.6083L10.3809 31.3143C10.3478 31.7026 10.2935 32.0484 10.2604 32.0828C10.2272 32.117 9.46439 31.8985 8.5654 31.5974C6.74479 30.9873 6.31731 30.9313 6.31731 31.3025C6.31731 31.4686 7.00976 31.7845 8.33534 32.2233L10.3534 32.8913V33.5218C10.3534 34.1026 10.2755 34.1971 9.36226 34.7248L8.37097 35.2974L5.43851 34.3143C2.53623 33.3414 2.07032 33.0804 1.60126 32.1643C1.47229 31.9123 1.40385 30.4032 1.40385 27.8085C1.40385 24.4346 1.36243 23.7967 1.12817 23.5609C0.781768 23.2127 0.62208 23.2127 0.275681 23.5609C0.0421154 23.7958 0 24.4184 0 27.6306C0 32.105 0.11687 32.7445 1.12396 33.7826C1.74884 34.4267 2.16315 34.6346 4.29928 35.3757C7.60605 36.5228 7.60394 36.5221 7.5262 36.5939C7.48865 36.6285 6.47086 37.0659 5.26443 37.5657C1.27259 39.2195 0.378512 39.8778 0.100551 41.3678C-0.266906 43.3377 1.62864 45.2879 3.557 44.9239C4.18329 44.8058 6.60528 43.1867 8.9934 41.2896C9.7413 40.6956 10.3534 40.2914 10.3534 40.3916C10.3534 40.4917 10.5487 40.623 10.7872 40.6832C11.0997 40.7621 11.5417 40.6124 12.3665 40.1486L13.5119 39.5044L14.2577 40.01C15.1587 40.6211 16.5215 41.2116 17.4165 41.3791C18.0542 41.4984 18.0745 41.5255 18.0745 42.2507C18.0745 43.0846 18.552 43.9334 19.3596 44.5355C19.8485 44.8999 20.0006 44.9052 31.2045 44.9523L42.5541 45L43.3438 44.5993C43.9362 44.2988 44.2347 43.9934 44.539 43.3769L44.9445 42.5551L44.9909 26.3448C45.0163 17.4292 44.9868 10.8096 44.925 11.6348C44.8635 12.4599 44.7984 12.9624 44.7803 12.7515C44.7387 12.2626 43.9755 11.3455 43.3317 11.0107C43.0583 10.8686 42.366 10.7523 41.7931 10.7523H40.7514L40.6338 9.91391C40.4947 8.92093 39.8458 7.49923 39.2298 6.83719C38.1732 5.70195 37.5552 5.43915 29.5515 2.72178C22.3085 0.262804 21.3815 -0.011474 20.3558 0.000351341C19.3708 0.0116472 18.1537 0.371527 11.4401 2.63635ZM11.9241 3.84678C3.72441 6.68152 3.61526 6.72299 2.98318 7.24119L2.54447 7.6009L3.23359 7.486C3.76389 7.39757 4.39036 7.51971 5.95354 8.01602L7.98438 8.66112L16.4075 5.80308C21.0402 4.23137 24.9406 2.88539 25.075 2.81232C25.4586 2.60352 21.1316 1.21678 20.1801 1.24343C19.6654 1.2579 16.7909 2.1644 11.9241 3.84678ZM17.8113 5.99564C13.2751 7.54353 9.44526 8.85898 9.30049 8.91881C9.14905 8.98147 10.11 9.39182 11.5642 9.88549L14.0911 10.7436L22.7072 7.81216C27.4461 6.19985 31.3451 4.8627 31.3718 4.84082C31.4765 4.75451 26.7394 3.15949 26.4099 3.16991C26.2169 3.17626 22.3475 4.44775 17.8113 5.99564ZM23.6525 8.15722C19.0476 9.72752 15.3362 11.0627 15.4049 11.1242C15.4737 11.1856 16.152 11.4427 16.9123 11.6955L18.2944 12.1551L18.6184 11.7408C19.2206 10.9708 19.9841 10.7523 22.0718 10.7523C23.6059 10.7523 24.0444 10.696 24.226 10.4759C24.6433 9.97003 25.4167 9.69328 26.4127 9.69328C27.6072 9.69328 27.9269 9.53708 28.407 8.71848C28.6208 8.35419 29.0347 7.97931 29.3866 7.8314C30.1876 7.49482 32.8014 7.49111 33.5972 7.82558C34.1317 8.05026 34.3069 8.03967 35.3026 7.72374C36.042 7.48917 36.6611 7.40445 37.1581 7.47011C37.5684 7.5243 37.9039 7.53153 37.9039 7.48617C37.9039 7.04846 33.497 5.26741 32.4734 5.29124C32.2269 5.29706 28.2575 6.58674 23.6525 8.15722ZM36.2368 8.94087C36.0438 8.98976 35.6911 9.10431 35.4531 9.1952C34.7833 9.45113 35.3338 9.68746 36.6071 9.69064C37.4552 9.69275 37.813 9.78453 38.318 10.1292C38.6693 10.3689 38.9568 10.4988 38.9568 10.4178C38.9568 10.0923 38.1615 9.2831 37.6168 9.05418C37.02 8.80338 36.8375 8.78838 36.2368 8.94087ZM29.551 9.32264C28.2689 10.8539 28.1566 10.9288 27.1408 10.9288C25.4858 10.9288 25.0611 11.2687 24.6479 12.9241L24.5293 13.3997H31.4799C35.3026 13.3997 38.4303 13.3671 38.4303 13.3272C38.4303 13.2873 38.265 12.8201 38.0629 12.289C37.6328 11.1582 37.263 10.9288 35.8715 10.9288C34.7438 10.9288 34.2639 10.6635 33.6197 9.68463L33.161 8.98729H31.4964C30.0764 8.98729 29.7905 9.03653 29.551 9.32264ZM30.7818 9.75735C30.4902 10.5218 31.1226 11.3746 31.7064 11.0043C32.2116 10.6838 32.3969 10.259 32.1821 9.91391C31.9319 9.51184 30.9187 9.39853 30.7818 9.75735ZM7.72116 11.861C7.72116 13.3726 7.77767 13.779 8.02825 14.0685C8.20163 14.2688 9.2031 14.7092 10.3269 15.0793C13.0861 15.9879 13.1611 15.9487 13.1611 13.5946V11.8406L10.6605 11.0057C9.28505 10.5465 8.06124 10.1344 7.94051 10.0897C7.77381 10.0279 7.72116 10.4535 7.72116 11.861ZM0.0735265 13.7527C0.0735265 15.6457 0.0993222 16.42 0.130909 15.4736C0.16232 14.5272 0.16232 12.9783 0.130909 12.0319C0.0993222 11.0855 0.0735265 11.8598 0.0735265 13.7527ZM19.8337 12.5128C19.6432 12.7045 19.4435 13.042 19.3898 13.263C19.3361 13.4838 19.3143 15.8884 19.3413 18.6064L19.3906 23.5484L19.9583 23.6035L20.526 23.6585L20.5725 18.3968L20.619 13.135L21.8663 13.0836C22.9973 13.037 23.1321 12.9919 23.3104 12.5983L23.5069 12.1643H21.8437C20.4214 12.1643 20.1301 12.2147 19.8337 12.5128ZM39.6613 12.3849C39.6675 12.886 39.9781 13.0309 41.1552 13.0819L42.3786 13.135V27.7844V42.4337H31.4988H20.619L20.5618 41.9312C20.5141 41.5115 20.4419 41.4457 20.1231 41.5318C19.9132 41.5883 19.643 41.6358 19.5223 41.637C19.1085 41.6416 19.2931 42.5393 19.8158 43.065L20.3288 43.581H31.4934H42.6578L43.0885 43.1476L43.5193 42.7145V27.9044C43.5193 10.4115 43.7748 12.1643 41.2252 12.1643C40.0876 12.1643 39.6594 12.2246 39.6613 12.3849ZM21.2332 18.7761V23.7996L21.8912 23.9835C22.2533 24.0844 22.9764 24.4053 23.4987 24.6962L24.448 25.2251H32.3166C40.0539 25.2251 40.1851 25.231 40.1851 25.5762C40.1851 25.9204 40.0395 25.9281 32.8313 25.9733L25.4774 26.0194L26.2069 27.0236L26.9363 28.0281L33.5607 28.0385C40.0646 28.0489 40.1851 28.0555 40.1851 28.4021C40.1851 28.7487 40.0681 28.7551 33.7655 28.7551C28.6976 28.7551 27.3652 28.8015 27.4377 28.9757C27.4882 29.0972 27.6583 29.6134 27.8157 30.123L28.1019 31.0496H32.14C35.2925 31.0496 36.1624 31.0979 36.1054 31.2702C36.0512 31.4343 35.0258 31.5134 32.0986 31.5791L28.1647 31.6673V32.7263V33.7853L29.6124 33.8365C30.7223 33.8758 31.0601 33.9463 31.0601 34.1386C31.0601 34.3319 30.7139 34.4009 29.5485 34.4403L28.0371 34.4913L27.6453 35.5808C26.6984 38.2143 24.6372 40.2718 22.1582 41.0577C21.6494 41.2191 21.2332 41.4556 21.2332 41.5835C21.2332 41.7731 23.1233 41.816 31.4988 41.816H41.7645V27.7844V13.7527H40.9748C40.2988 13.7527 40.1851 13.8043 40.1851 14.1102C40.1851 14.3313 40.0137 14.533 39.735 14.6396C39.1072 14.8797 23.5994 14.8698 23.1519 14.6291C22.9652 14.5285 22.8125 14.2902 22.8125 14.0996C22.8125 13.8062 22.6907 13.7527 22.0229 13.7527H21.2332V18.7761ZM22.637 17.018C22.637 17.2497 23.7289 17.2827 31.4111 17.2827C39.0933 17.2827 40.1851 17.2497 40.1851 17.018C40.1851 16.7862 39.0933 16.7532 31.4111 16.7532C23.7289 16.7532 22.637 16.7862 22.637 17.018ZM0.175481 20.3714C0.175481 21.4878 0.208471 22.4012 0.248832 22.4012C0.289193 22.4012 0.436948 22.4455 0.577157 22.4996C1.14905 22.7203 1.40385 22.0919 1.40385 20.4614C1.40385 18.5482 1.33366 18.3417 0.683147 18.3417H0.175481V20.3714ZM22.637 19.8419C22.637 20.0737 23.7289 20.1067 31.4111 20.1067C39.0933 20.1067 40.1851 20.0737 40.1851 19.8419C40.1851 19.6102 39.0933 19.5772 31.4111 19.5772C23.7289 19.5772 22.637 19.6102 22.637 19.8419ZM22.637 22.6659C22.637 22.8976 23.7289 22.9307 31.4111 22.9307C39.0933 22.9307 40.1851 22.8976 40.1851 22.6659C40.1851 22.4342 39.0933 22.4012 31.4111 22.4012C23.7289 22.4012 22.637 22.4342 22.637 22.6659ZM0.0752813 27.7844C0.0752813 30.0171 0.100551 30.9061 0.131084 29.7601C0.161793 28.6139 0.161618 26.7871 0.130909 25.7006C0.1002 24.6139 0.0751058 25.5517 0.0752813 27.7844ZM16.9613 25.2207C14.9113 25.8794 13.2714 27.3458 12.37 29.3264C11.0041 32.3274 11.5874 35.4989 13.9381 37.8525C15.7161 39.6327 17.8817 40.3671 20.3558 40.0287C24.4033 39.4754 27.4117 35.35 26.7219 31.299C25.941 26.7141 21.3027 23.8255 16.9613 25.2207ZM4.15311 25.6959C4.08871 25.7605 4.03606 25.8724 4.03606 25.9444C4.03606 26.159 6.12639 26.8051 6.23729 26.6246C6.40804 26.3468 6.17482 26.1521 5.32076 25.8595C4.39527 25.5423 4.31666 25.5312 4.15311 25.6959ZM16.8332 26.5123C14.1813 27.6324 12.6278 30.1796 12.8647 33.0204C13.4057 39.5113 22.0966 41.1654 24.9567 35.3219C25.4853 34.2422 25.5325 34.0077 25.5325 32.4653C25.5325 30.9657 25.4774 30.6719 25.0202 29.7354C24.3671 28.3977 23.2416 27.2663 21.9695 26.6691C20.5295 25.9929 18.2293 25.9228 16.8332 26.5123ZM18.03 26.8184C16.3145 27.2519 14.8592 28.4113 14.0027 30.0268C13.6642 30.6652 13.6012 31.0496 13.6029 32.4616C13.6049 33.8601 13.6733 34.277 14.0155 34.9742C14.5574 36.0784 15.5667 37.1015 16.7086 37.7048C17.5216 38.1342 17.8304 38.1948 19.2152 38.1962C20.5381 38.1976 20.9361 38.1277 21.6673 37.7657C25.2963 35.9696 26.1109 31.2434 23.284 28.3843C21.9678 27.0531 19.7348 26.3875 18.03 26.8184ZM4.13135 28.2134C3.99377 28.4372 4.16662 28.526 5.8579 29.101C6.77076 29.4115 7.41442 29.5428 7.56463 29.4493C7.93069 29.2218 7.61938 29.0287 6.05357 28.5122C4.51495 28.0048 4.28173 27.9686 4.13135 28.2134ZM4.03606 30.5139C4.03606 30.7437 4.63077 31.0496 5.07737 31.0496C5.56538 31.0496 5.54028 30.5884 5.04508 30.4548C4.45862 30.2968 4.03606 30.3215 4.03606 30.5139ZM35.258 34.6279C33.4532 35.8512 33.2289 38.0855 34.7633 39.5573C36.2886 41.0203 38.7955 40.5169 39.674 38.5712C40.076 37.681 40.0927 37.0625 39.738 36.209C39.1775 34.8596 38.2385 34.2265 36.798 34.2265C36.1026 34.2265 35.6923 34.3335 35.258 34.6279ZM35.676 35.2778C34.916 35.7439 34.5499 36.3565 34.5387 37.182C34.5015 39.8948 38.0111 40.6521 39.0671 38.1593C39.548 37.0244 39.171 35.9239 38.0931 35.3145C37.2557 34.8411 36.409 34.8282 35.676 35.2778ZM10.141 35.9133L9.66567 36.1717L10.4718 37.5592C11.0999 38.6401 11.3491 38.9279 11.5996 38.8619C12.3698 38.6593 12.24 38.2006 10.7521 35.8673C10.6484 35.7047 10.505 35.7155 10.141 35.9133ZM6.22957 38.6224C2.03312 40.357 1.40385 40.7801 1.40385 41.8668C1.40385 42.5555 1.67163 42.9992 2.27774 43.3144C3.0997 43.7419 3.54314 43.6358 4.9261 42.6808C6.25747 41.7614 9.47597 39.1974 9.47597 39.0561C9.47597 38.945 8.77528 37.5772 8.72667 37.5934C8.70438 37.6008 7.58078 38.0638 6.22957 38.6224ZM0.0342188 41.9042C0.0377284 42.1954 0.0770361 42.2932 0.121608 42.1215C0.16618 41.9498 0.163197 41.7115 0.115115 41.592C0.0670337 41.4725 0.0307092 41.613 0.0342188 41.9042Z"/>
</mask>
<path fill-rule="evenodd" clip-rule="evenodd" d="M11.4401 2.63635C7.16383 4.07887 3.3208 5.46209 2.90017 5.71007C1.88063 6.31087 0.966198 7.41681 0.493452 8.62035C0.13863 9.52367 0.10599 9.91708 0.0972164 13.3796C0.0886179 16.7885 0.117572 17.1731 0.394832 17.35C0.61857 17.4926 0.785277 17.4929 1.00902 17.3514C1.27838 17.1809 1.32681 16.7476 1.40385 13.8223C1.4851 10.732 1.52037 10.4471 1.88291 9.93562C2.25949 9.40471 3.2192 8.81326 3.7116 8.8085C3.8418 8.80726 4.63919 9.01835 5.48378 9.27763L7.01924 9.74888L7.01959 11.7068C7.01994 14.6075 7.09066 14.7097 9.73919 15.6381C12.3045 16.5374 12.6757 16.5626 13.3501 15.8843C13.8421 15.3892 13.863 15.3029 13.863 13.7545C13.863 12.2807 13.8904 12.1493 14.1787 12.2412C14.3524 12.2966 15.2802 12.6069 16.2406 12.9308L17.9868 13.5196L18.0333 18.5484L18.0798 23.5773L16.9811 23.8846C15.2637 24.3647 13.9713 25.1549 12.7187 26.4904C12.0934 27.1573 11.5817 27.7748 11.5817 27.8629C11.5817 27.951 10.6294 27.7026 9.46562 27.3112C8.30183 26.9195 7.30492 26.644 7.25052 26.6987C6.97344 26.9774 7.47461 27.3045 8.88355 27.7641C11.468 28.6072 11.2534 28.4485 10.9302 29.2761C10.7766 29.669 10.594 29.9906 10.5243 29.9906C10.4546 29.9906 10.0617 29.8714 9.65145 29.7258C8.73965 29.4023 8.42308 29.3919 8.42308 29.6852C8.42308 29.8086 8.87705 30.0667 9.4321 30.2589L10.4411 30.6083L10.3809 31.3143C10.3478 31.7026 10.2935 32.0484 10.2604 32.0828C10.2272 32.117 9.46439 31.8985 8.5654 31.5974C6.74479 30.9873 6.31731 30.9313 6.31731 31.3025C6.31731 31.4686 7.00976 31.7845 8.33534 32.2233L10.3534 32.8913V33.5218C10.3534 34.1026 10.2755 34.1971 9.36226 34.7248L8.37097 35.2974L5.43851 34.3143C2.53623 33.3414 2.07032 33.0804 1.60126 32.1643C1.47229 31.9123 1.40385 30.4032 1.40385 27.8085C1.40385 24.4346 1.36243 23.7967 1.12817 23.5609C0.781768 23.2127 0.62208 23.2127 0.275681 23.5609C0.0421154 23.7958 0 24.4184 0 27.6306C0 32.105 0.11687 32.7445 1.12396 33.7826C1.74884 34.4267 2.16315 34.6346 4.29928 35.3757C7.60605 36.5228 7.60394 36.5221 7.5262 36.5939C7.48865 36.6285 6.47086 37.0659 5.26443 37.5657C1.27259 39.2195 0.378512 39.8778 0.100551 41.3678C-0.266906 43.3377 1.62864 45.2879 3.557 44.9239C4.18329 44.8058 6.60528 43.1867 8.9934 41.2896C9.7413 40.6956 10.3534 40.2914 10.3534 40.3916C10.3534 40.4917 10.5487 40.623 10.7872 40.6832C11.0997 40.7621 11.5417 40.6124 12.3665 40.1486L13.5119 39.5044L14.2577 40.01C15.1587 40.6211 16.5215 41.2116 17.4165 41.3791C18.0542 41.4984 18.0745 41.5255 18.0745 42.2507C18.0745 43.0846 18.552 43.9334 19.3596 44.5355C19.8485 44.8999 20.0006 44.9052 31.2045 44.9523L42.5541 45L43.3438 44.5993C43.9362 44.2988 44.2347 43.9934 44.539 43.3769L44.9445 42.5551L44.9909 26.3448C45.0163 17.4292 44.9868 10.8096 44.925 11.6348C44.8635 12.4599 44.7984 12.9624 44.7803 12.7515C44.7387 12.2626 43.9755 11.3455 43.3317 11.0107C43.0583 10.8686 42.366 10.7523 41.7931 10.7523H40.7514L40.6338 9.91391C40.4947 8.92093 39.8458 7.49923 39.2298 6.83719C38.1732 5.70195 37.5552 5.43915 29.5515 2.72178C22.3085 0.262804 21.3815 -0.011474 20.3558 0.000351341C19.3708 0.0116472 18.1537 0.371527 11.4401 2.63635ZM11.9241 3.84678C3.72441 6.68152 3.61526 6.72299 2.98318 7.24119L2.54447 7.6009L3.23359 7.486C3.76389 7.39757 4.39036 7.51971 5.95354 8.01602L7.98438 8.66112L16.4075 5.80308C21.0402 4.23137 24.9406 2.88539 25.075 2.81232C25.4586 2.60352 21.1316 1.21678 20.1801 1.24343C19.6654 1.2579 16.7909 2.1644 11.9241 3.84678ZM17.8113 5.99564C13.2751 7.54353 9.44526 8.85898 9.30049 8.91881C9.14905 8.98147 10.11 9.39182 11.5642 9.88549L14.0911 10.7436L22.7072 7.81216C27.4461 6.19985 31.3451 4.8627 31.3718 4.84082C31.4765 4.75451 26.7394 3.15949 26.4099 3.16991C26.2169 3.17626 22.3475 4.44775 17.8113 5.99564ZM23.6525 8.15722C19.0476 9.72752 15.3362 11.0627 15.4049 11.1242C15.4737 11.1856 16.152 11.4427 16.9123 11.6955L18.2944 12.1551L18.6184 11.7408C19.2206 10.9708 19.9841 10.7523 22.0718 10.7523C23.6059 10.7523 24.0444 10.696 24.226 10.4759C24.6433 9.97003 25.4167 9.69328 26.4127 9.69328C27.6072 9.69328 27.9269 9.53708 28.407 8.71848C28.6208 8.35419 29.0347 7.97931 29.3866 7.8314C30.1876 7.49482 32.8014 7.49111 33.5972 7.82558C34.1317 8.05026 34.3069 8.03967 35.3026 7.72374C36.042 7.48917 36.6611 7.40445 37.1581 7.47011C37.5684 7.5243 37.9039 7.53153 37.9039 7.48617C37.9039 7.04846 33.497 5.26741 32.4734 5.29124C32.2269 5.29706 28.2575 6.58674 23.6525 8.15722ZM36.2368 8.94087C36.0438 8.98976 35.6911 9.10431 35.4531 9.1952C34.7833 9.45113 35.3338 9.68746 36.6071 9.69064C37.4552 9.69275 37.813 9.78453 38.318 10.1292C38.6693 10.3689 38.9568 10.4988 38.9568 10.4178C38.9568 10.0923 38.1615 9.2831 37.6168 9.05418C37.02 8.80338 36.8375 8.78838 36.2368 8.94087ZM29.551 9.32264C28.2689 10.8539 28.1566 10.9288 27.1408 10.9288C25.4858 10.9288 25.0611 11.2687 24.6479 12.9241L24.5293 13.3997H31.4799C35.3026 13.3997 38.4303 13.3671 38.4303 13.3272C38.4303 13.2873 38.265 12.8201 38.0629 12.289C37.6328 11.1582 37.263 10.9288 35.8715 10.9288C34.7438 10.9288 34.2639 10.6635 33.6197 9.68463L33.161 8.98729H31.4964C30.0764 8.98729 29.7905 9.03653 29.551 9.32264ZM30.7818 9.75735C30.4902 10.5218 31.1226 11.3746 31.7064 11.0043C32.2116 10.6838 32.3969 10.259 32.1821 9.91391C31.9319 9.51184 30.9187 9.39853 30.7818 9.75735ZM7.72116 11.861C7.72116 13.3726 7.77767 13.779 8.02825 14.0685C8.20163 14.2688 9.2031 14.7092 10.3269 15.0793C13.0861 15.9879 13.1611 15.9487 13.1611 13.5946V11.8406L10.6605 11.0057C9.28505 10.5465 8.06124 10.1344 7.94051 10.0897C7.77381 10.0279 7.72116 10.4535 7.72116 11.861ZM0.0735265 13.7527C0.0735265 15.6457 0.0993222 16.42 0.130909 15.4736C0.16232 14.5272 0.16232 12.9783 0.130909 12.0319C0.0993222 11.0855 0.0735265 11.8598 0.0735265 13.7527ZM19.8337 12.5128C19.6432 12.7045 19.4435 13.042 19.3898 13.263C19.3361 13.4838 19.3143 15.8884 19.3413 18.6064L19.3906 23.5484L19.9583 23.6035L20.526 23.6585L20.5725 18.3968L20.619 13.135L21.8663 13.0836C22.9973 13.037 23.1321 12.9919 23.3104 12.5983L23.5069 12.1643H21.8437C20.4214 12.1643 20.1301 12.2147 19.8337 12.5128ZM39.6613 12.3849C39.6675 12.886 39.9781 13.0309 41.1552 13.0819L42.3786 13.135V27.7844V42.4337H31.4988H20.619L20.5618 41.9312C20.5141 41.5115 20.4419 41.4457 20.1231 41.5318C19.9132 41.5883 19.643 41.6358 19.5223 41.637C19.1085 41.6416 19.2931 42.5393 19.8158 43.065L20.3288 43.581H31.4934H42.6578L43.0885 43.1476L43.5193 42.7145V27.9044C43.5193 10.4115 43.7748 12.1643 41.2252 12.1643C40.0876 12.1643 39.6594 12.2246 39.6613 12.3849ZM21.2332 18.7761V23.7996L21.8912 23.9835C22.2533 24.0844 22.9764 24.4053 23.4987 24.6962L24.448 25.2251H32.3166C40.0539 25.2251 40.1851 25.231 40.1851 25.5762C40.1851 25.9204 40.0395 25.9281 32.8313 25.9733L25.4774 26.0194L26.2069 27.0236L26.9363 28.0281L33.5607 28.0385C40.0646 28.0489 40.1851 28.0555 40.1851 28.4021C40.1851 28.7487 40.0681 28.7551 33.7655 28.7551C28.6976 28.7551 27.3652 28.8015 27.4377 28.9757C27.4882 29.0972 27.6583 29.6134 27.8157 30.123L28.1019 31.0496H32.14C35.2925 31.0496 36.1624 31.0979 36.1054 31.2702C36.0512 31.4343 35.0258 31.5134 32.0986 31.5791L28.1647 31.6673V32.7263V33.7853L29.6124 33.8365C30.7223 33.8758 31.0601 33.9463 31.0601 34.1386C31.0601 34.3319 30.7139 34.4009 29.5485 34.4403L28.0371 34.4913L27.6453 35.5808C26.6984 38.2143 24.6372 40.2718 22.1582 41.0577C21.6494 41.2191 21.2332 41.4556 21.2332 41.5835C21.2332 41.7731 23.1233 41.816 31.4988 41.816H41.7645V27.7844V13.7527H40.9748C40.2988 13.7527 40.1851 13.8043 40.1851 14.1102C40.1851 14.3313 40.0137 14.533 39.735 14.6396C39.1072 14.8797 23.5994 14.8698 23.1519 14.6291C22.9652 14.5285 22.8125 14.2902 22.8125 14.0996C22.8125 13.8062 22.6907 13.7527 22.0229 13.7527H21.2332V18.7761ZM22.637 17.018C22.637 17.2497 23.7289 17.2827 31.4111 17.2827C39.0933 17.2827 40.1851 17.2497 40.1851 17.018C40.1851 16.7862 39.0933 16.7532 31.4111 16.7532C23.7289 16.7532 22.637 16.7862 22.637 17.018ZM0.175481 20.3714C0.175481 21.4878 0.208471 22.4012 0.248832 22.4012C0.289193 22.4012 0.436948 22.4455 0.577157 22.4996C1.14905 22.7203 1.40385 22.0919 1.40385 20.4614C1.40385 18.5482 1.33366 18.3417 0.683147 18.3417H0.175481V20.3714ZM22.637 19.8419C22.637 20.0737 23.7289 20.1067 31.4111 20.1067C39.0933 20.1067 40.1851 20.0737 40.1851 19.8419C40.1851 19.6102 39.0933 19.5772 31.4111 19.5772C23.7289 19.5772 22.637 19.6102 22.637 19.8419ZM22.637 22.6659C22.637 22.8976 23.7289 22.9307 31.4111 22.9307C39.0933 22.9307 40.1851 22.8976 40.1851 22.6659C40.1851 22.4342 39.0933 22.4012 31.4111 22.4012C23.7289 22.4012 22.637 22.4342 22.637 22.6659ZM0.0752813 27.7844C0.0752813 30.0171 0.100551 30.9061 0.131084 29.7601C0.161793 28.6139 0.161618 26.7871 0.130909 25.7006C0.1002 24.6139 0.0751058 25.5517 0.0752813 27.7844ZM16.9613 25.2207C14.9113 25.8794 13.2714 27.3458 12.37 29.3264C11.0041 32.3274 11.5874 35.4989 13.9381 37.8525C15.7161 39.6327 17.8817 40.3671 20.3558 40.0287C24.4033 39.4754 27.4117 35.35 26.7219 31.299C25.941 26.7141 21.3027 23.8255 16.9613 25.2207ZM4.15311 25.6959C4.08871 25.7605 4.03606 25.8724 4.03606 25.9444C4.03606 26.159 6.12639 26.8051 6.23729 26.6246C6.40804 26.3468 6.17482 26.1521 5.32076 25.8595C4.39527 25.5423 4.31666 25.5312 4.15311 25.6959ZM16.8332 26.5123C14.1813 27.6324 12.6278 30.1796 12.8647 33.0204C13.4057 39.5113 22.0966 41.1654 24.9567 35.3219C25.4853 34.2422 25.5325 34.0077 25.5325 32.4653C25.5325 30.9657 25.4774 30.6719 25.0202 29.7354C24.3671 28.3977 23.2416 27.2663 21.9695 26.6691C20.5295 25.9929 18.2293 25.9228 16.8332 26.5123ZM18.03 26.8184C16.3145 27.2519 14.8592 28.4113 14.0027 30.0268C13.6642 30.6652 13.6012 31.0496 13.6029 32.4616C13.6049 33.8601 13.6733 34.277 14.0155 34.9742C14.5574 36.0784 15.5667 37.1015 16.7086 37.7048C17.5216 38.1342 17.8304 38.1948 19.2152 38.1962C20.5381 38.1976 20.9361 38.1277 21.6673 37.7657C25.2963 35.9696 26.1109 31.2434 23.284 28.3843C21.9678 27.0531 19.7348 26.3875 18.03 26.8184ZM4.13135 28.2134C3.99377 28.4372 4.16662 28.526 5.8579 29.101C6.77076 29.4115 7.41442 29.5428 7.56463 29.4493C7.93069 29.2218 7.61938 29.0287 6.05357 28.5122C4.51495 28.0048 4.28173 27.9686 4.13135 28.2134ZM4.03606 30.5139C4.03606 30.7437 4.63077 31.0496 5.07737 31.0496C5.56538 31.0496 5.54028 30.5884 5.04508 30.4548C4.45862 30.2968 4.03606 30.3215 4.03606 30.5139ZM35.258 34.6279C33.4532 35.8512 33.2289 38.0855 34.7633 39.5573C36.2886 41.0203 38.7955 40.5169 39.674 38.5712C40.076 37.681 40.0927 37.0625 39.738 36.209C39.1775 34.8596 38.2385 34.2265 36.798 34.2265C36.1026 34.2265 35.6923 34.3335 35.258 34.6279ZM35.676 35.2778C34.916 35.7439 34.5499 36.3565 34.5387 37.182C34.5015 39.8948 38.0111 40.6521 39.0671 38.1593C39.548 37.0244 39.171 35.9239 38.0931 35.3145C37.2557 34.8411 36.409 34.8282 35.676 35.2778ZM10.141 35.9133L9.66567 36.1717L10.4718 37.5592C11.0999 38.6401 11.3491 38.9279 11.5996 38.8619C12.3698 38.6593 12.24 38.2006 10.7521 35.8673C10.6484 35.7047 10.505 35.7155 10.141 35.9133ZM6.22957 38.6224C2.03312 40.357 1.40385 40.7801 1.40385 41.8668C1.40385 42.5555 1.67163 42.9992 2.27774 43.3144C3.0997 43.7419 3.54314 43.6358 4.9261 42.6808C6.25747 41.7614 9.47597 39.1974 9.47597 39.0561C9.47597 38.945 8.77528 37.5772 8.72667 37.5934C8.70438 37.6008 7.58078 38.0638 6.22957 38.6224ZM0.0342188 41.9042C0.0377284 42.1954 0.0770361 42.2932 0.121608 42.1215C0.16618 41.9498 0.163197 41.7115 0.115115 41.592C0.0670337 41.4725 0.0307092 41.613 0.0342188 41.9042Z" stroke="#444444" stroke-width="2" mask="url(#path-1-inside-1_219_8114)"/>
</svg>
