<svg width="45" height="45" viewBox="0 0 45 45" fill="none" xmlns="http://www.w3.org/2000/svg">
<mask id="path-1-inside-1_219_8065" fill="white">
<path fill-rule="evenodd" clip-rule="evenodd" d="M20.9518 0.465324C20.3842 0.732614 19.3859 1.29519 18.7334 1.71549C17.3791 2.58797 16.9093 2.63939 14.5604 2.17137C11.9981 1.66091 11.3631 1.98912 10.2976 4.37519C9.91817 5.22513 9.38972 6.06204 9.07473 6.31207C8.76984 6.55418 7.71626 6.98716 6.73328 7.27435C4.40257 7.95525 3.87268 8.40584 3.8958 9.68647C3.9053 10.2033 4.00789 10.9028 4.1239 11.2411C4.23991 11.5795 4.33486 12.268 4.33486 12.7714C4.33486 13.5979 4.23578 13.7965 3.31018 14.827C0.780481 17.6421 0.783372 17.7561 3.46335 20.7625C4.39514 21.8077 4.45438 22.1552 4.04855 24.1883C3.56738 26.5983 3.82913 27.1047 5.91172 27.7921C6.48433 27.9812 6.88727 28.2186 6.85011 28.3454C6.8142 28.4674 5.25839 30.8092 3.39255 33.5494C1.5267 36.2897 0 38.7219 0 38.9545C0 39.1887 0.161216 39.4375 0.361239 39.5122C0.559817 39.5861 1.97649 39.7001 3.50917 39.765C7.277 39.9251 7.5344 40.0542 9.5014 42.769C10.9794 44.8089 11.3908 45.1679 11.9894 44.94C12.2516 44.8402 13.8228 42.7114 16.0062 39.4985C17.9785 36.5958 19.666 34.2208 19.756 34.2208C19.846 34.2208 20.3617 34.4465 20.9019 34.7226C22.2217 35.397 23.1176 35.382 24.3085 34.6661C24.8192 34.3592 25.3102 34.1729 25.3998 34.2523C25.4894 34.3319 27.0648 36.6155 28.9007 39.3271C30.7367 42.0388 32.464 44.4328 32.7392 44.6472C33.0308 44.8744 33.376 44.9922 33.5671 44.9296C33.7473 44.8707 34.5647 43.9422 35.3834 42.8665C37.6569 39.8795 37.6303 39.892 42.2133 39.6666C44.5942 39.5497 45 39.4284 45 38.8339C45 38.6348 43.464 36.2193 41.5866 33.4663C39.7094 30.7131 38.1534 28.3839 38.129 28.2902C38.1049 28.1966 38.5569 27.9666 39.1341 27.7794C40.6073 27.3015 41.1861 26.7282 41.1618 25.7711C41.1513 25.352 41.0227 24.5276 40.8763 23.9389C40.5617 22.6745 40.6841 21.6219 41.2126 21.0472C44.1795 17.8207 44.1805 17.8113 41.8859 15.1288C40.5175 13.5291 40.3856 13.0838 40.7694 11.3589C40.9391 10.5954 41.078 9.70831 41.078 9.38749C41.078 8.44757 40.2849 7.81756 38.4405 7.29284C35.8759 6.56298 35.69 6.4193 34.6867 4.39086C34.163 3.33226 33.5931 2.46542 33.2849 2.25853C32.6663 1.8435 31.7436 1.81868 30.0344 2.17066C27.8026 2.63041 27.238 2.55082 25.7289 1.56424C22.9962 -0.222446 22.6047 -0.312599 20.9518 0.465324ZM20.4676 4.55655C18.6736 4.76626 16.2438 5.48168 14.6461 6.27069C13.9137 6.63236 12.5238 7.60186 11.558 8.42503C10.1211 9.64967 9.6236 10.2258 8.82124 11.5945C7.45307 13.929 7.12734 15.1046 7.13869 17.6693C7.14963 20.1293 7.47826 21.3771 8.6689 23.4799C12.1434 29.6159 20.7667 32.4007 28.3118 29.8235C30.021 29.2397 31.7502 28.2487 33.2858 26.9732C40.128 21.2889 39.2493 11.697 31.4476 6.90881C28.3459 5.0052 24.2098 4.11917 20.4676 4.55655ZM19.6101 6.75755C14.9183 7.66049 11.038 10.8812 9.82321 14.8803C9.40665 16.2513 9.39922 18.9453 9.80814 20.3175C10.962 24.1895 14.7245 27.3994 19.3005 28.4158C20.8872 28.7683 24.0878 28.7667 25.6995 28.4128C30.3195 27.398 34.1077 24.1263 35.1832 20.2224C35.5863 18.7592 35.5861 16.5779 35.183 15.1187C34.1344 11.3238 30.4918 8.07569 26.0092 6.93839C24.3947 6.52883 21.2588 6.44008 19.6101 6.75755ZM22.0325 11.0205C21.8461 11.1962 21.4429 11.8132 21.1364 12.3916C20.0062 14.5243 19.3504 14.937 16.5451 15.2811C15.5972 15.3975 14.6917 15.5352 14.5325 15.5873C13.9031 15.7933 14.2594 16.4606 15.5997 17.5863C17.6662 19.3223 17.8462 19.7713 17.4082 22.1001C17.0934 23.7731 17.165 24.4483 17.6571 24.4483C17.8276 24.4483 18.7993 24.0918 19.8165 23.656C22.2612 22.6087 22.8146 22.6118 25.4473 23.6886C27.2541 24.4274 27.4987 24.4858 27.7799 24.246C28.061 24.0062 28.0577 23.7974 27.7493 22.2537C27.2824 19.9169 27.4426 19.4873 29.4356 17.7335C30.2757 16.994 30.9633 16.264 30.9633 16.1109C30.9633 15.6984 30.4138 15.5158 28.3005 15.2256C25.8081 14.8833 25.2879 14.5444 24.0011 12.4249C23.4594 11.5323 22.8709 10.7794 22.6936 10.7516C22.5165 10.7238 22.2189 10.8447 22.0325 11.0205Z"/>
</mask>
<path fill-rule="evenodd" clip-rule="evenodd" d="M20.9518 0.465324C20.3842 0.732614 19.3859 1.29519 18.7334 1.71549C17.3791 2.58797 16.9093 2.63939 14.5604 2.17137C11.9981 1.66091 11.3631 1.98912 10.2976 4.37519C9.91817 5.22513 9.38972 6.06204 9.07473 6.31207C8.76984 6.55418 7.71626 6.98716 6.73328 7.27435C4.40257 7.95525 3.87268 8.40584 3.8958 9.68647C3.9053 10.2033 4.00789 10.9028 4.1239 11.2411C4.23991 11.5795 4.33486 12.268 4.33486 12.7714C4.33486 13.5979 4.23578 13.7965 3.31018 14.827C0.780481 17.6421 0.783372 17.7561 3.46335 20.7625C4.39514 21.8077 4.45438 22.1552 4.04855 24.1883C3.56738 26.5983 3.82913 27.1047 5.91172 27.7921C6.48433 27.9812 6.88727 28.2186 6.85011 28.3454C6.8142 28.4674 5.25839 30.8092 3.39255 33.5494C1.5267 36.2897 0 38.7219 0 38.9545C0 39.1887 0.161216 39.4375 0.361239 39.5122C0.559817 39.5861 1.97649 39.7001 3.50917 39.765C7.277 39.9251 7.5344 40.0542 9.5014 42.769C10.9794 44.8089 11.3908 45.1679 11.9894 44.94C12.2516 44.8402 13.8228 42.7114 16.0062 39.4985C17.9785 36.5958 19.666 34.2208 19.756 34.2208C19.846 34.2208 20.3617 34.4465 20.9019 34.7226C22.2217 35.397 23.1176 35.382 24.3085 34.6661C24.8192 34.3592 25.3102 34.1729 25.3998 34.2523C25.4894 34.3319 27.0648 36.6155 28.9007 39.3271C30.7367 42.0388 32.464 44.4328 32.7392 44.6472C33.0308 44.8744 33.376 44.9922 33.5671 44.9296C33.7473 44.8707 34.5647 43.9422 35.3834 42.8665C37.6569 39.8795 37.6303 39.892 42.2133 39.6666C44.5942 39.5497 45 39.4284 45 38.8339C45 38.6348 43.464 36.2193 41.5866 33.4663C39.7094 30.7131 38.1534 28.3839 38.129 28.2902C38.1049 28.1966 38.5569 27.9666 39.1341 27.7794C40.6073 27.3015 41.1861 26.7282 41.1618 25.7711C41.1513 25.352 41.0227 24.5276 40.8763 23.9389C40.5617 22.6745 40.6841 21.6219 41.2126 21.0472C44.1795 17.8207 44.1805 17.8113 41.8859 15.1288C40.5175 13.5291 40.3856 13.0838 40.7694 11.3589C40.9391 10.5954 41.078 9.70831 41.078 9.38749C41.078 8.44757 40.2849 7.81756 38.4405 7.29284C35.8759 6.56298 35.69 6.4193 34.6867 4.39086C34.163 3.33226 33.5931 2.46542 33.2849 2.25853C32.6663 1.8435 31.7436 1.81868 30.0344 2.17066C27.8026 2.63041 27.238 2.55082 25.7289 1.56424C22.9962 -0.222446 22.6047 -0.312599 20.9518 0.465324ZM20.4676 4.55655C18.6736 4.76626 16.2438 5.48168 14.6461 6.27069C13.9137 6.63236 12.5238 7.60186 11.558 8.42503C10.1211 9.64967 9.6236 10.2258 8.82124 11.5945C7.45307 13.929 7.12734 15.1046 7.13869 17.6693C7.14963 20.1293 7.47826 21.3771 8.6689 23.4799C12.1434 29.6159 20.7667 32.4007 28.3118 29.8235C30.021 29.2397 31.7502 28.2487 33.2858 26.9732C40.128 21.2889 39.2493 11.697 31.4476 6.90881C28.3459 5.0052 24.2098 4.11917 20.4676 4.55655ZM19.6101 6.75755C14.9183 7.66049 11.038 10.8812 9.82321 14.8803C9.40665 16.2513 9.39922 18.9453 9.80814 20.3175C10.962 24.1895 14.7245 27.3994 19.3005 28.4158C20.8872 28.7683 24.0878 28.7667 25.6995 28.4128C30.3195 27.398 34.1077 24.1263 35.1832 20.2224C35.5863 18.7592 35.5861 16.5779 35.183 15.1187C34.1344 11.3238 30.4918 8.07569 26.0092 6.93839C24.3947 6.52883 21.2588 6.44008 19.6101 6.75755ZM22.0325 11.0205C21.8461 11.1962 21.4429 11.8132 21.1364 12.3916C20.0062 14.5243 19.3504 14.937 16.5451 15.2811C15.5972 15.3975 14.6917 15.5352 14.5325 15.5873C13.9031 15.7933 14.2594 16.4606 15.5997 17.5863C17.6662 19.3223 17.8462 19.7713 17.4082 22.1001C17.0934 23.7731 17.165 24.4483 17.6571 24.4483C17.8276 24.4483 18.7993 24.0918 19.8165 23.656C22.2612 22.6087 22.8146 22.6118 25.4473 23.6886C27.2541 24.4274 27.4987 24.4858 27.7799 24.246C28.061 24.0062 28.0577 23.7974 27.7493 22.2537C27.2824 19.9169 27.4426 19.4873 29.4356 17.7335C30.2757 16.994 30.9633 16.264 30.9633 16.1109C30.9633 15.6984 30.4138 15.5158 28.3005 15.2256C25.8081 14.8833 25.2879 14.5444 24.0011 12.4249C23.4594 11.5323 22.8709 10.7794 22.6936 10.7516C22.5165 10.7238 22.2189 10.8447 22.0325 11.0205Z" stroke="#5f56af" stroke-width="2" mask="url(#path-1-inside-1_219_8065)"/>
</svg>
