<svg width="32" height="32" viewBox="0 0 32 32" fill="none" xmlns="http://www.w3.org/2000/svg">
<path d="M0.83871 0.192978C0.0129032 0.552673 0 0.642596 0 4.7277C0 8.78712 0 8.79996 0.774194 9.1982C1.07097 9.35235 1.66452 9.39089 3.50968 9.39089H5.87097L6.90323 10.4186C7.47097 10.9838 8.02581 11.4463 8.14194 11.4463C8.70968 11.4463 8.77419 11.3178 8.77419 10.3415V9.39089H10.5161C11.8194 9.39089 12.3613 9.3395 12.6452 9.1982C13.4194 8.79996 13.4194 8.78712 13.4194 4.7277C13.4194 0.616904 13.4065 0.539826 12.5548 0.192978C11.9484 -0.0639467 1.41935 -0.0639467 0.83871 0.192978ZM12.129 1.29776C12.2968 1.40053 12.3226 1.92722 12.3613 4.48362C12.3871 6.35918 12.3484 7.68234 12.271 7.88788L12.129 8.23473H10.0903C8.67097 8.23473 8 8.28611 7.89677 8.38888C7.80645 8.47881 7.74194 8.77427 7.74194 9.05689V9.57074L7.05806 8.90273L6.37419 8.23473H3.83226H1.29032L1.14839 7.88788C1.07097 7.68234 1.03226 6.35918 1.05806 4.48362C1.09677 1.92722 1.12258 1.40053 1.29032 1.29776C1.40645 1.22068 3.63871 1.16929 6.70968 1.16929C9.78065 1.16929 12.0129 1.22068 12.129 1.29776Z" fill="#444444"/>
<path d="M2.06445 2.64653V3.22461H6.70961H11.3548V2.64653V2.06845H6.70961H2.06445V2.64653Z" fill="#444444"/>
<path d="M3.09668 4.70122V5.2793H6.70958H10.3225V4.70122V4.12313H6.70958H3.09668V4.70122Z" fill="#444444"/>
<path d="M2.06445 6.75688V7.33496H6.70961H11.3548V6.75688V6.1788H6.70961H2.06445V6.75688Z" fill="#444444"/>
<path d="M19.4198 2.24767C18.594 2.60736 18.5811 2.69728 18.5811 6.78239C18.5811 10.8418 18.5811 10.8547 19.3552 11.2529C19.6391 11.3942 20.1811 11.4456 21.4843 11.4456H23.2262V12.3962C23.2262 13.3725 23.2907 13.501 23.8585 13.501C23.9746 13.501 24.5294 13.0385 25.0972 12.4733L26.1294 11.4456H28.4907C30.3359 11.4456 30.9294 11.407 31.2262 11.2529C32.0004 10.8547 32.0004 10.8418 32.0004 6.78239C32.0004 2.67159 31.9875 2.59451 31.1359 2.24767C30.5294 1.99074 20.0004 1.99074 19.4198 2.24767ZM30.7101 3.35244C30.8778 3.45521 30.9036 3.98191 30.9423 6.53831C30.9682 8.41386 30.9294 9.73703 30.852 9.94257L30.7101 10.2894H28.1682H25.6262L24.9423 10.9574L24.2585 11.6254V11.1116C24.2585 10.829 24.194 10.5335 24.1036 10.4436C24.0004 10.3408 23.3294 10.2894 21.9101 10.2894H19.8714L19.7294 9.94257C19.652 9.73703 19.6133 8.41386 19.6391 6.53831C19.6778 3.98191 19.7036 3.45521 19.8714 3.35244C19.9875 3.27536 22.2198 3.22398 25.2907 3.22398C28.3617 3.22398 30.594 3.27536 30.7101 3.35244Z" fill="#444444"/>
<path d="M20.6455 4.70122V5.2793H25.2907H29.9358V4.70122V4.12313H25.2907H20.6455V4.70122Z" fill="#444444"/>
<path d="M21.6777 6.75688V7.33496H25.2906H28.9035V6.75688V6.1788H25.2906H21.6777V6.75688Z" fill="#444444"/>
<path d="M20.6455 8.81254V9.39062H25.2907H29.9358V8.81254V8.23446H25.2907H20.6455V8.81254Z" fill="#444444"/>
<path d="M15.2262 7.34805C14.4133 7.66921 13.9359 8.43998 13.9359 9.40345C13.9359 10.2256 14.2456 10.778 14.9682 11.1762C15.4198 11.4203 15.4843 11.5231 15.4843 11.9085V12.3452H13.3165C11.8069 12.3452 11.0972 12.3966 10.994 12.4994C10.9036 12.5893 10.8391 13.0132 10.8391 13.5271V14.4006H9.39396C7.72944 14.4006 7.1488 14.5291 6.58105 15.0044C5.91009 15.5697 5.67783 16.1734 5.67783 17.4195V18.5114H4.7746C3.71654 18.5114 3.11009 18.717 2.80041 19.1923C2.60686 19.4878 2.58105 19.9631 2.58105 23.226C2.58105 26.3733 2.60686 26.9771 2.78751 27.2212C3.12299 27.7094 3.65202 27.8892 4.71009 27.8892H5.67783V28.9683C5.67783 29.5721 5.74234 30.2144 5.81976 30.4199C6.01331 30.9338 6.55525 31.4733 7.1617 31.7559C7.65202 31.9743 8.16815 32 16.0004 32C23.8327 32 24.3488 31.9743 24.8391 31.7559C25.4456 31.4733 25.9875 30.9338 26.1811 30.4199C26.2585 30.2144 26.323 29.5721 26.323 28.9683V27.8892H27.2907C28.3488 27.8892 28.8778 27.7094 29.2133 27.2212C29.394 26.9771 29.4198 26.3733 29.4198 23.226C29.4198 19.9631 29.394 19.4878 29.2004 19.1923C28.8907 18.717 28.2843 18.5114 27.2262 18.5114H26.323V17.4195C26.323 16.1734 26.0907 15.5697 25.4198 15.0044C24.852 14.5291 24.2714 14.4006 22.6198 14.4006H21.1617V13.5271C21.1617 13.0132 21.0972 12.5893 21.0069 12.4994C20.9036 12.3966 20.194 12.3452 18.6843 12.3452H16.5165V11.9085C16.5165 11.5231 16.594 11.4203 17.0069 11.1891C17.2649 11.0349 17.6262 10.7138 17.794 10.4825C18.052 10.0971 18.0907 9.9173 18.0391 9.19791C18.0004 8.49137 17.9359 8.31152 17.6133 7.96467C16.9552 7.27097 16.0262 7.03974 15.2262 7.34805ZM16.5682 8.63268C16.994 8.96668 17.0198 9.57045 16.6198 9.99438C16.0649 10.5853 15.0972 10.1614 15.0972 9.31353C15.0972 8.86391 15.5746 8.36291 16.0004 8.36291C16.1294 8.36291 16.3746 8.47852 16.5682 8.63268ZM20.1294 13.951V14.4006H16.0004H11.8714V13.951V13.5014H16.0004H20.1294V13.951ZM24.323 15.7367C24.5552 15.8394 24.8649 16.0835 24.994 16.2762C25.2133 16.6102 25.2262 17.0598 25.2262 23.2003C25.2262 30.3428 25.252 30.1244 24.4778 30.5869C24.0778 30.831 23.7552 30.8438 16.0004 30.8438C8.24557 30.8438 7.92299 30.831 7.52299 30.5869C6.7488 30.1244 6.7746 30.3428 6.7746 23.2003C6.7746 17.0598 6.78751 16.6102 7.00686 16.2762C7.48428 15.5568 7.38105 15.5697 15.9746 15.5568C22.5165 15.5568 23.9617 15.5825 24.323 15.7367ZM5.67783 23.2003V26.733H4.7746C3.91009 26.733 3.85847 26.7202 3.72944 26.3862C3.65202 26.1806 3.61331 24.8575 3.63912 22.9819C3.67783 20.4255 3.70364 19.8988 3.87138 19.7961C3.9746 19.7318 4.42622 19.6676 4.87783 19.6676H5.67783V23.2003ZM28.1294 19.7961C28.2972 19.8988 28.323 20.4255 28.3617 22.9819C28.3875 24.8575 28.3488 26.1806 28.2714 26.3862C28.1423 26.7202 28.0907 26.733 27.2262 26.733H26.323V23.2003V19.6676H27.1359C27.5746 19.6676 28.0262 19.7318 28.1294 19.7961Z" fill="#444444"/>
<path d="M10.0647 18.6527C9.25183 18.9739 8.77441 19.7447 8.77441 20.721C8.77441 21.5303 9.05829 22.0313 9.76796 22.4552C10.7228 23.0333 12.0776 22.6993 12.6712 21.7487C12.8776 21.4018 12.9163 21.1706 12.8776 20.5026C12.8389 19.7961 12.7744 19.6162 12.4518 19.2694C11.7938 18.5757 10.8647 18.3444 10.0647 18.6527ZM11.4067 19.9374C11.8325 20.2714 11.8583 20.8751 11.4583 21.2991C10.9034 21.89 9.9357 21.4661 9.9357 20.6182C9.9357 20.1686 10.4131 19.6676 10.8389 19.6676C10.968 19.6676 11.2131 19.7832 11.4067 19.9374Z" fill="#444444"/>
<path d="M20.387 18.6527C19.5741 18.9739 19.0967 19.7447 19.0967 20.721C19.0967 21.5303 19.3806 22.0313 20.0902 22.4552C21.0451 23.0333 22.3999 22.6993 22.9935 21.7487C23.1999 21.4018 23.2386 21.1706 23.1999 20.5026C23.1612 19.7961 23.0967 19.6162 22.7741 19.2694C22.116 18.5757 21.187 18.3444 20.387 18.6527ZM21.7289 19.9374C22.1547 20.2714 22.1806 20.8751 21.7806 21.2991C21.2257 21.89 20.258 21.4661 20.258 20.6182C20.258 20.1686 20.7354 19.6676 21.1612 19.6676C21.2902 19.6676 21.5354 19.7832 21.7289 19.9374Z" fill="#444444"/>
<path d="M10.9676 23.8424C10.8643 23.9709 10.8256 24.3819 10.8643 25.0885C10.8901 25.9492 10.9805 26.3217 11.303 26.9897C12.3998 29.3021 15.045 30.4582 17.5224 29.7003C19.6643 29.058 21.045 27.3109 21.1353 25.0885C21.174 24.3819 21.1353 23.9709 21.0321 23.8424C20.8901 23.6754 20.1418 23.6497 15.9998 23.6497C11.8579 23.6497 11.1095 23.6754 10.9676 23.8424ZM19.9998 25.1656C19.9998 26.2703 18.9676 27.7348 17.7547 28.3771C17.1869 28.6726 16.9418 28.724 15.9998 28.724C15.0579 28.724 14.8127 28.6726 14.245 28.3771C13.0321 27.7348 11.9998 26.2703 11.9998 25.1656V24.8059H15.9998H19.9998V25.1656Z" fill="#444444"/>
</svg>
