<svg width="45" height="45" viewBox="0 0 45 45" fill="none" xmlns="http://www.w3.org/2000/svg">
<mask id="path-1-inside-1_219_8087" fill="white">
<path fill-rule="evenodd" clip-rule="evenodd" d="M21.7733 1.2555C21.4907 1.94608 21.1258 2.55894 20.9624 2.61741C20.799 2.67588 20.1034 2.72382 19.4167 2.72382C17.861 2.72382 17.8347 2.91612 19.2491 3.95808C19.8315 4.38735 20.308 4.88508 20.308 5.06413C20.308 5.24336 20.1777 5.79103 20.0184 6.28132C19.4934 7.89691 19.6157 7.95574 21.2913 6.89363L22.4477 6.16038L23.6041 6.89363C25.2797 7.95574 25.402 7.89691 24.877 6.28132C24.7177 5.79103 24.5874 5.24336 24.5874 5.06413C24.5874 4.88508 25.064 4.38735 25.6463 3.95808C27.0607 2.91612 27.0344 2.72382 25.4787 2.72382C24.792 2.72382 24.0964 2.67588 23.933 2.61741C23.7696 2.55894 23.4047 1.94608 23.1221 1.2555C22.8395 0.564921 22.536 0 22.4477 0C22.3594 0 22.056 0.564921 21.7733 1.2555ZM11.242 2.09135C11.184 2.28946 10.9409 2.90087 10.7016 3.45018C10.219 4.55786 10.0072 4.65973 8.10208 4.69986C7.54031 4.71167 7.08086 4.7863 7.08086 4.86565C7.08086 4.94483 7.51055 5.31581 8.03594 5.6897C9.48218 6.71931 9.47829 6.71114 9.12932 7.96827C8.96146 8.57296 8.77258 9.1929 8.70975 9.34598C8.52438 9.79686 8.9562 9.67102 10.2875 8.8862L11.5392 8.14804L12.7034 8.8862C14.4214 9.97518 14.4484 9.94776 13.7651 7.80829C13.6215 7.35886 13.5032 6.93467 13.5021 6.86548C13.5009 6.79648 14.0251 6.36267 14.667 5.90162C15.3089 5.44056 15.8341 4.98623 15.8341 4.89235C15.8341 4.79829 15.3747 4.71167 14.8129 4.69986C12.8574 4.65864 12.7162 4.58147 12.1928 3.26859C11.6413 1.88507 11.3927 1.57709 11.242 2.09135ZM33.157 2.20103C33.0481 2.43855 32.7927 3.0416 32.5896 3.54097C32.179 4.55005 31.9396 4.66082 30.0825 4.69986C29.5209 4.71167 29.0613 4.79102 29.0613 4.87601C29.0613 4.96117 29.5865 5.41605 30.2284 5.88691C30.8703 6.35758 31.3945 6.79866 31.3934 6.86694C31.3922 6.93522 31.2739 7.35886 31.1304 7.80829C30.4468 9.94831 30.4737 9.97555 32.1953 8.88402L33.3628 8.14387L34.6274 8.88402C36.0804 9.73458 36.3421 9.79178 36.1448 9.2156C35.934 8.60001 35.4852 7.00821 35.4827 6.86694C35.4813 6.79866 36.0055 6.35758 36.6474 5.88691C37.2894 5.41605 37.8146 4.96117 37.8146 4.87601C37.8146 4.79102 37.3549 4.71167 36.7933 4.69986C34.8063 4.65792 34.6708 4.58347 34.1119 3.22646C33.5025 1.74706 33.4105 1.64828 33.157 2.20103ZM21.3304 9.27298C19.8954 9.68101 18.7678 11.4322 19.0172 12.8662C19.2952 14.466 21.0676 15.7477 22.7564 15.5699C23.9562 15.4437 25.0309 14.7302 25.5608 13.7083C26.8603 11.2024 24.233 8.44784 21.3304 9.27298ZM11.0525 11.7976C10.83 11.8817 10.4176 12.2058 10.1363 12.5178C8.71384 14.096 9.83153 16.4034 12.0183 16.4034C13.029 16.4034 13.7493 16.0206 14.2866 15.1982C15.5188 13.3115 13.2793 10.9567 11.0525 11.7976ZM31.605 11.9425C30.4682 12.5278 29.9105 13.975 30.4472 14.9476C31.6083 17.0522 34.6614 16.8732 35.2989 14.6632C35.8779 12.656 33.5496 10.941 31.605 11.9425ZM20.6832 16.3981C17.7219 17.1819 15.8569 19.3756 15.6816 22.2816C15.5931 23.7474 15.6013 23.7802 16.1843 24.3245L16.7768 24.8776H22.4477H28.1187L28.7112 24.3245C29.293 23.7813 29.3021 23.7443 29.2198 22.2816C29.1494 21.0285 29.0329 20.611 28.4861 19.6537C27.7158 18.3046 26.6732 17.374 25.2507 16.766C23.9869 16.226 21.9531 16.062 20.6832 16.3981ZM10.4715 17.3891C8.82957 17.9362 7.67998 19.0059 7.23103 20.4045C7.01629 21.0735 7.03321 21.1354 7.53954 21.5422C8.05248 21.954 8.20089 21.9722 11.0572 21.9722H14.0393L14.1652 21.1881C14.2346 20.7568 14.5427 19.9075 14.8499 19.301L15.4087 18.198L14.4867 17.7295C13.2348 17.0934 11.7395 16.9667 10.4715 17.3891ZM31.6725 17.24C31.3436 17.3135 30.7178 17.5607 30.2823 17.7893L29.4902 18.2048L30.0471 19.3043C30.3535 19.9091 30.6608 20.7568 30.7302 21.1881L30.8561 21.9722H33.8382C36.6945 21.9722 36.8429 21.954 37.3559 21.5422C37.8622 21.1354 37.8791 21.0735 37.6644 20.4045C36.9361 18.1352 34.1806 16.68 31.6725 17.24ZM16.1259 27.1794C15.9119 27.2237 15.3867 27.3844 14.9588 27.5366C13.9329 27.901 6.67335 31.8141 6.56773 32.0596C6.50412 32.2068 10.9228 39.7415 11.298 40.1259C11.3441 40.1729 11.8055 39.9892 12.3237 39.7173C12.8417 39.4455 13.4713 39.2232 13.723 39.2232C13.9747 39.2234 16.9818 39.8019 20.4053 40.5089C27.0296 41.8768 27.9062 41.9554 29.2825 41.3051C29.6423 41.1352 33.2049 39.1057 37.1995 36.7956C42.2951 33.8484 44.5443 32.4487 44.737 32.1048C45.1502 31.3672 45.0739 30.6038 44.5266 29.9964C43.9224 29.3263 43.0729 29.1661 41.8022 29.4827C40.5993 29.7825 40.2054 29.9726 35.4158 32.5657C31.2253 34.8344 30.2934 35.1566 28.4028 34.9891C26.9833 34.8637 20.5907 33.3434 20.1958 33.0374C19.8338 32.7569 19.8429 32.2444 20.2154 31.9559C20.459 31.7672 21.0571 31.8645 23.5708 32.5019C27.2406 33.4324 27.9809 33.4749 28.6108 32.7914C29.1992 32.1527 29.2046 31.225 28.6236 30.604C28.2879 30.2451 27.7333 30.034 26.2408 29.6966C25.1709 29.4547 22.7515 28.7617 20.8641 28.1567C17.5998 27.1102 17.0283 26.9924 16.1259 27.1794ZM1.43987 30.8718C0.744474 31.2593 0.0990662 31.6879 0.00569801 31.8237C-0.239393 32.1805 7.50102 44.9229 8.00774 44.997C8.53858 45.0747 11.1663 43.6182 11.1634 43.2478C11.162 43.0816 9.42441 40.0856 7.30184 36.59C4.49029 31.9595 3.34264 30.2252 3.07343 30.2007C2.87035 30.1821 2.13527 30.4841 1.43987 30.8718ZM1.97479 31.7925C1.43715 32.0848 1.52857 33.0118 2.1199 33.2633C2.521 33.434 2.67311 33.4126 2.99523 33.1406C3.48036 32.7305 3.49242 32.2882 3.02927 31.8969C2.62098 31.5518 2.44864 31.5348 1.97479 31.7925Z"/>
</mask>
<path fill-rule="evenodd" clip-rule="evenodd" d="M21.7733 1.2555C21.4907 1.94608 21.1258 2.55894 20.9624 2.61741C20.799 2.67588 20.1034 2.72382 19.4167 2.72382C17.861 2.72382 17.8347 2.91612 19.2491 3.95808C19.8315 4.38735 20.308 4.88508 20.308 5.06413C20.308 5.24336 20.1777 5.79103 20.0184 6.28132C19.4934 7.89691 19.6157 7.95574 21.2913 6.89363L22.4477 6.16038L23.6041 6.89363C25.2797 7.95574 25.402 7.89691 24.877 6.28132C24.7177 5.79103 24.5874 5.24336 24.5874 5.06413C24.5874 4.88508 25.064 4.38735 25.6463 3.95808C27.0607 2.91612 27.0344 2.72382 25.4787 2.72382C24.792 2.72382 24.0964 2.67588 23.933 2.61741C23.7696 2.55894 23.4047 1.94608 23.1221 1.2555C22.8395 0.564921 22.536 0 22.4477 0C22.3594 0 22.056 0.564921 21.7733 1.2555ZM11.242 2.09135C11.184 2.28946 10.9409 2.90087 10.7016 3.45018C10.219 4.55786 10.0072 4.65973 8.10208 4.69986C7.54031 4.71167 7.08086 4.7863 7.08086 4.86565C7.08086 4.94483 7.51055 5.31581 8.03594 5.6897C9.48218 6.71931 9.47829 6.71114 9.12932 7.96827C8.96146 8.57296 8.77258 9.1929 8.70975 9.34598C8.52438 9.79686 8.9562 9.67102 10.2875 8.8862L11.5392 8.14804L12.7034 8.8862C14.4214 9.97518 14.4484 9.94776 13.7651 7.80829C13.6215 7.35886 13.5032 6.93467 13.5021 6.86548C13.5009 6.79648 14.0251 6.36267 14.667 5.90162C15.3089 5.44056 15.8341 4.98623 15.8341 4.89235C15.8341 4.79829 15.3747 4.71167 14.8129 4.69986C12.8574 4.65864 12.7162 4.58147 12.1928 3.26859C11.6413 1.88507 11.3927 1.57709 11.242 2.09135ZM33.157 2.20103C33.0481 2.43855 32.7927 3.0416 32.5896 3.54097C32.179 4.55005 31.9396 4.66082 30.0825 4.69986C29.5209 4.71167 29.0613 4.79102 29.0613 4.87601C29.0613 4.96117 29.5865 5.41605 30.2284 5.88691C30.8703 6.35758 31.3945 6.79866 31.3934 6.86694C31.3922 6.93522 31.2739 7.35886 31.1304 7.80829C30.4468 9.94831 30.4737 9.97555 32.1953 8.88402L33.3628 8.14387L34.6274 8.88402C36.0804 9.73458 36.3421 9.79178 36.1448 9.2156C35.934 8.60001 35.4852 7.00821 35.4827 6.86694C35.4813 6.79866 36.0055 6.35758 36.6474 5.88691C37.2894 5.41605 37.8146 4.96117 37.8146 4.87601C37.8146 4.79102 37.3549 4.71167 36.7933 4.69986C34.8063 4.65792 34.6708 4.58347 34.1119 3.22646C33.5025 1.74706 33.4105 1.64828 33.157 2.20103ZM21.3304 9.27298C19.8954 9.68101 18.7678 11.4322 19.0172 12.8662C19.2952 14.466 21.0676 15.7477 22.7564 15.5699C23.9562 15.4437 25.0309 14.7302 25.5608 13.7083C26.8603 11.2024 24.233 8.44784 21.3304 9.27298ZM11.0525 11.7976C10.83 11.8817 10.4176 12.2058 10.1363 12.5178C8.71384 14.096 9.83153 16.4034 12.0183 16.4034C13.029 16.4034 13.7493 16.0206 14.2866 15.1982C15.5188 13.3115 13.2793 10.9567 11.0525 11.7976ZM31.605 11.9425C30.4682 12.5278 29.9105 13.975 30.4472 14.9476C31.6083 17.0522 34.6614 16.8732 35.2989 14.6632C35.8779 12.656 33.5496 10.941 31.605 11.9425ZM20.6832 16.3981C17.7219 17.1819 15.8569 19.3756 15.6816 22.2816C15.5931 23.7474 15.6013 23.7802 16.1843 24.3245L16.7768 24.8776H22.4477H28.1187L28.7112 24.3245C29.293 23.7813 29.3021 23.7443 29.2198 22.2816C29.1494 21.0285 29.0329 20.611 28.4861 19.6537C27.7158 18.3046 26.6732 17.374 25.2507 16.766C23.9869 16.226 21.9531 16.062 20.6832 16.3981ZM10.4715 17.3891C8.82957 17.9362 7.67998 19.0059 7.23103 20.4045C7.01629 21.0735 7.03321 21.1354 7.53954 21.5422C8.05248 21.954 8.20089 21.9722 11.0572 21.9722H14.0393L14.1652 21.1881C14.2346 20.7568 14.5427 19.9075 14.8499 19.301L15.4087 18.198L14.4867 17.7295C13.2348 17.0934 11.7395 16.9667 10.4715 17.3891ZM31.6725 17.24C31.3436 17.3135 30.7178 17.5607 30.2823 17.7893L29.4902 18.2048L30.0471 19.3043C30.3535 19.9091 30.6608 20.7568 30.7302 21.1881L30.8561 21.9722H33.8382C36.6945 21.9722 36.8429 21.954 37.3559 21.5422C37.8622 21.1354 37.8791 21.0735 37.6644 20.4045C36.9361 18.1352 34.1806 16.68 31.6725 17.24ZM16.1259 27.1794C15.9119 27.2237 15.3867 27.3844 14.9588 27.5366C13.9329 27.901 6.67335 31.8141 6.56773 32.0596C6.50412 32.2068 10.9228 39.7415 11.298 40.1259C11.3441 40.1729 11.8055 39.9892 12.3237 39.7173C12.8417 39.4455 13.4713 39.2232 13.723 39.2232C13.9747 39.2234 16.9818 39.8019 20.4053 40.5089C27.0296 41.8768 27.9062 41.9554 29.2825 41.3051C29.6423 41.1352 33.2049 39.1057 37.1995 36.7956C42.2951 33.8484 44.5443 32.4487 44.737 32.1048C45.1502 31.3672 45.0739 30.6038 44.5266 29.9964C43.9224 29.3263 43.0729 29.1661 41.8022 29.4827C40.5993 29.7825 40.2054 29.9726 35.4158 32.5657C31.2253 34.8344 30.2934 35.1566 28.4028 34.9891C26.9833 34.8637 20.5907 33.3434 20.1958 33.0374C19.8338 32.7569 19.8429 32.2444 20.2154 31.9559C20.459 31.7672 21.0571 31.8645 23.5708 32.5019C27.2406 33.4324 27.9809 33.4749 28.6108 32.7914C29.1992 32.1527 29.2046 31.225 28.6236 30.604C28.2879 30.2451 27.7333 30.034 26.2408 29.6966C25.1709 29.4547 22.7515 28.7617 20.8641 28.1567C17.5998 27.1102 17.0283 26.9924 16.1259 27.1794ZM1.43987 30.8718C0.744474 31.2593 0.0990662 31.6879 0.00569801 31.8237C-0.239393 32.1805 7.50102 44.9229 8.00774 44.997C8.53858 45.0747 11.1663 43.6182 11.1634 43.2478C11.162 43.0816 9.42441 40.0856 7.30184 36.59C4.49029 31.9595 3.34264 30.2252 3.07343 30.2007C2.87035 30.1821 2.13527 30.4841 1.43987 30.8718ZM1.97479 31.7925C1.43715 32.0848 1.52857 33.0118 2.1199 33.2633C2.521 33.434 2.67311 33.4126 2.99523 33.1406C3.48036 32.7305 3.49242 32.2882 3.02927 31.8969C2.62098 31.5518 2.44864 31.5348 1.97479 31.7925Z" stroke="#444444" stroke-width="2" mask="url(#path-1-inside-1_219_8087)"/>
</svg>
