<svg width="47" height="47" viewBox="0 0 47 47" fill="none" xmlns="http://www.w3.org/2000/svg">
<mask id="path-1-outside-1_219_8083" maskUnits="userSpaceOnUse" x="0" y="0" width="47" height="47" fill="black">
<rect fill="white" width="47" height="47"/>
<path fill-rule="evenodd" clip-rule="evenodd" d="M17.6641 4.78173L12.092 8.55618L12.083 21.3777L12.0742 34.1991L11.2959 34.6838C10.8677 34.9502 10.4721 35.1684 10.417 35.1684C10.3616 35.1684 10.3164 33.3128 10.3164 31.0451V26.9216L9.7924 27.0439L9.2684 27.1662L9.22111 22.9906L9.17383 18.8152L5.43848 20.5701L1.70312 22.3249V26.493C1.70312 30.4971 1.68924 30.6658 1.35156 30.7797C1.00756 30.8957 1 31.0623 1 38.449V46H12.25H23.5V23.4964C23.5 11.1194 23.4406 0.995893 23.3682 1C23.2957 1.00392 20.7288 2.70561 17.6641 4.78173ZM24.5547 23.487V46H29.2129H33.8711V26.7139V7.42801L29.45 4.35034C27.0184 2.6578 24.9222 1.20562 24.7918 1.12344C24.5934 0.998507 24.5547 4.64559 24.5547 23.487ZM19.9404 5.69178L18.0508 7.00595V8.76142C18.0508 9.72712 18.1102 10.5126 18.1826 10.507C18.255 10.5014 19.145 9.92825 20.1602 9.23335L22.0059 7.96978L22.0561 6.16202C22.0839 5.16775 22.0444 4.35949 21.9682 4.36584C21.8923 4.37237 20.9796 4.96886 19.9404 5.69178ZM15.0207 9.08208L13.3087 10.237L13.3068 11.9644C13.3056 12.9146 13.3416 13.6919 13.3868 13.6919C13.5042 13.6919 16.336 11.8047 16.6076 11.5457C16.769 11.3916 16.8196 10.8389 16.7834 9.62814L16.7324 7.9272L15.0207 9.08208ZM20.0283 11.5483L18.0508 12.9333V14.7242C18.0508 16.106 18.1011 16.4836 18.2705 16.3772C18.3914 16.3014 19.3009 15.7013 20.292 15.0438L22.0938 13.8486V11.996C22.0938 10.9772 22.0741 10.1481 22.0498 10.1535C22.0255 10.1589 21.1161 10.7866 20.0283 11.5483ZM14.9307 15.0361L13.3047 16.162V17.9366V19.7109L13.7144 19.4257C13.9398 19.2687 14.7308 18.7426 15.4722 18.2565L16.8203 17.3728V15.6257C16.8203 14.6648 16.7609 13.8857 16.6885 13.8943C16.6161 13.9029 15.825 14.4167 14.9307 15.0361ZM20.0236 17.4736L18.0518 18.8276L18.0513 20.6407L18.0508 22.4541L20.0717 21.1076L22.0927 19.7613L22.0932 17.9405C22.0936 16.9391 22.0716 16.1196 22.0447 16.1196C22.0176 16.1196 21.1081 16.729 20.0236 17.4736ZM15.0186 20.8925L13.3047 22.0896V23.7733C13.3047 24.6994 13.3525 25.4573 13.4109 25.4573C13.4692 25.4573 14.2574 24.9739 15.1623 24.3834L16.8077 23.3096L16.814 21.4888C16.8175 20.4874 16.8006 19.6741 16.7764 19.6818C16.7521 19.6894 15.9611 20.2342 15.0186 20.8925ZM6.75684 21.7642L5.57031 22.3359V23.8966C5.57031 24.7549 5.64203 25.4573 5.72975 25.4573C5.81746 25.4573 6.41072 25.2087 7.04811 24.9048L8.20703 24.3524V22.7572C8.20703 21.8798 8.14779 21.1689 8.0752 21.1773C8.0026 21.1857 7.40934 21.4497 6.75684 21.7642ZM19.9404 23.431L18.0508 24.7523V26.5053C18.0508 27.4697 18.0868 28.2585 18.1309 28.2585C18.1749 28.2585 19.0649 27.6863 20.1085 26.9868L22.0059 25.7152L22.0561 23.9053C22.0839 22.9101 22.0444 22.0989 21.9682 22.1028C21.8923 22.1067 20.9796 22.7043 19.9404 23.431ZM3.68066 23.3048L2.40625 23.9399V25.5546C2.40625 26.4426 2.46988 27.1412 2.54758 27.1068C2.62545 27.0727 3.21871 26.8009 3.86594 26.5031L5.04297 25.9615V24.3087C5.04297 23.3996 5.02311 22.659 4.99902 22.6627C4.97494 22.6664 4.38168 22.9553 3.68066 23.3048ZM15.0189 26.8148L13.3054 27.9784L13.305 29.7169C13.3047 31.0529 13.3555 31.4251 13.5244 31.3246C13.6454 31.2526 14.4364 30.736 15.2822 30.1763L16.8203 29.1589V27.4015C16.8203 26.4349 16.8006 25.6457 16.7764 25.6476C16.7521 25.6496 15.9613 26.1748 15.0189 26.8148ZM7.02051 27.0458L5.74609 27.6762V29.2946C5.74609 30.5149 5.80006 30.8899 5.96582 30.8191C6.08676 30.7674 6.68002 30.4953 7.28418 30.2144L8.38281 29.7038V28.0473C8.38281 27.1363 8.36312 26.3964 8.33887 26.4032C8.31461 26.4099 7.72135 26.699 7.02051 27.0458ZM20.0371 29.2478L18.0684 30.5929L18.0596 32.4353L18.0508 34.2776L18.4463 34.003C18.6637 33.852 19.5734 33.2456 20.4678 32.6554L22.0938 31.5824V29.7337C22.0938 28.717 22.0741 27.889 22.0498 27.8938C22.0255 27.8987 21.1199 28.508 20.0371 29.2478ZM3.76855 28.663L2.58203 29.2508V30.8088C2.58203 31.6658 2.65023 32.3671 2.73355 32.3671C2.81688 32.3671 3.41014 32.1142 4.05191 31.805L5.21875 31.2428V29.6573C5.21875 28.7854 5.15951 28.0725 5.08691 28.0735C5.01432 28.0744 4.42105 28.3398 3.76855 28.663ZM34.5742 37.316V45.8132H40.2871H46V39.2168V32.6203L40.4045 30.7196C37.3271 29.6741 34.7563 28.8188 34.6916 28.8188C34.6271 28.8188 34.5742 32.6425 34.5742 37.316ZM7.28418 31.8489L6.09766 32.4205V33.9812C6.09766 34.8395 6.16937 35.5419 6.25709 35.5419C6.3448 35.5419 6.93807 35.2933 7.57545 34.9895L8.73438 34.437V32.8418C8.73438 31.9645 8.67514 31.2535 8.60254 31.2619C8.52994 31.2703 7.93668 31.5344 7.28418 31.8489ZM14.9307 32.7716L13.3047 33.8975V35.6547V37.412L14.667 36.5063C15.4163 36.0082 16.2074 35.4831 16.4248 35.3396C16.7888 35.0993 16.8203 34.9407 16.8203 33.3492C16.8203 32.3983 16.7609 31.6259 16.6885 31.633C16.6161 31.6401 15.825 32.1523 14.9307 32.7716ZM36.0177 33.8236L36.0684 35.4336L37.2988 35.8298C37.9756 36.048 38.7469 36.284 39.0127 36.3544L39.4961 36.4827V35.0896C39.4961 34.3233 39.4196 33.6462 39.3263 33.5849C39.2329 33.5236 38.4389 33.1901 37.562 32.8435L35.9673 32.2138L36.0177 33.8236ZM3.94469 33.3653L2.75869 33.9545L2.75816 35.5779L2.75781 37.2014L3.98828 36.6239L5.21875 36.0465V34.3935C5.21875 33.4844 5.19889 32.7486 5.1748 32.7583C5.15072 32.7682 4.59719 33.0413 3.94469 33.3653ZM40.375 35.2268V36.7795L41.8252 37.2184C42.6227 37.4596 43.3744 37.6944 43.4951 37.74C43.6591 37.8018 43.7148 37.4449 43.7148 36.3345V34.846L42.1734 34.2602C41.3256 33.938 40.5742 33.6744 40.5035 33.6744C40.4328 33.6744 40.375 34.373 40.375 35.2268ZM7.19629 36.8809L6.09766 37.4425V39.0259C6.09766 40.8316 5.98533 40.7734 7.78269 39.8992L8.73438 39.4362V37.8626C8.73438 36.7201 8.67426 36.293 8.51465 36.3042C8.39389 36.3124 7.80062 36.572 7.19629 36.8809ZM3.94434 38.3742L2.75781 38.9619V40.5199C2.75781 41.3769 2.81723 42.0782 2.88965 42.0782C2.96207 42.0782 3.51596 41.8494 4.12012 41.5699L5.21875 41.0613V39.422C5.21875 38.5206 5.19889 37.7836 5.1748 37.7846C5.15072 37.7855 4.59684 38.0509 3.94434 38.3742ZM36.0176 39.4125L36.0684 41.0335L37.6877 41.5318C38.5783 41.8057 39.3497 41.9848 39.4015 41.9295C39.601 41.7176 39.4933 39.3204 39.2764 39.1445C39.1556 39.0465 38.3614 38.7021 37.5117 38.379L35.9669 37.7915L36.0176 39.4125ZM40.375 40.835V42.3931L41.7879 42.8045C42.5651 43.0308 43.3165 43.263 43.4579 43.3207C43.67 43.4071 43.7148 43.166 43.7148 41.9363V40.4473L42.2028 39.862C41.3712 39.5402 40.6197 39.2769 40.5329 39.2769C40.446 39.2769 40.375 39.978 40.375 40.835Z"/>
</mask>
<path fill-rule="evenodd" clip-rule="evenodd" d="M17.6641 4.78173L12.092 8.55618L12.083 21.3777L12.0742 34.1991L11.2959 34.6838C10.8677 34.9502 10.4721 35.1684 10.417 35.1684C10.3616 35.1684 10.3164 33.3128 10.3164 31.0451V26.9216L9.7924 27.0439L9.2684 27.1662L9.22111 22.9906L9.17383 18.8152L5.43848 20.5701L1.70312 22.3249V26.493C1.70312 30.4971 1.68924 30.6658 1.35156 30.7797C1.00756 30.8957 1 31.0623 1 38.449V46H12.25H23.5V23.4964C23.5 11.1194 23.4406 0.995893 23.3682 1C23.2957 1.00392 20.7288 2.70561 17.6641 4.78173ZM24.5547 23.487V46H29.2129H33.8711V26.7139V7.42801L29.45 4.35034C27.0184 2.6578 24.9222 1.20562 24.7918 1.12344C24.5934 0.998507 24.5547 4.64559 24.5547 23.487ZM19.9404 5.69178L18.0508 7.00595V8.76142C18.0508 9.72712 18.1102 10.5126 18.1826 10.507C18.255 10.5014 19.145 9.92825 20.1602 9.23335L22.0059 7.96978L22.0561 6.16202C22.0839 5.16775 22.0444 4.35949 21.9682 4.36584C21.8923 4.37237 20.9796 4.96886 19.9404 5.69178ZM15.0207 9.08208L13.3087 10.237L13.3068 11.9644C13.3056 12.9146 13.3416 13.6919 13.3868 13.6919C13.5042 13.6919 16.336 11.8047 16.6076 11.5457C16.769 11.3916 16.8196 10.8389 16.7834 9.62814L16.7324 7.9272L15.0207 9.08208ZM20.0283 11.5483L18.0508 12.9333V14.7242C18.0508 16.106 18.1011 16.4836 18.2705 16.3772C18.3914 16.3014 19.3009 15.7013 20.292 15.0438L22.0938 13.8486V11.996C22.0938 10.9772 22.0741 10.1481 22.0498 10.1535C22.0255 10.1589 21.1161 10.7866 20.0283 11.5483ZM14.9307 15.0361L13.3047 16.162V17.9366V19.7109L13.7144 19.4257C13.9398 19.2687 14.7308 18.7426 15.4722 18.2565L16.8203 17.3728V15.6257C16.8203 14.6648 16.7609 13.8857 16.6885 13.8943C16.6161 13.9029 15.825 14.4167 14.9307 15.0361ZM20.0236 17.4736L18.0518 18.8276L18.0513 20.6407L18.0508 22.4541L20.0717 21.1076L22.0927 19.7613L22.0932 17.9405C22.0936 16.9391 22.0716 16.1196 22.0447 16.1196C22.0176 16.1196 21.1081 16.729 20.0236 17.4736ZM15.0186 20.8925L13.3047 22.0896V23.7733C13.3047 24.6994 13.3525 25.4573 13.4109 25.4573C13.4692 25.4573 14.2574 24.9739 15.1623 24.3834L16.8077 23.3096L16.814 21.4888C16.8175 20.4874 16.8006 19.6741 16.7764 19.6818C16.7521 19.6894 15.9611 20.2342 15.0186 20.8925ZM6.75684 21.7642L5.57031 22.3359V23.8966C5.57031 24.7549 5.64203 25.4573 5.72975 25.4573C5.81746 25.4573 6.41072 25.2087 7.04811 24.9048L8.20703 24.3524V22.7572C8.20703 21.8798 8.14779 21.1689 8.0752 21.1773C8.0026 21.1857 7.40934 21.4497 6.75684 21.7642ZM19.9404 23.431L18.0508 24.7523V26.5053C18.0508 27.4697 18.0868 28.2585 18.1309 28.2585C18.1749 28.2585 19.0649 27.6863 20.1085 26.9868L22.0059 25.7152L22.0561 23.9053C22.0839 22.9101 22.0444 22.0989 21.9682 22.1028C21.8923 22.1067 20.9796 22.7043 19.9404 23.431ZM3.68066 23.3048L2.40625 23.9399V25.5546C2.40625 26.4426 2.46988 27.1412 2.54758 27.1068C2.62545 27.0727 3.21871 26.8009 3.86594 26.5031L5.04297 25.9615V24.3087C5.04297 23.3996 5.02311 22.659 4.99902 22.6627C4.97494 22.6664 4.38168 22.9553 3.68066 23.3048ZM15.0189 26.8148L13.3054 27.9784L13.305 29.7169C13.3047 31.0529 13.3555 31.4251 13.5244 31.3246C13.6454 31.2526 14.4364 30.736 15.2822 30.1763L16.8203 29.1589V27.4015C16.8203 26.4349 16.8006 25.6457 16.7764 25.6476C16.7521 25.6496 15.9613 26.1748 15.0189 26.8148ZM7.02051 27.0458L5.74609 27.6762V29.2946C5.74609 30.5149 5.80006 30.8899 5.96582 30.8191C6.08676 30.7674 6.68002 30.4953 7.28418 30.2144L8.38281 29.7038V28.0473C8.38281 27.1363 8.36312 26.3964 8.33887 26.4032C8.31461 26.4099 7.72135 26.699 7.02051 27.0458ZM20.0371 29.2478L18.0684 30.5929L18.0596 32.4353L18.0508 34.2776L18.4463 34.003C18.6637 33.852 19.5734 33.2456 20.4678 32.6554L22.0938 31.5824V29.7337C22.0938 28.717 22.0741 27.889 22.0498 27.8938C22.0255 27.8987 21.1199 28.508 20.0371 29.2478ZM3.76855 28.663L2.58203 29.2508V30.8088C2.58203 31.6658 2.65023 32.3671 2.73355 32.3671C2.81688 32.3671 3.41014 32.1142 4.05191 31.805L5.21875 31.2428V29.6573C5.21875 28.7854 5.15951 28.0725 5.08691 28.0735C5.01432 28.0744 4.42105 28.3398 3.76855 28.663ZM34.5742 37.316V45.8132H40.2871H46V39.2168V32.6203L40.4045 30.7196C37.3271 29.6741 34.7563 28.8188 34.6916 28.8188C34.6271 28.8188 34.5742 32.6425 34.5742 37.316ZM7.28418 31.8489L6.09766 32.4205V33.9812C6.09766 34.8395 6.16937 35.5419 6.25709 35.5419C6.3448 35.5419 6.93807 35.2933 7.57545 34.9895L8.73438 34.437V32.8418C8.73438 31.9645 8.67514 31.2535 8.60254 31.2619C8.52994 31.2703 7.93668 31.5344 7.28418 31.8489ZM14.9307 32.7716L13.3047 33.8975V35.6547V37.412L14.667 36.5063C15.4163 36.0082 16.2074 35.4831 16.4248 35.3396C16.7888 35.0993 16.8203 34.9407 16.8203 33.3492C16.8203 32.3983 16.7609 31.6259 16.6885 31.633C16.6161 31.6401 15.825 32.1523 14.9307 32.7716ZM36.0177 33.8236L36.0684 35.4336L37.2988 35.8298C37.9756 36.048 38.7469 36.284 39.0127 36.3544L39.4961 36.4827V35.0896C39.4961 34.3233 39.4196 33.6462 39.3263 33.5849C39.2329 33.5236 38.4389 33.1901 37.562 32.8435L35.9673 32.2138L36.0177 33.8236ZM3.94469 33.3653L2.75869 33.9545L2.75816 35.5779L2.75781 37.2014L3.98828 36.6239L5.21875 36.0465V34.3935C5.21875 33.4844 5.19889 32.7486 5.1748 32.7583C5.15072 32.7682 4.59719 33.0413 3.94469 33.3653ZM40.375 35.2268V36.7795L41.8252 37.2184C42.6227 37.4596 43.3744 37.6944 43.4951 37.74C43.6591 37.8018 43.7148 37.4449 43.7148 36.3345V34.846L42.1734 34.2602C41.3256 33.938 40.5742 33.6744 40.5035 33.6744C40.4328 33.6744 40.375 34.373 40.375 35.2268ZM7.19629 36.8809L6.09766 37.4425V39.0259C6.09766 40.8316 5.98533 40.7734 7.78269 39.8992L8.73438 39.4362V37.8626C8.73438 36.7201 8.67426 36.293 8.51465 36.3042C8.39389 36.3124 7.80062 36.572 7.19629 36.8809ZM3.94434 38.3742L2.75781 38.9619V40.5199C2.75781 41.3769 2.81723 42.0782 2.88965 42.0782C2.96207 42.0782 3.51596 41.8494 4.12012 41.5699L5.21875 41.0613V39.422C5.21875 38.5206 5.19889 37.7836 5.1748 37.7846C5.15072 37.7855 4.59684 38.0509 3.94434 38.3742ZM36.0176 39.4125L36.0684 41.0335L37.6877 41.5318C38.5783 41.8057 39.3497 41.9848 39.4015 41.9295C39.601 41.7176 39.4933 39.3204 39.2764 39.1445C39.1556 39.0465 38.3614 38.7021 37.5117 38.379L35.9669 37.7915L36.0176 39.4125ZM40.375 40.835V42.3931L41.7879 42.8045C42.5651 43.0308 43.3165 43.263 43.4579 43.3207C43.67 43.4071 43.7148 43.166 43.7148 41.9363V40.4473L42.2028 39.862C41.3712 39.5402 40.6197 39.2769 40.5329 39.2769C40.446 39.2769 40.375 39.978 40.375 40.835Z" stroke="#5f56af" stroke-width="2" mask="url(#path-1-outside-1_219_8083)"/>
</svg>
