<svg width="32" height="32" viewBox="0 0 32 32" fill="none" xmlns="http://www.w3.org/2000/svg">
<mask id="path-1-inside-1_291_5166" fill="white">
<path fill-rule="evenodd" clip-rule="evenodd" d="M6.40731 0.0827986C3.47452 0.489871 0.984138 2.40813 0.253286 4.82281C-0.0898505 5.95658 -0.0819322 21.4212 0.262378 22.4298C0.977539 24.5249 2.73927 26.115 5.16087 26.8508L6.26067 27.185L6.30525 27.8372C6.34338 28.3957 6.40144 28.5063 6.70851 28.6068C7.03449 28.7135 7.06719 28.7938 7.06719 29.4884C7.06719 30.4156 7.31501 30.9664 7.93368 31.4144C8.65456 31.9364 9.35858 32.0367 11.9673 31.9897C14.6854 31.9404 15.1907 31.8062 15.842 30.9602C16.2215 30.4674 16.2342 30.3886 16.3055 28.0808C16.3753 25.8225 16.3949 25.6943 16.7127 25.4211L17.0466 25.1342L24.3278 25.0991C29.3307 25.0751 31.6695 25.0208 31.8025 24.9259C32.0563 24.7446 32.05 24.2573 31.7914 24.0726C31.6409 23.9652 29.6105 23.936 24.1063 23.9625L16.6257 23.9985L16.0624 24.386C15.0764 25.0642 14.9862 25.3507 14.986 27.8059C14.9857 29.953 14.9822 29.9765 14.6061 30.3611L14.2264 30.7494H11.6667C9.14434 30.7494 9.10152 30.7448 8.74695 30.4396C8.2255 29.9909 8.22901 28.9483 8.75354 28.53C9.0282 28.311 9.12014 28.1097 9.12014 27.727V27.2162H10.213C12.4166 27.2162 12.5505 27.0271 12.6166 23.8244C12.675 20.9936 12.6012 20.3984 12.1334 19.9305C11.8174 19.6144 11.6882 19.5848 10.3465 19.5207C8.74695 19.4442 8.36055 19.316 7.93969 18.7222C7.67134 18.3434 7.65477 18.052 7.65433 13.6788C7.65375 8.69946 7.69055 8.41958 8.4041 7.98954C8.5918 7.87635 8.7968 7.78373 8.85956 7.78373C8.92218 7.78373 8.9735 10.0006 8.9735 12.71C8.9735 17.3186 8.99169 17.6668 9.25505 18.1111C9.4099 18.3722 9.70993 18.6539 9.92182 18.737C10.2091 18.8496 12.8982 18.888 20.4989 18.888C31.7557 18.888 31.2957 18.9208 31.7562 18.0858C31.9667 17.7041 31.9959 16.9797 31.9959 12.1446C31.9959 4.89208 32.2792 5.38622 28.1214 5.38622H25.5806L25.5168 4.3452C25.4375 3.05092 24.9666 2.09671 24.0142 1.30023C21.4449 -0.848572 17.2506 -0.196575 15.7469 2.58542C15.4516 3.13168 15.3453 3.55402 15.3036 4.3452L15.2489 5.38622H13.9441H12.6395L12.6386 3.4619C12.6377 1.31891 12.5219 0.77732 11.9683 0.32949C11.605 0.0354793 11.5019 0.0224822 9.36518 0.00216648C8.14162 -0.00944253 6.81057 0.0267725 6.40731 0.0827986ZM9.88766 3.84046L9.92666 7.2159L10.6876 7.21098C11.2181 7.20745 11.5398 7.13477 11.7507 6.9706C12.039 6.74599 12.0529 6.60328 12.0529 3.8744C12.0529 1.04736 12.049 1.01051 11.7136 0.739338C11.4549 0.53025 11.1927 0.465013 10.6113 0.465013H9.8485L9.88766 3.84046ZM18.661 0.74161C17.6956 1.06048 16.658 1.91513 16.1625 2.79943C15.66 3.69648 15.66 5.18319 16.1625 6.08024C17.88 9.1454 22.8128 9.20483 24.5425 6.18131C26.4125 2.913 22.6424 -0.573867 18.661 0.74161ZM19.0079 1.95892C17.9751 2.37432 17.1853 3.44941 17.1853 4.43984C17.1853 5.83721 18.8629 7.31635 20.2404 7.1335C20.7798 7.06183 20.6186 6.86246 19.8932 6.70397C18.2543 6.34586 17.4414 5.20174 17.8475 3.82506C18.0546 3.12297 18.5102 2.66214 19.3116 2.34391C20.4541 1.89014 21.7762 2.18188 22.5547 3.05937C22.9433 3.49749 22.9817 3.63692 23.0282 4.78079C23.0813 6.08945 22.9716 6.3957 22.4498 6.3957C22.0497 6.3957 21.7036 5.85651 21.746 5.29941C21.7661 5.0348 21.7709 4.37838 21.7568 3.84046L21.7312 2.86252H20.915C19.4686 2.86252 19.1029 3.18392 19.0963 4.46015C19.0919 5.31644 19.1152 5.38092 19.5428 5.69045C19.9985 6.02043 20.6036 6.10825 20.9861 5.89992C21.1399 5.81613 21.2547 5.89046 21.426 6.18447C21.7036 6.66094 22.2959 6.87394 22.8645 6.70183C23.4968 6.51053 23.6571 6.10131 23.6021 4.81839C23.5439 3.45585 23.1794 2.76877 22.2014 2.17797C21.382 1.68295 19.9401 1.58402 19.0079 1.95892ZM20.1181 3.32865C19.7168 3.45206 19.5316 3.78733 19.5316 4.3905C19.5316 5.15884 19.6371 5.37903 20.0744 5.52212C20.4384 5.64112 20.9584 5.49411 21.1791 5.20956C21.2383 5.13322 21.2877 4.65902 21.289 4.15592L21.2912 3.24108L20.8147 3.25105C20.5526 3.25647 20.2391 3.29143 20.1181 3.32865ZM12.5854 6.35494C12.5336 6.67949 12.3898 7.04177 12.2656 7.15988C12.0573 7.35773 12.2502 7.53263 14.7225 9.38792C19.9017 13.2748 20.1102 13.398 21.01 13.1036C21.2166 13.0359 22.0077 12.5288 22.7682 11.9765C25.3727 10.0846 30.6028 6.13627 30.6455 6.02964C30.725 5.83115 30.0227 5.76818 27.7092 5.76654L25.4021 5.76478L25.0226 6.40908C23.1399 9.60635 17.8319 9.67739 15.8833 6.53148L15.4085 5.76478H14.0439H12.6794L12.5854 6.35494ZM27.324 9.17076C25.2049 10.7568 23.459 12.087 23.4443 12.1266C23.3977 12.2519 31.1637 17.9942 31.2894 17.9275C31.4438 17.8453 31.4475 6.43091 31.2931 6.34876C31.2291 6.31469 29.4431 7.58461 27.324 9.17076ZM9.56006 12.7606C9.56006 15.5673 9.61681 17.8938 9.68617 17.9306C9.79586 17.9891 17.3918 12.4027 17.5079 12.1782C17.5321 12.1314 16.2322 11.098 14.6191 9.88156L11.6863 7.67004L10.6232 7.66373L9.56006 7.65755V12.7606ZM14.1625 15.3167C12.0748 16.8803 10.3355 18.1846 10.2975 18.2152C10.2595 18.2458 10.3255 18.3236 10.4442 18.3882C10.7349 18.5464 30.2373 18.5449 30.5284 18.3865C30.6712 18.3088 30.6967 18.2265 30.6017 18.1492C30.5216 18.084 28.7809 16.7805 26.7333 15.2525L23.0104 12.4742L22.2907 12.9639C20.9638 13.8664 20.0061 13.8667 18.6808 12.9651L17.9584 12.4738L14.1625 15.3167ZM9.88766 23.3975C9.92432 26.565 9.94323 26.7739 10.1979 26.8161C10.667 26.8938 11.4712 26.7073 11.7679 26.452C12.0336 26.2234 12.0529 26.0109 12.0529 23.324C12.0529 19.9583 12.0801 20.0237 10.6826 20.0237H9.8485L9.88766 23.3975ZM17.0658 24.4382C16.7983 24.493 16.4105 24.6719 16.2037 24.836C15.5207 25.3778 15.4256 25.7758 15.4256 28.0974V30.2483L14.924 30.7197L14.4223 31.191L11.9358 31.2306C8.49033 31.2857 8.00729 31.0806 7.83998 29.4921C7.74129 28.5557 7.50696 28.4859 7.5074 29.3929C7.50755 30.2091 7.85655 30.8395 8.51863 31.22C8.98905 31.4905 9.15959 31.5065 11.5759 31.5065C14.4847 31.5065 14.9021 31.4135 15.4597 30.6414C15.7648 30.2186 15.7975 29.9923 15.8653 27.8344C15.9423 25.3784 15.9791 25.2428 16.6601 24.9064C16.8805 24.7975 18.9727 24.7381 24.1875 24.6925C28.8556 24.6517 31.4095 24.5847 31.4095 24.5032C31.4094 24.3499 17.7975 24.2882 17.0658 24.4382ZM6.77391 27.7209V28.2257H7.65375H8.53358V27.7209V27.2162H7.65375H6.77391V27.7209Z"/>
</mask>
<path fill-rule="evenodd" clip-rule="evenodd" d="M6.40731 0.0827986C3.47452 0.489871 0.984138 2.40813 0.253286 4.82281C-0.0898505 5.95658 -0.0819322 21.4212 0.262378 22.4298C0.977539 24.5249 2.73927 26.115 5.16087 26.8508L6.26067 27.185L6.30525 27.8372C6.34338 28.3957 6.40144 28.5063 6.70851 28.6068C7.03449 28.7135 7.06719 28.7938 7.06719 29.4884C7.06719 30.4156 7.31501 30.9664 7.93368 31.4144C8.65456 31.9364 9.35858 32.0367 11.9673 31.9897C14.6854 31.9404 15.1907 31.8062 15.842 30.9602C16.2215 30.4674 16.2342 30.3886 16.3055 28.0808C16.3753 25.8225 16.3949 25.6943 16.7127 25.4211L17.0466 25.1342L24.3278 25.0991C29.3307 25.0751 31.6695 25.0208 31.8025 24.9259C32.0563 24.7446 32.05 24.2573 31.7914 24.0726C31.6409 23.9652 29.6105 23.936 24.1063 23.9625L16.6257 23.9985L16.0624 24.386C15.0764 25.0642 14.9862 25.3507 14.986 27.8059C14.9857 29.953 14.9822 29.9765 14.6061 30.3611L14.2264 30.7494H11.6667C9.14434 30.7494 9.10152 30.7448 8.74695 30.4396C8.2255 29.9909 8.22901 28.9483 8.75354 28.53C9.0282 28.311 9.12014 28.1097 9.12014 27.727V27.2162H10.213C12.4166 27.2162 12.5505 27.0271 12.6166 23.8244C12.675 20.9936 12.6012 20.3984 12.1334 19.9305C11.8174 19.6144 11.6882 19.5848 10.3465 19.5207C8.74695 19.4442 8.36055 19.316 7.93969 18.7222C7.67134 18.3434 7.65477 18.052 7.65433 13.6788C7.65375 8.69946 7.69055 8.41958 8.4041 7.98954C8.5918 7.87635 8.7968 7.78373 8.85956 7.78373C8.92218 7.78373 8.9735 10.0006 8.9735 12.71C8.9735 17.3186 8.99169 17.6668 9.25505 18.1111C9.4099 18.3722 9.70993 18.6539 9.92182 18.737C10.2091 18.8496 12.8982 18.888 20.4989 18.888C31.7557 18.888 31.2957 18.9208 31.7562 18.0858C31.9667 17.7041 31.9959 16.9797 31.9959 12.1446C31.9959 4.89208 32.2792 5.38622 28.1214 5.38622H25.5806L25.5168 4.3452C25.4375 3.05092 24.9666 2.09671 24.0142 1.30023C21.4449 -0.848572 17.2506 -0.196575 15.7469 2.58542C15.4516 3.13168 15.3453 3.55402 15.3036 4.3452L15.2489 5.38622H13.9441H12.6395L12.6386 3.4619C12.6377 1.31891 12.5219 0.77732 11.9683 0.32949C11.605 0.0354793 11.5019 0.0224822 9.36518 0.00216648C8.14162 -0.00944253 6.81057 0.0267725 6.40731 0.0827986ZM9.88766 3.84046L9.92666 7.2159L10.6876 7.21098C11.2181 7.20745 11.5398 7.13477 11.7507 6.9706C12.039 6.74599 12.0529 6.60328 12.0529 3.8744C12.0529 1.04736 12.049 1.01051 11.7136 0.739338C11.4549 0.53025 11.1927 0.465013 10.6113 0.465013H9.8485L9.88766 3.84046ZM18.661 0.74161C17.6956 1.06048 16.658 1.91513 16.1625 2.79943C15.66 3.69648 15.66 5.18319 16.1625 6.08024C17.88 9.1454 22.8128 9.20483 24.5425 6.18131C26.4125 2.913 22.6424 -0.573867 18.661 0.74161ZM19.0079 1.95892C17.9751 2.37432 17.1853 3.44941 17.1853 4.43984C17.1853 5.83721 18.8629 7.31635 20.2404 7.1335C20.7798 7.06183 20.6186 6.86246 19.8932 6.70397C18.2543 6.34586 17.4414 5.20174 17.8475 3.82506C18.0546 3.12297 18.5102 2.66214 19.3116 2.34391C20.4541 1.89014 21.7762 2.18188 22.5547 3.05937C22.9433 3.49749 22.9817 3.63692 23.0282 4.78079C23.0813 6.08945 22.9716 6.3957 22.4498 6.3957C22.0497 6.3957 21.7036 5.85651 21.746 5.29941C21.7661 5.0348 21.7709 4.37838 21.7568 3.84046L21.7312 2.86252H20.915C19.4686 2.86252 19.1029 3.18392 19.0963 4.46015C19.0919 5.31644 19.1152 5.38092 19.5428 5.69045C19.9985 6.02043 20.6036 6.10825 20.9861 5.89992C21.1399 5.81613 21.2547 5.89046 21.426 6.18447C21.7036 6.66094 22.2959 6.87394 22.8645 6.70183C23.4968 6.51053 23.6571 6.10131 23.6021 4.81839C23.5439 3.45585 23.1794 2.76877 22.2014 2.17797C21.382 1.68295 19.9401 1.58402 19.0079 1.95892ZM20.1181 3.32865C19.7168 3.45206 19.5316 3.78733 19.5316 4.3905C19.5316 5.15884 19.6371 5.37903 20.0744 5.52212C20.4384 5.64112 20.9584 5.49411 21.1791 5.20956C21.2383 5.13322 21.2877 4.65902 21.289 4.15592L21.2912 3.24108L20.8147 3.25105C20.5526 3.25647 20.2391 3.29143 20.1181 3.32865ZM12.5854 6.35494C12.5336 6.67949 12.3898 7.04177 12.2656 7.15988C12.0573 7.35773 12.2502 7.53263 14.7225 9.38792C19.9017 13.2748 20.1102 13.398 21.01 13.1036C21.2166 13.0359 22.0077 12.5288 22.7682 11.9765C25.3727 10.0846 30.6028 6.13627 30.6455 6.02964C30.725 5.83115 30.0227 5.76818 27.7092 5.76654L25.4021 5.76478L25.0226 6.40908C23.1399 9.60635 17.8319 9.67739 15.8833 6.53148L15.4085 5.76478H14.0439H12.6794L12.5854 6.35494ZM27.324 9.17076C25.2049 10.7568 23.459 12.087 23.4443 12.1266C23.3977 12.2519 31.1637 17.9942 31.2894 17.9275C31.4438 17.8453 31.4475 6.43091 31.2931 6.34876C31.2291 6.31469 29.4431 7.58461 27.324 9.17076ZM9.56006 12.7606C9.56006 15.5673 9.61681 17.8938 9.68617 17.9306C9.79586 17.9891 17.3918 12.4027 17.5079 12.1782C17.5321 12.1314 16.2322 11.098 14.6191 9.88156L11.6863 7.67004L10.6232 7.66373L9.56006 7.65755V12.7606ZM14.1625 15.3167C12.0748 16.8803 10.3355 18.1846 10.2975 18.2152C10.2595 18.2458 10.3255 18.3236 10.4442 18.3882C10.7349 18.5464 30.2373 18.5449 30.5284 18.3865C30.6712 18.3088 30.6967 18.2265 30.6017 18.1492C30.5216 18.084 28.7809 16.7805 26.7333 15.2525L23.0104 12.4742L22.2907 12.9639C20.9638 13.8664 20.0061 13.8667 18.6808 12.9651L17.9584 12.4738L14.1625 15.3167ZM9.88766 23.3975C9.92432 26.565 9.94323 26.7739 10.1979 26.8161C10.667 26.8938 11.4712 26.7073 11.7679 26.452C12.0336 26.2234 12.0529 26.0109 12.0529 23.324C12.0529 19.9583 12.0801 20.0237 10.6826 20.0237H9.8485L9.88766 23.3975ZM17.0658 24.4382C16.7983 24.493 16.4105 24.6719 16.2037 24.836C15.5207 25.3778 15.4256 25.7758 15.4256 28.0974V30.2483L14.924 30.7197L14.4223 31.191L11.9358 31.2306C8.49033 31.2857 8.00729 31.0806 7.83998 29.4921C7.74129 28.5557 7.50696 28.4859 7.5074 29.3929C7.50755 30.2091 7.85655 30.8395 8.51863 31.22C8.98905 31.4905 9.15959 31.5065 11.5759 31.5065C14.4847 31.5065 14.9021 31.4135 15.4597 30.6414C15.7648 30.2186 15.7975 29.9923 15.8653 27.8344C15.9423 25.3784 15.9791 25.2428 16.6601 24.9064C16.8805 24.7975 18.9727 24.7381 24.1875 24.6925C28.8556 24.6517 31.4095 24.5847 31.4095 24.5032C31.4094 24.3499 17.7975 24.2882 17.0658 24.4382ZM6.77391 27.7209V28.2257H7.65375H8.53358V27.7209V27.2162H7.65375H6.77391V27.7209Z" stroke="#5f56af" stroke-width="2" mask="url(#path-1-inside-1_291_5166)"/>
</svg>
