<svg width="47" height="47" viewBox="0 0 47 47" fill="none" xmlns="http://www.w3.org/2000/svg">
<path fill-rule="evenodd" clip-rule="evenodd" d="M11.5336 1.35177C11.2992 1.58623 11.1819 1.938 11.1819 2.40709V3.11063H8.99047C7.18204 3.11063 6.62091 3.17659 5.78123 3.48826C3.33729 4.3953 1.70278 6.25547 1.16749 8.73897C1.01486 9.44744 0.974059 13.0005 1.01486 22.0183C1.06603 33.3229 1.0961 34.3951 1.38308 35.1218C2.21485 37.2279 3.96454 38.8791 6.04588 39.5221C7.10748 39.8502 7.69763 39.8707 16.0026 39.8707C22.7988 39.8707 24.8953 39.8201 25.1105 39.6509C25.5788 39.2828 25.6424 38.7291 25.2695 38.2683L24.9296 37.8481L15.7256 37.7601L6.5219 37.6722L5.7014 37.1897C5.25017 36.9243 4.60164 36.3808 4.26014 35.9819C3.06648 34.5871 3.09286 34.8928 3.09286 22.4268V11.2014H20.408H37.7232L37.773 18.0766L37.8229 24.9518L38.243 25.2919C38.7073 25.6678 39.258 25.6006 39.6331 25.1226C39.8137 24.8925 39.8501 23.1405 39.809 16.6443L39.7573 8.45615L39.095 7.11625C38.3294 5.56705 37.2048 4.44736 35.6586 3.69439C34.7359 3.24501 34.462 3.20191 32.1518 3.14229L29.646 3.07756V2.39055C29.646 1.62387 29.1726 1 28.5909 1C28.019 1 27.5358 1.62439 27.5358 2.36311V3.02269H20.4139H13.2921V2.36311C13.2921 1.62439 12.8088 1 12.237 1C12.0435 1 11.727 1.1583 11.5336 1.35177ZM27.8875 15.5985C27.6155 15.8706 27.5358 16.1847 27.5358 16.985V18.0198L26.8176 17.7723C22.8778 16.4146 18.471 18.8906 17.5258 22.9931C17.1628 24.5685 17.3443 25.2844 18.1689 25.5292C18.7683 25.7072 19.4468 24.9449 19.4469 24.0929C19.4471 23.1978 20.3111 21.4193 21.0488 20.7954C21.3765 20.518 22.0692 20.0961 22.5876 19.8578C23.3912 19.4882 23.7158 19.4363 24.7857 19.5063C26.2442 19.6015 27.3638 20.0938 27.6749 20.7766C27.7894 21.0281 28.0721 21.3058 28.3032 21.3936C29.4842 21.8428 29.9826 25.0161 29.133 26.6793C28.2935 28.3231 26.8287 29.3702 25.0541 29.595C24.0018 29.7281 23.4899 30.0646 23.4939 30.62C23.5004 31.4944 24.1231 31.7855 25.5589 31.5858C29.0405 31.1016 31.6153 28.1126 31.6037 24.5689C31.6014 23.8433 31.4773 22.8538 31.328 22.3701C31.1787 21.8864 31.0558 21.4689 31.0547 21.4421C31.0537 21.4154 31.5195 21.4119 32.0901 21.4344C33.5706 21.493 33.6905 21.3463 33.6905 19.477V17.9461L32.3039 16.5963L30.9174 15.2467H29.5783C28.4736 15.2467 28.1777 15.3083 27.8875 15.5985ZM14.5672 17.6291C12.4992 18.1861 10.7808 19.5936 9.85283 21.4907C9.37698 22.4632 9.33654 22.698 9.33601 24.4807C9.33548 26.2778 9.37399 26.4969 9.87745 27.5593C12.4649 33.02 20.233 32.9871 22.7981 27.5042C23.4744 26.0588 23.674 24.3585 23.2256 23.863C23.0515 23.6706 22.7388 23.5134 22.5305 23.5134C21.8404 23.5134 21.5496 23.9044 21.3878 25.0497C20.874 28.6849 17.2019 30.6892 14.0278 29.0666C12.2533 28.1594 11.2754 26.5272 11.2805 24.4807C11.287 21.8548 13.0858 19.8597 15.7787 19.4912C16.9328 19.3334 17.3366 19.0249 17.3366 18.3012C17.3366 17.4268 16.2746 17.1692 14.5672 17.6291ZM29.646 18.3247V19.2921H30.6132C31.7982 19.2921 31.8311 19.1213 30.8404 18.1116C29.8414 17.0935 29.646 17.1284 29.646 18.3247ZM40.3727 30.7484C37.7125 31.4224 36.1621 31.8985 36.0205 32.0852C35.8571 32.3006 35.8007 33.6073 35.8007 37.1781V41.9814H34.757C32.9027 41.9814 31.7562 42.7382 31.7562 43.9626C31.7562 45.2761 33.291 46.1694 35.2093 45.9729C36.3645 45.8546 37.1333 45.4534 37.5662 44.743C37.8868 44.2174 37.9096 43.8262 37.9102 38.8663L37.9109 33.5524L38.5703 33.3792C40.5551 32.8577 43.5422 32.1318 43.7037 32.1318C43.8289 32.1318 43.8897 33.3902 43.8897 35.9809V39.8298L42.7907 39.904C40.9515 40.0282 39.8452 40.8233 39.8452 42.0215C39.8452 43.5383 42.7444 44.4686 44.7016 43.5795C46.0367 42.9732 45.9999 43.1781 45.9999 36.3411C45.9999 30.6651 45.9781 30.2319 45.6783 29.9605C45.5014 29.8004 45.1651 29.6766 44.9309 29.6854C44.6969 29.6942 42.6456 30.1726 40.3727 30.7484Z" stroke="#5f56af"/>
</svg>
