<svg width="45" height="45" viewBox="0 0 45 45" fill="none" xmlns="http://www.w3.org/2000/svg">
<mask id="path-1-inside-1_219_8110" fill="white">
<path fill-rule="evenodd" clip-rule="evenodd" d="M21.4245 0.83946L20.4259 1.66969L20.3701 0.920622L20.3142 0.171553H18.146H15.9776V2.68592V5.20047L14.5924 6.30112L13.2073 7.40195H14.5924H15.9776V11.7402V16.0784H22.5138H29.0501V11.7478V7.41713L30.405 7.36435L31.76 7.31157L27.1573 3.65118C24.626 1.63806 22.5253 -0.00504961 22.489 1.16614e-05C22.4527 0.0052537 21.9737 0.383042 21.4245 0.83946ZM17.4301 2.80775V3.99788L18.1563 3.42523C18.7497 2.95742 18.8826 2.73961 18.8826 2.23511C18.8826 1.63517 18.8619 1.61763 18.1563 1.61763H17.4301V2.80775ZM19.8441 3.93497L17.447 5.86549L19.9803 5.91556C21.3738 5.94322 23.6539 5.94322 25.0474 5.91556L27.5809 5.86549L25.1412 3.92232C23.7995 2.85349 22.5981 1.98494 22.4715 1.9918C22.345 1.99885 21.1627 2.87319 19.8441 3.93497ZM12.8441 4.19563C9.73542 5.93598 6.79555 8.9225 5.29094 11.8685C5.07705 12.2872 4.90221 12.7044 4.90221 12.7956C4.90221 12.9675 5.95836 13.4692 6.06149 13.3462C6.09345 13.3079 6.45221 12.7072 6.85874 12.0113C8.38042 9.40585 10.7278 7.06881 13.3449 5.55386C14.0439 5.14914 14.6473 4.79196 14.6857 4.76014C14.8259 4.64373 14.2934 3.60599 14.0946 3.60816C13.9818 3.60924 13.4192 3.8737 12.8441 4.19563ZM30.5003 4.15405C30.3748 4.45556 30.3036 4.72815 30.3419 4.76014C30.3804 4.79196 30.9838 5.14914 31.6828 5.55386C34.2998 7.06881 36.6473 9.40585 38.169 12.0113C38.5755 12.7072 38.9342 13.3079 38.9662 13.3462C39.0693 13.4692 40.1255 12.9675 40.1255 12.7956C40.1255 12.5175 39.3891 11.1677 38.625 10.0452C37.1106 7.82041 34.7592 5.67804 32.1741 4.16761C30.9798 3.4697 30.7855 3.46825 30.5003 4.15405ZM17.4301 11.0171V14.6323H18.8826H20.3351V12.4632V10.2941H22.5138H24.6926V12.4632V14.6323H26.1451H27.5976V11.0171V7.40195H22.5138H17.4301V11.0171ZM21.7876 13.1863V14.6323H22.5138H23.2401V13.1863V11.7402H22.5138H21.7876V13.1863ZM4.80326 15.0761C4.43723 15.4403 4.35752 15.6988 4.35752 16.5222V17.5245H2.6245C1.02638 17.5245 0.856616 17.559 0.445738 17.9683L0 18.4118V23.3088V28.2058L0.445738 28.6494L0.891294 29.0931H7.98878H15.0863L15.5318 28.6494L15.9776 28.2058V23.3088V18.4118L15.5318 17.9683C15.121 17.559 14.9512 17.5245 13.3531 17.5245H11.6201V16.5222C11.6201 15.6988 11.5403 15.4403 11.1743 15.0761C10.7406 14.6441 10.6558 14.6323 7.98878 14.6323C5.3218 14.6323 5.23701 14.6441 4.80326 15.0761ZM35.0898 14.9111C31.0865 15.9844 28.5074 19.8601 29.1832 23.7875C29.9362 28.164 34.0406 31.1247 38.338 30.391C42.6073 29.6622 45.6094 25.5381 44.8946 21.3841C44.0955 16.7396 39.5247 13.7219 35.0898 14.9111ZM5.81003 16.8015V17.5245H7.98878H10.1675V16.8015V16.0784H7.98878H5.81003V16.8015ZM35.3919 16.3141C33.5017 16.8477 31.9321 18.2004 31.0758 20.0334C30.6827 20.8749 30.6007 21.3138 30.5974 22.5896C30.5938 23.9662 30.6561 24.2565 31.1835 25.3232C31.8843 26.7404 33.0258 27.8517 34.4653 28.518C35.3242 28.9156 35.7525 28.995 37.0389 28.995C38.3253 28.995 38.7536 28.9156 39.6126 28.518C41.052 27.8517 42.1935 26.7404 42.8943 25.3232C43.4205 24.2592 43.4844 23.9624 43.4844 22.5858C43.4844 21.2091 43.4205 20.9123 42.8943 19.8483C41.8178 17.6715 39.8136 16.3121 37.4547 16.1596C36.7391 16.1133 35.8736 16.1782 35.3919 16.3141ZM36.3127 18.2475V18.9706H35.5677H34.8229L34.8868 20.4953C34.9455 21.8922 34.9954 22.0663 35.482 22.5717C35.7905 22.8922 36.2852 23.1723 36.6622 23.2398C37.5248 23.3941 37.7652 23.611 37.7652 24.2347C37.7652 24.6839 37.6958 24.7549 37.2568 24.7549C36.6117 24.7549 36.3127 24.4572 36.3127 23.8149C36.3127 23.345 36.2607 23.3088 35.5864 23.3088H34.8602V24.0532C34.8602 24.6804 34.9744 24.9111 35.5864 25.5204C36.1843 26.1157 36.3127 26.3676 36.3127 26.9453C36.3127 27.6434 36.3163 27.6471 37.0389 27.6471H37.7652V26.924V26.201H38.5101H39.2549L39.191 24.6763C39.1323 23.2794 39.0824 23.1053 38.5958 22.5999C38.2873 22.2794 37.7926 21.9992 37.4157 21.9318C36.553 21.7774 36.3127 21.5605 36.3127 20.9369C36.3127 20.4877 36.382 20.4167 36.821 20.4167C37.4661 20.4167 37.7652 20.7144 37.7652 21.3566C37.7652 21.8266 37.8171 21.8627 38.4914 21.8627H39.2177V21.1184C39.2177 20.4911 39.1035 20.2605 38.4914 19.6511C37.8935 19.0559 37.7652 18.8039 37.7652 18.2262C37.7652 17.5281 37.7615 17.5245 37.0389 17.5245H36.3127V18.2475ZM2.46127 19.4677C2.63975 19.7412 3.06915 20.3917 3.41575 20.9137L4.04577 21.8627H5.65424H7.26253V21.1397V20.4167H7.98878H8.71504V21.1397V21.8627H10.3233H11.9318L12.5618 20.9137C12.9084 20.3917 13.3378 19.7412 13.5163 19.4677L13.8406 18.9706H7.98878H2.137L2.46127 19.4677ZM1.45251 24.1694V27.6471H7.98878H14.5251V24.1694V20.6916L13.7204 21.8857C13.2779 22.5426 12.781 23.1315 12.6163 23.1944C12.4514 23.2573 11.5062 23.3088 10.5158 23.3088H8.71504V24.0319V24.7549H7.98878H7.26253V24.0319V23.3088H5.46179C4.47136 23.3088 3.52614 23.2573 3.36128 23.1944C3.1966 23.1315 2.69966 22.5426 2.25719 21.8857L1.45251 20.6916V24.1694ZM19.9358 25.032C19.3931 25.2043 18.7542 25.6213 18.1803 26.1777C16.4422 27.8632 16.2279 30.5078 17.6741 32.4247C17.9043 32.7298 18.1995 33.3667 18.3301 33.8399C18.469 34.3431 18.8648 35.0363 19.2835 35.5099C20.3561 36.7232 20.186 37.0314 18.2471 37.3869C16.4927 37.7087 15.1522 38.873 14.7095 40.4597C14.6091 40.8194 14.5267 41.9882 14.5262 43.0568L14.5251 45H22.5138H30.5026L30.5015 43.0568C30.501 41.9882 30.4186 40.8194 30.3182 40.4597C29.8755 38.873 28.535 37.7087 26.7806 37.3869C26.1814 37.277 25.5686 37.1265 25.4189 37.0523C24.9443 36.8174 25.0036 36.304 25.5732 35.7169C26.1124 35.1611 26.8594 33.7567 26.8674 33.2837C26.8696 33.1528 27.074 32.7812 27.3216 32.458C27.8827 31.7257 28.3239 30.5083 28.3239 29.6927C28.3239 27.9102 27.2496 26.1251 25.6912 25.3176C24.8963 24.9056 24.5348 24.8418 22.7862 24.8042C21.4069 24.7746 20.525 24.8451 19.9358 25.032ZM6.21854 30.5072C5.89391 30.6603 5.62846 30.8566 5.62846 30.9434C5.62846 31.3506 7.29594 33.4941 8.70015 34.8923C10.1035 36.2894 12.2575 37.9504 12.6659 37.9504C12.7526 37.9504 12.9522 37.6821 13.1092 37.3542L13.3948 36.7581L12.2804 36.0468C10.8575 35.1385 8.45758 32.7579 7.52852 31.3331L6.80862 30.229L6.21854 30.5072ZM21.7876 30.5611C21.4381 30.7476 20.9865 30.9004 20.7841 30.9004C20.5815 30.9005 20.2343 31.0274 20.0124 31.1822C19.6862 31.4096 19.6088 31.6381 19.6088 32.375C19.6088 33.5167 20.0194 34.3957 20.8458 35.0231C21.3673 35.4192 21.6787 35.5101 22.5138 35.5101C23.349 35.5101 23.6604 35.4192 24.1819 35.0231C25.0083 34.3957 25.4189 33.5167 25.4189 32.375C25.4189 31.6381 25.3415 31.4096 25.0152 31.1822C24.7934 31.0274 24.443 30.9007 24.2367 30.9007C24.0304 30.9007 23.5411 30.738 23.1493 30.5392C22.7575 30.3404 22.434 30.1876 22.4301 30.1999C22.4262 30.212 22.1371 30.3745 21.7876 30.5611ZM36.5968 32.5353C35.7422 33.651 34.0251 35.2185 32.667 36.1227L31.6539 36.7971L31.9283 37.3737C32.0791 37.6908 32.274 37.9504 32.3611 37.9504C32.648 37.9504 34.602 36.5473 35.6795 35.5676C36.2611 35.0389 37.1415 34.1226 37.6361 33.5311L38.5354 32.4562L38.0141 32.0408C37.7274 31.8125 37.4483 31.6252 37.3939 31.6247C37.3396 31.6241 36.9808 32.0341 36.5968 32.5353ZM21.2879 37.1899C21.2385 37.3184 21.2286 37.4466 21.2658 37.4744C21.3032 37.5023 21.5957 37.7052 21.916 37.9252L22.4982 38.3254L23.1426 37.9119C24.1014 37.2967 23.9155 37.0117 22.536 36.9815C21.7371 36.964 21.35 37.0287 21.2879 37.1899ZM19.9961 39.3061C20.4262 40.032 20.4613 40.0446 20.9137 39.637C21.2369 39.3458 21.2309 39.3236 20.7465 39.0055C20.4704 38.8242 20.1041 38.6752 19.9327 38.6747C19.6504 38.6736 19.6564 38.7329 19.9961 39.3061ZM24.2812 39.0055C23.7968 39.3236 23.7908 39.3458 24.114 39.637C24.5664 40.0446 24.6015 40.032 25.0316 39.3061C25.3713 38.7329 25.3773 38.6736 25.095 38.6747C24.9236 38.6752 24.5573 38.8242 24.2812 39.0055ZM16.9869 39.592C16.2548 40.2319 15.9801 41.0285 15.9787 42.5145L15.9776 43.5539H18.8826H21.7876V42.3423V41.1307L21.0991 41.8C20.7204 42.1682 20.3324 42.4681 20.2367 42.4665C20.141 42.4648 19.6134 41.6934 19.0641 40.7521C18.5149 39.8109 17.9662 39.0394 17.8449 39.0378C17.7235 39.0362 17.3375 39.2856 16.9869 39.592ZM25.9636 40.7521C25.4143 41.6934 24.9241 42.463 24.8742 42.4623C24.8242 42.4616 24.468 42.1782 24.0826 41.8325C23.6969 41.4869 23.3498 41.204 23.3109 41.204C23.2719 41.204 23.2401 41.7328 23.2401 42.379V43.5539H26.1451H29.0501L29.049 42.5145C29.0485 41.943 28.9648 41.1769 28.8631 40.8122C28.6803 40.1567 27.6152 39.0322 27.1827 39.0378C27.0615 39.0394 26.5128 39.8109 25.9636 40.7521Z"/>
</mask>
<path fill-rule="evenodd" clip-rule="evenodd" d="M21.4245 0.83946L20.4259 1.66969L20.3701 0.920622L20.3142 0.171553H18.146H15.9776V2.68592V5.20047L14.5924 6.30112L13.2073 7.40195H14.5924H15.9776V11.7402V16.0784H22.5138H29.0501V11.7478V7.41713L30.405 7.36435L31.76 7.31157L27.1573 3.65118C24.626 1.63806 22.5253 -0.00504961 22.489 1.16614e-05C22.4527 0.0052537 21.9737 0.383042 21.4245 0.83946ZM17.4301 2.80775V3.99788L18.1563 3.42523C18.7497 2.95742 18.8826 2.73961 18.8826 2.23511C18.8826 1.63517 18.8619 1.61763 18.1563 1.61763H17.4301V2.80775ZM19.8441 3.93497L17.447 5.86549L19.9803 5.91556C21.3738 5.94322 23.6539 5.94322 25.0474 5.91556L27.5809 5.86549L25.1412 3.92232C23.7995 2.85349 22.5981 1.98494 22.4715 1.9918C22.345 1.99885 21.1627 2.87319 19.8441 3.93497ZM12.8441 4.19563C9.73542 5.93598 6.79555 8.9225 5.29094 11.8685C5.07705 12.2872 4.90221 12.7044 4.90221 12.7956C4.90221 12.9675 5.95836 13.4692 6.06149 13.3462C6.09345 13.3079 6.45221 12.7072 6.85874 12.0113C8.38042 9.40585 10.7278 7.06881 13.3449 5.55386C14.0439 5.14914 14.6473 4.79196 14.6857 4.76014C14.8259 4.64373 14.2934 3.60599 14.0946 3.60816C13.9818 3.60924 13.4192 3.8737 12.8441 4.19563ZM30.5003 4.15405C30.3748 4.45556 30.3036 4.72815 30.3419 4.76014C30.3804 4.79196 30.9838 5.14914 31.6828 5.55386C34.2998 7.06881 36.6473 9.40585 38.169 12.0113C38.5755 12.7072 38.9342 13.3079 38.9662 13.3462C39.0693 13.4692 40.1255 12.9675 40.1255 12.7956C40.1255 12.5175 39.3891 11.1677 38.625 10.0452C37.1106 7.82041 34.7592 5.67804 32.1741 4.16761C30.9798 3.4697 30.7855 3.46825 30.5003 4.15405ZM17.4301 11.0171V14.6323H18.8826H20.3351V12.4632V10.2941H22.5138H24.6926V12.4632V14.6323H26.1451H27.5976V11.0171V7.40195H22.5138H17.4301V11.0171ZM21.7876 13.1863V14.6323H22.5138H23.2401V13.1863V11.7402H22.5138H21.7876V13.1863ZM4.80326 15.0761C4.43723 15.4403 4.35752 15.6988 4.35752 16.5222V17.5245H2.6245C1.02638 17.5245 0.856616 17.559 0.445738 17.9683L0 18.4118V23.3088V28.2058L0.445738 28.6494L0.891294 29.0931H7.98878H15.0863L15.5318 28.6494L15.9776 28.2058V23.3088V18.4118L15.5318 17.9683C15.121 17.559 14.9512 17.5245 13.3531 17.5245H11.6201V16.5222C11.6201 15.6988 11.5403 15.4403 11.1743 15.0761C10.7406 14.6441 10.6558 14.6323 7.98878 14.6323C5.3218 14.6323 5.23701 14.6441 4.80326 15.0761ZM35.0898 14.9111C31.0865 15.9844 28.5074 19.8601 29.1832 23.7875C29.9362 28.164 34.0406 31.1247 38.338 30.391C42.6073 29.6622 45.6094 25.5381 44.8946 21.3841C44.0955 16.7396 39.5247 13.7219 35.0898 14.9111ZM5.81003 16.8015V17.5245H7.98878H10.1675V16.8015V16.0784H7.98878H5.81003V16.8015ZM35.3919 16.3141C33.5017 16.8477 31.9321 18.2004 31.0758 20.0334C30.6827 20.8749 30.6007 21.3138 30.5974 22.5896C30.5938 23.9662 30.6561 24.2565 31.1835 25.3232C31.8843 26.7404 33.0258 27.8517 34.4653 28.518C35.3242 28.9156 35.7525 28.995 37.0389 28.995C38.3253 28.995 38.7536 28.9156 39.6126 28.518C41.052 27.8517 42.1935 26.7404 42.8943 25.3232C43.4205 24.2592 43.4844 23.9624 43.4844 22.5858C43.4844 21.2091 43.4205 20.9123 42.8943 19.8483C41.8178 17.6715 39.8136 16.3121 37.4547 16.1596C36.7391 16.1133 35.8736 16.1782 35.3919 16.3141ZM36.3127 18.2475V18.9706H35.5677H34.8229L34.8868 20.4953C34.9455 21.8922 34.9954 22.0663 35.482 22.5717C35.7905 22.8922 36.2852 23.1723 36.6622 23.2398C37.5248 23.3941 37.7652 23.611 37.7652 24.2347C37.7652 24.6839 37.6958 24.7549 37.2568 24.7549C36.6117 24.7549 36.3127 24.4572 36.3127 23.8149C36.3127 23.345 36.2607 23.3088 35.5864 23.3088H34.8602V24.0532C34.8602 24.6804 34.9744 24.9111 35.5864 25.5204C36.1843 26.1157 36.3127 26.3676 36.3127 26.9453C36.3127 27.6434 36.3163 27.6471 37.0389 27.6471H37.7652V26.924V26.201H38.5101H39.2549L39.191 24.6763C39.1323 23.2794 39.0824 23.1053 38.5958 22.5999C38.2873 22.2794 37.7926 21.9992 37.4157 21.9318C36.553 21.7774 36.3127 21.5605 36.3127 20.9369C36.3127 20.4877 36.382 20.4167 36.821 20.4167C37.4661 20.4167 37.7652 20.7144 37.7652 21.3566C37.7652 21.8266 37.8171 21.8627 38.4914 21.8627H39.2177V21.1184C39.2177 20.4911 39.1035 20.2605 38.4914 19.6511C37.8935 19.0559 37.7652 18.8039 37.7652 18.2262C37.7652 17.5281 37.7615 17.5245 37.0389 17.5245H36.3127V18.2475ZM2.46127 19.4677C2.63975 19.7412 3.06915 20.3917 3.41575 20.9137L4.04577 21.8627H5.65424H7.26253V21.1397V20.4167H7.98878H8.71504V21.1397V21.8627H10.3233H11.9318L12.5618 20.9137C12.9084 20.3917 13.3378 19.7412 13.5163 19.4677L13.8406 18.9706H7.98878H2.137L2.46127 19.4677ZM1.45251 24.1694V27.6471H7.98878H14.5251V24.1694V20.6916L13.7204 21.8857C13.2779 22.5426 12.781 23.1315 12.6163 23.1944C12.4514 23.2573 11.5062 23.3088 10.5158 23.3088H8.71504V24.0319V24.7549H7.98878H7.26253V24.0319V23.3088H5.46179C4.47136 23.3088 3.52614 23.2573 3.36128 23.1944C3.1966 23.1315 2.69966 22.5426 2.25719 21.8857L1.45251 20.6916V24.1694ZM19.9358 25.032C19.3931 25.2043 18.7542 25.6213 18.1803 26.1777C16.4422 27.8632 16.2279 30.5078 17.6741 32.4247C17.9043 32.7298 18.1995 33.3667 18.3301 33.8399C18.469 34.3431 18.8648 35.0363 19.2835 35.5099C20.3561 36.7232 20.186 37.0314 18.2471 37.3869C16.4927 37.7087 15.1522 38.873 14.7095 40.4597C14.6091 40.8194 14.5267 41.9882 14.5262 43.0568L14.5251 45H22.5138H30.5026L30.5015 43.0568C30.501 41.9882 30.4186 40.8194 30.3182 40.4597C29.8755 38.873 28.535 37.7087 26.7806 37.3869C26.1814 37.277 25.5686 37.1265 25.4189 37.0523C24.9443 36.8174 25.0036 36.304 25.5732 35.7169C26.1124 35.1611 26.8594 33.7567 26.8674 33.2837C26.8696 33.1528 27.074 32.7812 27.3216 32.458C27.8827 31.7257 28.3239 30.5083 28.3239 29.6927C28.3239 27.9102 27.2496 26.1251 25.6912 25.3176C24.8963 24.9056 24.5348 24.8418 22.7862 24.8042C21.4069 24.7746 20.525 24.8451 19.9358 25.032ZM6.21854 30.5072C5.89391 30.6603 5.62846 30.8566 5.62846 30.9434C5.62846 31.3506 7.29594 33.4941 8.70015 34.8923C10.1035 36.2894 12.2575 37.9504 12.6659 37.9504C12.7526 37.9504 12.9522 37.6821 13.1092 37.3542L13.3948 36.7581L12.2804 36.0468C10.8575 35.1385 8.45758 32.7579 7.52852 31.3331L6.80862 30.229L6.21854 30.5072ZM21.7876 30.5611C21.4381 30.7476 20.9865 30.9004 20.7841 30.9004C20.5815 30.9005 20.2343 31.0274 20.0124 31.1822C19.6862 31.4096 19.6088 31.6381 19.6088 32.375C19.6088 33.5167 20.0194 34.3957 20.8458 35.0231C21.3673 35.4192 21.6787 35.5101 22.5138 35.5101C23.349 35.5101 23.6604 35.4192 24.1819 35.0231C25.0083 34.3957 25.4189 33.5167 25.4189 32.375C25.4189 31.6381 25.3415 31.4096 25.0152 31.1822C24.7934 31.0274 24.443 30.9007 24.2367 30.9007C24.0304 30.9007 23.5411 30.738 23.1493 30.5392C22.7575 30.3404 22.434 30.1876 22.4301 30.1999C22.4262 30.212 22.1371 30.3745 21.7876 30.5611ZM36.5968 32.5353C35.7422 33.651 34.0251 35.2185 32.667 36.1227L31.6539 36.7971L31.9283 37.3737C32.0791 37.6908 32.274 37.9504 32.3611 37.9504C32.648 37.9504 34.602 36.5473 35.6795 35.5676C36.2611 35.0389 37.1415 34.1226 37.6361 33.5311L38.5354 32.4562L38.0141 32.0408C37.7274 31.8125 37.4483 31.6252 37.3939 31.6247C37.3396 31.6241 36.9808 32.0341 36.5968 32.5353ZM21.2879 37.1899C21.2385 37.3184 21.2286 37.4466 21.2658 37.4744C21.3032 37.5023 21.5957 37.7052 21.916 37.9252L22.4982 38.3254L23.1426 37.9119C24.1014 37.2967 23.9155 37.0117 22.536 36.9815C21.7371 36.964 21.35 37.0287 21.2879 37.1899ZM19.9961 39.3061C20.4262 40.032 20.4613 40.0446 20.9137 39.637C21.2369 39.3458 21.2309 39.3236 20.7465 39.0055C20.4704 38.8242 20.1041 38.6752 19.9327 38.6747C19.6504 38.6736 19.6564 38.7329 19.9961 39.3061ZM24.2812 39.0055C23.7968 39.3236 23.7908 39.3458 24.114 39.637C24.5664 40.0446 24.6015 40.032 25.0316 39.3061C25.3713 38.7329 25.3773 38.6736 25.095 38.6747C24.9236 38.6752 24.5573 38.8242 24.2812 39.0055ZM16.9869 39.592C16.2548 40.2319 15.9801 41.0285 15.9787 42.5145L15.9776 43.5539H18.8826H21.7876V42.3423V41.1307L21.0991 41.8C20.7204 42.1682 20.3324 42.4681 20.2367 42.4665C20.141 42.4648 19.6134 41.6934 19.0641 40.7521C18.5149 39.8109 17.9662 39.0394 17.8449 39.0378C17.7235 39.0362 17.3375 39.2856 16.9869 39.592ZM25.9636 40.7521C25.4143 41.6934 24.9241 42.463 24.8742 42.4623C24.8242 42.4616 24.468 42.1782 24.0826 41.8325C23.6969 41.4869 23.3498 41.204 23.3109 41.204C23.2719 41.204 23.2401 41.7328 23.2401 42.379V43.5539H26.1451H29.0501L29.049 42.5145C29.0485 41.943 28.9648 41.1769 28.8631 40.8122C28.6803 40.1567 27.6152 39.0322 27.1827 39.0378C27.0615 39.0394 26.5128 39.8109 25.9636 40.7521Z" stroke="#5f56af" stroke-width="1.4" mask="url(#path-1-inside-1_219_8110)"/>
</svg>
