<svg width="60" height="57" viewBox="0 0 60 57" fill="none" xmlns="http://www.w3.org/2000/svg">
<path fill-rule="evenodd" clip-rule="evenodd" d="M47.8759 0.100849C47.1645 0.221682 46.1134 0.67938 45.416 1.17186C45.0539 1.42757 44.0773 2.57571 42.5796 4.5066L40.2953 7.45143L22.2408 7.4541L4.18621 7.45667L3.43142 7.72419C1.8992 8.26706 0.893336 9.14254 0.333097 10.421L0.0468333 11.0742L0.00854409 25.6768C-0.0171977 35.4713 0.0151411 40.5731 0.106725 41.1712C0.335037 42.6629 1.18464 43.8139 2.59669 44.5449C3.92168 45.2307 4.01417 45.2358 15.3235 45.238L25.5554 45.2399L24.8748 47.7016C24.5005 49.0555 24.159 50.2845 24.1158 50.4326C24.0381 50.6991 24.0208 50.7019 22.4467 50.7019C19.9373 50.7019 19.0807 50.8929 18.0742 51.6765C17.3246 52.2601 16.9197 53.0182 16.8337 53.999L16.7623 54.8126L14.4405 54.8473L12.1187 54.8821L11.8067 55.1949C11.3836 55.6191 11.3837 56.2632 11.8069 56.6872L12.1192 57H29.9926H47.8661L48.1784 56.6872C48.6016 56.2632 48.6017 55.6191 48.1786 55.1949L47.8666 54.8821L45.5436 54.8473L43.2205 54.8126L43.1585 54.0652C43.0153 52.3399 41.786 51.1175 39.8969 50.822C39.4748 50.756 38.4136 50.7019 37.5386 50.7019C35.9645 50.7019 35.9471 50.6991 35.8695 50.4326C35.8263 50.2845 35.4848 49.0555 35.1105 47.7016L34.4299 45.2399L44.6618 45.238C55.9711 45.2358 56.0636 45.2307 57.3886 44.5449C58.7527 43.8388 59.6381 42.6741 59.8687 41.2827C60.0427 40.2324 60.0443 12.3532 59.8703 11.3166C59.5063 9.14633 57.5308 7.57137 55.0439 7.4687C54.1741 7.43292 54.04 7.40093 54.1001 7.24409C54.1385 7.14355 54.2952 6.76031 54.448 6.39246C54.6776 5.83979 54.7173 5.53982 54.6763 4.66467C54.634 3.76076 54.5667 3.49534 54.2167 2.85227C53.0704 0.746485 50.5392 -0.351833 47.8759 0.100849ZM48.1862 2.3268C47.2571 2.5668 46.959 2.89129 42.9799 7.99529C40.811 10.7775 39.0244 13.0933 39.0096 13.1415C38.9949 13.1898 39.8237 13.7663 40.8514 14.4226C42.1214 15.2336 42.7722 15.5847 42.8827 15.5188C43.2161 15.3193 51.6222 6.39335 51.869 5.97645C52.1785 5.45354 52.2174 4.42746 51.9484 3.87434C51.3447 2.63279 49.6696 1.94368 48.1862 2.3268ZM4.18621 9.83689C3.71988 10.014 3.14166 10.4996 2.84829 10.9604C2.65348 11.2664 2.63071 12.2982 2.5985 22.2491L2.56319 33.2011L4.47416 33.2013C6.61072 33.2014 7.14522 33.3276 7.4646 33.9072C7.68463 34.3063 7.56744 34.8854 7.21041 35.1644C6.97615 35.3474 6.66104 35.382 4.78758 35.4305L2.63394 35.4862V38.3844V41.2827L2.99316 41.8092C3.226 42.1506 3.56712 42.4445 3.96333 42.6452L4.57428 42.9547H29.9926H55.411L55.9878 42.6761C56.3566 42.4979 56.7065 42.1996 56.958 41.8491L57.3513 41.3007V38.3935V35.4862L36.6904 35.4305C16.0445 35.3748 16.0292 35.3745 15.763 35.1451C15.3836 34.8183 15.2869 34.1703 15.563 33.807C16.0482 33.1689 14.9058 33.2011 37.0384 33.2011H57.416L57.4129 22.5278C57.4112 16.6575 57.3585 11.6638 57.2957 11.4308C57.1474 10.8798 56.7119 10.3408 56.1442 10.0052C55.7194 9.75407 55.5629 9.7349 53.7395 9.71082L51.7891 9.68518L50.6185 10.937C49.9747 11.6255 47.3325 14.4124 44.7468 17.1301L40.0456 22.0712L40.2075 22.6942C40.4557 23.6502 40.4034 25.1045 40.0895 25.9722C39.4871 27.637 37.9804 28.9504 36.0724 29.4734C35.4895 29.6332 34.8232 29.6715 32.3857 29.6851C28.772 29.7053 28.6749 29.7267 26.7719 30.9192C26.167 31.2983 25.5503 31.2851 25.0839 30.8832C24.3142 30.2199 23.6216 26.2803 23.9004 24.1506C24.419 20.1875 27.2213 17.7714 31.7188 17.4095L32.6041 17.3383L35.4701 13.6505C37.0464 11.6222 38.3826 9.8992 38.4396 9.82173C38.5958 9.60882 4.74723 9.62387 4.18621 9.83689ZM36.4383 16.3969C35.9061 17.0867 35.3706 17.7835 35.2482 17.9456L35.0259 18.2402L36.6657 19.2832C37.5676 19.8569 38.3288 20.315 38.3573 20.3013C38.4006 20.2803 40.6477 17.9291 41.0162 17.5189C41.0998 17.4259 40.6209 17.054 39.4009 16.2648C38.4472 15.6477 37.6082 15.1429 37.5364 15.1429C37.4646 15.1429 36.9705 15.7073 36.4383 16.3969ZM30.8626 19.7763C29.6718 20.0248 28.7917 20.4432 28.0633 21.107C26.6969 22.352 26.186 24.167 26.4982 26.6659C26.6897 28.1967 26.7253 28.2633 27.2325 28.0372C28.2544 27.5819 29.1948 27.4725 32.1917 27.461C35.4914 27.4483 35.7307 27.4025 36.6793 26.6021C37.6914 25.7483 38.0704 24.3481 37.6388 23.0573C37.4803 22.583 37.3444 22.4751 35.1494 21.0787C32.9218 19.6614 32.8032 19.602 32.2187 19.6109C31.8837 19.6161 31.2734 19.6904 30.8626 19.7763ZM10.9762 33.3972C9.74552 33.9265 10.1292 35.4305 11.4948 35.4305C12.7245 35.4305 13.26 34.0495 12.2445 33.4973C11.7338 33.2196 11.4424 33.1965 10.9762 33.3972ZM28.1817 45.2887C28.1817 45.3156 27.8615 46.4975 27.4702 47.9152C27.0789 49.3328 26.7588 50.5398 26.7588 50.5974C26.7588 50.6597 28.0652 50.7019 29.9926 50.7019C31.92 50.7019 33.2265 50.6597 33.2265 50.5974C33.2265 50.5398 32.9064 49.3328 32.5151 47.9152C32.1238 46.4975 31.8036 45.3156 31.8036 45.2887C31.8036 45.2618 30.9887 45.2399 29.9926 45.2399C28.9966 45.2399 28.1817 45.2618 28.1817 45.2887ZM20.1634 53.1266C19.6176 53.3625 19.3899 53.7221 19.3874 54.3526L19.3855 54.8263H29.9926H40.5998L40.5979 54.3526C40.5954 53.7221 40.3677 53.3625 39.8219 53.1266C39.4049 52.9464 38.663 52.9317 29.9926 52.9317C21.3223 52.9317 20.5803 52.9464 20.1634 53.1266Z" fill="#000000"/>
</svg>
