<svg width="60" height="57" viewBox="0 0 60 57" fill="none" xmlns="http://www.w3.org/2000/svg">
<path fill-rule="evenodd" clip-rule="evenodd" d="M28.0222 0.151679C27.1549 0.515749 26.9331 0.947066 26.442 3.22456L26.1899 4.39359L25.3613 4.70266L24.5325 5.01162L23.0898 4.10167C20.8476 2.68736 20.4499 2.72622 18.5757 4.54267C17.6444 5.44528 17.4329 5.71571 17.3176 6.15182L17.179 6.67599H11.7098C6.54585 6.67599 6.19765 6.68857 5.47295 6.90178C3.82455 7.38654 2.50729 8.78381 2.13816 10.439C2.04392 10.8617 2.00662 15.9337 2.00662 28.3218V45.6145L1.59621 45.678C1.01756 45.7674 0.495959 46.1572 0.241649 46.6904C-0.0844522 47.3743 -0.0793076 50.698 0.249834 51.9235C0.587744 53.1812 1.10677 54.0353 2.11957 54.9997C3.13236 55.9641 4.02941 56.4583 5.35018 56.7801C6.23494 56.9955 6.73421 57 29.9515 57C53.1687 57 53.668 56.9955 54.5528 56.7801C55.8689 56.4596 56.7701 55.9638 57.7889 54.9997C58.7737 54.0677 59.4114 53.014 59.6599 51.9081C59.7392 51.5551 59.8484 51.2185 59.9025 51.1604C60.0176 51.0368 60.0385 46.9069 59.9236 47.0164C59.881 47.0569 59.7555 46.8975 59.6448 46.6621C59.4068 46.1557 58.8769 45.7661 58.3067 45.678L57.8963 45.6145V28.3218C57.8963 15.9421 57.859 10.8615 57.7649 10.439C57.3891 8.75263 56.1028 7.39811 54.3971 6.89265C53.7168 6.69102 53.2868 6.67599 48.1834 6.67599H42.7006L42.6305 6.36981C42.474 5.68777 42.2727 5.41844 41.1223 4.35262C39.3724 2.73145 39.0161 2.71208 36.7897 4.11648L35.3623 5.01674L34.5569 4.7099C34.114 4.54111 33.7402 4.39849 33.7263 4.39281C33.7123 4.38725 33.5453 3.67057 33.3549 2.80026C32.7927 0.229837 32.5044 -0.00697539 29.9438 0.000150138C28.9055 0.00304488 28.2541 0.0544822 28.0222 0.151679ZM28.7384 2.08336C28.7057 2.19047 28.5625 2.85437 28.4204 3.55857C28.0076 5.60315 27.871 5.76982 26.0075 6.50286C24.4384 7.12011 24.1812 7.0778 22.353 5.9022L20.9214 4.98167L20.1164 5.74232C19.6736 6.16072 19.3114 6.54361 19.3114 6.59326C19.3114 6.64281 19.6901 7.22031 20.1529 7.87653C21.0906 9.20599 21.3453 9.77158 21.2368 10.2833C21.131 10.7817 20.2615 12.7072 20.0326 12.95C19.7003 13.3024 19.3043 13.4352 17.6444 13.7505L16.0375 14.0559V15.1932V16.3305L17.6444 16.6359C19.9278 17.0697 19.9895 17.1098 20.6569 18.589C21.5075 20.474 21.4973 20.5654 20.2352 22.3842C19.727 23.1165 19.3114 23.7534 19.3114 23.7995C19.3114 23.8457 19.6734 24.2255 20.1157 24.6434L20.9201 25.4035L22.1326 24.6294C24.2359 23.2868 24.3376 23.2674 26.0045 23.8957C27.8551 24.5931 28.0063 24.7765 28.4204 26.8279C28.5625 27.5321 28.7057 28.1958 28.7384 28.3031C28.79 28.4716 28.9535 28.4979 29.9515 28.4979C30.9494 28.4979 31.113 28.4716 31.1646 28.3031C31.1973 28.1958 31.3404 27.5321 31.4826 26.8279C31.896 24.7794 32.0332 24.6129 33.9067 23.8849C35.4761 23.2749 35.7066 23.3129 37.54 24.4824L38.9833 25.4031L39.7874 24.6433C40.2297 24.2254 40.5916 23.8457 40.5916 23.7995C40.5916 23.7534 40.1759 23.1165 39.6678 22.3842C38.4482 20.6268 38.4317 20.5222 39.1189 18.913C39.8979 17.0887 39.906 17.0828 42.2586 16.6359L43.8654 16.3305V15.1932V14.0559L42.2586 13.7505C39.9746 13.3166 39.8904 13.2619 39.2337 11.7848C38.3985 9.90563 38.4087 9.81667 39.6678 8.00222C40.1759 7.26997 40.5916 6.63301 40.5916 6.58692C40.5916 6.54071 40.2297 6.16106 39.7874 5.7431L38.9833 4.98334L37.54 5.90398C35.7066 7.07357 35.4761 7.11153 33.9067 6.50152C32.0332 5.77349 31.896 5.60705 31.4826 3.55857C31.3404 2.85437 31.1973 2.19047 31.1646 2.08336C31.113 1.9148 30.9494 1.88853 29.9515 1.88853C28.9535 1.88853 28.79 1.9148 28.7384 2.08336ZM29.133 7.6376C27.0059 7.93342 25.5479 8.64085 24.124 10.0682C22.7249 11.4707 22.0041 13.2132 22.0041 15.1932C22.0041 16.4573 22.2328 17.3883 22.8385 18.589C23.2347 19.3743 23.4973 19.7063 24.3828 20.5406C26.0578 22.1186 27.646 22.7483 29.9515 22.7483C31.868 22.7483 33.4483 22.239 34.8457 21.1711C37.8562 18.8704 38.7529 15.1236 37.0805 11.8334C36.233 10.166 34.3721 8.59754 32.557 8.0206C31.4273 7.66143 30.0609 7.50867 29.133 7.6376ZM5.89318 8.76956C5.28295 9.00091 4.65518 9.55604 4.31108 10.1686L4.05279 10.6284L4.02216 28.1361L3.99152 45.6437H29.9515H55.9114L55.8808 28.1361L55.8502 10.6284L55.588 10.1615C55.444 9.90474 55.1368 9.51963 54.9055 9.30586C54.1126 8.57249 54.0749 8.5687 47.5449 8.5687H41.6781L41.155 9.32022L40.6318 10.0717L40.9105 10.6841C41.0638 11.0209 41.231 11.3716 41.282 11.4634C41.3409 11.5694 41.9042 11.7369 42.8247 11.922C44.7925 12.3177 44.8352 12.3308 45.1893 12.6434C45.8285 13.2078 45.9116 13.5011 45.9116 15.1932C45.9116 17.6723 45.6773 17.9323 42.9931 18.4307L41.32 18.7413L41.0051 19.5087C40.832 19.9308 40.7141 20.3349 40.7431 20.4068C40.7721 20.4786 41.1721 21.0877 41.632 21.7604C43.0552 23.8422 43.0285 24.195 41.3228 25.8481C39.4541 27.6592 39.0539 27.6982 36.8159 26.2865L35.3759 25.3783L34.6222 25.6675C34.2076 25.8266 33.8284 25.9928 33.7796 26.0371C33.7307 26.0813 33.5352 26.8073 33.3451 27.6502C32.7805 30.1547 32.4884 30.3906 29.9515 30.3906C27.398 30.3906 27.1094 30.1528 26.548 27.5862C26.3577 26.7159 26.1906 25.9992 26.1767 25.9936C26.1628 25.9879 25.7954 25.8478 25.3602 25.6821L24.5691 25.3808L23.2108 26.2241C21.686 27.1707 21.4574 27.2732 20.8707 27.2732C20.2091 27.2732 19.7663 26.9976 18.5801 25.8481C16.855 24.1762 16.8363 23.8209 18.3577 21.6278L19.2687 20.3147L18.9912 19.7023C18.8385 19.3655 18.6717 19.0148 18.6205 18.923C18.56 18.8145 17.9361 18.6383 16.8425 18.4205C14.3317 17.9207 14.0478 17.6408 13.9565 15.5749C13.8744 13.7148 14.1888 12.8035 15.0465 12.4159C15.2526 12.3229 16.1307 12.1161 16.9977 11.9566L18.5743 11.6664L18.8844 10.9104C19.055 10.4947 19.1945 10.1143 19.1945 10.0652C19.1945 10.0161 18.9778 9.65935 18.7131 9.27235L18.2316 8.5687L12.3115 8.57472C7.02886 8.58017 6.3376 8.6011 5.89318 8.76956ZM28.8992 9.58342C28.5455 9.63742 27.8326 9.87947 27.315 10.1214C25.2712 11.0768 23.9883 13.0334 23.9883 15.1952C23.9883 16.7994 24.5247 17.988 25.7987 19.2071C26.7403 20.1082 27.5613 20.5272 28.8992 20.7898C31.7963 21.3581 34.8873 19.5052 35.7006 16.7123C36.464 14.0906 35.1539 11.3173 32.588 10.1235C31.2967 9.52274 30.2769 9.37344 28.8992 9.58342ZM13.2313 26.7667C11.542 27.1115 10.1588 27.7911 8.93484 28.8778C5.37438 32.0385 5.03203 37.0707 8.13367 40.6513C11.5956 44.6478 18.3748 44.6478 21.8367 40.6513C23.2314 39.0413 23.9128 37.2478 23.9162 35.1781C23.9204 32.6265 23.0051 30.6304 21.0222 28.8672C20.0524 28.0048 18.5068 27.185 17.2652 26.8744C16.287 26.6298 14.1783 26.5735 13.2313 26.7667ZM43.1639 26.7667C40.8047 27.2483 38.7131 28.5972 37.4308 30.4642C33.5424 36.1254 37.7704 43.6314 44.8593 43.6518C48.3062 43.6617 51.2861 41.9582 52.8595 39.0784C53.5759 37.7673 53.8463 36.7012 53.8488 35.1781C53.853 32.6265 52.9377 30.6304 50.9548 28.8672C49.985 28.0048 48.4394 27.185 47.1978 26.8744C46.2196 26.6298 44.1109 26.5735 43.1639 26.7667ZM13.255 28.723C11.9877 29.0391 11.0709 29.5511 10.0711 30.5008C7.34257 33.0929 7.32058 37.2336 10.0219 39.7867C11.4261 41.114 12.7297 41.6506 14.7255 41.7232C15.8994 41.7659 16.1505 41.7397 17.011 41.4842C22.0609 39.9849 23.6197 34.0527 19.8981 30.4972C18.8882 29.5322 17.997 29.0412 16.6694 28.7178C15.5435 28.4437 14.3676 28.4455 13.255 28.723ZM43.1875 28.723C41.9203 29.0391 41.0035 29.5511 40.0037 30.5008C36.3563 33.9657 37.7372 39.6841 42.6457 41.4411C43.2378 41.6531 43.5703 41.6895 44.9178 41.6895C46.2652 41.6895 46.5977 41.6531 47.1898 41.4411C50.4985 40.2567 52.4274 37.0936 51.7644 33.9398C51.4721 32.5497 50.8849 31.5043 49.8307 30.4972C48.8208 29.5322 47.9296 29.0412 46.6019 28.7178C45.4761 28.4437 44.3002 28.4455 43.1875 28.723ZM15.7791 34.0319L13.0074 36.6711L12.1954 35.9246C11.5557 35.3366 11.3078 35.1781 11.0277 35.1781C10.6178 35.1781 10.0969 35.5707 10.0674 35.9018C10.02 36.4321 10.1354 36.6054 11.2603 37.6939C12.5318 38.9242 12.864 39.0955 13.4274 38.811C13.8241 38.6106 19.6965 33.0042 19.8902 32.6409C20.1736 32.1091 19.645 31.3926 18.9691 31.3926C18.579 31.3926 18.3639 31.5706 15.7791 34.0319ZM41.2294 31.666C41.0443 31.8422 40.9423 32.0657 40.9423 32.2954C40.9423 32.5991 41.1308 32.8335 42.2235 33.8879L43.5046 35.1244L42.2235 36.3579C41.1236 37.4169 40.9423 37.6424 40.9423 37.952C40.9423 38.2021 41.0471 38.4123 41.2841 38.6381C41.8801 39.2056 42.1007 39.1174 43.5934 37.715L44.9223 36.4666L46.2023 37.6816C47.3642 38.7845 47.5219 38.8967 47.9107 38.8967C48.4418 38.8967 48.8932 38.4565 48.8932 37.9382C48.8932 37.6487 48.6872 37.3945 47.612 36.3569L46.3309 35.1204L47.612 33.8869C48.7068 32.8329 48.8932 32.6015 48.8932 32.2964C48.8932 31.7926 48.4479 31.3926 47.8872 31.3926C47.4951 31.3926 47.3377 31.5029 46.1865 32.5831L44.9178 33.7736L43.649 32.5831C42.4978 31.5029 42.3404 31.3926 41.9484 31.3926C41.6455 31.3926 41.4305 31.4744 41.2294 31.666ZM0.067666 49.1508C0.0677829 50.3143 0.0850877 50.7751 0.106134 50.1749C0.12718 49.5746 0.127063 48.6227 0.1059 48.0595C0.0847369 47.4962 0.0675491 47.9873 0.067666 49.1508ZM2.00662 49.1831C2.00662 50.9949 2.15476 51.7723 2.67285 52.6786C3.03929 53.3198 3.99702 54.2111 4.67167 54.5388C5.90124 55.1362 4.61636 55.1073 29.9515 55.1073C55.5948 55.1073 54.0471 55.1459 55.3458 54.4729C55.6568 54.3118 56.1678 53.9214 56.4816 53.6056C57.6003 52.4793 57.8963 51.5538 57.8963 49.1831V47.5364H49.4358H40.9753L40.9132 48.4846C40.8113 50.0404 40.0769 51.1538 38.6955 51.8469L38.0777 52.1569H29.9515H21.8253L21.2074 51.8469C19.8261 51.1538 19.0917 50.0404 18.9897 48.4846L18.9276 47.5364H10.4671H2.00662V49.1831ZM20.9746 48.3052C21.044 49.2276 21.3259 49.7226 21.9816 50.0735L22.4417 50.3198H29.9515H37.4613L37.9214 50.0735C38.5771 49.7226 38.859 49.2276 38.9283 48.3052L38.9861 47.5364H29.9515H20.9169L20.9746 48.3052ZM5.33369 49.7025C5.14241 49.8845 5.04793 50.0981 5.05039 50.3426C5.06231 51.52 6.74111 51.6323 6.9849 50.4719C7.03962 50.2113 6.98618 50.0596 6.74204 49.7834C6.34018 49.3287 5.76105 49.2954 5.33369 49.7025ZM8.26206 49.7834C8.01792 50.0596 7.96449 50.2113 8.01921 50.4719C8.11017 50.9047 8.37875 51.1806 8.79348 51.2673C9.72548 51.4622 10.3494 50.3489 9.67041 49.7025C9.24305 49.2954 8.66393 49.3287 8.26206 49.7834ZM11.2968 49.7025C10.8945 50.0855 10.9154 50.5811 11.3515 50.9964L11.6933 51.3218H13.4036C15.6171 51.3218 15.9206 51.1941 15.9206 50.2631C15.9206 49.9934 15.8357 49.827 15.6125 49.6599C15.3301 49.4484 15.1491 49.4291 13.4441 49.4291C11.6248 49.4291 11.5774 49.4351 11.2968 49.7025Z" fill="#5F56AF"/>
</svg>
