<svg width="61" height="57" viewBox="0 0 61 57" fill="none" xmlns="http://www.w3.org/2000/svg">
<path fill-rule="evenodd" clip-rule="evenodd" d="M48.0115 1.89612L41.6378 3.77885L37.9767 3.78348L34.3154 3.78823L34.0087 4.07983C33.7567 4.31916 33.7019 4.48901 33.7019 5.03004V5.68865H32.509C31.409 5.68865 31.2921 5.71134 31.0093 5.98025C30.705 6.26935 30.7025 6.29013 30.7025 8.53928C30.7025 10.7884 30.705 10.8092 31.0093 11.0983C31.2921 11.3672 31.409 11.3899 32.509 11.3899H33.7019V11.865V12.3401H30.7025H27.7031V7.88067V3.42109L27.3963 3.12962L27.0896 2.83802H16.7052H6.32092L6.01423 3.12962L5.70742 3.42109V7.88067V12.3401H4.5034C3.84116 12.3401 3.06794 12.4051 2.78499 12.4846C2.0985 12.6773 1.06321 13.6613 0.860374 14.3137C0.640292 15.0216 0.640292 45.7666 0.860374 46.4745C1.06321 47.127 2.0985 48.1109 2.78499 48.3037C3.17279 48.4126 6.17895 48.4481 15.0013 48.4481H26.7033V49.8734V51.2987H23.5108H20.3182L20.0115 51.5903C19.7071 51.8794 19.7046 51.9002 19.7046 54.1494C19.7046 56.3985 19.7071 56.4193 20.0115 56.7084L20.3182 57H30.7025H41.0868L41.3935 56.7084C41.6978 56.4193 41.7003 56.3985 41.7003 54.1494C41.7003 51.9002 41.6978 51.8794 41.3935 51.5903L41.0868 51.2987H37.8942H34.7017V49.8734V48.4481L46.4806 48.4455C58.0604 48.4429 58.269 48.4388 58.8219 48.2009C59.5771 47.8761 60.0437 47.4396 60.3987 46.7259L60.694 46.132L60.6953 30.4673C60.6963 18.5126 60.6605 14.6868 60.5446 14.3137C60.3417 13.6613 59.3064 12.6773 58.6199 12.4846C58.337 12.4051 57.5638 12.3401 56.9015 12.3401H55.6975V11.865V11.3899H56.4016C57.4864 11.3899 58.0553 11.1764 58.7637 10.5031C60.028 9.30147 60.028 7.77709 58.7637 6.57543C58.0553 5.90221 57.4864 5.68865 56.4016 5.68865H55.6975V3.12926V0.569987L55.3668 0.278629C55.1768 0.111154 54.8978 -0.00714699 54.7107 0.000335913C54.5318 0.00758127 51.5171 0.860632 48.0115 1.89612ZM48.1365 3.84049L42.7626 5.42271V8.53845V11.6543L48.189 13.2444C51.1735 14.1189 53.6339 14.8344 53.6567 14.8344C53.6793 14.8344 53.6979 12.0016 53.6979 8.53928C53.6979 5.07695 53.6558 2.24735 53.6042 2.25127C53.5526 2.25518 51.0922 2.97034 48.1365 3.84049ZM7.70702 11.3899V18.0414H16.7052H25.7035V11.3899V4.73844H16.7052H7.70702V11.3899ZM35.7015 8.53928V11.3899H38.201H40.7005V8.53928V5.68865H38.201H35.7015V8.53928ZM14.0126 7.88067L13.7058 8.17214V11.3899V14.6077L14.0126 14.8992C14.1974 15.0747 14.4583 15.1885 14.6688 15.1851C14.8609 15.1818 16.4803 14.4736 18.2674 13.6113C21.7751 11.9185 21.9072 11.8186 21.6346 11.0633C21.5345 10.7859 21.0264 10.4999 18.2674 9.16856C16.4803 8.30624 14.8609 7.59798 14.6688 7.59477C14.4583 7.59133 14.1974 7.70512 14.0126 7.88067ZM32.7021 8.53928V9.48949H33.202H33.7019V8.53928V7.58907H33.202H32.7021V8.53928ZM55.6975 8.53928V9.48949H56.3905C57.2245 9.48949 57.6971 9.14575 57.6971 8.53928C57.6971 7.93281 57.2245 7.58907 56.3905 7.58907H55.6975V8.53928ZM15.7054 11.3899V12.695L17.0177 12.0748C17.7394 11.7336 18.3299 11.4254 18.3299 11.3899C18.3299 11.3544 17.7394 11.0462 17.0177 10.705L15.7054 10.0848V11.3899ZM36.7013 15.6659V18.0414H37.2538C37.9005 18.0414 37.8174 18.2552 38.1997 15.6065C38.3412 14.6266 38.4848 13.7046 38.5188 13.5576C38.5787 13.2989 38.5505 13.2903 37.641 13.2903H36.7013V15.6659ZM40.5379 13.5576C40.5024 13.7046 40.2882 15.0806 40.062 16.6156C39.535 20.1911 39.7494 19.9418 37.2012 19.9418C34.5456 19.9418 34.7017 20.1381 34.7017 16.7996V14.2405H31.2024H27.7031V16.7996C27.7031 19.3584 27.7031 19.3587 27.3963 19.6502L27.0896 19.9418H16.7052H6.32092L6.01423 19.6502C5.70742 19.3587 5.70742 19.3584 5.70742 16.7996V14.2405H4.51453C3.41449 14.2405 3.29764 14.2632 3.01482 14.5321L2.70801 14.8236V28.7853V42.7468H30.7025H58.6969V28.7853V14.8236L58.3901 14.5321C58.1073 14.2632 57.9905 14.2405 56.8904 14.2405H55.6975V15.3528C55.6975 16.396 55.6772 16.4843 55.3681 16.7781C55.1869 16.9503 54.9314 17.0912 54.8006 17.0912C54.6696 17.0912 51.634 16.236 48.0547 15.1908C44.4752 14.1455 41.3342 13.2903 41.0747 13.2903C40.6876 13.2903 40.591 13.3384 40.5379 13.5576ZM35.0085 22.1338L34.7017 22.4253V28.4937V34.5621L35.0085 34.8536C35.2913 35.1225 35.4082 35.1452 36.5082 35.1452H37.7011V36.754C37.7011 38.3039 37.7123 38.3736 38.0079 38.6544L38.3146 38.946H47.1992H56.0838L56.3905 38.6544L56.6973 38.3629V32.2945V26.2261L56.3905 25.9347C56.1387 25.6952 55.96 25.6431 55.3907 25.6431H54.6977V24.0342C54.6977 22.4843 54.6865 22.4146 54.3909 22.1338L54.0842 21.8422H44.6997H35.3152L35.0085 22.1338ZM5.01443 24.0342L4.70761 24.3257V32.2945V40.2634L5.01443 40.5548L5.32112 40.8464H18.7048H32.0886L32.3953 40.5548L32.7021 40.2634V32.2945V24.3257L32.3953 24.0342L32.0886 23.7426H18.7048H5.32112L5.01443 24.0342ZM36.7013 28.4937V33.2447H37.2012H37.7011V29.7355V26.2261L38.0079 25.9347L38.3146 25.6431H45.5064H52.6981V24.6929V23.7426H44.6997H36.7013V28.4937ZM9.34207 25.6899C9.53553 25.8635 18.6064 31.1068 18.7133 31.1068C18.8239 31.1068 27.0719 26.3399 27.8872 25.8048C28.0961 25.6677 26.7006 25.6431 18.7118 25.6431C13.5299 25.6431 9.31345 25.6641 9.34207 25.6899ZM6.70722 32.7103V38.946H18.7048H30.7025V32.7103C30.7025 29.2806 30.6702 26.4745 30.6309 26.4745C30.5915 26.4745 27.9558 27.9978 24.7738 29.8596C21.5917 31.7214 18.8641 33.2447 18.7125 33.2447C18.5607 33.2447 15.8332 31.7214 12.6512 29.8596C9.46905 27.9978 6.82994 26.4745 6.78633 26.4745C6.74284 26.4745 6.70722 29.2806 6.70722 32.7103ZM39.7007 32.2945V37.0456H47.1992H54.6977V32.2945V27.5435H47.1992H39.7007V32.2945ZM41.7003 30.3941V31.3443H42.7001H43.6999V30.3941V29.4439H42.7001H41.7003V30.3941ZM45.6995 30.3941V31.3443H49.1988H52.6981V30.3941V29.4439H49.1988H45.6995V30.3941ZM41.7003 34.195V35.1452H43.6999H45.6995V34.195V33.2447H43.6999H41.7003V34.195ZM47.6991 34.195V35.1452H50.1986H52.6981V34.195V33.2447H50.1986H47.6991V34.195ZM2.70801 45.3059C2.70801 45.8469 2.76287 46.0168 3.01482 46.2561L3.32151 46.5477H30.7025H58.0834L58.3901 46.2561C58.6421 46.0168 58.6969 45.8469 58.6969 45.3059V44.6473H30.7025H2.70801V45.3059ZM28.7029 49.8734V51.2987H30.7025H32.7021V49.8734V48.4481H30.7025H28.7029V49.8734ZM21.7043 54.1494V55.0996H30.7025H39.7007V54.1494V53.1992H30.7025H21.7043V54.1494Z" fill="#ffffff"/>
</svg>
