<svg width="33" height="33" viewBox="0 0 33 33" fill="none" xmlns="http://www.w3.org/2000/svg">
<path fill-rule="evenodd" clip-rule="evenodd" d="M12.2633 0.268276C10.8035 0.745903 9.78029 1.62182 9.16483 2.92062C8.84696 3.59127 8.79086 3.87837 8.79139 4.82849C8.79193 5.77664 8.84936 6.06927 9.16857 6.75084C9.63965 7.75689 10.5517 8.65135 11.5955 9.13108C12.2756 9.44371 12.5687 9.4995 13.5322 9.4995C14.4957 9.4995 14.7887 9.44371 15.4688 9.13108C16.5126 8.65135 17.4247 7.75689 17.8958 6.75084C18.2153 6.06875 18.2724 5.77743 18.2724 4.82849C18.2724 3.87956 18.2153 3.58824 17.8958 2.90614C17.1387 1.28945 15.5331 0.219724 13.7399 0.136961C13.1916 0.111698 12.5741 0.166698 12.2633 0.268276ZM23.6161 0.740508C23.4692 0.802086 23.1987 1.01156 23.0151 1.20603C22.72 1.51853 22.6812 1.6755 22.6812 2.55339C22.6812 3.35627 22.726 3.57522 22.9149 3.69377C23.3486 3.96574 23.6113 3.64232 23.657 2.77996C23.6795 2.35576 23.7619 1.9326 23.8404 1.83971C24.0384 1.60445 30.7641 1.59405 31.0021 1.82852C31.2302 2.05326 31.2302 8.65635 31.0021 8.88109C30.7603 9.11924 24.0382 9.10477 23.8367 8.86569C23.7511 8.76398 23.6753 7.94031 23.6534 6.87321C23.6213 5.30862 23.5834 5.03376 23.3824 4.90902C23.2119 4.80336 23.0853 4.80349 22.9149 4.90968C22.7085 5.03836 22.6812 5.29652 22.6812 7.11071V9.16608L23.1178 9.59595L23.5544 10.0258H27.4226H31.2908L31.7274 9.59569L32.1641 9.16556V5.3548V1.54405L31.7276 1.11393L31.2912 0.683798L27.5872 0.656167C25.5501 0.641035 23.763 0.67893 23.6161 0.740508ZM12.2787 1.35208C11.31 1.65695 10.2795 2.71904 9.9853 3.71587C9.27729 6.11532 11.0499 8.51267 13.5322 8.51267C15.5341 8.51267 17.2719 6.80071 17.2719 4.82849C17.2719 3.50653 16.4155 2.15036 15.2042 1.55445C14.397 1.15721 13.168 1.07222 12.2787 1.35208ZM12.0754 2.90575C11.9716 3.02904 11.9338 3.67601 11.9589 4.89823C12.0086 7.31215 11.9261 7.27058 14.3014 6.07848C16.7633 4.84297 16.7642 4.81863 14.4003 3.61693C12.5713 2.6872 12.3236 2.61141 12.0754 2.90575ZM27.3558 2.84601C26.8458 3.05917 26.4588 3.60943 26.3888 4.22113C26.3263 4.76718 26.2889 4.81744 25.917 4.85428C25.0838 4.93678 25.0929 5.77401 25.9278 5.85612L26.3428 5.8969L26.3818 6.82913C26.4118 7.54584 26.475 7.79491 26.6546 7.9061C26.8245 8.01136 26.9522 8.01136 27.1221 7.9061C27.3017 7.79491 27.3649 7.54584 27.395 6.82913L27.434 5.8969L27.8489 5.85612C28.6945 5.77296 28.6899 4.93599 27.8432 4.8531C27.481 4.81757 27.4226 4.76047 27.4226 4.44152C27.4226 3.93061 27.6401 3.79719 28.5487 3.75035C29.423 3.70535 29.7511 3.44732 29.4781 3.0193C29.3669 2.8447 29.1251 2.78246 28.4772 2.76167C28.0073 2.74667 27.5028 2.78457 27.3558 2.84601ZM12.9979 4.82849C12.9979 5.19033 13.0264 5.48638 13.0611 5.48638C13.2029 5.48638 14.3335 4.90178 14.3335 4.82849C14.3335 4.75521 13.2029 4.17061 13.0611 4.17061C13.0264 4.17061 12.9979 4.46666 12.9979 4.82849ZM0.336257 5.5127C0.106664 5.73888 0.106664 14.4443 0.336257 14.6705C0.564381 14.8952 7.26705 14.8952 7.49518 14.6705C7.72477 14.4443 7.72477 5.73888 7.49518 5.5127C7.26705 5.28796 0.564381 5.28796 0.336257 5.5127ZM1.24448 10.0916V13.7758H3.91572H6.58696V10.0916V6.40743H3.91572H1.24448V10.0916ZM3.54722 7.61255C3.32644 7.83004 3.33726 8.18109 3.57059 8.37188C3.86657 8.61385 5.25775 8.4982 5.43712 8.21662C5.5437 8.04938 5.5437 7.92333 5.43712 7.7561C5.25334 7.46781 3.8058 7.35781 3.54722 7.61255ZM19.2779 9.74134C18.3226 10.9932 18.2173 11.2334 18.5007 11.5126C18.8501 11.8568 19.1507 11.6522 20.0742 10.4419C21.0294 9.19003 21.1348 8.94977 20.8514 8.67056C20.502 8.32635 20.2013 8.53096 19.2779 9.74134ZM2.47752 9.71897C2.3871 9.80805 2.31297 9.98042 2.31297 10.1019C2.31297 10.5324 2.64447 10.629 3.98797 10.5899C5.05567 10.559 5.31625 10.5107 5.43685 10.3219C5.54384 10.1542 5.54384 10.029 5.43685 9.86134C5.31585 9.67187 5.05513 9.6245 3.96594 9.59397C3.0505 9.56818 2.59145 9.60674 2.47752 9.71897ZM21.1786 12.0713C19.9629 12.9784 19.7562 13.2758 20.1034 13.6179C20.3868 13.8971 20.6307 13.7933 21.9014 12.8522C23.1301 11.9425 23.3378 11.6463 22.9884 11.3021C22.7024 11.0204 22.4341 11.1345 21.1786 12.0713ZM2.47752 11.8242C2.3871 11.9133 2.31297 12.0857 2.31297 12.2071C2.31297 12.6376 2.64447 12.7342 3.98797 12.6951C5.05567 12.6642 5.31625 12.6159 5.43685 12.4271C5.54384 12.2595 5.54384 12.1342 5.43685 11.9666C5.31585 11.7771 5.05513 11.7297 3.96594 11.6992C3.0505 11.6734 2.59145 11.712 2.47752 11.8242ZM12.3592 14.7563C9.73741 16.8934 8.15978 18.0785 7.20214 18.6298C6.44338 19.0668 5.71279 19.5893 5.57856 19.7908C5.44447 19.9924 5.3081 20.4727 5.27564 20.8581C5.22315 21.4806 5.16639 21.5908 4.76798 21.8449C3.55764 22.6166 3.75691 24.3105 5.10482 24.7084C5.53956 24.8367 5.70091 24.8192 6.23595 24.5862L6.85996 24.3142L7.32101 24.5822C7.88251 24.9086 8.79927 24.9328 9.3808 24.6365C9.61146 24.519 9.85722 24.4574 9.92667 24.4998C9.99612 24.5421 10.269 24.9571 10.5329 25.4221C11.1321 26.4776 11.6592 26.9335 12.2802 26.9335C13.2329 26.9335 13.9329 26.2592 13.9329 25.3414C13.9329 25.0901 13.7176 24.5525 13.3986 24.0075C13.1048 23.5054 12.8644 23.0527 12.8644 23.0012C12.8644 22.9499 14.6772 22.2298 16.8929 21.401C19.181 20.545 20.9809 19.799 21.0595 19.674C21.1694 19.4989 20.9108 18.9634 19.7922 17.0505C19.0193 15.7287 18.2863 14.5846 18.1633 14.5081C17.9023 14.346 17.4962 14.54 17.4326 14.8572C17.4108 14.966 17.9416 15.9863 18.6119 17.1242C19.2824 18.2622 19.8112 19.208 19.7869 19.2259C19.7627 19.2437 17.8195 19.9628 15.4688 20.8239C12.5817 21.8814 10.7963 22.6144 9.96647 23.0825C8.13935 24.1136 7.86261 24.0544 6.91164 22.4303C5.95494 20.7962 6.03307 20.5047 7.67882 19.5699L8.59412 19.0501L8.90185 19.5378C9.07121 19.8062 9.40524 20.3662 9.64445 20.7823C9.98384 21.3731 10.1492 21.5389 10.3985 21.5389C10.5811 21.5389 10.7792 21.4262 10.8607 21.2762C10.9791 21.0581 10.8776 20.7991 10.26 19.7453C9.85121 19.0478 9.5523 18.4407 9.59571 18.3961C9.63925 18.3517 11.1287 17.1234 12.9056 15.6667L16.1366 13.018L16.3815 13.3312C16.7556 13.8093 17.4055 13.6735 17.4055 13.1174C17.4055 12.7579 16.6277 11.6703 16.3733 11.674C16.2431 11.6758 14.4368 13.0629 12.3592 14.7563ZM23.349 14.5518C21.4791 14.9518 21.5459 14.9221 21.5459 15.3547C21.5459 15.9085 21.8798 15.9467 23.6026 15.5902C25.1474 15.2705 25.4952 15.0551 25.2047 14.5981C25.0086 14.2897 24.6202 14.28 23.349 14.5518ZM1.94167 16.5626C1.81853 16.6839 1.77873 18.0997 1.77873 22.3546V27.9862H1.12721C0.230743 27.9862 0.127767 28.1451 0.202428 29.4147C0.273884 30.6317 0.583747 31.2339 1.41811 31.7778L1.95957 32.1309H9.79244H17.6253L18.1668 31.7778C19.0011 31.2339 19.311 30.6317 19.3825 29.4147C19.457 28.146 19.3539 27.9862 18.4603 27.9862H17.8116L17.7754 25.2701C17.7432 22.8499 17.7139 22.5383 17.5056 22.409C17.3352 22.3032 17.2086 22.3032 17.0382 22.409C16.83 22.5383 16.8006 22.8499 16.7684 25.2701L16.7322 27.9862H9.78977H2.84722V22.7261V17.466L5.20352 17.4301C7.27827 17.3985 7.57745 17.3667 7.70714 17.1639C7.81452 16.9961 7.81452 16.8711 7.70714 16.7034C7.57598 16.4984 7.26091 16.4692 4.83222 16.4376C2.82318 16.4115 2.06161 16.4444 1.94167 16.5626ZM23.6161 17.0561C23.4692 17.1177 23.1987 17.3273 23.0151 17.5219L22.6812 17.8759V21.6785V25.4812L23.1178 25.9113L23.5544 26.3414H27.4226H31.2908L31.7274 25.9114C32.1442 25.5012 32.1641 25.4358 32.1641 24.4799C32.1641 23.6694 32.1195 23.4502 31.9303 23.3315C31.4967 23.0595 31.2339 23.3829 31.1883 24.2453C31.1657 24.6695 31.0833 25.0926 31.0049 25.1855C30.8068 25.4208 24.0812 25.4312 23.8432 25.1967C23.615 24.972 23.615 18.3689 23.8432 18.1442C24.0849 17.906 30.8071 17.9205 31.0085 18.1595C31.0941 18.2613 31.17 19.0849 31.1919 20.152C31.2239 21.7166 31.2619 21.9915 31.4629 22.1162C31.6333 22.2219 31.7599 22.2217 31.9303 22.1156C32.1367 21.9869 32.1641 21.7287 32.1641 19.9145V17.8592L31.7276 17.4293L31.2912 16.9994L27.5872 16.9718C25.5501 16.9567 23.763 16.9946 23.6161 17.0561ZM26.5478 19.7503C25.2003 20.3285 24.882 22.0932 25.9377 23.1333C26.812 23.9945 28.0083 23.9882 28.8918 23.1178C30.557 21.4773 28.7095 18.8227 26.5478 19.7503ZM26.682 20.9408C26.0194 21.5935 26.4889 22.7231 27.4226 22.7231C27.6828 22.7231 27.9566 22.6037 28.1632 22.4C28.37 22.1965 28.4911 21.9267 28.4911 21.6704C28.4911 21.4141 28.37 21.1444 28.1632 20.9408C27.9566 20.7372 27.6828 20.6178 27.4226 20.6178C27.1624 20.6178 26.8886 20.7372 26.682 20.9408ZM5.20526 22.8321C4.7215 23.3587 5.17748 23.923 5.84475 23.6236C6.2445 23.4441 6.2608 23.3523 5.97057 22.9158C5.71359 22.5295 5.5043 22.5066 5.20526 22.8321ZM11.2282 23.5878C11.0262 23.6958 10.8624 23.8266 10.8643 23.8786C10.866 23.9305 11.1226 24.3875 11.4342 24.8941C11.9324 25.7037 12.0491 25.8151 12.3993 25.8151C12.9969 25.8151 12.9784 25.3955 12.3329 24.3067C12.0311 23.7975 11.7416 23.3833 11.6898 23.3862C11.638 23.3891 11.4303 23.4798 11.2282 23.5878ZM1.27934 29.6469C1.33063 30.0948 1.45724 30.3617 1.76016 30.6601C2.11664 31.0113 2.28626 31.0724 3.03394 31.1194L3.89662 31.1735L3.93949 30.7444C4.02457 29.8947 4.87376 29.8825 4.95924 30.7297L5.00117 31.144H9.79244H14.5837L14.6256 30.7297C14.7111 29.8825 15.5603 29.8947 15.6454 30.7444L15.6883 31.1735L16.5509 31.1194C17.2986 31.0724 17.4682 31.0113 17.8247 30.6601C18.1276 30.3617 18.2543 30.0948 18.3055 29.6469L18.3751 29.0388H9.79244H1.20975L1.27934 29.6469Z" fill="#5f56af"/>
</svg>
