<svg width="33" height="32" viewBox="0 0 33 32" fill="none" xmlns="http://www.w3.org/2000/svg">
<path d="M20.9811 0.0338268C17.1412 0.64485 14.302 4.0182 14.2895 8.00258V8.86819H13.489H12.6885L12.5509 8.28263C12.2382 7.00967 11.5128 6.06767 10.3746 5.45665L9.72421 5.11295L5.53415 5.07476C3.23275 5.0493 1.21902 5.07476 1.06893 5.11295C0.856296 5.16387 0.78125 5.27844 0.78125 5.53303C0.78125 5.72397 0.843788 5.95311 0.931342 6.04222C1.04391 6.15678 2.11957 6.19497 5.00883 6.19497C7.63543 6.19497 9.11133 6.24589 9.42402 6.34773C10.0369 6.52594 10.8499 7.22607 11.1501 7.83709C11.2752 8.09169 12.2382 11.6687 13.2764 15.8058C14.327 19.9302 15.2901 23.5582 15.4277 23.851C15.7904 24.6148 16.5784 25.3913 17.3914 25.7732L18.1043 26.1169L25.2712 26.155C30.7495 26.1805 32.4881 26.155 32.6257 26.0405C32.7383 25.9514 32.8008 25.7222 32.7758 25.4931L32.7383 25.0985L25.5464 25.0348C18.467 24.9712 18.342 24.9712 17.8542 24.6911C17.2038 24.3347 16.6034 23.6982 16.3658 23.0999C15.978 22.1579 15.4777 22.2343 22.3569 22.2343C27.8228 22.2343 28.6107 22.2089 28.9609 22.0306C29.4988 21.7506 29.7865 21.4833 30.0116 21.0505C30.3368 20.4012 32.4256 11.9615 32.4256 11.2868C32.4256 10.0648 31.7752 9.26281 30.5744 8.98276L29.9616 8.83001L29.8865 7.54431C29.7739 5.44392 29.0485 3.77634 27.6101 2.31243C26.6846 1.35771 25.5213 0.657579 24.2956 0.28842C23.5952 0.0720158 21.669 -0.0680103 20.9811 0.0338268ZM21.5439 2.94891V4.55285L20.7684 4.51466C19.8679 4.47647 19.8679 4.47647 20.3057 3.26715C20.5308 2.6434 21.3188 1.35771 21.4814 1.35771C21.5189 1.35771 21.5439 2.07057 21.5439 2.94891ZM23.3951 2.18513C23.7578 2.75797 24.3081 4.28552 24.2206 4.43828C24.183 4.4892 23.8203 4.54012 23.4076 4.54012H22.6696V2.93618C22.6696 1.14131 22.7196 1.09039 23.3951 2.18513ZM19.4927 2.22332C19.3301 2.55429 19.0924 3.15259 18.9799 3.54721L18.7797 4.26007L18.2544 4.09458C17.3038 3.8018 17.0162 3.64904 17.0662 3.48356C17.1913 3.12713 19.2925 1.62503 19.7053 1.6123C19.7553 1.6123 19.6553 1.89235 19.4927 2.22332ZM25.6214 2.18513C26.3719 2.66886 27.1724 3.36899 27.1724 3.53448C27.1724 3.66177 26.8221 3.82726 25.9591 4.09458L25.4338 4.26007L25.2337 3.54721C25.1211 3.15259 24.8835 2.55429 24.7209 2.21059L24.4082 1.58684L24.6958 1.68868C24.8584 1.7396 25.2712 1.956 25.6214 2.18513ZM18.1544 5.25298L18.5796 5.34208L18.4921 6.10586C18.4545 6.52594 18.417 6.97148 18.417 7.09877C18.417 7.31518 18.2919 7.34064 16.9036 7.34064H15.3902L15.4777 6.92056C15.5903 6.335 15.9155 5.29117 16.1156 4.90928L16.2782 4.56558L17.0037 4.87109C17.4039 5.03657 17.9167 5.20206 18.1544 5.25298ZM28.2855 5.38027C28.5232 6.00403 28.7858 6.98421 28.7983 7.2388C28.7983 7.30245 28.1354 7.34064 27.3099 7.34064H25.8215L25.734 6.37319C25.6839 5.85127 25.6714 5.40573 25.6965 5.393C25.8716 5.29117 27.6476 4.69287 27.8228 4.68014C27.9603 4.66741 28.1104 4.88382 28.2855 5.38027ZM20.8935 5.68579H21.5439V6.51321V7.34064H20.5308H19.5052L19.5927 6.66597C19.6303 6.30954 19.6678 5.90219 19.6678 5.76216C19.6678 5.58395 19.7303 5.54576 19.9555 5.60941C20.1055 5.6476 20.5308 5.68579 20.8935 5.68579ZM24.5958 6.14405C24.7584 7.39156 24.7959 7.34064 23.6702 7.34064H22.6696V6.51321V5.69851L23.4576 5.6476C23.8828 5.62214 24.2956 5.59668 24.3706 5.58395C24.4457 5.57122 24.5458 5.82581 24.5958 6.14405ZM18.4796 9.45376C18.5296 9.97567 18.5421 10.4339 18.5171 10.4594C18.5046 10.4721 17.9792 10.6631 17.3789 10.8795L16.2782 11.2614L16.0406 10.7649C15.8279 10.3576 15.4277 8.91911 15.4152 8.57541C15.4152 8.52449 16.0781 8.48631 16.9036 8.48631H18.392L18.4796 9.45376ZM21.5439 9.301V10.103L20.6559 10.1921C20.1556 10.2303 19.7428 10.2557 19.7178 10.2303C19.6928 10.2175 19.6428 9.81019 19.5927 9.33919L19.5052 8.48631H20.5308H21.5439V9.301ZM24.6208 9.33919C24.5708 9.81019 24.5207 10.2175 24.4957 10.2303C24.4707 10.2557 24.058 10.2303 23.5576 10.1921L22.6696 10.103V9.301V8.48631H23.6827H24.7084L24.6208 9.33919ZM28.7983 8.57541C28.7858 8.91911 28.3856 10.3576 28.1855 10.7649L27.9353 11.2486L26.8972 10.8922C26.3218 10.6885 25.809 10.5103 25.759 10.4976C25.6965 10.4721 25.6965 10.0139 25.7465 9.46649L25.834 8.48631H27.3099C28.1354 8.48631 28.7983 8.52449 28.7983 8.57541ZM14.7898 10.7649C15.5778 12.9162 17.4414 14.7366 19.6553 15.5131C20.3557 15.7549 20.7309 15.8058 22.1068 15.8058C23.4826 15.8058 23.8578 15.7549 24.5583 15.5131C26.7846 14.7366 28.6357 12.9417 29.4237 10.7776L29.7114 9.9884L30.1492 10.0648C30.7871 10.1666 31.2999 10.714 31.2999 11.2741C31.2999 11.5287 30.7871 13.7055 30.1742 16.1241C29.2111 19.9048 29.011 20.554 28.7358 20.7959L28.4106 21.0886H22.1193H15.8279L14.5021 15.8313C13.7642 12.9544 13.1263 10.4594 13.0888 10.2939C13.0137 10.0266 13.0387 10.0139 13.7642 10.0139H14.5146L14.7898 10.7649ZM21.5439 12.9035V14.5074L21.2813 14.2656C20.906 13.9219 20.4558 13.1072 20.1681 12.2415C20.0305 11.8342 19.9179 11.4905 19.9179 11.465C19.9179 11.4141 20.5433 11.325 21.0811 11.2996L21.5439 11.2868V12.9035ZM24.2581 11.4523C24.3206 11.516 23.8578 12.8271 23.5702 13.3872C23.4326 13.6673 23.1699 14.0364 22.9948 14.2019L22.6696 14.5074V12.878V11.2486L23.4451 11.3377C23.8703 11.3759 24.2331 11.4396 24.2581 11.4523ZM19.1675 12.8017C19.3676 13.3872 19.5802 13.9219 19.6553 13.9982C19.9805 14.3292 19.7428 14.3165 19.0674 13.9728C18.367 13.6163 17.0412 12.5216 17.0412 12.3052C17.0412 12.1779 18.4045 11.6687 18.6422 11.7069C18.7297 11.7196 18.9673 12.2161 19.1675 12.8017ZM26.3969 11.936C26.8221 12.0761 27.1724 12.2543 27.1724 12.3052C27.1724 12.5216 25.834 13.6163 25.1461 13.9728L24.4082 14.3547L24.6458 13.8709C24.7834 13.6036 25.0085 13.0053 25.1586 12.5216C25.3212 12.0506 25.4838 11.6687 25.5339 11.6687C25.5839 11.6687 25.9716 11.7833 26.3969 11.936Z" fill="#444444"/>
<path d="M19.8551 27.1865C18.4668 27.823 17.9915 29.6688 18.8795 30.9418C19.8426 32.3293 21.9939 32.3293 22.957 30.9418C23.3698 30.3435 23.5198 29.3633 23.2947 28.6759C22.8444 27.2629 21.2059 26.55 19.8551 27.1865ZM21.5436 28.2813C22.3441 28.7014 22.4817 29.7706 21.8438 30.4199C21.2184 31.0691 20.2178 30.929 19.755 30.1398C19.4924 29.6815 19.4799 29.3378 19.73 28.8541C20.0802 28.1667 20.8557 27.9249 21.5436 28.2813Z" fill="#444444"/>
<path d="M26.7345 27.1735C24.9334 28.0391 24.7708 30.6105 26.4594 31.6671C27.3474 32.2017 28.5732 32.0871 29.3862 31.3616C29.9615 30.8396 30.1741 30.3177 30.1741 29.3885C30.1741 28.5356 29.8114 27.8354 29.111 27.339C28.5231 26.9316 27.41 26.8553 26.7345 27.1735ZM28.6232 28.5228C28.9734 28.8793 29.0485 29.0575 29.0485 29.4903C29.0485 30.4196 28.0979 31.107 27.2849 30.7633C26.4469 30.4068 26.1467 29.363 26.6845 28.6756C27.2348 27.9627 28.0103 27.8991 28.6232 28.5228Z" fill="#444444"/>
</svg>
