<svg width="33" height="32" viewBox="0 0 33 32" fill="none" xmlns="http://www.w3.org/2000/svg">
<path fill-rule="evenodd" clip-rule="evenodd" d="M2.47254 0.0591724C1.91316 0.211026 1.34198 0.711217 1.0808 1.2777L0.945874 1.57039V15.9984V30.4264L1.08193 30.7216C1.27274 31.1356 1.74146 31.6144 2.15561 31.8183L2.50682 31.9912H16.8988H31.2907L31.5852 31.8548C32.1614 31.588 32.8204 30.7878 32.8204 30.3552C32.8204 30.2779 32.8485 30.1973 32.8829 30.176C32.9242 30.1504 32.9453 25.3335 32.9453 15.9284C32.9453 6.47171 32.9245 1.73244 32.8829 1.75817C32.848 1.77976 32.8204 1.73163 32.8204 1.64894C32.8204 1.20922 32.1662 0.411015 31.5852 0.141922L31.2907 0.00552906L17.0236 -0.00623866C5.8834 -0.01544 2.69432 -0.00110593 2.47254 0.0591724ZM2.6317 1.12703C2.39899 1.23119 2.13026 1.5138 2.04253 1.74659C2.00351 1.85012 1.9761 2.45034 1.9761 3.20191V4.48102H15.8089H29.6418L29.795 4.63469C29.9459 4.78585 29.9929 5.04287 29.9095 5.26063C29.7955 5.55846 30.4597 5.54512 15.7468 5.54512H1.9761V17.8095C1.9761 26.3227 1.99639 30.1278 2.04253 30.2502C2.13288 30.4899 2.4023 30.768 2.64531 30.8722C2.9457 31.0011 30.8518 31.0011 31.1522 30.8722C31.3952 30.768 31.6647 30.4899 31.755 30.2502C31.8012 30.1275 31.8214 25.7894 31.8214 15.9923C31.8214 4.17437 31.8076 1.87822 31.7355 1.70922C31.6315 1.4656 31.3541 1.19551 31.1149 1.10494C30.9926 1.05855 26.667 1.03909 16.8791 1.04078C5.27108 1.04278 2.78636 1.05786 2.6317 1.12703ZM0.945312 15.9984C0.945312 23.8305 0.952618 27.0345 0.961484 23.1185C0.97035 19.2024 0.97035 12.7943 0.961484 8.87827C0.952618 4.96218 0.945312 8.16626 0.945312 15.9984ZM4.55828 2.37597C4.42723 2.48902 4.3862 2.58047 4.3862 2.75968C4.3862 2.93889 4.42723 3.03034 4.55828 3.14338C4.75684 3.31458 4.90762 3.32891 5.15594 3.20015C5.4592 3.04292 5.50959 2.63455 5.2569 2.3813C5.05954 2.18337 4.78406 2.18131 4.55828 2.37597ZM7.27789 2.30787C7.14353 2.41128 7.03357 2.62898 7.03357 2.79166C7.03357 2.98182 7.3625 3.29173 7.5643 3.29173C7.76609 3.29173 8.09502 2.98182 8.09502 2.79166C8.09502 2.48364 7.85619 2.23163 7.5643 2.23163C7.46127 2.23163 7.3324 2.26593 7.27789 2.30787ZM9.87169 2.3813C9.56225 2.69145 9.72733 3.19934 10.1602 3.26876C10.6653 3.34982 10.9589 2.71104 10.5703 2.37597C10.3445 2.18131 10.0691 2.18337 9.87169 2.3813ZM9.13523 6.79632C6.24567 7.31773 4.10061 9.85155 4.10061 12.7435C4.10061 15.5944 6.11442 18.0467 8.93793 18.634C10.2755 18.9122 11.9406 18.6425 13.0611 17.9661C13.257 17.8478 13.428 17.751 13.441 17.751C13.4541 17.751 13.4647 17.8518 13.4647 17.9749C13.4647 18.1389 13.5135 18.2478 13.6472 18.3818C13.8804 18.6156 14.107 18.6189 14.3334 18.392C14.5173 18.2076 14.5337 18.1204 14.6266 16.8334C14.6665 16.2812 14.6624 16.2545 14.5144 16.1061C14.3718 15.9631 14.2997 15.9488 13.5121 15.9065C13.0453 15.8814 12.5772 15.8799 12.4717 15.9032C12.2332 15.9557 12.0286 16.2072 12.0286 16.4478C12.0286 16.6817 12.2779 16.9373 12.506 16.9373C12.6698 16.9373 12.6718 16.9411 12.5556 17.0299C12.3498 17.1871 11.4675 17.5065 10.9814 17.5997C8.65852 18.0453 6.28894 16.6898 5.47525 14.4498C4.6216 12.1001 5.62653 9.5208 7.84527 8.36669C8.68094 7.93203 9.12081 7.82981 10.1555 7.82981C10.9313 7.82981 11.1276 7.85085 11.5275 7.97672C12.1064 8.15894 12.5095 8.35968 13.0076 8.71358C13.4611 9.03594 13.7032 9.06737 13.9358 8.83414C14.0396 8.73011 14.0891 8.61049 14.0891 8.46346C14.0891 8.28074 14.0389 8.20238 13.7721 7.96846C13.349 7.59746 12.5001 7.15661 11.8101 6.94974C11.3352 6.8074 11.1078 6.77823 10.3428 6.76152C9.84484 6.75069 9.30144 6.76634 9.13523 6.79632ZM20.5701 7.17401C19.5729 7.28737 18.7699 7.68165 18.0178 8.42715C17.6345 8.80697 17.4844 9.0151 17.2499 9.49125C16.7892 10.4265 16.7625 10.6468 16.7861 13.3066L16.8064 15.5915L16.982 16.0923C17.2228 16.7784 17.4719 17.1935 17.9446 17.6958C18.3749 18.1531 18.9447 18.5492 19.4741 18.759C20.2147 19.0525 20.4493 19.0655 25.026 19.0655H29.3335L29.516 18.8825C29.6248 18.7735 29.6985 18.6333 29.6985 18.5358C29.6985 18.4441 29.4715 17.9797 29.1834 17.4825L28.6683 16.593L28.6345 13.5572C28.6016 10.5971 28.5972 10.5112 28.4577 10.1145C28.2119 9.41533 27.9004 8.92521 27.3632 8.39222C26.7968 7.83025 26.2651 7.51465 25.5142 7.29457C25.0843 7.16863 24.8871 7.15611 23.0489 7.13852C21.95 7.12801 20.8345 7.14397 20.5701 7.17401ZM20.0207 8.37971C18.9595 8.74513 18.1804 9.61287 17.926 10.7125C17.8431 11.0708 17.8303 11.4951 17.8481 13.3036L17.8694 15.4663L18.0371 15.8895C18.4502 16.9316 19.2876 17.6595 20.3603 17.9089C20.6976 17.9873 21.3649 17.9998 24.5028 17.9862L28.2434 17.9701L27.9095 17.3758L27.5757 16.7815L27.5749 13.8705C27.5741 10.7317 27.5657 10.6357 27.2331 9.9542C26.889 9.24914 26.1211 8.60235 25.3414 8.36093C24.972 8.24657 24.7608 8.2368 22.6833 8.23831C20.513 8.23987 20.411 8.24525 20.0207 8.37971ZM22.3523 9.73894C21.5217 9.91195 20.8603 10.6027 20.7017 11.4627C20.6526 11.7293 20.6552 11.8656 20.7117 12.0027C20.8028 12.2231 21.0961 12.3909 21.2882 12.3327C21.4923 12.2706 21.7064 12.0509 21.7069 11.9032C21.7082 11.4071 22.058 10.9273 22.5063 10.8062C23.2841 10.5963 24.0207 11.3779 23.7682 12.1451C23.7213 12.2875 23.5762 12.4671 23.3723 12.6349C22.4832 13.367 22.2684 13.6977 22.2684 14.334C22.2684 15.1125 23.2094 15.1456 23.3127 14.3708C23.3449 14.1299 23.3999 14.0441 23.6946 13.7763C24.5532 12.9958 24.6936 12.8282 24.8022 12.4539C24.9312 12.0089 24.8935 11.4024 24.7102 10.9746C24.3384 10.1067 23.2713 9.54753 22.3523 9.73894ZM7.63391 9.96672C6.8515 10.2076 6.2471 11.3129 6.56298 11.9252C6.79743 12.3798 7.53308 12.1931 7.53308 11.6791C7.53308 11.1262 8.07679 10.7816 8.62162 10.9893C8.82479 11.0667 9.03102 11.402 9.03134 11.6553C9.03171 11.9687 8.8208 12.1582 8.06754 12.5213C6.95322 13.0583 6.57453 13.5499 6.48918 14.5703C6.4554 14.9745 6.46077 14.9956 6.6454 15.1807L6.83664 15.3724H8.25043C9.68263 15.3724 9.84241 15.3502 10.013 15.1275C10.144 14.9564 10.1082 14.6308 9.93975 14.462C9.78871 14.3105 9.77098 14.3083 8.68943 14.3083H7.59233L7.68749 14.1238C7.82048 13.866 8.08528 13.6824 8.85283 13.316C9.81462 12.8568 10.093 12.4848 10.093 11.6588C10.093 10.3902 8.90771 9.57463 7.63391 9.96672ZM12.7907 9.90651C12.7248 9.93298 11.0931 12.1846 10.4449 13.1434C10.2504 13.4313 10.2353 13.6752 10.3995 13.8789C10.5135 14.0202 10.5619 14.028 11.5078 14.0579L12.4969 14.0892L12.5281 14.59C12.5453 14.8654 12.5808 15.1239 12.607 15.1644C12.6333 15.2049 12.751 15.27 12.8686 15.3088C13.041 15.3659 13.1181 15.3611 13.2668 15.284C13.4931 15.1667 13.5896 14.9097 13.5896 14.4242C13.5896 14.2111 13.6168 14.0579 13.6548 14.0579C13.6907 14.0579 13.789 13.9888 13.8733 13.9043C14.131 13.6461 14.064 13.2428 13.7343 13.0668C13.6015 12.9958 13.5977 12.9594 13.5783 11.58L13.5583 10.166L13.3831 10.0151C13.2194 9.87396 12.9805 9.8302 12.7907 9.90651ZM12.1578 12.5557L11.8399 12.9938H12.184H12.5281V12.5557C12.5281 12.3147 12.5163 12.1175 12.5019 12.1175C12.4875 12.1175 12.3326 12.3147 12.1578 12.5557ZM22.4217 15.5887C22.3166 15.694 22.2684 15.8121 22.2684 15.9643C22.2684 16.511 22.9828 16.6775 23.2345 16.1894C23.5001 15.6746 22.83 15.1793 22.4217 15.5887ZM8.46965 20.6022C8.24643 20.6502 7.8015 20.8194 7.48088 20.9782C6.71164 21.3594 6.06085 21.9934 5.67442 22.7379C5.37322 23.3183 5.35143 23.4968 5.55279 23.7315C5.65994 23.8564 5.75366 23.8978 5.92911 23.8978C6.23143 23.8978 6.30161 23.8333 6.58196 23.2979C6.86649 22.7546 7.3753 22.2321 7.88235 21.9624C8.65609 21.551 8.27965 21.5693 15.9934 21.5693C23.7073 21.5693 23.332 21.551 24.1034 21.9624C25.2905 22.5955 25.9182 24.0753 25.6127 25.5203C25.4237 26.4141 24.7861 27.2817 24.0527 27.6428C23.2635 28.0314 23.6204 28.0185 14.1645 28.0011L5.55529 27.9852L5.8957 27.3762C6.26053 26.7235 6.28026 26.5727 6.03301 26.3249C5.85737 26.1488 5.47063 26.158 5.30598 26.3421C5.07427 26.6011 4.09899 28.3865 4.09899 28.5517C4.09899 28.6487 4.17348 28.7893 4.28306 28.8992L4.46712 29.0837L13.9141 29.0645C24.5395 29.0428 23.5941 29.0875 24.6099 28.5594C26.3557 27.6517 27.1872 25.3403 26.505 23.2909C26.1641 22.2669 25.4141 21.3892 24.5066 20.9521C23.5417 20.4875 23.8714 20.5045 15.9492 20.5101C10.1556 20.5142 8.80206 20.5309 8.46965 20.6022ZM8.46421 24.3411C8.17781 24.5615 8.15234 24.8913 8.4024 25.142L8.58491 25.3249H13.9871H19.3893L19.5614 25.1766C19.8025 24.9686 19.8025 24.6171 19.5614 24.4092L19.3893 24.2608L13.9763 24.2628C9.81968 24.2643 8.54033 24.2825 8.46421 24.3411ZM21.4851 24.4145C21.2275 24.6727 21.2945 25.076 21.6243 25.2521C21.8273 25.3605 22.9818 25.3468 23.2005 25.2333C23.5038 25.0761 23.5542 24.6677 23.3015 24.4145C23.1557 24.2683 23.1116 24.2608 22.3933 24.2608C21.675 24.2608 21.6309 24.2683 21.4851 24.4145Z" fill="#5f56af"/>
</svg>
