<svg width="45" height="45" viewBox="0 0 45 45" fill="none" xmlns="http://www.w3.org/2000/svg">
<mask id="path-1-inside-1_219_8077" fill="white">
<path fill-rule="evenodd" clip-rule="evenodd" d="M17.8437 0.662925C17.2951 1.22466 17.1962 1.46272 17.1962 2.22275V3.11965L15.149 3.12082C12.8223 3.12198 11.8553 3.33393 10.9368 4.04384C9.70123 4.99884 9.54983 5.71616 9.61572 10.304C9.67399 14.3588 9.67418 14.3611 10.1977 15.1702C10.7088 15.9603 10.7214 16.048 10.7214 18.8175C10.7214 21.9112 10.8899 22.6527 11.8189 23.6457C12.788 24.6817 13.4993 24.7624 21.6586 24.761C26.055 24.7604 29.3804 24.6799 29.7875 24.5641C30.8195 24.2706 31.6843 23.5876 32.129 22.7149C32.474 22.038 32.5344 21.5232 32.5877 18.8154C32.6359 16.3604 32.7107 15.6257 32.9391 15.3674C33.5873 14.6337 33.7475 13.6079 33.7549 10.1388C33.7646 5.56486 33.4593 4.55488 31.7963 3.65778C31.1305 3.29863 30.6161 3.21791 28.5973 3.15572L26.1917 3.08162L26.0984 2.0886C26.0232 1.28627 25.8902 0.990292 25.4065 0.547693L24.8076 0H21.6494H18.4912L17.8437 0.662925ZM18.7279 1.02032C18.2661 1.26716 18.014 1.8248 17.977 2.68094L17.958 3.11965H21.5763H25.1946V2.36996C25.1946 1.05756 24.8175 0.886174 21.7949 0.823781C19.9602 0.785956 19.0581 0.843864 18.7279 1.02032ZM21.0431 15.4422C20.9153 15.5731 20.8145 16.2005 20.8145 16.8656C20.8145 18.1441 21.0175 18.5229 21.7029 18.5229C22.2622 18.5229 22.5285 17.9887 22.5285 16.8656C22.5285 16.369 22.4397 15.7928 22.3314 15.5854C22.111 15.1638 21.3929 15.0841 21.0431 15.4422ZM11.6743 19.1357C11.6749 21.3731 11.7273 21.8278 12.0461 22.3632C12.8613 23.7319 12.5555 23.6898 21.6631 23.6898C29.8374 23.6898 29.862 23.6886 30.4558 23.255C31.4632 22.5192 31.6694 21.7975 31.6694 19.0068C31.6694 16.5294 31.6691 16.5277 31.2409 16.6503C30.7953 16.7778 28.007 17.0604 25.1677 17.2655C23.5326 17.3836 23.5214 17.3881 23.41 17.9586C23.1158 19.4642 21.4653 19.9991 20.419 18.9279C20.1021 18.6034 19.8624 18.1489 19.8624 17.873C19.8624 17.4022 19.8136 17.3846 18.196 17.2713C15.261 17.0656 12.2698 16.7658 11.9672 16.6468C11.7117 16.5464 11.6736 16.8689 11.6743 19.1357ZM0.67586 19.605L0 20.297L0.115595 22.6759C0.17901 23.9842 0.356688 25.5372 0.51037 26.127C0.901908 27.6303 4.06182 34.4935 4.90184 35.6651C5.84012 36.974 7.11795 37.8947 9.44395 38.9377C10.5131 39.4171 11.6343 40.043 11.9356 40.3286C12.6465 41.0027 13.1875 42.2156 13.1929 43.1476C13.1959 43.6731 13.3349 44.0289 13.6724 44.3744L14.1479 44.8613L17.8144 44.7792C19.8311 44.7341 21.5668 44.6903 21.6715 44.6819C21.7762 44.6733 22.8903 44.7628 24.1472 44.8808C25.5212 45.0097 27.3364 45.0368 28.6994 44.9488C30.7201 44.8186 31.0147 44.7531 31.4131 44.3452C31.7226 44.0283 31.8612 43.6602 31.8641 43.1476C31.8694 42.2156 32.4104 41.0027 33.1213 40.3286C33.4226 40.043 34.5439 39.4171 35.613 38.9377C39.1321 37.3597 40.0616 36.3805 41.9772 32.2349C44.6166 26.5226 45 25.1874 45 21.7065C45 20.3009 44.973 20.211 44.3607 19.5842C43.7372 18.9458 43.6829 18.9298 42.1385 18.9333C39.5505 18.9392 39.3071 19.2012 38.8093 22.5199C38.6486 23.5923 38.4673 24.7195 38.4065 25.0248C38.2416 25.8554 35.7288 29.5967 35.1333 29.8981C34.5787 30.1789 32.4468 30.6924 32.3304 30.5733C32.2912 30.5331 32.7262 29.8891 33.2971 29.1424C33.868 28.3954 34.407 27.5211 34.4946 27.1994C35.031 25.2301 32.8416 23.7465 31.3259 25.0523C30.5628 25.7098 24.4216 32.4773 24.0045 33.1201C23.4626 33.956 22.5525 36.3312 22.0886 38.1201L21.6561 39.7882L21.1364 37.8807C20.1349 34.2042 19.5914 33.3301 15.5086 28.83C13.5008 26.6168 11.6665 24.7536 11.4325 24.6893C10.5498 24.4471 9.95889 24.5734 9.34378 25.1362C8.8195 25.6158 8.72181 25.84 8.72181 26.5651C8.72181 27.3109 8.8694 27.626 9.83301 28.9367C10.4441 29.768 10.905 30.4887 10.8568 30.5378C10.8088 30.5871 10.1588 30.4852 9.41271 30.3114C7.89531 29.9581 7.64127 29.7183 5.86926 26.966C5.00353 25.6214 4.94716 25.4466 4.51602 22.774C4.0982 20.1837 4.02488 19.947 3.48671 19.449C2.61108 18.6385 1.5631 18.6966 0.67586 19.605ZM1.2824 20.2208C0.99865 20.5111 0.970846 20.854 1.06454 22.9017C1.12986 24.334 1.29897 25.6298 1.49797 26.2245C1.99387 27.7067 4.94278 34.1008 5.53409 34.9759C6.3225 36.1423 7.62204 37.09 9.70104 38.0148C12.7231 39.359 13.5757 40.2473 14.0289 42.5241L14.2776 43.7725L17.6455 43.8257C20.4325 43.8698 21.0316 43.8306 21.1185 43.5988C21.279 43.1708 20.5192 38.8996 19.9701 37.1433C19.1318 34.4617 18.3379 33.2839 14.6545 29.2574C11.8385 26.1789 11.1661 25.5421 10.7324 25.5421C10.1322 25.5421 9.57878 26.073 9.57878 26.649C9.57878 26.8654 10.2249 27.9044 11.0147 28.9581C12.4477 30.8695 12.6041 31.277 12.043 31.6387C11.6642 31.8828 8.38169 31.1421 7.55139 30.625C6.93666 30.2422 4.59124 26.9561 4.16618 25.8817C4.0285 25.5341 3.76589 24.1967 3.58249 22.9099C3.38425 21.5201 3.13021 20.4317 2.95653 20.2289C2.58346 19.7938 1.70365 19.7895 1.2824 20.2208ZM40.3554 20.1864C40.0505 20.4986 40.0366 20.5598 39.5703 23.6561C39.2366 25.8702 39.1092 26.1604 37.3585 28.6929C35.9164 30.7794 35.7846 30.864 32.9781 31.508C30.4211 32.0949 30.3095 31.6318 32.336 28.844C33.1215 27.7633 33.7642 26.7734 33.7642 26.6439C33.7642 26.1216 33.1626 25.5421 32.6203 25.5421C32.1512 25.5421 31.5416 26.114 28.516 29.3929C24.548 33.6931 23.9225 34.6891 23.0356 38.1182C22.4873 40.2384 22.0482 43.1283 22.2091 43.5578C22.3102 43.8275 22.777 43.87 25.6444 43.87C29.2528 43.87 29.1915 43.8897 29.1957 42.7329C29.1983 41.969 30.0046 40.3551 30.7416 39.6382C31.0949 39.2947 32.2762 38.614 33.3666 38.1256C36.928 36.531 37.6248 35.7295 39.9437 30.5614C41.9073 26.1851 42.0838 25.5912 42.2579 22.774C42.3737 20.8999 42.3499 20.6191 42.0459 20.2752C41.6386 19.8142 40.7637 19.7684 40.3554 20.1864Z"/>
</mask>
<path fill-rule="evenodd" clip-rule="evenodd" d="M17.8437 0.662925C17.2951 1.22466 17.1962 1.46272 17.1962 2.22275V3.11965L15.149 3.12082C12.8223 3.12198 11.8553 3.33393 10.9368 4.04384C9.70123 4.99884 9.54983 5.71616 9.61572 10.304C9.67399 14.3588 9.67418 14.3611 10.1977 15.1702C10.7088 15.9603 10.7214 16.048 10.7214 18.8175C10.7214 21.9112 10.8899 22.6527 11.8189 23.6457C12.788 24.6817 13.4993 24.7624 21.6586 24.761C26.055 24.7604 29.3804 24.6799 29.7875 24.5641C30.8195 24.2706 31.6843 23.5876 32.129 22.7149C32.474 22.038 32.5344 21.5232 32.5877 18.8154C32.6359 16.3604 32.7107 15.6257 32.9391 15.3674C33.5873 14.6337 33.7475 13.6079 33.7549 10.1388C33.7646 5.56486 33.4593 4.55488 31.7963 3.65778C31.1305 3.29863 30.6161 3.21791 28.5973 3.15572L26.1917 3.08162L26.0984 2.0886C26.0232 1.28627 25.8902 0.990292 25.4065 0.547693L24.8076 0H21.6494H18.4912L17.8437 0.662925ZM18.7279 1.02032C18.2661 1.26716 18.014 1.8248 17.977 2.68094L17.958 3.11965H21.5763H25.1946V2.36996C25.1946 1.05756 24.8175 0.886174 21.7949 0.823781C19.9602 0.785956 19.0581 0.843864 18.7279 1.02032ZM21.0431 15.4422C20.9153 15.5731 20.8145 16.2005 20.8145 16.8656C20.8145 18.1441 21.0175 18.5229 21.7029 18.5229C22.2622 18.5229 22.5285 17.9887 22.5285 16.8656C22.5285 16.369 22.4397 15.7928 22.3314 15.5854C22.111 15.1638 21.3929 15.0841 21.0431 15.4422ZM11.6743 19.1357C11.6749 21.3731 11.7273 21.8278 12.0461 22.3632C12.8613 23.7319 12.5555 23.6898 21.6631 23.6898C29.8374 23.6898 29.862 23.6886 30.4558 23.255C31.4632 22.5192 31.6694 21.7975 31.6694 19.0068C31.6694 16.5294 31.6691 16.5277 31.2409 16.6503C30.7953 16.7778 28.007 17.0604 25.1677 17.2655C23.5326 17.3836 23.5214 17.3881 23.41 17.9586C23.1158 19.4642 21.4653 19.9991 20.419 18.9279C20.1021 18.6034 19.8624 18.1489 19.8624 17.873C19.8624 17.4022 19.8136 17.3846 18.196 17.2713C15.261 17.0656 12.2698 16.7658 11.9672 16.6468C11.7117 16.5464 11.6736 16.8689 11.6743 19.1357ZM0.67586 19.605L0 20.297L0.115595 22.6759C0.17901 23.9842 0.356688 25.5372 0.51037 26.127C0.901908 27.6303 4.06182 34.4935 4.90184 35.6651C5.84012 36.974 7.11795 37.8947 9.44395 38.9377C10.5131 39.4171 11.6343 40.043 11.9356 40.3286C12.6465 41.0027 13.1875 42.2156 13.1929 43.1476C13.1959 43.6731 13.3349 44.0289 13.6724 44.3744L14.1479 44.8613L17.8144 44.7792C19.8311 44.7341 21.5668 44.6903 21.6715 44.6819C21.7762 44.6733 22.8903 44.7628 24.1472 44.8808C25.5212 45.0097 27.3364 45.0368 28.6994 44.9488C30.7201 44.8186 31.0147 44.7531 31.4131 44.3452C31.7226 44.0283 31.8612 43.6602 31.8641 43.1476C31.8694 42.2156 32.4104 41.0027 33.1213 40.3286C33.4226 40.043 34.5439 39.4171 35.613 38.9377C39.1321 37.3597 40.0616 36.3805 41.9772 32.2349C44.6166 26.5226 45 25.1874 45 21.7065C45 20.3009 44.973 20.211 44.3607 19.5842C43.7372 18.9458 43.6829 18.9298 42.1385 18.9333C39.5505 18.9392 39.3071 19.2012 38.8093 22.5199C38.6486 23.5923 38.4673 24.7195 38.4065 25.0248C38.2416 25.8554 35.7288 29.5967 35.1333 29.8981C34.5787 30.1789 32.4468 30.6924 32.3304 30.5733C32.2912 30.5331 32.7262 29.8891 33.2971 29.1424C33.868 28.3954 34.407 27.5211 34.4946 27.1994C35.031 25.2301 32.8416 23.7465 31.3259 25.0523C30.5628 25.7098 24.4216 32.4773 24.0045 33.1201C23.4626 33.956 22.5525 36.3312 22.0886 38.1201L21.6561 39.7882L21.1364 37.8807C20.1349 34.2042 19.5914 33.3301 15.5086 28.83C13.5008 26.6168 11.6665 24.7536 11.4325 24.6893C10.5498 24.4471 9.95889 24.5734 9.34378 25.1362C8.8195 25.6158 8.72181 25.84 8.72181 26.5651C8.72181 27.3109 8.8694 27.626 9.83301 28.9367C10.4441 29.768 10.905 30.4887 10.8568 30.5378C10.8088 30.5871 10.1588 30.4852 9.41271 30.3114C7.89531 29.9581 7.64127 29.7183 5.86926 26.966C5.00353 25.6214 4.94716 25.4466 4.51602 22.774C4.0982 20.1837 4.02488 19.947 3.48671 19.449C2.61108 18.6385 1.5631 18.6966 0.67586 19.605ZM1.2824 20.2208C0.99865 20.5111 0.970846 20.854 1.06454 22.9017C1.12986 24.334 1.29897 25.6298 1.49797 26.2245C1.99387 27.7067 4.94278 34.1008 5.53409 34.9759C6.3225 36.1423 7.62204 37.09 9.70104 38.0148C12.7231 39.359 13.5757 40.2473 14.0289 42.5241L14.2776 43.7725L17.6455 43.8257C20.4325 43.8698 21.0316 43.8306 21.1185 43.5988C21.279 43.1708 20.5192 38.8996 19.9701 37.1433C19.1318 34.4617 18.3379 33.2839 14.6545 29.2574C11.8385 26.1789 11.1661 25.5421 10.7324 25.5421C10.1322 25.5421 9.57878 26.073 9.57878 26.649C9.57878 26.8654 10.2249 27.9044 11.0147 28.9581C12.4477 30.8695 12.6041 31.277 12.043 31.6387C11.6642 31.8828 8.38169 31.1421 7.55139 30.625C6.93666 30.2422 4.59124 26.9561 4.16618 25.8817C4.0285 25.5341 3.76589 24.1967 3.58249 22.9099C3.38425 21.5201 3.13021 20.4317 2.95653 20.2289C2.58346 19.7938 1.70365 19.7895 1.2824 20.2208ZM40.3554 20.1864C40.0505 20.4986 40.0366 20.5598 39.5703 23.6561C39.2366 25.8702 39.1092 26.1604 37.3585 28.6929C35.9164 30.7794 35.7846 30.864 32.9781 31.508C30.4211 32.0949 30.3095 31.6318 32.336 28.844C33.1215 27.7633 33.7642 26.7734 33.7642 26.6439C33.7642 26.1216 33.1626 25.5421 32.6203 25.5421C32.1512 25.5421 31.5416 26.114 28.516 29.3929C24.548 33.6931 23.9225 34.6891 23.0356 38.1182C22.4873 40.2384 22.0482 43.1283 22.2091 43.5578C22.3102 43.8275 22.777 43.87 25.6444 43.87C29.2528 43.87 29.1915 43.8897 29.1957 42.7329C29.1983 41.969 30.0046 40.3551 30.7416 39.6382C31.0949 39.2947 32.2762 38.614 33.3666 38.1256C36.928 36.531 37.6248 35.7295 39.9437 30.5614C41.9073 26.1851 42.0838 25.5912 42.2579 22.774C42.3737 20.8999 42.3499 20.6191 42.0459 20.2752C41.6386 19.8142 40.7637 19.7684 40.3554 20.1864Z" stroke="#444444" stroke-width="2" mask="url(#path-1-inside-1_219_8077)"/>
</svg>
