<svg width="33" height="32" viewBox="0 0 33 32" fill="none" xmlns="http://www.w3.org/2000/svg">
<mask id="path-1-inside-1_291_8253" fill="white">
<path fill-rule="evenodd" clip-rule="evenodd" d="M2.34939 0.0717074C1.66498 0.289432 1.16755 0.720176 0.873507 1.34964L0.695312 1.73105V14.4767V27.2223L0.873444 27.6037C1.10527 28.1002 1.53781 28.5345 2.0243 28.7591L2.41301 28.9386L4.07936 28.9592L5.74578 28.9797L5.76524 30.2772L5.78478 31.5746L5.99274 31.7823C6.16998 31.9593 6.24601 31.99 6.50691 31.99C6.80757 31.99 6.84924 31.9629 8.82395 30.4827L10.8347 28.9755L12.9051 28.9571L14.9753 28.9386L15.1832 28.7308C15.3621 28.552 15.3911 28.479 15.3911 28.2076C15.3911 27.9362 15.3622 27.8632 15.1832 27.6844L14.9752 27.4766H12.6332H10.2913L8.79017 28.6019L7.28909 29.7273L7.26854 28.8095L7.248 27.8919L7.04016 27.6842L6.83225 27.4766L4.73507 27.4448L2.6379 27.413L2.42999 27.2052L2.22215 26.9974V14.4767V1.95596L2.43012 1.74815L2.63809 1.54035H14.6595H26.681L26.8889 1.74815L27.0969 1.9559L27.1287 7.10265L27.1605 12.2494L27.3685 12.4571C27.5475 12.636 27.6205 12.6649 27.8921 12.6649C28.1638 12.6649 28.2367 12.636 28.4158 12.4571L28.6237 12.2493V6.99019V1.73105L28.4441 1.34265C28.2193 0.856532 27.7846 0.424325 27.2878 0.19268L26.906 0.0146859L14.755 0.00273492C5.06315 -0.00686402 2.55233 0.00712119 2.34939 0.0717074ZM4.91104 3.14165C4.51305 3.27534 4.13382 3.60838 3.9214 4.01077L3.74899 4.33739V7.86548V11.3936L3.89913 11.6796C4.10404 12.07 4.32677 12.2962 4.70326 12.496L5.02136 12.6649H10.079H15.1367L15.4548 12.496C15.8312 12.2962 16.054 12.07 16.2589 11.6796L16.409 11.3936V7.86548V4.33739L16.24 4.01954C16.04 3.64334 15.8136 3.42078 15.4229 3.21603L15.1367 3.066L10.1744 3.05323C5.78338 3.04198 5.17754 3.05215 4.91104 3.14165ZM18.4448 4.11108C18.1643 4.229 17.9995 4.49053 17.9995 4.81803C17.9995 5.08509 18.0291 5.15921 18.2075 5.33739L18.4154 5.5452H21.7848H25.1541L25.3621 5.33739C25.5411 5.15851 25.5701 5.0856 25.5701 4.81416C25.5701 4.54272 25.5411 4.4698 25.3621 4.29092L25.1542 4.08311L21.8631 4.0704C20.053 4.06341 18.5148 4.08171 18.4448 4.11108ZM5.32036 4.63616C5.21037 4.74607 5.21037 10.9849 5.32036 11.0948C5.43087 11.2052 14.7272 11.2052 14.8377 11.0948C14.9477 10.9849 14.9477 4.74607 14.8377 4.63616C14.7852 4.58372 14.4686 4.55988 13.8259 4.55988H12.8904L12.8666 5.43396C12.845 6.22959 12.8278 6.33657 12.6756 6.62588C12.4781 7.00132 12.252 7.22413 11.8603 7.42939C11.5831 7.57465 11.5268 7.57941 10.079 7.57941H8.58398L8.26589 7.41051C7.88844 7.21014 7.6654 6.9832 7.46341 6.59409C7.33363 6.34408 7.31193 6.19799 7.29126 5.43396L7.26759 4.55988H6.33215C5.68941 4.55988 5.37285 4.58372 5.32036 4.63616ZM8.80664 5.24643C8.80664 5.69567 8.83305 5.95935 8.88299 6.00926C8.99037 6.11656 11.1676 6.11656 11.275 6.00926C11.325 5.95935 11.3514 5.69567 11.3514 5.24643V4.55988H10.079H8.80664V5.24643ZM18.4448 7.1624C18.1643 7.28032 17.9995 7.54185 17.9995 7.86935C17.9995 8.13641 18.0291 8.21053 18.2075 8.38871L18.4154 8.59652H21.7848H25.1541L25.3621 8.38871C25.5411 8.20983 25.5701 8.13692 25.5701 7.86548C25.5701 7.59404 25.5411 7.52112 25.3621 7.34224L25.1542 7.13443L21.8631 7.12172C20.053 7.11472 18.5148 7.13303 18.4448 7.1624ZM18.4448 10.2137C18.1643 10.3316 17.9995 10.5932 17.9995 10.9207C17.9995 11.1877 18.0291 11.2618 18.2075 11.44L18.4154 11.6478H21.7848H25.1541L25.3621 11.44C25.5411 11.2611 25.5701 11.1882 25.5701 10.9168C25.5701 10.6454 25.5411 10.5724 25.3621 10.3936L25.1542 10.1857L21.8631 10.173C20.053 10.166 18.5148 10.1844 18.4448 10.2137ZM18.669 14.3235C17.9558 14.5167 17.3977 15.0058 17.1268 15.6751L16.9816 16.0341V22.105V28.1758L17.1351 28.5568C17.3431 29.073 17.8665 29.5956 18.3816 29.8013C18.7548 29.9502 18.8153 29.9542 21.2122 29.9864L23.6615 30.0193L25.102 30.9822C25.8942 31.5118 26.6315 31.9646 26.7404 31.9885C27.0201 32.0499 27.3853 31.8585 27.5262 31.5768C27.6113 31.4067 27.6375 31.1943 27.6375 30.6757L27.6377 29.997L29.2758 29.9743C30.8235 29.9529 30.9351 29.9433 31.2953 29.8003C31.8101 29.596 32.3335 29.0739 32.5418 28.5568L32.6953 28.1758V22.105V16.0341L32.5418 15.6531C32.3343 15.1381 31.8107 14.6149 31.2953 14.4076L30.914 14.2542L24.9657 14.2417C19.8778 14.231 18.967 14.2428 18.669 14.3235ZM4.19432 15.2996C3.91408 15.4167 3.74899 15.6786 3.74899 16.0062C3.74899 16.2733 3.77864 16.3474 3.95696 16.5256L4.16493 16.7334H9.57006H14.9752L15.1832 16.5256C15.3622 16.3467 15.3911 16.2738 15.3911 16.0023C15.3911 15.7309 15.3621 15.658 15.1832 15.4791L14.9752 15.2713L9.64838 15.2589C6.71863 15.252 4.2643 15.2703 4.19432 15.2996ZM24.4165 16.115C24.2083 16.2836 24.1387 16.4697 24.1387 16.8583C24.1387 17.1405 24.1156 17.222 24.0273 17.2518C22.9742 17.6083 22.3273 18.3525 22.166 19.3932C21.9977 20.4787 22.4811 21.2868 23.6611 21.8921L24.1381 22.1367L24.1384 23.9037L24.1387 25.6706L23.9001 25.6259C23.5912 25.5681 23.2802 25.437 22.9985 25.2458C22.857 25.1497 22.6821 25.0927 22.5285 25.0927C22.0174 25.0927 21.7184 25.7195 22.0366 26.1237C22.2872 26.4422 23.4371 26.9362 23.9276 26.9362H24.1387V27.3208C24.1387 27.5323 24.1794 27.7842 24.2293 27.8805C24.4064 28.2227 24.9015 28.3113 25.2007 28.0543C25.3604 27.9172 25.3825 27.8497 25.411 27.4113L25.4428 26.9215L25.8335 26.7805C27.5674 26.1545 28.3195 24.0369 27.3493 22.5126C27.0209 21.9965 26.5299 21.6471 25.745 21.371L25.411 21.2535V19.8992C25.411 18.3403 25.3882 18.3851 25.9865 18.7659C26.1951 18.8987 26.4156 18.9875 26.5392 18.9884C26.8184 18.9906 27.1215 18.7134 27.1694 18.4119C27.2 18.2197 27.1751 18.1485 27.0126 17.9636C26.785 17.7046 26.2907 17.4229 25.7962 17.2705L25.4428 17.1615L25.411 16.7353C25.3836 16.3675 25.3547 16.288 25.2007 16.1557C24.9864 15.9715 24.6174 15.9524 24.4165 16.115ZM4.19432 18.3509C3.91408 18.468 3.74899 18.7299 3.74899 19.0575C3.74899 19.3246 3.77864 19.3987 3.95696 19.5769L4.16493 19.7847H9.57006H14.9752L15.1832 19.5769C15.3622 19.398 15.3911 19.3251 15.3911 19.0536C15.3911 18.7822 15.3621 18.7093 15.1832 18.5304L14.9752 18.3226L9.64838 18.3102C6.71863 18.3033 4.2643 18.3216 4.19432 18.3509ZM23.88 18.7809C23.612 19.0062 23.442 19.3913 23.4403 19.7772C23.439 20.0596 23.4638 20.1125 23.7167 20.3652C23.8696 20.5179 24.0271 20.6429 24.0666 20.6429C24.1172 20.6429 24.1387 20.3403 24.1387 19.6258C24.1387 19.0664 24.1266 18.6087 24.1117 18.6087C24.0969 18.6087 23.9926 18.6862 23.88 18.7809ZM4.19432 21.4022C3.91408 21.5193 3.74899 21.7812 3.74899 22.1088C3.74899 22.3759 3.77864 22.45 3.95696 22.6282L4.16493 22.836H9.57006H14.9752L15.1832 22.6282C15.3622 22.4493 15.3911 22.3764 15.3911 22.105C15.3911 21.8335 15.3621 21.7606 15.1832 21.5817L14.9752 21.3739L9.64838 21.3615C6.71863 21.3547 4.2643 21.373 4.19432 21.4022ZM25.411 24.1074C25.411 24.8941 25.4353 25.5377 25.4651 25.5377C25.4948 25.5377 25.6375 25.452 25.7822 25.3473C26.4428 24.8691 26.6817 23.8955 26.2928 23.2667C26.1356 23.0124 25.701 22.6771 25.5287 22.6771C25.4177 22.6771 25.411 22.7581 25.411 24.1074Z"/>
</mask>
<path fill-rule="evenodd" clip-rule="evenodd" d="M2.34939 0.0717074C1.66498 0.289432 1.16755 0.720176 0.873507 1.34964L0.695312 1.73105V14.4767V27.2223L0.873444 27.6037C1.10527 28.1002 1.53781 28.5345 2.0243 28.7591L2.41301 28.9386L4.07936 28.9592L5.74578 28.9797L5.76524 30.2772L5.78478 31.5746L5.99274 31.7823C6.16998 31.9593 6.24601 31.99 6.50691 31.99C6.80757 31.99 6.84924 31.9629 8.82395 30.4827L10.8347 28.9755L12.9051 28.9571L14.9753 28.9386L15.1832 28.7308C15.3621 28.552 15.3911 28.479 15.3911 28.2076C15.3911 27.9362 15.3622 27.8632 15.1832 27.6844L14.9752 27.4766H12.6332H10.2913L8.79017 28.6019L7.28909 29.7273L7.26854 28.8095L7.248 27.8919L7.04016 27.6842L6.83225 27.4766L4.73507 27.4448L2.6379 27.413L2.42999 27.2052L2.22215 26.9974V14.4767V1.95596L2.43012 1.74815L2.63809 1.54035H14.6595H26.681L26.8889 1.74815L27.0969 1.9559L27.1287 7.10265L27.1605 12.2494L27.3685 12.4571C27.5475 12.636 27.6205 12.6649 27.8921 12.6649C28.1638 12.6649 28.2367 12.636 28.4158 12.4571L28.6237 12.2493V6.99019V1.73105L28.4441 1.34265C28.2193 0.856532 27.7846 0.424325 27.2878 0.19268L26.906 0.0146859L14.755 0.00273492C5.06315 -0.00686402 2.55233 0.00712119 2.34939 0.0717074ZM4.91104 3.14165C4.51305 3.27534 4.13382 3.60838 3.9214 4.01077L3.74899 4.33739V7.86548V11.3936L3.89913 11.6796C4.10404 12.07 4.32677 12.2962 4.70326 12.496L5.02136 12.6649H10.079H15.1367L15.4548 12.496C15.8312 12.2962 16.054 12.07 16.2589 11.6796L16.409 11.3936V7.86548V4.33739L16.24 4.01954C16.04 3.64334 15.8136 3.42078 15.4229 3.21603L15.1367 3.066L10.1744 3.05323C5.78338 3.04198 5.17754 3.05215 4.91104 3.14165ZM18.4448 4.11108C18.1643 4.229 17.9995 4.49053 17.9995 4.81803C17.9995 5.08509 18.0291 5.15921 18.2075 5.33739L18.4154 5.5452H21.7848H25.1541L25.3621 5.33739C25.5411 5.15851 25.5701 5.0856 25.5701 4.81416C25.5701 4.54272 25.5411 4.4698 25.3621 4.29092L25.1542 4.08311L21.8631 4.0704C20.053 4.06341 18.5148 4.08171 18.4448 4.11108ZM5.32036 4.63616C5.21037 4.74607 5.21037 10.9849 5.32036 11.0948C5.43087 11.2052 14.7272 11.2052 14.8377 11.0948C14.9477 10.9849 14.9477 4.74607 14.8377 4.63616C14.7852 4.58372 14.4686 4.55988 13.8259 4.55988H12.8904L12.8666 5.43396C12.845 6.22959 12.8278 6.33657 12.6756 6.62588C12.4781 7.00132 12.252 7.22413 11.8603 7.42939C11.5831 7.57465 11.5268 7.57941 10.079 7.57941H8.58398L8.26589 7.41051C7.88844 7.21014 7.6654 6.9832 7.46341 6.59409C7.33363 6.34408 7.31193 6.19799 7.29126 5.43396L7.26759 4.55988H6.33215C5.68941 4.55988 5.37285 4.58372 5.32036 4.63616ZM8.80664 5.24643C8.80664 5.69567 8.83305 5.95935 8.88299 6.00926C8.99037 6.11656 11.1676 6.11656 11.275 6.00926C11.325 5.95935 11.3514 5.69567 11.3514 5.24643V4.55988H10.079H8.80664V5.24643ZM18.4448 7.1624C18.1643 7.28032 17.9995 7.54185 17.9995 7.86935C17.9995 8.13641 18.0291 8.21053 18.2075 8.38871L18.4154 8.59652H21.7848H25.1541L25.3621 8.38871C25.5411 8.20983 25.5701 8.13692 25.5701 7.86548C25.5701 7.59404 25.5411 7.52112 25.3621 7.34224L25.1542 7.13443L21.8631 7.12172C20.053 7.11472 18.5148 7.13303 18.4448 7.1624ZM18.4448 10.2137C18.1643 10.3316 17.9995 10.5932 17.9995 10.9207C17.9995 11.1877 18.0291 11.2618 18.2075 11.44L18.4154 11.6478H21.7848H25.1541L25.3621 11.44C25.5411 11.2611 25.5701 11.1882 25.5701 10.9168C25.5701 10.6454 25.5411 10.5724 25.3621 10.3936L25.1542 10.1857L21.8631 10.173C20.053 10.166 18.5148 10.1844 18.4448 10.2137ZM18.669 14.3235C17.9558 14.5167 17.3977 15.0058 17.1268 15.6751L16.9816 16.0341V22.105V28.1758L17.1351 28.5568C17.3431 29.073 17.8665 29.5956 18.3816 29.8013C18.7548 29.9502 18.8153 29.9542 21.2122 29.9864L23.6615 30.0193L25.102 30.9822C25.8942 31.5118 26.6315 31.9646 26.7404 31.9885C27.0201 32.0499 27.3853 31.8585 27.5262 31.5768C27.6113 31.4067 27.6375 31.1943 27.6375 30.6757L27.6377 29.997L29.2758 29.9743C30.8235 29.9529 30.9351 29.9433 31.2953 29.8003C31.8101 29.596 32.3335 29.0739 32.5418 28.5568L32.6953 28.1758V22.105V16.0341L32.5418 15.6531C32.3343 15.1381 31.8107 14.6149 31.2953 14.4076L30.914 14.2542L24.9657 14.2417C19.8778 14.231 18.967 14.2428 18.669 14.3235ZM4.19432 15.2996C3.91408 15.4167 3.74899 15.6786 3.74899 16.0062C3.74899 16.2733 3.77864 16.3474 3.95696 16.5256L4.16493 16.7334H9.57006H14.9752L15.1832 16.5256C15.3622 16.3467 15.3911 16.2738 15.3911 16.0023C15.3911 15.7309 15.3621 15.658 15.1832 15.4791L14.9752 15.2713L9.64838 15.2589C6.71863 15.252 4.2643 15.2703 4.19432 15.2996ZM24.4165 16.115C24.2083 16.2836 24.1387 16.4697 24.1387 16.8583C24.1387 17.1405 24.1156 17.222 24.0273 17.2518C22.9742 17.6083 22.3273 18.3525 22.166 19.3932C21.9977 20.4787 22.4811 21.2868 23.6611 21.8921L24.1381 22.1367L24.1384 23.9037L24.1387 25.6706L23.9001 25.6259C23.5912 25.5681 23.2802 25.437 22.9985 25.2458C22.857 25.1497 22.6821 25.0927 22.5285 25.0927C22.0174 25.0927 21.7184 25.7195 22.0366 26.1237C22.2872 26.4422 23.4371 26.9362 23.9276 26.9362H24.1387V27.3208C24.1387 27.5323 24.1794 27.7842 24.2293 27.8805C24.4064 28.2227 24.9015 28.3113 25.2007 28.0543C25.3604 27.9172 25.3825 27.8497 25.411 27.4113L25.4428 26.9215L25.8335 26.7805C27.5674 26.1545 28.3195 24.0369 27.3493 22.5126C27.0209 21.9965 26.5299 21.6471 25.745 21.371L25.411 21.2535V19.8992C25.411 18.3403 25.3882 18.3851 25.9865 18.7659C26.1951 18.8987 26.4156 18.9875 26.5392 18.9884C26.8184 18.9906 27.1215 18.7134 27.1694 18.4119C27.2 18.2197 27.1751 18.1485 27.0126 17.9636C26.785 17.7046 26.2907 17.4229 25.7962 17.2705L25.4428 17.1615L25.411 16.7353C25.3836 16.3675 25.3547 16.288 25.2007 16.1557C24.9864 15.9715 24.6174 15.9524 24.4165 16.115ZM4.19432 18.3509C3.91408 18.468 3.74899 18.7299 3.74899 19.0575C3.74899 19.3246 3.77864 19.3987 3.95696 19.5769L4.16493 19.7847H9.57006H14.9752L15.1832 19.5769C15.3622 19.398 15.3911 19.3251 15.3911 19.0536C15.3911 18.7822 15.3621 18.7093 15.1832 18.5304L14.9752 18.3226L9.64838 18.3102C6.71863 18.3033 4.2643 18.3216 4.19432 18.3509ZM23.88 18.7809C23.612 19.0062 23.442 19.3913 23.4403 19.7772C23.439 20.0596 23.4638 20.1125 23.7167 20.3652C23.8696 20.5179 24.0271 20.6429 24.0666 20.6429C24.1172 20.6429 24.1387 20.3403 24.1387 19.6258C24.1387 19.0664 24.1266 18.6087 24.1117 18.6087C24.0969 18.6087 23.9926 18.6862 23.88 18.7809ZM4.19432 21.4022C3.91408 21.5193 3.74899 21.7812 3.74899 22.1088C3.74899 22.3759 3.77864 22.45 3.95696 22.6282L4.16493 22.836H9.57006H14.9752L15.1832 22.6282C15.3622 22.4493 15.3911 22.3764 15.3911 22.105C15.3911 21.8335 15.3621 21.7606 15.1832 21.5817L14.9752 21.3739L9.64838 21.3615C6.71863 21.3547 4.2643 21.373 4.19432 21.4022ZM25.411 24.1074C25.411 24.8941 25.4353 25.5377 25.4651 25.5377C25.4948 25.5377 25.6375 25.452 25.7822 25.3473C26.4428 24.8691 26.6817 23.8955 26.2928 23.2667C26.1356 23.0124 25.701 22.6771 25.5287 22.6771C25.4177 22.6771 25.411 22.7581 25.411 24.1074Z" stroke="#444444" stroke-width="2" mask="url(#path-1-inside-1_291_8253)"/>
</svg>
