<svg width="32" height="32" viewBox="0 0 32 32" fill="none" xmlns="http://www.w3.org/2000/svg">
<path fill-rule="evenodd" clip-rule="evenodd" d="M28.5625 0.317224C28.036 0.659178 27.1577 0.866351 26.6173 0.77583C26.4251 0.743572 25.9074 0.610417 25.4671 0.480012C24.5917 0.220577 23.3095 0.176192 22.4397 0.375238C21.3092 0.633797 20.5111 1.14004 19.2008 2.42958C18.1225 3.49058 17.902 3.77614 17.7519 4.30614C17.4852 5.24736 17.5452 6.21233 17.9157 6.94437L18.2302 7.56576L17.9054 7.98374C17.3652 8.67889 17.5199 9.72576 18.2312 10.1882C18.3961 10.2954 18.8139 10.4164 19.1597 10.4571C19.5055 10.4977 19.771 10.5651 19.7494 10.6067C19.3033 11.4737 19.2689 11.4934 18.2047 11.4984C17.6131 11.5013 17.1143 11.5662 16.9969 11.6556C16.5301 12.0112 16.5039 12.2717 16.5039 16.5507V20.7474H15.5093C13.9021 20.7474 12.4867 21.2965 11.346 22.3627L10.9125 22.7678L5.45625 22.753L0 22.7382V26.8691V30.9998H5.28164H10.5634L10.9456 30.6806L11.3279 30.3612L12.1837 30.6331C12.8224 30.836 13.4763 30.9209 14.763 30.968L16.4866 31.0313L16.6297 31.3744C16.7085 31.5632 16.9135 31.7811 17.0854 31.8587C17.3054 31.9584 19.4614 32 24.3897 32H31.3815L31.6907 31.6931L32 31.3862V21.7476V12.1091L31.6907 11.8022C31.4139 11.5274 31.2758 11.4953 30.3725 11.4953H29.3634L29.0418 11.0264L28.72 10.5576L29.3694 10.4753C30.1795 10.3728 30.626 10.0533 30.8542 9.41294C31.0629 8.8273 30.98 8.39808 30.5634 7.90672C30.2906 7.58489 30.2775 7.519 30.4319 7.24069C30.5261 7.07078 30.6982 6.5159 30.8142 6.00778C31.1953 4.33902 30.8963 2.96783 29.7348 1.05964C29.3776 0.47276 29.075 -0.00409937 29.0624 2.6574e-05C29.0497 0.00402749 28.8248 0.14681 28.5625 0.317224ZM1.54142 0.670681L1.07087 1.09865V4.30614V7.51363L1.54142 7.9416L2.01209 8.36957H4.65361H7.29524L7.42639 8.83843C7.59773 9.45045 7.59395 9.49483 7.37008 9.49483C7.24031 9.49483 7.1811 9.62399 7.1811 9.90743C7.1811 10.6502 6.68258 10.8456 6.16983 10.3039L5.87049 9.9877L4.76409 11.0807L3.6577 12.1736L3.97065 12.4976C4.50343 13.0496 4.33323 13.4409 3.52706 13.5168L3.08661 13.5583V15.0586V16.559L3.52706 16.6005C4.33386 16.6764 4.51868 17.1088 3.96485 17.6251L3.64624 17.9221L4.74759 19.0201L5.84882 20.1181L6.17537 19.8076C6.74318 19.2678 7.1811 19.4701 7.1811 20.2723V20.7474H8.75591H10.3307V20.2723C10.3307 19.4525 10.769 19.2682 11.3668 19.8365L11.7237 20.1759L12.818 19.0899L13.9123 18.0039L13.5703 17.6497C12.9965 17.0553 13.1835 16.6215 14.0134 16.6215H14.496L14.4606 15.0899L14.4252 13.5583L13.9848 13.5168C13.1786 13.4409 13.0084 13.0496 13.5412 12.4976L13.8541 12.1736L12.7477 11.0807L11.6413 9.9877L11.342 10.3039C10.8292 10.8456 10.3307 10.6502 10.3307 9.90743C10.3307 9.62399 10.2715 9.49483 10.1417 9.49483C9.91786 9.49483 9.91408 9.45045 10.0854 8.83843L10.2166 8.36957L12.8248 8.3652C15.65 8.36032 15.826 8.32494 16.2588 7.67354C16.4824 7.33671 16.5023 7.0624 16.5023 4.30614C16.5023 1.54988 16.4824 1.27557 16.2588 0.938742C15.791 0.234705 15.9787 0.251959 8.72252 0.247083L2.01209 0.242707L1.54142 0.670681ZM2.14614 1.48474C2.06841 1.62903 2.01575 2.76716 2.01575 4.30614C2.01575 5.84512 2.06841 6.98326 2.14614 7.12754C2.26935 7.35597 2.4388 7.36934 5.21222 7.36934H8.14778L8.37795 8.36957C8.50457 8.9197 8.67288 9.3698 8.75213 9.3698C8.83137 9.3698 9.01014 8.93383 9.14935 8.40083L9.40271 7.43186L12.282 7.39823C14.1473 7.37635 15.22 7.31596 15.3286 7.22656C15.5582 7.03752 15.5733 1.61965 15.3449 1.39297C15.2312 1.2802 13.5904 1.24294 8.73512 1.24294C2.47874 1.24294 2.2725 1.25056 2.14614 1.48474ZM22.4612 1.41623C21.798 1.63203 20.9264 2.13364 20.6083 2.48247C20.3688 2.74516 20.3695 2.75078 20.7035 3.09661L21.0404 3.44569L20.6619 3.80553L20.2835 4.16536L19.91 3.8104C19.5895 3.50571 19.5079 3.47895 19.3339 3.62236C18.5933 4.23237 18.4232 5.7421 18.9807 6.75858C19.4353 7.58777 19.6535 7.56114 19.6535 6.67668C19.6535 5.33275 20.4003 4.48393 21.6622 4.39341C22.2463 4.3514 22.5499 4.41717 23.4651 4.78325C24.0703 5.02556 24.7311 5.25973 24.9335 5.30387C25.5171 5.43115 26.2156 5.17009 26.9112 4.56495L27.5548 4.00532L27.8872 4.34978C28.1192 4.58996 28.1799 4.73399 28.0879 4.82526C27.9958 4.91666 28.0888 5.08819 28.3945 5.39151C28.767 5.76122 28.8464 5.94302 28.9209 6.59804C28.9693 7.02226 29.0521 7.36934 29.1048 7.36934C29.2641 7.36934 29.734 6.26809 29.8691 5.57843C30.0546 4.63096 29.8986 3.62873 29.4137 2.65226C28.7877 1.3916 28.8853 1.45724 27.9791 1.68766C27.1141 1.90759 26.214 1.85158 25.4488 1.53C24.8241 1.26757 23.1177 1.20255 22.4612 1.41623ZM5.87124 2.66489C5.67408 3.01747 5.28756 3.6905 5.01228 4.16061L4.51175 5.0153L4.23206 4.75462L3.9525 4.49393L3.6155 4.84289L3.27849 5.19197L4.0189 5.91914L4.75931 6.6463L5.19055 5.91376C6.22891 4.15048 7.05512 2.65526 7.05512 2.53973C7.05512 2.47084 6.86942 2.32656 6.64227 2.21916L6.22954 2.02374L5.87124 2.66489ZM9.01077 3.50646L8.15534 5.00605L7.85713 4.72799L7.55906 4.45005L7.24409 4.74374C7.07087 4.90528 6.92913 5.09982 6.92913 5.17609C6.92913 5.37351 8.2914 6.68419 8.39244 6.58391C8.63156 6.34661 10.6935 2.57012 10.6352 2.47635C10.5975 2.41583 10.4091 2.28555 10.2166 2.18665L9.86633 2.00699L9.01077 3.50646ZM12.6423 3.48158L11.7812 4.98017L11.4932 4.71173L11.2053 4.4433L10.8302 4.81551L10.4552 5.18772L11.2086 5.92751C11.6229 6.33448 11.9831 6.64243 12.0092 6.61205C12.1221 6.47951 14.2323 2.75166 14.2641 2.62851C14.2833 2.55349 14.1202 2.37745 13.9012 2.23754L13.5032 1.98298L12.6423 3.48158ZM21.0185 5.7456L20.6389 6.12218L20.6816 8.02737C20.7229 9.86592 20.7374 9.95569 21.0966 10.5992C21.7248 11.7248 22.7206 12.3626 24.0105 12.4654C25.1355 12.555 25.9665 12.2481 26.7769 11.4439C27.6832 10.5444 27.8425 10.0072 27.8425 7.8512V6.12706L27.4981 5.94789C27.1866 5.78598 27.1049 5.79423 26.6477 6.03304C25.8306 6.45989 24.7657 6.395 23.326 5.83062C21.8736 5.26136 21.5194 5.24836 21.0185 5.7456ZM21.8056 7.66954C21.7192 7.77294 21.6837 7.96748 21.7266 8.10201C21.9084 8.67039 22.7224 8.48623 22.6532 7.89234C22.6235 7.63716 22.5362 7.54788 22.2884 7.51925C22.1092 7.49862 21.892 7.56626 21.8056 7.66954ZM25.8736 7.82645C25.8118 8.071 25.8506 8.20266 26.0213 8.32656C26.1487 8.41896 26.2879 8.4946 26.3307 8.4946C26.3735 8.4946 26.5128 8.41896 26.6401 8.32656C26.8108 8.20266 26.8496 8.071 26.7878 7.82645C26.7206 7.56051 26.6295 7.49437 26.3307 7.49437C26.0319 7.49437 25.9408 7.56051 25.8736 7.82645ZM18.8023 8.51423C18.402 8.91145 18.7579 9.49483 19.4006 9.49483C19.6373 9.49483 19.6636 9.43382 19.6292 8.96346C19.5956 8.50173 19.5492 8.42734 19.2747 8.39546C19.101 8.37533 18.8884 8.42871 18.8023 8.51423ZM28.9332 8.83543C28.8912 9.09174 28.9119 9.3558 28.979 9.42244C29.1399 9.5821 29.7265 9.37468 29.9029 9.09587C30.0752 8.82343 29.6911 8.36957 29.2883 8.36957C29.0639 8.36957 28.9944 8.46072 28.9332 8.83543ZM22.707 9.97369C22.4828 10.0791 22.2992 10.2071 22.2992 10.2581C22.2992 10.4412 22.9662 11.1328 23.3158 11.3123C24.1184 11.7241 25.3916 11.4328 25.9815 10.7021C26.2896 10.3205 26.259 10.1909 25.811 9.98032C25.4337 9.8029 25.4028 9.80978 25.0648 10.1452C24.5744 10.6318 23.9123 10.6292 23.4506 10.1385C23.1244 9.79203 23.1035 9.7874 22.707 9.97369ZM8.12775 10.7396C8.08466 10.8741 7.86973 11.1343 7.65014 11.3178C7.28378 11.6237 7.18614 11.6453 6.47068 11.5789C5.72636 11.51 5.6805 11.5222 5.4652 11.8449C5.31187 12.0747 5.23792 12.43 5.23402 12.9543C5.22935 13.5924 5.17594 13.7808 4.92498 14.0461C4.75805 14.2224 4.51717 14.3996 4.38954 14.4397C4.21039 14.4962 4.15748 14.6384 4.15748 15.0639C4.15748 15.5488 4.20246 15.6379 4.53329 15.8077C5.09115 16.094 5.33682 16.6556 5.2446 17.4343C5.17493 18.0224 5.19811 18.1054 5.51332 18.3983C5.77058 18.6372 5.92227 18.6927 6.11024 18.6166C6.83112 18.3245 7.62973 18.6089 8.04359 19.305C8.27326 19.6914 8.36863 19.7472 8.79937 19.7472C9.22797 19.7472 9.31263 19.6984 9.44832 19.3732C9.73443 18.6878 10.8183 18.2787 11.4537 18.6162C11.7603 18.779 12.5248 18.031 12.3433 17.746C11.9748 17.1673 12.397 16.0362 13.0875 15.7524C13.4312 15.6111 13.4803 15.5306 13.4803 15.1091C13.4803 14.6988 13.4235 14.5983 13.0968 14.4306C12.3947 14.0703 11.9809 12.9401 12.3431 12.3717C12.4292 12.2365 12.3709 12.0914 12.13 11.8419C11.8271 11.5282 11.7419 11.5048 11.1497 11.5739C10.3651 11.6655 9.79918 11.4216 9.51068 10.868C9.33959 10.5397 9.24989 10.4951 8.7612 10.4951C8.32076 10.4951 8.18973 10.5456 8.12775 10.7396ZM7.64762 11.668C5.67773 12.3967 4.71042 14.3768 5.3765 16.3168C5.67131 17.1755 6.66041 18.1382 7.54847 18.4309C8.49398 18.7426 9.73657 18.6464 10.4997 18.2026C13.0004 16.7481 12.9503 13.1886 10.4111 11.9094C9.62142 11.5117 8.36649 11.402 7.64762 11.668ZM27.8084 11.9064C27.5187 12.2833 26.5436 13.0294 26.186 13.1477C25.925 13.2341 26.2588 13.6328 26.7853 13.864C27.0896 13.9976 27.648 14.3972 28.026 14.7519C28.7831 15.4626 28.7289 15.4823 28.894 14.4352C28.9833 13.8685 28.7486 12.6583 28.4278 12.032L28.1416 11.4729L27.8084 11.9064ZM20.0055 12.2122C19.7186 12.856 19.5705 14.2049 19.7073 14.9287L19.7934 15.3838L20.46 14.7792C20.8266 14.4466 21.4045 14.0325 21.7441 13.8591C22.4173 13.5153 22.5933 13.1904 22.1774 13.0594C22.0331 13.014 21.583 12.6717 21.1769 12.2986C20.771 11.9255 20.4006 11.6203 20.354 11.6203C20.3074 11.6203 20.1506 11.8866 20.0055 12.2122ZM7.89128 12.6787C6.5023 13.1701 5.81556 14.7647 6.42205 16.0906C7.50098 18.4496 10.9905 17.9569 11.2954 15.4024C11.3974 14.5474 11.1058 13.7801 10.4582 13.1994C9.7086 12.5273 8.82557 12.3481 7.89128 12.6787ZM17.5118 16.6215V20.7474H18.7577C20.2608 20.7474 20.5813 20.914 20.591 21.6999C20.5943 21.9668 20.5532 22.3045 20.4999 22.4503C20.4176 22.6749 20.4596 22.7266 20.7744 22.789C21.4443 22.922 21.6693 23.3048 21.6693 24.3107C21.6693 25.6312 21.2695 25.965 19.8303 25.8466C18.9182 25.7714 18.725 25.5661 18.6457 24.5877L18.5827 23.8106H18.0787H17.5748L17.5414 27.4052L17.5079 30.9998H24.2501H30.9921V21.7476V12.4955H30.3487C29.8619 12.4955 29.7211 12.5364 29.7702 12.6634C29.9422 13.1082 29.9926 14.2697 29.8689 14.9342C29.5355 16.7235 28.3604 18.2951 26.7811 19.0638C23.9231 20.4547 20.5471 19.2928 19.1395 16.4339C18.7205 15.5827 18.7087 15.5167 18.7087 14.0271V12.4955H18.1102H17.5118V16.6215ZM8.34746 13.5828C7.92265 13.6658 7.34778 14.3043 7.25468 14.7967C7.01077 16.087 8.48869 17.0777 9.57027 16.3489C11.0182 15.3734 10.0774 13.2449 8.34746 13.5828ZM23.3797 13.7037C23.2751 13.9741 23.8903 14.621 24.252 14.621C24.6018 14.621 25.2539 13.9486 25.1541 13.6908C25.0415 13.3995 23.4929 13.4107 23.3797 13.7037ZM8.32126 14.8594C8.1343 15.2061 8.58091 15.7421 8.89713 15.5503C9.27131 15.3234 9.39074 15.0404 9.20567 14.8191C8.97827 14.5471 8.47723 14.5701 8.32126 14.8594ZM22.0295 14.8726C21.4683 15.1668 20.8469 15.7695 20.5836 16.2749C20.3887 16.649 20.3913 16.6562 20.9337 17.2069C21.5165 17.7986 22.2683 18.3191 22.3802 18.2082C22.4174 18.1712 22.6157 17.4822 22.8208 16.6769L23.1936 15.2129L22.9134 14.917C22.5817 14.5665 22.6104 14.568 22.0295 14.8726ZM25.6782 14.9503L25.3565 15.2697L25.7274 16.7262C25.9313 17.5274 26.1169 18.2015 26.1398 18.2241C26.3327 18.4155 28.0945 16.9339 28.0945 16.5802C28.0945 16.2404 27.2341 15.2975 26.6226 14.9672L26 14.6309L25.6782 14.9503ZM24.1266 15.7775C24.05 15.9975 23.4331 18.4645 23.4331 18.5508C23.4331 18.6586 25.0705 18.6359 25.0731 18.5282C25.0744 18.4766 24.9211 17.8015 24.7322 17.0278C24.4117 15.7143 24.2586 15.3983 24.1266 15.7775ZM23.811 21.2475V21.7476H24.8189H25.8268V21.2475V20.7474H24.8189H23.811V21.2475ZM26.8346 21.2475V21.7476H28.4094H29.9843V21.2475V20.7474H28.4094H26.8346V21.2475ZM13.9728 21.9847C13.1268 22.2534 12.2542 22.8278 11.7262 23.4634L11.3386 23.9301V26.5119C11.3386 28.5351 11.3756 29.1242 11.5098 29.2347C11.9919 29.6318 13.2015 29.8978 14.8346 29.9657L16.5039 30.035V27.3917C16.5039 25.9379 16.4876 24.7483 16.4675 24.7483C16.4476 24.7483 16.2089 24.8609 15.937 24.9984C15.2907 25.3255 15.137 25.314 14.989 24.9278C14.7904 24.4093 14.8368 24.3231 15.4496 24.0729C15.8472 23.9106 16.1548 23.6625 16.4183 23.2915L16.8044 22.7479L17.8826 22.7439C18.5306 22.7415 19.0404 22.6791 19.1606 22.5876C19.3504 22.4429 19.6535 21.9699 19.6535 21.8184C19.6535 21.7795 18.5339 21.7506 17.1654 21.7544C15.1351 21.7599 14.5475 21.8023 13.9728 21.9847ZM22.7068 26.3352L22.7402 29.937H23.2441H23.748V26.3737V22.8104L23.2107 22.7719L22.6733 22.7332L22.7068 26.3352ZM25.3858 22.8923C24.9184 23.146 24.8189 23.3991 24.8189 24.3346C24.8189 25.8021 25.0285 25.9151 27.6359 25.8523C29.2207 25.8142 29.3693 25.7899 29.6346 25.5263C29.8822 25.2803 29.9213 25.1128 29.9213 24.2965C29.9213 23.4159 29.8971 23.3308 29.5677 23.0496C29.2295 22.7609 29.1375 22.748 27.426 22.7516C26.3767 22.7539 25.5337 22.812 25.3858 22.8923ZM1.00787 26.8738V29.9995H4.09449H7.1811V26.8738V23.7481H4.09449H1.00787V26.8738ZM8.24567 23.907C8.21178 23.9944 8.19943 25.3869 8.21808 27.0015L8.25197 29.937L9.29134 29.9733L10.3307 30.0097V26.8788V23.7481H9.31893C8.61682 23.7481 8.28825 23.7967 8.24567 23.907ZM19.6535 24.3107V24.8734H20.1575H20.6614V24.3107V23.7481H20.1575H19.6535V24.3107ZM25.8268 24.3107V24.8811L27.3701 24.846L28.9134 24.8108V24.3107V23.8106L27.3701 23.7755L25.8268 23.7404V24.3107ZM18.9776 27.133C18.6688 27.3739 18.6457 27.4615 18.6457 28.3833C18.6457 29.1982 18.6893 29.4177 18.8906 29.6175C19.4244 30.1472 20.9072 30.1147 21.3856 29.5627C21.6213 29.2908 21.6693 29.0877 21.6693 28.3615C21.6693 27.6004 21.6294 27.448 21.36 27.1808C21.0914 26.9141 20.9366 26.8738 20.1802 26.8738C19.4901 26.8738 19.2407 26.9276 18.9776 27.133ZM25.1282 27.1808C24.8557 27.4511 24.8189 27.5974 24.8189 28.4092C24.8189 29.2385 24.8515 29.3611 25.1442 29.634C25.4594 29.9277 25.5298 29.937 27.4085 29.937C29.2501 29.937 29.3618 29.9229 29.6302 29.6563C29.8557 29.4324 29.923 29.1995 29.9626 28.5041C30.0101 27.6708 29.9955 27.6159 29.63 27.2532L29.2477 26.8738H27.3425C25.4877 26.8738 25.4292 26.882 25.1282 27.1808ZM19.6535 28.3742V28.8743H20.1575H20.6614V28.3742V27.8741H20.1575H19.6535V28.3742ZM25.8268 28.3703V28.8743H27.4091H28.9916L28.9524 28.4054L28.9134 27.9366L27.3701 27.9014L25.8268 27.8663V28.3703Z" fill="#444444"/>
</svg>
