<svg width="33" height="32" viewBox="0 0 33 32" fill="none" xmlns="http://www.w3.org/2000/svg">
<path fill-rule="evenodd" clip-rule="evenodd" d="M10.2892 0.0519788C9.87409 0.150881 9.26963 0.507692 8.97543 0.827373C8.82577 0.990051 8.6083 1.32396 8.4923 1.56924L8.28131 2.01534L8.26291 7.95097L8.24451 13.8867L7.94904 13.8461C7.27745 13.7538 6.62758 13.2718 6.31425 12.6335C6.17812 12.3562 6.15079 12.2033 6.15305 11.732C6.15645 11.0073 6.31625 10.6551 6.90391 10.0769C7.29511 9.69195 7.32698 9.63946 7.28898 9.44245C7.23578 9.16645 7.02578 8.99395 6.74305 8.99395C6.56132 8.99395 6.43798 9.07035 6.08352 9.40252C5.02859 10.3911 4.7644 11.8629 5.40786 13.1671C5.85052 14.0644 6.77118 14.7322 7.78131 14.8888L8.24797 14.9612V16.5521V18.1429H8.01911C7.76258 18.1429 7.78018 18.176 7.61111 17.375C7.54911 17.0811 7.44191 16.7785 7.37291 16.7025C7.30391 16.6266 7.07505 16.5101 6.86438 16.4437C6.65372 16.3773 6.24185 16.2068 5.94912 16.0647C5.60539 15.8979 5.36939 15.8214 5.28246 15.8486C5.20853 15.8717 4.91999 16.0369 4.64133 16.2154C4.36267 16.3941 4.10873 16.5402 4.07693 16.5402C4.0452 16.5402 3.87867 16.4015 3.7068 16.2319L3.39441 15.9237L3.759 15.3634C3.9664 15.0447 4.12527 14.724 4.1274 14.6199C4.12953 14.5191 4.02633 14.2262 3.89807 13.9691C3.76987 13.712 3.60107 13.306 3.523 13.0669C3.44494 12.8278 3.32801 12.5989 3.26307 12.5583C3.19821 12.5177 2.85328 12.4179 2.49654 12.3365L1.84802 12.1885V11.732V11.2755L2.49654 11.1275C2.85328 11.0461 3.19821 10.9462 3.26307 10.9057C3.32801 10.8651 3.44494 10.6362 3.523 10.3971C3.60107 10.1579 3.76987 9.75192 3.89807 9.49481C4.02633 9.2377 4.1296 8.94767 4.1276 8.85031C4.1256 8.75294 3.96007 8.41877 3.7598 8.10777L3.39561 7.54227L3.73054 7.20683L4.0654 6.87132L4.6238 7.23594C4.94126 7.44323 5.26106 7.60217 5.36506 7.60431C5.46566 7.60644 5.75799 7.50247 6.01465 7.37338C6.27132 7.24429 6.65372 7.08482 6.86438 7.01904C7.07505 6.95333 7.30458 6.83733 7.37438 6.7614C7.51284 6.61074 7.84798 5.20847 7.84798 4.77994C7.84798 4.33451 7.38258 4.10812 7.03311 4.38346C6.89825 4.48971 6.83752 4.65165 6.71138 5.2414L6.55592 5.96831L5.97332 6.215L5.39073 6.46162L4.76286 6.05826C4.37 5.80589 4.06367 5.6549 3.94453 5.6549C3.79027 5.6549 3.60474 5.80456 2.96774 6.44265C2.33075 7.08074 2.18135 7.2666 2.18135 7.42113C2.18135 7.54046 2.33208 7.84732 2.58401 8.24086L2.98667 8.86981L2.73881 9.45728L2.49094 10.0448L1.95281 10.1575C0.746289 10.4101 0.781356 10.363 0.781356 11.732C0.781356 13.101 0.746289 13.0538 1.95281 13.3065L2.49094 13.4191L2.73881 14.0067L2.98667 14.5941L2.58401 15.2231C2.33208 15.6166 2.18135 15.9235 2.18135 16.0428C2.18135 16.1973 2.33075 16.3832 2.96774 17.0213C3.60474 17.6594 3.79027 17.809 3.94453 17.809C4.06367 17.809 4.37 17.6581 4.76286 17.4057L5.39073 17.0023L5.97332 17.249L6.55592 17.4956L6.71138 18.2225C6.90918 19.1473 6.97478 19.2114 7.72171 19.2114H8.24417L8.26277 24.6075L8.28131 30.0037L8.53277 30.5133C8.82984 31.1152 9.2131 31.488 9.84796 31.7923L10.2813 32H16.7812H23.2812L23.7265 31.7886C24.3463 31.4945 24.7323 31.116 25.0322 30.5082L25.2812 30.0037L25.2996 24.0644L25.318 18.1252L25.6135 18.1659C26.2851 18.2581 26.9349 18.7401 27.2482 19.3784C27.3844 19.6557 27.4117 19.8086 27.4094 20.2799C27.406 21.0024 27.2462 21.3568 26.6665 21.9273C26.4363 22.1539 26.2479 22.3883 26.2479 22.4482C26.2479 22.6135 26.4292 22.9297 26.5509 22.9765C26.853 23.0926 27.0439 23.0171 27.479 22.6094C28.7932 21.3779 28.8484 19.3777 27.6042 18.071C27.1304 17.5734 26.4736 17.2305 25.7926 17.1249L25.3145 17.0507V15.4598V13.869H25.5434C25.8011 13.869 25.7847 13.8377 25.9551 14.6524C26.0933 15.3132 26.1616 15.3858 26.8812 15.6356C27.1745 15.7375 27.5448 15.897 27.704 15.9901C28.1174 16.2319 28.299 16.2016 28.9387 15.7839L29.4971 15.4193L29.832 15.7548L30.167 16.0904L29.834 16.5991C29.3328 17.3645 29.336 17.3431 29.6358 17.9694C29.7782 18.2668 29.9592 18.7059 30.0381 18.9451C30.1169 19.1841 30.2345 19.4131 30.2994 19.4537C30.3643 19.4942 30.7092 19.594 31.066 19.6754L31.7145 19.8234V20.2799V20.7365L31.066 20.8844C30.7092 20.9658 30.3643 21.0657 30.2994 21.1062C30.2345 21.1468 30.1169 21.3757 30.0381 21.6148C29.9592 21.854 29.7782 22.2931 29.6358 22.5905C29.336 23.2168 29.3328 23.1953 29.834 23.9608L30.167 24.4695L29.832 24.8051L29.4971 25.1406L28.9387 24.776C28.6212 24.5687 28.3014 24.4097 28.1974 24.4076C28.0968 24.4055 27.8045 24.5094 27.5478 24.6385C27.2912 24.7676 26.9088 24.9271 26.6981 24.9929C26.4875 25.0586 26.2579 25.1746 26.1881 25.2505C26.0497 25.4012 25.7145 26.8034 25.7145 27.232C25.7145 27.6774 26.1799 27.9038 26.5294 27.6285C26.6645 27.522 26.7251 27.3597 26.8533 26.76C26.9833 26.1525 27.0348 26.0156 27.1461 25.9832C27.2204 25.9615 27.481 25.8531 27.7254 25.7425L28.1696 25.5412L28.7981 25.9491C29.1952 26.2068 29.497 26.357 29.6175 26.357C29.7723 26.357 29.957 26.2082 30.5948 25.5693C31.2355 24.9274 31.3812 24.7459 31.3812 24.5888C31.3812 24.4673 31.2328 24.1637 30.9794 23.767L30.5776 23.138L30.8246 22.5526L31.0716 21.9671L31.6097 21.8544C32.8162 21.6018 32.7811 21.6489 32.7811 20.2799C32.7811 18.9109 32.8162 18.9581 31.6097 18.7054L31.0716 18.5928L30.8237 18.0052L30.5758 17.4178L30.9785 16.7888C31.2304 16.3953 31.3812 16.0884 31.3812 15.9691C31.3812 15.8146 31.2318 15.6287 30.5948 14.9906C29.9578 14.3525 29.7722 14.2029 29.618 14.2029C29.4987 14.2029 29.1913 14.3547 28.7951 14.6092L28.1626 15.0155L27.7219 14.8158C27.4795 14.706 27.2204 14.5984 27.1461 14.5767C27.0348 14.5443 26.9833 14.4074 26.8533 13.7998C26.653 12.8634 26.5893 12.8005 25.8408 12.8005H25.3183L25.2997 7.40436L25.2812 2.00826L25.0322 1.50373C24.7323 0.895957 24.3463 0.517375 23.7265 0.223272L23.2812 0.0119101L16.9146 0.00109158C13.2102 -0.00518584 10.4398 0.0161174 10.2892 0.0519788ZM10.3813 1.1343C10.0541 1.23761 9.49603 1.81647 9.3957 2.15665C9.27783 2.55627 9.27783 29.4556 9.3957 29.8553C9.5039 30.2221 10.0562 30.7753 10.4224 30.8837C10.8177 31.0007 22.7448 31.0007 23.1401 30.8837C23.5063 30.7753 24.0586 30.2221 24.1668 29.8553C24.2831 29.4611 24.2848 2.55506 24.1686 2.16653C24.125 2.02082 23.9597 1.7571 23.8011 1.58046C23.2927 1.01396 23.7225 1.04608 16.7527 1.05383C12.4812 1.05857 10.5437 1.08308 10.3813 1.1343ZM14.8116 2.27946C14.7084 2.38277 14.6479 2.51967 14.6479 2.64976C14.6479 2.77985 14.7084 2.91675 14.8116 3.02006L14.9752 3.18401H16.7812H18.5873L18.7509 3.02006C18.8541 2.91675 18.9146 2.77985 18.9146 2.64976C18.9146 2.51967 18.8541 2.38277 18.7509 2.27946L18.5873 2.11551H16.7812H14.9752L14.8116 2.27946ZM27.6115 4.41645C27.2908 4.7376 27.4524 5.27632 27.8952 5.362C28.0742 5.39666 28.1422 5.37028 28.3118 5.20039C28.4511 5.06089 28.5145 4.93213 28.5145 4.78882C28.5145 4.51215 28.2563 4.2525 27.9812 4.2525C27.8513 4.2525 27.7146 4.31307 27.6115 4.41645ZM27.6115 6.55344C27.2908 6.87459 27.4524 7.41331 27.8952 7.49899C28.0742 7.53365 28.1422 7.50727 28.3118 7.33738C28.4511 7.19788 28.5145 7.06912 28.5145 6.92581C28.5145 6.64914 28.2563 6.38949 27.9812 6.38949C27.8513 6.38949 27.7146 6.45006 27.6115 6.55344ZM27.6115 8.69043C27.2908 9.01158 27.4524 9.5503 27.8952 9.63598C28.0742 9.67064 28.1422 9.64427 28.3118 9.47437C28.4511 9.33487 28.5145 9.20612 28.5145 9.0628C28.5145 8.78613 28.2563 8.52649 27.9812 8.52649C27.8513 8.52649 27.7146 8.58706 27.6115 8.69043ZM12.6666 14.5555C11.5586 15.6654 11.448 15.7971 11.448 16.006C11.448 16.2148 11.5586 16.3465 12.6666 17.4564C13.7495 18.5412 13.9095 18.6772 14.1029 18.6772C14.3934 18.6772 14.6479 18.4237 14.6479 18.1345C14.6479 17.9474 14.5251 17.7954 13.7009 16.9627L12.7539 16.006L13.7009 15.0492C14.5251 14.2165 14.6479 14.0645 14.6479 13.8774C14.6479 13.5882 14.3934 13.3347 14.1029 13.3347C13.9095 13.3347 13.7495 13.4707 12.6666 14.5555ZM16.9848 13.452C16.8683 13.5465 16.731 14.0047 16.2792 15.806C15.9707 17.0363 15.7175 18.1118 15.7164 18.196C15.7139 18.4131 15.9999 18.6772 16.2375 18.6772C16.6519 18.6772 16.6804 18.6099 17.2833 16.2059C17.5918 14.9757 17.845 13.9002 17.8461 13.8159C17.8506 13.4361 17.2942 13.201 16.9848 13.452ZM19.0782 13.4987C18.9723 13.6048 18.9146 13.7383 18.9146 13.8774C18.9146 14.0645 19.0374 14.2165 19.8616 15.0492L20.8086 16.006L19.8616 16.9627C19.0374 17.7954 18.9146 17.9474 18.9146 18.1345C18.9146 18.4237 19.1691 18.6772 19.4596 18.6772C19.653 18.6772 19.813 18.5412 20.8959 17.4564C22.0039 16.3465 22.1145 16.2148 22.1145 16.006C22.1145 15.7971 22.0039 15.6654 20.8959 14.5555C19.813 13.4707 19.653 13.3347 19.4596 13.3347C19.3173 13.3347 19.1851 13.3915 19.0782 13.4987ZM5.40513 22.3502C5.03119 22.4997 4.92486 23.0448 5.22366 23.2802C5.51952 23.5133 5.85912 23.4405 6.03712 23.1058C6.15352 22.8869 6.13139 22.71 5.96465 22.5263C5.78672 22.3302 5.60119 22.2718 5.40513 22.3502ZM5.40513 24.4872C5.03119 24.6367 4.92486 25.1818 5.22366 25.4172C5.51952 25.6503 5.85912 25.5775 6.03712 25.2428C6.15352 25.0239 6.13139 24.847 5.96465 24.6632C5.78672 24.4672 5.60119 24.4088 5.40513 24.4872ZM5.40513 26.6242C5.03119 26.7737 4.92486 27.3188 5.22366 27.5542C5.51952 27.7873 5.85912 27.7145 6.03712 27.3798C6.15352 27.1609 6.13139 26.9839 5.96465 26.8002C5.78672 26.6042 5.60119 26.5458 5.40513 26.6242Z" fill="#5f56af"/>
</svg>
