<svg width="45" height="45" viewBox="0 0 45 45" fill="none" xmlns="http://www.w3.org/2000/svg">
<path fill-rule="evenodd" clip-rule="evenodd" d="M20.3551 0.343733C16.3281 1.67973 13.5208 6.52774 13.8897 11.508C13.9456 12.2617 14.1616 13.4659 14.3698 14.184C15.0541 16.5444 15.093 16.3408 13.9897 16.1689C11.7686 15.8226 10.0265 14.8447 9.55215 13.6785C9.28409 13.0193 8.91499 12.6638 7.67556 11.8717C5.74817 10.6399 5.50144 10.694 3.87122 12.7053C2.45266 14.4554 1.20057 16.9766 0.499606 19.4938C0.0524188 21.0992 0 21.5974 0 24.2373C0 27.0919 0.0146411 27.2043 0.451886 27.7234C0.700424 28.0182 1.41983 28.5099 2.05084 28.8159C2.98625 29.2697 3.30455 29.3319 3.77723 29.1529C4.2987 28.9555 4.57526 29.0683 6.53048 30.2777C7.94922 31.1549 8.90324 31.9018 9.27759 32.4278C9.89902 33.3009 9.94674 33.548 9.6682 34.4518C9.25825 35.7817 10.2477 37.7426 11.4823 38.0472C11.9387 38.1598 11.9851 38.2693 12.0619 39.4102C12.1344 40.4895 12.2308 40.7473 12.803 41.3944C13.3578 42.0215 13.596 42.1377 14.3221 42.1348C14.7958 42.1328 15.3014 42.0391 15.4457 41.9265C15.6394 41.7753 15.7909 41.8899 16.0252 42.3651C16.6197 43.5711 17.7774 43.9429 19.1706 43.3751C19.4544 43.2594 19.59 43.3508 19.7413 43.7604C19.8503 44.0559 20.2432 44.4752 20.6143 44.6926C21.5582 45.2452 22.565 45.0447 23.3079 44.1563L23.8874 43.4634L24.6869 43.9108C25.6483 44.4491 26.3184 44.483 27.0288 44.0298C27.5526 43.6956 28.1073 42.6842 28.1073 42.063C28.1073 41.8549 28.3891 41.6906 28.912 41.5938C29.9855 41.3953 30.7675 40.4926 30.9262 39.2688C31.0334 38.4412 31.1122 38.3268 31.7119 38.1277C32.7413 37.7856 33.53 36.533 33.53 35.2398C33.53 34.677 33.6028 34.5561 33.9415 34.5561C34.7614 34.5561 35.5855 33.5796 35.8885 32.249C36.0759 31.4261 36.1744 31.3385 38.3266 30.0837C40.4923 28.8208 40.5901 28.7865 41.1685 29.0846C41.716 29.3667 41.8684 29.3446 42.9359 28.8266C43.5785 28.5148 44.3075 28.0182 44.556 27.723C44.9945 27.2025 45.0075 27.0986 44.9983 24.237C44.9898 21.6536 44.9287 21.0662 44.5057 19.5037C43.8384 17.0382 42.6172 14.5729 41.1609 12.7512C39.5243 10.7039 39.2604 10.6381 37.4225 11.818C35.7238 12.9084 35.3775 13.2476 35.3024 13.8943C35.2634 14.231 34.8822 14.5999 34.0048 15.1505C32.987 15.7889 32.5163 15.945 31.4016 16.0146C30.1289 16.0938 30.0501 16.0724 30.1862 15.683C31.0581 13.1887 31.3352 10.9001 31.0182 8.80791C30.1007 2.75302 25.0875 -1.22641 20.3551 0.343733ZM20.1281 1.84564C17.3519 3.01304 15.5404 5.64221 15.0428 9.22626C14.3506 14.211 17.1196 18.9143 21.307 19.866C26.2168 20.9824 30.813 15.334 29.9651 9.22626C29.1653 3.46506 24.5362 -0.0079366 20.1281 1.84564ZM22.1582 2.75525C22.0432 2.92629 21.5935 3.96703 21.1591 5.06821C20.2716 7.31827 20.5764 7.10754 17.6622 7.4853C16.7726 7.60059 16.4826 7.73261 16.3261 8.0932C16.1475 8.50486 16.2865 8.73544 17.6288 10.2552L19.1314 11.9562L18.8162 13.9461C18.6428 15.0403 18.4592 16.1533 18.408 16.4191C18.3431 16.7556 18.4283 16.9773 18.688 17.149C19.0024 17.3564 19.3154 17.2186 20.6718 16.2753C21.5575 15.6591 22.3781 15.1552 22.4953 15.1552C22.6124 15.1552 23.443 15.6551 24.3409 16.2664C25.6854 17.1813 26.0371 17.3356 26.3332 17.1401C26.5809 16.9766 26.664 16.7516 26.5998 16.4191C26.5487 16.1533 26.3654 15.0432 26.1926 13.9525L25.8784 11.9692L27.3816 10.2652C28.7239 8.74369 28.8634 8.51199 28.685 8.10078C28.5164 7.71187 28.1872 7.5968 26.5635 7.35953L24.6417 7.07855L23.8504 5.07244C22.7834 2.3679 22.5936 2.10788 22.1582 2.75525ZM21.7845 6.67224C21.4498 7.52566 21.0763 8.27137 20.9547 8.32891C20.8329 8.38644 20.1558 8.50396 19.4495 8.58982C18.7435 8.67545 18.1658 8.82731 18.1658 8.92722C18.1658 9.0269 18.609 9.58061 19.1508 10.1575C19.6927 10.7346 20.1729 11.3256 20.2181 11.471C20.2633 11.6164 20.1789 12.4627 20.0307 13.3515C19.8825 14.2404 19.8033 15.0196 19.8546 15.0829C19.9061 15.1465 20.5232 14.8124 21.226 14.3405L22.5039 13.4827L23.7819 14.3405C24.4846 14.8124 25.1017 15.1465 25.1533 15.0829C25.2046 15.0196 25.1245 14.2348 24.975 13.339C24.8192 12.4042 24.7672 11.5637 24.853 11.3659C24.9353 11.1764 25.4164 10.5908 25.9222 10.0645C26.4281 9.53824 26.842 9.02623 26.842 8.92677C26.842 8.82709 26.2644 8.67545 25.5583 8.58982C24.8521 8.50396 24.175 8.38644 24.0532 8.32891C23.9315 8.27137 23.5581 7.52566 23.2233 6.67224C22.8888 5.8186 22.5649 5.12017 22.5039 5.12017C22.443 5.12017 22.1191 5.8186 21.7845 6.67224ZM4.87513 13.397C3.53682 14.9587 2.36192 17.1833 1.68246 19.4428C1.24287 20.9041 1.10893 21.7593 1.03771 23.5562C0.913895 26.6842 0.961795 26.8437 2.19309 27.4121C2.75271 27.6703 3.23623 27.8505 3.26732 27.8122C3.29841 27.7738 3.41066 26.8798 3.51676 25.8257C3.93665 21.6587 5.56959 17.6262 7.88054 15.0503C8.28958 14.5945 8.55457 14.1396 8.46943 14.0397C8.3843 13.9398 7.76756 13.4896 7.09895 13.0396L5.88302 12.2209L4.87513 13.397ZM37.5577 13.3072L36.4338 14.1289L37.4776 15.4783C39.9072 18.619 41.2023 22.0673 41.5654 26.3609C41.6354 27.1889 41.7196 27.8661 41.7527 27.8661C41.7856 27.8661 42.2599 27.655 42.8066 27.3967C43.9543 26.8551 44.0078 26.7166 44.0112 24.2781C44.0145 22.0744 43.4928 19.6049 42.5536 17.3776C41.6784 15.3021 39.6691 12.4776 39.0712 12.4823C38.8568 12.4838 38.1757 12.8551 37.5577 13.3072ZM8.00905 16.9418C6.07787 19.6397 4.91219 22.8288 4.68516 26.0358L4.57942 27.5316L6.89597 28.9811C8.39822 29.9211 9.44135 30.7332 9.86396 31.2919L10.5152 32.1531L11.0418 31.1199C11.5439 30.1345 12.6506 29.1968 13.2974 29.209C13.9826 29.222 15.1024 30.1055 15.3959 30.8648C15.6837 31.6094 15.7544 31.6571 16.5662 31.6571C17.2754 31.6571 17.5451 31.7816 18.0708 32.3509C18.423 32.7327 18.7549 33.2594 18.8084 33.5216C18.8905 33.9253 19.0376 33.9986 19.7637 33.9986C20.8052 33.9986 21.5022 34.5104 21.9149 35.5784C22.1798 36.2634 22.2758 36.3395 22.7237 36.2182C23.5107 36.0047 24.7505 36.8459 25.1623 37.8726C25.3477 38.3351 25.5929 38.6749 25.7071 38.6281C25.8213 38.5811 26.5199 38.9526 27.2598 39.4534C28.4058 40.2292 28.6753 40.3309 29.0812 40.1405C29.3433 40.0176 29.6512 39.6642 29.7654 39.3551C30.1016 38.4444 29.7206 37.8041 28.2087 36.7397C26.7838 35.7365 26.5201 35.3692 26.861 34.8623C27.166 34.4092 27.2891 34.4553 29.0111 35.6711C31.1086 37.1521 32.0534 37.1222 32.3702 35.5648C32.542 34.7207 32.1644 34.1853 30.5887 33.0382C29.0908 31.9475 28.7756 31.4018 29.3742 30.936C29.5751 30.7796 30.1101 31.0533 31.3981 31.9709C33.2447 33.2861 33.7405 33.4351 34.3934 32.8709C34.8249 32.4983 34.9335 31.5004 34.621 30.7801C34.414 30.3029 27.7785 25.5563 26.4263 24.9183C25.0394 24.2636 23.9133 24.46 21.6002 25.7599C19.2767 27.0656 17.9292 27.2892 16.7728 26.5616C15.7177 25.8973 15.093 24.8947 15.093 23.8651C15.093 22.7715 15.5089 22.1393 16.932 21.0709C18.3793 19.984 18.3148 20.0703 17.8952 19.7806C17.6982 19.6446 17.1619 19.1002 16.703 18.5708C15.9344 17.6838 15.7922 17.6079 14.8935 17.6044C13.4704 17.5986 11.6804 17.0716 10.4218 16.2878C9.81533 15.9102 9.24035 15.6012 9.14383 15.6012C9.04749 15.6012 8.53686 16.2044 8.00905 16.9418ZM34.253 16.4552C32.9953 17.2146 32.7699 17.2761 31.1341 17.308L29.3708 17.3426L28.3324 18.5153C26.3914 20.7074 23.6969 21.7423 21.2681 21.2286C20.5883 21.0847 19.9157 20.9119 19.7735 20.8445C19.4763 20.7038 16.5846 22.8747 16.2869 23.4619C16.0336 23.9612 16.2686 24.4513 17.0983 25.1542C17.9737 25.8959 18.9369 25.7233 21.2437 24.4119C22.8385 23.5052 23.3517 23.3194 24.5027 23.2331C25.652 23.147 26.0393 23.2162 26.9429 23.6679C28.3044 24.3488 34.7484 28.914 35.3005 29.5888L35.7153 30.0961L38.0118 28.7981C40.2278 27.5452 40.3102 27.4741 40.3666 26.7632C40.51 24.9524 39.4443 21.0167 38.2084 18.793C37.4402 17.4106 36.069 15.596 35.8098 15.619C35.6992 15.6286 34.9986 16.005 34.253 16.4552ZM12.037 31.7718C11.7525 32.3255 11.2944 33.3087 11.0195 33.9567C10.5584 35.0432 10.5393 35.1861 10.7732 35.7882C11.0887 36.6004 11.8307 36.9641 12.4556 36.6129C13.0521 36.2777 14.5507 33.1198 14.5507 32.1981C14.5507 31.2948 14.0596 30.7651 13.222 30.7651C12.6275 30.7651 12.4979 30.8753 12.037 31.7718ZM15.7801 33.2739C15.3043 33.7382 13.1047 38.6513 13.1047 39.2501C13.1047 40.153 13.5851 40.8001 14.2554 40.8001C14.5786 40.8001 14.975 40.6748 15.136 40.5214C15.6712 40.012 17.8043 35.2329 17.8043 34.5432C17.8043 33.3091 16.5502 32.5226 15.7801 33.2739ZM19.1287 35.5558C18.5476 36.058 16.7198 40.0468 16.7198 40.8126C16.7198 42.0434 17.9471 42.8183 18.7193 42.0752C18.8746 41.9258 19.4644 40.8309 20.0298 39.6419C21.2038 37.173 21.3122 36.3963 20.5816 35.6874C20.0177 35.1399 19.6487 35.1067 19.1287 35.5558ZM22.1131 38.0684C21.6137 38.8007 20.4945 41.3211 20.3944 41.9385C20.2067 43.0955 21.4219 44.0711 22.3154 43.4813C22.7863 43.1704 24.3115 39.8713 24.3115 39.1638C24.3115 37.9027 22.755 37.1271 22.1131 38.0684ZM24.9893 41.0265C24.716 41.6379 24.4922 42.1731 24.4922 42.216C24.4922 42.2585 24.8183 42.4749 25.2171 42.6965C26.3499 43.3269 27.2151 42.6682 26.9523 41.3755C26.865 40.9464 25.8638 39.897 25.5554 39.9113C25.5175 39.913 25.2626 40.415 24.9893 41.0265Z" fill="#585858"/>
</svg>
