<svg width="45" height="45" viewBox="0 0 45 45" fill="none" xmlns="http://www.w3.org/2000/svg">
<mask id="path-1-inside-1_219_8097" fill="white">
<path fill-rule="evenodd" clip-rule="evenodd" d="M20.484 0.414231C19.5173 0.898056 18.6495 1.79434 18.1514 2.82288C17.8572 3.43043 17.7756 3.93481 17.7751 5.1499C17.7746 6.79878 18.0178 7.57852 18.8354 8.5485C19.1545 8.92683 19.2745 9.34899 19.3632 10.4056C19.4722 11.7043 19.4548 11.7986 19.0179 12.2826C18.5649 12.7841 18.5577 12.8345 18.5577 15.5065C18.5577 18.3039 18.7076 19.1124 19.2626 19.3074C19.5935 19.4238 19.7784 20.2978 19.7816 21.7597L19.7835 22.6622L17.901 22.7859C16.8657 22.854 15.0696 23.0371 13.9096 23.1924C12.7498 23.3479 11.6269 23.4751 11.4142 23.4751C10.8531 23.4751 10.9392 22.9655 11.5395 22.7338C11.821 22.6252 12.1246 22.3766 12.2144 22.1815C12.3043 21.9864 12.5575 20.5861 12.7773 19.0699C13.1587 16.4392 13.1631 16.2895 12.8741 15.801C12.6067 15.3492 12.5955 15.146 12.779 14.0693C12.961 13.0016 13.0998 12.7201 13.8935 11.8116C15.3737 10.1167 15.698 7.88472 14.7596 5.85246C12.5493 1.06676 5.97047 2.72942 5.95313 8.07825C5.94893 9.35636 6.17115 10.2899 6.66743 11.0803C6.94027 11.5147 6.95988 11.7536 6.81523 12.8839C6.68337 13.9158 6.55343 14.2774 6.19024 14.6234C5.78677 15.0077 5.68222 15.3835 5.31728 17.7646C5.08928 19.2524 4.90173 20.5825 4.90068 20.7205C4.89945 20.8588 5.09873 21.1935 5.34337 21.4644C5.77381 21.941 5.78274 22.0008 5.61796 23.3169C5.52444 24.0648 5.4227 24.7003 5.39206 24.729C5.36141 24.7577 4.50894 25.0203 3.49764 25.3125C2.48634 25.6047 1.43879 25.9695 1.16963 26.1233C0.549018 26.4778 -0.00435212 27.4727 2.58025e-05 28.2261C0.00195209 28.5461 0.850044 31.2066 1.88446 34.1385C3.57049 38.917 3.82318 39.5092 4.32524 39.859L4.88509 40.249L4.89175 42.3177C4.89963 44.6969 4.96775 45 5.4952 45C6.19549 45 6.29951 44.6566 6.29951 42.3433V40.1521H22.4103H38.5211V42.3433C38.5211 44.6566 38.6251 45 39.3254 45C39.8528 45 39.9209 44.6969 39.9288 42.3177L39.9355 40.249L40.498 39.8577C41.0033 39.5061 41.2483 38.9317 42.9188 34.1798C43.9411 31.2722 44.8275 28.8377 44.8888 28.7697C45.0662 28.5734 45.0181 27.3186 44.8379 27.4419C44.7486 27.503 44.6256 27.3795 44.5649 27.1675C44.3976 26.584 43.6501 26.022 42.6097 25.6978C42.0957 25.5376 41.2503 25.2741 40.731 25.1122L39.7868 24.8178L39.6656 23.3859C39.5544 22.0717 39.5761 21.9189 39.9306 21.5264C40.2706 21.1499 40.3053 20.9575 40.2202 19.9196C40.1307 18.8258 39.836 18.2393 39.3756 18.2393C38.9711 18.2393 38.7016 18.8878 38.806 19.6107C38.8666 20.0296 38.8863 20.373 38.8499 20.3738C38.8135 20.3744 37.8775 20.5483 36.7699 20.7603C35.6623 20.9722 34.6335 21.1462 34.4836 21.1468C34.2717 21.1479 34.1421 20.6687 33.9013 18.9972C33.7309 17.8141 33.6173 16.821 33.6484 16.7902C33.6992 16.7402 38.0108 15.9123 38.2204 15.9123C38.267 15.9123 38.3479 16.0933 38.4 16.3145C38.4729 16.6232 38.6098 16.702 38.9897 16.6539C39.4226 16.5988 39.491 16.5003 39.5385 15.8637C39.5833 15.265 39.5012 15.0418 39.0751 14.6032C38.6512 14.1669 38.5354 13.8551 38.4372 12.8851C38.3291 11.8183 38.3668 11.5955 38.8131 10.655C39.4627 9.28655 39.5117 7.15093 38.9221 5.91238C38.4678 4.95831 37.3134 3.76746 36.4442 3.35635C35.5597 2.93807 33.884 2.94272 32.8898 3.36644C31.0842 4.13571 29.7668 6.60176 29.9995 8.77674C30.1249 9.95014 30.877 11.5139 31.6593 12.2279C32.1498 12.6757 32.2946 12.9946 32.5 14.0792C32.7189 15.2361 32.7168 15.4279 32.4825 15.7149C32.1295 16.1466 32.1471 16.8713 32.5785 19.6708C32.9287 21.9438 33.2152 22.6995 33.7263 22.6995C33.9428 22.6995 34.4142 23.4334 34.2876 23.5736C34.2552 23.6095 33.0077 23.4751 31.5153 23.2748C30.023 23.0747 27.9548 22.855 26.9195 22.7865L25.037 22.6622V21.0325C25.037 19.7967 25.094 19.4029 25.2726 19.4029C25.4022 19.4029 25.6386 19.2433 25.7979 19.0482C26.0417 18.7499 26.0877 18.2103 26.0877 15.6546C26.0877 12.8742 26.058 12.5828 25.7375 12.2279C25.2162 11.6506 25.229 9.34376 25.7564 8.81591C25.9596 8.61269 26.3289 8.01018 26.5772 7.47691C26.9362 6.70647 27.029 6.22847 27.0293 5.1499C27.0299 3.05655 26.1313 1.4259 24.4732 0.510996C23.3076 -0.13223 21.6554 -0.172371 20.484 0.414231ZM6.914 16.5426C6.56341 18.7123 6.33804 20.2817 6.37131 20.3203C6.49337 20.4628 10.868 21.1956 10.9636 21.0897C11.0753 20.966 11.7586 16.8439 11.6795 16.7704C11.638 16.7316 7.27719 15.9123 7.11311 15.9123C7.05952 15.9123 6.97004 16.196 6.914 16.5426ZM8.46816 18.1311C8.31704 18.5673 8.45818 19.0499 8.80596 19.2851C9.25671 19.59 9.88293 18.7695 9.61798 18.2213C9.40732 17.7852 8.60966 17.7226 8.46816 18.1311ZM35.7542 18.0842C35.1961 18.7022 35.8878 19.628 36.5948 19.2089C37.1912 18.8554 36.9322 17.8515 36.2445 17.8515C36.0904 17.8515 35.8698 17.9562 35.7542 18.0842ZM19.9586 24.1781C16.0982 24.3503 11.0862 25.0057 7.70045 25.781C4.87651 26.4277 2.20317 27.196 1.79025 27.4797C1.36857 27.7692 1.2712 28.4778 1.56855 29.0929C1.73579 29.4389 1.77799 29.4389 2.98822 29.0943C4.36219 28.7028 4.65341 28.7429 4.8266 29.347C4.98719 29.9076 4.47392 30.326 3.25563 30.628C2.71452 30.7622 2.27182 30.9078 2.27182 30.952C2.27182 30.996 2.83307 32.6259 3.51918 34.574C4.20529 36.5221 4.80471 38.2251 4.85129 38.3583C4.91836 38.5499 8.59284 38.6007 22.4103 38.6007C36.2277 38.6007 39.9022 38.5499 39.9693 38.3583C40.0159 38.2251 40.6153 36.5221 41.3014 34.574C41.9875 32.6259 42.5487 30.997 42.5487 30.9543C42.5487 30.6827 35.063 28.9678 31.9542 28.5273C25.5274 27.6164 17.4135 27.72 11.2903 28.7908C10.4235 28.9423 9.11417 29.1748 8.3806 29.3072C6.83099 29.587 6.47463 29.4939 6.47463 28.8098C6.47463 28.1738 6.74116 28.0582 9.36406 27.5575C14.6015 26.5575 19.625 26.197 25.3873 26.4076C30.5376 26.596 35.1712 27.3044 40.3409 28.6938C42.9289 29.3894 43.0979 29.4119 43.2562 29.0842C43.5494 28.4778 43.4496 27.7679 43.0303 27.4762C42.3188 26.9814 36.3184 25.5049 32.7422 24.9448C29.1544 24.383 23.2733 24.0303 19.9586 24.1781ZM0.0394271 28.2261C0.0413534 28.6527 0.0772524 28.8044 0.119105 28.5631C0.160958 28.3219 0.159382 27.9729 0.115603 27.7875C0.0718238 27.6021 0.0375009 27.7995 0.0394271 28.2261ZM12.8555 30.9022C12.8076 31.041 12.7902 32.3281 12.8174 33.7625L12.8664 36.3707H13.3918C13.8929 36.3707 13.9196 36.329 13.97 35.4649C14.0224 34.5663 14.0285 34.5581 14.7512 34.4229C15.7285 34.2401 16.071 33.9734 16.2954 33.2205C16.7696 31.6294 15.9127 30.652 14.043 30.6509C13.3012 30.6503 12.9146 30.7323 12.8555 30.9022ZM16.8906 31.0864C16.8368 31.3265 16.8156 32.6135 16.8435 33.9467L16.8941 36.3707H17.4194C17.9297 36.3707 17.9464 36.3414 17.9977 35.3526C18.0304 34.7231 18.1308 34.3347 18.2604 34.3351C18.3758 34.3355 18.7038 34.8154 18.9894 35.4017C19.3886 36.2213 19.6023 36.4676 19.9142 36.4676C20.5299 36.4676 20.5971 35.9277 20.1021 34.9615L19.6608 34.1003L20.0723 33.6444C20.363 33.3227 20.4824 32.9722 20.4784 32.4525C20.4686 31.1407 19.8005 30.6501 18.0243 30.6501C17.0957 30.6501 16.9782 30.6953 16.8906 31.0864ZM21.2008 30.9192C21.0649 31.1006 21.0149 32.0345 21.0479 33.7795L21.0969 36.3707L22.6581 36.4271C24.3096 36.487 24.6453 36.3305 24.3182 35.6539C24.1868 35.3823 23.9352 35.3041 23.1922 35.3041C22.2455 35.3041 22.2352 35.2977 22.2352 34.7224C22.2352 34.2108 22.2959 34.1406 22.7392 34.1406C23.2783 34.1406 23.7391 33.7064 23.5533 33.3735C23.4911 33.2622 23.1692 33.171 22.8377 33.171C22.2658 33.171 22.2352 33.1365 22.2352 32.4923V31.8136H23.2671C24.3558 31.8136 24.7428 31.4832 24.3182 30.9163C24.0383 30.543 21.4809 30.5454 21.2008 30.9192ZM25.4547 31.0199C24.8649 31.4182 24.6236 32.1863 24.8665 32.8933C25.0206 33.3424 25.5419 33.8389 26.4208 34.3739C27.4614 35.0076 26.7924 35.8112 25.7305 35.2031C25.0926 34.8377 24.6868 34.9409 24.6868 35.4682C24.6868 36.7647 27.339 36.9499 27.9252 35.6945C28.4474 34.5763 28.0839 33.6797 26.7928 32.9017C26.2984 32.6036 25.9256 32.2588 25.9641 32.1353C26.0054 32.0023 26.4191 31.9106 26.9765 31.9106C27.7685 31.9106 27.9294 31.8506 27.9855 31.5355C28.1396 30.6685 26.4769 30.3297 25.4547 31.0199ZM29.4964 30.824C28.9978 31.0625 28.7346 31.4601 28.6068 32.1673C28.5133 32.6849 28.5854 32.8693 29.0921 33.4093C29.4192 33.7582 29.941 34.1924 30.2515 34.3739C31.3614 35.0235 30.6192 35.7579 29.4675 35.1496C28.8889 34.8441 28.8439 34.8459 28.6224 35.1814C28.2891 35.6859 28.4637 36.0042 29.2693 36.3612C30.5487 36.928 31.7276 36.3168 31.9725 34.9595C32.0682 34.4309 31.9988 34.2517 31.4891 33.7084C31.1619 33.3595 30.6336 32.9212 30.3152 32.7345C29.4861 32.2484 29.6967 31.9106 30.829 31.9106C31.8023 31.9106 32.0598 31.6619 31.7099 31.0598C31.5248 30.7414 30.0072 30.5797 29.4964 30.824ZM14.0047 32.5893C14.0047 33.3752 14.0148 33.3884 14.5738 33.3287C15.097 33.2728 15.1429 33.2133 15.1429 32.5893C15.1429 31.9652 15.097 31.9057 14.5738 31.8499C14.0148 31.7901 14.0047 31.8033 14.0047 32.5893ZM18.0324 32.4923C18.0324 33.1689 18.0539 33.1933 18.6015 33.1348C19.1049 33.081 19.1706 33.007 19.1706 32.4923C19.1706 31.9776 19.1049 31.9036 18.6015 31.8499C18.0539 31.7913 18.0324 31.8157 18.0324 32.4923Z"/>
</mask>
<path fill-rule="evenodd" clip-rule="evenodd" d="M20.484 0.414231C19.5173 0.898056 18.6495 1.79434 18.1514 2.82288C17.8572 3.43043 17.7756 3.93481 17.7751 5.1499C17.7746 6.79878 18.0178 7.57852 18.8354 8.5485C19.1545 8.92683 19.2745 9.34899 19.3632 10.4056C19.4722 11.7043 19.4548 11.7986 19.0179 12.2826C18.5649 12.7841 18.5577 12.8345 18.5577 15.5065C18.5577 18.3039 18.7076 19.1124 19.2626 19.3074C19.5935 19.4238 19.7784 20.2978 19.7816 21.7597L19.7835 22.6622L17.901 22.7859C16.8657 22.854 15.0696 23.0371 13.9096 23.1924C12.7498 23.3479 11.6269 23.4751 11.4142 23.4751C10.8531 23.4751 10.9392 22.9655 11.5395 22.7338C11.821 22.6252 12.1246 22.3766 12.2144 22.1815C12.3043 21.9864 12.5575 20.5861 12.7773 19.0699C13.1587 16.4392 13.1631 16.2895 12.8741 15.801C12.6067 15.3492 12.5955 15.146 12.779 14.0693C12.961 13.0016 13.0998 12.7201 13.8935 11.8116C15.3737 10.1167 15.698 7.88472 14.7596 5.85246C12.5493 1.06676 5.97047 2.72942 5.95313 8.07825C5.94893 9.35636 6.17115 10.2899 6.66743 11.0803C6.94027 11.5147 6.95988 11.7536 6.81523 12.8839C6.68337 13.9158 6.55343 14.2774 6.19024 14.6234C5.78677 15.0077 5.68222 15.3835 5.31728 17.7646C5.08928 19.2524 4.90173 20.5825 4.90068 20.7205C4.89945 20.8588 5.09873 21.1935 5.34337 21.4644C5.77381 21.941 5.78274 22.0008 5.61796 23.3169C5.52444 24.0648 5.4227 24.7003 5.39206 24.729C5.36141 24.7577 4.50894 25.0203 3.49764 25.3125C2.48634 25.6047 1.43879 25.9695 1.16963 26.1233C0.549018 26.4778 -0.00435212 27.4727 2.58025e-05 28.2261C0.00195209 28.5461 0.850044 31.2066 1.88446 34.1385C3.57049 38.917 3.82318 39.5092 4.32524 39.859L4.88509 40.249L4.89175 42.3177C4.89963 44.6969 4.96775 45 5.4952 45C6.19549 45 6.29951 44.6566 6.29951 42.3433V40.1521H22.4103H38.5211V42.3433C38.5211 44.6566 38.6251 45 39.3254 45C39.8528 45 39.9209 44.6969 39.9288 42.3177L39.9355 40.249L40.498 39.8577C41.0033 39.5061 41.2483 38.9317 42.9188 34.1798C43.9411 31.2722 44.8275 28.8377 44.8888 28.7697C45.0662 28.5734 45.0181 27.3186 44.8379 27.4419C44.7486 27.503 44.6256 27.3795 44.5649 27.1675C44.3976 26.584 43.6501 26.022 42.6097 25.6978C42.0957 25.5376 41.2503 25.2741 40.731 25.1122L39.7868 24.8178L39.6656 23.3859C39.5544 22.0717 39.5761 21.9189 39.9306 21.5264C40.2706 21.1499 40.3053 20.9575 40.2202 19.9196C40.1307 18.8258 39.836 18.2393 39.3756 18.2393C38.9711 18.2393 38.7016 18.8878 38.806 19.6107C38.8666 20.0296 38.8863 20.373 38.8499 20.3738C38.8135 20.3744 37.8775 20.5483 36.7699 20.7603C35.6623 20.9722 34.6335 21.1462 34.4836 21.1468C34.2717 21.1479 34.1421 20.6687 33.9013 18.9972C33.7309 17.8141 33.6173 16.821 33.6484 16.7902C33.6992 16.7402 38.0108 15.9123 38.2204 15.9123C38.267 15.9123 38.3479 16.0933 38.4 16.3145C38.4729 16.6232 38.6098 16.702 38.9897 16.6539C39.4226 16.5988 39.491 16.5003 39.5385 15.8637C39.5833 15.265 39.5012 15.0418 39.0751 14.6032C38.6512 14.1669 38.5354 13.8551 38.4372 12.8851C38.3291 11.8183 38.3668 11.5955 38.8131 10.655C39.4627 9.28655 39.5117 7.15093 38.9221 5.91238C38.4678 4.95831 37.3134 3.76746 36.4442 3.35635C35.5597 2.93807 33.884 2.94272 32.8898 3.36644C31.0842 4.13571 29.7668 6.60176 29.9995 8.77674C30.1249 9.95014 30.877 11.5139 31.6593 12.2279C32.1498 12.6757 32.2946 12.9946 32.5 14.0792C32.7189 15.2361 32.7168 15.4279 32.4825 15.7149C32.1295 16.1466 32.1471 16.8713 32.5785 19.6708C32.9287 21.9438 33.2152 22.6995 33.7263 22.6995C33.9428 22.6995 34.4142 23.4334 34.2876 23.5736C34.2552 23.6095 33.0077 23.4751 31.5153 23.2748C30.023 23.0747 27.9548 22.855 26.9195 22.7865L25.037 22.6622V21.0325C25.037 19.7967 25.094 19.4029 25.2726 19.4029C25.4022 19.4029 25.6386 19.2433 25.7979 19.0482C26.0417 18.7499 26.0877 18.2103 26.0877 15.6546C26.0877 12.8742 26.058 12.5828 25.7375 12.2279C25.2162 11.6506 25.229 9.34376 25.7564 8.81591C25.9596 8.61269 26.3289 8.01018 26.5772 7.47691C26.9362 6.70647 27.029 6.22847 27.0293 5.1499C27.0299 3.05655 26.1313 1.4259 24.4732 0.510996C23.3076 -0.13223 21.6554 -0.172371 20.484 0.414231ZM6.914 16.5426C6.56341 18.7123 6.33804 20.2817 6.37131 20.3203C6.49337 20.4628 10.868 21.1956 10.9636 21.0897C11.0753 20.966 11.7586 16.8439 11.6795 16.7704C11.638 16.7316 7.27719 15.9123 7.11311 15.9123C7.05952 15.9123 6.97004 16.196 6.914 16.5426ZM8.46816 18.1311C8.31704 18.5673 8.45818 19.0499 8.80596 19.2851C9.25671 19.59 9.88293 18.7695 9.61798 18.2213C9.40732 17.7852 8.60966 17.7226 8.46816 18.1311ZM35.7542 18.0842C35.1961 18.7022 35.8878 19.628 36.5948 19.2089C37.1912 18.8554 36.9322 17.8515 36.2445 17.8515C36.0904 17.8515 35.8698 17.9562 35.7542 18.0842ZM19.9586 24.1781C16.0982 24.3503 11.0862 25.0057 7.70045 25.781C4.87651 26.4277 2.20317 27.196 1.79025 27.4797C1.36857 27.7692 1.2712 28.4778 1.56855 29.0929C1.73579 29.4389 1.77799 29.4389 2.98822 29.0943C4.36219 28.7028 4.65341 28.7429 4.8266 29.347C4.98719 29.9076 4.47392 30.326 3.25563 30.628C2.71452 30.7622 2.27182 30.9078 2.27182 30.952C2.27182 30.996 2.83307 32.6259 3.51918 34.574C4.20529 36.5221 4.80471 38.2251 4.85129 38.3583C4.91836 38.5499 8.59284 38.6007 22.4103 38.6007C36.2277 38.6007 39.9022 38.5499 39.9693 38.3583C40.0159 38.2251 40.6153 36.5221 41.3014 34.574C41.9875 32.6259 42.5487 30.997 42.5487 30.9543C42.5487 30.6827 35.063 28.9678 31.9542 28.5273C25.5274 27.6164 17.4135 27.72 11.2903 28.7908C10.4235 28.9423 9.11417 29.1748 8.3806 29.3072C6.83099 29.587 6.47463 29.4939 6.47463 28.8098C6.47463 28.1738 6.74116 28.0582 9.36406 27.5575C14.6015 26.5575 19.625 26.197 25.3873 26.4076C30.5376 26.596 35.1712 27.3044 40.3409 28.6938C42.9289 29.3894 43.0979 29.4119 43.2562 29.0842C43.5494 28.4778 43.4496 27.7679 43.0303 27.4762C42.3188 26.9814 36.3184 25.5049 32.7422 24.9448C29.1544 24.383 23.2733 24.0303 19.9586 24.1781ZM0.0394271 28.2261C0.0413534 28.6527 0.0772524 28.8044 0.119105 28.5631C0.160958 28.3219 0.159382 27.9729 0.115603 27.7875C0.0718238 27.6021 0.0375009 27.7995 0.0394271 28.2261ZM12.8555 30.9022C12.8076 31.041 12.7902 32.3281 12.8174 33.7625L12.8664 36.3707H13.3918C13.8929 36.3707 13.9196 36.329 13.97 35.4649C14.0224 34.5663 14.0285 34.5581 14.7512 34.4229C15.7285 34.2401 16.071 33.9734 16.2954 33.2205C16.7696 31.6294 15.9127 30.652 14.043 30.6509C13.3012 30.6503 12.9146 30.7323 12.8555 30.9022ZM16.8906 31.0864C16.8368 31.3265 16.8156 32.6135 16.8435 33.9467L16.8941 36.3707H17.4194C17.9297 36.3707 17.9464 36.3414 17.9977 35.3526C18.0304 34.7231 18.1308 34.3347 18.2604 34.3351C18.3758 34.3355 18.7038 34.8154 18.9894 35.4017C19.3886 36.2213 19.6023 36.4676 19.9142 36.4676C20.5299 36.4676 20.5971 35.9277 20.1021 34.9615L19.6608 34.1003L20.0723 33.6444C20.363 33.3227 20.4824 32.9722 20.4784 32.4525C20.4686 31.1407 19.8005 30.6501 18.0243 30.6501C17.0957 30.6501 16.9782 30.6953 16.8906 31.0864ZM21.2008 30.9192C21.0649 31.1006 21.0149 32.0345 21.0479 33.7795L21.0969 36.3707L22.6581 36.4271C24.3096 36.487 24.6453 36.3305 24.3182 35.6539C24.1868 35.3823 23.9352 35.3041 23.1922 35.3041C22.2455 35.3041 22.2352 35.2977 22.2352 34.7224C22.2352 34.2108 22.2959 34.1406 22.7392 34.1406C23.2783 34.1406 23.7391 33.7064 23.5533 33.3735C23.4911 33.2622 23.1692 33.171 22.8377 33.171C22.2658 33.171 22.2352 33.1365 22.2352 32.4923V31.8136H23.2671C24.3558 31.8136 24.7428 31.4832 24.3182 30.9163C24.0383 30.543 21.4809 30.5454 21.2008 30.9192ZM25.4547 31.0199C24.8649 31.4182 24.6236 32.1863 24.8665 32.8933C25.0206 33.3424 25.5419 33.8389 26.4208 34.3739C27.4614 35.0076 26.7924 35.8112 25.7305 35.2031C25.0926 34.8377 24.6868 34.9409 24.6868 35.4682C24.6868 36.7647 27.339 36.9499 27.9252 35.6945C28.4474 34.5763 28.0839 33.6797 26.7928 32.9017C26.2984 32.6036 25.9256 32.2588 25.9641 32.1353C26.0054 32.0023 26.4191 31.9106 26.9765 31.9106C27.7685 31.9106 27.9294 31.8506 27.9855 31.5355C28.1396 30.6685 26.4769 30.3297 25.4547 31.0199ZM29.4964 30.824C28.9978 31.0625 28.7346 31.4601 28.6068 32.1673C28.5133 32.6849 28.5854 32.8693 29.0921 33.4093C29.4192 33.7582 29.941 34.1924 30.2515 34.3739C31.3614 35.0235 30.6192 35.7579 29.4675 35.1496C28.8889 34.8441 28.8439 34.8459 28.6224 35.1814C28.2891 35.6859 28.4637 36.0042 29.2693 36.3612C30.5487 36.928 31.7276 36.3168 31.9725 34.9595C32.0682 34.4309 31.9988 34.2517 31.4891 33.7084C31.1619 33.3595 30.6336 32.9212 30.3152 32.7345C29.4861 32.2484 29.6967 31.9106 30.829 31.9106C31.8023 31.9106 32.0598 31.6619 31.7099 31.0598C31.5248 30.7414 30.0072 30.5797 29.4964 30.824ZM14.0047 32.5893C14.0047 33.3752 14.0148 33.3884 14.5738 33.3287C15.097 33.2728 15.1429 33.2133 15.1429 32.5893C15.1429 31.9652 15.097 31.9057 14.5738 31.8499C14.0148 31.7901 14.0047 31.8033 14.0047 32.5893ZM18.0324 32.4923C18.0324 33.1689 18.0539 33.1933 18.6015 33.1348C19.1049 33.081 19.1706 33.007 19.1706 32.4923C19.1706 31.9776 19.1049 31.9036 18.6015 31.8499C18.0539 31.7913 18.0324 31.8157 18.0324 32.4923Z" stroke="#5f56af" stroke-width="2" mask="url(#path-1-inside-1_219_8097)"/>
</svg>
