<svg width="32" height="32" viewBox="0 0 32 32" fill="none" xmlns="http://www.w3.org/2000/svg">
<path fill-rule="evenodd" clip-rule="evenodd" d="M1.70007 0.183241C1.0836 0.410376 0.526417 0.951648 0.231628 1.60978C0.0112562 2.10167 0 2.72646 0 14.408C0 26.0894 0.0112562 26.7142 0.231628 27.2061C0.358949 27.4905 0.625097 27.8802 0.822956 28.0719C1.60914 28.8338 1.47982 28.8221 9.05802 28.8221H16.0034V28.305V27.7879H9.15383C2.75903 27.7879 2.27614 27.7722 1.87829 27.5517C1.64391 27.4218 1.34925 27.1172 1.22355 26.8749C1.00693 26.4575 0.995052 25.8093 0.995052 14.4295C0.995052 1.27406 0.962284 1.86174 1.72496 1.32654C2.04063 1.10497 2.68461 1.09269 13.9689 1.09269H25.8797L26.3507 1.57953L26.8219 2.06638L26.8565 8.52804L26.8912 14.9897H27.3881H27.885L27.8842 8.68756C27.8838 4.47011 27.8377 2.21453 27.7448 1.86872C27.5637 1.1943 26.7236 0.32596 26.0711 0.138771C25.7208 0.0381954 22.073 -0.00317247 13.8772 0.000188667C4.27312 0.00432545 2.09691 0.0370319 1.70007 0.183241ZM2.12068 2.70862V3.22571H2.62095H3.12123V2.70862V2.19152H2.62095H2.12068V2.70862ZM4.12179 2.70862V3.22571H4.62206H5.12234V2.70862V2.19152H4.62206H4.12179V2.70862ZM6.24796 2.70862V3.22571H6.74824H7.24852V2.70862V2.19152H6.74824H6.24796V2.70862ZM2.12068 4.77701V5.29411H13.9397H25.7588V4.77701V4.25991H13.9397H2.12068V4.77701ZM6.67845 7.23762L6.04885 7.88839L5.55796 7.6765C3.96082 6.9867 2.11004 8.29017 2.09416 10.1159C2.07252 12.6032 4.99002 13.7254 6.58765 11.8444C7.19324 11.1316 7.32944 10.459 7.07505 9.438L6.86743 8.60495L7.49766 7.94527L8.12801 7.28558L7.77519 6.93615C7.5812 6.74405 7.39673 6.58685 7.36521 6.58685C7.33382 6.58685 7.02477 6.87966 6.67845 7.23762ZM3.9288 8.7668C3.12173 9.27563 2.87835 10.2665 3.38125 10.9965C3.67366 11.4209 4.22534 11.7578 4.62819 11.7578C5.07644 11.7578 5.68303 11.3887 5.92203 10.9705C6.1399 10.5893 6.2297 9.75666 6.07062 9.59222C6.02809 9.54827 5.76995 9.73766 5.49717 10.013L5.00102 10.5138L4.68647 10.2083C4.27462 9.8085 4.28813 9.69487 4.80929 9.17273C5.12434 8.85717 5.20301 8.70605 5.0907 8.63223C4.82543 8.45823 4.3269 8.51588 3.9288 8.7668ZM8.74935 9.04306V9.56016H13.1268H17.5042V9.04306V8.52597H13.1268H8.74935V9.04306ZM18.6298 9.04306V9.56016H21.1938H23.7577V9.04306V8.52597H21.1938H18.6298V9.04306ZM8.74935 11.2407V11.7578H10.5629H12.3764V11.2407V10.7236H10.5629H8.74935V11.2407ZM13.3769 11.2407V11.7578H17.0039H20.6309V11.2407V10.7236H17.0039H13.3769V11.2407ZM6.69796 13.6841L6.09413 14.3177L5.64688 14.1246C4.63294 13.6866 3.52145 13.9413 2.77041 14.7835C1.37526 16.3478 2.20422 18.8042 4.25824 19.192C6.06536 19.5332 7.663 17.551 7.05979 15.7162L6.8523 15.0852L7.42562 14.4836C7.74092 14.1528 7.99894 13.8214 7.99894 13.7474C7.99894 13.6169 7.48027 13.0506 7.36083 13.0506C7.32831 13.0506 7.03002 13.3356 6.69796 13.6841ZM3.85576 15.2074C3.14662 15.6623 2.91124 16.6617 3.35098 17.351C3.70806 17.9108 4.0126 18.0837 4.6492 18.0881C5.15586 18.0918 5.29906 18.0303 5.66389 17.6531C6.11001 17.192 6.25447 16.7639 6.15166 16.2076L6.09 15.8742L5.56859 16.4032L5.04705 16.932L4.6851 16.5415L4.32315 16.1511L4.78778 15.6592C5.04342 15.3886 5.21389 15.1274 5.16662 15.0785C5.00753 14.9141 4.1872 14.9947 3.85576 15.2074ZM8.74935 15.5068V16.0239H13.1268H17.5042V15.5068V14.9897H13.1268H8.74935V15.5068ZM18.6298 15.5068V16.0239H19.6304H20.6309V15.5068V14.9897H19.6304H18.6298V15.5068ZM22.632 16.2078C20.2911 16.7598 18.4185 18.281 17.3675 20.4839C15.8709 23.6208 16.4375 27.1887 18.8241 29.6555C23.1748 34.1526 30.5644 31.8445 31.8394 25.5902C32.8357 20.7031 29.0639 15.9892 24.1954 16.0369C23.7139 16.0417 23.0104 16.1185 22.632 16.2078ZM8.74935 17.5752V18.0923H10.5629H12.3764V17.5752V17.0581H10.5629H8.74935V17.5752ZM13.3769 17.5752V18.0923H15.4406H17.5042V17.5752V17.0581H15.4406H13.3769V17.5752ZM22.9532 17.2087C20.7282 17.648 18.5683 19.6657 17.8659 21.9612C17.5277 23.0664 17.5016 24.8294 17.8074 25.9134C18.4529 28.2015 20.5191 30.2521 22.6947 30.7632C23.6948 30.9983 25.328 30.9406 26.2778 30.6369C27.8798 30.1246 29.5084 28.6724 30.2698 27.0768C32.704 21.9762 28.3757 16.1384 22.9532 17.2087ZM6.67845 20.0358L6.04885 20.6866L5.55521 20.4734C4.49749 20.0167 3.03606 20.5309 2.45136 21.5657C1.43742 23.3603 2.64009 25.5902 4.62206 25.5902C5.75782 25.5902 6.83404 24.7467 7.13521 23.6204C7.25677 23.1659 7.24627 22.9234 7.07505 22.2362L6.86743 21.4031L7.49766 20.7434L8.12801 20.0837L7.77519 19.7343C7.5812 19.5422 7.39673 19.385 7.36521 19.385C7.33382 19.385 7.02477 19.6778 6.67845 20.0358ZM24.7562 22.8129C23.2107 24.4115 21.9153 25.7195 21.8775 25.7195C21.8396 25.7195 21.6571 25.4 21.4719 25.0096L21.135 24.2998L20.6953 24.5164C20.4536 24.6356 20.2557 24.7818 20.2557 24.8413C20.2557 25.1354 21.2882 27.0207 21.5191 27.1485C21.7617 27.2828 22.0529 27.0182 24.9596 24.0221C26.7062 22.2219 28.1331 20.7185 28.1306 20.6811C28.1281 20.6438 28.0001 20.4541 27.8461 20.2597L27.5662 19.9064L24.7562 22.8129ZM4.03049 21.5158C3.20403 21.8871 2.85421 23.1362 3.38238 23.8301C3.68717 24.2306 4.2456 24.556 4.62819 24.556C5.07644 24.556 5.68303 24.1869 5.92203 23.7687C6.1399 23.3875 6.2297 22.5548 6.07062 22.3904C6.02809 22.3464 5.76995 22.5358 5.49717 22.8112L5.00102 23.312L4.68647 23.0065C4.27462 22.6067 4.28813 22.493 4.80929 21.9709C5.12434 21.6553 5.20301 21.5042 5.0907 21.4304C4.8617 21.2802 4.48786 21.3103 4.03049 21.5158ZM8.74935 21.8412V22.3583H12.1262H15.5031V21.8412V21.3241H12.1262H8.74935V21.8412ZM8.74935 24.0389V24.556H10.5629H12.3764V24.0389V23.5218H10.5629H8.74935V24.0389ZM13.3769 24.0389V24.556H14.44H15.5031V24.0389V23.5218H14.44H13.3769V24.0389Z" fill="#5f56af"/>
</svg>
