<svg width="33" height="32" viewBox="0 0 33 32" fill="none" xmlns="http://www.w3.org/2000/svg">
<mask id="path-1-inside-1_291_5048" fill="white">
<path fill-rule="evenodd" clip-rule="evenodd" d="M9.5504 0.0697941C7.99321 0.451155 6.94577 1.81253 6.9424 3.45951C6.94134 3.97335 7.01823 3.91405 6.19248 4.03765C5.57545 4.12997 4.5363 4.48212 3.93781 4.80168C2.62354 5.50342 1.53527 6.67164 1.06829 7.8819C0.584009 9.13707 0.584009 10.3254 1.06829 11.5805C1.53527 12.7908 2.62354 13.959 3.93781 14.6608C4.52282 14.9732 5.5596 15.3235 6.19248 15.4226C6.44994 15.4629 6.7232 15.5081 6.79972 15.5229L6.93878 15.55L6.95575 22.4139L6.97267 29.2778L7.13732 29.7291C7.44921 30.5842 8.1377 31.3371 8.93037 31.6902C9.64359 32.0078 9.50141 32.0025 16.8497 31.9843L23.6999 31.9674L24.1311 31.8146C25.0696 31.482 25.8994 30.6505 26.2312 29.71L26.3837 29.2778L26.4006 22.4794C26.4165 16.0985 26.4242 15.6791 26.5254 15.651C26.5848 15.6345 26.7948 15.6027 26.9922 15.5802C27.5789 15.5133 28.4627 15.2492 29.0799 14.9561C30.951 14.0679 32.1809 12.5938 32.5752 10.7668C32.6645 10.3533 32.7542 8.92741 32.6738 9.19956C32.6492 9.28281 32.6111 9.18874 32.5598 8.91809C32.1494 6.75271 30.2421 4.9159 27.7487 4.28484C27.3511 4.18414 26.9234 4.10138 26.7983 4.10088C26.6732 4.10032 26.5395 4.07924 26.5012 4.05397C26.4607 4.02733 26.4181 3.73172 26.3999 3.35124C26.3598 2.51502 26.1863 1.98073 25.7624 1.38732C25.3787 0.850405 24.7512 0.37741 24.1311 0.157675L23.6999 0.00486835L16.803 -0.00620281C11.0916 -0.0153975 9.845 -0.00232478 9.5504 0.0697941ZM9.6253 0.824447C8.45128 1.13926 7.69044 2.1872 7.69044 3.48947V3.91418L7.9557 3.91455C8.80236 3.91574 10.2529 4.28878 11.1233 4.72913C15.5882 6.98827 15.6061 12.4446 11.156 14.7137C10.8293 14.8803 10.562 15.0543 10.5618 15.1003C10.5616 15.1463 10.6497 15.445 10.7573 15.764C10.9819 16.4293 10.971 16.6737 10.7024 16.9936C10.3338 17.4326 9.82447 17.4788 9.27609 17.1231C8.85104 16.8474 8.21522 16.2292 7.92312 15.8077L7.72165 15.517L7.70573 22.2071C7.68819 29.5981 7.67403 29.3058 8.08284 29.9874C8.43318 30.5713 8.98642 30.9791 9.66481 31.1533C9.99941 31.2392 10.8529 31.2487 16.841 31.2338L23.6374 31.2168L23.9807 31.0752C24.1695 30.9972 24.4573 30.8352 24.6201 30.7151C24.9795 30.4501 25.3037 30.021 25.4934 29.5592L25.6347 29.2152L25.6517 22.4355L25.6686 15.6559L25.3972 16.0243C25.1022 16.4247 24.5331 16.9746 24.1165 17.2621C23.1723 17.9133 22.1407 17.0271 22.6087 15.9669C22.678 15.8099 22.7578 15.5575 22.786 15.406L22.8374 15.1304L22.2867 14.8593C21.6345 14.5382 20.802 13.928 20.39 13.4691C17.7871 10.5695 18.7694 6.52497 22.5063 4.7549C23.3443 4.35796 24.6334 4.04021 25.4088 4.03952L25.6823 4.03927L25.6511 3.39815C25.5904 2.15386 25.0357 1.32459 23.9807 0.900819C23.6818 0.780788 23.4903 0.759709 22.4992 0.737629L21.361 0.712297L20.9303 1.61888C20.4399 2.65138 20.1579 3.00715 19.6206 3.27167L19.2684 3.44506H16.7406H14.2128L13.8695 3.28087C13.3062 3.01147 13.0437 2.68828 12.5443 1.64934L12.0996 0.724181L11.0341 0.728309C10.3051 0.731124 9.86017 0.76146 9.6253 0.824447ZM4.13966 9.19305C3.59858 9.4936 3.82496 10.3567 4.44487 10.3567C4.76112 10.3567 5.06902 10.0512 5.06902 9.73729C5.06902 9.26767 4.55116 8.96444 4.13966 9.19305ZM7.38523 9.19305C6.84416 9.4936 7.07054 10.3567 7.69044 10.3567C8.0067 10.3567 8.31459 10.0512 8.31459 9.73729C8.31459 9.26767 7.79673 8.96444 7.38523 9.19305ZM10.6308 9.19305C10.0897 9.4936 10.3161 10.3567 10.936 10.3567C11.2523 10.3567 11.5602 10.0512 11.5602 9.73729C11.5602 9.26767 11.0423 8.96444 10.6308 9.19305ZM0.722445 9.73123C0.722445 10.058 0.732993 10.1918 0.745851 10.0283C0.758708 9.86489 0.758708 9.59756 0.745851 9.43412C0.732993 9.27068 0.722445 9.40441 0.722445 9.73123ZM22.0411 9.41366C21.6551 9.8004 21.9134 10.4818 22.4457 10.4818C22.6014 10.4818 22.7271 10.429 22.8648 10.3057C23.0286 10.1589 23.0615 10.0838 23.0615 9.85632C23.0615 9.62883 23.0286 9.55371 22.8648 9.40697C22.5935 9.16416 22.2876 9.1666 22.0411 9.41366ZM25.2866 9.41366C25.1436 9.55709 25.1042 9.65254 25.1042 9.85632C25.1042 10.546 25.994 10.7202 26.2598 10.0827C26.3706 9.81679 26.3113 9.5726 26.0907 9.38652C25.8296 9.16635 25.5231 9.17673 25.2866 9.41366ZM28.5322 9.41366C28.3891 9.55709 28.3498 9.65254 28.3498 9.85632C28.3498 10.546 29.2395 10.7202 29.5054 10.0827C29.6162 9.81679 29.5569 9.5726 29.3362 9.38652C29.0751 9.16635 28.7686 9.17673 28.5322 9.41366ZM15.5235 15.7966C13.7455 15.8902 13.0665 16.3749 12.7824 17.7536C12.7281 18.0171 12.6836 18.2987 12.6836 18.3796C12.6836 18.4763 12.5631 18.6426 12.3302 18.8669C11.8476 19.3317 11.4398 19.8313 11.1184 20.3511L10.8487 20.7872L10.4801 20.8208C9.77185 20.8851 8.97824 21.4154 8.70412 22.0073C8.46382 22.5262 8.41239 22.912 8.41027 24.2113C8.40784 25.6751 8.46463 25.9249 8.91333 26.425C9.18428 26.727 9.72491 27.0573 9.94842 27.0573C10.0191 27.0573 10.0737 27.1201 10.0977 27.2293C10.4295 28.7354 11.2569 29.688 12.5919 30.1008C12.9361 30.2072 13.2472 30.216 16.6782 30.216C20.1091 30.216 20.4203 30.2072 20.7645 30.1008C22.0994 29.688 22.9269 28.7354 23.2586 27.2293C23.2827 27.1201 23.3372 27.0573 23.4079 27.0573C23.6314 27.0573 24.1721 26.727 24.443 26.425C24.8902 25.9266 24.9487 25.6719 24.9448 24.2426C24.9402 22.5671 24.8052 22.0257 24.2522 21.4662C23.9328 21.143 23.2974 20.8464 22.8558 20.8144L22.5089 20.7892L22.2386 20.3521C21.9154 19.8294 21.4695 19.2831 21.0096 18.8463C20.7884 18.6361 20.6727 18.4758 20.6727 18.3794C20.6727 18.2987 20.6284 18.0173 20.5741 17.7542C20.3349 16.5935 19.7667 16.0497 18.6022 15.8669C18.055 15.7811 16.4956 15.7454 15.5235 15.7966ZM15.742 19.5855C13.9746 19.9631 12.6289 21.2929 12.1772 23.1081C12.0006 23.8178 12.0262 24.998 12.2277 25.442C12.4056 25.834 12.8297 26.2837 13.1978 26.4706C13.9061 26.8303 14.5232 26.7921 15.5143 26.3273C16.114 26.046 16.1758 26.0303 16.6782 26.0303C17.1806 26.0303 17.2423 26.046 17.842 26.3273C18.8331 26.7921 19.4503 26.8303 20.1586 26.4706C20.5251 26.2844 20.9492 25.8358 21.1308 25.442C21.2508 25.1818 21.2652 25.0461 21.2616 24.2113C21.2579 23.3662 21.241 23.2234 21.0903 22.7727C20.3102 20.4385 18.0509 19.0921 15.742 19.5855ZM14.1476 22.2695C14.002 22.4153 13.9943 22.4602 13.9943 23.1709V23.9187L14.1864 24.0806C14.405 24.265 14.5493 24.2817 14.8001 24.1517C15.0651 24.0143 15.1328 23.7751 15.1082 23.0629C15.0888 22.5041 15.0707 22.4215 14.9353 22.2772C14.7289 22.0572 14.3629 22.0537 14.1476 22.2695ZM18.4211 22.2772C18.2883 22.4188 18.267 22.5083 18.2475 23.0075C18.2189 23.7409 18.3012 24.0272 18.5785 24.1598C18.938 24.3316 19.3052 24.1362 19.3863 23.73C19.4546 23.3878 19.4266 22.6799 19.3361 22.4629C19.1768 22.0809 18.6966 21.9835 18.4211 22.2772ZM16.373 27.2071C15.8319 27.5077 16.0583 28.3708 16.6782 28.3708C16.9944 28.3708 17.3023 28.0652 17.3023 27.7514C17.3023 27.2818 16.7845 26.9785 16.373 27.2071Z"/>
</mask>
<path fill-rule="evenodd" clip-rule="evenodd" d="M9.5504 0.0697941C7.99321 0.451155 6.94577 1.81253 6.9424 3.45951C6.94134 3.97335 7.01823 3.91405 6.19248 4.03765C5.57545 4.12997 4.5363 4.48212 3.93781 4.80168C2.62354 5.50342 1.53527 6.67164 1.06829 7.8819C0.584009 9.13707 0.584009 10.3254 1.06829 11.5805C1.53527 12.7908 2.62354 13.959 3.93781 14.6608C4.52282 14.9732 5.5596 15.3235 6.19248 15.4226C6.44994 15.4629 6.7232 15.5081 6.79972 15.5229L6.93878 15.55L6.95575 22.4139L6.97267 29.2778L7.13732 29.7291C7.44921 30.5842 8.1377 31.3371 8.93037 31.6902C9.64359 32.0078 9.50141 32.0025 16.8497 31.9843L23.6999 31.9674L24.1311 31.8146C25.0696 31.482 25.8994 30.6505 26.2312 29.71L26.3837 29.2778L26.4006 22.4794C26.4165 16.0985 26.4242 15.6791 26.5254 15.651C26.5848 15.6345 26.7948 15.6027 26.9922 15.5802C27.5789 15.5133 28.4627 15.2492 29.0799 14.9561C30.951 14.0679 32.1809 12.5938 32.5752 10.7668C32.6645 10.3533 32.7542 8.92741 32.6738 9.19956C32.6492 9.28281 32.6111 9.18874 32.5598 8.91809C32.1494 6.75271 30.2421 4.9159 27.7487 4.28484C27.3511 4.18414 26.9234 4.10138 26.7983 4.10088C26.6732 4.10032 26.5395 4.07924 26.5012 4.05397C26.4607 4.02733 26.4181 3.73172 26.3999 3.35124C26.3598 2.51502 26.1863 1.98073 25.7624 1.38732C25.3787 0.850405 24.7512 0.37741 24.1311 0.157675L23.6999 0.00486835L16.803 -0.00620281C11.0916 -0.0153975 9.845 -0.00232478 9.5504 0.0697941ZM9.6253 0.824447C8.45128 1.13926 7.69044 2.1872 7.69044 3.48947V3.91418L7.9557 3.91455C8.80236 3.91574 10.2529 4.28878 11.1233 4.72913C15.5882 6.98827 15.6061 12.4446 11.156 14.7137C10.8293 14.8803 10.562 15.0543 10.5618 15.1003C10.5616 15.1463 10.6497 15.445 10.7573 15.764C10.9819 16.4293 10.971 16.6737 10.7024 16.9936C10.3338 17.4326 9.82447 17.4788 9.27609 17.1231C8.85104 16.8474 8.21522 16.2292 7.92312 15.8077L7.72165 15.517L7.70573 22.2071C7.68819 29.5981 7.67403 29.3058 8.08284 29.9874C8.43318 30.5713 8.98642 30.9791 9.66481 31.1533C9.99941 31.2392 10.8529 31.2487 16.841 31.2338L23.6374 31.2168L23.9807 31.0752C24.1695 30.9972 24.4573 30.8352 24.6201 30.7151C24.9795 30.4501 25.3037 30.021 25.4934 29.5592L25.6347 29.2152L25.6517 22.4355L25.6686 15.6559L25.3972 16.0243C25.1022 16.4247 24.5331 16.9746 24.1165 17.2621C23.1723 17.9133 22.1407 17.0271 22.6087 15.9669C22.678 15.8099 22.7578 15.5575 22.786 15.406L22.8374 15.1304L22.2867 14.8593C21.6345 14.5382 20.802 13.928 20.39 13.4691C17.7871 10.5695 18.7694 6.52497 22.5063 4.7549C23.3443 4.35796 24.6334 4.04021 25.4088 4.03952L25.6823 4.03927L25.6511 3.39815C25.5904 2.15386 25.0357 1.32459 23.9807 0.900819C23.6818 0.780788 23.4903 0.759709 22.4992 0.737629L21.361 0.712297L20.9303 1.61888C20.4399 2.65138 20.1579 3.00715 19.6206 3.27167L19.2684 3.44506H16.7406H14.2128L13.8695 3.28087C13.3062 3.01147 13.0437 2.68828 12.5443 1.64934L12.0996 0.724181L11.0341 0.728309C10.3051 0.731124 9.86017 0.76146 9.6253 0.824447ZM4.13966 9.19305C3.59858 9.4936 3.82496 10.3567 4.44487 10.3567C4.76112 10.3567 5.06902 10.0512 5.06902 9.73729C5.06902 9.26767 4.55116 8.96444 4.13966 9.19305ZM7.38523 9.19305C6.84416 9.4936 7.07054 10.3567 7.69044 10.3567C8.0067 10.3567 8.31459 10.0512 8.31459 9.73729C8.31459 9.26767 7.79673 8.96444 7.38523 9.19305ZM10.6308 9.19305C10.0897 9.4936 10.3161 10.3567 10.936 10.3567C11.2523 10.3567 11.5602 10.0512 11.5602 9.73729C11.5602 9.26767 11.0423 8.96444 10.6308 9.19305ZM0.722445 9.73123C0.722445 10.058 0.732993 10.1918 0.745851 10.0283C0.758708 9.86489 0.758708 9.59756 0.745851 9.43412C0.732993 9.27068 0.722445 9.40441 0.722445 9.73123ZM22.0411 9.41366C21.6551 9.8004 21.9134 10.4818 22.4457 10.4818C22.6014 10.4818 22.7271 10.429 22.8648 10.3057C23.0286 10.1589 23.0615 10.0838 23.0615 9.85632C23.0615 9.62883 23.0286 9.55371 22.8648 9.40697C22.5935 9.16416 22.2876 9.1666 22.0411 9.41366ZM25.2866 9.41366C25.1436 9.55709 25.1042 9.65254 25.1042 9.85632C25.1042 10.546 25.994 10.7202 26.2598 10.0827C26.3706 9.81679 26.3113 9.5726 26.0907 9.38652C25.8296 9.16635 25.5231 9.17673 25.2866 9.41366ZM28.5322 9.41366C28.3891 9.55709 28.3498 9.65254 28.3498 9.85632C28.3498 10.546 29.2395 10.7202 29.5054 10.0827C29.6162 9.81679 29.5569 9.5726 29.3362 9.38652C29.0751 9.16635 28.7686 9.17673 28.5322 9.41366ZM15.5235 15.7966C13.7455 15.8902 13.0665 16.3749 12.7824 17.7536C12.7281 18.0171 12.6836 18.2987 12.6836 18.3796C12.6836 18.4763 12.5631 18.6426 12.3302 18.8669C11.8476 19.3317 11.4398 19.8313 11.1184 20.3511L10.8487 20.7872L10.4801 20.8208C9.77185 20.8851 8.97824 21.4154 8.70412 22.0073C8.46382 22.5262 8.41239 22.912 8.41027 24.2113C8.40784 25.6751 8.46463 25.9249 8.91333 26.425C9.18428 26.727 9.72491 27.0573 9.94842 27.0573C10.0191 27.0573 10.0737 27.1201 10.0977 27.2293C10.4295 28.7354 11.2569 29.688 12.5919 30.1008C12.9361 30.2072 13.2472 30.216 16.6782 30.216C20.1091 30.216 20.4203 30.2072 20.7645 30.1008C22.0994 29.688 22.9269 28.7354 23.2586 27.2293C23.2827 27.1201 23.3372 27.0573 23.4079 27.0573C23.6314 27.0573 24.1721 26.727 24.443 26.425C24.8902 25.9266 24.9487 25.6719 24.9448 24.2426C24.9402 22.5671 24.8052 22.0257 24.2522 21.4662C23.9328 21.143 23.2974 20.8464 22.8558 20.8144L22.5089 20.7892L22.2386 20.3521C21.9154 19.8294 21.4695 19.2831 21.0096 18.8463C20.7884 18.6361 20.6727 18.4758 20.6727 18.3794C20.6727 18.2987 20.6284 18.0173 20.5741 17.7542C20.3349 16.5935 19.7667 16.0497 18.6022 15.8669C18.055 15.7811 16.4956 15.7454 15.5235 15.7966ZM15.742 19.5855C13.9746 19.9631 12.6289 21.2929 12.1772 23.1081C12.0006 23.8178 12.0262 24.998 12.2277 25.442C12.4056 25.834 12.8297 26.2837 13.1978 26.4706C13.9061 26.8303 14.5232 26.7921 15.5143 26.3273C16.114 26.046 16.1758 26.0303 16.6782 26.0303C17.1806 26.0303 17.2423 26.046 17.842 26.3273C18.8331 26.7921 19.4503 26.8303 20.1586 26.4706C20.5251 26.2844 20.9492 25.8358 21.1308 25.442C21.2508 25.1818 21.2652 25.0461 21.2616 24.2113C21.2579 23.3662 21.241 23.2234 21.0903 22.7727C20.3102 20.4385 18.0509 19.0921 15.742 19.5855ZM14.1476 22.2695C14.002 22.4153 13.9943 22.4602 13.9943 23.1709V23.9187L14.1864 24.0806C14.405 24.265 14.5493 24.2817 14.8001 24.1517C15.0651 24.0143 15.1328 23.7751 15.1082 23.0629C15.0888 22.5041 15.0707 22.4215 14.9353 22.2772C14.7289 22.0572 14.3629 22.0537 14.1476 22.2695ZM18.4211 22.2772C18.2883 22.4188 18.267 22.5083 18.2475 23.0075C18.2189 23.7409 18.3012 24.0272 18.5785 24.1598C18.938 24.3316 19.3052 24.1362 19.3863 23.73C19.4546 23.3878 19.4266 22.6799 19.3361 22.4629C19.1768 22.0809 18.6966 21.9835 18.4211 22.2772ZM16.373 27.2071C15.8319 27.5077 16.0583 28.3708 16.6782 28.3708C16.9944 28.3708 17.3023 28.0652 17.3023 27.7514C17.3023 27.2818 16.7845 26.9785 16.373 27.2071Z" stroke="#ffffff" stroke-width="2" mask="url(#path-1-inside-1_291_5048)"/>
</svg>
