<svg width="52" height="52" viewBox="0 0 52 52" fill="none" xmlns="http://www.w3.org/2000/svg">
<circle cx="25.79" cy="25.79" r="25.79" fill="#5F56AF" fill-opacity="0.2"/>
<path d="M18.6123 38.0506C20.7289 39.2867 23.1865 39.997 25.8003 39.997C33.7981 39.997 40.4463 32.9361 39.9776 24.9516C39.4946 16.7115 32.0082 10.3609 23.3854 11.7816C17.4474 12.7619 12.6885 17.5781 11.7651 23.5167C11.2253 26.9548 11.9356 30.2083 13.4841 32.8934L12.2197 37.596C11.9356 38.6615 12.9158 39.6276 13.967 39.3293L18.6123 38.0506Z" fill="#292D32"/>
<path d="M23.8553 25.1522C24.4028 26.2829 25.3172 27.1949 26.4494 27.7396C26.5329 27.7791 26.6252 27.7962 26.7174 27.7892C26.8095 27.7822 26.8982 27.7514 26.9748 27.6997L28.6377 26.5889C28.7111 26.5391 28.796 26.5086 28.8844 26.5005C28.9728 26.4924 29.0619 26.5067 29.1432 26.5423L32.2561 27.8793C32.3625 27.9235 32.4513 28.0016 32.509 28.1013C32.5667 28.2011 32.59 28.317 32.5753 28.4313C32.4767 29.2014 32.1008 29.9091 31.518 30.4221C30.9353 30.9351 30.1856 31.2181 29.4092 31.2183C27.0101 31.2183 24.7092 30.2652 23.0128 28.5688C21.3163 26.8723 20.3633 24.5715 20.3633 22.1723C20.3635 21.396 20.6465 20.6463 21.1595 20.0635C21.6724 19.4808 22.3802 19.1049 23.1502 19.0062C23.2645 18.9916 23.3805 19.0149 23.4802 19.0725C23.58 19.1302 23.658 19.2191 23.7023 19.3255L25.0392 22.445C25.074 22.5251 25.0886 22.6125 25.0816 22.6994C25.0746 22.7864 25.0464 22.8704 24.9993 22.9439L23.8885 24.6334C23.8391 24.7098 23.8101 24.7976 23.8042 24.8884C23.7984 24.9793 23.816 25.0701 23.8553 25.1522Z" fill="#C5C2E2"/>
</svg>
