<svg width="32" height="32" viewBox="0 0 32 32" fill="none" xmlns="http://www.w3.org/2000/svg">
<path fill-rule="evenodd" clip-rule="evenodd" d="M13.5938 0.0908504C13.0684 0.337617 12.9753 0.54138 12.9375 1.52607L12.9062 2.34181L11.1444 2.35837L9.38256 2.375L9.25375 2.5387C9.18294 2.62877 9.125 2.73952 9.125 2.78484C9.125 2.96966 9.27838 3.1833 9.45544 3.24499C9.58375 3.28975 12.7158 3.31062 19.2915 3.31062H28.9393L29.1728 3.52458L29.4062 3.73853L29.4226 12.0251L29.4389 20.3117H25.6541H21.8693L21.7159 20.4652C21.5319 20.6492 21.5195 20.8698 21.6819 21.0705L21.8014 21.218L26.3851 21.2493L30.9688 21.2806L30.9867 21.8963C30.9984 22.2967 30.9793 22.5428 30.9322 22.5995C30.8706 22.6738 28.9668 22.6869 18.2156 22.6869H5.57156L5.44206 22.8516C5.29369 23.0402 5.28425 23.119 5.38363 23.3371C5.49713 23.5862 5.73425 23.6245 7.16556 23.6245C7.8995 23.6245 8.5 23.6343 8.5 23.6463C8.5 23.6583 8.14844 25.4216 7.71875 27.5647C7.28906 29.7078 6.9375 31.5134 6.9375 31.5772C6.9375 31.641 7.00656 31.7622 7.09094 31.8466L7.24431 32H8.8125C10.3582 32 10.3827 31.998 10.5222 31.8585C10.6342 31.7464 10.7062 31.5027 10.8682 30.6865C10.9808 30.1198 11.101 29.5223 11.1354 29.3588L11.198 29.0616L15.9568 29.0776L20.7155 29.0936L20.9209 30.0936C21.0339 30.6437 21.1563 31.2423 21.193 31.424C21.3111 32.0085 21.2839 32.0003 23.0899 31.998C24.7603 31.9959 24.8141 31.9866 24.9254 31.6824C24.9661 31.571 24.772 30.4923 24.1868 27.5778L23.3929 23.6245L27.1183 23.6241C29.6507 23.6239 30.9238 23.6016 31.0938 23.5545C31.4581 23.4536 31.6453 23.2966 31.8332 22.9344C31.9881 22.6359 32 22.5566 32 21.8269C32 21.3946 31.982 21.059 31.96 21.081C31.938 21.103 31.8717 21.031 31.8128 20.921C31.7538 20.8111 31.6015 20.6369 31.4743 20.5339C31.2778 20.3749 31.1777 20.343 30.8099 20.3222L30.3768 20.2977L30.3603 11.9448L30.3438 3.59189L30.2027 3.32794C30.0229 2.99129 29.7113 2.67971 29.4002 2.52538C29.1666 2.40944 28.9408 2.403 24.0625 2.37306L18.9688 2.34181L18.9375 1.52926C18.9009 0.576632 18.8048 0.346055 18.3529 0.127353C18.098 0.00396971 17.9851 -0.00196819 15.9334 0.00034446C14.2164 0.00228209 13.7433 0.0205958 13.5938 0.0908504ZM13.9175 0.976283C13.8941 0.99966 13.875 1.32349 13.875 1.69596V2.37306H15.9396H18.0041L17.9864 1.66989L17.9688 0.96672L15.9644 0.950219C14.862 0.941156 13.9409 0.952907 13.9175 0.976283ZM2.64475 2.45594C2.27181 2.59345 1.91069 2.90385 1.71875 3.25193L1.53125 3.59189L1.51475 11.9518L1.49819 20.3117H1.15338C0.70825 20.3117 0.44475 20.4256 0.198438 20.7245L0 20.9653V21.9366C0 22.8632 0.007 22.9182 0.152437 23.1322C0.439438 23.5546 0.596625 23.5907 2.24863 23.6131C3.05569 23.6241 3.80956 23.6155 3.924 23.594C4.3425 23.5154 4.51331 23.1089 4.24756 22.8237C4.12306 22.6901 4.08425 22.6869 2.56769 22.6869C1.31463 22.6869 1.00131 22.6701 0.942812 22.5995C0.895687 22.5428 0.876625 22.2967 0.888313 21.8963L0.90625 21.2806L10.6461 21.2493L20.3861 21.218L20.5055 21.0705C20.668 20.8698 20.6556 20.6492 20.4716 20.4652L20.3182 20.3117H11.3772H2.43613L2.45244 12.0251L2.46875 3.73853L2.70219 3.52458L2.93569 3.31062H5.34594C7.33906 3.31062 7.78681 3.29481 7.933 3.21918C8.21906 3.07123 8.27775 2.74359 8.06006 2.50988C7.93287 2.37331 7.92812 2.37306 5.38819 2.37781C3.60612 2.38113 2.78413 2.40456 2.64475 2.45594ZM8.9375 5.72891C8.56756 5.79079 7.98094 6.02318 7.64437 6.24119C6.64769 6.88673 6.04306 7.99868 6.04306 9.18601C6.04306 10.1566 6.38325 10.9616 7.08681 11.656C7.60612 12.1685 7.99419 12.3919 8.66156 12.5626C9.88538 12.8756 11.0767 12.5489 11.9691 11.6557C12.6819 10.9421 13 10.18 13 9.18601C13 8.19201 12.6819 7.42989 11.9691 6.71635C11.4808 6.22744 10.9645 5.93705 10.3092 5.7826C9.93269 5.69384 9.29619 5.66897 8.9375 5.72891ZM8.91362 6.68891C8.49744 6.79342 7.94175 7.13162 7.64281 7.46233C6.4905 8.73698 6.86188 10.7102 8.39688 11.4688C10.1131 12.3171 12.0625 11.1031 12.0625 9.18601C12.0625 8.12888 11.5137 7.28389 10.5366 6.83654C10.1321 6.65128 9.34744 6.5799 8.91362 6.68891ZM23.4666 7.12094C23.2578 7.20457 23.2048 7.31539 23.097 7.8938C22.8646 9.14101 22.3738 10.0773 21.5517 10.8424C20.7587 11.5802 19.7727 12.0488 18.4464 12.318C17.6456 12.4805 16.0091 12.5397 15.0499 12.4408C14.2404 12.3573 14.1017 12.3875 13.9942 12.6703C13.9141 12.8809 14.0181 13.146 14.2164 13.2363C14.7089 13.4607 17.2647 13.4901 18.4062 13.2845C21.3594 12.7525 23.2658 11.1231 23.9109 8.57978C24.1127 7.7846 24.1284 7.41002 23.9667 7.25463C23.8105 7.1045 23.6288 7.05593 23.4666 7.12094ZM15.5909 7.90186C15.3332 8.15957 15.3858 8.33339 15.8736 8.83649L16.3096 9.28627L15.9046 9.68773C15.6818 9.90856 15.483 10.1412 15.4628 10.2048C15.3698 10.4981 15.7279 10.8629 16.0228 10.7754C16.0962 10.7535 16.3399 10.5557 16.5643 10.3357L16.9722 9.93568L17.3455 10.3164C17.7814 10.7611 17.9506 10.8467 18.1936 10.746C18.3833 10.6675 18.5311 10.3827 18.4747 10.2048C18.4545 10.1412 18.2558 9.90856 18.0329 9.68773L17.6279 9.28627L18.0715 8.82867C18.48 8.4074 18.5121 8.35514 18.4761 8.16913C18.4547 8.05806 18.3778 7.91799 18.3054 7.8578C18.0628 7.65641 17.8927 7.71829 17.4144 8.18213L16.9672 8.61578L16.5222 8.18213C16.0239 7.69641 15.849 7.64372 15.5909 7.90186ZM9.90625 8.71079L9.09375 9.55122L8.70144 9.18107C8.29888 8.8013 8.127 8.7386 7.86788 8.8773C7.68569 8.97481 7.60413 9.23476 7.69037 9.44303C7.7295 9.53741 8.02687 9.85568 8.35125 10.1503C8.78362 10.5432 8.98644 10.6866 9.11112 10.6879C9.25 10.6894 9.4735 10.4926 10.3281 9.61666C11.3108 8.60941 11.375 8.52897 11.375 8.30576C11.375 8.0285 11.2091 7.8743 10.9079 7.87186C10.7462 7.87061 10.6007 7.99237 9.90625 8.71079ZM16.3253 14.4259C16.1433 14.4909 15.8902 14.6273 15.7628 14.7291C14.6056 15.6539 14.7873 17.423 16.1062 18.0723C16.4581 18.2456 16.5899 18.2769 16.9688 18.2769C17.8201 18.2769 18.5796 17.7318 18.846 16.9297C18.9884 16.5011 18.9475 15.8206 18.7572 15.4492C18.2902 14.5382 17.2441 14.098 16.3253 14.4259ZM8.12956 14.9761C7.908 15.2578 7.96562 15.4146 8.48781 15.9503L8.83638 16.308L8.41819 16.7412C7.94937 17.2268 7.89844 17.4032 8.15344 17.6581C8.41369 17.9185 8.59894 17.8653 9.07325 17.3946L9.49344 16.9776L9.93538 17.3946C10.2605 17.7013 10.4229 17.8116 10.5498 17.8116C10.9243 17.8116 11.1451 17.4623 10.9749 17.1391C10.9253 17.0449 10.7284 16.8146 10.5374 16.6274L10.1901 16.287L10.6263 15.8371C10.8666 15.5892 11.0625 15.3319 11.0625 15.264C11.0625 15.0356 10.825 14.8114 10.5831 14.8114C10.3971 14.8114 10.2981 14.8739 9.94625 15.2136L9.52962 15.6158L9.11544 15.2136C8.7645 14.8729 8.66744 14.8114 8.48013 14.8114C8.31575 14.8114 8.22587 14.8536 8.12956 14.9761ZM22.4421 14.9761C22.3708 15.0666 22.3125 15.1962 22.3125 15.264C22.3125 15.3319 22.5084 15.5892 22.7487 15.8371L23.1849 16.287L22.8376 16.6274C22.6466 16.8146 22.4498 17.0449 22.4001 17.1391C22.2299 17.4623 22.4507 17.8116 22.8253 17.8116C22.9521 17.8116 23.1145 17.7013 23.4396 17.3946L23.8816 16.9776L24.3018 17.3946C24.7761 17.8653 24.9613 17.9185 25.2216 17.6581C25.4763 17.4034 25.4256 17.2267 24.9587 16.7431L24.5423 16.3119L24.924 15.9144C25.1339 15.6958 25.3249 15.4401 25.3484 15.3462C25.4121 15.0927 25.2088 14.8481 24.9136 14.8231C24.7045 14.8054 24.6448 14.8408 24.2628 15.2097L23.8421 15.6158L23.4279 15.2136C23.077 14.8729 22.9799 14.8114 22.7926 14.8114C22.6283 14.8114 22.5384 14.8536 22.4421 14.9761ZM16.5251 15.368C16.178 15.5256 15.984 15.8137 15.9502 16.2218C15.8981 16.85 16.3436 17.3384 16.9688 17.3384C18.0621 17.3384 18.4043 15.8185 17.4124 15.368C17.2716 15.304 17.0719 15.2517 16.9688 15.2517C16.8656 15.2517 16.6659 15.304 16.5251 15.368ZM8.73144 27.2968C8.32594 29.3163 7.9955 30.9906 7.99706 31.0173C7.99869 31.0439 8.41313 31.058 8.91806 31.0485L9.83619 31.0312L10.5723 27.406C10.9771 25.4121 11.3092 23.7456 11.3104 23.7026C11.312 23.6435 11.0877 23.6245 10.3906 23.6247L9.46875 23.625L8.73144 27.2968ZM12.0424 24.8277C11.9133 25.4894 11.8088 26.0519 11.8101 26.0777C11.8114 26.1036 13.6834 26.1246 15.9699 26.1246H20.1274L20.0941 25.984C20.0548 25.8182 19.625 23.6753 19.625 23.6451C19.625 23.6338 17.9718 23.6245 15.9511 23.6245H12.2772L12.0424 24.8277ZM20.5871 23.7338C20.6187 23.8385 22.0625 30.9858 22.0625 31.0374C22.0625 31.0512 22.4849 31.0624 23.0012 31.0624H23.9399L23.9071 30.9218C23.889 30.8444 23.5772 29.3045 23.2141 27.4997C22.8511 25.6949 22.5255 24.0847 22.4906 23.9214L22.4271 23.6245H21.4906C20.6278 23.6245 20.5567 23.6331 20.5871 23.7338ZM11.5018 27.5153C11.4574 27.7646 11.4077 28.0037 11.3913 28.0466C11.3678 28.1087 12.3027 28.1248 15.9377 28.1248H20.5139L20.4708 27.8904C20.4471 27.7615 20.3994 27.5224 20.3649 27.3591L20.3021 27.0622H15.9423H11.5825L11.5018 27.5153Z" fill="white"/>
</svg>
