<svg width="60" height="57" viewBox="0 0 60 57" fill="none" xmlns="http://www.w3.org/2000/svg">
<path fill-rule="evenodd" clip-rule="evenodd" d="M25.4883 0.161827C24.5032 0.601379 24.3286 0.964333 24.2578 2.71831L24.1992 4.17135L20.8957 4.20085L17.5923 4.23047L17.3508 4.52206C17.218 4.68249 17.1094 4.87978 17.1094 4.96049C17.1094 5.28971 17.397 5.67026 17.7289 5.78015C17.9695 5.85986 23.8421 5.89705 36.1716 5.89705H54.2612L54.699 6.27815L55.1367 6.65925L55.1673 21.4198L55.1979 36.1803H48.1014H41.005L40.7174 36.4536C40.3723 36.7814 40.3491 37.1744 40.6536 37.5318L40.8777 37.7946L49.472 37.8503L58.0664 37.906L58.1 39.0029C58.122 39.7161 58.0862 40.1543 57.9979 40.2554C57.8823 40.3878 54.3127 40.411 34.1543 40.411H10.4467L10.2039 40.7044C9.92566 41.0403 9.90797 41.1807 10.0943 41.5692C10.3071 42.0129 10.7517 42.0811 13.4354 42.0811C14.8116 42.0811 15.9375 42.0985 15.9375 42.12C15.9375 42.1414 15.2783 45.2823 14.4727 49.0996C13.667 52.917 13.0078 56.1333 13.0078 56.2469C13.0078 56.3605 13.1373 56.5764 13.2955 56.7267L13.5831 57H16.5234C19.4217 57 19.4675 56.9964 19.7291 56.7479C19.9392 56.5483 20.0741 56.1141 20.378 54.6604C20.5889 53.6509 20.8144 52.5867 20.8789 52.2954L20.9963 51.7659L29.9189 51.7944L38.8416 51.8229L39.2266 53.6043C39.4385 54.584 39.6681 55.6504 39.7369 55.9739C39.9584 57.0151 39.9074 57.0006 43.2936 56.9964C46.4255 56.9926 46.5265 56.9762 46.7351 56.4343C46.8115 56.2358 46.4475 54.3144 45.3502 49.123L43.8616 42.0811L50.8468 42.0804C55.595 42.0801 57.9821 42.0403 58.3008 41.9565C58.984 41.7767 59.3348 41.4971 59.6872 40.8519C59.9776 40.3202 60 40.1789 60 38.8792C60 38.1092 59.9662 37.5113 59.925 37.5505C59.8837 37.5897 59.7595 37.4614 59.649 37.2656C59.5384 37.0697 59.2528 36.7594 59.0142 36.5761C58.6459 36.2927 58.4582 36.2359 57.7685 36.1989L56.9564 36.1553L56.9255 21.2767L56.8945 6.39806L56.63 5.92789C56.2929 5.32824 55.7087 4.77323 55.1254 4.49834C54.6873 4.29181 54.2639 4.28035 45.1172 4.22702L35.5664 4.17135L35.5078 2.72399C35.4391 1.02713 35.2589 0.61641 34.4118 0.226847C33.9338 0.00707104 33.722 -0.00350584 29.8751 0.000613569C26.6558 0.00406497 25.7687 0.0366862 25.4883 0.161827ZM26.0953 1.739C26.0515 1.78064 26.0156 2.35747 26.0156 3.02092V4.22702H29.8867H33.7577L33.7246 2.97449L33.6914 1.72197L29.9332 1.69258C27.8662 1.67643 26.1391 1.69737 26.0953 1.739ZM4.95891 4.37465C4.25965 4.61959 3.58254 5.17248 3.22266 5.7925L2.87109 6.39806L2.84016 21.2892L2.8091 36.1803H2.16258C1.32797 36.1803 0.833906 36.3831 0.37207 36.9155L0 37.3444V39.0746C0 40.725 0.013125 40.8231 0.28582 41.2043C0.823945 41.9567 1.11867 42.0209 4.21617 42.0609C5.72941 42.0804 7.14293 42.065 7.3575 42.0268C8.14219 41.8869 8.46246 41.1628 7.96418 40.6547C7.73074 40.4167 7.65797 40.411 4.81441 40.411C2.46492 40.411 1.87746 40.3811 1.76777 40.2554C1.67941 40.1543 1.64367 39.7161 1.66559 39.0029L1.69922 37.906L19.9615 37.8503L38.2239 37.7946L38.4478 37.5318C38.7525 37.1744 38.7293 36.7814 38.3842 36.4536L38.0966 36.1803H21.3322H4.56773L4.59832 21.4198L4.62891 6.65925L5.0666 6.27815L5.50441 5.89705H10.0236C13.7607 5.89705 14.6003 5.86888 14.8744 5.73416C15.4107 5.47063 15.5208 4.88701 15.1126 4.47073C14.8741 4.22746 14.8652 4.22702 10.1029 4.23548C6.76148 4.24138 5.22023 4.28313 4.95891 4.37465ZM16.7578 10.2046C16.0642 10.3148 14.9643 10.7288 14.3332 11.1171C12.4644 12.267 11.3307 14.2476 11.3307 16.3626C11.3307 18.0915 11.9686 19.5254 13.2878 20.7622C14.2615 21.6751 14.9891 22.0731 16.2404 22.3771C18.5351 22.9347 20.7689 22.3528 22.442 20.7617C23.7785 19.4907 24.375 18.1331 24.375 16.3626C24.375 14.592 23.7785 13.2345 22.442 11.9635C21.5264 11.0926 20.5584 10.5754 19.3297 10.3003C18.6238 10.1422 17.4304 10.0978 16.7578 10.2046ZM16.713 11.9146C15.9327 12.1008 14.8908 12.7032 14.3303 13.2923C12.1697 15.5627 12.866 19.0775 15.7441 20.4289C18.962 21.9398 22.6172 19.7773 22.6172 16.3626C22.6172 14.4796 21.5882 12.9744 19.7562 12.1776C18.9976 11.8476 17.5264 11.7204 16.713 11.9146ZM43.9998 12.6842C43.6084 12.8331 43.509 13.0305 43.3069 14.0608C42.8711 16.2824 41.9509 17.9502 40.4094 19.313C38.9227 20.6273 37.0738 21.462 34.587 21.9415C33.0855 22.231 30.0171 22.3364 28.2185 22.1601C26.7007 22.0115 26.4407 22.0652 26.2391 22.569C26.089 22.9442 26.284 23.4163 26.6558 23.5772C27.5791 23.9769 32.3713 24.0292 34.5117 23.6629C40.0488 22.7154 43.6234 19.8131 44.833 15.2827C45.2113 13.8663 45.2408 13.1991 44.9377 12.9223C44.6447 12.6549 44.304 12.5684 43.9998 12.6842ZM29.233 14.0752C28.7497 14.5342 28.8483 14.8439 29.7629 15.74L30.5805 16.5412L29.8211 17.2563C29.4033 17.6496 29.0306 18.064 28.9928 18.1772C28.8183 18.6997 29.4898 19.3496 30.0428 19.1936C30.1804 19.1548 30.6373 18.8024 31.058 18.4105L31.823 17.6979L32.5228 18.3761C33.3402 19.1681 33.6574 19.3208 34.113 19.1414C34.4687 19.0014 34.7459 18.4942 34.64 18.1772C34.6022 18.064 34.2295 17.6496 33.8118 17.2563L33.0523 16.5412L33.8841 15.7261C34.65 14.9757 34.7101 14.8826 34.6427 14.5513C34.6025 14.3534 34.4584 14.1039 34.3226 13.9967C33.8678 13.638 33.5488 13.7482 32.6521 14.5744L31.8135 15.3469L30.9792 14.5744C30.0449 13.7092 29.7169 13.6154 29.233 14.0752ZM18.5742 15.5161L17.0508 17.0131L16.3152 16.3538C15.5604 15.6773 15.2381 15.5656 14.7523 15.8127C14.4107 15.9864 14.2577 16.4494 14.4195 16.8204C14.4928 16.9885 15.0504 17.5554 15.6586 18.0803C16.4693 18.78 16.8496 19.0355 17.0834 19.0379C17.3438 19.0404 17.7628 18.6899 19.3652 17.1297C21.2077 15.3355 21.3281 15.1922 21.3281 14.7946C21.3281 14.3008 21.017 14.0261 20.4524 14.0217C20.1492 14.0195 19.8764 14.2364 18.5742 15.5161ZM30.61 25.6962C30.2687 25.8119 29.7941 26.0549 29.5553 26.2362C27.3854 27.8835 27.7261 31.0347 30.1991 32.1914C30.8589 32.5 31.1061 32.5556 31.8164 32.5556C33.4126 32.5556 34.8368 31.5848 35.3363 30.156C35.6032 29.3926 35.5266 28.1805 35.1697 27.5189C34.2942 25.8961 32.3326 25.112 30.61 25.6962ZM15.2429 26.6761C14.8275 27.1779 14.9355 27.4573 15.9146 28.4115L16.5682 29.0486L15.7841 29.8202C14.9051 30.6853 14.8096 30.9994 15.2877 31.4535C15.7757 31.9172 16.123 31.8226 17.0123 30.9841L17.8002 30.2414L18.6288 30.9841C19.2384 31.5305 19.543 31.7269 19.7808 31.7269C20.4831 31.7269 20.8971 31.1047 20.5779 30.529C20.4848 30.3612 20.1157 29.9511 19.7576 29.6175L19.1064 29.0113L19.9243 28.2099C20.3749 27.7683 20.7422 27.31 20.7422 27.1889C20.7422 26.7822 20.2969 26.3828 19.8434 26.3828C19.4945 26.3828 19.309 26.4941 18.6492 27.0992L17.868 27.8156L17.0914 27.0992C16.4334 26.4923 16.2514 26.3828 15.9002 26.3828C15.592 26.3828 15.4235 26.458 15.2429 26.6761ZM42.0789 26.6761C41.9453 26.8375 41.8359 27.0683 41.8359 27.1889C41.8359 27.31 42.2032 27.7683 42.6538 28.2099L43.4718 29.0113L42.8205 29.6175C42.4624 29.9511 42.0933 30.3612 42.0002 30.529C41.681 31.1047 42.095 31.7269 42.7973 31.7269C43.0351 31.7269 43.3397 31.5305 43.9493 30.9841L44.7779 30.2414L45.5658 30.9841C46.4551 31.8226 46.8025 31.9172 47.2904 31.4535C47.7681 30.9998 47.6729 30.6851 46.7975 29.8237L46.0168 29.0555L46.7325 28.3475C47.126 27.9582 47.4841 27.5027 47.5283 27.3355C47.6476 26.8839 47.2665 26.4482 46.713 26.4037C46.3209 26.3721 46.209 26.4352 45.4927 27.0923L44.704 27.8156L43.9274 27.0992C43.2694 26.4923 43.0874 26.3828 42.7362 26.3828C42.428 26.3828 42.2595 26.458 42.0789 26.6761ZM30.9845 27.3742C30.3337 27.655 29.97 28.1681 29.9066 28.8952C29.809 30.0141 30.6442 30.8839 31.8164 30.8839C33.8664 30.8839 34.5081 28.1767 32.6483 27.3742C32.3842 27.2603 32.0098 27.167 31.8164 27.167C31.623 27.167 31.2486 27.2603 30.9845 27.3742ZM16.3714 48.6225C15.6111 52.2197 14.9916 55.2019 14.9945 55.2495C14.9975 55.297 15.7746 55.3221 16.7214 55.3051L18.4429 55.2743L19.823 48.8168C20.5821 45.2652 21.2048 42.2968 21.2071 42.2202C21.21 42.115 20.7894 42.0812 19.4824 42.0815L17.7539 42.0819L16.3714 48.6225ZM22.5796 44.2243C22.3375 45.403 22.1414 46.405 22.1439 46.451C22.1464 46.497 25.6563 46.5345 29.9436 46.5345H37.7388L37.6764 46.284C37.6027 45.9886 36.7969 42.1717 36.7969 42.1179C36.7969 42.0976 33.697 42.0811 29.9082 42.0811H23.0197L22.5796 44.2243ZM38.6007 42.2759C38.66 42.4623 41.3672 55.1934 41.3672 55.2854C41.3672 55.3099 42.1593 55.33 43.1272 55.33H44.8873L44.8257 55.0795C44.7919 54.9416 44.2072 52.1987 43.5265 48.9839C42.8459 45.769 42.2353 42.9008 42.1699 42.6099L42.0509 42.0811H40.2949C38.677 42.0811 38.5438 42.0964 38.6007 42.2759ZM21.5659 49.0117C21.4826 49.4557 21.3894 49.8815 21.3587 49.958C21.3145 50.0686 23.0675 50.0972 29.8833 50.0972H38.4636L38.3828 49.6797C38.3384 49.4501 38.2489 49.0243 38.1843 48.7333L38.0665 48.2045H29.8918H21.7172L21.5659 49.0117Z" fill="#5F56AF"/>
</svg>
