<svg width="32" height="32" viewBox="0 0 32 32" fill="none" xmlns="http://www.w3.org/2000/svg">
<path fill-rule="evenodd" clip-rule="evenodd" d="M10.3755 0.0777375C9.1597 0.310875 8.26486 0.780965 7.32872 1.67826C7.05425 1.94134 6.70336 2.22943 6.54897 2.31846C6.01612 2.62581 5.59275 3.11953 5.32926 3.74086C5.22577 3.985 5.20575 4.23302 5.17767 5.61647L5.14542 7.21073L3.55473 7.24506C2.60556 7.2655 1.88014 7.30851 1.75607 7.35159C1.20101 7.5444 0.629551 8.02575 0.340607 8.54385C-0.00971855 9.17199 0.00101081 8.87365 1.27266e-05 18.0339C-0.000611073 23.431 0.021721 26.6007 0.0617065 26.8122C0.20649 27.5773 0.772963 28.3025 1.4962 28.6487L1.90167 28.8427L5.58208 28.874L9.2625 28.9052L9.27966 29.9212L9.29681 30.9372H8.26598H7.23515V31.4686V32H15.9683H24.7015V31.4686V30.9372H23.6707H22.6399L22.657 29.9212L22.6742 28.9052L26.3546 28.874L30.035 28.8427L30.4405 28.6487C31.1407 28.3136 31.7714 27.522 31.8588 26.8686C31.8771 26.732 31.9163 26.6052 31.946 26.5868C31.976 26.5682 32 22.7401 32 17.9881C32 13.1088 31.9765 9.43739 31.9454 9.45665C31.9154 9.47521 31.873 9.3785 31.8512 9.2417C31.7225 8.43569 30.8618 7.50708 30.0881 7.33984L29.8917 7.29739L29.8675 6.53508C29.8477 5.91137 29.8194 5.72713 29.7115 5.52187C29.4208 4.96844 28.974 4.69492 28.2633 4.63521L27.8366 4.59933L27.7978 4.22777C27.4831 1.20985 24.5265 -0.712143 21.6782 0.249543C20.0533 0.798158 18.7299 2.45563 18.5957 4.11017L18.5571 4.58488L18.1205 4.63221C17.8803 4.65822 17.6087 4.7053 17.5169 4.73674C17.3526 4.79308 17.3477 4.7867 17.2142 4.34556C16.5999 2.31596 14.9073 0.715694 12.8016 0.173581C12.1656 0.0098405 10.9746 -0.0371747 10.3755 0.0777375ZM10.1837 1.17403C9.29039 1.41623 8.43572 1.94509 7.85359 2.61581C7.63089 2.87245 7.42304 3.04063 7.22081 3.12779C6.82058 3.30034 6.39165 3.78169 6.26889 4.19594C6.19347 4.4504 6.17469 4.91186 6.17469 6.51038V8.50696L6.31505 8.46107C6.39221 8.43588 6.63069 8.36929 6.84497 8.31315L7.23453 8.21106L7.23484 7.1951L7.23515 6.17915H11.3522H15.4693V7.19823V8.21725L15.8592 8.31328C16.0736 8.36611 16.2982 8.43106 16.3582 8.45757C16.4605 8.50271 16.4673 8.41312 16.4663 7.04549C16.4655 6.00147 16.439 5.46129 16.3733 5.15044C15.9843 3.30991 14.6957 1.87732 12.8805 1.26737C12.1879 1.03461 10.8667 0.988907 10.1837 1.17403ZM22.2687 1.15121C20.9731 1.49288 19.9647 2.55929 19.6478 3.92267C19.5347 4.40945 19.6007 5.2948 19.7887 5.81153C19.999 6.38959 20.221 6.74646 20.6714 7.23061C21.17 7.76654 21.3167 7.98167 21.4579 8.38411L21.5726 8.71122L22.1078 8.72929L22.643 8.74735V7.41073V6.07418L22.4947 6.00647C22.2117 5.87724 21.9095 5.55313 21.7709 5.23028C21.5229 4.65259 21.6596 3.99707 22.1254 3.53023C22.79 2.86408 23.9773 3.01394 24.479 3.82726C24.6924 4.17325 24.7662 4.76188 24.6429 5.13612C24.55 5.41853 24.1365 5.88949 23.8927 5.99071L23.7035 6.0693V7.40586V8.74248H24.2356C24.687 8.74248 24.7733 8.72585 24.8043 8.63307C24.972 8.12959 25.2389 7.7002 25.6809 7.2233C26.4528 6.39028 26.7608 5.64648 26.7593 4.61864C26.758 3.60513 26.4365 2.84132 25.705 2.11321C24.943 1.35478 24.2073 1.04886 23.1642 1.05662C22.8604 1.05887 22.4574 1.10144 22.2687 1.15121ZM22.9024 4.21608C22.6887 4.36612 22.6277 4.58338 22.7303 4.82952C22.945 5.34463 23.7035 5.14706 23.7035 4.576C23.7035 4.42896 23.3554 4.11598 23.1919 4.11598C23.1112 4.11598 22.9809 4.161 22.9024 4.21608ZM17.6838 5.8296L17.5278 5.9859V9.26265C17.5278 12.4829 17.5301 12.5422 17.6572 12.7041L17.7864 12.8688H19.9633H22.1401L22.1576 13.6254L22.1752 14.3819L23.1191 13.6254L24.063 12.8688H26.3051H28.5473L28.683 12.7241L28.8186 12.5794V9.25877V5.93813L28.6509 5.80596C28.5125 5.6968 28.4135 5.67699 28.0823 5.69205L27.6812 5.71025L27.5741 6.05411C27.3629 6.73195 27.061 7.22955 26.4564 7.89608C26.1315 8.25432 25.8875 8.59693 25.887 8.69559C25.8869 8.72135 26.0833 8.74248 26.3234 8.74248H26.7601V9.2739V9.80532H26.2382H25.7163L25.5808 10.1779C25.1639 11.3239 23.8991 12.0457 22.7293 11.8054C21.719 11.5979 21.0377 10.9671 20.6872 9.91473C20.6563 9.82195 20.5699 9.80532 20.1185 9.80532H19.5864V9.2739V8.74248H20.023C20.2632 8.74248 20.4597 8.72703 20.4597 8.70809C20.4597 8.59349 20.2126 8.23706 19.8987 7.89895C19.3928 7.35384 19.1047 6.89638 18.8655 6.25817L18.66 5.71025L18.2499 5.69174C17.8826 5.67524 17.8235 5.68961 17.6838 5.8296ZM8.24783 9.35205C8.27328 11.6394 8.27684 11.6655 8.65866 12.3598C8.87949 12.7613 9.50965 13.3664 9.91911 13.5702C10.6373 13.9276 11.3067 14.0101 12.0344 13.8307C13.121 13.563 13.9447 12.7793 14.2848 11.69C14.3979 11.3278 14.4088 11.1137 14.4088 9.26733V7.24199H11.3166H8.22437L8.24783 9.35205ZM2.182 8.30071C1.90572 8.38492 1.6572 8.53897 1.45259 8.75279C1.03421 9.18993 1.05954 8.68496 1.05954 16.5868V23.7473H15.9683H30.8772V16.5868C30.8772 8.74929 30.9007 9.23733 30.5014 8.78162C30.3251 8.58036 30.0227 8.36736 29.9134 8.36736C29.8945 8.36736 29.8791 9.31891 29.8791 10.4819C29.8791 12.9039 29.864 12.9992 29.4063 13.4578C28.9495 13.9157 28.8504 13.9317 26.4672 13.9317H24.3875L22.7823 15.2201L21.1771 16.5086L21.1602 15.2236L21.1434 13.9388L19.3824 13.9196C17.8377 13.9028 17.5938 13.8866 17.3963 13.7881C16.889 13.5349 16.5769 13.0696 16.4942 12.4434C16.4582 12.1706 16.4325 12.1194 16.3497 12.1548C15.9817 12.3125 15.773 12.3635 15.486 12.3659C15.1599 12.3686 15.1593 12.369 15.0089 12.6666C14.8098 13.0604 14.3115 13.72 14.0882 13.8855C13.916 14.0131 13.9098 14.0363 13.9098 14.555V15.0924L15.828 15.6446C16.883 15.9484 17.9328 16.2612 18.1608 16.3399C19.2632 16.72 20.1102 17.619 20.4395 18.7583C20.5755 19.229 20.5845 19.366 20.5845 20.9722V22.6845H11.3154H2.04626L2.07203 20.887C2.09548 19.2565 2.11033 19.0518 2.23203 18.6832C2.54056 17.7487 3.23522 16.938 4.08091 16.5255C4.33523 16.4015 5.41204 16.0542 6.62695 15.7044L8.73227 15.0983V14.561V14.0236L8.44152 13.7432C8.14266 13.4549 7.75091 12.8985 7.61461 12.5687C7.54169 12.3923 7.51493 12.3809 7.12125 12.3574C6.35871 12.3119 5.71115 11.8872 5.36319 11.2044C5.21423 10.9121 5.20699 10.8443 5.18878 9.57087L5.16975 8.24232L3.75404 8.24769C2.97541 8.25063 2.26796 8.27451 2.182 8.30071ZM6.762 9.394C6.5229 9.49841 6.3211 9.74968 6.22896 10.0578C6.05948 10.6248 6.4206 11.175 7.06361 11.3295L7.23515 11.3707V10.3379C7.23515 9.30785 7.23478 9.30516 7.0948 9.3076C7.01763 9.30897 6.86786 9.34786 6.762 9.394ZM15.4686 10.1023C15.4682 10.5407 15.45 11.0081 15.4281 11.1409L15.3883 11.3823L15.6004 11.3373C16.3237 11.1838 16.708 10.3693 16.3255 9.80044C16.1514 9.54142 15.8129 9.30516 15.616 9.30516C15.4697 9.30516 15.4693 9.30729 15.4686 10.1023ZM0.0293937 18.058C0.0293937 22.7861 0.0368169 24.7203 0.045862 22.3563C0.0549071 19.9922 0.0549071 16.1238 0.045862 13.7597C0.0368169 11.3957 0.0293937 13.3299 0.0293937 18.058ZM21.7697 9.89029C21.7697 10.0394 22.286 10.5694 22.547 10.6882C22.7008 10.7582 22.9461 10.8035 23.1766 10.8043C23.7842 10.8065 24.2742 10.5045 24.5692 9.94599L24.6435 9.80532H23.2066C22.0371 9.80532 21.7697 9.82114 21.7697 9.89029ZM9.79273 14.9731V15.2777L10.5578 16.0427L11.3228 16.8076L12.0861 16.0408L12.8493 15.274V14.9713C12.8493 14.7085 12.8349 14.6741 12.7402 14.7107C12.4098 14.8383 11.8158 14.9301 11.321 14.9301C10.8263 14.9301 10.2323 14.8383 9.9019 14.7107C9.80714 14.6741 9.79273 14.7087 9.79273 14.9731ZM8.73227 16.166C8.54357 16.2203 8.37976 16.272 8.36822 16.281C8.33772 16.3048 8.98647 18.5803 9.0403 18.6384C9.07355 18.6743 10.2785 17.7735 10.5382 17.5187C10.5689 17.4885 9.15989 16.0542 9.10755 16.0624C9.08983 16.0652 8.92097 16.1118 8.73227 16.166ZM12.8647 16.7609C12.4789 17.1487 12.1632 17.4841 12.1632 17.5063C12.1632 17.559 13.5967 18.7058 13.6245 18.6753C13.6567 18.6399 14.2841 16.4078 14.2841 16.3287C14.2841 16.2907 14.1614 16.2288 14.0114 16.191C13.8615 16.1531 13.6999 16.1072 13.6525 16.0889C13.5998 16.0687 13.293 16.3304 12.8647 16.7609ZM6.01874 16.959C5.29825 17.1718 4.61052 17.3971 4.49043 17.4597C3.89539 17.7696 3.46329 18.2774 3.24701 18.9208C3.13461 19.2553 3.11808 19.457 3.11808 20.4943V21.6842H6.51011H9.90208L10.0658 21.0296C10.1557 20.6696 10.2294 20.3315 10.2294 20.2784C10.2294 20.1827 9.80359 19.496 9.74426 19.496C9.72729 19.496 9.45164 19.707 9.13175 19.9649C8.81181 20.2228 8.52791 20.4336 8.50084 20.4334C8.47371 20.4333 8.21564 19.5963 7.92732 18.5735C7.639 17.5506 7.38636 16.6819 7.3659 16.643C7.34039 16.5943 6.91864 16.6932 6.01874 16.959ZM14.7458 18.5316L14.1883 20.4928L13.5656 19.9947C13.2231 19.7208 12.9289 19.4967 12.9117 19.4968C12.8946 19.497 12.7742 19.6624 12.6443 19.8645L12.4081 20.232L12.5858 20.9425L12.7635 21.6529L16.1749 21.6691L19.5864 21.6852V20.6646C19.5864 19.1084 19.4496 18.6184 18.8326 17.9646C18.431 17.5389 18.0704 17.3657 16.8728 17.023C16.3239 16.866 15.7462 16.6999 15.589 16.654L15.3033 16.5705L14.7458 18.5316ZM21.6449 18.058V18.5582H25.762H29.8791V18.058V17.5578H25.762H21.6449V18.058ZM10.9468 18.5036C10.7752 18.643 10.6259 18.7814 10.615 18.811C10.6041 18.8407 10.7104 19.0351 10.8513 19.243C11.0878 19.5922 11.125 19.6209 11.3389 19.6197C11.5543 19.6185 11.589 19.5903 11.8337 19.2169L12.0969 18.8153L11.7402 18.5309C11.544 18.3745 11.3553 18.2473 11.321 18.2482C11.2867 18.2492 11.1183 18.3641 10.9468 18.5036ZM21.6449 20.1212V20.6213H22.144H22.643V20.1212V19.621H22.144H21.6449V20.1212ZM23.7035 20.1212V20.6213H26.7913H29.8791V20.1212V19.621H26.7913H23.7035V20.1212ZM11.1645 20.8831C11.1262 21.0314 11.0686 21.2512 11.0367 21.3716C11.0048 21.4919 10.9785 21.6115 10.9783 21.6373C10.9781 21.6631 11.1323 21.6842 11.321 21.6842C11.72 21.6842 11.7269 21.6642 11.5498 21.0285C11.4164 20.5497 11.2656 20.4928 11.1645 20.8831ZM21.6449 22.1843V22.6845H24.7327H27.8205V22.1843V21.6842H24.7327H21.6449V22.1843ZM28.8186 22.1843V22.6845H29.3489H29.8791V22.1843V21.6842H29.3489H28.8186V22.1843ZM1.05954 25.7187C1.05954 26.7994 1.10826 27.0034 1.45259 27.3634C1.56232 27.4781 1.76443 27.6328 1.90167 27.7072L2.15119 27.8424H15.9683H29.7855L30.035 27.7072C30.1723 27.6328 30.3744 27.4781 30.4841 27.3634C30.8284 27.0034 30.8772 26.7994 30.8772 25.7187V24.7477H15.9683H1.05954V25.7187ZM12.3503 26.3107V26.8108H12.8805H13.4108V26.3107V25.8105H12.8805H12.3503V26.3107ZM14.4088 26.3107V26.8108H15.9683H17.5278V26.3107V25.8105H15.9683H14.4088V26.3107ZM18.5259 26.3107V26.8108H19.0562H19.5864V26.3107V25.8105H19.0562H18.5259V26.3107ZM10.3337 28.9153C10.3106 28.9384 10.2918 29.4028 10.2918 29.9473V30.9372H15.9699H21.648L21.6309 29.9212L21.6137 28.9052L15.9947 28.8893C12.9042 28.8805 10.3568 28.8922 10.3337 28.9153Z" fill="#5f56af"/>
</svg>
