<svg width="45" height="45" viewBox="0 0 45 45" fill="none" xmlns="http://www.w3.org/2000/svg">
<mask id="path-1-inside-1_219_8101" fill="white">
<path fill-rule="evenodd" clip-rule="evenodd" d="M14.6703 0.34362C14.2726 0.67428 14.2546 0.79506 14.2006 3.49488L14.1444 6.30234L14.6689 6.84108C14.9572 7.13754 15.3175 7.38 15.4694 7.38C15.7968 7.38 15.8015 7.43616 15.5514 8.36172C15.4251 8.82954 14.9822 9.47754 14.2603 10.2517C12.5526 12.083 12.5086 12.2144 12.5065 15.48C12.5056 17.0145 12.5669 18.5699 12.6426 18.9364C12.7803 19.602 12.7796 19.6027 12.0435 19.8065C11.4614 19.9676 10.8738 20.4457 9.24612 22.0831C8.11273 23.2231 7.04573 24.4514 6.87494 24.8128C6.66192 25.2635 6.53387 26.0928 6.46713 27.452C6.38497 29.124 6.30772 29.5232 5.97331 30.006C5.58529 30.5658 5.56638 30.5719 5.08955 30.2908C4.79753 30.1187 4.42948 30.0481 4.17075 30.1147C3.93356 30.1759 2.89354 31.1081 1.85966 32.1862C-0.373658 34.5148 -0.419028 34.6774 0.792137 36.0077C1.61283 36.9092 2.01364 37.0782 2.39727 36.684C2.73238 36.3397 2.6483 36.0475 2.00278 35.3133L1.39789 34.6253L2.92473 33.0638L4.45156 31.5022L8.78593 35.9586L13.1205 40.415L11.5558 42.0152L9.99131 43.6154L7.14261 40.6192C5.57583 38.9713 4.14728 37.5752 3.9679 37.5167C3.58093 37.3903 3.13301 37.7242 3.13301 38.1389C3.13301 38.3009 4.57243 39.911 6.33172 41.7168C9.00297 44.4586 9.61381 45 10.0365 45C10.4447 45 10.912 44.626 12.4503 43.0684C13.4994 42.0061 14.4042 40.9471 14.4609 40.7153C14.5175 40.4833 14.4718 40.0856 14.359 39.8315C14.1822 39.433 14.2078 39.3107 14.5454 38.9417C14.7605 38.7065 15.2368 38.4343 15.6038 38.3369C15.9709 38.2396 16.6061 38.07 17.0157 37.96C17.5983 37.8036 18.141 37.3777 19.5119 36.0009C20.4754 35.0334 21.5268 34.1051 21.8483 33.9383C22.1699 33.7712 22.564 33.3977 22.7241 33.1085C22.975 32.6552 23.12 32.5822 23.7687 32.5811C25.3514 32.5787 26.2544 31.5877 26.2555 29.8521L26.2562 28.8342L26.9131 28.9177C27.7627 29.0255 28.6631 28.5253 29.0893 27.7088C29.3572 27.1958 29.4094 26.6697 29.4094 24.4879V21.8804L30.5089 23.0002C31.6169 24.1286 31.9668 24.3002 32.3523 23.904C32.7023 23.5444 32.6 23.2911 31.6914 22.2696C31.2123 21.731 30.8707 21.2384 30.9323 21.1752C30.994 21.1118 31.3992 21.06 31.8331 21.06C32.6058 21.06 32.6641 21.1032 34.7296 23.2056L36.8375 25.3514L36.9547 27.3906C37.0838 29.6338 37.2014 30.0674 37.9164 30.9406L38.3997 31.5308L35.0684 34.954L31.7369 38.3771L30.9274 37.7422C30.3963 37.3255 29.7702 37.0337 29.1067 36.8935C27.7257 36.6016 27.586 36.5128 26.0353 34.9472C24.8921 33.7928 24.6272 33.6056 24.3711 33.7703C24.2035 33.8782 24.0423 34.1719 24.0129 34.423C23.9688 34.7998 24.2352 35.1338 25.5317 36.3283C26.6302 37.3403 27.3195 37.8346 27.8188 37.9685C28.2119 38.0738 28.8337 38.2396 29.2009 38.3369C29.5679 38.4343 30.0442 38.7065 30.2593 38.9417C30.5969 39.3107 30.6225 39.433 30.4457 39.8315C30.3329 40.0856 30.2872 40.4833 30.3438 40.7153C30.4005 40.9471 31.3053 42.0061 32.3544 43.0684C33.9075 44.6413 34.3576 45 34.7769 45C35.218 45 35.9874 44.2823 40.1459 39.9915C44.2191 35.7889 45 34.9007 45 34.4714C45 34.1901 44.9599 34.0013 44.9108 34.0515C44.862 34.1019 43.9766 33.2617 42.9436 32.1845C41.9106 31.1074 40.8711 30.1759 40.6339 30.1147C40.3752 30.0481 40.0071 30.1187 39.7151 30.2908C39.2392 30.5716 39.219 30.5653 38.8415 30.0206C38.6028 29.6761 38.426 29.1013 38.3787 28.5167C38.3074 27.6322 38.3293 27.5666 38.717 27.5103C39.0479 27.4622 39.1316 27.3409 39.1316 26.91C39.1316 26.4956 39.0446 26.3572 38.7576 26.3151C38.4773 26.2741 38.3262 26.0483 38.1552 25.4151C37.9672 24.7194 37.5859 24.2107 35.9967 22.5367C34.9351 21.4184 33.8124 20.342 33.5018 20.1447C32.696 19.633 31.402 19.5118 30.5678 19.87C29.347 20.394 29.4094 20.6046 29.4094 15.9568C29.4094 11.4372 29.3528 11.0578 28.4816 9.7416C28.1866 9.2961 27.9237 8.62416 27.8768 8.19666C27.7997 7.49358 27.8307 7.42464 28.3161 7.218C29.1105 6.87978 29.2342 6.37812 29.2342 3.49326C29.2342 0.96246 29.2212 0.8703 28.8041 0.4419L28.3743 0H21.729C15.4501 0 15.0609 0.0189 14.6703 0.34362ZM15.5705 3.68298V5.92596L17.0847 5.97798C18.3006 6.01974 18.6371 6.0921 18.7918 6.345C19.1199 6.88086 18.7161 7.28226 17.7861 7.3449C16.9992 7.39782 16.9717 7.41906 16.968 7.9749C16.9621 8.85348 16.4164 9.89586 15.4421 10.89C13.8736 12.49 13.8201 12.652 13.8194 15.804C13.8187 18.783 13.941 19.3072 14.7671 19.8634C15.0094 20.0264 15.2499 20.16 15.3016 20.16C15.3531 20.16 15.3953 19.5687 15.3953 18.846C15.3953 18.0641 15.4804 17.4445 15.6055 17.316C15.9212 16.9916 16.411 17.0557 16.6154 17.4481C16.7307 17.6697 16.7967 20.156 16.7967 24.284V30.7717L17.2347 31.0666C17.6404 31.3396 17.7048 31.3396 18.1105 31.0666L18.5485 30.7717V24.7819C18.5485 18.7259 18.5847 18.36 19.1842 18.36C19.3024 18.36 19.5231 18.4873 19.6747 18.6428C19.915 18.8899 19.9499 19.7779 19.9499 25.6586V32.3917L20.3878 32.6866C20.7935 32.9596 20.858 32.9596 21.2637 32.6866L21.7016 32.3917V25.6586C21.7016 19.7779 21.7365 18.8899 21.9768 18.6428C22.3226 18.2876 22.482 18.2876 22.8278 18.6428C23.0668 18.8885 23.103 19.7042 23.103 24.8486V30.7717L23.541 31.0666C23.9467 31.3396 24.0111 31.3396 24.4169 31.0666L24.8548 30.7717V24.8486C24.8548 19.7042 24.8911 18.8885 25.13 18.6428C25.4758 18.2876 25.6352 18.2876 25.981 18.6428C26.2147 18.8831 26.2562 19.5316 26.2562 22.95C26.2562 26.3684 26.2977 27.0169 26.5314 27.2572C26.8514 27.5859 27.1939 27.6151 27.6692 27.3537C27.9962 27.1739 28.008 26.894 28.008 19.3001V11.4331L27.3815 10.4985C26.9714 9.88668 26.6854 9.18702 26.5531 8.47206L26.3511 7.38H23.7762C21.6689 7.38 21.1511 7.3287 20.9258 7.09722C20.5802 6.7419 20.5802 6.5781 20.9258 6.22278C21.1567 5.98572 21.7361 5.94 24.5169 5.94H27.8328V3.69V1.44H21.7016H15.5705V3.68298ZM17.2515 3.11508C16.8048 3.4506 16.9425 4.2129 17.4633 4.28886C18.2381 4.40172 18.6289 3.70836 18.0981 3.16278C17.7635 2.81916 17.6537 2.81286 17.2515 3.11508ZM13.0429 7.30278C12.8915 7.45848 12.7677 7.65522 12.7677 7.74C12.7677 7.93998 13.2738 8.46 13.4684 8.46C13.663 8.46 14.1691 7.93998 14.1691 7.74C14.1691 7.54002 13.663 7.02 13.4684 7.02C13.3859 7.02 13.1944 7.14726 13.0429 7.30278ZM29.2929 7.48242C29.1293 7.92036 29.4642 8.37 29.954 8.37C30.3026 8.37 30.3728 8.27946 30.3728 7.83C30.3728 7.37442 30.2973 7.281 29.89 7.23294C29.5614 7.19406 29.3708 7.27362 29.2929 7.48242ZM10.9676 8.66412C10.5403 8.90982 10.5778 9.66708 11.0243 9.8127C11.4533 9.95256 11.8918 9.62478 11.8918 9.16434C11.8918 8.72478 11.3614 8.43786 10.9676 8.66412ZM31.7217 8.856C31.3995 9.18702 31.4712 9.68526 31.873 9.90612C32.3288 10.1569 32.7377 9.85464 32.7377 9.2673C32.7377 8.7003 32.1174 8.44938 31.7217 8.856ZM8.83866 10.5428C8.68731 10.6985 8.56346 10.8952 8.56346 10.98C8.56346 11.0648 8.68731 11.2615 8.83866 11.4172C8.99018 11.5727 9.18165 11.7 9.26416 11.7C9.45878 11.7 9.96486 11.18 9.96486 10.98C9.96486 10.78 9.45878 10.26 9.26416 10.26C9.18165 10.26 8.99018 10.3873 8.83866 10.5428ZM33.6808 10.8796C33.4908 11.3882 33.6971 11.7891 34.1783 11.8463C34.5601 11.8917 34.6739 11.8148 34.7626 11.4516C34.8232 11.2034 34.8212 10.9148 34.7584 10.8103C34.5888 10.5284 33.7928 10.5795 33.6808 10.8796ZM7.05414 12.6796C6.86758 13.1791 7.06675 13.59 7.49576 13.59C8.04826 13.59 8.3613 13.0903 8.05019 12.7051C7.76255 12.3491 7.18307 12.3341 7.05414 12.6796ZM35.4326 13.0396C35.2441 13.5443 35.4489 13.9491 35.9212 14.0054C36.4623 14.0701 36.762 13.478 36.4094 13.0414C36.1379 12.7053 35.5579 12.7042 35.4326 13.0396ZM5.65274 15.0196C5.46617 15.5191 5.66535 15.93 6.09435 15.93C6.57661 15.93 6.91681 15.4809 6.75757 15.0545C6.62111 14.6893 5.78587 14.663 5.65274 15.0196ZM36.783 15.5498C36.5005 15.8998 36.8231 16.56 37.277 16.56C37.7575 16.56 38.1028 16.0596 37.8774 15.6899C37.6344 15.2915 37.0519 15.217 36.783 15.5498ZM4.58854 17.5745C4.44367 17.9626 4.75496 18.45 5.14753 18.45C5.5401 18.45 5.85139 17.9626 5.70652 17.5745C5.5627 17.1895 4.73236 17.1895 4.58854 17.5745ZM37.8528 18.036C37.3219 18.5816 38.0443 19.5592 38.6173 19.0705C39.0614 18.6917 38.8093 17.82 38.2557 17.82C38.1498 17.82 37.9684 17.9172 37.8528 18.036ZM4.0159 20.0614C3.76539 20.3713 3.91657 20.9851 4.27831 21.1277C4.88722 21.3678 5.37035 20.7562 5.05311 20.147C4.8394 19.7366 4.31317 19.6933 4.0159 20.0614ZM38.2563 21.0582C38.107 21.5417 38.4645 21.9937 38.941 21.9236C39.219 21.883 39.3068 21.7404 39.3068 21.33C39.3068 20.8789 39.2299 20.7808 38.8401 20.7346C38.4922 20.6932 38.3435 20.7756 38.2563 21.0582ZM10.075 23.2056L7.96716 25.3514L7.84997 27.3906C7.72086 29.6338 7.60332 30.0674 6.88825 30.9406L6.40494 31.5308L9.73626 34.954L13.0677 38.3771L13.8772 37.7422C14.408 37.3259 15.035 37.0334 15.698 36.893C17.0567 36.6053 17.4083 36.3922 18.6266 35.1178L19.6682 34.0283L19.3073 33.6191C19.109 33.3941 18.865 33.0523 18.7652 32.8595C18.6173 32.5742 18.425 32.5179 17.7278 32.5559C17.0703 32.5917 16.7608 32.5129 16.3929 32.2153C15.44 31.4453 15.3953 31.1818 15.3953 26.3392V21.8804L14.2786 23.0177C13.1434 24.1736 12.7258 24.3292 12.3597 23.7319C12.2124 23.4914 12.3534 23.2355 13.0865 22.4113C13.5866 21.8489 13.9513 21.3149 13.8969 21.2243C13.8426 21.134 13.4347 21.06 12.9905 21.06C12.1936 21.06 12.1551 21.0883 10.075 23.2056ZM3.86875 22.716C3.34567 23.2535 3.92586 24.0946 4.57365 23.7384C5.09007 23.4544 4.85726 22.5 4.27165 22.5C4.16567 22.5 3.98436 22.5972 3.86875 22.716ZM38.5535 23.616C38.0247 24.1594 38.5618 25.0214 39.208 24.6661C39.7666 24.359 39.576 23.4 38.9564 23.4C38.8505 23.4 38.6692 23.4972 38.5535 23.616ZM4.04392 25.416C3.52085 25.9535 4.10103 26.7946 4.74883 26.4384C5.26525 26.1544 5.03244 25.2 4.44683 25.2C4.34085 25.2 4.15954 25.2972 4.04392 25.416ZM4.43071 28.3518C4.29005 28.9276 4.52776 29.2111 5.08359 29.1303C5.41415 29.0822 5.49788 28.9607 5.49788 28.53C5.49788 28.0764 5.42168 27.981 5.02228 27.9337C4.63356 27.8876 4.52548 27.9639 4.43071 28.3518ZM35.9333 35.8664C33.5976 38.2678 31.6866 40.315 31.6866 40.4154C31.6866 40.6499 34.5282 43.56 34.7573 43.56C34.9861 43.56 43.4234 34.8802 43.4234 34.6446C43.4234 34.4101 40.5819 31.5 40.3528 31.5C40.2578 31.5 38.2691 33.4649 35.9333 35.8664ZM40.1031 33.9201C39.9875 34.0632 39.9189 34.3669 39.9502 34.5951C39.9949 34.9191 40.1186 35.01 40.5139 35.01C41.2188 35.01 41.497 34.5179 41.0678 34.0306C40.6838 33.5945 40.3931 33.5612 40.1031 33.9201ZM0.0140063 34.65C0.0175098 34.947 0.0567492 35.0467 0.101244 34.8716C0.145738 34.6964 0.14276 34.4534 0.0947623 34.3316C0.0467642 34.2097 0.0105028 34.353 0.0140063 34.65ZM28.0172 39.4985C27.8622 39.6904 27.8584 39.8527 28.002 40.1285C28.375 40.8445 29.389 40.385 29.1492 39.6086C29.0154 39.1752 28.332 39.1088 28.0172 39.4985ZM15.2198 39.9605C15.0695 40.2493 15.0719 40.4064 15.2294 40.6015C15.6952 41.1782 16.7114 40.6139 16.3307 39.9899C16.0515 39.532 15.4514 39.5161 15.2198 39.9605ZM9.71348 40.127C9.35385 40.5355 9.47682 41.1509 9.9491 41.305C10.7293 41.5593 11.2811 40.7394 10.7418 40.127C10.5736 39.9362 10.3424 39.78 10.2276 39.78C10.1129 39.78 9.88165 39.9362 9.71348 40.127ZM25.6555 40.2428C25.3264 40.581 25.305 40.8906 25.5905 41.184C25.9137 41.5161 26.3977 41.4409 26.6144 41.0251C26.7702 40.7259 26.7483 40.5803 26.5058 40.3051C26.1371 39.8864 26.0115 39.8772 25.6555 40.2428ZM17.7399 40.5796C17.6866 40.7221 17.6705 40.9855 17.7039 41.1646C17.7891 41.6189 18.782 41.6205 18.8671 41.1664C18.9927 40.4959 17.97 39.9632 17.7399 40.5796ZM23.1468 40.6192C22.8229 40.7534 22.8811 41.5352 23.2299 41.7359C23.8729 42.1056 24.4684 41.2549 23.9439 40.716C23.7249 40.491 23.517 40.4656 23.1468 40.6192ZM20.3675 40.9396C20.1974 41.3948 20.3799 41.8484 20.7553 41.9036C21.2245 41.9729 21.5874 41.5208 21.4415 41.0486C21.308 40.6161 20.5183 40.5358 20.3675 40.9396Z"/>
</mask>
<path fill-rule="evenodd" clip-rule="evenodd" d="M14.6703 0.34362C14.2726 0.67428 14.2546 0.79506 14.2006 3.49488L14.1444 6.30234L14.6689 6.84108C14.9572 7.13754 15.3175 7.38 15.4694 7.38C15.7968 7.38 15.8015 7.43616 15.5514 8.36172C15.4251 8.82954 14.9822 9.47754 14.2603 10.2517C12.5526 12.083 12.5086 12.2144 12.5065 15.48C12.5056 17.0145 12.5669 18.5699 12.6426 18.9364C12.7803 19.602 12.7796 19.6027 12.0435 19.8065C11.4614 19.9676 10.8738 20.4457 9.24612 22.0831C8.11273 23.2231 7.04573 24.4514 6.87494 24.8128C6.66192 25.2635 6.53387 26.0928 6.46713 27.452C6.38497 29.124 6.30772 29.5232 5.97331 30.006C5.58529 30.5658 5.56638 30.5719 5.08955 30.2908C4.79753 30.1187 4.42948 30.0481 4.17075 30.1147C3.93356 30.1759 2.89354 31.1081 1.85966 32.1862C-0.373658 34.5148 -0.419028 34.6774 0.792137 36.0077C1.61283 36.9092 2.01364 37.0782 2.39727 36.684C2.73238 36.3397 2.6483 36.0475 2.00278 35.3133L1.39789 34.6253L2.92473 33.0638L4.45156 31.5022L8.78593 35.9586L13.1205 40.415L11.5558 42.0152L9.99131 43.6154L7.14261 40.6192C5.57583 38.9713 4.14728 37.5752 3.9679 37.5167C3.58093 37.3903 3.13301 37.7242 3.13301 38.1389C3.13301 38.3009 4.57243 39.911 6.33172 41.7168C9.00297 44.4586 9.61381 45 10.0365 45C10.4447 45 10.912 44.626 12.4503 43.0684C13.4994 42.0061 14.4042 40.9471 14.4609 40.7153C14.5175 40.4833 14.4718 40.0856 14.359 39.8315C14.1822 39.433 14.2078 39.3107 14.5454 38.9417C14.7605 38.7065 15.2368 38.4343 15.6038 38.3369C15.9709 38.2396 16.6061 38.07 17.0157 37.96C17.5983 37.8036 18.141 37.3777 19.5119 36.0009C20.4754 35.0334 21.5268 34.1051 21.8483 33.9383C22.1699 33.7712 22.564 33.3977 22.7241 33.1085C22.975 32.6552 23.12 32.5822 23.7687 32.5811C25.3514 32.5787 26.2544 31.5877 26.2555 29.8521L26.2562 28.8342L26.9131 28.9177C27.7627 29.0255 28.6631 28.5253 29.0893 27.7088C29.3572 27.1958 29.4094 26.6697 29.4094 24.4879V21.8804L30.5089 23.0002C31.6169 24.1286 31.9668 24.3002 32.3523 23.904C32.7023 23.5444 32.6 23.2911 31.6914 22.2696C31.2123 21.731 30.8707 21.2384 30.9323 21.1752C30.994 21.1118 31.3992 21.06 31.8331 21.06C32.6058 21.06 32.6641 21.1032 34.7296 23.2056L36.8375 25.3514L36.9547 27.3906C37.0838 29.6338 37.2014 30.0674 37.9164 30.9406L38.3997 31.5308L35.0684 34.954L31.7369 38.3771L30.9274 37.7422C30.3963 37.3255 29.7702 37.0337 29.1067 36.8935C27.7257 36.6016 27.586 36.5128 26.0353 34.9472C24.8921 33.7928 24.6272 33.6056 24.3711 33.7703C24.2035 33.8782 24.0423 34.1719 24.0129 34.423C23.9688 34.7998 24.2352 35.1338 25.5317 36.3283C26.6302 37.3403 27.3195 37.8346 27.8188 37.9685C28.2119 38.0738 28.8337 38.2396 29.2009 38.3369C29.5679 38.4343 30.0442 38.7065 30.2593 38.9417C30.5969 39.3107 30.6225 39.433 30.4457 39.8315C30.3329 40.0856 30.2872 40.4833 30.3438 40.7153C30.4005 40.9471 31.3053 42.0061 32.3544 43.0684C33.9075 44.6413 34.3576 45 34.7769 45C35.218 45 35.9874 44.2823 40.1459 39.9915C44.2191 35.7889 45 34.9007 45 34.4714C45 34.1901 44.9599 34.0013 44.9108 34.0515C44.862 34.1019 43.9766 33.2617 42.9436 32.1845C41.9106 31.1074 40.8711 30.1759 40.6339 30.1147C40.3752 30.0481 40.0071 30.1187 39.7151 30.2908C39.2392 30.5716 39.219 30.5653 38.8415 30.0206C38.6028 29.6761 38.426 29.1013 38.3787 28.5167C38.3074 27.6322 38.3293 27.5666 38.717 27.5103C39.0479 27.4622 39.1316 27.3409 39.1316 26.91C39.1316 26.4956 39.0446 26.3572 38.7576 26.3151C38.4773 26.2741 38.3262 26.0483 38.1552 25.4151C37.9672 24.7194 37.5859 24.2107 35.9967 22.5367C34.9351 21.4184 33.8124 20.342 33.5018 20.1447C32.696 19.633 31.402 19.5118 30.5678 19.87C29.347 20.394 29.4094 20.6046 29.4094 15.9568C29.4094 11.4372 29.3528 11.0578 28.4816 9.7416C28.1866 9.2961 27.9237 8.62416 27.8768 8.19666C27.7997 7.49358 27.8307 7.42464 28.3161 7.218C29.1105 6.87978 29.2342 6.37812 29.2342 3.49326C29.2342 0.96246 29.2212 0.8703 28.8041 0.4419L28.3743 0H21.729C15.4501 0 15.0609 0.0189 14.6703 0.34362ZM15.5705 3.68298V5.92596L17.0847 5.97798C18.3006 6.01974 18.6371 6.0921 18.7918 6.345C19.1199 6.88086 18.7161 7.28226 17.7861 7.3449C16.9992 7.39782 16.9717 7.41906 16.968 7.9749C16.9621 8.85348 16.4164 9.89586 15.4421 10.89C13.8736 12.49 13.8201 12.652 13.8194 15.804C13.8187 18.783 13.941 19.3072 14.7671 19.8634C15.0094 20.0264 15.2499 20.16 15.3016 20.16C15.3531 20.16 15.3953 19.5687 15.3953 18.846C15.3953 18.0641 15.4804 17.4445 15.6055 17.316C15.9212 16.9916 16.411 17.0557 16.6154 17.4481C16.7307 17.6697 16.7967 20.156 16.7967 24.284V30.7717L17.2347 31.0666C17.6404 31.3396 17.7048 31.3396 18.1105 31.0666L18.5485 30.7717V24.7819C18.5485 18.7259 18.5847 18.36 19.1842 18.36C19.3024 18.36 19.5231 18.4873 19.6747 18.6428C19.915 18.8899 19.9499 19.7779 19.9499 25.6586V32.3917L20.3878 32.6866C20.7935 32.9596 20.858 32.9596 21.2637 32.6866L21.7016 32.3917V25.6586C21.7016 19.7779 21.7365 18.8899 21.9768 18.6428C22.3226 18.2876 22.482 18.2876 22.8278 18.6428C23.0668 18.8885 23.103 19.7042 23.103 24.8486V30.7717L23.541 31.0666C23.9467 31.3396 24.0111 31.3396 24.4169 31.0666L24.8548 30.7717V24.8486C24.8548 19.7042 24.8911 18.8885 25.13 18.6428C25.4758 18.2876 25.6352 18.2876 25.981 18.6428C26.2147 18.8831 26.2562 19.5316 26.2562 22.95C26.2562 26.3684 26.2977 27.0169 26.5314 27.2572C26.8514 27.5859 27.1939 27.6151 27.6692 27.3537C27.9962 27.1739 28.008 26.894 28.008 19.3001V11.4331L27.3815 10.4985C26.9714 9.88668 26.6854 9.18702 26.5531 8.47206L26.3511 7.38H23.7762C21.6689 7.38 21.1511 7.3287 20.9258 7.09722C20.5802 6.7419 20.5802 6.5781 20.9258 6.22278C21.1567 5.98572 21.7361 5.94 24.5169 5.94H27.8328V3.69V1.44H21.7016H15.5705V3.68298ZM17.2515 3.11508C16.8048 3.4506 16.9425 4.2129 17.4633 4.28886C18.2381 4.40172 18.6289 3.70836 18.0981 3.16278C17.7635 2.81916 17.6537 2.81286 17.2515 3.11508ZM13.0429 7.30278C12.8915 7.45848 12.7677 7.65522 12.7677 7.74C12.7677 7.93998 13.2738 8.46 13.4684 8.46C13.663 8.46 14.1691 7.93998 14.1691 7.74C14.1691 7.54002 13.663 7.02 13.4684 7.02C13.3859 7.02 13.1944 7.14726 13.0429 7.30278ZM29.2929 7.48242C29.1293 7.92036 29.4642 8.37 29.954 8.37C30.3026 8.37 30.3728 8.27946 30.3728 7.83C30.3728 7.37442 30.2973 7.281 29.89 7.23294C29.5614 7.19406 29.3708 7.27362 29.2929 7.48242ZM10.9676 8.66412C10.5403 8.90982 10.5778 9.66708 11.0243 9.8127C11.4533 9.95256 11.8918 9.62478 11.8918 9.16434C11.8918 8.72478 11.3614 8.43786 10.9676 8.66412ZM31.7217 8.856C31.3995 9.18702 31.4712 9.68526 31.873 9.90612C32.3288 10.1569 32.7377 9.85464 32.7377 9.2673C32.7377 8.7003 32.1174 8.44938 31.7217 8.856ZM8.83866 10.5428C8.68731 10.6985 8.56346 10.8952 8.56346 10.98C8.56346 11.0648 8.68731 11.2615 8.83866 11.4172C8.99018 11.5727 9.18165 11.7 9.26416 11.7C9.45878 11.7 9.96486 11.18 9.96486 10.98C9.96486 10.78 9.45878 10.26 9.26416 10.26C9.18165 10.26 8.99018 10.3873 8.83866 10.5428ZM33.6808 10.8796C33.4908 11.3882 33.6971 11.7891 34.1783 11.8463C34.5601 11.8917 34.6739 11.8148 34.7626 11.4516C34.8232 11.2034 34.8212 10.9148 34.7584 10.8103C34.5888 10.5284 33.7928 10.5795 33.6808 10.8796ZM7.05414 12.6796C6.86758 13.1791 7.06675 13.59 7.49576 13.59C8.04826 13.59 8.3613 13.0903 8.05019 12.7051C7.76255 12.3491 7.18307 12.3341 7.05414 12.6796ZM35.4326 13.0396C35.2441 13.5443 35.4489 13.9491 35.9212 14.0054C36.4623 14.0701 36.762 13.478 36.4094 13.0414C36.1379 12.7053 35.5579 12.7042 35.4326 13.0396ZM5.65274 15.0196C5.46617 15.5191 5.66535 15.93 6.09435 15.93C6.57661 15.93 6.91681 15.4809 6.75757 15.0545C6.62111 14.6893 5.78587 14.663 5.65274 15.0196ZM36.783 15.5498C36.5005 15.8998 36.8231 16.56 37.277 16.56C37.7575 16.56 38.1028 16.0596 37.8774 15.6899C37.6344 15.2915 37.0519 15.217 36.783 15.5498ZM4.58854 17.5745C4.44367 17.9626 4.75496 18.45 5.14753 18.45C5.5401 18.45 5.85139 17.9626 5.70652 17.5745C5.5627 17.1895 4.73236 17.1895 4.58854 17.5745ZM37.8528 18.036C37.3219 18.5816 38.0443 19.5592 38.6173 19.0705C39.0614 18.6917 38.8093 17.82 38.2557 17.82C38.1498 17.82 37.9684 17.9172 37.8528 18.036ZM4.0159 20.0614C3.76539 20.3713 3.91657 20.9851 4.27831 21.1277C4.88722 21.3678 5.37035 20.7562 5.05311 20.147C4.8394 19.7366 4.31317 19.6933 4.0159 20.0614ZM38.2563 21.0582C38.107 21.5417 38.4645 21.9937 38.941 21.9236C39.219 21.883 39.3068 21.7404 39.3068 21.33C39.3068 20.8789 39.2299 20.7808 38.8401 20.7346C38.4922 20.6932 38.3435 20.7756 38.2563 21.0582ZM10.075 23.2056L7.96716 25.3514L7.84997 27.3906C7.72086 29.6338 7.60332 30.0674 6.88825 30.9406L6.40494 31.5308L9.73626 34.954L13.0677 38.3771L13.8772 37.7422C14.408 37.3259 15.035 37.0334 15.698 36.893C17.0567 36.6053 17.4083 36.3922 18.6266 35.1178L19.6682 34.0283L19.3073 33.6191C19.109 33.3941 18.865 33.0523 18.7652 32.8595C18.6173 32.5742 18.425 32.5179 17.7278 32.5559C17.0703 32.5917 16.7608 32.5129 16.3929 32.2153C15.44 31.4453 15.3953 31.1818 15.3953 26.3392V21.8804L14.2786 23.0177C13.1434 24.1736 12.7258 24.3292 12.3597 23.7319C12.2124 23.4914 12.3534 23.2355 13.0865 22.4113C13.5866 21.8489 13.9513 21.3149 13.8969 21.2243C13.8426 21.134 13.4347 21.06 12.9905 21.06C12.1936 21.06 12.1551 21.0883 10.075 23.2056ZM3.86875 22.716C3.34567 23.2535 3.92586 24.0946 4.57365 23.7384C5.09007 23.4544 4.85726 22.5 4.27165 22.5C4.16567 22.5 3.98436 22.5972 3.86875 22.716ZM38.5535 23.616C38.0247 24.1594 38.5618 25.0214 39.208 24.6661C39.7666 24.359 39.576 23.4 38.9564 23.4C38.8505 23.4 38.6692 23.4972 38.5535 23.616ZM4.04392 25.416C3.52085 25.9535 4.10103 26.7946 4.74883 26.4384C5.26525 26.1544 5.03244 25.2 4.44683 25.2C4.34085 25.2 4.15954 25.2972 4.04392 25.416ZM4.43071 28.3518C4.29005 28.9276 4.52776 29.2111 5.08359 29.1303C5.41415 29.0822 5.49788 28.9607 5.49788 28.53C5.49788 28.0764 5.42168 27.981 5.02228 27.9337C4.63356 27.8876 4.52548 27.9639 4.43071 28.3518ZM35.9333 35.8664C33.5976 38.2678 31.6866 40.315 31.6866 40.4154C31.6866 40.6499 34.5282 43.56 34.7573 43.56C34.9861 43.56 43.4234 34.8802 43.4234 34.6446C43.4234 34.4101 40.5819 31.5 40.3528 31.5C40.2578 31.5 38.2691 33.4649 35.9333 35.8664ZM40.1031 33.9201C39.9875 34.0632 39.9189 34.3669 39.9502 34.5951C39.9949 34.9191 40.1186 35.01 40.5139 35.01C41.2188 35.01 41.497 34.5179 41.0678 34.0306C40.6838 33.5945 40.3931 33.5612 40.1031 33.9201ZM0.0140063 34.65C0.0175098 34.947 0.0567492 35.0467 0.101244 34.8716C0.145738 34.6964 0.14276 34.4534 0.0947623 34.3316C0.0467642 34.2097 0.0105028 34.353 0.0140063 34.65ZM28.0172 39.4985C27.8622 39.6904 27.8584 39.8527 28.002 40.1285C28.375 40.8445 29.389 40.385 29.1492 39.6086C29.0154 39.1752 28.332 39.1088 28.0172 39.4985ZM15.2198 39.9605C15.0695 40.2493 15.0719 40.4064 15.2294 40.6015C15.6952 41.1782 16.7114 40.6139 16.3307 39.9899C16.0515 39.532 15.4514 39.5161 15.2198 39.9605ZM9.71348 40.127C9.35385 40.5355 9.47682 41.1509 9.9491 41.305C10.7293 41.5593 11.2811 40.7394 10.7418 40.127C10.5736 39.9362 10.3424 39.78 10.2276 39.78C10.1129 39.78 9.88165 39.9362 9.71348 40.127ZM25.6555 40.2428C25.3264 40.581 25.305 40.8906 25.5905 41.184C25.9137 41.5161 26.3977 41.4409 26.6144 41.0251C26.7702 40.7259 26.7483 40.5803 26.5058 40.3051C26.1371 39.8864 26.0115 39.8772 25.6555 40.2428ZM17.7399 40.5796C17.6866 40.7221 17.6705 40.9855 17.7039 41.1646C17.7891 41.6189 18.782 41.6205 18.8671 41.1664C18.9927 40.4959 17.97 39.9632 17.7399 40.5796ZM23.1468 40.6192C22.8229 40.7534 22.8811 41.5352 23.2299 41.7359C23.8729 42.1056 24.4684 41.2549 23.9439 40.716C23.7249 40.491 23.517 40.4656 23.1468 40.6192ZM20.3675 40.9396C20.1974 41.3948 20.3799 41.8484 20.7553 41.9036C21.2245 41.9729 21.5874 41.5208 21.4415 41.0486C21.308 40.6161 20.5183 40.5358 20.3675 40.9396Z" fill="#5f56af" stroke="#5f56af" stroke-width="2" mask="url(#path-1-inside-1_219_8101)"/>
</svg>
