<svg width="60" height="57" viewBox="0 0 60 57" fill="none" xmlns="http://www.w3.org/2000/svg">
<path fill-rule="evenodd" clip-rule="evenodd" d="M12.1294 0.239754C11.6783 0.361459 11.2902 0.478037 11.2673 0.498767C11.2158 0.545131 13.1368 7.74256 13.245 7.90918C13.324 8.03055 14.8329 7.7449 15.0391 7.56947C15.0924 7.52411 14.7082 5.88856 14.185 3.93482C13.0803 -0.190672 13.1331 -0.0112351 13.0298 0.0054826C12.9858 0.0126155 12.5806 0.118049 12.1294 0.239754ZM41.6304 0.388319C41.2159 0.664495 41.1498 0.875585 40.8398 2.91192C40.5311 4.94033 40.388 5.30712 39.8336 5.49135C39.2827 5.67446 38.957 5.40876 37.6177 3.68372C36.2749 1.95432 35.9952 1.73031 35.3793 1.89113C35.2111 1.93504 34.3937 2.45909 33.5628 3.05569L32.0522 4.14033L31.0264 4.07982C29.7774 4.00603 27.5438 4.15683 26.2948 4.39912C20.3065 5.56089 15.1221 9.62787 12.7144 15.0527C12.0769 16.4887 11.5756 18.2921 11.3625 19.9145C11.219 21.0087 11.2007 21.0569 10.9295 21.0569C10.7739 21.0569 10.5025 21.1949 10.3264 21.3634C10.056 21.6224 9.95341 21.9162 9.665 23.2581C9.47714 24.1316 9.28764 24.8462 9.24369 24.8462C9.19975 24.8462 8.49893 24.4199 7.68632 23.8989C6.87359 23.3779 6.12754 22.9516 6.02839 22.9516C5.64072 22.9516 5.15496 23.3256 3.60368 24.8183C2.25467 26.1162 1.99228 26.4231 1.99228 26.7026C1.99228 26.9389 2.28362 27.4408 2.98841 28.4193C3.53629 29.1797 3.98455 29.8293 3.98455 29.8628C3.98455 29.8963 3.23311 30.0698 2.31456 30.2484C0.903556 30.5227 0.594636 30.6202 0.32228 30.8774L0 31.1818V33.3723V35.5627L0.32228 35.8673C0.59405 36.1242 0.901564 36.222 2.28526 36.4908C3.18764 36.6662 3.94881 36.8271 3.97682 36.8482C4.00471 36.8694 3.56325 37.5353 2.9958 38.3279C2.07103 39.6192 1.97142 39.8074 2.03681 40.1386C2.14053 40.6644 5.27391 43.6438 5.83456 43.7498C6.18075 43.8151 6.37329 43.723 7.73695 42.84C8.57148 42.2995 9.27311 41.8792 9.2962 41.9057C9.31928 41.9323 9.48898 42.6562 9.67344 43.5144C9.95529 44.8264 10.0595 45.1235 10.3276 45.3812L10.6465 45.6877H12.9498H15.2531L15.5732 45.3812C15.8436 45.1222 15.9462 44.8284 16.2346 43.4865C16.4225 42.6131 16.6069 41.8983 16.6446 41.8983C16.6825 41.8983 17.3666 42.3246 18.1649 42.8457C18.9632 43.3667 19.7151 43.793 19.8359 43.793C20.1996 43.793 20.5291 43.5807 21.3458 42.8201L22.1242 42.0953L22.1704 43.8635C22.2098 45.3756 22.253 45.7084 22.4684 46.1594C22.797 46.8472 23.2356 47.3863 23.7271 47.7066L24.1228 47.9645L24.1616 51.0333L24.2003 54.1023L24.5286 54.771C24.9549 55.6397 25.6379 56.2927 26.5304 56.6849L27.2473 57H30.0599C32.4856 57 32.9574 56.9719 33.4892 56.7956C34.3096 56.5237 35.2866 55.6664 35.7093 54.8479L36.0368 54.2137L36.0754 51.0931L36.114 47.9724L36.5769 47.6647C36.8315 47.4954 37.1983 47.1193 37.392 46.8288C38.0034 45.9121 38.0876 45.437 38.0876 42.9046C38.0876 39.0451 38.3545 38.5226 41.4069 36.4051C42.0952 35.9278 42.6582 35.4895 42.6582 35.4312C42.6582 35.2807 41.5704 34.1168 41.4194 34.1059C41.3504 34.1008 41.0867 34.2624 40.8335 34.465C40.5801 34.6675 39.915 35.1449 39.3555 35.5259C37.7737 36.6027 36.9477 37.6142 36.4271 39.112C36.2065 39.7467 36.1667 40.1827 36.106 42.6318L36.0368 45.4271L35.7084 45.8361C35.0908 46.6056 35.2123 46.5902 30.029 46.5551L25.3722 46.5236L24.9896 46.264C24.246 45.7596 24.2074 45.5907 24.1329 42.5113C24.0566 39.3583 23.9455 38.8258 23.1081 37.5994C22.5242 36.7442 21.9911 36.2553 20.6259 35.3236C19.1679 34.3283 18.4254 33.7125 17.4434 32.6845C15.3861 30.5305 13.9727 27.7707 13.3431 24.6791C13.1004 23.4873 13.137 20.1301 13.4056 18.9393C13.7282 17.5094 14.1462 16.3301 14.7724 15.0842C17.4298 9.79572 22.6512 6.44136 28.9759 5.95944C29.8444 5.89324 29.8841 5.90049 29.8841 6.12506C29.8841 6.4612 30.0056 6.64587 31.3623 8.37348C32.6206 9.97571 32.7909 10.3651 32.4293 10.813C32.0666 11.2623 31.8603 11.2731 29.5799 10.9616C27.2309 10.6406 27.0209 10.656 26.6636 11.1746C26.4358 11.5052 25.5957 17.1006 25.7093 17.5308C25.7516 17.6909 25.9066 17.897 26.0539 17.9889C26.2014 18.0807 27.2188 18.2799 28.3182 18.4319C29.4163 18.5838 30.4519 18.7578 30.6196 18.8184C31.174 19.0188 31.3591 19.7762 30.9656 20.2334C30.8542 20.3628 30.0188 20.9984 29.109 21.6459C27.4462 22.8295 27.3059 22.9704 27.3059 23.4583C27.3059 23.7588 31.0104 28.5449 31.3941 28.7401C31.8979 28.9966 32.204 28.8667 33.8455 27.7008C34.7419 27.0641 35.594 26.4828 35.7391 26.4089C36.0979 26.2263 36.7499 26.3585 36.9709 26.6587C37.2055 26.9772 37.1974 27.3066 36.9089 29.1838C36.7764 30.0468 36.684 30.9611 36.7038 31.2156C36.7625 31.9688 36.9394 32.0335 40.1552 32.4789C43.467 32.9376 43.8594 32.9543 44.1787 32.6506C44.4647 32.3787 44.4714 32.3513 44.8212 30.0287C45.0829 28.2917 45.132 28.1132 45.4124 27.8833C45.7171 27.6335 46.0969 27.5687 46.4662 27.7034C46.5731 27.7424 47.2163 28.4822 47.8954 29.3473C48.5746 30.2125 49.2357 31.0082 49.3644 31.1154C49.9105 31.5704 50.2144 31.4318 52.9709 29.4691C55.5755 27.6147 55.875 27.3249 55.7352 26.7953C55.7015 26.6671 55.0815 25.8129 54.3576 24.8968C52.8763 23.0224 52.7597 22.7074 53.3644 22.2126C53.7603 21.8889 53.7377 21.8888 56.2253 22.2251C58.2915 22.5045 58.6192 22.4924 58.9402 22.1246C59.0778 21.9669 59.9922 16.5555 60 15.8528C60.0015 15.7183 59.8841 15.4777 59.739 15.3184C59.4959 15.0511 59.3006 15.0041 57.2361 14.7155C56.0047 14.5434 54.9313 14.3641 54.851 14.3169C54.7707 14.2697 54.6296 14.0594 54.5374 13.8495C54.278 13.2591 54.4915 12.9952 56.2533 11.7278C58.1728 10.3473 58.4093 10.1088 58.313 9.65072C58.2494 9.34857 55.2573 5.40464 54.5158 4.64565C54.2961 4.42075 54.104 4.33916 53.7945 4.33916C53.4414 4.33916 53.0862 4.54 51.6191 5.56925C50.6546 6.24576 49.7579 6.82531 49.6266 6.85719C49.2262 6.95393 48.753 6.70929 48.5841 6.3181C48.4479 6.00291 48.4636 5.7206 48.7037 4.17199C49.0498 1.93772 49.0511 1.74814 48.7229 1.38525C48.473 1.10896 48.2933 1.07085 45.295 0.65792C43.5547 0.418187 42.0766 0.220584 42.0104 0.218801C41.9441 0.216906 41.7731 0.29325 41.6304 0.388319ZM42.9457 2.37829C42.9224 2.44538 42.8191 3.07697 42.716 3.78191C42.4728 5.44777 42.276 6.00157 41.7456 6.51314C40.6748 7.54585 39.0474 7.71235 37.8809 6.90879C37.6359 6.73994 36.9966 6.04259 36.4602 5.35906C35.9238 4.67552 35.4628 4.11626 35.4357 4.11626C35.3381 4.11626 32.4029 6.24978 32.3664 6.3473C32.3458 6.40224 32.7326 6.95404 33.2259 7.57348C34.4097 9.05991 34.6166 9.51296 34.5453 10.461C34.4834 11.2842 34.2823 11.7303 33.7414 12.2448C32.8525 13.09 32.1107 13.226 30.0018 12.9302C29.1319 12.8081 28.3882 12.7436 28.3493 12.7867C28.2718 12.8726 27.7399 16.3842 27.7976 16.4282C27.8172 16.443 28.5919 16.5619 29.519 16.6924C30.804 16.8732 31.3255 16.9968 31.7125 17.2125C33.1987 18.0408 33.6268 19.923 32.6378 21.2802C32.4735 21.5058 31.7603 22.1061 31.053 22.6144C30.3457 23.1226 29.767 23.5735 29.767 23.616C29.767 23.6587 30.2871 24.3535 30.9227 25.1601L32.0785 26.6266L33.3016 25.7509C34.7968 24.6804 35.1346 24.5094 35.9035 24.4345C37.1306 24.315 38.2328 24.8878 38.8151 25.9476C39.2065 26.6601 39.2266 27.1238 38.9478 28.9985C38.8407 29.719 38.7747 30.328 38.8012 30.3515C38.906 30.4449 42.5431 30.8998 42.6176 30.829C42.6614 30.7873 42.7947 30.1137 42.9138 29.3322C43.1812 27.5765 43.2624 27.3367 43.7875 26.7533C44.4277 26.0421 45.0056 25.7993 46.0659 25.7961C47.3331 25.7925 47.807 26.093 49.1166 27.7314C49.6717 28.4256 50.1648 28.9951 50.2128 28.9971C50.2941 29.0004 52.2614 27.6302 53.0194 27.0424L53.3605 26.7777L52.4408 25.6228C51.2531 24.1312 51.0557 23.7409 51.0622 22.8958C51.068 22.1097 51.2736 21.5875 51.8027 21.0143C52.6467 20.1002 53.5457 19.9289 55.8114 20.2503L57.3041 20.4621L57.3663 20.1186C57.5182 19.2816 57.8784 16.7705 57.8504 16.7439C57.8334 16.7278 57.1093 16.6153 56.2413 16.494C55.3732 16.3727 54.4732 16.198 54.2414 16.1059C53.157 15.675 52.4735 14.6751 52.4804 13.5298C52.4879 12.2958 52.8585 11.788 54.7145 10.469C55.3664 10.0057 55.8685 9.57114 55.8409 9.49402C55.8051 9.39349 54.0854 7.15721 53.6011 6.58146C53.5815 6.55805 52.9967 6.94066 52.3015 7.43161C51.6063 7.92255 50.8785 8.40068 50.6843 8.49419C49.316 9.15298 47.5238 8.56039 46.805 7.21171C46.4462 6.5381 46.4254 5.89915 46.7038 4.1001C46.8085 3.42325 46.8731 2.84939 46.8473 2.82487C46.8215 2.80035 45.9427 2.66238 44.8944 2.51827C43.5719 2.3366 42.9753 2.29369 42.9457 2.37829ZM3.2146 5.96034C2.91353 6.36156 2.68676 6.70439 2.71055 6.72211C3.12928 7.03272 9.45218 11.2842 9.54675 11.3187C9.66524 11.3619 10.8513 9.93459 10.7603 9.85835C10.488 9.63043 3.92361 5.23077 3.85576 5.23077C3.80419 5.23077 3.51567 5.55911 3.2146 5.96034ZM41.1774 9.18652C38.7546 9.68761 36.7608 11.1777 35.6974 13.282C35.067 14.5295 34.8836 15.3138 34.8959 16.7103C34.9137 18.7384 35.7052 20.4893 37.2728 21.968C38.0062 22.6599 38.3892 22.9189 39.2762 23.3226C39.8794 23.5971 40.6629 23.8883 41.0175 23.9698C41.9195 24.1772 43.8362 24.1493 44.7676 23.9155C50.2689 22.5341 52.5307 16.3932 49.151 12.0146C48.1474 10.7143 46.1813 9.52545 44.4746 9.18675C43.4719 8.98781 42.1388 8.98769 41.1774 9.18652ZM21.9419 11.3039C19.1297 13.2498 17.1977 16.1264 16.4747 19.4435C15.3837 24.4501 17.621 29.7925 22.0694 32.8021C22.5733 33.143 23.7863 33.7961 24.7648 34.2535C26.6288 35.1245 27.2845 35.6028 28.0329 36.6373C28.4967 37.2784 28.9057 38.2541 29.0003 38.9449C29.1567 40.0871 29.0656 40.0036 30.1556 40.0036H31.1258L31.0358 39.1956C30.9303 38.2485 30.8202 37.8104 30.4964 37.0502C29.6355 35.0288 28.3398 33.7954 25.8996 32.6744C23.933 31.7708 23.0043 31.2074 21.978 30.2953C19.9435 28.4871 18.6427 26.0462 18.2721 23.3416C17.7458 19.4998 19.6099 15.3196 22.8819 13.0042C23.317 12.6964 23.6729 12.4041 23.6729 12.3548C23.6729 12.2733 22.7389 10.8034 22.6871 10.8034C22.675 10.8034 22.3396 11.0286 21.9419 11.3039ZM41.3108 11.0949C39.7525 11.4531 38.1607 12.727 37.4275 14.2026C35.048 18.9915 40.4528 24.0215 45.4301 21.6505C47.4639 20.6816 48.7543 18.7215 48.7508 16.6064C48.7482 15.0581 48.1475 13.6833 46.9943 12.5866C45.5044 11.1697 43.3945 10.6159 41.3108 11.0949ZM4.95995 15.411C2.88599 15.9111 1.15669 16.3516 1.11696 16.39C1.03727 16.467 1.38955 17.9396 1.5214 18.0806C1.58374 18.1472 8.57499 16.5759 9.33475 16.3245C9.51171 16.2659 9.05115 14.4769 8.86282 14.4915C8.79028 14.4972 7.03391 14.911 4.95995 15.411ZM11.2544 25.169C10.9709 26.2857 9.99068 26.9723 8.94579 26.7858C8.71129 26.744 7.97145 26.3566 7.30146 25.9251L6.08336 25.1405L5.2098 25.9658C4.72931 26.4197 4.33613 26.8247 4.33613 26.866C4.33613 26.9072 4.68572 27.4278 5.113 28.0228C5.54029 28.618 5.93382 29.2877 5.98738 29.511C6.16903 30.2676 5.69006 31.2113 4.93651 31.5819C4.76646 31.6656 4.03448 31.8464 3.30976 31.9837L1.99228 32.2332V33.3726V34.512L2.98525 34.6996C3.53137 34.8027 4.23839 34.9606 4.55634 35.0504C5.56572 35.3354 6.20711 36.3178 5.98585 37.2398C5.93148 37.4666 5.52716 38.158 5.08734 38.7762L4.28785 39.9002L5.1873 40.7556L6.08676 41.611L7.25341 40.8532C7.89504 40.4364 8.62187 40.0517 8.86844 39.9982C9.46449 39.8688 10.0962 40.0388 10.6078 40.4659C11.0444 40.8305 11.1891 41.1974 11.5572 42.8735L11.7592 43.793H12.9462H14.1331L14.4029 42.5392C14.5512 41.8496 14.7755 41.1089 14.9014 40.8934C15.3226 40.1722 16.283 39.7781 17.0856 39.997C17.2968 40.0546 17.9972 40.4411 18.642 40.8558L19.8141 41.61L20.8809 40.5955L21.9477 39.581L21.6723 39.04C21.3158 38.3396 20.643 37.6522 19.69 37.015C19.2701 36.7342 18.7747 36.3868 18.5892 36.2429L18.2517 35.9815L17.8673 36.5242C15.3064 40.1407 9.63629 39.7749 7.56632 35.8599C5.89831 32.705 7.74199 28.9066 11.4263 27.9074C11.813 27.8025 12.1418 27.707 12.1568 27.6951C12.1718 27.6832 12.1289 27.5012 12.0614 27.2908C11.9939 27.0803 11.8191 26.3815 11.6729 25.7379L11.407 24.5676L11.2544 25.169ZM11.8365 29.7429C10.8144 30.0397 9.80845 30.8492 9.37694 31.7224C9.07236 32.3386 8.91391 33.4225 9.03697 34.0489C9.25272 35.1473 10.1068 36.2186 11.1851 36.7438C12.0351 37.1577 13.3947 37.2201 14.3212 36.8878C15.1195 36.6014 16.0286 35.8568 16.4062 35.18L16.6799 34.6892L15.8878 33.8078C14.9788 32.7962 13.8505 31.2316 13.3493 30.2874C13.0198 29.6664 12.9864 29.6391 12.5673 29.6482C12.3264 29.6535 11.9976 29.6961 11.8365 29.7429ZM49.1038 36.27V37.2174H52.5609H56.0181V36.27V35.3227H52.5609H49.1038V36.27ZM48.0524 40.9573C47.7065 41.3628 47.4758 41.7272 47.5341 41.7763C47.5917 41.825 48.927 42.8841 50.5014 44.13L53.3639 46.3952L53.9851 45.7349C54.3267 45.3718 54.6074 45.0417 54.609 45.0014C54.6105 44.961 53.3594 43.9378 51.8285 42.7275C50.2977 41.5173 48.962 40.4596 48.8603 40.377C48.6992 40.2462 48.596 40.3203 48.0524 40.9573ZM29.181 43.2915V44.6846H30.1771H31.1733V43.2915V41.8983H30.1771H29.181V43.2915ZM43.1269 46.1937V49.486L44.0938 49.4536L45.0606 49.4213L45.0917 46.1613L45.1227 42.9014H44.1248H43.1269V46.1937ZM26.2121 48.5483C26.1691 48.5891 26.134 49.0154 26.134 49.4956V50.3686H30.1185H34.1031V49.4213V48.474H30.1967C28.0481 48.474 26.255 48.5074 26.2121 48.5483ZM26.1598 53.1029C26.2084 53.8223 26.2663 54.0017 26.5644 54.3567C27.2167 55.1333 27.3952 55.1711 30.2447 55.1362C32.7229 55.106 32.782 55.0998 33.2055 54.8267C33.7999 54.4435 34.1031 53.8106 34.1031 52.9525V52.2633H30.1031H26.1032L26.1598 53.1029Z" fill="#5F56AF"/>
</svg>
