<svg width="33" height="32" viewBox="0 0 33 32" fill="none" xmlns="http://www.w3.org/2000/svg">
<path fill-rule="evenodd" clip-rule="evenodd" d="M1.72471 0.0773817C1.05619 0.245918 0.424227 0.832922 0.245955 1.45091C0.19688 1.62098 0.178781 5.12144 0.191372 12.0116L0.210115 22.3179L0.371504 22.5998C0.624676 23.042 0.936867 23.3318 1.37747 23.5338L1.78395 23.7201L7.91831 23.7386C12.697 23.753 14.0522 23.7751 14.0504 23.8388C14.0491 23.8837 13.847 24.9421 13.6012 26.1907L13.1543 28.461L12.0475 28.4944C10.8197 28.5315 10.6665 28.5745 10.2728 28.993C10.1495 29.1241 10.024 29.3134 9.99391 29.4137C9.96386 29.5141 9.93925 30.0686 9.93925 30.646C9.93925 31.6494 9.94648 31.7025 10.1022 31.8479L10.2652 32H16.1988H22.1324L22.2954 31.8479C22.4511 31.7025 22.4584 31.6494 22.4584 30.646C22.4584 30.0686 22.4338 29.5141 22.4037 29.4137C22.324 29.1482 21.9308 28.759 21.6006 28.6189C21.3874 28.5286 21.1358 28.4969 20.6211 28.4959C20.0241 28.4946 19.9233 28.4782 19.8913 28.3775C19.8536 28.2589 18.9888 23.8695 18.9888 23.7969C18.9888 23.7751 21.54 23.7489 24.6581 23.7387L30.3275 23.7201L30.7735 23.5278C31.2912 23.3046 31.7991 22.8355 32.0316 22.3657L32.1875 22.0508V11.7343V1.41779L32.0261 1.13587C31.7729 0.6937 31.4607 0.403837 31.0201 0.201847L30.6137 0.0155495L16.3419 0.00292938C4.80126 -0.00722017 2.004 0.00700255 1.72471 0.0773817ZM1.89268 1.16752C1.75576 1.23169 1.57062 1.38634 1.48134 1.51114L1.31895 1.73804V9.6408V17.5436H16.1988H31.0787V9.6408V1.73804L30.9163 1.51114C30.827 1.38634 30.6419 1.23169 30.5049 1.16752C30.2704 1.05755 29.4392 1.05074 16.1988 1.05074C2.95838 1.05074 2.12718 1.05755 1.89268 1.16752ZM5.22742 2.79152L5.03891 2.92987L5.03963 4.77803C5.04027 6.58004 5.04449 6.63446 5.20903 6.95998C5.98185 8.48963 8.26219 8.52041 9.05834 7.01193L9.29541 6.56268L9.31888 4.90036C9.33182 3.98603 9.32338 3.16725 9.30013 3.08092C9.19597 2.69363 8.71631 2.53518 8.39124 2.78057C8.22327 2.90744 8.22213 2.91745 8.18658 4.67012C8.1551 6.22067 8.13528 6.45417 8.02175 6.61577C7.60032 7.21532 6.63678 7.19502 6.27645 6.57897C6.16399 6.38673 6.14482 6.14254 6.1245 4.64054L6.10132 2.92206L5.91819 2.78758C5.68411 2.61577 5.46507 2.61697 5.22742 2.79152ZM12.8438 2.80274C12.7493 2.84894 12.4299 3.24124 12.1338 3.67446L11.5956 4.46219L11.1009 3.74124C10.8288 3.34474 10.5546 2.98283 10.4916 2.93688C10.3198 2.81189 10.0179 2.83606 9.80583 2.99184C9.49987 3.21647 9.54966 3.47635 10.0305 4.16491C10.2578 4.49023 10.549 4.91151 10.6777 5.10101L10.9117 5.44556L10.3003 6.33632C9.63064 7.31194 9.56396 7.52829 9.85441 7.78303C10.0164 7.92506 10.2814 7.96799 10.5041 7.88826C10.5654 7.86623 10.8317 7.53196 11.0957 7.14534C11.65 6.33385 11.5279 6.31435 12.2163 7.3239C12.7321 8.08037 13.0185 8.21118 13.4267 7.87658C13.6945 7.6571 13.5916 7.35515 12.9126 6.36683L12.2756 5.43989L12.6734 4.86443C13.536 3.61691 13.6234 3.47014 13.6234 3.27095C13.6234 2.8844 13.1982 2.62906 12.8438 2.80274ZM19.0603 3.6342C18.6859 3.76648 18.5662 4.26187 18.8457 4.52275C18.9844 4.65223 19.0841 4.6563 22.124 4.6563H25.2591L25.4147 4.50179C25.6081 4.30961 25.6164 3.98983 25.4335 3.77896L25.2968 3.62131L22.2322 3.60883C20.5467 3.60195 19.1193 3.61337 19.0603 3.6342ZM18.0198 7.1573C17.747 7.4119 17.828 7.83905 18.1773 7.98762C18.2981 8.03897 19.515 8.06174 22.1364 8.06174C24.7579 8.06174 25.9748 8.03897 26.0956 7.98762C26.4449 7.83905 26.5259 7.4119 26.2531 7.1573L26.0775 6.99337H22.1364H18.1954L18.0198 7.1573ZM22.8518 10.078C22.5065 10.1972 22.4989 10.2437 22.4948 12.2685C22.4906 14.385 22.464 14.5261 22.0015 14.8895C21.426 15.3414 20.4515 15.1533 20.0797 14.5186C19.9708 14.3329 19.9499 14.0412 19.9188 12.2797C19.8851 10.3728 19.8748 10.2487 19.7441 10.1596C19.5438 10.0231 19.1573 10.0412 18.9928 10.1948C18.78 10.3934 18.7584 10.645 18.7863 12.6134L18.8122 14.4386L19.017 14.8549C19.2562 15.3408 19.7625 15.8172 20.2566 16.0212C21.2682 16.4389 22.5421 16.1032 23.1643 15.2549C23.599 14.6622 23.6481 14.3371 23.6241 12.212C23.605 10.5214 23.5908 10.3333 23.4735 10.2124C23.3179 10.0521 23.0774 10.0001 22.8518 10.078ZM24.6627 10.099C24.3 10.2414 24.2826 10.3806 24.2826 13.1365C24.2826 15.7306 24.3096 16.0119 24.5715 16.1427C24.7875 16.2506 25.1307 16.2178 25.2841 16.0745C25.4226 15.9453 25.4272 15.852 25.4272 13.1655C25.4272 11.4828 25.3996 10.3419 25.3571 10.2679C25.248 10.0776 24.9204 9.9979 24.6627 10.099ZM5.28608 11.364C5.17534 11.4673 5.11045 11.6042 5.11045 11.7343C5.11045 11.8644 5.17534 12.0012 5.28608 12.1045L5.46163 12.2685H9.35407C13.1836 12.2685 13.2495 12.2663 13.4349 12.13C13.7012 11.9346 13.7012 11.534 13.4349 11.3385C13.2495 11.2023 13.1836 11.2001 9.35407 11.2001H5.46163L5.28608 11.364ZM6.21213 14.367C5.86611 14.5076 5.77404 14.9578 6.04044 15.2065C6.17915 15.336 6.27888 15.34 9.33118 15.34C12.3835 15.34 12.4832 15.336 12.6219 15.2065C12.7754 15.0633 12.8106 14.743 12.695 14.5414C12.5535 14.2946 12.2604 14.2716 9.30264 14.2743C7.05685 14.2763 6.38576 14.2964 6.21213 14.367ZM1.31895 20.3048C1.31895 21.9536 1.32317 22.0036 1.48134 22.2245C1.57062 22.3493 1.75576 22.5041 1.89268 22.5685C2.12783 22.6792 2.91911 22.6847 16.1683 22.6687L30.1949 22.6517L30.485 22.4725C30.6598 22.3645 30.8355 22.177 30.9269 22.0007C31.0681 21.7283 31.0787 21.6011 31.0787 20.16V18.6119H16.1988H1.31895V20.3048ZM14.0981 19.9523C13.9527 20.059 13.9096 20.1495 13.9096 20.348C13.9096 20.5466 13.9527 20.6371 14.0981 20.7438C14.2781 20.876 14.3726 20.8822 16.1988 20.8822C18.025 20.8822 18.1195 20.876 18.2995 20.7438C18.4449 20.6371 18.488 20.5466 18.488 20.348C18.488 20.1495 18.4449 20.059 18.2995 19.9523C18.1195 19.8201 18.025 19.8139 16.1988 19.8139C14.3726 19.8139 14.2781 19.8201 14.0981 19.9523ZM14.7829 26.074C14.5352 27.3501 14.334 28.4167 14.3357 28.4443C14.3375 28.4719 15.3207 28.4944 16.5207 28.4944C18.2175 28.4944 18.7031 28.4758 18.7046 28.4109C18.7056 28.3651 18.5055 27.2983 18.2599 26.0405L17.8132 23.7535L16.5231 23.7536L15.233 23.7538L14.7829 26.074ZM11.1193 29.697C11.0766 29.7714 11.0516 30.0763 11.0631 30.3814L11.0839 30.9316L16.2167 30.9488L21.3495 30.9659V30.3935C21.3495 29.4605 21.9835 29.5628 16.1988 29.5628C11.2615 29.5628 11.1952 29.5645 11.1193 29.697Z" fill="#5f56af"/>
</svg>
