<svg width="32" height="32" viewBox="0 0 32 32" fill="none" xmlns="http://www.w3.org/2000/svg">
<path fill-rule="evenodd" clip-rule="evenodd" d="M23.5858 0.0604092C22.6702 0.212886 21.8971 0.616155 21.2029 1.3033C20.7918 1.71026 20.4653 2.18445 18.7381 4.88357L16.7472 7.9947L14.2398 7.99502L11.7323 7.99527L11.7133 5.66559C11.6923 3.10532 11.6945 3.12083 11.2937 2.66327C11.185 2.53913 10.9639 2.37233 10.8025 2.29259C10.5187 2.15249 10.4468 2.14693 8.66495 2.12791L6.82101 2.10815L6.70211 1.88675C6.21171 0.973894 4.93142 0.80672 4.18232 1.55766C3.89479 1.84598 3.78743 2.09658 3.75461 2.55601C3.68343 3.55343 4.43372 4.29667 5.44652 4.23207C5.98495 4.19767 6.38215 3.95701 6.6411 3.50815L6.82825 3.18374L8.50013 3.18162C10.3159 3.17937 10.4442 3.20025 10.5903 3.52178C10.6435 3.6388 10.6648 4.30311 10.6648 5.84052V7.99527H9.41455C8.00811 7.99527 7.47055 8.07401 6.80199 8.3779C6.43754 8.54357 6.34079 8.56077 5.86336 8.54476L5.33105 8.52687L5.29755 8.05493C5.23554 7.18078 4.9001 6.93568 3.7626 6.93343C3.07987 6.93206 3.0669 6.92937 3.02966 6.78071C3.00882 6.69746 2.86552 6.50271 2.71113 6.34798C1.93763 5.57253 0.687466 5.78204 0.164381 6.77489C-0.0138491 7.11324 -0.0199003 7.79676 0.152278 8.14893C0.711047 9.29188 2.32809 9.36412 2.96503 8.27458L3.12828 7.99527H3.67476H4.22124L4.25855 8.44113C4.28569 8.76565 4.33753 8.95022 4.44913 9.11933C4.58781 9.32941 4.93098 9.55881 5.10653 9.55881C5.20934 9.55881 5.19455 9.5974 4.95568 9.95213C4.64364 10.4156 4.38132 11.1409 4.30496 11.7513C4.26884 12.0399 4.23933 12.8749 4.23933 13.6068V14.9374H3.68381H3.12828L2.96503 14.6581C2.34787 13.6023 0.804997 13.624 0.213664 14.6967C-0.0246415 15.1291 -0.0453528 15.7596 0.165628 16.1603C0.687591 17.1513 1.92029 17.3619 2.70776 16.5946C2.86135 16.445 3.00514 16.2501 3.02729 16.1616C3.06696 16.003 3.07644 16.0006 3.64794 16.0006H4.22823L4.24938 17.2671L4.27053 18.5335L4.45605 18.8694C4.64327 19.2082 4.83728 19.3909 5.23747 19.605C5.4303 19.7082 5.63616 19.7242 6.9998 19.7423L8.5438 19.7627V20.5397V21.3167H5.80647H3.06921L2.99229 21.1306C2.81643 20.7049 2.09359 20.2534 1.58803 20.2534C1.30419 20.2534 0.82234 20.4483 0.569437 20.6653C-0.550597 21.6264 0.11516 23.447 1.58467 23.4417C2.20538 23.4394 2.73421 23.1299 2.99896 22.6137L3.11961 22.3786L5.81614 22.3948L8.5126 22.4111V23.4743V24.5376L4.58244 24.5688L0.652282 24.6001L0.442237 24.7503C0.0515288 25.0296 0 25.2527 0 26.664C0 27.7453 0.0155335 27.9487 0.114599 28.165C0.383659 28.7524 0.601003 28.8155 2.36783 28.8188L3.77146 28.8214L3.75131 29.2791C3.70683 30.2915 4.27895 31.2413 5.21264 31.7051C5.422 31.8092 5.77784 31.9259 6.00335 31.9647C7.1237 32.1571 8.29389 31.5052 8.8098 30.4014C8.9861 30.0242 9.00756 29.9165 9.00949 29.4005L9.01167 28.8224H15.9674H22.9232L22.9254 29.4005C22.9273 29.9165 22.9488 30.0242 23.1251 30.4014C23.6441 31.5119 24.8402 32.1703 25.9598 31.9616C27.3013 31.7114 28.2406 30.5783 28.1836 29.2791L28.1634 28.8214L29.567 28.8188C31.3683 28.8154 31.5342 28.7637 31.8512 28.1064C31.9928 27.8126 32 27.7371 32 26.548C32 25.8607 31.9814 25.3171 31.9587 25.3399C31.936 25.3627 31.8691 25.2731 31.81 25.1409C31.751 25.0086 31.6081 24.8329 31.4926 24.7503L31.2826 24.6001L28.2882 24.5829L25.2938 24.5657L24.7102 23.9888C24.3891 23.6714 24.0874 23.3212 24.0395 23.2105C23.976 23.0638 23.9525 22.7127 23.9525 21.9128V20.8163H25.8797H27.8068L27.8431 20.9614C27.8925 21.1586 28.2726 21.5404 28.5722 21.6936C29.5228 22.1797 30.7084 21.5486 30.8547 20.4785C30.9069 20.0975 30.7852 19.6504 30.5363 19.308C29.8736 18.3961 28.3914 18.5135 27.8757 19.5186L27.7554 19.7531H25.8467H23.938L23.983 19.331C24.0548 18.6587 24.2413 18.0303 24.5228 17.5127C25.1673 16.3275 25.3323 15.9551 25.4349 15.4534L25.5406 14.9374H26.0878H26.635V15.3659C26.635 15.7074 26.6635 15.8365 26.7754 16.0012C27.0763 16.4445 27.3885 16.5596 28.2962 16.562L28.8657 16.5635L28.943 16.7504C29.0398 16.9849 29.4469 17.358 29.7455 17.486C30.0334 17.6094 30.652 17.6056 30.9475 17.4785C31.5545 17.2175 31.8531 16.7565 31.944 15.9403C31.979 15.6254 31.9958 15.3062 31.9812 15.2308C31.9666 15.1554 31.9495 15.2345 31.9434 15.4065L31.9321 15.7192L31.846 15.4769C31.6265 14.8596 31.0074 14.4213 30.3553 14.4216C30.1448 14.4217 29.8703 14.4648 29.7455 14.5172C29.4486 14.6419 29.0403 15.015 28.943 15.2508L28.8657 15.4377H28.2806H27.6955L27.6952 15.1719C27.6944 14.5991 27.4371 14.13 27.0298 13.9595C26.9021 13.906 26.5843 13.8742 26.1777 13.8742H25.5293L25.4862 13.3972C25.4625 13.1349 25.3755 12.5932 25.2929 12.1933C25.1081 11.2989 25.0142 10.5031 25.0135 9.82461C25.0131 9.39163 25.0331 9.2885 25.1378 9.18356C25.2064 9.11476 25.3134 9.05848 25.3754 9.05848C25.6339 9.05848 25.7139 9.22152 26.0806 10.4951C26.2819 11.194 26.5189 11.8895 26.6073 12.0408C26.9506 12.6281 27.5005 12.8439 28.5432 12.8007C29.0803 12.7785 29.205 12.7513 29.4922 12.5938C29.8597 12.3923 30.1609 12.029 30.2569 11.6717C30.2967 11.5234 30.3135 10.276 30.3022 8.29309C30.2823 4.76805 30.3099 4.98013 29.8077 4.49149L29.5558 4.24645L29.6699 3.91629C30.0044 2.94777 29.6176 1.81915 28.7834 1.32901C28.4152 1.11267 25.4871 0.14015 24.9547 0.0573447C24.4571 -0.020082 24.0638 -0.0191438 23.5858 0.0604092ZM23.5782 1.14701C22.975 1.28404 22.4304 1.58036 21.9838 2.01446C21.6694 2.32004 21.2282 2.96216 19.8082 5.18089L18.027 7.964L18.5681 7.98226C19.4485 8.0119 19.3841 8.07007 21.2341 5.5759C22.9106 3.31571 23.0812 3.13233 23.7654 2.85434C24.0403 2.74264 24.2324 2.71474 24.7323 2.71418L25.3562 2.71349L26.94 3.29576C28.1773 3.75062 28.535 3.85994 28.575 3.79515C28.7037 3.58639 28.7642 3.12921 28.6964 2.87704C28.5534 2.34456 28.3955 2.25281 26.5922 1.65441C24.7628 1.04744 24.3342 0.97527 23.5782 1.14701ZM4.99043 2.29184C4.55075 2.73263 4.98968 3.36693 5.57777 3.14071C5.69867 3.09418 5.86131 2.79742 5.86131 2.62324C5.86131 2.43812 5.6084 2.18408 5.38033 2.14023C5.21289 2.10803 5.14901 2.13285 4.99043 2.29184ZM24.2497 3.80147C23.7973 3.94663 23.6095 4.15533 22.081 6.21164C21.2341 7.35096 20.4455 8.37589 20.3286 8.48928C20.2116 8.60267 19.9615 8.7701 19.7728 8.86134L19.4297 9.0272L15.2188 9.05991C11.0886 9.09206 11.0002 9.09531 10.6025 9.23028C9.32758 9.66288 8.34342 10.7533 8.07617 12.0292C7.88284 12.9523 7.99994 14.4126 8.36201 15.5941C8.46738 15.9381 8.73294 16.5994 8.9521 17.0638C9.58585 18.4067 9.55903 18.2154 9.58891 21.6137L9.6148 24.5688H10.7948C11.4439 24.5688 11.9749 24.5511 11.9749 24.5295C11.9749 24.5078 11.8734 24.3776 11.7494 24.2399C11.6254 24.1023 11.4499 23.8315 11.3595 23.6382L11.1951 23.2867L11.1759 20.8789C11.1551 18.2746 11.1941 17.7178 11.4522 16.9387C11.8214 15.8241 12.6904 14.7462 13.6891 14.1643C14.2754 13.8226 14.4706 13.8024 14.7246 14.057C15.0627 14.396 14.9506 14.6606 14.3092 15.0364C14.0793 15.1711 13.7647 15.3929 13.6102 15.5292C13.2714 15.8281 12.8483 16.3535 12.8483 16.4753C12.8483 16.55 13.3334 16.5635 16.0298 16.5635C18.693 16.5635 19.2114 16.5494 19.2114 16.4772C19.2114 16.4297 19.0851 16.2278 18.9307 16.0285C18.6183 15.6252 18.5804 15.4182 18.7737 15.1717C18.9224 14.9822 19.1461 14.9156 19.36 14.9971C19.7345 15.1398 20.48 16.3682 20.8269 17.4138C21.2174 18.5911 21.2307 18.7227 21.2675 21.7544L21.3012 24.5376L22.5091 24.5546L23.7169 24.5716L23.4595 24.2633C22.935 23.6353 22.9258 23.5898 22.903 21.5043C22.8709 18.5756 22.9937 17.969 23.948 16.3446C24.355 15.6516 24.4516 15.2542 24.4516 14.2725C24.4516 13.5965 24.4155 13.2476 24.2661 12.4809C23.9175 10.6921 23.8509 9.38307 24.0825 8.87085C24.3419 8.29734 24.753 8.03217 25.3873 8.02935C25.7066 8.02791 25.8514 8.06068 26.068 8.18339C26.5499 8.45632 26.6579 8.65777 27.0407 9.9966C27.2325 10.6674 27.4201 11.2949 27.4577 11.3911C27.5599 11.653 27.8035 11.7478 28.3739 11.7478C28.8179 11.7478 28.8918 11.7304 29.0632 11.5858L29.2551 11.4239L29.2531 8.44313C29.2511 5.31016 29.2543 5.34662 28.9693 5.19452C28.8979 5.15637 28.0136 4.82309 27.0042 4.45384C25.1159 3.76307 24.6864 3.66137 24.2497 3.80147ZM1.24012 7.11487C1.1302 7.22506 1.05777 7.3636 1.05777 7.46366C1.05777 7.69969 1.36888 7.99527 1.61729 7.99527C2.13108 7.99527 2.3183 7.2589 1.86427 7.02356C1.60251 6.88784 1.44337 6.91111 1.24012 7.11487ZM7.8116 9.15316C6.74977 9.38444 5.8313 10.2284 5.47453 11.3006C5.34034 11.704 5.33548 11.8114 5.31333 14.8749C5.29742 17.0756 5.31158 18.1042 5.35993 18.2674C5.4764 18.66 5.60042 18.6899 7.11365 18.6899H8.43463L8.39445 18.4866C8.3723 18.3748 8.1748 17.9034 7.95552 17.4391C7.19326 15.8249 6.95982 14.8246 6.95576 13.155C6.95333 12.159 6.96967 11.9715 7.09737 11.5289C7.31185 10.7858 7.69295 10.1152 8.22277 9.54887L8.68154 9.05848L8.44111 9.06342C8.30886 9.06617 8.02558 9.10657 7.8116 9.15316ZM1.24012 15.1202C1.0035 15.3574 1.0035 15.5806 1.24012 15.8178C1.5919 16.1705 2.11829 15.9614 2.11829 15.469C2.11829 14.9766 1.5919 14.7675 1.24012 15.1202ZM0.0150968 15.469C0.0155959 15.641 0.0276983 15.7039 0.0420465 15.6088C0.0563323 15.5138 0.055958 15.3731 0.0411731 15.2961C0.0263882 15.2192 0.0146601 15.297 0.0150968 15.469ZM29.9459 15.6651C29.783 15.8726 29.7808 16.1258 29.9399 16.3286C30.2797 16.7616 30.9632 16.4108 30.8435 15.8648C30.7603 15.4846 30.1874 15.3572 29.9459 15.6651ZM12.3157 17.7674C12.2293 18.0201 12.205 22.8185 12.2887 23.0991C12.3423 23.2792 12.5306 23.5201 12.9606 23.959L13.5578 24.5688H14.1132H14.6686L14.1691 24.0335C13.6269 23.4525 13.4387 23.1227 13.3381 22.5774C13.2654 22.1832 13.2997 18.0018 13.3775 17.7674C13.4236 17.6288 13.4161 17.6267 12.894 17.6267C12.3999 17.6267 12.3605 17.6363 12.3157 17.7674ZM14.4417 17.8293C14.3572 18.2307 14.3284 22.2088 14.4078 22.507C14.4703 22.7419 14.6224 22.9284 15.3624 23.6776L16.2426 24.5688H18.226H20.2095L20.2093 22.0515C20.209 19.4239 20.1685 18.875 19.9129 18.0332L19.7989 17.658L17.1417 17.6416L14.4846 17.6254L14.4417 17.8293ZM28.9092 19.9067C28.503 20.3138 28.9682 20.9909 29.4839 20.7432C29.5805 20.6968 29.6974 20.5796 29.7436 20.4828C29.9908 19.9658 29.3153 19.4994 28.9092 19.9067ZM1.36969 21.3961C1.17262 21.4979 1.035 21.78 1.08497 21.9795C1.23388 22.5744 2.11829 22.4737 2.11829 21.862C2.11829 21.4942 1.69253 21.2292 1.36969 21.3961ZM0.0236434 26.664C0.0237057 27.3863 0.0328137 27.6733 0.0438556 27.3016C0.0548975 26.93 0.0548351 26.3389 0.0437308 25.9883C0.0326266 25.6375 0.023581 25.9416 0.0236434 26.664ZM1.05777 26.6952V27.7585H2.64556H4.23341L4.54888 27.4422C4.73447 27.2561 5.03741 27.0437 5.28482 26.9262C5.67858 26.7392 5.74908 26.7265 6.39288 26.7265C7.04946 26.7265 7.09993 26.7361 7.51372 26.9404C7.75209 27.058 8.08266 27.2902 8.24841 27.4564L8.54972 27.7585H15.9674H23.3851L23.7006 27.4422C23.8862 27.2561 24.1891 27.0437 24.4366 26.9262C24.8302 26.7393 24.901 26.7265 25.5433 26.7265C26.1856 26.7265 26.2564 26.7393 26.6501 26.9262C26.8975 27.0437 27.2004 27.2561 27.386 27.4422L27.7015 27.7585H29.2893H30.8771V26.6952V25.632H15.9674H1.05777V26.6952ZM5.80167 27.8571C5.03784 28.1893 4.64289 29.0024 4.86292 29.7901C4.95887 30.1337 5.34514 30.5905 5.69736 30.7768C6.05501 30.966 6.72657 30.9675 7.07778 30.7797C8.26295 30.1462 8.27386 28.5085 7.09681 27.9204C6.71864 27.7315 6.15395 27.7039 5.80167 27.8571ZM24.8185 27.9331C23.6552 28.5424 23.677 30.1489 24.8571 30.7797C25.2083 30.9675 25.8799 30.966 26.2375 30.7768C26.5897 30.5905 26.976 30.1337 27.072 29.7901C27.4476 28.4452 26.0461 27.2902 24.8185 27.9331Z" fill="#444444"/>
</svg>
