<svg width="92" height="92" viewBox="0 0 92 92" fill="none" xmlns="http://www.w3.org/2000/svg">
<path d="M42.0469 2.875H49.9531L50.6719 3.95312H52.8281L57.8594 8.98438V11.1406L58.9375 11.8594V19.7656L57.8594 20.4844V21.2031L61.4531 21.9219L64.6875 24.0781L66.8438 26.9531L67.5625 28.75V33.0625H71.5156L74.3906 34.5L76.9062 37.375L77.625 39.1719V44.2031L76.1875 47.0781L73.3125 49.5938L71.5156 50.3125H20.4844L17.6094 48.875L15.0938 46L14.375 44.2031V39.1719L15.8125 36.2969L18.6875 33.7812L20.4844 33.0625H24.4375L24.7969 29.4688L26.9531 25.1562L29.4688 22.2812L33.0625 19.7656V11.8594L34.1406 11.1406V8.98438L39.1719 3.95312H41.3281L42.0469 2.875ZM44.5625 5.75L43.4844 8.26562H41.3281L39.8906 7.90625L38.0938 9.70312L38.4531 13.2969L35.9375 14.375V17.25L38.4531 18.3281V20.4844L38.0938 21.9219L39.8906 23.7188L43.4844 23.3594L44.2031 25.5156V35.5781L40.25 35.9375L42.0469 37.7344L45.2812 40.6094L47.0781 40.25L51.0312 36.6562L51.75 35.9375L47.7969 35.5781V25.5156L48.5156 23.3594H50.6719L52.1094 23.7188L53.9062 21.9219L53.5469 18.3281L55.7031 17.6094V14.0156L53.5469 13.2969V11.1406L53.9062 9.70312L52.1094 7.90625L48.5156 8.26562L47.4375 5.75H44.5625ZM34.5 23L31.625 25.1562L29.1094 28.0312L27.6719 31.625L26.9531 35.5781L21.2031 36.2969L19.0469 37.7344L17.6094 39.8906V43.4844L19.0469 45.6406L21.2031 47.0781L23 47.4375H69L72.2344 46.3594L74.0312 44.2031L74.3906 43.4844V39.8906L72.9531 37.7344L70.7969 36.2969L64.6875 35.5781L64.3281 33.7812V29.4688L62.5312 26.5938L59.6562 24.7969H55.3438L52.8281 27.3125H50.6719L50.3125 27.6719V33.0625L57.1406 33.4219V35.5781L53.5469 38.8125L49.5938 42.0469L47.0781 44.2031H44.9219L39.5312 39.5312L34.8594 35.5781V33.4219L41.6875 33.0625V27.6719L40.6094 27.3125L38.8125 26.9531L34.8594 23H34.5Z" fill="#ffffff" fill-opacity="0.75"/>
<path d="M62.8906 58.9375H86.6094L88.7656 60.7344L89.125 61.4531V79.4219L87.3281 81.5781L86.6094 81.9375L80.1406 82.2969L81.9375 86.6094V88.7656L81.5781 89.125H67.9219L67.5625 88.7656V86.6094L69.3594 82.2969L62.8906 81.9375L60.7344 80.1406L60.375 79.4219V61.4531L62.1719 59.2969L62.8906 58.9375ZM64.6875 61.8125L63.25 63.25V73.3125H86.25V63.25L84.8125 61.8125H64.6875ZM63.25 76.1875L63.6094 78.3438L64.6875 79.0625H84.8125L86.25 77.625V76.1875H63.25ZM72.9531 81.9375L71.5156 85.5312V86.25H77.9844L76.9062 83.0156L76.5469 81.9375H72.9531Z" fill="#ffffff" fill-opacity="0.75"/>
<path d="M5.39062 58.9375H29.1094L31.2656 60.7344L31.625 61.4531V79.4219L29.8281 81.5781L29.1094 81.9375L22.6406 82.2969L24.4375 86.6094V88.7656L24.0781 89.125H10.4219L10.0625 88.7656V86.6094L11.8594 82.2969L5.39062 81.9375L3.23438 80.1406L2.875 79.4219V61.4531L4.67188 59.2969L5.39062 58.9375ZM7.1875 61.8125L5.75 63.25V73.3125H28.75V63.25L27.3125 61.8125H7.1875ZM5.75 76.1875L6.10938 78.3438L7.1875 79.0625H27.3125L28.75 77.625V76.1875H5.75ZM15.4531 81.9375L14.0156 85.5312V86.25H20.4844L19.4062 83.0156L19.0469 81.9375H15.4531Z" fill="#ffffff" fill-opacity="0.75"/>
<path d="M43.8438 10.0625H48.1562L50.3125 11.5L51.75 13.6562V17.9688L50.3125 20.125L48.1562 21.5625H43.8438L41.6875 20.125L40.25 17.9688V13.6562L41.6875 11.5L43.8438 10.0625ZM44.9219 13.2969L43.4844 14.7344V16.8906L44.9219 18.3281H47.0781L48.5156 16.8906V14.7344L47.0781 13.2969H44.9219Z" fill="#ffffff" fill-opacity="0.75"/>
<path d="M48.875 53.1875H51.75L52.1094 67.5625L53.1875 68.6406L57.5 69V71.875H51.3906L49.2344 70.0781L48.875 69.3594V53.1875Z" fill="#ffffff" fill-opacity="0.75"/>
<path d="M40.25 53.1875H43.125V69.3594L41.3281 71.5156L40.6094 71.875H34.5V69L38.8125 68.6406L39.8906 67.5625L40.25 53.1875Z" fill="#ffffff" fill-opacity="0.75"/>
<path d="M79.0625 66.125H81.9375V69H79.0625V66.125Z" fill="#ffffff" fill-opacity="0.75"/>
<path d="M73.3125 66.125H76.1875V69H73.3125V66.125Z" fill="#ffffff" fill-opacity="0.75"/>
<path d="M67.5625 66.125H70.4375V69H67.5625V66.125Z" fill="#ffffff" fill-opacity="0.75"/>
<path d="M21.5625 66.125H24.4375V69H21.5625V66.125Z" fill="#ffffff" fill-opacity="0.75"/>
<path d="M15.8125 66.125H18.6875V69H15.8125V66.125Z" fill="#ffffff" fill-opacity="0.75"/>
<path d="M10.0625 66.125H12.9375V69H10.0625V66.125Z" fill="#ffffff" fill-opacity="0.75"/>
</svg>
