<svg width="92" height="92" viewBox="0 0 92 92" fill="none" xmlns="http://www.w3.org/2000/svg">
<path d="M28.0312 4.3125H63.9688L66.8438 5.75L69.3594 8.625L70.0781 10.7812V81.2188L69 84.0938L66.4844 86.6094L63.9688 87.6875H28.0312L25.1562 86.25L22.6406 83.375L21.9219 81.2188V10.7812L23 7.90625L24.7969 6.10938L26.9531 4.67188L28.0312 4.3125ZM28.3906 6.46875L25.5156 8.26562L24.0781 11.1406V14.7344H67.9219V11.1406L66.4844 8.26562L63.6094 6.46875H28.3906ZM24.0781 16.8906V75.1094H67.9219V16.8906H24.0781ZM24.0781 77.2656V80.8594L25.5156 83.7344L28.3906 85.5312H63.6094L66.4844 83.7344L67.9219 80.8594V77.2656H24.0781Z" fill="white"/>
<path d="M25.875 18.3281H66.125L66.4844 18.6875V73.3125L66.125 73.6719H25.875L25.5156 73.3125V18.6875L25.875 18.3281ZM27.6719 20.4844V39.5312L32.3438 39.8906L32.7031 41.6875H27.6719V43.125L32.3438 43.4844L32.7031 45.2812H27.6719V46.7188H32.7031L32.3438 48.5156L27.6719 48.875V71.5156H64.3281V48.875L59.6562 48.5156L59.2969 46.7188H64.3281V45.2812H59.2969L59.6562 43.4844L64.3281 43.125V41.6875H59.2969L59.6562 39.8906L64.3281 39.5312V20.4844H27.6719Z" fill="white"/>
<path d="M44.2031 44.2031H47.7969L49.2344 47.7969L51.0312 48.1562L52.4688 47.0781H54.625L56.0625 48.5156V50.6719L54.9844 52.1094L55.7031 54.2656L58.9375 55.3438V58.9375L55.3438 60.375L54.9844 62.1719L56.0625 63.6094V65.7656L54.625 67.2031H52.4688L51.0312 66.125L48.875 66.8438L47.7969 70.0781H44.2031L42.7656 66.4844L40.9688 66.125L39.5312 67.2031H37.375L35.9375 65.7656V63.6094L37.0156 62.1719L36.2969 60.0156L33.0625 58.9375V55.3438L36.6562 53.9062L37.0156 52.1094L35.9375 50.6719V48.5156L37.375 47.0781H39.5312L40.9688 48.1562L43.125 47.4375L44.2031 44.2031ZM45.6406 46.3594L44.9219 49.2344L41.6875 50.6719L39.8906 49.9531L38.0938 49.5938L39.5312 52.1094L38.4531 55.3438L38.0938 56.0625L35.2188 56.7812V57.5L38.0938 58.2188L39.5312 61.4531L38.8125 63.25L38.4531 65.0469L40.9688 63.6094L44.2031 64.6875L44.9219 65.0469L45.6406 67.9219H46.3594L47.0781 65.0469L50.3125 63.6094L52.1094 64.3281L53.5469 65.0469L53.1875 63.25L52.4688 61.4531L53.9062 58.2188L56.7812 57.5V56.7812L53.9062 56.0625L52.4688 52.8281L53.1875 51.0312L53.9062 49.5938L52.1094 49.9531L50.3125 50.6719L47.0781 49.2344L46.3594 46.3594H45.6406Z" fill="white"/>
<path d="M43.125 21.2031H48.875L52.4688 23L54.2656 24.7969L56.0625 27.3125L56.7812 29.8281V33.7812L55.3438 37.7344L53.1875 40.25L49.9531 42.0469L47.0781 42.7656L43.125 42.4062L39.8906 40.9688L37.375 38.8125L35.5781 35.2188L35.2188 34.1406V29.8281L36.2969 26.5938L38.4531 23.7188L42.0469 21.5625L43.125 21.2031ZM43.4844 23.3594L39.8906 25.5156L37.7344 28.75L37.375 30.1875V33.7812L39.1719 37.375L41.6875 39.5312L44.9219 40.6094L48.5156 40.25L51.3906 38.8125L53.5469 36.2969L54.625 33.7812V30.1875L53.5469 27.3125L51.75 25.1562L48.5156 23.3594H43.4844Z" fill="white"/>
<path d="M44.2031 50.6719H47.7969L49.9531 51.75L52.1094 54.2656L52.4688 55.3438V58.9375L51.3906 61.0938L48.875 63.25L47.7969 63.6094H44.2031L42.0469 62.5312L39.8906 60.0156L39.5312 58.9375V55.3438L40.6094 53.1875L43.125 51.0312L44.2031 50.6719ZM44.9219 52.8281L43.125 53.9062L42.0469 54.9844L41.6875 56.0625V58.5781L43.8438 61.0938L44.5625 61.4531H47.4375L49.9531 59.2969L50.3125 58.5781V56.0625L49.2344 54.2656L48.1562 53.1875L44.9219 52.8281Z" fill="white"/>
<path d="M10.7812 63.6094H14.7344L17.25 65.0469L18.6875 67.5625V71.1562L17.25 73.6719L15.0938 75.1094L11.8594 75.4688L9.34375 74.3906L7.54688 72.5938L6.82812 70.7969V68.2812L8.26562 65.4062L10.0625 63.9688L10.7812 63.6094ZM11.5 65.7656L9.34375 67.5625L8.98438 70.4375L10.4219 72.5938L12.2188 73.3125L14.375 72.9531L16.1719 71.5156L16.5312 70.7969V68.2812L15.4531 66.4844L14.375 65.7656H11.5Z" fill="white"/>
<path d="M77.625 11.5H81.5781L83.7344 12.9375L85.1719 15.4531V17.9688L83.7344 20.8438L81.2188 22.2812H77.9844L75.4688 20.8438L74.0312 17.9688L74.3906 14.375L76.1875 12.2188L77.625 11.5ZM79.4219 13.2969L77.2656 14.375L76.1875 16.1719L76.5469 18.3281L77.9844 19.7656L80.5 20.125L82.2969 19.0469L83.0156 17.6094L82.6562 15.0938L81.2188 13.6562L79.4219 13.2969Z" fill="white"/>
<path d="M44.9219 77.625H47.0781L49.2344 79.0625L49.5938 79.7812V83.0156L47.7969 84.8125L47.0781 85.1719H44.9219L42.7656 83.7344L42.4062 83.0156V79.7812L44.2031 77.9844L44.9219 77.625ZM45.2812 79.7812L44.5625 80.5V82.2969L45.2812 83.0156L47.0781 82.6562L47.4375 82.2969V80.5L46.7188 79.7812H45.2812Z" fill="white"/>
<path d="M44.5625 53.9062H47.4375L49.2344 55.7031V58.5781L47.4375 60.375H44.5625L42.7656 58.5781V55.7031L44.5625 53.9062ZM45.2812 56.0625L44.9219 57.8594L46.7188 58.2188L47.0781 56.4219L45.2812 56.0625Z" fill="white"/>
<path d="M73.3125 52.1094H76.1875L77.9844 53.9062V56.4219L76.5469 58.2188L75.8281 58.5781H73.6719L71.875 57.1406L71.5156 56.4219V53.9062L73.3125 52.1094ZM74.0312 54.2656L73.6719 55.7031L75.1094 56.4219L75.8281 55.7031L75.4688 54.2656H74.0312Z" fill="white"/>
<path d="M47.0781 25.5156L48.875 25.875L48.5156 28.3906L45.2812 37.7344L43.4844 38.0938L43.125 36.2969L46.7188 25.875L47.0781 25.5156Z" fill="white"/>
<path d="M48.875 29.1094L51.0312 29.4688L53.1875 30.9062V32.7031L50.6719 34.5H48.5156L48.875 32.7031L49.5938 31.625L48.5156 30.9062L48.875 29.1094Z" fill="white"/>
<path d="M41.6875 29.1094L43.4844 29.4688L43.125 31.2656L42.4062 31.9844L43.4844 33.0625V34.5H41.3281L38.8125 32.7031V30.9062L41.6875 29.1094Z" fill="white"/>
<path d="M41.6875 9.70312H50.3125L50.6719 11.1406L50.3125 11.5H41.6875L41.3281 10.0625L41.6875 9.70312Z" fill="white"/>
<path d="M15.0938 81.9375L16.8906 82.6562V84.4531L16.1719 85.1719L14.375 84.8125L14.0156 84.4531V82.6562L15.0938 81.9375Z" fill="white"/>
<path d="M81.9375 64.3281L83.7344 64.6875L84.0938 65.0469V66.8438L82.2969 67.5625L81.2188 66.8438V65.0469L81.9375 64.3281Z" fill="white"/>
<path d="M73.3125 6.82812L75.1094 7.1875L75.4688 8.98438L75.1094 9.70312L73.6719 10.0625L72.2344 8.98438L72.5938 7.1875L73.3125 6.82812Z" fill="white"/>
<path d="M73.6719 76.9062H75.8281L76.1875 77.2656V79.0625L75.4688 79.7812L73.6719 79.4219L73.3125 79.0625V77.2656L73.6719 76.9062Z" fill="white"/>
<path d="M16.5312 46.7188L18.3281 47.0781L18.6875 47.4375V49.2344L18.3281 49.5938H16.1719L15.8125 49.2344V47.4375L16.5312 46.7188Z" fill="white"/>
<path d="M12.9375 8.625L14.7344 8.98438L15.0938 9.34375V11.1406L14.7344 11.5H12.5781L12.2188 11.1406V9.34375L12.9375 8.625Z" fill="white"/>
<path d="M79.0625 34.5H81.2188L81.5781 36.6562L80.8594 37.375L79.0625 37.0156L78.7031 36.6562V34.8594L79.0625 34.5Z" fill="white"/>
<path d="M10.4219 31.625L12.2188 31.9844L12.5781 33.7812L12.2188 34.5H10.0625L9.70312 34.1406V32.3438L10.4219 31.625Z" fill="white"/>
</svg>
