<svg width="92" height="92" viewBox="0 0 92 92" fill="none" xmlns="http://www.w3.org/2000/svg">
<path d="M23 19.4062L24.7969 19.7656L25.1562 20.125V23.7188H66.8438V20.125L67.5625 19.4062L69.7188 19.7656L70.0781 20.4844V23.7188H77.9844L80.5 24.4375L82.2969 26.5938L82.6562 27.6719V76.1875L81.2188 78.3438L79.7812 79.4219L78.7031 79.7812H56.4219L57.5 87.3281V89.125H62.5312L62.8906 89.4844L62.5312 92H29.4688L29.1094 89.4844L29.4688 89.125H34.5L34.8594 84.8125L35.5781 80.1406L13.2969 79.7812L11.1406 78.7031L9.70312 76.9062L9.34375 76.1875V27.6719L10.4219 25.5156L12.2188 24.0781L14.0156 23.7188H21.9219V20.4844L23 19.4062ZM14.0156 26.9531L12.5781 28.0312V66.4844H79.4219V28.0312L77.9844 26.9531H70.0781L69.7188 47.0781L69 48.1562H64.3281L63.25 47.0781L63.6094 45.6406L66.8438 45.2812V26.9531H25.1562V45.2812L28.3906 45.6406L28.75 47.0781L27.6719 48.1562H23L22.2812 47.0781L21.9219 26.9531H14.0156ZM12.5781 69.7188V75.4688L14.0156 76.5469H77.9844L79.4219 75.4688V69.7188H12.5781ZM39.1719 79.7812L38.4531 83.0156L37.7344 89.125H54.2656L53.5469 82.6562L52.8281 79.7812H39.1719Z" fill="#ffffff" fill-opacity="0.75"/>
<path d="M43.125 30.5469H48.875L50.3125 31.9844L51.0312 34.1406L53.1875 33.4219H56.0625L59.2969 36.6562L59.6562 38.8125L58.5781 42.0469L60.7344 42.4062L62.1719 43.8438L62.5312 45.2812V48.5156L61.8125 50.3125L60.0156 51.3906L58.9375 51.75L59.2969 53.5469L59.6562 55.7031L58.5781 57.5L56.0625 60.0156L53.5469 60.375L52.1094 59.6562H51.0312L49.5938 62.5312L48.1562 63.25H43.8438L42.0469 62.1719L40.9688 59.6562L39.1719 60.0156L36.6562 60.375L33.7812 57.8594L32.7031 56.7812L32.3438 54.625L33.0625 52.8281V51.75L30.5469 50.6719L29.8281 49.9531V43.8438L31.2656 42.4062L33.4219 42.0469L32.3438 38.8125L32.7031 36.6562L35.5781 33.7812L36.2969 33.4219H38.8125L40.9688 34.1406L42.4062 30.9062L43.125 30.5469ZM44.5625 33.7812L43.4844 36.2969L41.6875 37.375H39.5312L37.375 36.6562L35.9375 38.0938L36.6562 40.25V42.4062L35.2188 44.5625L33.0625 45.2812V48.1562L35.9375 49.5938L36.6562 51.3906L36.2969 53.9062L35.9375 55.3438L37.375 56.7812L39.8906 56.0625L42.4062 56.4219L43.8438 57.8594L44.5625 60.0156H47.0781L48.875 56.7812L50.6719 56.0625L53.1875 56.4219L54.625 56.7812L56.0625 55.3438L55.3438 53.1875L55.7031 50.3125L57.1406 48.875L58.9375 48.1562V45.2812L56.4219 44.2031L55.3438 42.4062V40.25L56.0625 38.0938L54.625 36.6562L52.4688 37.375H50.3125L48.1562 35.9375L47.4375 33.7812H44.5625Z" fill="#ffffff" fill-opacity="0.75"/>
<path d="M60.7344 0H75.8281L77.2656 1.4375V16.1719L75.8281 17.6094L74.75 17.9688H61.8125L60.0156 16.8906L59.2969 15.8125V1.79688L60.7344 0ZM62.5312 2.875V14.7344H74.0312V2.875H62.5312Z" fill="#ffffff" fill-opacity="0.75"/>
<path d="M16.1719 0H31.2656L32.7031 1.79688V15.8125L31.2656 17.6094L30.1875 17.9688H17.25L15.4531 17.25L14.7344 16.1719V1.4375L16.1719 0ZM17.9688 2.875V14.7344H29.4688V2.875H17.9688Z" fill="#ffffff" fill-opacity="0.75"/>
<path d="M44.9219 39.5312L48.5156 39.8906L51.75 42.0469L53.1875 45.2812V48.1562L52.1094 50.6719L50.3125 52.8281L47.7969 53.9062H44.2031L41.3281 52.4688L39.1719 49.5938L38.8125 48.1562V45.2812L40.25 42.0469L43.4844 39.8906L44.9219 39.5312ZM45.2812 42.7656L43.4844 43.8438L42.4062 44.9219L42.0469 47.7969L43.4844 49.9531L44.9219 50.6719H47.0781L49.2344 49.2344L49.9531 47.7969L49.5938 44.9219L47.7969 43.125L45.2812 42.7656Z" fill="#ffffff" fill-opacity="0.75"/>
<path d="M20.4844 5.03125H22.2812L23.7188 6.10938L25.1562 5.03125L27.3125 5.39062V7.54688L26.5938 9.34375L27.3125 10.0625V12.2188L26.9531 12.5781H24.7969L23.3594 11.8594L22.2812 12.5781H20.4844L19.7656 11.5L20.125 9.70312L20.8438 8.625L19.7656 7.1875L20.125 5.39062L20.4844 5.03125Z" fill="#ffffff" fill-opacity="0.75"/>
<path d="M71.1562 5.03125L73.3125 5.39062L73.6719 6.82812L72.5938 8.625L69 12.2188L66.4844 12.5781L63.25 9.34375V7.1875L65.0469 6.46875L67.5625 8.26562L70.4375 5.39062L71.1562 5.03125Z" fill="#ffffff" fill-opacity="0.75"/>
</svg>
