<svg width="92" height="92" viewBox="0 0 92 92" fill="none" xmlns="http://www.w3.org/2000/svg">
<path d="M40.25 0H51.75L53.9062 1.79688L54.2656 2.875V6.82812L57.1406 7.54688L61.4531 9.34375L63.6094 10.0625L66.4844 7.54688H70.0781L72.9531 10.0625L77.625 14.7344L78.3438 16.1719V18.3281L76.9062 20.4844L75.4688 21.9219L76.1875 24.0781L77.9844 28.0312L78.7031 30.1875V31.625H83.375L85.5312 33.4219L85.8906 34.5V44.5625L84.8125 46.7188L83.0156 47.7969H78.7031L77.9844 51.0312L76.9062 53.1875H75.1094L74.3906 52.4688L74.75 49.9531L76.1875 45.2812L77.2656 44.5625L82.2969 44.2031V34.8594L76.9062 34.5L75.8281 33.0625L74.0312 27.3125L71.5156 22.6406L71.875 20.8438L74.3906 18.3281L74.75 16.5312L69.3594 11.1406L67.9219 10.7812L64.6875 14.0156H62.5312L58.9375 11.8594L53.9062 10.0625L51.3906 9.34375L51.0312 8.625L50.6719 3.23438H41.3281L40.9688 8.625L39.8906 9.70312L34.8594 11.1406L29.8281 13.6562L29.4688 14.0156H27.3125L24.0781 10.7812L22.2812 11.5L17.25 16.5312L17.6094 18.3281L20.4844 21.2031L20.125 23.3594L17.25 29.1094L15.8125 33.7812L15.0938 34.5L9.70312 34.8594V44.2031L14.7344 44.5625L15.8125 45.2812L17.9688 51.75L20.4844 56.4219V58.2188L17.25 61.4531L17.6094 62.8906L23 68.2812L24.7969 67.9219L27.6719 65.0469L29.8281 65.4062L35.5781 68.2812L40.25 69.7188L40.9688 70.4375L41.3281 75.8281H50.6719L51.0312 70.4375L52.8281 69.3594L58.2188 67.5625L62.8906 65.0469L64.6875 65.4062L67.5625 68.2812L69.3594 67.9219L74.75 62.5312L74.3906 61.0938L71.5156 58.2188V56.4219L72.2344 55.7031L74.3906 56.0625L77.2656 58.9375L78.3438 61.0938L77.9844 63.9688L74.75 67.5625L71.5156 70.7969L69.3594 71.875L69 78.3438L75.1094 77.9844L76.5469 76.1875L78.3438 75.4688L81.2188 75.8281L83.0156 77.625L83.375 78.3438V81.2188L82.2969 83.0156L79.7812 84.0938L76.5469 83.375L75.4688 81.9375V81.2188H66.8438L66.125 80.8594L65.7656 71.1562L63.25 69L61.0938 69.7188L61.4531 84.0938L63.25 85.8906L63.6094 86.6094V89.4844L61.8125 91.6406L61.0938 92H57.5L55.7031 90.2031L55.3438 89.4844V86.6094L56.4219 84.8125L57.5 84.0938L57.8594 71.5156L55.7031 72.2344H54.2656V76.1875L53.1875 78.3438L51.3906 79.0625V91.6406L51.0312 92H48.875L48.5156 91.6406V79.4219H43.4844L43.8438 84.0938L45.6406 85.5312L46 86.25V89.8438L44.2031 91.6406L43.8438 92H40.25L38.0938 90.2031L37.7344 89.125V86.6094L39.1719 84.4531L39.8906 84.0938V79.0625L38.0938 77.2656L37.7344 76.1875V72.2344L34.5 71.5156V88.4062L33.7812 89.4844L26.5938 89.8438L25.1562 91.6406L24.4375 92H20.8438L19.0469 90.5625L18.3281 89.125L18.6875 85.8906L20.4844 84.0938L23.7188 83.7344L25.5156 84.8125L26.5938 86.25L31.2656 86.6094L30.9062 70.0781L28.3906 69L26.2344 71.1562L25.875 80.8594L25.1562 81.2188H16.5312L15.8125 83.0156L13.2969 84.0938L10.7812 83.7344L8.98438 81.9375L8.625 81.2188V78.3438L9.70312 76.5469L11.8594 75.4688L14.7344 75.8281L16.5312 77.625V78.3438H23L22.6406 71.875L20.125 70.4375L17.6094 67.9219V67.2031H16.8906V66.4844H16.1719V65.7656L15.0938 65.4062L13.6562 62.8906L14.0156 60.0156L16.5312 57.1406L15.8125 55.3438L13.6562 49.9531L13.2969 47.7969H8.98438L6.82812 46.3594L6.10938 44.5625V34.5L7.1875 32.7031L8.625 31.625H13.2969L13.6562 29.1094L15.4531 24.7969L16.5312 22.6406L15.8125 21.2031L14.0156 19.0469L13.6562 18.3281V16.1719L15.0938 14.0156L21.2031 7.90625L21.9219 7.54688H25.5156L28.3906 10.0625L30.5469 9.34375L34.8594 7.54688L37.7344 6.82812V2.875L38.8125 1.07812L40.25 0ZM12.2188 78.7031L11.8594 80.5L13.2969 80.8594L14.0156 79.4219L13.2969 78.7031H12.2188ZM78.7031 78.7031L77.9844 80.1406L78.7031 80.8594L80.1406 80.5L79.7812 78.7031H78.7031ZM21.9219 86.9688L21.5625 88.7656L23 89.125L23.7188 88.4062L23.3594 86.9688H21.9219ZM41.3281 86.9688L40.9688 88.7656L42.4062 89.125L43.125 87.6875L42.7656 86.9688H41.3281ZM58.9375 86.9688L58.2188 88.4062L58.9375 89.125L60.375 88.7656L60.7344 87.6875L60.0156 86.9688H58.9375Z" fill="#5F56AF" fill-opacity="0.75"/>
<path d="M44.5625 24.4375H47.4375L51.75 25.5156L54.625 26.9531L57.8594 29.8281L60.0156 33.4219L61.0938 37.375V41.6875L59.6562 46.3594L57.5 49.5938L54.2656 52.4688L50.3125 54.2656L48.5156 54.625H43.125L39.1719 53.1875L35.9375 51.0312L33.0625 47.7969L31.625 44.9219L31.2656 42.0469L31.9844 41.3281H33.7812L35.2188 44.5625L37.7344 48.1562L40.9688 50.3125L44.9219 51.3906L48.875 51.0312L52.1094 49.5938L54.9844 47.4375L56.7812 44.5625L57.5 42.4062V37.0156L56.0625 33.4219L53.5469 30.5469L50.6719 28.75L48.5156 28.0312H43.4844L39.1719 29.8281L36.2969 32.7031L34.8594 35.5781L34.1406 37.375L32.7031 38.0938L31.625 37.7344L31.2656 35.5781L32.7031 31.9844L35.2188 28.75L38.4531 26.2344L42.4062 24.7969L44.5625 24.4375Z" fill="#5F56AF" fill-opacity="0.75"/>
<path d="M54.625 12.5781L56.7812 12.9375V15.0938L56.0625 16.1719L60.0156 18.3281L63.9688 21.5625L66.4844 24.4375L69.3594 29.4688L70.7969 34.1406L71.1562 35.9375V43.125L69.7188 48.875L66.8438 54.2656L62.8906 58.5781L58.9375 61.4531L55.3438 63.25L52.1094 64.3281L49.5938 63.9688L49.2344 62.5312L50.6719 61.0938L54.9844 59.6562L59.2969 57.1406L62.5312 54.2656L65.7656 49.2344L67.2031 45.2812L67.9219 41.3281V37.7344L66.8438 32.7031L63.9688 26.9531L60.7344 23.3594L57.5 20.8438L54.625 19.4062V21.9219L54.2656 22.2812H52.1094L49.2344 16.5312L50.3125 14.7344L54.625 12.5781Z" fill="#5F56AF" fill-opacity="0.75"/>
<path d="M40.6094 14.7344L42.4062 15.4531V17.6094L36.6562 19.7656L32.3438 22.2812L28.75 25.875L26.5938 29.4688L24.7969 33.7812L24.0781 37.7344V41.3281L25.1562 46.3594L26.9531 50.6719L30.1875 54.9844L33.7812 57.8594L38.4531 60.375L38.0938 57.1406L38.8125 56.4219L40.6094 56.7812L41.6875 58.9375L42.4062 61.4531V63.9688L38.8125 65.4062L35.2188 65.7656L34.8594 65.4062V63.25V62.5312L30.9062 60.0156L27.3125 56.7812L24.4375 53.1875L21.9219 47.7969L20.8438 43.125V35.9375L22.2812 30.5469L24.7969 25.5156L28.0312 21.5625L31.9844 18.3281L37.0156 15.8125L40.6094 14.7344Z" fill="#5F56AF" fill-opacity="0.75"/>
<path d="M51.3906 33.7812H53.1875L53.9062 35.5781L51.3906 38.4531L44.5625 45.2812L42.7656 45.6406L38.8125 41.6875L38.0938 39.5312L38.8125 38.4531H40.6094L43.125 41.3281L44.5625 40.6094L51.3906 33.7812Z" fill="#5F56AF" fill-opacity="0.75"/>
</svg>
