<svg width="32" height="33" viewBox="0 0 32 33" fill="none" xmlns="http://www.w3.org/2000/svg">
<path fill-rule="evenodd" clip-rule="evenodd" d="M5.74591 0.0896617C5.24908 0.187298 4.62248 0.525489 4.2111 0.9181C3.5657 1.53406 3.20591 2.38224 3.20591 3.28751V3.72854L2.73934 3.80076C0.998774 4.07033 -0.209973 5.70646 0.0569047 7.43163C0.260195 8.74572 1.32391 9.85019 2.61657 10.0893C2.85918 10.1342 4.99287 10.1517 8.74615 10.1397L14.5035 10.1212L14.9488 9.91015C15.5515 9.62444 15.9515 9.23917 16.2358 8.67056C16.3645 8.41319 16.4698 8.16163 16.4698 8.11155C16.4698 8.03752 16.7258 8.02045 17.8362 8.02045H19.2025V8.37985C19.2025 8.97127 19.3066 9.04716 20.1727 9.08751C20.8542 9.11925 20.8949 9.12946 21.0218 9.29999C21.2031 9.54354 21.1119 9.74995 20.5988 10.2581C20.2641 10.5894 20.2023 10.6871 20.2023 10.8852C20.2023 11.0972 20.2874 11.2051 21.0846 12.0044C21.8851 12.8069 21.9887 12.8889 22.2031 12.8889C22.4033 12.8889 22.4993 12.8283 22.8317 12.4922C23.3395 11.9788 23.5458 11.8876 23.7892 12.0689C23.9596 12.196 23.9698 12.2367 24.0015 12.9186C24.0419 13.7852 24.1177 13.8893 24.7088 13.8893H25.068V16.6236C25.068 19.0603 25.0567 19.358 24.9637 19.358C24.9063 19.358 24.6963 19.5211 24.4971 19.7204C24.2979 19.9198 24.1348 20.1298 24.1348 20.1873C24.1348 20.2796 23.9114 20.2916 22.2019 20.2916H20.269V16.448C20.269 13.625 20.2475 12.5314 20.1879 12.3298C20.0798 11.9634 19.5276 11.411 19.1615 11.3027C18.7642 11.1853 1.51133 11.1853 1.11408 11.3027C0.74796 11.411 0.195809 11.9634 0.0876316 12.3298C-0.0292105 12.7255 -0.0292105 25.1901 0.0876316 25.5859C0.195809 25.9522 0.74796 26.5047 1.11408 26.6129C1.31191 26.6714 2.23678 26.694 4.43005 26.694H7.47168V28.0278V29.3616H6.83548C6.2488 29.3616 6.18648 29.3744 6.03565 29.5254C5.87635 29.6847 5.87202 29.7158 5.87202 30.6955C5.87202 31.6751 5.87635 31.7062 6.03565 31.8656L6.19921 32.0293H10.1378H14.0764L14.2399 31.8656C14.3992 31.7062 14.4036 31.6751 14.4036 30.6955C14.4036 29.7158 14.3992 29.6847 14.2399 29.5254C14.0891 29.3744 14.0268 29.3616 13.4401 29.3616H12.8039V28.0278V26.694H15.8455C18.0388 26.694 18.9637 26.6714 19.1615 26.6129C19.5276 26.5047 20.0798 25.9522 20.1879 25.5859C20.2436 25.3974 20.269 24.6918 20.269 23.335V21.3587H22.2019C23.9114 21.3587 24.1348 21.3708 24.1348 21.4631C24.1348 21.6447 24.8109 22.2565 25.109 22.3447C25.734 22.5294 26.2322 22.3991 26.7032 21.9278C27.1743 21.4565 27.3044 20.958 27.1198 20.3327C27.0317 20.0344 26.4203 19.358 26.2387 19.358C26.1458 19.358 26.1344 19.0603 26.1344 16.6236V13.8893H26.4936C27.0847 13.8893 27.1605 13.7852 27.2009 12.9186C27.2326 12.2367 27.2428 12.196 27.4132 12.0689C27.6566 11.8876 27.8629 11.9788 28.3708 12.4922C28.7019 12.8271 28.7995 12.8889 28.9975 12.8889C29.2094 12.8889 29.3172 12.8038 30.1161 12.0062C30.9182 11.2052 31.0001 11.1015 31.0001 10.887C31.0001 10.6867 30.9395 10.5906 30.6036 10.2581C30.0905 9.74995 29.9993 9.54354 30.1806 9.29999C30.3075 9.12946 30.3482 9.11925 31.0297 9.08751C32.0341 9.04069 31.9999 9.09711 31.9999 7.48692C31.9999 5.87673 32.0341 5.93315 31.0297 5.88633C30.3482 5.85459 30.3075 5.84438 30.1806 5.67385C29.9993 5.4303 30.0905 5.22389 30.6036 4.71577C30.9395 4.38324 31.0001 4.28714 31.0001 4.0868C31.0001 3.87232 30.9182 3.76862 30.1161 2.96766C29.3172 2.17003 29.2094 2.08493 28.9975 2.08493C28.7995 2.08493 28.7019 2.14675 28.3708 2.48161C27.8629 2.995 27.6566 3.08623 27.4132 2.9049C27.2428 2.77785 27.2326 2.73717 27.2009 2.05525C27.1541 1.05035 27.2105 1.08456 25.6012 1.08456C23.9919 1.08456 24.0483 1.05035 24.0015 2.05525C23.9698 2.73717 23.9596 2.77785 23.7892 2.9049C23.5458 3.08623 23.3395 2.995 22.8317 2.48161C22.4993 2.14555 22.4033 2.08493 22.2031 2.08493C21.9887 2.08493 21.8851 2.16689 21.0846 2.96946C20.2874 3.76875 20.2023 3.87666 20.2023 4.08867C20.2023 4.28674 20.2641 4.38444 20.5988 4.71577C21.1119 5.22389 21.2031 5.4303 21.0218 5.67385C20.8949 5.84438 20.8542 5.85459 20.1727 5.88633C19.3066 5.92668 19.2025 6.00257 19.2025 6.59399V6.95339H17.8362C16.7258 6.95339 16.4698 6.93632 16.4698 6.86229C16.4698 6.8122 16.3645 6.56065 16.2358 6.30328C15.787 5.40562 14.9879 4.89497 13.9385 4.83508L13.3502 4.80153L13.3055 4.44273C13.2441 3.95122 12.8698 3.22982 12.4986 2.88743C12.3314 2.73324 11.9943 2.51275 11.7494 2.39745C11.3287 2.19937 11.2528 2.18643 10.3681 2.16269L9.43207 2.13748L9.21438 1.71739C8.57965 0.492477 7.13835 -0.183972 5.74591 0.0896617ZM5.73904 1.19173C4.81897 1.52626 4.27235 2.31982 4.27235 3.32105V3.75221H4.80557H5.33879V4.28081V4.80947L3.98908 4.83154C2.71161 4.85242 2.6215 4.86242 2.3061 5.01828C1.88046 5.22855 1.48101 5.62864 1.27305 6.05306C1.03843 6.53183 1.03843 7.37495 1.27305 7.85372C1.48087 8.27781 1.88012 8.67796 2.3061 8.88904L2.63936 9.05416L8.33816 9.0735C12.7041 9.08838 14.1071 9.07364 14.3369 9.01055C14.7268 8.90344 15.2746 8.36658 15.389 7.97937C15.5736 7.35407 15.4434 6.85555 14.9724 6.38425C14.5512 5.96283 14.3008 5.88633 13.343 5.88633C12.6407 5.88633 12.5885 5.87693 12.4343 5.7226C12.2909 5.57922 12.2707 5.49959 12.2707 5.0801C12.2707 4.43933 12.1682 4.13435 11.824 3.75141C11.4458 3.33052 11.1174 3.21868 10.2592 3.21868H9.60457V4.01898V4.81927H9.07708H8.54959L8.52559 3.73554C8.50373 2.74751 8.48713 2.62233 8.33816 2.31835C8.12808 1.88972 7.72663 1.49011 7.30505 1.28997C6.86994 1.08336 6.15969 1.03881 5.73904 1.19173ZM25.0665 2.50175C25.0628 3.39148 24.4279 4.04605 23.5683 4.04652C23.1091 4.04679 22.8282 3.92534 22.4507 3.56341L22.1995 3.32259L21.8194 3.70293L21.4393 4.0832L21.68 4.33456C22.0417 4.7123 22.1631 4.99333 22.1628 5.45284C22.1623 6.31295 21.5081 6.94819 20.6189 6.95192L20.269 6.95339V7.48692V8.02045L20.6189 8.02192C21.5081 8.02565 22.1623 8.66089 22.1628 9.521C22.1631 9.9805 22.0417 10.2615 21.68 10.6393L21.4393 10.8906L21.8194 11.2709L22.1995 11.6513L22.4507 11.4104C22.8282 11.0485 23.1091 10.9271 23.5683 10.9273C24.4279 10.9278 25.0628 11.5824 25.0665 12.4721L25.068 12.8222H25.6012H26.1344V12.5132C26.1344 11.5809 26.752 10.9278 27.6341 10.9273C28.0933 10.9271 28.3742 11.0485 28.7517 11.4104L29.003 11.6513L29.383 11.2709L29.7631 10.8906L29.5224 10.6393C29.1607 10.2615 29.0394 9.9805 29.0396 9.521C29.0401 8.63841 29.6928 8.02045 30.6245 8.02045H30.9334V7.48692V6.95339L30.5835 6.95192C29.6943 6.94819 29.0401 6.31295 29.0396 5.45284C29.0394 4.99333 29.1607 4.7123 29.5224 4.33456L29.7631 4.0832L29.383 3.70293L29.003 3.32259L28.7517 3.56341C28.3742 3.92534 28.0933 4.04679 27.6341 4.04652C26.7745 4.04605 26.1396 3.39148 26.1359 2.50175L26.1344 2.15162H25.6012H25.068L25.0665 2.50175ZM25.0902 5.41256C24.6952 5.51453 24.1712 5.86225 23.9243 6.18617C23.4014 6.87216 23.3347 7.72581 23.7439 8.49389C23.9824 8.94179 24.1951 9.1458 24.6943 9.40529C24.9845 9.55622 25.118 9.58229 25.6012 9.58229C26.0844 9.58229 26.2179 9.55622 26.5081 9.40529C27.0104 9.14413 27.2196 8.94206 27.4718 8.47402C27.6792 8.08921 27.6982 8.00604 27.6968 7.48692C27.6956 7.00521 27.6688 6.86889 27.5185 6.57945C27.2587 6.07933 27.0552 5.86719 26.6045 5.62683C26.1716 5.39588 25.5147 5.30298 25.0902 5.41256ZM25.1646 6.51369C24.4922 6.80674 24.3333 7.7012 24.8602 8.22839C25.2925 8.66095 25.9099 8.66095 26.3423 8.22839C27.1695 7.40062 26.2388 6.04552 25.1646 6.51369ZM1.23666 12.4524C1.07902 12.6101 1.07302 12.6492 1.07302 13.5195V14.4228H10.1378H19.2025V13.5195C19.2025 12.6492 19.1966 12.6101 19.0389 12.4524L18.8754 12.2887H10.1378H1.40022L1.23666 12.4524ZM1.76988 12.9859C1.6667 13.0891 1.60625 13.2258 1.60625 13.3557C1.60625 13.4857 1.6667 13.6224 1.76988 13.7256C2.10048 14.0564 2.67269 13.822 2.67269 13.3557C2.67269 13.0816 2.41348 12.8222 2.13947 12.8222C2.00963 12.8222 1.87299 12.8827 1.76988 12.9859ZM3.36954 12.9859C3.26636 13.0891 3.20591 13.2258 3.20591 13.3557C3.20591 13.4857 3.26636 13.6224 3.36954 13.7256C3.47265 13.8288 3.60929 13.8893 3.73913 13.8893C3.86897 13.8893 4.00561 13.8288 4.10872 13.7256C4.2119 13.6224 4.27235 13.4857 4.27235 13.3557C4.27235 13.2258 4.2119 13.0891 4.10872 12.9859C4.00561 12.8827 3.86897 12.8222 3.73913 12.8222C3.60929 12.8222 3.47265 12.8827 3.36954 12.9859ZM4.96921 12.9859C4.86603 13.0891 4.80557 13.2258 4.80557 13.3557C4.80557 13.4857 4.86603 13.6224 4.96921 13.7256C5.07232 13.8288 5.20896 13.8893 5.33879 13.8893C5.46863 13.8893 5.60527 13.8288 5.70838 13.7256C5.81156 13.6224 5.87202 13.4857 5.87202 13.3557C5.87202 13.2258 5.81156 13.0891 5.70838 12.9859C5.60527 12.8827 5.46863 12.8222 5.33879 12.8222C5.20896 12.8222 5.07232 12.8827 4.96921 12.9859ZM1.07302 20.3947V25.2995L1.23666 25.4632L1.40022 25.6269H10.1378H18.8754L19.0389 25.4632L19.2025 25.2995V20.3947V15.4899H10.1378H1.07302V20.3947ZM9.67122 20.2957C8.80973 22.1675 8.09648 23.7228 8.08628 23.7518C8.06755 23.8049 8.99589 24.2614 9.03195 24.2168C9.08321 24.1535 12.205 17.3362 12.189 17.3223C12.1338 17.2741 11.3331 16.8905 11.2895 16.8914C11.2609 16.8919 10.5327 18.4238 9.67122 20.2957ZM6.00532 19.1208C5.34819 19.6147 4.88156 20.0129 4.84597 20.1101C4.72086 20.4522 4.8289 20.5778 6.00672 21.4598C6.63146 21.9276 7.15795 22.2951 7.17661 22.2764C7.28412 22.1688 7.73829 21.5261 7.73829 21.4815C7.73829 21.4523 7.41582 21.1854 7.02177 20.8885C6.62772 20.5917 6.30526 20.323 6.30526 20.2916C6.30526 20.2602 6.62999 19.9899 7.02691 19.6909C7.49627 19.3373 7.73609 19.1149 7.71303 19.0548C7.66477 18.9289 7.18547 18.2905 7.14088 18.2926C7.12115 18.2935 6.61019 18.6662 6.00532 19.1208ZM12.8485 18.6266C12.7108 18.8112 12.5821 19.0038 12.5625 19.0548C12.5395 19.1149 12.7793 19.3373 13.2487 19.6909C13.6456 19.9899 13.9703 20.2602 13.9703 20.2916C13.9703 20.323 13.6479 20.5917 13.2538 20.8885C12.8597 21.1854 12.5373 21.4523 12.5373 21.4815C12.5373 21.5261 12.9915 22.1688 13.099 22.2764C13.1176 22.2951 13.6441 21.9276 14.2689 21.4598C15.8587 20.2693 15.8585 20.3138 14.2809 19.1325C13.6627 18.6696 13.144 18.2909 13.128 18.2909C13.112 18.2909 12.9863 18.442 12.8485 18.6266ZM25.2316 20.4554C25.1284 20.5585 25.068 20.6953 25.068 20.8252C25.068 20.9551 25.1284 21.0918 25.2316 21.195C25.3347 21.2982 25.4714 21.3587 25.6012 21.3587C25.731 21.3587 25.8677 21.2982 25.9708 21.195C26.074 21.0918 26.1344 20.9551 26.1344 20.8252C26.1344 20.6953 26.074 20.5585 25.9708 20.4554C25.8677 20.3521 25.731 20.2916 25.6012 20.2916C25.4714 20.2916 25.3347 20.3521 25.2316 20.4554ZM8.53812 28.0278V29.3616H10.1378H11.7375V28.0278V26.694H11.2042H10.671V27.3306C10.671 27.9176 10.6583 27.9799 10.5074 28.1309C10.4043 28.2341 10.2676 28.2946 10.1378 28.2946C10.0079 28.2946 9.87131 28.2341 9.7682 28.1309C9.6173 27.9799 9.60457 27.9176 9.60457 27.3306V26.694H9.07134H8.53812V28.0278ZM6.93846 30.6955V30.9622H10.1378H13.3371V30.6955V30.4287H10.1378H6.93846V30.6955Z" fill="#444444"/>
</svg>
