<svg width="92" height="92" viewBox="0 0 92 92" fill="none" xmlns="http://www.w3.org/2000/svg">
<path d="M15.8125 0H76.1875L79.0625 1.4375L81.2188 4.3125L81.9375 6.82812V16.5312H86.9688L89.4844 17.9688L90.5625 20.125V76.9062L89.4844 79.0625L86.9688 80.5H54.2656L55.3438 86.25L56.4219 88.4062L58.2188 89.4844L58.5781 91.2812L58.2188 92H34.1406L33.4219 91.2812L33.7812 89.4844L35.9375 88.0469L37.0156 85.1719L37.7344 80.5H5.03125L2.51562 79.0625L1.4375 76.9062V20.125L2.875 17.6094L5.03125 16.5312H10.0625V6.46875L11.5 2.875L14.0156 0.71875L15.8125 0ZM16.5312 2.875L14.375 4.3125L13.2969 5.75L12.9375 6.82812V12.2188H79.0625V7.1875L77.9844 4.67188L76.1875 3.23438L75.4688 2.875H16.5312ZM12.9375 15.0938V58.5781L13.6562 59.2969H78.3438L79.0625 58.5781V15.0938H12.9375ZM5.75 19.4062L4.3125 20.8438V65.4062H87.6875V20.8438L86.25 19.4062H81.9375L81.5781 58.9375L80.5 61.0938L79.4219 61.8125H12.5781L10.7812 60.0156L10.4219 58.9375L10.0625 19.4062H5.75ZM4.3125 67.9219V76.1875L5.75 77.625H86.25L87.6875 76.1875V67.9219H4.3125ZM40.6094 80.5L40.25 84.0938H51.75L51.3906 80.5H40.6094ZM39.5312 86.9688L39.1719 89.125H53.1875L52.4688 86.9688H39.5312Z" fill="#5F56AF" fill-opacity="0.75"/>
<path d="M19.0469 39.1719H46L47.0781 39.8906V54.9844L46.3594 55.3438H18.3281L17.6094 54.2656V40.6094L17.9688 39.5312L19.0469 39.1719ZM20.4844 42.0469V52.4688H44.2031V42.0469H20.4844Z" fill="#5F56AF" fill-opacity="0.75"/>
<path d="M62.1719 19.4062H75.1094L75.4688 19.7656V34.8594L75.1094 35.2188H62.5312L61.8125 34.8594V19.7656L62.1719 19.4062ZM64.6875 21.9219V32.3438H72.5938V21.9219H64.6875Z" fill="#5F56AF" fill-opacity="0.75"/>
<path d="M53.1875 52.4688H75.1094L75.4688 52.8281V54.9844L74.75 55.3438H53.1875L52.4688 54.625L52.8281 52.8281L53.1875 52.4688Z" fill="#5F56AF" fill-opacity="0.75"/>
<path d="M52.8281 46H75.1094L75.4688 46.3594V48.1562L74.75 48.875H53.5469L52.4688 48.1562L52.8281 46Z" fill="#5F56AF" fill-opacity="0.75"/>
<path d="M53.5469 39.1719H74.3906L75.4688 39.8906V41.6875L75.1094 42.0469H52.8281L52.4688 41.6875V39.8906L53.5469 39.1719Z" fill="#5F56AF" fill-opacity="0.75"/>
<path d="M42.0469 32.3438H59.2969L60.0156 32.7031V34.8594L59.6562 35.2188H42.0469L41.3281 34.5L41.6875 32.7031L42.0469 32.3438Z" fill="#5F56AF" fill-opacity="0.75"/>
<path d="M31.9844 20.4844L34.1406 20.8438L39.1719 25.875L39.5312 28.0312L33.7812 33.7812H31.625L31.2656 31.9844L33.7812 29.1094L35.5781 26.9531L31.2656 22.6406L31.625 20.8438L31.9844 20.4844Z" fill="#5F56AF" fill-opacity="0.75"/>
<path d="M22.2812 20.4844L24.0781 20.8438L24.4375 21.2031V23L20.4844 26.9531L21.2031 28.3906L24.4375 31.625V33.4219L24.0781 33.7812H21.9219L16.5312 28.3906V26.2344L22.2812 20.4844Z" fill="#5F56AF" fill-opacity="0.75"/>
<path d="M28.3906 19.4062H30.1875L30.5469 19.7656V22.2812L28.0312 34.8594L25.875 35.2188L25.1562 34.5L25.5156 31.2656L27.6719 20.125L28.3906 19.4062Z" fill="#5F56AF" fill-opacity="0.75"/>
<path d="M34.5 3.95312H38.0938L39.8906 5.75V8.98438L38.4531 10.7812L37.7344 11.1406H34.8594L33.0625 9.70312L32.7031 8.98438V6.10938L34.5 3.95312ZM35.5781 6.82812L35.9375 8.26562L37.0156 7.90625V6.82812H35.5781Z" fill="#5F56AF" fill-opacity="0.75"/>
<path d="M26.2344 3.95312H29.4688L31.2656 5.75V8.98438L29.8281 10.7812L29.1094 11.1406H26.5938L24.7969 10.0625L24.0781 8.98438V6.10938L25.5156 4.3125L26.2344 3.95312ZM26.9531 6.82812L27.3125 8.26562L28.3906 7.90625V6.82812H26.9531Z" fill="#5F56AF" fill-opacity="0.75"/>
<path d="M17.6094 3.95312H20.8438L22.6406 5.75V8.98438L21.2031 10.7812L20.4844 11.1406H17.9688L16.1719 10.0625L15.4531 8.625V6.10938L16.8906 4.3125L17.6094 3.95312ZM18.6875 6.82812V8.26562L19.7656 7.90625V6.82812H18.6875Z" fill="#5F56AF" fill-opacity="0.75"/>
<path d="M42.0469 26.2344H55.7031L56.0625 26.5938V28.3906L55.3438 29.1094H42.4062L41.3281 28.3906L41.6875 26.5938L42.0469 26.2344Z" fill="#5F56AF" fill-opacity="0.75"/>
<path d="M42.4062 71.5156H49.5938L50.3125 72.2344L49.9531 74.0312L49.2344 74.3906H42.7656L41.6875 73.6719L42.0469 71.875L42.4062 71.5156Z" fill="#5F56AF" fill-opacity="0.75"/>
</svg>
