<svg width="90" height="90" viewBox="0 0 90 90" fill="none" xmlns="http://www.w3.org/2000/svg">
<path d="M6.67969 24.6094L9.49219 25.3125L11.25 27.4219V28.8281L13.3594 29.1797L17.9297 31.6406L20.3906 33.75L22.5 36.9141L23.2031 39.375V40.7812L66.4453 40.4297L67.5 36.9141L69.6094 33.75L72.4219 31.2891L77.6953 28.8281H78.75L79.1016 26.7188L81.2109 24.9609L83.3203 24.6094L85.4297 25.3125L87.1875 27.0703L87.5391 27.7734V30.2344L86.4844 32.3438L85.0781 33.3984L82.2656 33.75L80.5078 33.0469L79.4531 31.9922L76.2891 33.0469L73.125 35.1562L70.6641 37.9688L69.9609 40.7812L73.4766 42.5391L75.5859 45.7031L75.9375 46.7578V84.375L74.5312 87.1875L72.0703 89.2969L70.3125 90H19.3359L15.8203 87.8906L14.4141 85.7812L13.7109 83.3203V47.4609L15.1172 43.9453L17.9297 41.4844L20.0391 40.7812L18.9844 37.6172L16.1719 34.4531L11.25 31.9922L9.84375 32.6953L7.73438 33.75L4.92188 33.3984L3.16406 31.9922L2.46094 30.5859V27.7734L3.86719 25.6641L4.92188 24.9609L6.67969 24.6094ZM5.97656 27.7734L5.27344 29.5312L5.97656 30.5859H7.73438L8.4375 29.8828L8.08594 28.125L7.73438 27.7734H5.97656ZM82.2656 27.7734L81.5625 28.4766L81.9141 30.2344L82.2656 30.5859H84.0234L84.7266 28.8281L84.0234 27.7734H82.2656ZM20.7422 43.5938L18.2812 45L16.875 47.1094V83.6719L18.2812 85.7812L20.3906 87.1875H69.6094L71.7188 85.7812L72.7734 84.375L73.125 83.3203V47.8125L72.0703 45.7031L69.9609 43.9453L68.9062 43.5938H20.7422Z" fill="#5F56AF" fill-opacity="0.5"/>
<path d="M41.1328 0H48.8672L53.0859 1.40625L56.9531 3.86719L59.4141 6.32812L61.875 10.1953L63.2812 14.7656V21.7969L61.875 26.0156L60.1172 29.1797L56.9531 32.6953L53.0859 35.1562L48.8672 36.5625L44.6484 36.9141L39.7266 36.2109L35.5078 34.4531L32.3438 31.9922L29.5312 28.8281L27.4219 24.6094L26.7188 22.5L26.3672 20.0391V16.1719L27.4219 11.9531L29.5312 7.73438L32.6953 4.21875L36.2109 1.75781L39.7266 0.351562L41.1328 0ZM42.1875 2.8125L37.9688 4.21875L34.4531 6.67969L31.6406 9.84375L29.8828 13.7109L29.5312 15.1172V21.4453L31.2891 26.0156L33.75 29.1797L36.2109 31.2891L39.7266 33.0469L42.1875 33.75H47.8125L51.6797 32.3438L55.1953 30.2344L58.0078 27.0703L59.7656 23.5547L60.4688 20.7422V15.8203L59.4141 12.3047L57.6562 9.14062L55.1953 6.32812L51.3281 3.86719L47.8125 2.8125H42.1875Z" fill="#5F56AF" fill-opacity="0.5"/>
<path d="M30.5859 70.3125H59.4141L61.875 71.7188L62.9297 73.4766L63.2812 75.9375L62.5781 78.3984L60.8203 80.1562L59.4141 80.8594H30.5859L28.125 79.4531L26.7188 76.6406L27.0703 73.4766L28.4766 71.3672L30.5859 70.3125ZM31.2891 73.125L29.8828 74.5312V76.6406L31.6406 78.0469H32.6953V73.125H31.2891ZM35.5078 73.125V78.0469H39.7266V73.125H35.5078ZM42.8906 73.125V78.0469H47.1094V73.125H42.8906ZM50.2734 73.125V78.0469H54.1406V73.125H50.2734ZM57.3047 73.125V78.0469L59.0625 77.6953L60.1172 76.6406V74.5312L58.7109 73.125H57.3047Z" fill="#5F56AF" fill-opacity="0.5"/>
<path d="M38.6719 9.49219L40.4297 9.84375L40.7812 10.1953V11.9531L40.4297 12.3047L50.2734 12.6562L53.0859 13.7109L55.5469 16.5234L56.25 18.6328V21.0938L55.1953 23.9062L53.7891 25.6641L52.0312 26.7188L50.625 27.0703H39.7266L39.0234 26.7188L38.6719 25.3125L39.375 24.2578L48.8672 23.9062L51.3281 23.2031L52.7344 21.4453L53.0859 19.6875L52.0312 17.2266L50.2734 16.1719H40.0781L40.7812 16.875V18.6328L40.0781 19.3359L37.9688 18.9844L33.75 15.1172L34.1016 13.3594L38.6719 9.49219Z" fill="#5F56AF" fill-opacity="0.5"/>
<path d="M53.7891 48.8672H58.3594L60.4688 50.2734L61.875 52.0312L62.5781 53.7891V59.0625L61.1719 61.875L59.0625 63.6328L58.0078 63.9844H54.1406L52.0312 62.9297L50.2734 60.8203L49.5703 58.7109V54.1406L50.625 51.3281L53.0859 49.2188L53.7891 48.8672ZM54.8438 51.6797L53.0859 53.0859L52.7344 55.5469L56.9531 55.1953L59.4141 55.5469L59.0625 53.0859L57.3047 51.6797H54.8438ZM54.1406 58.0078L53.0859 58.7109L53.4375 60.1172L55.1953 61.1719L57.6562 60.8203L59.0625 59.4141L58.7109 58.3594L58.0078 58.0078H54.1406Z" fill="#5F56AF" fill-opacity="0.5"/>
<path d="M31.6406 48.8672H36.2109L38.3203 50.2734L39.7266 52.0312L40.0781 53.0859V59.7656L38.6719 62.2266L36.9141 63.6328L35.8594 63.9844H31.6406L29.5312 62.5781L28.125 60.8203L27.4219 59.0625V53.7891L28.8281 50.9766L30.9375 49.2188L31.6406 48.8672ZM32.6953 51.6797L30.9375 53.0859L30.5859 55.5469L34.8047 55.1953L37.2656 55.5469L36.9141 53.0859L35.1562 51.6797H32.6953ZM31.9922 58.0078L30.9375 58.7109L31.2891 60.1172L33.0469 61.1719L35.5078 60.8203L36.9141 59.4141L36.5625 58.3594L35.8594 58.0078H31.9922Z" fill="#5F56AF" fill-opacity="0.5"/>
</svg>
