<svg width="90" height="90" viewBox="0 0 90 90" fill="none" xmlns="http://www.w3.org/2000/svg">
<g clip-path="url(#clip0_3178_7623)">
<path d="M5.76 0H84.24L86.22 0.54L87.84 1.8L89.1 3.24L89.82 5.04L90 5.76V84.24L89.46 86.04L88.38 87.66L86.76 89.1L85.68 89.64L84.24 90H5.76L3.78 89.46L2.16 88.2L0.9 86.76L0.18 84.96L0 84.24V5.76L0.54 3.96L1.62 2.34L3.24 0.9L5.04 0.18L5.76 0ZM6.48 3.24L5.04 3.96L4.14 4.86L3.42 5.94L3.24 6.48V83.52L3.96 84.96L4.86 85.86L5.94 86.58L6.48 86.76H83.52L84.96 86.04L85.86 85.14L86.58 84.06L86.76 83.52V6.48L86.04 5.04L85.14 4.14L84.06 3.42L83.52 3.24H6.48Z" fill="#5F56AF" fill-opacity="0.5"/>
<path d="M24.8389 19.2598H26.0989L27.8989 19.7998L29.5189 21.2398L30.0589 22.8598V25.0198L29.3389 26.9998L28.0789 28.0798L27.3589 28.4398L27.1789 29.8798H38.3389L40.8589 30.5998L42.4789 32.0398L43.5589 34.1998L43.7389 34.9198V52.0198L43.0189 53.9998L41.9389 55.4398L40.4989 56.5198L39.2389 57.0598L37.6189 57.2398V59.9398H40.1389L41.7589 60.4798L43.0189 61.7398L43.7389 63.5398V67.6798L43.1989 70.7398L42.4789 72.8998L41.3989 75.0598L39.5989 77.5798L37.7989 79.5598L36.3589 80.6398L35.6389 81.3598L34.3789 82.0798L32.0389 82.9798L29.1589 83.8798L27.8989 84.0598H23.0389L19.9789 83.3398L17.6389 82.4398L15.4789 81.3598L13.4989 79.7398L12.4189 78.8398L10.7989 76.8598L9.17891 74.3398L8.27891 72.3598L7.91891 71.2798L7.37891 67.4998V63.7198L7.91891 61.9198L9.17891 60.4798L10.7989 59.9398H13.3189V57.2398L11.1589 56.8798L9.35891 55.7998L8.09891 54.3598L7.37891 52.0198V35.0998L8.09891 32.5798L9.53891 30.9598L10.4389 30.4198L12.5989 29.8798H23.7589L23.5789 28.4398L22.8589 28.0798V27.7198L22.1389 27.3598L21.2389 26.0998L20.8789 25.0198V22.8598L21.7789 21.0598L23.2189 19.7998L24.8389 19.2598ZM24.8389 22.6798L24.1189 23.5798L24.2989 24.6598L24.8389 25.1998L25.5589 25.3798L26.4589 24.8398L26.8189 24.2998L26.6389 23.2198L26.0989 22.6798H24.8389ZM13.1389 33.1198L11.6989 33.8398L10.9789 34.7398L10.6189 35.6398V51.4798L11.3389 52.9198L13.1389 53.8198H13.6789L14.5789 52.9198L15.2989 52.5598H16.7389L19.9789 53.4598L23.2189 54.5398L24.2989 53.9998H26.6389L27.7189 54.3598L28.9789 54.1798L32.0389 53.0998L34.1989 52.5598H35.6389L36.7189 53.0998L37.2589 53.8198L38.5189 53.6398L39.7789 52.7398L40.3189 51.4798V35.4598L39.7789 34.3798L38.5189 33.2998L37.7989 33.1198H13.1389ZM16.5589 55.9798V61.0198L20.5189 59.9398L21.0589 59.5798V57.4198L19.2589 56.6998L17.0989 55.9798H16.5589ZM33.8389 55.9798L30.2389 57.2398L30.0589 57.4198L29.8789 59.7598L31.4989 60.2998L33.6589 60.8398L34.3789 61.0198V55.9798H33.8389ZM25.0189 57.2398L24.1189 58.1398L24.2989 59.2198L25.1989 59.9398L26.0989 59.7598L26.8189 59.0398L26.6389 57.7798L25.9189 57.2398H25.0189ZM22.8589 62.4598L17.0989 64.4398H15.1189L14.0389 63.7198L13.6789 63.1798H11.5189L10.6189 64.2598V67.1398L11.1589 70.0198L12.2389 72.7198L13.8589 75.2398L15.4789 77.0398L17.9989 78.8398L20.6989 80.0998L23.5789 80.8198H27.3589L30.4189 80.0998L33.2989 78.6598L35.6389 76.8598L36.7189 75.7798V75.4198L37.4389 75.0598L39.2389 71.6398L40.1389 68.5798L40.3189 67.3198V64.2598L39.7789 63.3598L39.4189 63.1798H37.2589L36.7189 64.0798L35.9989 64.4398H33.8389L27.8989 62.4598L26.2789 62.9998H24.6589L22.8589 62.4598Z" fill="#5F56AF" fill-opacity="0.5"/>
<path d="M51.8389 58.3203H77.0389L78.8389 58.8603L80.2789 60.1203L81.1789 61.7403V79.2003L80.4589 80.8203L79.1989 82.0803L77.2189 82.6203H51.8389L49.8589 82.0803L48.9589 81.3603L48.0589 79.9203L47.8789 79.3803V61.7403L48.4189 60.4803L49.8589 59.0403L51.8389 58.3203ZM52.1989 61.5603L51.2989 62.4603V72.5403L52.0189 73.2603L52.3789 73.4403H76.4989L77.3989 72.9003L77.7589 72.5403V62.4603L76.6789 61.5603H52.1989ZM51.2989 76.5003V78.4803L52.1989 79.3803H76.6789L77.3989 79.0203L77.7589 78.4803V76.5003H51.2989Z" fill="#5F56AF" fill-opacity="0.5"/>
<path d="M64.2614 19.2598H76.6814L78.4814 19.6198L79.9214 20.6998L80.6414 21.5998L81.1814 22.8598V52.1998L80.2814 53.9998L79.0214 55.0798L77.5814 55.6198H63.3614L61.9214 55.0798L60.8414 54.1798L60.3014 53.4598L59.9414 52.0198V22.8598L60.4814 21.4198L61.5614 20.1598L63.0014 19.4398L64.2614 19.2598ZM64.6214 22.4998L63.7214 22.8598L63.1814 23.5798V25.3798H77.7614V23.3998L77.0414 22.6798L76.3214 22.4998H64.6214ZM63.9014 28.7998L63.1814 29.5198V51.4798L64.0814 52.3798H76.8614L77.7614 51.4798V29.5198L77.2214 28.7998H63.9014Z" fill="#5F56AF" fill-opacity="0.5"/>
<path d="M6.84141 11.8809H83.1614L84.0614 12.7809V14.4009L82.9814 15.1209H7.02141L5.94141 14.4009V12.7809L6.84141 11.8809Z" fill="#5F56AF" fill-opacity="0.5"/>
<path d="M27.9003 65.8809H35.1003L36.0003 66.4209L36.1803 66.7809V71.6409L35.6403 73.0809L34.5603 74.3409L32.5803 75.0609H30.4203L28.6203 74.3409L27.3603 72.9009L26.8203 71.4609V66.9609L27.5403 66.0609L27.9003 65.8809ZM30.0603 69.1209V70.7409L30.4203 71.4609L30.9603 71.8209L32.2203 71.6409L32.7603 70.9209V69.1209H30.0603Z" fill="#5F56AF" fill-opacity="0.5"/>
<path d="M63.9003 62.8203H65.1603L67.1403 64.0803L69.1203 65.5203L70.3803 66.4203L70.7403 67.6803L70.2003 68.7603L67.3203 70.7403L65.5203 72.0003L65.1603 72.1803H63.9003L61.0203 70.3803L58.6803 68.5803L58.3203 67.8603L58.5003 66.6003L60.4803 64.9803L63.5403 63.0003L63.9003 62.8203ZM64.4403 66.6003L63.1803 67.3203L63.3603 67.8603L64.6203 68.4003L65.8803 67.6803L65.7003 67.1403L64.4403 66.6003Z" fill="#5F56AF" fill-opacity="0.5"/>
<path d="M69.8389 34.3809H71.0989L71.9989 34.9209L73.2589 36.9009L75.0589 39.7809V41.2209L74.3389 42.6609H73.9789L73.6189 43.7409L71.8189 46.0809L71.0989 46.6209H69.8389L68.7589 45.7209L66.5989 42.3009L65.8789 41.2209V39.7809L67.1389 37.8009H67.4989L67.8589 36.7209L69.1189 34.9209L69.8389 34.3809ZM70.3789 39.0609L69.6589 40.1409L69.8389 41.0409L70.5589 41.9409L71.4589 40.6809L71.0989 39.7809L70.3789 39.0609Z" fill="#5F56AF" fill-opacity="0.5"/>
<path d="M17.2803 35.8203H18.7203L20.7003 36.5403L21.6003 37.4403L22.1403 37.9803L22.5003 39.0603V41.9403L21.7803 43.3803L20.8803 44.4603L19.4403 45.0003H16.5603L15.3003 44.4603L14.4003 43.5603L13.6803 42.4803L13.3203 41.2203V39.7803L13.8603 38.1603L14.0403 37.8003H14.4003L14.7603 37.0803L15.3003 36.9003V36.5403L16.3803 36.0003L17.2803 35.8203ZM17.8203 39.0603L16.9203 39.6003L16.5603 40.6803L17.1003 41.5803L17.4603 41.7603H18.5403L19.2603 41.0403V39.9603L18.5403 39.2403L17.8203 39.0603Z" fill="#5F56AF" fill-opacity="0.5"/>
<path d="M32.4014 35.8203H33.6614L35.2814 36.3603L36.7214 37.4403L37.4414 38.8803L37.6214 39.6003V41.4003L36.9014 43.2003L35.6414 44.6403L34.3814 45.0003H31.6814L30.0614 44.2803L28.9814 43.0203L28.4414 41.7603V39.2403L29.1614 37.8003L30.6014 36.3603L32.4014 35.8203ZM32.7614 39.0603L31.6814 39.9603V41.0403L32.4014 41.7603H33.4814L34.2014 41.0403L34.3814 40.3203L33.8414 39.4203L32.7614 39.0603Z" fill="#5F56AF" fill-opacity="0.5"/>
<path d="M20.3417 46.2598H21.6017L23.0417 47.1598L24.1217 47.5198H26.8217L28.6217 46.7998L29.5217 46.2598H30.6017L31.5017 46.9798L31.6817 48.4198L31.1417 49.3198L29.5217 50.3998L27.5417 51.1198L24.8417 51.2998L22.3217 50.7598L20.5217 49.8598L19.6217 49.1398L19.2617 47.6998L19.8017 46.6198L20.3417 46.2598Z" fill="#5F56AF" fill-opacity="0.5"/>
<path d="M8.09891 5.93945H9.71891L10.6189 6.83945V8.09945L9.89891 8.99945L8.45891 9.17945L7.55891 8.45945L7.37891 7.01945L8.09891 5.93945Z" fill="#5F56AF" fill-opacity="0.5"/>
<path d="M20.1578 5.93945H21.7778L22.4978 6.65945V8.27945L21.9578 8.99945L20.5178 9.17945L19.6178 8.63945L19.2578 7.37945L19.6178 6.47945L20.1578 5.93945Z" fill="#5F56AF" fill-opacity="0.5"/>
<path d="M14.2203 5.93945H15.6603L16.5603 6.83945V8.27945L15.8403 8.99945L14.5803 9.17945L13.6803 8.63945L13.3203 7.91945L13.5003 6.65945L14.2203 5.93945Z" fill="#5F56AF" fill-opacity="0.5"/>
</g>
<defs>
<clipPath id="clip0_3178_7623">
<rect width="90" height="90" fill="white"/>
</clipPath>
</defs>
</svg>
