<svg width="120" height="120" viewBox="0 0 120 120" fill="none" xmlns="http://www.w3.org/2000/svg">
<circle cx="60" cy="60" r="60" fill="#5F56AF"/>
<path d="M84.6094 17.8125H88.8281L93.0469 18.8672L96.9141 20.9766L100.43 24.4922L102.539 28.7109L103.242 31.1719V36.7969L102.188 40.3125L100.078 43.8281L98.3203 45.9375L94.8047 48.3984L90.9375 49.8047L89.1797 50.1562H84.2578L81.4453 49.4531L82.1484 51.9141L86.3672 55.7812L88.4766 58.9453L88.125 61.0547L86.3672 63.1641L84.2578 64.5703L84.6094 65.9766L84.9609 66.6797V69.1406L82.8516 72.3047L82.1484 73.0078L83.9062 74.0625L85.3125 75.1172V77.2266L83.5547 79.3359H82.8516L83.5547 82.5L83.2031 84.9609L80.7422 87.7734L78.6328 88.4766H72.3047L67.0312 87.4219L71.6016 99.7266V101.836L71.25 102.188H38.5547L37.8516 101.484L38.5547 97.9688L38.9062 93.3984L37.8516 87.7734L35.0391 80.7422L33.9844 78.6328H28.7109L24.1406 77.2266L20.2734 74.4141L17.8125 70.8984L16.7578 67.3828V62.4609L17.8125 58.9453L20.625 55.0781L23.4375 52.9688L24.8438 52.2656H25.8984V49.8047L27.6562 44.1797L29.7656 40.3125L32.5781 36.7969L35.3906 33.9844L40.3125 30.8203L45.2344 28.7109L50.5078 27.6562H56.8359L62.1094 28.7109L67.3828 30.8203L70.1953 32.5781L70.5469 29.4141L73.0078 24.4922L74.7656 22.3828L78.6328 19.5703L82.5 18.1641L84.6094 17.8125ZM84.2578 20.2734L80.0391 21.6797L76.875 24.1406L74.4141 26.9531L73.0078 30.1172L72.6562 31.5234V36.4453L74.0625 40.3125L75.4688 42.4219L78.2812 45.2344L82.5 47.3438L84.2578 47.6953H89.1797L93.3984 46.2891L96.2109 44.1797L99.0234 41.0156L100.43 37.8516L100.781 36.4453V31.5234L99.375 27.6562L97.2656 24.8438L94.4531 22.3828L91.6406 20.9766L88.8281 20.2734H84.2578ZM50.1562 30.1172L44.8828 31.5234L39.2578 34.3359L35.7422 37.1484L32.5781 40.6641L30.1172 44.8828L28.3594 50.1562V51.2109L34.6875 51.9141L38.2031 53.3203L41.7188 56.4844L43.4766 59.2969L44.5312 63.1641V66.6797L43.125 71.25L41.0156 74.0625L38.5547 76.1719L36.4453 77.2266L37.1484 79.3359L39.9609 86.0156L41.0156 90.2344L41.3672 92.6953V95.8594L41.0156 99.7266H68.7891L64.9219 88.8281L63.8672 86.0156L64.2188 84.2578L67.7344 84.9609L72.3047 86.0156H78.2812L80.3906 84.6094L81.0938 82.8516L80.3906 80.3906V78.2812L82.5 76.875V76.1719L79.6875 74.4141L79.3359 72.3047L81.7969 69.4922L82.5 68.4375L82.1484 67.0312L81.0938 65.2734L80.7422 63.5156L82.5 62.8125L85.3125 60.7031L85.6641 58.9453L82.1484 55.0781L79.6875 53.3203L78.6328 48.3984L74.4141 44.8828L72.3047 41.7188L70.8984 38.5547L69.8438 35.3906L65.2734 32.5781L60.7031 30.8203L56.8359 30.1172H50.1562ZM28.3594 53.6719L24.1406 55.4297L22.3828 56.8359L20.2734 59.6484L19.2188 62.8125V67.0312L20.625 70.5469L23.0859 73.3594L24.8438 74.7656L28.7109 76.1719H32.9297L36.0938 75.1172L38.9062 73.0078L41.0156 70.5469L42.0703 68.0859L42.4219 66.3281V63.5156L41.3672 60L39.2578 57.1875L36.7969 55.0781L32.9297 53.6719H28.3594Z" fill="white"/>
<path d="M78.2812 30.8203L80.0391 31.1719L81.0938 34.3359L82.5 35.7422L83.5547 36.0938H89.8828L91.9922 35.3906L93.0469 32.2266L93.3984 31.1719L95.1562 30.8203L95.8594 31.875L95.1562 35.3906L93.3984 37.5L91.6406 38.5547L90.2344 38.9062H87.7734V42.4219H90.2344L90.9375 42.7734V44.5312L90.5859 44.8828H82.8516L82.5 44.5312V42.7734L83.2031 42.4219H85.3125V38.9062L81.7969 38.5547L78.9844 36.4453L77.9297 34.3359L77.5781 31.5234L78.2812 30.8203Z" fill="white"/>
<path d="M83.9062 23.0859H89.5312L91.6406 24.8438V32.9297L89.5312 34.6875H83.9062L82.5 33.9844L81.7969 32.9297V24.8438L83.2031 23.4375L83.9062 23.0859ZM84.6094 25.5469L84.2578 25.8984V27.6562L87.4219 28.0078V29.7656L84.2578 30.1172V31.875L84.6094 32.2266H88.8281L89.1797 31.875V25.8984L88.8281 25.5469H84.6094Z" fill="white"/>
<path d="M96.2109 61.7578L97.9688 62.1094L100.43 65.2734L101.836 68.4375L102.188 70.1953V75.4688L100.781 79.6875L98.6719 82.5L97.6172 83.5547L95.8594 83.2031L95.5078 82.1484L98.3203 78.2812L99.375 75.1172V70.5469L97.9688 66.6797L95.5078 63.1641L96.2109 61.7578Z" fill="white"/>
<path d="M37.1484 59.2969L38.9062 59.6484L39.2578 61.0547L29.7656 70.5469L28.0078 70.1953L22.7344 65.2734L22.3828 64.9219V63.1641L24.1406 62.8125L28.3594 66.6797H29.7656L37.1484 59.2969Z" fill="white"/>
<path d="M91.9922 63.5156H93.75L95.8594 66.3281L97.2656 69.8438V75.8203L95.8594 79.3359L93.3984 82.1484L91.6406 81.7969V80.0391L93.75 77.2266L94.4531 75.1172V70.1953L92.6953 66.6797L91.6406 65.625V63.8672L91.9922 63.5156Z" fill="white"/>
<path d="M87.7734 64.9219L89.5312 65.2734L91.2891 67.3828L92.3438 69.8438L92.6953 71.6016V74.0625L91.6406 77.5781L89.5312 80.3906H87.7734L87.4219 78.6328L89.1797 76.1719L89.8828 73.7109L89.5312 70.1953L87.7734 67.3828L87.4219 67.0312V65.2734L87.7734 64.9219Z" fill="white"/>
</svg>
