<svg width="120" height="120" viewBox="0 0 120 120" fill="none" xmlns="http://www.w3.org/2000/svg">
<circle cx="60" cy="60" r="60" fill="#5F56AF"/>
<path d="M65.0312 16.0547L71.3594 16.4062L77.3359 18.1641L82.9609 21.3281L87.5312 25.5469L90.6953 30.1172L92.8047 34.6875L94.2109 40.6641V49.4531L98.4297 57.1875L99.1328 58.2422V60.3516L94.9141 62.1094L92.8047 63.1641L91.75 64.5703L91.3984 75.4688L90.3438 77.2266L88.9375 77.9297H79.7969V84.9609L81.9062 85.3125L83.3125 86.7188L83.6641 87.7734V90.2344L83.3125 90.9375L85.7734 91.2891L87.1797 93.3984V95.8594L86.125 97.6172L84.7188 98.3203H34.4453L34.0938 96.5625L34.4453 96.2109L84.3672 95.8594V93.75L83.6641 93.3984L15.8125 93.0469L15.4609 91.2891L15.8125 90.9375H30.5781V89.8828L28.4688 89.5312L27.4141 90.2344H25.6562L22.4922 87.0703L22.8438 84.9609L23.1953 83.2031L22.8438 82.1484L20.3828 81.4453L20.0312 80.7422V76.1719L20.7344 75.1172L22.8438 74.4141L23.1953 72.3047L22.4922 71.25L22.8438 69.4922L25.3047 66.6797L27.0625 66.3281L28.8203 67.3828L30.5781 67.0312L30.9297 64.5703L31.6328 63.8672H36.5547L37.2578 64.5703L37.6094 67.0312H40.0703L41.125 66.3281L42.5312 66.6797L45.6953 69.8438L45.3438 71.6016L44.6406 73.0078L44.9922 74.7656L47.4531 75.1172L47.8047 75.4688V81.4453L44.9922 81.7969L44.6406 84.2578L45.6953 85.6641L45.3438 87.4219L42.5312 90.2344L40.0703 89.8828L39.0156 89.5312L37.9609 89.8828L37.6094 90.5859H48.1562V87.4219L49.9141 85.3125L51.6719 84.9609V67.3828L49.9141 66.6797L45.3438 62.4609L33.7422 62.1094L31.6328 59.6484L26.0078 51.5625L24.6016 49.4531L17.9219 49.1016L17.5703 48.75V46.9922L18.2734 46.6406H25.6562L28.4688 50.1562L32.3359 55.7812L34.7969 59.2969L66.4375 59.6484L67.1406 57.8906L68.8984 56.8359H72.0625L73.8203 58.2422L74.5234 59.6484V62.1094L73.1172 64.2188L71.7109 64.9219H68.8984L67.1406 63.8672L66.4375 62.1094L59.0547 62.4609L63.9766 69.8438L68.1953 70.1953L68.8984 68.4375L70.3047 67.3828L72.7656 67.0312L74.875 68.0859L75.9297 69.1406L76.2812 72.3047L75.2266 74.4141L73.1172 75.4688L69.9531 75.1172L68.1953 73.0078V72.3047H62.2188L55.5391 62.4609H49.2109L52.7266 65.2734L54.1328 66.3281V84.9609H77.6875V75.8203L87.5312 75.4688L88.5859 75.1172L88.9375 64.5703L89.9922 62.1094L92.1016 60.3516L95.6172 58.9453H96.3203L91.3984 49.8047V40.3125L89.9922 35.0391L87.5312 30.1172L84.3672 26.25L81.5547 23.7891L77.6875 21.3281L72.7656 19.5703L69.25 18.8672H63.625L57.6484 20.2734L52.7266 22.7344L60.8125 23.0859L66.4375 25.5469L68.5469 25.1953H71.7109L73.8203 26.9531L74.1719 28.0078V30.4688L73.1172 32.2266L71.7109 33.2812H68.5469L66.4375 31.5234L66.0859 30.8203V28.0078L64.3281 27.6562L60.4609 25.8984L35.1484 25.5469L34.4453 27.3047L28.8203 36.0938L27.0625 38.5547H17.9219L17.5703 38.2031V36.4453L18.2734 36.0938L25.6562 35.7422L30.9297 27.6562L33.7422 23.4375L34.0938 23.0859L48.1562 22.7344L52.7266 19.5703L57.2969 17.4609L61.5156 16.4062L65.0312 16.0547ZM69.9531 27.3047L68.5469 28.0078L68.1953 29.7656L68.8984 30.8203L70.3047 31.1719L71.7109 30.1172V28.3594L69.9531 27.3047ZM70.3047 58.9453L68.8984 59.6484L68.5469 61.4062L69.9531 62.8125L71.7109 62.1094L72.0625 61.7578V60L70.3047 58.9453ZM33.0391 66.3281L32.6875 68.7891L29.5234 69.8438L27.0625 69.4922L26.3594 69.1406L25.3047 70.8984L26.0078 71.9531L25.6562 74.0625L24.9531 75.8203V76.875L22.4922 77.2266V79.6875L24.9531 80.0391L25.6562 82.8516L26.0078 84.6094L25.3047 86.3672L26.3594 87.4219L28.8203 86.7188L32.3359 88.125L33.0391 90.5859H35.1484L35.8516 88.125L39.7188 86.7188L41.8281 87.4219L42.8828 86.0156L42.1797 84.9609L42.5312 82.5L43.5859 80.0391L45.6953 79.3359V77.2266L43.2344 76.875L42.1797 73.7109L42.5312 71.25V70.1953L41.8281 69.4922L38.6641 69.8438L35.8516 68.7891L35.1484 66.3281H33.0391ZM71.3594 69.4922L70.3047 70.5469L70.6562 72.3047L71.3594 73.0078L73.4688 72.6562L73.8203 70.5469L72.7656 69.4922H71.3594ZM51.3203 87.4219L50.2656 89.1797L50.9688 90.5859L51.6719 90.9375H79.7969L81.2031 89.8828V88.125L80.5 87.4219H51.3203Z" fill="white"/>
<path d="M54.1328 28.3594H56.5938L58.3516 29.4141L59.4062 30.8203L59.7578 32.5781L59.0547 35.0391L57.2969 36.4453L54.8359 36.7969L52.7266 35.7422L51.6719 34.6875V33.6328H38.6641L37.9609 35.3906L34.0938 40.6641L33.7422 41.3672L47.1016 41.7188L47.8047 39.9609L49.9141 38.5547L53.0781 38.9062L54.8359 40.6641L55.1875 41.3672V43.8281L54.1328 45.9375L52.0234 46.9922L49.2109 46.6406L47.4531 45.2344L47.1016 43.8281L33.7422 44.1797L37.6094 49.8047L38.6641 51.2109V51.9141H55.1875L55.8906 50.1562L61.5156 41.7188H68.5469L69.25 39.9609L71.0078 38.5547H73.8203L75.5781 39.6094L76.6328 41.3672V43.8281L75.5781 45.5859L74.1719 46.6406H71.0078L69.25 45.5859L68.5469 44.1797H63.2734L58.3516 51.5625L75.9297 51.9141L76.2812 50.5078L78.0391 49.1016H81.5547L83.3125 50.8594L83.6641 51.2109V54.7266L81.9062 56.8359L80.8516 57.1875H78.3906L76.2812 55.7812L75.9297 54.375H37.6094L34.4453 50.1562L29.875 43.4766L30.2266 41.3672L34.0938 36.0938L37.2578 31.5234L51.3203 31.1719L52.7266 29.0625L54.1328 28.3594ZM54.4844 30.8203L53.7812 31.5234L54.1328 33.9844L56.2422 34.3359L57.2969 32.9297L56.9453 31.5234L56.2422 30.8203H54.4844ZM50.2656 41.0156L49.2109 42.4219L49.5625 43.8281L50.2656 44.5312L52.375 44.1797L52.7266 43.8281L52.375 41.3672L50.2656 41.0156ZM71.7109 41.0156L70.6562 42.0703L71.0078 43.8281L72.0625 44.5312L73.4688 44.1797L74.1719 43.4766V41.7188L73.4688 41.0156H71.7109ZM79.4453 51.2109L78.0391 52.2656V54.0234L78.7422 54.7266H80.5L81.5547 53.6719L81.2031 51.9141L79.4453 51.2109Z" fill="white"/>
<path d="M42.5312 101.484H73.4688L73.8203 103.242L73.1172 103.945H42.8828L42.1797 103.242L42.5312 101.484Z" fill="white"/>
<path d="M32.6875 72.3047H35.5L37.6094 73.3594L39.3672 75.4688L40.0703 77.5781L39.7188 80.7422L38.3125 82.8516L36.5547 84.2578L33.0391 84.6094L30.5781 83.5547L28.4688 81.0938L28.1172 80.0391V76.875L29.5234 74.0625L31.6328 72.6562L32.6875 72.3047ZM32.6875 74.7656L30.9297 76.5234L30.5781 77.2266V79.6875L31.6328 81.4453L33.0391 82.1484H35.1484L37.2578 80.3906L37.6094 77.5781L36.5547 75.8203L35.1484 74.7656H32.6875Z" fill="white"/>
<path d="M73.1172 22.3828H75.2266L76.2812 23.0859L76.6328 24.1406L78.0391 23.7891L81.9062 26.6016L84.3672 29.0625L86.8281 32.9297L88.5859 36.7969L89.2891 39.6094L89.6406 44.1797L88.9375 45.2344L87.1797 44.8828L86.125 38.2031L84.3672 33.9844L81.5547 30.1172L78.3906 27.3047L76.2812 25.8984V24.8438L74.875 25.1953L72.7656 24.1406L73.1172 22.3828Z" fill="white"/>
<path d="M90.3438 90.9375H100.188L100.539 92.6953L100.188 93.0469H90.3438L89.9922 91.6406L90.3438 90.9375Z" fill="white"/>
<path d="M22.8438 41.7188H28.4688L28.8203 43.125L28.4688 43.8281H22.8438L22.4922 42.4219L22.8438 41.7188Z" fill="white"/>
<path d="M68.5469 20.9766L71.3594 21.3281L71.7109 23.0859L70.3047 23.7891L68.1953 23.0859V21.3281L68.5469 20.9766Z" fill="white"/>
<path d="M29.1719 96.2109H30.9297L31.2812 97.9688L30.9297 98.3203H29.1719L28.8203 96.5625L29.1719 96.2109Z" fill="white"/>
<path d="M33.3906 85.6641L35.1484 86.0156L34.7969 87.7734L33.0391 87.4219L33.3906 85.6641Z" fill="white"/>
<path d="M41.4766 77.5781H43.2344V79.3359L41.8281 79.6875L41.125 79.3359L41.4766 77.5781Z" fill="white"/>
<path d="M24.9531 77.5781H26.7109L27.0625 78.9844L26.3594 79.6875L24.9531 79.3359L24.6016 78.2812L24.9531 77.5781Z" fill="white"/>
<path d="M33.3906 69.1406L34.7969 69.4922L35.1484 70.8984L33.7422 71.6016L33.0391 71.25V69.4922L33.3906 69.1406Z" fill="white"/>
<path d="M39.3672 83.2031L40.7734 83.5547V85.3125H39.0156L38.6641 83.9062L39.3672 83.2031Z" fill="white"/>
<path d="M27.7656 83.2031L29.1719 83.5547V85.3125H27.4141L27.0625 83.9062L27.7656 83.2031Z" fill="white"/>
<path d="M39.3672 71.6016L40.7734 71.9531V73.7109H39.0156L38.6641 72.3047L39.3672 71.6016Z" fill="white"/>
<path d="M27.7656 71.6016L29.1719 71.9531V73.7109H27.4141L27.0625 72.3047L27.7656 71.6016Z" fill="white"/>
</svg>
