<svg width="120" height="120" viewBox="0 0 120 120" fill="none" xmlns="http://www.w3.org/2000/svg">
<circle cx="60" cy="60" r="60" fill="#5F56AF"/>
<path d="M48.75 30.1172H57.1875L57.8906 30.4688V56.1328H61.7578V48.3984L62.8125 47.3438H70.8984L71.9531 48.0469V56.1328H75.8203V30.8203L76.5234 30.1172H85.3125L85.6641 30.4688V56.1328H93.0469L93.75 57.1875V70.5469L93.0469 77.2266L91.2891 82.8516L88.4766 88.4766L84.6094 93.3984L80.7422 96.9141L75.8203 100.078L70.8984 102.188L65.2734 103.594L58.5938 103.945L52.9688 103.242L47.3438 101.484L41.7188 98.6719L36.7969 94.8047L33.2812 90.9375L30.1172 86.0156L28.0078 81.0938L26.6016 75.1172L26.25 70.5469V57.1875L26.9531 56.1328H33.9844V42.4219L34.6875 41.7188H43.4766L44.1797 42.7734V56.1328H48.0469V30.4688L48.75 30.1172ZM51.2109 33.2812V56.1328H55.0781V33.2812H51.2109ZM78.9844 33.2812V56.1328H82.8516V33.2812H78.9844ZM37.1484 44.8828V56.1328H41.0156V44.8828H37.1484ZM64.9219 50.5078V56.1328H68.7891V50.5078H64.9219ZM29.4141 58.9453V72.3047L30.1172 76.875L31.5234 81.4453L33.9844 86.3672L37.5 90.9375L39.9609 93.3984L44.8828 96.9141L50.5078 99.375L54.7266 100.43L57.1875 100.781H62.8125L68.4375 99.7266L73.7109 97.6172L78.6328 94.4531L82.8516 90.5859L86.0156 86.3672L88.8281 80.7422L90.2344 75.1172L90.5859 72.3047V58.9453H29.4141Z" fill="white"/>
<path d="M51.5625 16.4062H54.7266L56.4844 17.4609L57.8906 19.2188L58.2422 22.0312L57.8906 24.4922L61.7578 29.0625L64.9219 33.2812L68.4375 33.6328L71.25 30.4688L75.8203 24.4922V19.5703L77.2266 17.4609L79.3359 16.4062H81.7969L83.9062 17.4609L85.3125 19.2188L85.6641 22.0312L84.6094 24.4922L83.2031 25.8984L78.6328 26.6016L74.0625 32.2266L71.6016 35.3906V40.3125L70.1953 42.4219L68.4375 43.4766H65.2734L63.1641 42.0703L62.1094 40.6641L61.7578 37.8516L62.1094 35.3906L58.2422 30.8203L55.0781 26.6016L51.2109 26.25L50.1562 25.8984L46.6406 29.0625L44.1797 31.1719V34.3359L43.125 36.0938L41.3672 37.5L40.6641 37.8516H38.2031L36.0938 36.7969L34.6875 35.0391L34.3359 32.2266L35.3906 29.4141L37.1484 28.0078L40.3125 27.6562L42.4219 28.0078L46.9922 24.1406L48.0469 23.4375L48.3984 19.5703L49.8047 17.4609L51.5625 16.4062ZM52.6172 19.2188L51.2109 20.2734V22.0312L52.6172 23.0859L54.375 22.3828L54.7266 22.0312L54.375 19.5703L52.6172 19.2188ZM80.0391 19.2188L78.9844 20.2734V22.0312L80.3906 23.0859L82.1484 22.3828L82.5 22.0312V20.2734L81.4453 19.2188H80.0391ZM38.5547 30.8203L37.5 31.875V33.6328L38.9062 34.6875L40.6641 33.9844L41.0156 33.6328V31.875L39.9609 30.8203H38.5547ZM66.3281 36.7969L65.2734 37.5V39.6094L65.9766 40.3125H68.0859L68.7891 39.2578L68.4375 37.1484L68.0859 36.7969H66.3281Z" fill="white"/>
<path d="M49.1016 86.3672H70.8984L71.6016 87.0703L71.25 89.1797L69.1406 92.3438L66.6797 94.4531L63.5156 95.8594L61.7578 96.2109H58.2422L54.7266 95.1562L51.9141 93.3984L49.4531 90.5859L48.3984 88.4766L48.75 86.7188L49.1016 86.3672ZM52.6172 89.1797L54.7266 91.6406L58.2422 93.0469H61.7578L65.2734 91.6406L67.3828 89.1797H52.6172Z" fill="white"/>
<path d="M73.7109 64.5703L76.875 64.9219L78.9844 66.3281L80.0391 68.7891L79.6875 72.3047L77.9297 74.4141L74.7656 75.4688L71.9531 74.7656L70.1953 73.3594L69.1406 70.8984L69.4922 67.7344L70.5469 65.9766L72.3047 64.9219L73.7109 64.5703ZM73.7109 67.7344L72.3047 69.1406L72.6562 71.25L74.0625 72.3047L75.8203 71.9531L76.875 70.5469L76.5234 68.4375L75.4688 67.7344H73.7109Z" fill="white"/>
<path d="M44.1797 64.5703H46.6406L48.75 65.625L50.5078 67.7344L50.8594 70.8984L49.8047 73.3594L48.0469 74.7656L45.2344 75.4688L42.0703 74.4141L40.3125 72.3047L39.9609 68.7891L41.0156 66.6797L43.125 64.9219L44.1797 64.5703ZM44.5312 67.7344L43.125 69.1406L43.4766 71.25L44.8828 72.3047L46.6406 71.9531L47.6953 70.5469L47.3438 68.4375L46.2891 67.7344H44.5312Z" fill="white"/>
</svg>
