<svg width="120" height="120" viewBox="0 0 120 120" fill="none" xmlns="http://www.w3.org/2000/svg">
<circle cx="60" cy="60" r="60" fill="#5F56AF"/>
<path d="M89.5195 57.5605H92.5795L92.9395 58.4605L94.1995 58.6405L94.7395 58.1005L94.9195 57.5605H97.9795V58.8205L97.0795 60.6205L95.6395 61.7005L95.0995 61.8805H92.3995L90.9595 61.1605L89.8795 59.7205L89.5195 58.8205V57.5605Z" fill="white"/>
<path d="M57.4778 23.7207H62.5178L65.7578 24.4407L68.6378 25.7007L70.6178 26.9607L72.4178 28.4007L74.5778 30.5607L76.7378 34.1607L77.2778 35.2407L78.3578 35.0607H95.6378L97.4378 35.6007L100.138 37.0407L101.758 38.6607L102.838 40.4607L103.558 42.2607L103.738 43.1607V46.7607L103.018 49.1007L102.118 50.7207L100.318 52.5207L102.118 56.6607L103.378 60.4407L103.738 62.4207V65.6607L103.378 66.0207L101.578 66.7407L100.858 66.9207V71.6007L100.138 73.7607L99.0578 75.5607L97.6178 77.1807L95.9978 78.4407L93.8378 79.3407L91.8578 79.7007L89.6978 79.8807L89.5178 83.4807L90.2378 83.8407L92.0378 85.4607L93.6578 87.0807L94.9178 88.8807L96.3578 91.2207L97.0778 93.0207L97.9778 97.3407V102.741H69.7178V88.3407L70.4378 86.3607L71.6978 84.7407L73.6778 83.3007L74.5778 82.9407H75.2978L75.1178 80.9607L68.0978 76.2807L66.4778 74.8407L65.0378 75.9207L62.5178 77.1807L61.7978 77.3607H58.1978L56.2178 76.6407L54.4178 75.5607L53.5178 74.8407L51.7178 76.4607L44.6978 81.1407V82.7607L46.6778 83.4807L48.2978 84.7407L49.5578 86.3607L50.2778 88.3407V102.741H22.0178V97.3407L22.9178 93.0207L23.9978 90.5007L25.4378 88.3407L26.8778 86.5407L29.2178 84.2007L30.1178 83.4807L30.2978 79.7007H28.3178L25.6178 79.1607L23.4578 78.0807L22.9178 77.7207V77.3607L22.1978 77.0007L20.7578 75.3807L19.4978 72.8607L19.1378 71.6007V66.9207L18.0578 66.5607L16.2578 65.6607V62.2407L16.9778 59.1807L18.2378 55.7607L19.6778 52.5207L18.4178 51.2607L17.6978 50.5407L16.6178 48.2007L16.2578 46.7607V36.8607L16.9778 35.7807L18.0578 35.0607H41.6378L42.7178 35.2407L44.6978 31.6407L46.4978 29.3007L47.9378 28.0407L50.4578 26.2407L53.3378 24.8007L55.4978 24.0807L57.4778 23.7207ZM59.8178 26.7807L56.7578 27.1407L54.0578 28.0407L52.2578 28.7607L49.7378 30.7407L48.2978 32.1807L46.6778 34.5207L45.4178 37.0407L44.6978 39.9207V44.4207L45.4178 47.1207L46.8578 50.0007L48.2978 51.8007L49.7378 53.2407L50.9978 54.6807L52.4378 56.1207L52.7978 56.4807V48.3807L49.7378 45.3207V44.4207L50.2778 44.2407L52.7978 40.8207L53.5178 39.5607L55.4978 37.0407L56.2178 37.4007L59.4578 40.6407L59.8178 41.1807L60.3578 41.0007L61.6178 39.5607L64.1378 37.0407L64.8578 37.4007L66.8378 40.1007L67.5578 41.3607L69.8978 44.4207H70.2578V45.3207L67.0178 48.5607V56.6607L67.9178 55.7607L70.0778 53.6007L71.3378 52.1607L72.7778 50.5407L74.2178 48.0207L75.1178 45.3207L75.2978 44.4207V39.9207L74.5778 37.0407L73.1378 34.1607L71.3378 31.8207L69.7178 30.2007L67.3778 28.5807L64.4978 27.5007L62.1578 26.9607L59.8178 26.7807ZM19.3178 37.9407V44.9607L19.6778 46.9407L20.7578 49.1007L22.5578 50.9007L24.1778 51.6207L24.8978 51.8007H33.7178L34.7978 51.0807L35.6978 50.0007L35.8778 49.6407V47.6607L35.1578 46.5807L34.0778 45.6807L31.5578 44.9607L31.7378 43.5207L31.9178 42.0807L34.9778 42.8007L36.9578 43.8807L37.3178 44.4207H37.6778L38.0378 45.3207L38.7578 47.1207L38.9378 49.1007L40.9178 50.5407L42.3578 51.8007L43.6178 53.7807L44.3378 55.7607L44.5178 56.3007L46.3178 57.0207L47.2178 57.7407L48.4778 59.7207L48.6578 60.2607V63.3207L47.9378 64.9407L47.3978 65.8407L46.4978 66.7407L44.5178 69.4407V77.1807L45.4178 76.6407L46.4978 75.9207L48.6578 74.4807L49.9178 73.7607L51.7178 72.3207L51.8978 71.4207L51.7178 70.7007V62.0607L52.2578 61.1607L52.0778 60.4407L50.8178 58.8207L49.0178 57.2007L47.2178 55.4007L45.9578 53.9607L44.1578 51.2607L42.7178 48.3807L41.9978 45.8607L41.8178 44.7807V39.5607L41.9978 38.3007L41.2778 38.1207L38.9378 37.9407H19.3178ZM81.0578 37.9407L78.7178 38.1207L77.9978 38.4807L78.1778 39.5607V44.7807L77.4578 47.8407L76.5578 50.0007L75.4778 51.8007L74.0378 53.9607L71.3378 56.8407L69.7178 58.4607L68.6378 59.3607L67.7378 60.6207L67.9178 61.5207L68.2778 62.0607V70.7007L68.0978 72.1407L69.7178 73.5807L71.3378 74.4807L74.5778 76.6407L75.2978 77.0007V69.2607L72.9578 66.0207L72.2378 65.3007L71.5178 63.8607L71.3378 63.3207V60.2607L72.2378 58.4607L72.9578 57.5607L74.3978 56.6607L75.4778 56.1207L76.3778 53.7807L77.4578 51.9807L78.8978 50.5407L80.8778 49.2807L82.8578 48.5607L86.4578 48.0207L86.6378 47.8407L86.9978 45.8607L87.8978 44.6007L89.6978 43.7007H92.2178L94.0178 44.6007L94.9178 45.8607L95.0978 46.4007L95.2778 49.2807H92.2178V47.8407L91.8578 46.9407L91.4978 46.5807H90.4178L89.6978 47.3007V48.7407L90.4178 50.1807L91.8578 51.4407L92.5778 51.8007H95.0978L97.0778 51.0807L98.5178 49.8207L99.5978 48.5607L100.498 46.4007V43.5207L99.5978 41.3607L97.9778 39.5607L97.0778 38.8407L95.2778 38.1207L93.6578 37.9407H81.0578ZM55.8578 41.9007L54.7778 43.3407L53.8778 44.2407L53.6978 44.7807L55.6778 46.7607L55.8578 60.2607H58.5578V49.1007H61.4378V60.2607H64.1378L64.3178 46.7607L66.2978 44.7807L65.5778 43.5207L64.6778 42.6207L63.9578 41.9007L62.5178 43.3407L61.0778 44.6007L60.1778 45.5007L59.4578 45.1407L57.8378 43.5207L56.3978 42.2607L55.8578 41.9007ZM85.5578 51.0807L83.3978 51.4407L81.5978 52.3407L80.3378 53.4207L79.2578 55.0407L78.5378 57.0207L78.1778 59.0007H76.9178L75.2978 59.5407L74.5778 60.2607L74.3978 60.9807V62.6007L74.9378 63.8607L77.2778 66.9207H77.6378L77.9978 67.6407L78.1778 68.0007L78.3578 82.7607L81.2378 84.2007L82.1378 85.1007L82.4978 85.6407L84.4778 85.4607L85.7378 84.7407L86.6378 83.6607V80.0607H83.9378L83.7578 78.8007V77.1807L91.4978 76.4607L93.4778 75.9207L95.0978 75.0207L96.5378 73.7607L97.6178 71.6007L97.7978 71.0607V64.9407L98.8778 64.5807L100.498 63.6807L100.318 61.7007L99.2378 58.1007L97.9778 55.4007L97.6178 54.3207L95.6378 54.6807H92.0378L90.2378 53.9607L88.4378 52.5207L87.5378 51.0807H85.5578ZM37.8578 52.1607L37.1378 53.0607V53.4207L36.4178 53.7807L34.9778 54.5007L34.2578 54.6807H24.3578L22.3778 54.3207L21.4778 56.6607L20.7578 58.2807L19.8578 60.9807L19.4978 62.7807V63.6807L21.8378 64.9407L22.0178 69.4407L22.3778 71.6007L23.4578 73.7607L25.4378 75.3807L26.8778 76.1007L28.4978 76.4607L36.2378 77.1807V78.8007L36.0578 80.0607H33.3578V83.6607L34.4378 84.9207L35.5178 85.4607L37.4978 85.6407L38.2178 84.5607L40.0178 83.4807L41.6378 82.7607L41.8178 68.0007L42.3578 67.2807V66.9207L42.8978 66.7407L45.4178 63.3207L45.5978 62.6007V60.9807L45.2378 60.0807L44.3378 59.3607L43.0778 59.0007H41.8178L41.0978 55.7607L40.0178 53.9607L39.1178 53.0607L38.0378 52.1607H37.8578ZM54.4178 63.3207V66.0207H65.5778V63.3207H54.4178ZM54.5978 68.9007V70.1607L55.6778 72.3207L57.1178 73.5807L58.7378 74.3007H61.2578L63.4178 73.2207L64.6778 71.7807L65.3978 69.9807V68.9007H54.5978ZM41.9978 86.0007L40.1978 87.0807L39.1178 88.7007L38.9378 89.9607V99.6807H47.2178V89.9607L46.8578 88.3407L46.4978 87.6207H46.1378L45.7778 86.9007H45.4178V86.5407L44.3378 86.0007H41.9978ZM75.6578 86.0007L73.8578 87.0807L72.9578 88.7007L72.7778 89.9607V99.6807H81.0578V89.9607L80.6978 88.5207L79.6178 86.9007L77.9978 86.0007H75.6578ZM31.1978 86.7207L28.8578 89.0607L27.2378 91.5807L26.1578 93.7407L25.2578 96.6207L25.0778 97.7007V99.6807H36.0578V88.5207L33.7178 88.1607L32.2778 87.2607L31.5578 86.7207H31.1978ZM88.4378 86.7207L86.9978 87.8007L85.7378 88.3407L83.9378 88.5207V99.6807H94.9178V97.7007L94.1978 94.8207L93.1178 92.1207L91.4978 89.6007L89.8778 87.8007L88.7978 86.7207H88.4378Z" fill="white"/>
<path d="M22.0156 57.5605H25.0756L25.4356 58.4605L26.6956 58.6405L27.2356 58.1005L27.4156 57.5605H30.4756V58.8205L29.5756 60.6205L28.1356 61.7005L27.5956 61.8805H24.8956L23.4556 61.1605L22.3756 59.7205L22.0156 58.8205V57.5605Z" fill="white"/>
<path d="M78.5378 22.4609L79.4378 22.6409L81.0578 24.2609L80.8778 25.1609L77.4578 28.5809L76.7378 28.7609L75.2978 27.5009L74.7578 26.7809L75.1178 26.0609L76.3778 24.6209L78.5378 22.4609Z" fill="white"/>
<path d="M40.7375 22.4609L41.6375 22.6409L44.5175 25.5209L45.2375 26.4209L44.8775 27.1409L43.6175 28.5809L42.8975 28.7609L41.4575 27.5009L38.9375 24.9809L39.1175 24.0809L40.7375 22.4609Z" fill="white"/>
<path d="M69.1792 16.8809L70.4392 17.0609L72.2392 17.7809L72.0592 18.8609L70.2592 23.1809L69.3592 23.3609L67.1992 22.2809L67.7392 20.6609L68.6392 18.1409L69.1792 16.8809Z" fill="white"/>
<path d="M50.0978 16.8809H50.8178L52.0778 19.7609L52.6178 21.5609L52.7978 22.2809L50.6378 23.3609H49.9178L47.7578 18.5009L47.9378 17.7809L50.0978 16.8809Z" fill="white"/>
<path d="M58.5586 15.2598H61.4386V21.0198H58.5586V15.2598Z" fill="white"/>
</svg>
