<svg width="120" height="120" viewBox="0 0 120 120" fill="none" xmlns="http://www.w3.org/2000/svg">
<circle cx="60" cy="60" r="60" fill="#5F56AF"/>
<g clip-path="url(#clip0_3178_7582)">
<path d="M33.1186 20H79.8386L81.1186 20.48L81.9186 21.12L82.7186 22.56L82.8786 23.2V42.88H84.4786L86.3986 43.36L87.9986 44L89.9186 45.28L91.5186 46.72L92.1586 47.52V47.84H92.4786L92.9586 48.64L93.9186 51.36L94.2386 53.12V55.68L93.7586 57.92L92.7986 60.32L91.5186 62.08L90.0786 63.52L88.3186 64.64L86.5586 65.44L84.9586 65.92V66.4L86.2386 69.12L86.8786 70.72L89.2786 75.68L91.0386 79.52L92.1586 80.48L93.2786 80.8L94.7186 80.64L95.6786 80.16H95.9986L96.3186 79.52L96.7986 78.4V76.96L94.7186 72.32L93.5986 70.08L92.7986 68L92.3186 67.04V65.92L92.7986 65.6H93.5986L94.2386 66.4L95.9986 70.08L97.5986 73.6L98.7186 75.84L98.8786 76.48V78.72L98.3986 80.16L97.2786 81.6L95.6786 82.56L94.2386 82.88H92.9586L91.3586 82.4L90.0786 81.44L89.1186 80.32L87.8386 77.76L87.0386 76.16L86.5586 74.72L85.2786 72.16L83.0386 67.36L82.5586 66.24L79.8386 65.76L77.5986 64.96L75.9986 64L74.3986 62.56L73.4386 61.44L71.9986 59.04L71.3586 56.96L71.1986 56.16V52.8L71.8386 50.24L72.9586 48L74.0786 46.56L75.1986 45.44L76.1586 44.8L76.3186 39.84H74.7186L73.4386 39.68L72.6386 40.48L71.3586 41.76L70.0786 42.88L68.7986 44.16L67.5186 45.28L65.2786 47.36L65.5986 48.48V50.56L65.1186 51.84L64.1586 52.96L62.5586 53.6H60.3186L58.7186 52.8L57.7586 51.68L57.2786 50.4V48.8L57.7586 47.36L58.3986 46.72L58.0786 45.92L55.3586 41.28L53.5986 38.4H52.3186L50.7186 38.08L49.4386 37.28L48.6386 37.6L45.9186 39.36L43.3586 40.96L41.2786 42.4L41.4386 43.2V45.12L40.9586 46.24L39.9986 47.36H39.6786V47.68L38.5586 48.16H36.1586L34.5586 47.36L33.5986 46.24L33.2786 45.12V43.04L33.9186 41.6L34.7186 40.64L35.1986 40.32L36.7986 40H37.9186L39.3586 40.32L40.1586 40.64L46.8786 36.16L47.9986 35.36H48.3186L48.1586 34.88V33.44L48.7986 31.84L49.5986 30.88L51.0386 30.08L52.9586 29.92L54.7186 30.56L55.8386 31.68L56.4786 33.12V35.2L55.6786 36.8L55.5186 37.44L57.1186 40.16L58.7186 42.72L59.6786 44.32L60.1586 45.44H62.2386L63.8386 45.92L65.2786 44.48L66.5586 43.36L67.1986 42.56L68.4786 41.44L69.5986 40.32L70.8786 39.36L72.1586 38.08L71.6786 36.8V34.72L72.3186 33.44L73.5986 32.16L74.8786 31.68H76.3186V26.24H36.6386V36.96L35.9986 37.6L35.0386 37.44L34.7186 37.12V24.8L35.0386 24.48H77.9186L78.2386 24.96L78.3986 32.48L79.5186 33.76L79.8386 34.88V36.8L79.5186 37.92L78.7186 39.04L78.3986 39.2L78.2386 43.68L80.1586 43.04H80.9586L80.7986 23.68L80.1586 22.4L79.3586 21.92H33.5986L32.7986 22.4L32.1586 23.52L31.9986 56H34.7186V51.2L35.1986 50.72H36.1586L36.6386 51.2V56H66.3986L66.8786 56.32V57.6L66.5586 57.92H28.4786L29.2786 60L30.7186 61.6L32.9586 62.72L33.5986 62.88L69.1186 63.04L69.5986 63.52V64.48L69.1186 64.96H33.2786L31.5186 64.48L29.9186 63.68L28.1586 62.08L27.1986 60.48L26.5586 58.08V56.48L27.0386 56H30.0786V23.04L30.5586 21.76L31.6786 20.48L33.1186 20ZM51.6786 32L50.7186 32.64V32.96H50.3986L50.0786 34.24L50.5586 35.36L51.3586 36.16L51.8386 36.32H53.1186L54.3986 35.2L54.5586 34.72V33.6L54.0786 32.64L53.1186 32H51.6786ZM75.5186 33.44L74.3986 33.92L73.5986 34.88L73.4386 36.16L73.9186 37.12L74.8786 37.92L75.1986 38.08L76.6386 37.92L77.7586 36.96L78.0786 36.16L77.9186 34.88L77.1186 33.92L75.9986 33.44H75.5186ZM36.6386 41.92L35.6786 42.56L35.1986 43.2L35.0386 44.64L35.8386 45.92L36.7986 46.4H37.9186L39.0386 45.76L39.6786 44.48L39.5186 43.36L38.8786 42.4L38.0786 41.92H36.6386ZM81.4386 44.8L79.0386 45.44L76.9586 46.56L75.3586 48L73.9186 50.24L73.2786 51.84L72.9586 53.28V55.52L73.4386 57.6L74.5586 59.84L76.7986 62.08L78.3986 63.04L79.6786 63.68L82.2386 64.16L84.4786 64L86.5586 63.36L88.3186 62.24L89.9186 60.8L90.8786 59.68L91.9986 57.44L92.4786 55.04V53.76L91.9986 51.52L91.3586 50.08L90.3986 48.48L89.5986 47.52L87.9986 46.24L85.9186 45.28L83.9986 44.8H81.4386ZM61.1186 47.2L59.8386 47.84L59.3586 48.64L59.1986 49.76L59.6786 51.04L60.4786 51.68L61.9186 51.84L63.0386 51.2L63.6786 50.08L63.5186 48.64L62.5586 47.52L61.1186 47.2Z" fill="white"/>
<path d="M77.6011 68.3203H80.6411L81.2811 68.9603L81.1211 69.9203L80.8011 70.2403H79.0411V98.2403H86.7211V80.6403L87.2011 80.1603L88.3211 80.3203L88.4811 80.4803V98.2403H91.2011L91.8411 98.7203V99.6803L91.5211 100H21.4411L21.1211 99.6803V98.7203L21.7611 98.2403H24.3211V78.7203L24.6411 78.0803L25.1211 77.9203H35.2011L35.8411 78.5603V98.2403H51.5211V73.4403H43.8411V92.8003L43.3611 93.1203H42.4011L41.9211 92.6403V72.0003L42.2411 71.6803H52.9611L53.2811 72.0003V98.2403H59.5211V81.7603L60.0011 81.1203H70.5611L71.0411 81.6003V98.2403H77.1211V68.8003L77.6011 68.3203ZM26.2411 79.8403V98.2403H33.9211V79.8403H26.2411ZM61.4411 83.0403V98.2403H69.1211V83.0403H61.4411Z" fill="white"/>
<path d="M81.1194 47.0391H84.3194L86.2394 47.8391L87.6794 48.7991L88.9594 50.2391L89.7594 51.9991L90.0794 53.2791V55.5191L89.5994 57.2791L88.6394 59.0391L87.3594 60.1591L85.9194 61.1191L84.4794 61.5991L83.3594 61.7591H82.0794L80.3194 61.4391L78.5594 60.4791L76.9594 59.1991L75.9994 57.5991L75.3594 55.5191V53.2791L75.9994 51.1991L77.1194 49.4391L78.5594 48.1591L80.6394 47.1991L81.1194 47.0391ZM83.6794 48.9591V53.5991H87.9994L87.8394 52.4791L86.8794 50.7191L85.4394 49.5991L83.6794 48.9591ZM81.1194 49.1191L79.6794 49.7591L78.8794 50.5591L77.7594 52.1591L77.2794 53.7591V55.0391L77.7594 56.6391L78.7194 58.0791L79.3594 58.7191H79.6794V59.0391L80.9594 59.6791L81.5994 59.8391H83.8394L85.4394 59.1991L86.7194 58.2391L87.5194 56.9591L87.9994 55.8391V55.3591L82.3994 55.1991L81.9194 54.8791L81.7594 49.1191H81.1194Z" fill="white"/>
<path d="M53.2809 59.6797H59.6809L60.0009 60.1597V60.9597L59.6809 61.4397H53.4409L52.9609 60.9597V59.9997L53.2809 59.6797Z" fill="white"/>
<path d="M88.16 67.0391H89.76L90.4 68.3191V69.2791L89.92 69.7591H88.96L88.48 69.2791L88 68.3191V67.3591L88.16 67.0391Z" fill="white"/>
<path d="M92.4798 75.0391L93.4398 75.1991L94.2398 76.7991L94.0798 77.7591L93.5998 78.0791L92.6398 77.9191L91.8398 76.3191L91.9998 75.3591L92.4798 75.0391Z" fill="white"/>
<path d="M90.4019 71.0391H91.3619L92.0019 71.6791L92.3219 72.4791V73.4391L92.0019 73.7591H90.7219L89.9219 72.3191V71.5191L90.4019 71.0391Z" fill="white"/>
<path d="M42.5616 94.2402L43.5216 94.4002L44.0016 94.8802L44.1616 95.8402L43.8416 96.4802L43.2016 96.8002L42.0816 96.6402L41.6016 95.8402L41.7616 94.7202L42.5616 94.2402Z" fill="white"/>
<path d="M71.8388 62.7207L72.7987 63.0407L73.1187 64.1607L72.7987 64.9607L72.1587 65.2807L71.1987 65.1207L70.7188 64.3207L70.8787 63.2007L71.1987 62.8807L71.8388 62.7207Z" fill="white"/>
<path d="M36.8002 43.0391H37.9202L38.4002 43.5191V44.7991L37.7602 45.2791L36.6402 45.1191L36.1602 44.3191L36.3202 43.5191L36.8002 43.0391Z" fill="white"/>
<path d="M60.9603 48.4805H61.9203L62.4003 48.8005L62.5603 49.9205L61.7603 50.7205L60.6403 50.5605L60.3203 50.0805V48.9605L60.9603 48.4805Z" fill="white"/>
<path d="M75.5187 34.5605L76.4787 34.7205L76.7987 35.0405V36.3205L76.3187 36.8005H75.1987L74.7188 36.3205V35.0405L75.5187 34.5605Z" fill="white"/>
<path d="M51.8394 33.1191H52.9594L53.4394 33.7591L53.2794 34.7191L52.9594 35.1991H51.9994L51.3594 34.7191V33.5991L51.8394 33.1191Z" fill="white"/>
</g>
<defs>
<clipPath id="clip0_3178_7582">
<rect width="80" height="80" fill="white" transform="translate(20 20)"/>
</clipPath>
</defs>
</svg>
