<svg width="196" height="141" viewBox="0 0 196 141" fill="none" xmlns="http://www.w3.org/2000/svg">
<path d="M92.3768 22.875H96.4168L102.252 24.6706L106.292 27.3639L109.435 30.955L111.23 34.5461L112.128 38.1372V43.9728L110.781 48.4617L109.883 51.155L112.577 54.2972L114.821 59.6839L115.27 61.4794V65.5194L128.288 67.7639L134.572 69.1106L136.817 70.9061L138.163 73.5994V76.7417L136.817 79.435L134.123 81.6794L133.226 82.1283H130.083L117.066 77.6394L112.577 76.2928L108.986 80.7817L104.497 83.9239L100.008 85.7194L98.2123 86.1683H90.5812L84.2968 83.9239L80.2568 80.7817L76.6657 76.7417L74.4212 72.2528L73.5234 68.2128V62.8261L74.8701 57.4394L77.5634 52.5017L78.9101 51.155L78.4612 48.9106L77.1145 45.3194L76.6657 39.9328L78.0123 33.6483L81.1545 28.7106L85.6434 25.1194L90.1323 23.3239L92.3768 22.875ZM91.0301 26.0172L86.5412 27.8128L82.5012 31.4039L80.2568 35.4439L79.8079 37.2394V44.4217L81.1545 48.4617L85.6434 54.2972L88.3368 58.3372L89.6834 60.1328L90.1323 56.0928L91.479 55.6439L90.5812 50.2572H86.9901L85.1945 48.4617V45.7683L86.5412 43.9728L89.2345 43.5239L91.479 44.8706L93.2745 52.0528L94.1723 55.6439L95.0701 54.7461L97.3145 44.8706L99.559 43.5239L103.15 43.9728L103.599 45.3194V48.4617L101.803 50.2572H98.6612L97.7634 53.3994V55.6439L99.1101 56.5417L99.559 60.1328L100.457 58.7861L102.252 55.6439L107.19 49.3594L108.986 45.3194L109.435 43.075V39.035L107.639 33.1994L103.599 28.7106L98.2123 26.0172H91.0301ZM100.008 45.7683L99.559 48.0128L101.355 47.5639V46.2172L100.008 45.7683ZM87.8879 46.2172V48.0128L89.6834 47.5639L89.2345 46.2172H87.8879ZM107.639 52.9506L105.843 55.195L108.088 58.7861L108.986 61.0306L109.435 66.4172L108.537 70.9061L105.843 75.395L101.803 78.5372L95.9679 80.3328L90.5812 79.8839L85.1945 77.1906L81.6034 73.1506L79.8079 68.6617V61.9283L81.6034 57.4394L82.9501 55.6439L82.0523 53.8483H80.2568L77.5634 58.3372L76.6657 61.0306L76.2168 66.8661L77.5634 72.2528L79.359 75.8439L82.0523 78.9861L86.9901 82.1283L91.479 83.475H97.3145L101.803 82.1283L106.292 79.435L109.883 75.395L112.128 70.4572L112.577 68.2128V62.3772L111.23 57.8883L108.537 53.3994L107.639 52.9506ZM84.7457 57.4394L82.5012 61.0306L82.0523 62.3772V68.2128L84.7457 73.5994L88.7857 76.7417L91.479 77.6394H97.3145L100.906 76.2928L104.946 72.7017L106.741 68.6617V61.9283L104.497 57.4394L102.701 59.235L102.252 60.5817L101.803 70.0083L98.2123 73.5994L96.8657 74.0483H91.9279L89.2345 72.2528L86.9901 69.5594L86.5412 60.1328L85.1945 57.4394H84.7457ZM92.3768 58.3372V60.1328H96.4168V58.3372H92.3768ZM89.6834 62.8261V63.7239L99.559 64.1728V62.8261H89.6834ZM89.6834 66.8661V67.7639H99.559V66.8661H89.6834ZM115.27 68.2128L113.923 73.5994L115.719 74.0483L117.066 68.6617L115.27 68.2128ZM119.759 69.1106L118.412 73.5994V74.9461L129.186 78.9861L132.328 79.435L134.572 78.0883L135.47 76.2928L135.021 73.1506L132.777 71.355L119.759 69.1106ZM91.9279 70.9061L92.8257 71.8039H96.4168L97.3145 70.9061H91.9279Z" fill="#1D1D1B"/>
<path d="M49.2848 83.0273H62.3026L62.7515 83.4762V86.1696L71.2804 83.4762L78.9115 85.2718L93.7248 89.3118L96.4182 91.1073L97.3159 92.0051L107.64 86.6185L112.129 84.374L116.169 84.8229L118.414 87.0673L118.863 87.9651V91.1073L117.067 93.8007L106.294 100.085L94.6226 106.818L90.5826 109.063L72.1782 109.512L62.7515 107.716V110.858L61.8537 111.307H49.7337L48.8359 110.41V83.4762L49.2848 83.0273ZM51.5293 85.7207V108.614H60.0582V85.7207H51.5293ZM70.3826 86.6185L62.7515 89.3118V105.023L69.9337 106.37H89.6848L101.805 99.6362L112.578 93.3518L115.72 91.1073L116.169 88.8629L114.374 87.0673L111.68 87.5162L97.7648 94.6985L95.0715 98.7385L94.1737 99.1873H90.1337L76.667 95.5962L75.7693 95.1473L75.3204 93.3518L78.9115 93.8007L90.5826 96.9429H93.2759L94.6226 95.1473L94.1737 92.9029L90.1337 91.1073L73.0759 86.6185H70.3826Z" fill="#444444"/>
<path d="M92.3781 22.875H96.4181L102.254 24.6706L106.294 27.3639L109.436 30.955L111.231 34.5461L112.129 38.1372V43.9728L110.783 48.4617L109.436 48.9106L108.987 49.8083H107.64L104.498 53.8483L101.805 57.4394L101.356 58.3372H102.254L101.356 70.0083L98.2136 73.1506L97.3159 73.5994H91.9292L89.2359 71.8039L87.4403 70.0083L86.9914 61.0306L85.1959 56.9906H84.2981L82.9514 58.7861L82.0536 58.3372L82.9514 56.0928V54.2972L82.0536 53.3994L79.8092 53.8483L77.5648 57.4394L76.667 58.7861H75.3203L76.2181 56.0928L79.3603 51.6039L79.8092 50.2572L78.0136 45.7683L77.1159 39.4839L77.5648 34.995L79.8092 30.5061L82.5025 27.3639L87.4403 24.2217L92.3781 22.875ZM91.0314 26.0172L86.5425 27.8128L82.5025 31.4039L80.2581 35.4439L79.8092 37.2394V44.4217L81.1559 48.4617L85.6448 54.2972L88.3381 58.3372L89.6848 60.1328L90.1336 56.0928L91.4803 55.6439L90.5825 50.2572H86.9914L85.1959 48.4617V45.7683L86.5425 43.9728L89.2359 43.5239L91.4803 44.8706L93.2759 52.0528L94.1736 55.6439L95.0714 54.7461L97.3159 44.8706L99.5603 43.5239L103.151 43.9728L103.6 45.3194V48.4617L101.805 50.2572H98.6625L97.7648 53.3994V55.6439L99.1114 56.5417L99.5603 60.1328L100.458 58.7861L102.254 55.6439L107.191 49.3594L108.987 45.3194L109.436 43.075V39.035L107.64 33.1994L103.6 28.7106L98.2136 26.0172H91.0314ZM100.009 45.7683L99.5603 48.0128L101.356 47.5639V46.2172L100.009 45.7683ZM87.8892 46.2172V48.0128L89.6848 47.5639L89.2359 46.2172H87.8892ZM92.3781 58.3372V60.1328H96.4181V58.3372H92.3781ZM89.6848 62.8261V63.7239L99.5603 64.1728V62.8261H89.6848ZM89.6848 66.8661V67.7639H99.5603V66.8661H89.6848ZM91.9292 70.9061L92.827 71.8039H96.4181L97.3159 70.9061H91.9292Z" fill="#1D1D1B"/>
<path d="M112.129 84.373L116.169 84.8219L118.414 87.0664L118.863 87.9642V91.1064L117.067 93.7997L106.294 100.084L94.6226 106.817L90.5826 109.062L72.1782 109.511L62.7515 107.715V110.857L61.8537 111.306H49.7337L48.8359 110.409V91.1064L49.7337 92.453V102.329H50.6315L51.0804 85.2708L51.5293 84.8219H60.9559V102.329H61.8537L62.3026 89.3108H62.7515V105.022L67.2404 105.471L69.9337 105.92H89.6848L101.805 99.1864L112.578 92.9019L113.476 93.3508L102.254 100.084L99.1115 101.88L100.458 102.329L108.089 97.8397L116.618 92.9019L117.516 91.5553V87.9642L115.271 85.7197L112.129 85.2708V84.373ZM51.5293 85.7197V108.613H60.0582V85.7197H51.5293Z" fill="#1D1D1B"/>
<path d="M92.3781 22.875H96.4181L102.254 24.6706L106.294 27.3639L109.436 30.955L111.231 34.5461L112.129 38.1372V43.9728L110.783 48.4617L109.436 48.9106L108.987 49.8083L108.089 49.3594L109.436 44.8706L108.987 39.035L107.191 33.1994L103.151 28.7106L98.2136 26.4661H91.0314L86.5425 28.2617L82.9514 31.4039L80.2581 35.8928H79.3603V43.9728L80.707 48.0128L83.4003 52.0528L86.9914 56.5417L87.4403 58.3372H86.0936L85.1959 56.9906H84.2981L82.9514 58.7861L82.0536 58.3372L82.9514 56.0928V54.2972L82.0536 53.3994L79.8092 53.8483L77.5648 57.4394L76.667 58.7861H75.3203L76.2181 56.0928L79.3603 51.6039L79.8092 50.2572L78.0136 45.7683L77.1159 39.4839L77.5648 34.995L79.8092 30.5061L82.5025 27.3639L87.4403 24.2217L92.3781 22.875Z" fill="#1D1D1B"/>
<path d="M87.8883 43.0762L90.5816 43.5251L92.3772 45.7695L94.1728 53.8495L94.6216 54.7473L96.8661 44.8717L99.5594 43.0762L102.253 43.5251L104.048 45.3206V48.4628L101.804 50.7073H99.1105L98.2128 53.4006L97.7639 55.6451L98.6616 56.0939V58.3384L96.8661 57.8895H92.3772L90.5816 58.3384V56.5428L89.6839 56.0939L91.4794 55.6451L90.1328 50.7073H86.9905L84.7461 48.4628V45.7695L86.5416 43.5251L87.8883 43.0762ZM100.008 45.7695L99.5594 48.0139L101.355 47.5651V46.2184L100.008 45.7695ZM87.8883 46.2184V48.0139L89.6839 47.5651L89.235 46.2184H87.8883Z" fill="#1D1D1B"/>
<path d="M50.1833 83.4746H61.8544L62.3033 86.6168L65.4455 86.1679L70.8322 84.3724L74.8722 84.8213L78.9122 86.1679L82.5033 87.0657L94.1744 90.2079L95.9699 92.0035V92.9013L94.1744 92.4524L91.0322 91.1057L72.6277 86.1679L69.4855 86.6168L63.6499 88.4124H62.7522L62.3033 99.1857L61.8544 102.328H60.9566V84.8213L51.5299 85.2702L51.081 103.226L50.6322 102.328H49.7344V83.9235L50.1833 83.4746Z" fill="#1D1D1B"/>
<path d="M91.9292 23.7734H97.3159L101.805 25.1201L105.845 27.8134V28.2623L102.703 27.8134L99.1114 26.0179L97.3159 25.569H91.9292L86.9914 27.3645L83.4003 30.0579L80.707 34.0979L80.2581 35.8934H79.3603V43.9734L80.707 48.0134L83.4003 52.0534L86.9914 56.5423L87.4403 58.3379H86.0936L85.1959 56.9912H84.2981L82.9514 58.7868L82.0536 58.3379L82.9514 56.0934V54.2979L82.0536 53.4001L79.8092 53.849L77.5648 57.4401L76.667 58.7868H75.3203L76.2181 56.0934L79.3603 51.6045L79.8092 50.2579L78.0136 45.769L77.5648 43.9734V38.5868L78.4625 34.5468L80.707 30.5068L82.5025 28.2623L86.9914 25.1201L91.9292 23.7734Z" fill="#1D1D1B"/>
<path d="M111.682 84.8223L116.17 85.72L117.966 87.9645V91.5556L115.722 93.8L104.948 100.084L100.01 102.778L98.2148 101.88L107.642 96.4934L115.722 91.5556L116.17 91.1067V87.9645L113.926 86.6178L111.233 87.5156L102.255 92.0045L100.908 92.9023H98.2148L99.5615 91.5556L110.784 85.72H111.682V84.8223Z" fill="#1D1D1B"/>
<path d="M84.2985 56.543L86.094 57.4407L87.4407 61.0319L87.8896 70.0096L91.0318 72.703L91.9296 73.1519H97.3162L100.907 70.0096L101.805 59.6852L103.601 56.543L104.947 56.9919L107.192 61.4807L107.641 62.8274V68.2141L105.845 72.2541L104.947 72.703L106.294 68.663V61.9296L104.498 58.3385H103.601L102.703 60.583L102.254 70.0096L98.214 74.0496L96.8674 74.4985H91.9296L89.2362 72.703L86.5429 69.5607L86.094 60.1341L84.7474 57.8896L82.5029 62.3785V68.2141L84.7474 72.703V73.6007H83.8496L81.6051 69.1119L81.1562 67.3163V63.7252L82.9518 58.7874L84.2985 56.543Z" fill="#1D1D1B" fill-opacity="0.294118"/>
<path d="M75.7695 73.5996L77.1162 75.3952L79.8095 78.9863L83.4006 82.1285L88.3384 84.3729L90.5829 84.8218H98.6629L104.947 82.5774L109.436 78.9863L112.13 74.9463L114.374 75.3952L129.187 80.7818H133.676L135.921 79.8841L134.125 81.6796L133.227 82.1285H130.085L117.067 77.6396L112.578 76.2929L108.987 80.7818L104.498 83.9241L100.01 85.7196L98.214 86.1685H90.5829L84.2984 83.9241L80.2584 80.7818L76.6673 76.7418L75.7695 74.9463V73.5996Z" fill="#1D1D1B"/>
<path d="M77.5648 38.5859L78.9114 39.0348L79.8092 46.217L82.5025 51.1548L86.9914 56.5415L87.4403 58.337H86.0936L85.1959 56.9904H84.2981L82.9514 58.7859L82.0536 58.337L82.9514 56.0926V54.297L82.0536 53.3993L79.8092 53.8482L77.5648 57.4393L76.667 58.7859H75.3203L76.2181 56.0926L79.3603 51.6037L79.8092 50.257L78.0136 45.7682L77.5648 43.9726V38.5859Z" fill="#1D1D1B" fill-opacity="0.113725"/>
<path d="M87.8886 43.0762L90.582 43.5251L92.3775 45.7695V48.4628L91.9286 49.3606L89.6842 50.2584L86.542 49.8095L85.1953 47.5651L86.0931 44.8717L87.8886 43.0762ZM87.8886 46.2184V48.0139L89.6842 47.5651L89.2353 46.2184H87.8886Z" fill="#1D1D1B"/>
<path d="M51.527 84.8223H60.9537V97.84L60.0559 97.3912V85.72H51.527V108.613H51.0781V85.2712L51.527 84.8223Z" fill="#1D1D1B"/>
<path d="M114.375 92.4531L116.619 92.902L114.375 94.6976L103.153 100.982L100.01 102.778L98.2148 101.88L107.642 96.4931L114.375 92.4531Z" fill="#1D1D1B"/>
<path d="M89.234 61.9297H99.5585L100.456 62.3786V64.1741L99.5585 64.623H89.234L88.7852 62.3786L89.234 61.9297ZM89.6829 62.8275V63.7252L99.5585 64.1741V62.8275H89.6829Z" fill="#444444"/>
<path d="M68.5889 41.2793H73.0777L74.4244 42.626L73.9755 43.9726L73.0777 44.4215H68.5889L67.2422 43.5237L67.6911 41.7282L68.5889 41.2793Z" fill="#1D1D1B"/>
<path d="M115.718 41.2793H120.656L121.554 42.1771L121.105 43.9726L120.656 44.4215H115.718L114.82 43.9726L115.269 41.7282L115.718 41.2793Z" fill="#1D1D1B"/>
<path d="M105.396 55.6445L107.192 56.5423L109.436 61.0312L109.885 66.4179L108.987 70.9068L106.294 75.3956L103.152 78.089L102.254 77.6401L104.498 75.8445L107.192 71.8045L108.538 67.7645V62.3779L107.192 58.3379L105.396 55.6445Z" fill="#1D1D1B"/>
<path d="M71.2809 28.7109L73.9743 29.1598L77.1165 31.4043L76.6676 33.1998L75.3209 33.6487L70.832 30.9554L71.2809 28.7109Z" fill="#1D1D1B"/>
<path d="M80.7067 19.2852L82.9511 19.734L85.1956 23.774L84.2978 25.5696L82.5023 25.1207L80.2578 21.5296L80.7067 19.2852Z" fill="#1D1D1B"/>
<path d="M115.72 28.7109L117.964 29.1598L117.515 31.4043L113.026 33.6487L111.68 32.7509L112.129 30.9554L115.72 28.7109Z" fill="#1D1D1B"/>
<path d="M82.5006 28.2617H84.7451L82.0517 31.8528L80.7051 34.0973L80.2562 35.8928H79.3584L78.9095 39.0351H78.0117V35.8928L80.7051 30.5062L82.5006 28.2617Z" fill="#1D1D1B"/>
<path d="M106.291 19.2852L108.536 19.734L108.087 22.4274L106.291 25.1207L104.496 25.5696L104.047 23.3252L106.291 19.2852Z" fill="#1D1D1B"/>
<path d="M93.7262 15.6934L95.5218 16.1422L95.9707 16.5911V21.9778L95.5218 22.4267H93.2773V16.1422L93.7262 15.6934Z" fill="black"/>
<path d="M50.6322 87.9648H51.081V103.227L50.6322 102.329H49.7344V92.9026H50.6322V87.9648Z" fill="#1D1D1B"/>
<path d="M109.885 38.5859L111.232 39.0348V44.8704L109.437 49.8082L108.09 49.3593L109.437 44.8704V40.3815L109.885 38.5859Z" fill="#1D1D1B"/>
<path d="M77.5625 38.5859L78.9092 39.0348L79.8069 46.217L81.1536 49.3593H79.3581L78.0114 45.7682L77.5625 43.9726V38.5859Z" fill="#1D1D1B"/>
<path d="M49.2848 83.0273H62.3026L60.9559 83.9251H50.1826L49.7337 92.454L48.8359 91.1073V83.4762L49.2848 83.0273Z" fill="#1D1D1B"/>
<path d="M61.8548 88.8613L62.7526 89.3102L62.3037 99.1858L61.8548 102.328H60.957V92.9013H61.8548V88.8613Z" fill="#1D1D1B"/>
<path d="M91.0309 70.0098H97.7643L98.2131 71.3564L96.8665 72.2542H91.9287L90.582 70.4587L91.0309 70.0098ZM91.9287 70.9075L92.8265 71.8053H96.4176L97.3154 70.9075H91.9287Z" fill="#1D1D1B"/>
<path d="M116.618 28.7109L117.516 29.1598L117.067 30.9554L113.925 32.7509H112.578V31.4043L115.72 29.6087H116.618V28.7109Z" fill="#1D1D1B"/>
<path d="M92.3782 57.4395H96.8671L97.316 57.8883V60.1328H96.4182V58.3372H92.3782V60.1328H91.4805L91.9294 57.8883L92.3782 57.4395Z" fill="#1D1D1B"/>
<path d="M81.1562 19.7324L82.5029 20.1813L84.2985 23.3235V24.6702L82.5029 24.2213L81.1562 21.528V19.7324Z" fill="#1D1D1B"/>
<path d="M68.1367 42.1777H73.0745L73.5234 43.5244H68.1367V42.1777Z" fill="#1D1D1B"/>
<path d="M72.1794 29.1602L76.2194 31.4046V32.7513L73.526 31.8535L71.7305 30.5068L72.1794 29.1602Z" fill="#1D1D1B"/>
<path d="M93.7227 16.5918H95.0693V21.9785L93.7227 21.5296V16.5918Z" fill="#1D1D1B"/>
<path d="M107.641 70.9062H108.538L107.641 73.5996L104.498 77.1907L102.254 78.0885L104.947 74.9463L106.743 72.7018L107.641 70.9062Z" fill="#1D1D1B"/>
<path d="M115.719 42.1777H120.657V43.5244H115.719V42.1777Z" fill="#1D1D1B"/>
<path d="M112.128 74.9473L114.373 75.3962L118.413 76.7428V77.1917L114.822 76.7428L112.577 76.2939L111.23 77.1917L112.128 74.9473Z" fill="#1D1D1B"/>
<path d="M87.89 45.3203L90.1344 45.7692L90.5833 47.1159L90.1344 48.0136L89.2366 47.5648V46.667H87.89V48.0136H86.9922V45.7692L87.89 45.3203Z" fill="#1D1D1B"/>
<path d="M84.2965 56.543L86.0921 57.4407L86.9899 59.6852L86.541 61.4807L84.7454 57.8896H83.8477L84.2965 56.543Z" fill="#1D1D1B"/>
<path d="M0.5 122H196" stroke="#5F56AF" stroke-opacity="0.5"/>
<g opacity="0.2" filter="url(#filter0_f_449_439)">
<path d="M25.6071 95.063V76.2469L42.4987 71.7571L25.6071 31.9136L144.423 4L142.63 43.7851L177 49.9753L144.423 101.287L139.703 108.721L138.429 137L77.069 110.728H25.6071V95.063Z" fill="#5F56AF" fill-opacity="0.5"/>
</g>
<defs>
<filter id="filter0_f_449_439" x="11" y="0" width="170" height="141" filterUnits="userSpaceOnUse" color-interpolation-filters="sRGB">
<feFlood flood-opacity="0" result="BackgroundImageFix"/>
<feBlend mode="normal" in="SourceGraphic" in2="BackgroundImageFix" result="shape"/>
<feGaussianBlur stdDeviation="2" result="effect1_foregroundBlur_449_439"/>
</filter>
</defs>
</svg>
