<svg width="79" height="79" viewBox="0 0 79 79" fill="none" xmlns="http://www.w3.org/2000/svg">
<path d="M6.78906 3.08594H72.2109L74.9883 4.01172L76.2227 5.55469L76.5312 6.17188V72.8281L75.2969 74.6797L73.7539 75.6055L72.2109 75.9141H6.78906L4.01172 74.9883L2.77734 73.4453L2.46875 72.8281V6.17188L3.70312 4.32031L5.24609 3.39453L6.78906 3.08594ZM6.48047 5.55469L4.9375 6.78906V10.8008L6.48047 12.0352H72.5195L74.0625 10.8008V6.78906L72.5195 5.55469H6.48047ZM4.9375 13.8867V72.2109L6.48047 73.4453H72.5195L74.0625 72.2109V13.8867H4.9375Z" fill="#5F56AF" fill-opacity="0.5"/>
<path d="M14.1953 29.625H16.3555L18.8242 30.5508L20.3672 31.7852L21.6016 33.9453L21.9102 35.1797V37.957L20.3672 41.043L17.5898 42.8945L16.3555 43.2031H13.8867L11.418 42.2773L9.875 40.7344L8.64062 38.8828L8.33203 35.4883L9.25781 32.7109L11.418 30.5508L14.1953 29.625ZM14.1953 32.0938L12.3438 33.0195L13.5781 33.6367L13.8867 35.4883H12.3438L11.7266 33.9453L11.1094 34.5625L10.8008 37.3398L11.418 38.2656L12.0352 37.0312L14.1953 36.1055L16.9727 36.4141L18.5156 37.3398L19.1328 38.2656L19.4414 37.6484V35.1797L18.5156 33.9453L17.8984 35.4883H16.3555L16.6641 33.6367L17.8984 33.0195L16.0469 32.0938H14.1953ZM14.5039 38.2656L13.5781 38.8828L12.0352 39.1914L13.2695 40.4258L14.1953 40.7344H16.3555L18.207 39.5V39.1914L16.3555 38.5742L16.0469 38.2656H14.5039Z" fill="#5F56AF" fill-opacity="0.5"/>
<path d="M13.2695 59.25H17.2812L19.75 60.793L21.293 62.6445L21.9102 64.4961V67.2734L20.6758 70.0508L18.5156 71.9023L16.9727 72.5195H13.2695L10.8008 71.2852L9.25781 69.4336L8.33203 66.9648V64.8047L9.56641 61.7188L11.7266 59.8672L13.2695 59.25ZM14.8125 61.4102L12.6523 62.3359L11.418 63.5703L10.8008 64.8047L11.1094 67.582L11.7266 68.1992L12.3438 66.9648H17.8984L18.8242 68.1992L19.4414 66.9648V64.8047L18.207 62.6445L15.7383 61.4102H14.8125ZM12.6523 69.125L13.5781 70.0508H16.6641L17.5898 69.125H12.6523Z" fill="#5F56AF" fill-opacity="0.5"/>
<path d="M32.4023 43.8203L33.9453 44.7461L35.1797 47.5234V48.1406H37.6484L39.8086 48.7578V50.3008L37.0312 53.0781L37.6484 56.1641L37.3398 57.707L35.7969 58.0156L33.0195 56.4727L31.4766 56.7812L29.3164 58.0156L27.7734 57.707L27.4648 56.4727L28.082 53.0781L25.3047 50.3008V48.7578L27.4648 48.1406L29.9336 47.832L31.7852 44.1289L32.4023 43.8203ZM32.4023 48.1406L31.4766 49.9922L29.625 50.6094L30.5508 51.8438V54.3125L32.0938 53.6953L33.6367 54.0039L34.5625 54.3125V51.8438L35.4883 50.6094L33.3281 49.6836L32.7109 48.1406H32.4023Z" fill="#5F56AF" fill-opacity="0.5"/>
<path d="M14.5039 44.1289L17.2812 44.4375L19.1328 45.3633L21.293 47.832L21.9102 49.6836V52.4609L20.3672 55.5469L18.5156 57.0898L16.6641 57.707H13.5781L10.4922 56.1641L8.64062 53.3867L8.33203 52.1523V49.9922L9.25781 47.5234L11.1094 45.3633L12.9609 44.4375L14.5039 44.1289ZM14.1953 46.5977L11.7266 48.1406L10.8008 49.9922L11.1094 52.7695L12.6523 54.6211L13.8867 55.2383H16.3555L18.207 54.0039L19.4414 52.1523V49.9922L18.5156 48.1406L16.9727 46.9062L14.1953 46.5977Z" fill="#5F56AF" fill-opacity="0.5"/>
<path d="M13.5781 15.1211H16.6641L19.75 16.6641L20.9844 18.207L21.9102 20.3672V23.1445L20.9844 25.6133L19.4414 27.1562L18.207 28.082L16.0469 28.6992L12.9609 28.3906L11.1094 27.4648L8.94922 24.9961L8.33203 22.8359V20.6758L9.25781 18.207L10.4922 16.6641L13.5781 15.1211ZM13.8867 17.5898L12.0352 18.8242L11.1094 20.0586L10.8008 22.8359L11.7266 24.6875L13.2695 25.9219L16.0469 26.2305L17.8984 25.3047L19.1328 23.7617L19.4414 22.8359V20.6758L18.207 18.8242L16.3555 17.5898H13.8867Z" fill="#5F56AF" fill-opacity="0.5"/>
<path d="M38.2656 7.71484H70.3594L70.668 8.02344V9.56641L70.0508 10.1836H38.5742L37.957 9.875V8.02344L38.2656 7.71484Z" fill="#5F56AF" fill-opacity="0.5"/>
<path d="M41.9688 46.2891H70.668L71.2852 46.9062L70.9766 48.4492L70.668 48.7578H41.9688L41.3516 48.1406L41.6602 46.5977L41.9688 46.2891Z" fill="#5F56AF" fill-opacity="0.5"/>
<path d="M41.9688 38.5742H70.668L71.2852 39.1914L70.9766 40.7344L70.668 41.043H41.9688L41.3516 40.4258L41.6602 38.8828L41.9688 38.5742Z" fill="#5F56AF" fill-opacity="0.5"/>
<path d="M41.9688 31.7852H70.668L71.2852 32.4023L70.9766 33.9453L70.668 34.2539H41.9688L41.3516 33.6367L41.6602 32.0938L41.9688 31.7852Z" fill="#5F56AF" fill-opacity="0.5"/>
<path d="M41.9688 24.0703H70.668L71.2852 24.6875L70.9766 26.2305L70.668 26.5391H41.9688L41.3516 25.9219L41.6602 24.3789L41.9688 24.0703Z" fill="#5F56AF" fill-opacity="0.5"/>
<path d="M42.2773 61.1016H70.3594L71.2852 61.7188L70.9766 63.5703H41.9688L41.3516 62.9531L41.6602 61.4102L42.2773 61.1016Z" fill="#5F56AF" fill-opacity="0.5"/>
<path d="M41.9688 17.2812H70.9766L71.2852 19.1328L70.3594 19.75H42.2773L41.3516 19.1328L41.6602 17.5898L41.9688 17.2812Z" fill="#5F56AF" fill-opacity="0.5"/>
<path d="M41.6602 68.1992H70.9766L71.2852 68.5078V70.0508L70.9766 70.3594H41.6602L41.3516 68.8164L41.6602 68.1992Z" fill="#5F56AF" fill-opacity="0.5"/>
<path d="M41.6602 53.3867H70.9766L71.2852 54.9297L70.9766 55.5469H41.6602L41.3516 54.0039L41.6602 53.3867Z" fill="#5F56AF" fill-opacity="0.5"/>
<path d="M28.6992 31.7852L30.2422 32.0938L32.4023 34.2539L34.5625 32.4023L35.4883 31.7852L37.0312 32.0938V33.9453L34.8711 36.1055L35.4883 37.3398L37.0312 38.8828V40.7344L36.7227 41.043H35.1797L32.7109 38.5742L30.5508 40.4258L29.9336 41.043H28.3906L28.082 40.7344V38.8828L30.2422 36.7227L29.625 35.4883L28.082 33.9453V32.0938L28.6992 31.7852Z" fill="#5F56AF" fill-opacity="0.5"/>
<path d="M36.4141 62.0273H37.957L38.5742 62.6445L38.2656 64.1875L33.0195 69.4336L31.168 69.7422L28.6992 67.582L26.5391 65.1133L27.1562 63.5703H28.6992L31.4766 66.3477L32.7109 65.7305L36.4141 62.0273Z" fill="#5F56AF" fill-opacity="0.5"/>
<path d="M36.7227 18.207L38.2656 18.5156L38.5742 20.0586L32.7109 25.9219L31.4766 26.2305L29.0078 24.0703L26.8477 21.9102L26.5391 20.6758L27.1562 19.75L28.6992 20.0586L31.4766 22.8359L32.7109 22.2188L36.7227 18.207Z" fill="#5F56AF" fill-opacity="0.5"/>
<path d="M22.8359 7.40625H35.1797L36.1055 8.02344L35.7969 9.56641L35.4883 9.875H22.5273L22.2188 9.56641V8.02344L22.8359 7.40625Z" fill="#5F56AF" fill-opacity="0.5"/>
<path d="M8.94922 7.40625H19.75L20.6758 8.33203L20.0586 9.875H8.64062L8.33203 9.56641V7.71484L8.94922 7.40625Z" fill="#5F56AF" fill-opacity="0.5"/>
<path d="M12.0352 22.2188H13.5781L14.5039 22.8359L16.3555 22.5273L16.6641 22.2188H18.207L18.8242 22.8359L18.5156 24.3789L16.0469 25.6133L13.2695 25.3047L11.7266 24.3789L11.418 22.8359L12.0352 22.2188Z" fill="#5F56AF" fill-opacity="0.5"/>
<path d="M12.3438 50.918L14.1953 51.5352L15.4297 51.8438L17.2812 50.918L18.5156 51.2266L18.8242 52.7695L17.5898 54.0039L16.6641 54.3125H13.5781L11.7266 53.0781L11.418 51.8438L12.3438 50.918Z" fill="#5F56AF" fill-opacity="0.5"/>
<path d="M23.1445 65.4219H26.5391L27.1562 66.9648L26.5391 67.8906H23.1445L22.5273 67.2734L22.8359 65.7305L23.1445 65.4219Z" fill="#5F56AF" fill-opacity="0.5"/>
<path d="M12.3438 48.1406L13.8867 48.4492L14.1953 49.6836L13.5781 50.6094H12.0352L11.7266 50.3008V48.7578L12.3438 48.1406Z" fill="#5F56AF" fill-opacity="0.5"/>
<path d="M12.3438 19.1328L13.8867 19.4414L14.1953 20.6758L13.5781 21.6016L12.0352 21.293L11.7266 19.75L12.3438 19.1328Z" fill="#5F56AF" fill-opacity="0.5"/>
<path d="M12.6523 62.9531L13.8867 63.2617L14.1953 64.4961L13.5781 65.4219H12.0352L11.7266 65.1133V63.5703L12.6523 62.9531Z" fill="#5F56AF" fill-opacity="0.5"/>
<path d="M16.9727 48.1406L18.207 48.4492L18.5156 48.7578V50.3008L18.207 50.6094H16.6641L16.3555 50.3008V48.4492L16.9727 48.1406Z" fill="#5F56AF" fill-opacity="0.5"/>
<path d="M16.6641 19.1328L18.5156 19.4414V21.293L16.9727 21.6016L16.3555 21.293V19.4414L16.6641 19.1328Z" fill="#AFABD7"/>
<path d="M17.2812 62.9531L18.5156 63.5703V65.1133L18.207 65.4219H16.6641L16.3555 65.1133V63.5703L17.2812 62.9531Z" fill="#5F56AF" fill-opacity="0.5"/>
</svg>
