<svg width="79" height="79" viewBox="0 0 79 79" fill="none" xmlns="http://www.w3.org/2000/svg">
<g clip-path="url(#clip0_3178_7471)">
<path d="M50.6094 0.617188H54.6211L58.9414 1.54297L63.8789 4.01172L67.582 7.40625L69.7422 10.8008L71.2852 14.5039L71.9023 17.2812V22.2188L74.3711 22.5273L76.5312 23.7617L78.0742 26.2305V30.2422L72.8281 50.3008L71.5938 52.7695L70.0508 54.0039L68.8164 54.6211H37.957L39.1914 58.0156L41.6602 60.1758L44.1289 61.1016L78.6914 61.4102L79 61.7188V63.5703L78.3828 64.1875H44.1289L41.3516 63.5703L38.2656 61.7188L35.7969 58.3242L33.3281 49.375L26.5391 22.8359L25.3047 19.4414L23.4531 17.2812L20.6758 16.0469L0.617188 15.7383L0 15.1211V13.2695L0.617188 12.9609H21.293L24.3789 14.1953L26.5391 15.7383L28.3906 18.5156L29.3164 21.293V22.2188H33.3281V17.5898L34.5625 12.6523L36.7227 8.64062L40.1172 4.9375L43.5117 2.77734L47.2148 1.23438L50.6094 0.617188ZM50.918 4.01172L48.7578 6.78906L47.2148 11.1094L47.5234 11.7266H51.2266V4.01172H50.918ZM54.0039 4.01172V11.7266H57.707L58.0156 11.1094L56.4727 6.78906L54.6211 4.32031L54.0039 4.01172ZM58.3242 4.62891L60.1758 9.25781L60.793 11.1094L64.8047 9.875V8.64062L62.3359 6.48047L58.9414 4.62891H58.3242ZM46.2891 4.62891L42.8945 6.48047L40.1172 8.94922L40.4258 9.875L44.4375 11.1094L46.2891 6.17188L46.9062 4.62891H46.2891ZM38.2656 11.7266L37.0312 14.1953L36.1055 17.5898V18.5156H43.5117L43.8203 13.5781L39.1914 12.0352L38.2656 11.7266ZM66.0391 12.0352L61.4102 13.5781L61.7188 18.5156H69.125L68.5078 15.1211L67.2734 12.0352H66.0391ZM46.5977 14.1953L46.2891 18.5156H51.2266V14.5039L46.5977 14.1953ZM57.707 14.1953L54.0039 14.5039V18.5156H58.9414V16.0469L58.6328 14.1953H57.707ZM36.1055 21.293L36.7227 24.9961L38.2656 28.082L43.8203 26.2305L43.5117 21.293H36.1055ZM46.2891 21.293V23.7617L46.5977 25.6133L51.2266 25.3047V21.293H46.2891ZM54.0039 21.293V25.3047L58.6328 25.6133L58.9414 23.7617V21.293H54.0039ZM61.7188 21.293L61.4102 26.2305L66.9648 28.082L68.5078 24.9961L69.125 21.293H61.7188ZM30.2422 24.9961L30.8594 28.082L37.0312 51.8438H68.1992L69.7422 50.6094L72.2109 41.6602L75.2969 29.625V26.8477L73.7539 25.3047L71.2852 24.9961L69.125 29.9336L66.9648 32.7109L64.4961 35.1797L60.1758 37.6484L57.3984 38.5742L55.5469 38.8828H49.6836L45.9805 37.957L41.6602 35.7969L38.5742 33.0195L36.4141 30.2422L34.5625 26.5391L33.9453 24.9961H30.2422ZM48.7578 28.082L47.2148 28.3906L48.1406 31.7852L49.9922 34.8711L51.2266 35.7969V28.082H48.7578ZM54.0039 28.082V35.7969L55.8555 34.2539L57.3984 30.8594L58.0156 28.3906L56.4727 28.082H54.0039ZM43.5117 29.0078L40.1172 30.2422L40.7344 31.4766L43.5117 33.9453L46.9062 35.4883L46.2891 33.9453L44.7461 29.3164L43.5117 29.0078ZM60.793 29.0078L58.6328 34.5625V35.1797L60.4844 34.5625L63.2617 32.7109L65.1133 30.8594V30.2422L61.7188 29.0078H60.793Z" fill="#5F56AF" fill-opacity="0.5"/>
<path d="M48.1406 66.0391H51.2266L53.6953 67.2734L55.2383 69.125L55.8555 70.668V73.4453L54.9297 75.6055L53.6953 77.1484L50.918 78.3828H48.4492L45.6719 77.1484L43.8203 74.6797L43.5117 73.4453V70.668L44.7461 68.1992L46.5977 66.6562L48.1406 66.0391ZM48.7578 68.8164L46.9062 70.0508L46.2891 71.2852V73.1367L47.2148 74.6797L49.0664 75.6055L51.2266 75.2969L52.7695 73.7539L53.0781 71.2852L51.8438 69.4336L50.6094 68.8164H48.7578Z" fill="#5F56AF" fill-opacity="0.5"/>
<path d="M65.1133 66.0391H67.8906L70.0508 66.9648L71.5938 68.5078L72.5195 70.0508V74.0625L71.5938 75.9141L69.4336 77.7656L67.582 78.3828H65.4219L62.9531 77.457L60.793 74.9883L60.4844 74.0625V70.3594L61.4102 68.5078L63.5703 66.6562L65.1133 66.0391ZM65.7305 68.8164L64.1875 69.7422L63.2617 70.9766V73.4453L64.4961 74.9883L65.7305 75.6055L67.8906 75.2969L69.4336 74.0625L69.7422 73.4453V70.9766L68.1992 69.125L67.582 68.8164H65.7305Z" fill="#5F56AF" fill-opacity="0.5"/>
</g>
<defs>
<clipPath id="clip0_3178_7471">
<rect width="79" height="79" fill="white"/>
</clipPath>
</defs>
</svg>
