<svg width="79" height="79" viewBox="0 0 79 79" fill="none" xmlns="http://www.w3.org/2000/svg">
<path d="M37.0312 12.3438H41.043L44.1289 13.2695L47.2148 15.1211L49.375 17.5898L50.918 20.9844L51.2266 22.2188V27.1562L52.4609 27.7734L53.0781 28.6992V35.1797L51.5352 36.7227L51.2266 41.9688L50.3008 43.5117L49.0664 43.8203V44.4375L51.8438 45.0547L55.2383 46.2891L57.0898 47.5234L58.6328 50.6094V57.3984L58.0156 58.0156H56.4727L55.8555 57.3984L55.5469 51.2266L54.6211 49.6836L53.3867 48.7578L47.2148 46.9062L46.9062 51.2266L45.9805 57.3984L45.3633 58.0156H43.8203L43.2031 57.3984L43.5117 54.0039L40.7344 54.6211H37.3398L34.8711 54.0039V57.707L34.5625 58.0156H32.7109L32.0938 56.7812L30.8594 46.9062L24.3789 49.0664L23.1445 50.3008L22.8359 50.918L22.5273 56.7812L21.9102 58.0156H20.0586L19.75 57.707V49.9922L21.293 47.5234L23.4531 45.9805L28.3906 44.4375H29.3164V43.8203L28.082 43.5117L27.1562 42.2773L26.8477 41.3516L26.5391 36.7227L25.3047 35.4883L24.9961 34.5625V29.3164L25.9219 27.7734L26.5391 27.1562L27.1562 21.6016L28.3906 18.5156L30.2422 16.0469L32.7109 13.8867L35.7969 12.6523L37.0312 12.3438ZM37.6484 15.1211L34.2539 16.3555L33.9453 16.9727L36.4141 16.3555H41.9688L43.8203 16.6641L43.5117 16.0469L40.7344 15.1211H37.6484ZM37.0312 18.8242L33.9453 20.0586L31.168 22.8359L29.9336 25.6133L30.2422 26.8477V26.2305L34.2539 25.6133L36.7227 24.0703L38.2656 21.9102H40.4258L41.043 23.4531L43.2031 25.3047L44.7461 25.9219L47.832 26.5391L48.4492 26.8477L47.832 24.3789L45.9805 21.6016L44.1289 20.0586L41.3516 18.8242H37.0312ZM38.8828 25.6133L36.4141 27.4648L33.9453 28.3906L32.7109 28.6992V34.2539L33.6367 36.7227L36.4141 39.1914L37.3398 39.5H41.043L41.6602 38.8828L38.8828 38.5742L38.5742 38.2656V36.7227L38.8828 36.4141L44.7461 36.1055L45.3633 35.1797V28.6992L41.6602 27.4648L39.5 25.6133H38.8828ZM28.082 29.625L27.7734 29.9336V33.9453L28.082 34.2539H29.9336V29.625H28.082ZM48.1406 29.625V34.2539H50.3008V29.625H48.1406ZM29.625 37.0312V41.043L29.9336 41.3516H33.0195L32.7109 39.8086L30.8594 37.0312H29.625ZM46.2891 38.8828L45.3633 39.8086V41.3516H48.1406L48.4492 41.043V38.8828H46.2891ZM35.7969 41.9688L35.1797 44.4375L33.6367 45.9805L33.9453 49.6836L34.2539 50.6094L37.6484 51.8438H40.4258L43.2031 50.918L44.1289 50.3008L44.7461 45.9805L43.2031 44.7461L42.5859 41.9688H35.7969Z" fill="#5F56AF" fill-opacity="0.5"/>
<path d="M38.5742 3.70312L44.1289 4.01172L50.6094 5.55469L53.3867 6.48047L53.6953 4.9375L54.9297 4.01172L56.1641 3.70312H76.2227L78.3828 4.62891L79 5.55469V20.3672L77.457 21.9102L76.5312 22.2188L71.5938 22.5273L70.9766 23.1445L72.5195 26.5391L74.0625 31.4766L74.6797 35.1797V43.8203L73.4453 49.9922L71.5938 54.6211L69.125 59.25L66.6562 62.3359L63.8789 65.4219L60.1758 68.5078L56.1641 70.9766L51.5352 73.1367L45.9805 74.6797L38.8828 75.2969L37.6484 74.3711L37.957 72.8281L40.1172 72.2109L45.3633 71.5938L50.918 70.0508L55.8555 67.582L59.8672 64.8047L62.9531 62.0273L66.3477 57.707L69.4336 51.8438L70.9766 46.9062L71.5938 43.5117V35.4883L70.3594 29.625L68.1992 24.6875L62.0273 28.3906L60.4844 28.6992L59.5586 27.7734L59.8672 24.9961L60.4844 22.2188H55.8555L54.0039 21.293L53.0781 19.75V9.56641L51.5352 9.25781L46.9062 7.71484L43.5117 7.09766L37.957 6.78906L32.7109 7.40625L28.082 8.64062L22.2188 11.418L17.8984 14.5039L13.8867 18.5156L11.1094 22.5273L8.64062 27.4648L7.09766 32.4023L6.78906 35.7969L8.33203 34.5625L9.875 34.8711L10.1836 35.1797V36.7227L8.02344 38.8828L5.86328 40.7344H3.70312L0 36.4141V34.5625L0.617188 33.9453L2.46875 34.2539L3.39453 35.4883L4.32031 30.5508L5.86328 25.9219L8.33203 20.9844L11.418 16.6641L14.1953 13.5781L17.5898 10.8008L21.9102 8.02344L26.5391 5.86328L32.4023 4.32031L38.5742 3.70312ZM56.4727 6.48047L55.8555 7.09766V19.1328L56.1641 19.4414L62.9531 19.75L63.2617 20.0586L62.9531 24.3789L66.6562 22.2188L70.668 19.75L75.9141 19.4414L76.2227 19.1328V6.78906L75.9141 6.48047H56.4727Z" fill="#5F56AF" fill-opacity="0.5"/>
<path d="M6.78906 43.8203H13.8867L15.7383 44.7461L16.6641 46.2891L17.5898 50.3008V53.6953L16.3555 55.2383L16.6641 56.7812L20.0586 60.4844L22.5273 62.3359L23.7617 61.7188L25.6133 60.793L28.6992 61.1016L32.7109 62.0273L34.2539 63.2617L34.5625 63.8789V72.5195L33.3281 74.0625L32.0938 74.6797H29.3164L24.0703 73.4453L19.4414 71.5938L14.8125 68.5078L11.1094 65.1133L7.71484 60.4844L5.55469 55.8555L4.32031 51.8438L4.01172 50.3008V45.9805L5.24609 44.4375L6.78906 43.8203ZM7.09766 46.5977L6.78906 46.9062V49.6836L8.02344 54.3125L10.4922 59.5586L12.9609 62.6445L15.1211 65.1133L18.8242 67.8906L23.7617 70.3594L28.082 71.5938L31.4766 71.9023L31.7852 71.5938V64.8047L26.8477 63.5703L25.3047 64.1875L24.0703 65.4219H22.2188L18.8242 63.2617L15.4297 59.8672L12.9609 56.1641V54.6211L14.8125 52.7695L14.5039 49.375L13.8867 47.2148L13.2695 46.5977H7.09766Z" fill="#5F56AF" fill-opacity="0.5"/>
<path d="M58.0156 9.25781H74.0625L74.6797 9.875V11.418L73.7539 12.0352H58.3242L57.707 11.418V9.56641L58.0156 9.25781Z" fill="#5F56AF" fill-opacity="0.5"/>
<path d="M58.6328 13.8867H66.6562L67.582 14.8125L67.2734 16.3555L66.9648 16.6641H58.0156L57.707 16.3555V14.5039L58.6328 13.8867Z" fill="#5F56AF" fill-opacity="0.5"/>
<path d="M70.0508 13.8867H73.7539L74.6797 14.5039L74.3711 16.6641H69.7422L69.125 16.0469L69.4336 14.5039L70.0508 13.8867Z" fill="#5F56AF" fill-opacity="0.5"/>
</svg>
