<svg width="79" height="83" viewBox="0 0 79 83" fill="none" xmlns="http://www.w3.org/2000/svg">
<path d="M52.9958 18.2676H65.5042L66.1625 19.2922L66.4917 37.0529L68.7958 35.0036L70.1125 34.3205L73.075 33.979L76.0375 35.0036L78.0125 36.7114L79 38.7607V42.8593L77.6833 45.9333L73.4042 52.0812L69.125 58.2291L65.5042 63.3524L62.5417 66.4263L59.25 68.1341L56.9458 68.8172L30.9417 69.1588L30.2833 70.525L31.9292 72.2327L31.6 73.9405L23.3708 82.4793H21.3958L0 60.2784V58.2291L8.22917 49.6903H10.2042L11.5208 51.0565L12.8375 50.3734L17.1167 45.9333L19.4208 44.567L20.7375 44.2255L21.0667 37.736L21.3958 37.3945H33.9042L34.5625 38.4191V44.2255H36.8667V29.5388L37.1958 29.1972H49.7042L50.3625 30.2219V44.2255H52.6667V18.6091L52.9958 18.2676Z" fill="#5F56AF" fill-opacity="0.5"/>
<path d="M71.0992 37.0547H73.4034L75.3784 38.0793L76.3659 39.7871L76.0367 42.8611L73.7326 46.6181L69.7826 52.083L65.5034 58.5724L62.5409 62.3295L60.2367 64.3788L56.9451 65.745L55.6284 66.0866L29.6242 66.4281L27.9784 68.1359L26.6617 67.4528L13.8242 54.1323L14.4826 52.7661L18.4326 48.6674L20.4076 47.3012L21.3951 46.9597H52.3367L54.3117 47.9843L55.2992 49.6921V52.083L54.3117 54.1323L52.3367 55.1569L36.2076 55.4985L35.8784 57.2062L36.2076 57.5478H52.9951L55.6284 56.1816L56.9451 54.4738L57.6034 52.7661L57.9326 49.6921L61.2242 46.2766L63.8576 43.8857L68.4659 39.104L71.0992 37.0547Z" fill="white"/>
<path d="M16.1292 0.507812H18.1042L20.0792 1.87402L24.3583 1.53247L25.3458 3.58178V4.60643H29.2958L30.2833 5.63109V9.7297L32.2583 10.0713L33.2458 10.7544V13.1452L32.9167 15.8776L34.2333 17.2438V19.2931L32.9167 21.3425L33.2458 25.7826L31.2708 26.8073H30.2833V30.9059L29.2958 31.9306L26.3333 32.2721L24.3583 35.0045L20.0792 34.663L18.1042 36.0292H16.1292L14.1542 34.663L9.875 35.0045L8.8875 32.9552V31.9306H4.9375L3.95 30.9059V26.8073L1.975 26.4657L0.9875 25.7826L1.31667 21.3425L0 19.2931V17.2438L1.31667 15.1945L0.9875 10.7544L2.9625 9.7297H3.95V5.63109L4.9375 4.60643H8.8875L9.21667 2.55712L9.875 1.53247L14.1542 1.87402L16.1292 0.507812Z" fill="white"/>
<path d="M16.1292 0.507812H18.1042L20.0792 1.87402L24.3583 1.53247L25.3458 3.58178V4.60643H29.2958L30.2833 5.63109V9.7297L32.2583 10.0713L33.2458 10.7544V13.1452L32.9167 15.8776L34.2333 17.2438V19.2931L32.9167 21.3425L33.2458 25.7826L31.2708 26.8073H30.2833V30.9059L29.2958 31.9306L26.3333 32.2721L24.3583 35.0045L20.0792 34.663L18.1042 36.0292H16.1292L14.1542 34.663L9.875 35.0045L8.8875 32.9552V31.9306H4.9375L3.95 30.9059V26.8073L1.975 26.4657L0.9875 25.7826L1.31667 21.3425L0 19.2931V17.2438L1.31667 15.1945L0.9875 10.7544L2.9625 9.7297H3.95V5.63109L4.9375 4.60643H8.8875L9.21667 2.55712L9.875 1.53247L14.1542 1.87402L16.1292 0.507812ZM16.7875 3.58178L14.8125 4.94798H11.5208L10.2042 7.33884L6.9125 7.6804L6.58333 11.0959L4.27917 12.4621V15.8776L2.9625 17.9269L3.62083 19.6347L4.27917 20.6594V24.0749L6.58333 25.4411L6.9125 28.8566L10.2042 29.1981L11.1917 30.9059L11.5208 31.589H14.8125L16.7875 32.9552L18.4333 32.2721L19.4208 31.589L23.0417 31.9306L25.0167 29.1981L27.3208 28.8566L27.65 24.758L29.9542 24.0749V20.6594L31.2708 18.2685L29.9542 16.9023V14.5114L30.2833 12.4621L27.65 11.779L27.3208 7.6804L24.0292 7.33884L22.7125 4.94798H19.4208L17.4458 3.58178H16.7875Z" fill="#5F56AF" fill-opacity="0.5"/>
<path d="M8.8888 53.1074L10.2055 53.7905L28.3096 72.5759L27.6513 73.9421L22.7138 79.0653L21.3971 78.3822L3.29297 59.5969L3.9513 58.2307L8.8888 53.1074Z" fill="white"/>
<path d="M55.3008 21.002H63.2008V41.1535L58.2633 45.9352L57.2758 46.9599L55.9591 46.2768L55.3008 45.5937V21.002Z" fill="white"/>
<path d="M60.8961 0.507812H69.4544L70.1128 1.53247V9.0466L69.4544 10.0713H67.4794L67.1503 9.7297L66.8211 5.97264L63.2003 9.0466L58.9211 13.1452L57.6044 14.1699L48.0586 14.5114L40.4878 22.3671H38.5128L38.1836 22.0256V19.9763L46.4128 11.4375L55.9586 11.0959L59.2503 8.02195L62.8711 4.94798L64.1878 3.58178L60.8961 3.24023L60.5669 2.89867V0.849364L60.8961 0.507812Z" fill="#5F56AF" fill-opacity="0.5"/>
<path d="M39.5 31.9297H47.4V44.2255H39.5V31.9297Z" fill="white"/>
<path d="M8.8888 53.1074L10.2055 53.7905L8.23047 56.1814L5.59714 58.9138L5.26797 59.5969L6.58464 60.28L9.21797 63.0124L11.5221 65.7448L23.3721 78.0407L22.7138 79.0653L21.3971 78.3822L3.29297 59.5969L3.9513 58.2307L8.8888 53.1074Z" fill="white"/>
<path d="M18.4341 21.002H20.7383L22.3841 22.0266L23.7008 23.7344V26.4668L21.7258 28.8576L21.0674 29.1992H18.4341L16.1299 27.1499L15.8008 26.4668V23.7344L17.7758 21.3435L18.4341 21.002Z" fill="#5F56AF" fill-opacity="0.4"/>
<path d="M21.3979 46.9609H52.3396L54.3146 47.9856L54.9729 49.6934L52.9979 48.6687H21.0687L18.1062 50.0349L14.8146 53.4504L14.1562 53.1089L18.4354 48.6687L20.4104 47.3025L21.3979 46.9609Z" fill="white"/>
<path d="M13.1646 7.33984H15.7979L18.1021 9.38915L18.4313 10.0723V12.4631L17.4438 14.1709L15.7979 15.5371H13.1646L10.8604 13.4878L10.5312 12.4631V10.0723L12.5063 7.6814L13.1646 7.33984Z" fill="#5F56AF" fill-opacity="0.4"/>
<path d="M21.7229 12.8027L23.3688 13.1443L23.6979 14.852L20.0771 17.926L13.8229 22.7077L12.5063 23.7324L10.8604 23.3908L10.5312 21.6831L14.1521 18.6091L20.4062 13.8274L21.7229 12.8027Z" fill="#5F56AF" fill-opacity="0.5"/>
<path d="M23.6992 40.1289H31.5992V44.2275H23.6992V40.1289Z" fill="white"/>
<path d="M27.9797 11.7793L30.2839 12.4624L29.9547 16.9026L31.2714 18.6103L29.9547 20.6596V24.0752L27.9797 24.7583L26.9922 22.3674L27.3214 20.6596L28.638 18.6103L27.9797 17.2441L26.9922 16.2195L27.6505 12.4624L27.9797 11.7793Z" fill="white"/>
<path d="M71.1003 37.0547H73.4044L75.3794 38.0793L76.3669 39.7871V41.8364H76.0378L75.3794 39.7871L73.7336 39.104H70.7711L68.7961 40.4702L65.1753 44.2273L61.5544 47.3012L58.5919 50.0336L58.2628 51.7414H57.9336V49.6921L61.2253 46.2766L63.8586 43.8857L68.4669 39.104L71.1003 37.0547Z" fill="white"/>
<path d="M53.3255 53.4473L54.6422 53.7888L53.3255 54.8135L52.338 55.155H36.8672L37.5255 53.7888L53.3255 53.4473Z" fill="white"/>
<path d="M68.4669 39.1035L69.1253 39.4451L64.8461 43.8852L63.2003 45.9345L59.5794 49.0085L58.5919 50.0332L58.2628 51.7409H57.9336V49.6916L61.2253 46.2761L63.8586 43.8852L68.4669 39.1035Z" fill="white"/>
<path d="M26.6625 25.0996L27.65 25.4412L27.3208 28.8567L24.6875 29.1982V25.7827L26.6625 25.0996Z" fill="white"/>
<path d="M24.6875 7.67969H27.3208L27.65 11.4368L24.6875 10.7537V7.67969Z" fill="white"/>
<path d="M19.0919 23.7324L20.7378 24.074L21.0669 25.7817L20.4086 26.4648L18.7628 26.1233L18.4336 24.4155L19.0919 23.7324Z" fill="white"/>
<path d="M13.8263 10.0723L15.4721 10.4138L15.8013 12.1216L15.143 12.8047L13.4971 12.4631L13.168 10.7554L13.8263 10.0723Z" fill="white"/>
<path d="M18.4326 49.3496L19.0909 49.6912L14.4826 54.4729L13.8242 54.1313V53.4482L15.4701 52.4236L18.4326 49.3496Z" fill="white"/>
<path d="M21.3956 30.2227H24.0289L23.0414 31.9304L21.0664 31.5889L21.3956 30.2227Z" fill="white"/>
<path d="M21.0667 4.94727H22.7125L23.0417 6.31347H20.4083V5.63037L19.75 5.28882L21.0667 4.94727Z" fill="white"/>
</svg>
