<svg width="79" height="79" viewBox="0 0 79 79" fill="none" xmlns="http://www.w3.org/2000/svg">
<path d="M14.8125 1.85156H17.2812L20.6758 3.08594L23.1445 5.55469L24.0703 7.71484L24.3789 11.1094L23.4531 14.5039L26.2305 12.0352L29.3164 10.1836L33.0195 8.64062L35.7969 8.02344H42.5859L46.2891 8.94922L49.375 10.1836L53.3867 12.9609L56.1641 15.7383L57.0898 16.6641V16.0469L55.5469 14.1953L54.6211 11.1094L54.9297 7.71484L56.1641 5.24609L58.3242 3.08594L61.7188 1.85156H64.1875L66.9648 2.77734L69.4336 4.62891L70.9766 7.40625L71.2852 8.64062V11.7266L70.0508 14.8125L68.8164 16.6641L72.2109 18.5156L74.9883 21.293L76.8398 24.3789L77.7656 27.1562V30.2422L77.457 30.5508H60.793L60.4844 33.9453L59.25 37.957L58.0156 40.4258L58.6328 41.6602L62.0273 45.0547H64.8047L67.2734 46.9062L76.2227 55.8555L77.7656 57.3984V60.4844L74.9883 63.5703L72.8281 65.7305L71.5938 66.3477H69.7422L67.8906 65.1133L61.7188 58.9414L58.3242 60.793L50.918 65.4219L43.8203 69.7422L39.8086 72.2109L37.6484 72.8281H34.5625L20.6758 69.125H19.1328L18.5156 69.7422L19.4414 71.5938L19.1328 73.7539L17.5898 75.2969L14.1953 77.1484H12.3438L10.8008 76.2227L6.48047 68.5078L2.16016 61.1016L1.23438 59.25V56.4727L2.77734 54.9297L6.48047 53.0781L8.94922 53.3867L10.1836 54.9297V55.5469L17.8984 51.2266L20.9844 49.6836L21.9102 49.375H25.9219L34.2539 52.1523L38.5742 53.3867L40.1172 54.6211L40.7344 55.8555L41.043 58.6328L49.0664 54.0039L54.0039 51.2266L55.8555 50.3008L53.0781 47.5234L51.8438 47.2148L47.2148 49.6836L42.5859 50.918H35.7969L31.168 49.6836L27.1562 47.5234L23.7617 44.7461L20.9844 41.3516L18.8242 37.0312L17.8984 33.6367L17.5898 30.5508H1.54297L1.23438 30.2422V27.1562L2.77734 23.1445L4.9375 20.3672L7.71484 17.8984L10.1836 16.6641L8.02344 12.9609L7.71484 11.7266V8.64062L8.94922 5.55469L10.4922 3.70312L13.2695 2.16016L14.8125 1.85156ZM15.1211 4.62891L12.9609 5.55469L11.418 7.09766L10.4922 8.94922V11.418L11.418 13.2695L12.9609 14.8125L15.1211 15.7383L17.8984 15.4297L19.75 14.1953L20.9844 12.6523L21.6016 10.8008L21.293 8.33203L20.0586 6.48047L18.5156 5.24609L16.9727 4.62891H15.1211ZM62.0273 4.62891L59.5586 5.86328L58.0156 7.71484L57.3984 9.56641L57.707 12.0352L58.9414 13.8867L60.4844 15.1211L62.0273 15.7383L64.8047 15.4297L66.9648 14.1953L68.1992 12.3438L68.5078 11.418V8.94922L67.582 7.09766L66.0391 5.55469L63.8789 4.62891H62.0273ZM36.1055 10.8008L32.0938 12.0352L29.0078 13.5781L25.3047 16.6641L22.5273 20.6758L20.9844 24.3789L20.3672 28.082V30.8594L21.293 35.4883L23.4531 39.8086L26.2305 43.2031L29.625 45.6719L33.6367 47.5234L36.4141 48.1406H42.2773L46.5977 46.9062L50.3008 44.7461L53.6953 41.6602L55.8555 38.2656L57.3984 34.5625L58.0156 31.7852V27.1562L57.0898 23.1445L54.6211 18.5156L51.2266 14.8125L47.2148 12.3438L43.8203 11.1094L42.2773 10.8008H36.1055ZM22.5273 15.1211L21.293 16.6641L22.5273 16.0469V15.1211ZM13.8867 18.5156L10.1836 19.75L7.40625 21.9102L5.55469 24.0703L4.32031 26.8477V27.7734H17.8984L18.8242 22.8359L20.0586 19.75V19.1328L18.207 18.5156H13.8867ZM60.793 18.5156L58.3242 19.4414L59.8672 23.7617L60.793 27.7734H74.6797L74.3711 25.9219L72.5195 22.8359L69.7422 20.3672L67.2734 19.1328L65.1133 18.5156H60.793ZM55.8555 43.2031L54.6211 44.4375L55.2383 45.6719L58.3242 48.7578L59.8672 47.5234L59.25 46.2891L56.1641 43.2031H55.8555ZM63.2617 47.832L59.25 51.8438L59.5586 53.0781L63.5703 56.7812L70.0508 63.2617L70.9766 63.5703L74.0625 60.4844L74.9883 59.25L74.3711 58.0156L66.3477 49.9922L63.8789 47.832H63.2617ZM22.5273 52.1523L17.5898 54.6211L11.7266 58.0156L14.1953 62.6445L16.6641 66.9648L18.207 66.3477L20.0586 66.0391L34.8711 70.0508H37.0312L39.5 69.125L46.9062 64.4961L54.0039 60.1758L59.25 56.7812L57.3984 54.6211L56.1641 53.3867L52.4609 55.2383L44.1289 60.1758L41.043 61.7188L39.5 62.0273L35.1797 61.7188L27.4648 59.5586L27.1562 58.3242L27.7734 57.3984L31.168 58.0156L35.7969 59.25L37.3398 58.9414L37.957 58.3242L37.6484 56.1641L34.8711 55.2383L29.625 53.6953L25.3047 52.1523H22.5273ZM7.09766 55.8555L4.01172 57.707L4.62891 59.5586L8.94922 67.2734L12.9609 74.0625L14.5039 73.7539L16.6641 72.5195L14.5039 68.1992L10.1836 60.793L7.40625 55.8555H7.09766Z" fill="#5F56AF" fill-opacity="0.5"/>
<path d="M36.7227 13.8867H41.9688L45.9805 15.1211L49.375 17.2812L51.5352 19.4414L53.3867 22.5273L54.6211 25.9219L54.9297 27.4648V31.168L54.0039 35.1797L52.1523 38.5742L49.375 41.6602L45.9805 43.8203L43.2031 44.7461L41.6602 45.0547H36.7227L32.7109 43.8203L29.625 41.9688L27.4648 40.1172L25.3047 37.0312L24.0703 33.9453L23.4531 29.0078L24.0703 24.9961L25.6133 21.293L28.082 18.207L30.8594 16.0469L33.9453 14.5039L36.7227 13.8867ZM37.0312 16.6641L33.9453 17.5898L31.168 19.4414L29.625 20.6758L27.4648 24.0703L26.5391 26.5391L26.2305 29.9336L27.1562 34.2539L28.3906 36.4141L29.3164 35.4883L31.168 33.0195L33.3281 31.168L34.5625 30.2422L33.3281 28.082L33.0195 24.9961L33.9453 22.2188L36.1055 20.3672L37.6484 19.75H41.043L43.5117 20.9844L45.0547 23.4531L45.3633 24.3789V27.1562L44.1289 29.9336L43.8203 30.5508L46.9062 32.4023L48.7578 34.8711L49.6836 36.7227L50.918 35.1797L51.8438 32.7109L52.1523 30.8594V28.082L51.2266 24.3789L49.0664 20.9844L46.2891 18.5156L42.8945 16.9727L41.6602 16.6641H37.0312ZM38.2656 22.2188L36.7227 23.1445L35.7969 24.3789L35.4883 26.2305L36.4141 28.082L37.957 29.3164H40.4258L41.9688 28.3906L42.8945 26.5391L42.5859 24.0703L40.4258 22.2188H38.2656ZM38.5742 32.0938L35.4883 33.0195L33.6367 34.2539L31.7852 36.4141L30.8594 39.1914L32.4023 40.4258L34.8711 41.6602L37.0312 42.2773H41.3516L45.0547 41.043L47.5234 39.1914L47.2148 37.3398L45.9805 35.4883L44.4375 33.9453L42.2773 32.7109L39.8086 32.0938H38.5742Z" fill="#5F56AF" fill-opacity="0.5"/>
<path d="M5.86328 57.707H7.40625L8.02344 58.3242L7.71484 59.8672L6.17188 60.1758L5.55469 59.5586V58.0156L5.86328 57.707Z" fill="#5F56AF" fill-opacity="0.5"/>
</svg>
