<svg width="79" height="79" viewBox="0 0 79 79" fill="none" xmlns="http://www.w3.org/2000/svg">
<path d="M24.0703 3.39453H27.4648L29.3164 4.32031L30.5508 5.86328L31.168 7.09766V9.25781H52.7695V7.09766L54.3125 4.62891L55.5469 3.70312L56.4727 3.39453H59.8672L61.7188 4.62891L62.9531 6.17188L63.2617 6.78906V9.25781H72.2109L74.6797 10.1836L76.2227 12.0352L76.5312 12.6523V60.4844L75.2969 62.3359L73.4453 63.5703H40.1172L39.5 65.4219L37.3398 68.5078L35.7969 70.3594L32.0938 73.1367L28.6992 74.6797L24.6875 75.6055H19.4414L15.4297 74.6797L11.1094 72.5195L8.02344 70.0508L5.24609 66.6562L3.08594 62.0273L2.46875 59.25V52.4609L3.70312 48.1406L5.55469 44.7461L7.09766 42.8945L7.40625 12.6523L8.64062 10.8008L10.4922 9.56641L11.7266 9.25781H20.6758V6.78906L21.9102 4.9375L23.4531 3.70312L24.0703 3.39453ZM24.9961 6.17188L23.4531 7.71484V9.25781H28.3906L28.082 7.09766L26.8477 6.17188H24.9961ZM57.0898 6.17188L55.5469 7.71484V9.25781H60.4844L60.1758 7.09766L58.9414 6.17188H57.0898ZM12.0352 12.0352L10.4922 12.9609L9.875 14.5039V21.293H74.0625V14.5039L73.1367 12.6523L71.9023 12.0352H55.5469L55.8555 14.1953L57.3984 15.4297L58.9414 15.7383L59.25 17.8984H57.0898L54.9297 16.9727L53.3867 15.1211L52.7695 12.0352H23.4531V13.8867L24.6875 15.1211L26.8477 15.7383V17.5898L26.5391 17.8984L23.7617 17.5898L21.9102 16.3555L20.9844 14.5039L20.6758 12.0352H12.0352ZM9.875 24.0703V40.1172L11.418 39.5L15.7383 37.3398L20.3672 36.4141H23.7617L28.3906 37.3398L33.3281 39.8086L37.0312 43.2031L37.6484 44.1289L47.5234 44.4375L47.832 44.7461L48.1406 56.4727L41.6602 56.7812L41.043 61.1016H71.5938L73.4453 60.1758L74.0625 58.6328V24.0703H9.875ZM20.6758 38.8828L16.3555 39.8086L12.6523 41.6602L9.56641 44.4375L7.71484 46.5977L5.86328 50.6094L5.24609 52.7695V58.9414L6.48047 62.9531L8.64062 66.3477L10.4922 68.5078L13.5781 70.668L16.9727 72.2109L19.75 72.8281H24.0703L27.7734 71.9023L31.4766 70.0508L34.5625 67.2734L36.7227 64.4961L38.2656 61.1016L38.8828 58.6328V53.0781L37.6484 49.0664L35.4883 45.3633L32.7109 42.5859L29.625 40.7344L26.5391 39.5L23.4531 38.8828H20.6758ZM39.8086 46.9062L40.7344 49.9922L41.6602 54.0039H45.6719V46.9062H39.8086Z" fill="#5F56AF" fill-opacity="0.5"/>
<path d="M56.4727 44.1289H67.582L68.1992 44.7461V56.1641L67.582 56.7812H56.1641L55.5469 55.8555V45.0547L56.4727 44.1289ZM58.3242 46.9062V54.0039H65.4219V46.9062H58.3242Z" fill="#5F56AF" fill-opacity="0.5"/>
<path d="M56.1641 27.7734H67.8906L68.1992 28.082V39.8086L67.2734 40.4258H56.4727L55.5469 39.5V28.6992L56.1641 27.7734ZM58.3242 30.5508V37.6484H65.4219V30.5508H58.3242Z" fill="#5F56AF" fill-opacity="0.5"/>
<path d="M36.1055 27.7734H47.832L48.1406 28.082V39.8086L47.2148 40.4258H36.7227L35.7969 39.8086V28.082L36.1055 27.7734ZM38.2656 30.5508V37.6484H45.6719V30.5508H38.2656Z" fill="#5F56AF" fill-opacity="0.5"/>
<path d="M21.293 45.3633H22.8359L23.4531 45.9805V54.6211H29.9336L30.2422 56.7812L29.3164 57.3984H21.6016L20.6758 56.7812V45.9805L21.293 45.3633Z" fill="#5F56AF" fill-opacity="0.5"/>
<path d="M21.293 69.125H22.8359L23.4531 69.7422V71.2852L22.8359 71.9023H21.293L20.6758 71.2852V69.7422L21.293 69.125Z" fill="#5F56AF" fill-opacity="0.960784"/>
<path d="M35.7969 54.6211H37.6484L37.957 54.9297V56.7812L36.4141 57.3984L35.1797 56.4727L35.4883 54.9297L35.7969 54.6211Z" fill="#5F56AF" fill-opacity="0.5"/>
<path d="M6.78906 54.6211H8.33203L8.94922 56.1641L8.64062 57.0898L6.78906 57.3984L6.17188 56.7812V54.9297L6.78906 54.6211Z" fill="#5F56AF" fill-opacity="0.5"/>
<path d="M31.7852 44.1289L33.3281 44.4375L33.6367 44.7461V46.2891L33.0195 46.9062H31.4766L30.8594 45.9805L31.168 44.4375L31.7852 44.1289Z" fill="#5F56AF" fill-opacity="0.5"/>
<path d="M11.1094 44.1289L12.6523 44.4375L12.9609 44.7461V46.5977L12.6523 46.9062H10.8008L10.1836 45.9805L10.4922 44.7461L11.1094 44.1289Z" fill="#5F56AF" fill-opacity="0.5"/>
<path d="M31.7852 64.8047L33.6367 65.1133V67.2734L31.7852 67.582L31.168 67.2734L30.8594 66.0391L31.168 65.1133L31.7852 64.8047Z" fill="#5F56AF" fill-opacity="0.5"/>
<path d="M21.6016 39.8086L23.1445 40.4258L23.4531 41.6602L22.8359 42.5859H20.9844L20.6758 42.2773V40.4258L21.6016 39.8086Z" fill="#5F56AF" fill-opacity="0.5"/>
<path d="M11.418 64.8047L12.6523 65.1133L13.2695 66.3477L12.6523 67.582H10.8008L10.4922 67.2734V65.4219L11.418 64.8047Z" fill="#5F56AF" fill-opacity="0.5"/>
</svg>
