<svg width="92" height="92" viewBox="0 0 92 92" fill="none" xmlns="http://www.w3.org/2000/svg">
<rect x="0.101562" width="91.3416" height="91.3416" rx="4.93739" fill="#5F56AF" fill-opacity="0.2"/>
<g filter="url(#filter0_d_506_584)">
<path fill-rule="evenodd" clip-rule="evenodd" d="M49.3007 20.1186C47.5814 20.5318 46.0228 22.1744 45.6565 23.9591C45.4538 24.9466 45.4865 35.231 45.6952 36.1327C46.0307 37.5822 47.0652 38.8791 48.4006 39.5242L49.1563 39.8892L54.9142 39.9479C60.5923 40.0057 60.6716 40.0098 60.6337 40.2413C60.6126 40.3705 60.0816 42.3738 59.4539 44.6929C58.826 47.0122 58.3276 48.9254 58.3463 48.9444C58.3649 48.9633 60.8213 46.4847 63.8048 43.4361C68.4959 38.6429 69.2815 37.7903 69.6147 37.1305L70 36.3674V30.0283V23.6892L69.6905 23.0159C69.5203 22.6456 69.2352 22.1474 69.0571 21.9087C68.5619 21.2453 67.4777 20.492 66.6373 20.2274C65.9149 19.9999 65.5943 19.9918 57.8099 20.0031C53.3671 20.0097 49.5379 20.0616 49.3007 20.1186ZM34.3008 32.7105C32.5777 33.2912 31.2249 34.8168 30.9041 36.5409C30.8351 36.9119 30.7892 39.8427 30.7902 43.8084C30.7921 51.0222 30.8131 51.3073 31.4292 52.4308C31.8911 53.2731 32.796 54.1327 33.6603 54.5503C34.3696 54.8928 34.4973 54.9152 35.7403 54.9152C37.0565 54.9152 37.0698 54.9124 37.8948 54.463C38.9159 53.9067 39.668 53.1081 40.1526 52.0653L40.5194 51.2761L40.5507 43.948C40.5789 37.3496 40.5628 36.5604 40.3889 36.0241C39.9693 34.7302 39.0855 33.6856 37.8707 33.0478C37.1265 32.657 36.9763 32.6219 35.913 32.5899C35.1783 32.5677 34.5947 32.6114 34.3008 32.7105ZM21.0005 50.6598C21.0022 52.9715 21.9957 56.0636 23.4813 58.3816C24.2152 59.5267 26.3426 61.7013 27.4986 62.4881C29.0302 63.5307 30.9463 64.3414 32.8901 64.7695L33.2068 64.8392V67.4196V70H35.6827H38.1586V67.4291V64.8582L38.7632 64.7192C40.6521 64.2848 42.6952 63.3686 44.2045 62.2791C47.8406 59.6541 50.0809 55.5423 50.4074 50.8946L50.4673 50.0435H48.0139H45.5606L45.4818 50.9295C45.1202 54.9976 42.3275 58.4451 38.4465 59.6142C33.7857 61.0181 28.7793 58.6568 26.7518 54.0984C26.3518 53.1992 25.9538 51.6084 25.9526 50.9042C25.9511 49.9962 26.091 50.0435 23.406 50.0435H21L21.0005 50.6598Z" fill="white"/>
</g>
<defs>
<filter id="filter0_d_506_584" x="17" y="20" width="57" height="58" filterUnits="userSpaceOnUse" color-interpolation-filters="sRGB">
<feFlood flood-opacity="0" result="BackgroundImageFix"/>
<feColorMatrix in="SourceAlpha" type="matrix" values="0 0 0 0 0 0 0 0 0 0 0 0 0 0 0 0 0 0 127 0" result="hardAlpha"/>
<feOffset dy="4"/>
<feGaussianBlur stdDeviation="2"/>
<feComposite in2="hardAlpha" operator="out"/>
<feColorMatrix type="matrix" values="0 0 0 0 0 0 0 0 0 0 0 0 0 0 0 0 0 0 0.25 0"/>
<feBlend mode="normal" in2="BackgroundImageFix" result="effect1_dropShadow_506_584"/>
<feBlend mode="normal" in="SourceGraphic" in2="effect1_dropShadow_506_584" result="shape"/>
</filter>
</defs>
</svg>
