<svg width="92" height="92" viewBox="0 0 92 92" fill="none" xmlns="http://www.w3.org/2000/svg">
<rect x="0.207031" y="0.25" width="91.3416" height="91.3416" rx="4.93739" fill="#5F56AF" fill-opacity="0.2"/>
<g filter="url(#filter0_d_506_600)">
<path fill-rule="evenodd" clip-rule="evenodd" d="M62.2935 15.1172C62.253 15.1836 62.0544 15.8441 61.8523 16.5849C61.545 17.712 61.5221 17.954 61.7121 18.0698C61.8509 18.1544 62.0128 18.1321 62.1286 18.0125C62.3838 17.749 63.0464 15.3577 62.9199 15.1562C62.8021 14.9683 62.3999 14.9433 62.2935 15.1172ZM64.7307 17.3472C63.8257 18.1266 63.3302 18.6672 63.3636 18.8381C63.3924 18.9855 63.5138 19.1063 63.6333 19.1063C63.9808 19.1063 66.7421 16.7175 66.7542 16.4066C66.7761 15.8419 66.1294 16.1425 64.7307 17.3472ZM31.8651 19.5764C31.2124 19.8609 30.4893 20.5707 30.1137 21.2961C29.8235 21.8563 29.7937 22.2599 29.7937 25.6273V29.3407H31.0006H32.2074L32.1866 28.1319L32.1658 26.9229L46.0301 26.9231H59.8943V33.5312V40.1392H61.1213H62.3482L62.3446 31.0733C62.3413 22.6527 62.3197 21.9614 62.0431 21.3612C61.7233 20.6677 60.7643 19.7432 60.1109 19.4984C59.4551 19.2528 32.4369 19.3274 31.8651 19.5764ZM65.2151 20.2738C64.3122 20.3424 63.9566 20.5407 64.0958 20.8977C64.1716 21.0924 64.4389 21.1156 65.5992 21.0282C66.9778 20.9244 67.5715 20.6875 67.3473 20.3305C67.239 20.1579 66.8696 20.1481 65.2151 20.2738ZM42.5865 23.4095C42.4785 23.5159 42.3902 23.6947 42.3902 23.8068C42.3902 24.2634 43.0647 24.3508 46.2535 24.3074C49.0477 24.2696 49.4936 24.2285 49.6428 23.9952C49.7675 23.8004 49.7555 23.6566 49.5996 23.4714C49.4164 23.2539 48.8958 23.2161 46.0837 23.2161C43.7344 23.2161 42.7262 23.2719 42.5865 23.4095ZM21.2987 30.9124C20.9901 31.0673 20.5853 31.3988 20.3989 31.649C20.069 32.092 20.0588 32.3077 20.0117 39.8688C19.985 44.1395 20.0055 47.8624 20.057 48.142C20.1087 48.4217 20.4102 48.9294 20.7271 49.2703L21.3033 49.8901L30.4152 49.9707L39.5274 50.0513L40.6725 50.6744C41.3023 51.0172 42.6642 51.7699 43.6989 52.347C44.7336 52.9242 45.8236 53.5323 46.1212 53.6983C46.4188 53.8641 46.6987 54 46.7432 54C46.7877 54 46.8114 53.1116 46.796 52.0257L46.7682 50.0513L50.2684 49.9707C53.592 49.8941 53.7923 49.8717 54.2385 49.5256C55.2582 48.7347 55.225 49.044 55.2286 40.3004L55.232 32.3224L54.825 31.7296C54.0224 30.5606 55.1113 30.6301 37.5996 30.6304C22.9377 30.6305 21.8212 30.6499 21.2987 30.9124ZM26.3129 36.1117C25.9787 36.4964 25.9603 36.8909 26.2589 37.2784C26.4616 37.5416 27.1388 37.5605 36.3635 37.5605C43.8357 37.5605 46.2988 37.5132 46.4472 37.367C46.5552 37.2607 46.6435 36.9488 46.6435 36.674C46.6435 36.3992 46.5552 36.0873 46.4472 35.981C46.2988 35.8348 43.8488 35.7876 36.4227 35.7876C26.7785 35.7876 26.5893 35.7937 26.3129 36.1117ZM26.4938 39.178C26.3435 39.2645 26.1688 39.5664 26.1058 39.8488C26.0127 40.2669 26.0593 40.4166 26.3566 40.6537C26.6996 40.9273 27.309 40.9451 36.4119 40.9451C45.5918 40.9451 46.1163 40.9296 46.3728 40.6503C46.7147 40.278 46.7216 39.5944 46.3865 39.2642C46.1585 39.0397 45.0354 39.0115 36.4484 39.0158C30.4615 39.0189 26.663 39.0808 26.4938 39.178ZM56.4589 44.8622C56.4589 48.4115 56.4535 48.4675 56.0331 49.2989C55.5273 50.2987 54.8399 50.8584 53.8382 51.0859C53.4351 51.1774 51.9543 51.254 50.5474 51.2562L47.9894 51.2601L48.0774 53.7043C48.1582 55.9523 48.1432 56.1401 47.8891 56.044C47.7371 55.9866 45.6916 54.8868 43.3433 53.5998C40.9949 52.313 38.9365 51.2601 38.7688 51.2601C38.4809 51.2601 38.464 51.4527 38.464 54.7377V58.2153L38.9422 58.6864L39.4204 59.1575H43.2093H46.9984L46.8798 60.9597L46.7612 62.7618L47.3159 62.4396C47.6208 62.2623 49.0897 61.4513 50.58 60.6374L53.2894 59.1575H62.1664H71.0437L71.5218 58.6864L72 58.2153V50.3936C72 45.113 71.9423 42.4472 71.8225 42.188C71.3988 41.2719 71.3582 41.2674 63.5908 41.2674H56.4589V44.8622ZM26.7425 42.3645C26.5339 42.3937 26.3091 42.6069 26.1913 42.8874C26.0248 43.2832 26.0362 43.4268 26.2609 43.7646L26.5295 44.1685H32.8869H39.2443L39.5221 43.7508C39.7549 43.4008 39.768 43.2569 39.6029 42.8643C39.4945 42.6066 39.2859 42.3937 39.1395 42.3913C36.5397 42.3487 27.0009 42.3282 26.7425 42.3645ZM20.8221 48.5202C20.8221 48.7418 20.8593 48.8325 20.9046 48.7216C20.9501 48.6109 20.9501 48.4296 20.9046 48.3187C20.8593 48.208 20.8221 48.2985 20.8221 48.5202ZM38.3444 49.5989C38.5036 49.6398 38.7245 49.6371 38.8352 49.5929C38.946 49.5488 38.8157 49.5154 38.5458 49.5186C38.2759 49.5218 38.1853 49.5579 38.3444 49.5989ZM29.8314 62.5283L29.8755 73.7966L30.3735 74.4953C30.6475 74.8797 31.1996 75.3755 31.6004 75.5971L32.3294 76H46.071H59.8125L60.5932 75.5479C61.0226 75.2992 61.5747 74.7969 61.8201 74.4316L62.2664 73.7676L62.3142 67.1073C62.3403 63.4441 62.3035 60.4434 62.2324 60.4388C62.161 60.4345 61.6243 60.4203 61.0395 60.4072L59.9761 60.3837L59.9324 64.4446L59.8888 68.5055H46.0682C35.1238 68.5055 32.2465 68.4636 32.2419 68.304C32.2386 68.1933 32.2412 64.4986 32.2474 60.0939C32.2537 55.6891 32.2114 51.8995 32.1537 51.6727C32.0536 51.2797 31.9945 51.2601 30.9179 51.2601H29.7872L29.8314 62.5283ZM40.9388 71.8516C40.8387 72.036 40.839 72.2407 40.9398 72.4181C41.0838 72.6715 41.5253 72.6958 45.9565 72.6936C48.6287 72.6921 50.9136 72.6296 51.0338 72.5545C51.1542 72.4792 51.2278 72.2447 51.1974 72.0331L51.1423 71.6484L46.1189 71.6058C41.4338 71.566 41.0849 71.5826 40.9388 71.8516Z" fill="white"/>
</g>
<defs>
<filter id="filter0_d_506_600" x="16" y="15" width="60" height="69" filterUnits="userSpaceOnUse" color-interpolation-filters="sRGB">
<feFlood flood-opacity="0" result="BackgroundImageFix"/>
<feColorMatrix in="SourceAlpha" type="matrix" values="0 0 0 0 0 0 0 0 0 0 0 0 0 0 0 0 0 0 127 0" result="hardAlpha"/>
<feOffset dy="4"/>
<feGaussianBlur stdDeviation="2"/>
<feComposite in2="hardAlpha" operator="out"/>
<feColorMatrix type="matrix" values="0 0 0 0 0 0 0 0 0 0 0 0 0 0 0 0 0 0 0.25 0"/>
<feBlend mode="normal" in2="BackgroundImageFix" result="effect1_dropShadow_506_600"/>
<feBlend mode="normal" in="SourceGraphic" in2="effect1_dropShadow_506_600" result="shape"/>
</filter>
</defs>
</svg>
