<svg width="92" height="92" viewBox="0 0 92 92" fill="none" xmlns="http://www.w3.org/2000/svg">
<rect width="91.3416" height="91.3416" rx="4.93739" fill="#5F56AF" fill-opacity="0.2"/>
<g filter="url(#filter0_d_506_592)">
<path fill-rule="evenodd" clip-rule="evenodd" d="M19.5083 18.1465C19.3645 18.2208 19.1871 18.4014 19.1142 18.548C19.0085 18.7604 18.9867 24.2594 19.0067 45.646L19.0319 72.4776L19.272 72.7223L19.512 72.967L44.0066 72.9945C60.1461 73.0127 68.5958 72.9855 68.7785 72.9147C69.2918 72.7157 69.3617 72.3132 69.3617 69.557V67.0534L70.4118 65.987C71.819 64.558 71.848 64.3726 70.8334 63.2969L70.3268 62.7597L70.5035 62.3836L70.6802 62.0076L71.6108 61.9538C72.5682 61.8986 72.7954 61.7829 72.8649 61.3155C72.8786 61.2233 72.9148 63.6381 72.9454 66.6815C72.976 69.7249 73.0005 60.1514 73 45.4072C72.9989 19.3313 72.9975 19.1289 72.9454 37.9935C72.916 48.6601 72.8801 57.3121 72.8659 57.2199C72.7934 56.7514 72.5679 56.6368 71.6108 56.5816L70.6802 56.5278L70.5035 56.1518L70.3268 55.7757L70.8334 55.2385C71.848 54.1629 71.819 53.9774 70.4118 52.5484L69.3617 51.482V39.7918C69.3617 30.0062 69.3377 28.0453 69.2141 27.7558C69.0239 27.3103 60.1322 18.2709 59.7368 18.121C59.269 17.9438 19.8529 17.9688 19.5083 18.1465ZM19.031 45.5147C19.031 60.2589 19.0433 66.2907 19.0582 58.9185C19.0732 51.5464 19.0732 39.483 19.0582 32.1108C19.0433 24.7388 19.031 30.7704 19.031 45.5147ZM20.771 45.5147V71.1942H44.1704H67.5699V69.4441V67.6941L67.0627 67.1848L66.5555 66.6755L66.1667 66.8411C65.7829 67.0046 65.778 67.0144 65.7774 67.623C65.7771 67.9621 65.7264 68.4245 65.6647 68.6509C65.4852 69.31 65.1767 69.387 62.8757 69.3473C60.9999 69.3148 60.9383 69.3066 60.6742 69.0534C60.4249 68.8145 60.4025 68.7199 60.4025 67.9099V67.0268L60.0072 66.8653L59.6119 66.7037L59.0645 67.2302C58.3714 67.8968 58.0782 68.0176 57.6306 67.8215C57.1994 67.6325 54.6093 64.9575 54.5932 64.6845C54.5644 64.1975 54.6532 64.0166 55.1994 63.4487L55.7768 62.8484L55.6013 62.4011L55.4257 61.9538H54.5596C53.7647 61.9538 53.6724 61.931 53.4379 61.6765C53.1852 61.4023 53.1824 61.3758 53.1824 59.2677C53.1824 57.1596 53.1852 57.1331 53.4379 56.8589C53.6724 56.6044 53.7647 56.5816 54.5596 56.5816H55.4257L55.6013 56.1343L55.7768 55.687L55.1994 55.0867C54.6532 54.5188 54.5644 54.3379 54.5932 53.8509C54.6093 53.5779 57.1994 50.903 57.6306 50.714C58.0782 50.5178 58.3714 50.6386 59.0645 51.3052L59.6119 51.8317L60.0072 51.6701L60.4025 51.5086V50.6255C60.4025 49.8155 60.4249 49.7209 60.6742 49.482C60.9383 49.2288 60.9999 49.2206 62.8757 49.1881C65.1767 49.1484 65.4852 49.2254 65.6647 49.8845C65.7264 50.1109 65.7771 50.5733 65.7774 50.9124C65.778 51.521 65.7829 51.5308 66.1667 51.6943L66.5555 51.8599L67.0627 51.3506L67.5699 50.8413V39.9047V28.968H63.349H59.128L58.8694 28.7043L58.6106 28.4406V24.1378V19.8352H39.6908H20.771V45.5147ZM60.322 24.133L60.3498 27.1952L63.2747 27.2238C64.8833 27.2395 66.1996 27.215 66.1996 27.1693C66.1996 27.1236 64.8709 25.7329 63.247 24.0785L60.2943 21.0708L60.322 24.133ZM31.4694 21.7705C29.4438 21.9893 27.3866 22.9239 25.8073 24.3431C25.1605 24.9242 24.1198 26.3373 23.6762 27.2366C22.4193 29.7845 22.2786 32.848 23.3 35.4253C24.1968 37.6888 25.725 39.4592 27.7276 40.5554C29.0793 41.2952 30.0106 41.589 31.5028 41.7463C36.8467 42.31 41.7178 38.2666 42.2577 32.8191C42.7214 28.1401 40.0538 23.8628 35.6855 22.2807C34.4228 21.8234 32.799 21.6269 31.4694 21.7705ZM30.837 23.6596C29.3547 23.9969 27.7182 24.8967 26.7971 25.8809L26.4462 26.2558L27.5349 27.0613C28.1336 27.5044 29.4952 28.5008 30.5607 29.2754L32.4979 30.6841L33.0969 30.3364C35.3747 29.0145 38.8976 26.8577 38.8988 26.7843C38.902 26.593 37.6577 25.3825 36.9987 24.9359C35.6464 24.0195 34.359 23.6019 32.6815 23.5355C31.9204 23.5053 31.3444 23.5441 30.837 23.6596ZM25.1185 28.2965C24.1544 30.6305 24.1168 32.7748 25.0023 34.9495C26.2862 38.1029 29.5687 40.219 32.836 39.9999C33.3597 39.9648 33.9133 39.8978 34.066 39.8512L34.3437 39.7663L33.0487 36.0738C32.3363 34.0429 31.6896 32.3214 31.6115 32.2481C31.325 31.9796 25.5046 27.7861 25.4183 27.7861C25.3693 27.7861 25.2344 28.0159 25.1185 28.2965ZM36.9985 30.079C35.5177 30.9749 34.1352 31.8121 33.9262 31.9396L33.5465 32.1711L34.7623 35.6464C35.431 37.5578 35.9925 39.1389 36.0101 39.1601C36.0871 39.2527 37.3379 38.3774 37.9637 37.7928C39.9861 35.9038 40.9761 32.8539 40.4274 30.2037C40.225 29.2268 39.9417 28.4282 39.8017 28.4405C39.7408 28.4459 38.4792 29.1833 36.9985 30.079ZM45.9623 32.6749V33.5882H53.604H61.2457V32.6749V31.7616H53.604H45.9623V32.6749ZM45.9623 37.2951V38.2084H53.604H61.2457V37.2951V36.3818H53.604H45.9623V37.2951ZM45.9623 41.8615V42.7211H53.604H61.2457V41.8615V41.0019H53.604H45.9623V41.8615ZM45.9623 46.428V47.3412H53.604H61.2457V46.428V45.5147H53.604H45.9623V46.428ZM40.9992 50.2726C40.5894 50.5933 40.5867 50.6481 40.5867 58.7234V66.574H39.6985H38.8102L38.7762 63.6815C38.7422 60.7898 38.7421 60.7888 38.4867 60.5118L38.2311 60.2347H36.0839C33.9448 60.2347 33.9358 60.2357 33.6781 60.4985L33.4194 60.7622V63.6681V66.574H32.4707H31.5221V60.5121C31.5221 57.1781 31.4926 54.3719 31.4567 54.2763C31.3023 53.8663 30.875 53.788 28.7927 53.788C26.8285 53.788 26.7852 53.7929 26.495 54.0472L26.1993 54.3065L26.1688 60.4377L26.1384 66.5689L24.377 66.5983L22.6156 66.6277L22.585 67.5142L22.5543 68.4006H36.0502H49.546V67.4873V66.574H47.7541H45.9623V58.8002C45.9623 53.649 45.925 50.9172 45.8516 50.7029C45.7908 50.525 45.6226 50.3244 45.4778 50.2571C45.1026 50.0828 41.2245 50.0963 40.9992 50.2726ZM62.0889 51.7924C62.0889 52.5209 62.0654 52.6094 61.8189 52.807C61.6702 52.9262 61.3739 53.0813 61.1601 53.1519C60.9462 53.2224 60.5476 53.3944 60.2742 53.5341C59.4934 53.9329 59.1202 53.8806 58.4951 53.2844L57.9669 52.7809L57.3164 53.444L56.6657 54.1073L57.1527 54.6192C57.8291 55.3303 57.8475 55.4597 57.4125 56.4456C57.21 56.9045 57.012 57.4137 56.9724 57.5772C56.8479 58.0919 56.4647 58.3007 55.6451 58.3007H54.9215V59.2677V60.2347H55.6358C56.4538 60.2347 56.7232 60.3743 56.9246 60.902C56.9988 61.0964 57.2217 61.6309 57.4201 62.0898C57.8463 63.0761 57.8272 63.2072 57.1527 63.9162L56.6657 64.4281L57.3164 65.0914L57.9669 65.7545L58.4951 65.251C59.1202 64.6548 59.4934 64.6025 60.2742 65.0013C60.5476 65.141 60.9462 65.313 61.1601 65.3835C61.3739 65.4541 61.6702 65.6093 61.8189 65.7284C62.0654 65.926 62.0889 66.0145 62.0889 66.743V67.541H63.0375H63.9862V66.8129C63.9862 65.9073 64.1288 65.6822 64.8558 65.4396C65.1601 65.3381 65.6329 65.1408 65.9063 65.0012C66.6759 64.6083 66.998 64.6567 67.5941 65.2552L68.0998 65.763L68.7505 65.0997L69.401 64.4366L68.9071 63.8982C68.3276 63.2666 68.2838 62.962 68.662 62.1921C68.799 61.9133 68.9925 61.4314 69.0921 61.1213C69.3301 60.3801 69.5509 60.2347 70.4392 60.2347H71.1535V59.2677V58.3007H70.4392C69.5509 58.3007 69.3301 58.1553 69.0921 57.4142C68.9925 57.104 68.799 56.6221 68.662 56.3434C68.2871 55.5802 68.329 55.2672 68.8874 54.6586C69.1483 54.3743 69.3617 54.0968 69.3617 54.0418C69.3617 53.9071 68.2764 52.821 68.1419 52.821C68.0833 52.821 67.8259 53.0385 67.5699 53.3045C67.0174 53.8782 66.6733 53.9257 65.9063 53.5342C65.6329 53.3946 65.1601 53.1974 64.8558 53.0958C64.1288 52.8532 63.9862 52.6281 63.9862 51.7226V50.9944H63.0375H62.0889V51.7924ZM42.3786 59.2677V66.574H43.2745H44.1704V59.2677V51.9614H43.2745H42.3786V59.2677ZM27.9384 61.0943V66.574H28.887H29.8357V61.0943V55.6146H28.887H27.9384V61.0943ZM62.2729 55.7312C61.6592 55.8787 60.9154 56.3073 60.487 56.7604C58.8343 58.5083 59.3486 61.4463 61.4911 62.4949C62.2694 62.8758 62.9615 62.9735 63.742 62.8127C64.8739 62.5793 65.7988 61.8389 66.2912 60.7719C66.6827 59.9238 66.6827 58.6116 66.2912 57.7635C65.5708 56.2025 63.877 55.3458 62.2729 55.7312ZM62.1244 57.7112C61.6271 58.0151 61.2457 58.6908 61.2457 59.2677C61.2457 59.8642 61.6281 60.5245 62.1563 60.8401C62.5473 61.0738 62.719 61.1122 63.1926 61.0721C64.2445 60.9832 64.8954 60.1879 64.8068 59.0994C64.6956 57.7328 63.2844 57.0025 62.1244 57.7112ZM35.18 62.0215C35.1392 62.0631 35.1058 63.1044 35.1058 64.3356V66.574H36.0565H37.0073L36.9788 64.2908L36.9504 62.0076L36.1023 61.9767C35.6358 61.9598 35.2208 61.9798 35.18 62.0215Z" fill="white"/>
</g>
<defs>
<filter id="filter0_d_506_592" x="15" y="18" width="62" height="63" filterUnits="userSpaceOnUse" color-interpolation-filters="sRGB">
<feFlood flood-opacity="0" result="BackgroundImageFix"/>
<feColorMatrix in="SourceAlpha" type="matrix" values="0 0 0 0 0 0 0 0 0 0 0 0 0 0 0 0 0 0 127 0" result="hardAlpha"/>
<feOffset dy="4"/>
<feGaussianBlur stdDeviation="2"/>
<feComposite in2="hardAlpha" operator="out"/>
<feColorMatrix type="matrix" values="0 0 0 0 0 0 0 0 0 0 0 0 0 0 0 0 0 0 0.25 0"/>
<feBlend mode="normal" in2="BackgroundImageFix" result="effect1_dropShadow_506_592"/>
<feBlend mode="normal" in="SourceGraphic" in2="effect1_dropShadow_506_592" result="shape"/>
</filter>
</defs>
</svg>
