<svg width="92" height="92" viewBox="0 0 92 92" fill="none" xmlns="http://www.w3.org/2000/svg">
<rect x="0.101562" y="0.25" width="91.3416" height="91.3416" rx="4.93739" fill="#5F56AF" fill-opacity="0.2"/>
<g filter="url(#filter0_d_4494_9690)">
<path fill-rule="evenodd" clip-rule="evenodd" d="M25.943 24.236C25.0438 24.5195 23.5101 26.1084 23.2344 27.0421C23.0747 27.5834 23.0116 30.033 23.0116 35.7113V43.6262L23.4614 44.076C24.0563 44.6713 24.8983 44.6713 25.4932 44.076L25.943 43.6262V35.7276V27.829L26.3928 27.3792L26.8423 26.9292H44.9967H63.1511L63.6007 27.3792L64.0504 27.829V45.9924V64.1557L63.6007 64.6056L63.1511 65.0556H55.2564H47.3617L46.9122 65.5056C46.6285 65.7891 46.4624 66.1649 46.4624 66.522C46.4624 66.879 46.6285 67.2548 46.9122 67.5384L47.3617 67.9884H55.2727C60.9482 67.9884 63.3966 67.9253 63.9376 67.7655C64.9439 67.468 66.4616 65.9495 66.759 64.9426C67.0803 63.8542 67.0803 28.1305 66.759 27.0421C66.4616 26.0352 64.9439 24.5168 63.9376 24.2193C62.9131 23.9165 26.9061 23.9322 25.943 24.236ZM49.8435 31.7784C49.5599 32.0619 49.3937 32.4377 49.3937 32.7948C49.3937 33.1518 49.5599 33.5276 49.8435 33.8112C50.27 34.2379 50.4043 34.2612 52.4495 34.2612H54.606L49.8014 39.0807C45.5894 43.3059 44.9967 43.9704 44.9967 44.4679C44.9967 45.3523 45.5461 45.8925 46.4457 45.8925C47.189 45.8925 47.2764 45.8168 51.9616 41.132L56.7221 36.3717V38.5326C56.7221 40.5823 56.7452 40.7164 57.1719 41.1432C57.7667 41.7385 58.6088 41.7385 59.2036 41.1432L59.6534 40.6934V36.4608V32.2282L59.2036 31.7784L58.754 31.3284H54.5236H50.2931L49.8435 31.7784ZM25.943 47.6983C25.0438 47.9819 23.5101 49.5708 23.2344 50.5045C22.9219 51.5632 22.9219 63.8839 23.2344 64.9426C23.5318 65.9495 25.0495 67.468 26.0558 67.7655C27.114 68.0782 39.4286 68.0782 40.4868 67.7655C40.9619 67.6251 41.5821 67.2011 42.1632 66.6198C42.7441 66.0384 43.1679 65.4179 43.3082 64.9426C43.6208 63.8839 43.6208 51.5632 43.3082 50.5045C43.0109 49.4976 41.4932 47.9792 40.4868 47.6817C39.4913 47.3875 26.8832 47.4019 25.943 47.6983ZM26.3928 50.8416L25.943 51.2914V57.7236V64.1557L26.3928 64.6056L26.8423 65.0556H33.2713H39.7003L40.1499 64.6056L40.5997 64.1557V57.7236V51.2914L40.1499 50.8416L39.7003 50.3916H33.2713H26.8423L26.3928 50.8416Z" fill="white"/>
</g>
<defs>
<filter id="filter0_d_4494_9690" x="19" y="24" width="52" height="52" filterUnits="userSpaceOnUse" color-interpolation-filters="sRGB">
<feFlood flood-opacity="0" result="BackgroundImageFix"/>
<feColorMatrix in="SourceAlpha" type="matrix" values="0 0 0 0 0 0 0 0 0 0 0 0 0 0 0 0 0 0 127 0" result="hardAlpha"/>
<feOffset dy="4"/>
<feGaussianBlur stdDeviation="2"/>
<feComposite in2="hardAlpha" operator="out"/>
<feColorMatrix type="matrix" values="0 0 0 0 0 0 0 0 0 0 0 0 0 0 0 0 0 0 0.25 0"/>
<feBlend mode="normal" in2="BackgroundImageFix" result="effect1_dropShadow_4494_9690"/>
<feBlend mode="normal" in="SourceGraphic" in2="effect1_dropShadow_4494_9690" result="shape"/>
</filter>
</defs>
</svg>
