<svg width="92" height="92" viewBox="0 0 92 92" fill="none" xmlns="http://www.w3.org/2000/svg">
<rect x="0.207031" y="0.0708008" width="91.3416" height="91.3416" rx="4.93739" fill="#5F56AF" fill-opacity="0.2"/>
<g filter="url(#filter0_d_4494_9710)">
<path fill-rule="evenodd" clip-rule="evenodd" d="M58.4328 13.9597C55.8706 18.5462 56.0059 18.3756 55.0925 18.1687C50.3782 17.1009 48.8595 16.9445 44.7014 17.0974C38.6774 17.3188 34.0419 18.7499 28.9262 21.9675C22.2142 26.1894 16.7735 34.4334 15.3262 42.5747C14.8456 45.2786 14.9054 50.9697 15.4441 53.7508C16.8714 61.123 21.1232 68.0534 26.8849 72.3995L28.984 73.9825L30.1034 72.0034C31.0905 70.2581 31.1606 69.9897 30.6981 69.732C29.0544 68.8151 25.4534 65.1464 23.8059 62.7096C20.3777 57.639 18.7602 50.9999 19.4921 45.0032C21.1467 31.444 32.2571 21.497 45.8319 21.421C48.8256 21.4043 52.6595 21.8757 53.4789 22.3614C53.5987 22.4325 53.0458 23.6638 52.2499 25.0971C51.4541 26.5308 50.8582 27.7589 50.926 27.8261C50.9935 27.8934 54.0732 27.5877 57.7698 27.1465C61.4663 26.7053 64.6807 26.3442 64.9129 26.3442C65.3354 26.3442 64.7876 25.0743 60.7496 16.6951L58.969 13L58.4328 13.9597ZM70.1924 29.9749C69.9121 30.1905 69.2054 30.7695 68.6217 31.2615L67.5604 32.1565L68.3605 33.3608C68.8004 34.0231 69.4722 35.1745 69.8536 35.9195L70.5471 37.2738L72.078 36.6871C72.9197 36.3646 73.8674 36.008 74.1836 35.8951C74.7246 35.702 74.7168 35.6077 74.0579 34.3156C73.0344 32.3084 71.2328 29.5607 70.9479 29.5726C70.8126 29.5781 70.4725 29.7593 70.1924 29.9749ZM73.7701 39.6475C72.7931 40.0008 71.9401 40.3313 71.8749 40.3815C71.7744 40.4588 72.0622 42.3224 72.6765 45.5728C72.8018 46.2351 72.9917 46.2969 74.9067 46.2969H77L76.9945 45.0901C76.9877 43.6454 76.1412 39.5039 75.793 39.2114C75.6573 39.0978 74.7472 39.2938 73.7701 39.6475ZM52.9741 40.4237C52.8407 40.8688 50.1621 51.9049 49.3812 55.2273C49.2307 55.8671 49.336 55.9514 50.2855 55.9514H51.3598L53.2031 48.3082C54.2166 44.1047 55.0441 40.4842 55.0415 40.2628C55.0344 39.6185 53.1717 39.7637 52.9741 40.4237ZM29.348 40.4005C28.2224 40.6239 26.9311 41.8967 26.4682 43.2396L26.0248 44.5269L27.194 44.7769C28.6678 45.0923 29.1206 44.9185 29.2537 43.9865C29.4103 42.8904 30.8747 42.2754 32.0242 42.8229C32.9732 43.2747 33.2687 44.1922 32.9163 45.5918C32.8001 46.0529 31.4245 47.7399 29.8593 49.3403C27.1669 52.0935 26.3455 53.2269 25.8258 54.9055L25.6017 55.6296H30.7914H35.9808V54.3423V53.055H33.2354C31.4574 53.055 30.4901 52.9305 30.4901 52.7017C30.4901 52.5073 31.3754 51.5335 32.457 50.5371C35.0484 48.1512 35.9808 46.5434 35.9808 44.4615C35.9808 41.2682 33.2874 39.6188 29.348 40.4005ZM40.9063 45.1164C38.2023 49.1247 37.5957 50.2404 37.5957 51.2059V52.3882L40.7449 52.4803L43.894 52.5723L43.9925 54.101L44.091 55.6296H45.3474H46.6038L46.7023 54.101C46.7924 52.701 46.8758 52.5636 47.689 52.4706C48.4901 52.3786 48.5773 52.2444 48.5773 51.1029C48.5773 49.9109 48.5207 49.8369 47.6083 49.8369H46.6393V45.0096V40.1823L45.4281 40.1959C44.2299 40.2091 44.1814 40.2618 40.9063 45.1164ZM56.0059 41.7914V43.0787H59.4289H62.8519L62.1614 44.1246C60.0952 47.2543 58.2668 52.226 58.2668 54.7156C58.2668 55.5842 58.3389 55.6296 59.7203 55.6296H61.1737V54.4099C61.1737 51.5621 63.0083 46.7555 65.1616 43.9608C65.9138 42.9844 66.3415 42.0807 66.3415 41.4667V40.5042H61.1737H56.0059V41.7914ZM42.5768 46.544C42.0303 47.3817 41.323 48.4653 41.0055 48.9519L40.4283 49.8369H42.2419H44.0555V47.4232C44.0555 46.0957 43.9463 45.0122 43.8132 45.0154C43.6801 45.0186 43.1236 45.7063 42.5768 46.544ZM72.8012 49.6338C72.8012 49.6991 72.579 51.0224 72.3073 52.5746C72.0357 54.1264 71.8539 55.4291 71.9036 55.4693C72.1326 55.6547 75.8024 56.9288 75.8737 56.8477C76.1331 56.5529 77 51.9132 77 50.8194V49.5151H74.9006C73.7459 49.5151 72.8012 49.5685 72.8012 49.6338ZM70.0729 59.4373C69.9696 59.7617 69.3759 60.8698 68.7538 61.8992C68.1315 62.9287 67.6612 63.8073 67.7087 63.8514C67.7561 63.8955 68.5139 64.5211 69.3924 65.242L70.9896 66.5521L71.913 65.194C72.421 64.4471 73.2621 63.0127 73.7818 62.0064L74.7271 60.1769L72.9446 59.5123C70.7551 58.6959 70.3129 58.6846 70.0729 59.4373ZM63.0367 68.3926L60.862 70.177L61.7195 71.6728C63.1345 74.1418 62.9921 74.1035 65.0024 72.5517C66.9807 71.0247 68.7994 69.2303 68.5788 69.0233C67.7361 68.2329 65.5863 66.5756 65.4226 66.5897C65.3063 66.6 64.2324 67.4113 63.0367 68.3926ZM33.1127 73.6276C32.5585 74.6638 32.105 75.5894 32.105 75.6843C32.105 75.8816 36.6733 77.6493 37.9659 77.9522C38.962 78.1855 39.0608 78.0156 39.3712 75.5395L39.5911 73.7869L37.7052 73.1986C36.6681 72.8748 35.4369 72.4153 34.9699 72.1771C34.1337 71.7507 34.1046 71.7733 33.1127 73.6276ZM56.9749 72.1788C56.5308 72.4169 55.3196 72.8758 54.2838 73.1986L52.3998 73.7856L52.611 75.2473C53.0157 78.0455 53.0816 78.172 54.0215 77.9518C55.7165 77.5547 59.8818 75.8504 59.8818 75.554C59.8818 75.2859 57.9587 71.7009 57.8324 71.7334C57.805 71.7404 57.419 71.9409 56.9749 72.1788ZM42.9628 75.0996C42.8788 75.4536 42.7135 76.4097 42.5956 77.2242L42.3814 78.7049L44.1524 78.9125C45.1265 79.0264 46.7895 79.0296 47.8483 78.9192L49.7733 78.7187L49.4839 77.231C49.3243 76.4126 49.1344 75.4536 49.0614 75.0996C48.9403 74.5135 48.669 74.4559 46.0221 74.4559C43.3824 74.4559 43.102 74.5148 42.9628 75.0996Z" fill="white"/>
</g>
<defs>
<filter id="filter0_d_4494_9710" x="11" y="13" width="70" height="74" filterUnits="userSpaceOnUse" color-interpolation-filters="sRGB">
<feFlood flood-opacity="0" result="BackgroundImageFix"/>
<feColorMatrix in="SourceAlpha" type="matrix" values="0 0 0 0 0 0 0 0 0 0 0 0 0 0 0 0 0 0 127 0" result="hardAlpha"/>
<feOffset dy="4"/>
<feGaussianBlur stdDeviation="2"/>
<feComposite in2="hardAlpha" operator="out"/>
<feColorMatrix type="matrix" values="0 0 0 0 0 0 0 0 0 0 0 0 0 0 0 0 0 0 0.25 0"/>
<feBlend mode="normal" in2="BackgroundImageFix" result="effect1_dropShadow_4494_9710"/>
<feBlend mode="normal" in="SourceGraphic" in2="effect1_dropShadow_4494_9710" result="shape"/>
</filter>
</defs>
</svg>
