<svg width="92" height="92" viewBox="0 0 92 92" fill="none" xmlns="http://www.w3.org/2000/svg">
<rect width="91.3416" height="91.3416" rx="4.93739" fill="#5F56AF" fill-opacity="0.2"/>
<g filter="url(#filter0_d_506_580)">
<path fill-rule="evenodd" clip-rule="evenodd" d="M44.9004 19.0568C42.5314 19.3389 40.3514 20.5091 38.8127 22.3248C38.2725 22.9622 37.8987 23.5313 37.5113 24.3065C37.1662 24.997 37.0735 25.2922 37.071 25.7086C37.0677 26.2604 37.2518 26.6896 37.6504 27.0596C38.357 27.7156 39.3494 27.7467 40.0966 27.1364C40.3371 26.94 40.5189 26.6752 40.6792 26.288C41.1449 25.163 42.0682 24.1034 43.1029 23.5064C43.6625 23.1835 44.3073 22.9433 44.9768 22.8083C45.4396 22.7149 46.5193 22.7147 47.0121 22.8078C47.8263 22.9617 48.7837 23.374 49.3991 23.8358C49.8466 24.1715 50.3532 24.6886 50.6638 25.1269C50.8908 25.4471 51.1816 25.9802 51.4421 26.5534C51.6501 27.0111 52.1836 27.4245 52.7071 27.5336C52.9975 27.5941 53.4705 27.5595 53.7376 27.4581C54.1995 27.2828 54.6437 26.8373 54.8176 26.3749C54.9201 26.1025 54.9532 25.6526 54.8935 25.3439C54.8418 25.0768 54.6093 24.5204 54.3389 24.0171C53.1055 21.7211 51.0758 20.08 48.568 19.351C47.4806 19.0349 46.0488 18.92 44.9004 19.0568ZM45.1066 20.4848C43.9982 20.6108 43.12 20.8913 42.1118 21.4416C40.9507 22.0752 39.8634 23.1242 39.1425 24.306C38.8159 24.8416 38.5338 25.4595 38.5157 25.6796C38.5004 25.8638 38.5076 25.8844 38.6314 26.0085C38.7266 26.1039 38.7964 26.1409 38.8815 26.1409C39.1286 26.1409 39.1953 26.0669 39.4821 25.4747C39.9039 24.6036 40.2288 24.1268 40.8248 23.5042C42.6777 21.5686 45.4216 20.8316 48.0021 21.5763C50.0548 22.1687 51.7204 23.6412 52.5913 25.6334C52.7468 25.9891 52.8348 26.0939 53.0047 26.1258C53.2506 26.172 53.5037 25.9679 53.5041 25.7232C53.5044 25.5142 53.0882 24.6511 52.7129 24.0822C51.8959 22.8438 50.833 21.9046 49.5116 21.2536C48.1389 20.5772 46.6225 20.3125 45.1066 20.4848ZM45.0504 24.7831C42.9437 25.1721 41.3124 26.4935 40.5526 28.4263C40.1928 29.3417 40.1465 29.9188 40.3917 30.4362C40.554 30.7791 40.8283 31.0587 41.1655 31.2251C41.4024 31.3421 41.4306 31.347 41.863 31.347C42.2969 31.347 42.3231 31.3424 42.567 31.2228C43.0438 30.989 43.3214 30.6109 43.5107 29.9374C43.6179 29.5558 43.7591 29.2702 43.9752 28.9977C44.9117 27.8165 46.6135 27.6697 47.7199 28.6746C48.1067 29.026 48.3577 29.4527 48.5139 30.0242C48.66 30.5588 48.8782 30.8841 49.2523 31.1247C49.5448 31.3128 49.814 31.3768 50.2384 31.359C50.5697 31.3451 50.6208 31.3322 50.8715 31.1993C51.3564 30.9424 51.6639 30.5077 51.749 29.9591C51.7997 29.6323 51.7475 29.3103 51.5474 28.7158C50.8792 26.7298 49.2504 25.2816 47.1685 24.8228C46.6478 24.708 45.5668 24.6878 45.0504 24.7831ZM45.2415 26.2013C43.8724 26.4492 42.6767 27.3426 42.0523 28.5842C41.8832 28.9206 41.6576 29.5744 41.6576 29.7284C41.6576 29.9137 41.8856 30.0086 42.0016 29.8716C42.0323 29.8355 42.0952 29.6705 42.1416 29.5051C42.4336 28.4623 43.1291 27.59 44.0944 27.0558C44.7773 26.6779 45.6521 26.5024 46.4044 26.5925C48.0397 26.7882 49.3474 27.8633 49.8106 29.3924C49.9568 29.875 49.9806 29.9166 50.1197 29.9302C50.2122 29.9393 50.2516 29.9211 50.3003 29.8465C50.3594 29.7561 50.3575 29.7327 50.2651 29.4026C50.1385 28.9505 49.8122 28.2887 49.5325 27.9165C48.8476 27.0051 47.8486 26.3959 46.7204 26.2016C46.295 26.1283 45.6452 26.1282 45.2415 26.2013ZM45.6315 31.4278C44.7181 31.489 43.7354 31.7508 42.9673 32.1376C42.2466 32.5005 41.7723 32.8353 41.213 33.376C40.1059 34.4462 39.4158 35.7868 39.1667 37.3515C39.1157 37.6715 39.1084 38.4687 39.1084 43.6853C39.1084 49.4474 39.1109 49.6685 39.1823 50.1041C39.4255 51.5879 40.0879 52.8827 41.137 53.9249C42.0203 54.8025 43.051 55.4043 44.1928 55.709C45.3211 56.0101 46.5401 56.0211 47.6716 55.7404C50.0714 55.145 52.018 53.2272 52.663 50.8228C52.897 49.9505 52.8856 50.3136 52.8856 43.7139C52.8856 37.272 52.8912 37.4778 52.695 36.6943C52.1417 34.485 50.5449 32.6775 48.4325 31.8692C47.6289 31.5617 46.4367 31.3738 45.6315 31.4278ZM45.0534 32.9477C42.7156 33.3602 40.896 35.2664 40.5712 37.6432C40.5391 37.8786 40.531 39.5207 40.5408 43.883L40.5541 49.8034L40.6359 50.1501C40.9793 51.6066 41.8002 52.8096 42.9885 53.5977C44.2695 54.4473 45.8656 54.7229 47.3352 54.3485C48.5183 54.047 49.6426 53.2866 50.3984 52.2766C50.6724 51.9105 51.035 51.2038 51.195 50.7239C51.4729 49.8907 51.4547 50.3367 51.4703 43.977C51.4803 39.8883 51.4721 38.1425 51.4416 37.8383C51.3105 36.5308 50.7707 35.3936 49.841 34.4667C48.5774 33.2067 46.7933 32.6407 45.0534 32.9477ZM27.2474 34.5251C26.76 34.6478 26.2513 35.0503 26.0311 35.4877C25.9678 35.6136 25.7953 36.1036 25.6479 36.5765C25.5005 37.0495 25.2226 37.9355 25.0304 38.5454C24.8382 39.1553 24.6189 39.8555 24.543 40.1014C24.4018 40.5588 24.3394 40.6169 24.3382 40.2918C24.3355 39.5762 23.7664 38.8469 23.0336 38.62C22.803 38.5486 22.6802 38.5454 20.1604 38.5454C17.8682 38.5454 17.5019 38.5531 17.3246 38.6049C16.5351 38.836 15.9969 39.5601 16 40.3872C16.003 41.214 16.4822 41.8777 17.286 42.1686C17.4821 42.2395 17.6041 42.2454 19.1547 42.2581L20.8136 42.2716V42.3517C20.8136 42.5762 21.5321 50.3192 21.5679 50.48C21.6866 51.0139 22.049 51.4732 22.5435 51.7164C23.1083 51.9942 23.646 51.9933 24.2218 51.7135C24.4731 51.5915 24.8901 51.1806 25.006 50.941C25.0901 50.7671 25.2352 50.3192 26.0377 47.7548C26.6255 45.8767 26.6287 45.867 26.646 45.8844C26.6549 45.8933 26.7719 47.1254 26.9061 48.6225C27.0894 50.6667 27.1686 51.4065 27.2243 51.5934C27.473 52.4277 28.3314 52.9835 29.1957 52.8699C29.6731 52.8071 29.9968 52.6403 30.3333 52.2835C30.7026 51.892 30.6302 52.1532 31.8369 46.8526C32.0275 46.0153 32.1945 45.2996 32.2079 45.2623C32.2278 45.2071 32.2596 45.234 32.3775 45.4056C32.5543 45.663 32.7423 45.8286 33.0361 45.9855C33.2662 46.1085 33.6616 46.2118 33.9067 46.2129L34.0473 46.2136L34.0479 48.4783C34.0482 49.724 34.0646 50.9799 34.0843 51.2694C34.2688 53.9732 35.283 56.4123 37.0868 58.4897C38.4105 60.0143 40.3596 61.2846 42.3587 61.9254C42.8092 62.0699 43.7805 62.2998 44.1788 62.3563L44.3568 62.3816V65.139V67.8964L43.3165 67.9108C42.319 67.9246 42.2644 67.9292 41.9888 68.0217C41.0912 68.323 40.4204 69.0321 40.1943 69.9183C40.0522 70.4757 40.1279 71.2417 40.3653 71.6479C40.4208 71.7429 40.5269 71.8493 40.6216 71.9049L40.7832 71.9999H46.0952C51.8671 71.9999 51.5259 72.0124 51.7549 71.7923C52.0923 71.4679 52.2154 70.4832 52.0039 69.8009C51.7433 68.9607 51.0985 68.306 50.2531 68.0234C49.9773 67.9312 49.911 67.9251 49.0336 67.9109L48.1058 67.8959L48.1059 65.1082L48.1061 62.3206L48.7901 62.1558C52.2607 61.3198 55.0839 59.0572 56.7005 55.8162C57.224 54.7666 57.5906 53.5958 57.8027 52.2961L57.9027 51.6828L57.918 48.9482L57.9332 46.2136L58.0711 46.2129C58.2929 46.2119 58.7167 46.1089 58.9301 46.0042C59.1686 45.8872 59.5153 45.5777 59.6556 45.3565C59.7119 45.2675 59.7669 45.209 59.7776 45.2264C59.7883 45.2438 59.968 46.0101 60.1768 46.9293C60.3856 47.8485 60.7083 49.2687 60.8939 50.0853C61.2788 51.7795 61.3528 51.9838 61.7115 52.3435C62.7335 53.3681 64.5061 52.8546 64.8078 51.4464C64.8375 51.3077 64.9644 50.027 65.0898 48.6005C65.2152 47.174 65.3297 45.9763 65.3442 45.939C65.3617 45.8941 65.5069 46.308 65.7728 47.1606C66.7144 50.1795 66.8916 50.7332 66.9701 50.9006C67.103 51.184 67.4803 51.5557 67.8005 51.7187C68.7939 52.2243 70.0106 51.7281 70.3739 50.6691C70.4264 50.5163 70.4773 50.1453 70.5439 49.4317C70.7078 47.6754 71.0431 43.9703 71.1039 43.244C71.1359 42.8616 71.1719 42.4852 71.1839 42.4077L71.2057 42.2667L72.7301 42.2661C74.3877 42.2654 74.5901 42.2464 74.9788 42.0557C75.0892 42.0016 75.2851 41.8582 75.4141 41.7373C76.024 41.1652 76.1734 40.2789 75.7884 39.5165C75.6585 39.2594 75.3212 38.9131 75.0715 38.7806C74.6157 38.5386 74.7082 38.5454 71.8364 38.5454C69.5566 38.5454 69.2 38.553 69.0222 38.6053C68.5197 38.7533 68.0838 39.1036 67.8669 39.5339C67.7485 39.7686 67.6395 40.1891 67.6383 40.4154C67.6372 40.6149 67.587 40.5555 67.4948 40.2459C67.4472 40.0859 67.2167 39.346 66.9826 38.6017C66.7486 37.8575 66.4523 36.9102 66.3241 36.4967C66.049 35.6092 65.9081 35.3091 65.6402 35.0408C64.8086 34.2081 63.454 34.341 62.7906 35.3204C62.5177 35.7233 62.5158 35.7349 62.2734 38.5172C62.2486 38.8015 62.2176 39.034 62.2045 39.034C62.1914 39.034 62.0947 38.6482 61.9896 38.1766C61.764 37.1637 61.6845 36.9748 61.3362 36.6238C61.0477 36.333 60.7354 36.1671 60.35 36.0999C59.5378 35.9584 58.6935 36.3968 58.3555 37.1358C58.279 37.3028 57.6212 39.4533 56.9785 41.6372L56.749 42.4172L56.2606 42.4134C55.8634 42.4103 55.7269 42.424 55.5286 42.4871C54.9517 42.6709 54.4833 43.148 54.2875 43.7515C54.2494 43.8687 54.2334 44.7336 54.2146 47.6796C54.1918 51.2695 54.1867 51.4779 54.1138 51.8708C53.9519 52.7424 53.7295 53.4246 53.3659 54.1637C52.9484 55.0127 52.4784 55.6687 51.8017 56.3472C50.5432 57.609 48.9619 58.4116 47.206 58.6798C46.5975 58.7727 45.3512 58.773 44.788 58.6803C43.9338 58.5397 43.0413 58.2603 42.3679 57.9226C39.9468 56.7086 38.3266 54.4931 37.8626 51.7617C37.7893 51.3305 37.7842 51.1129 37.7627 47.5668C37.7402 43.8506 37.7395 43.8254 37.6593 43.6295C37.468 43.1619 37.1578 42.8132 36.7495 42.6065C36.4285 42.444 36.2521 42.4106 35.7302 42.4132L35.2511 42.4157L35.1589 42.1062C35.1083 41.9361 34.8555 41.0949 34.5973 40.2369C34.3391 39.3789 34.0322 38.3555 33.9152 37.9627C33.7983 37.5699 33.6581 37.164 33.6037 37.0606C33.4539 36.7761 33.0611 36.3987 32.7706 36.26C32.0548 35.9185 31.2135 36.0607 30.6613 36.6166C30.3313 36.9488 30.2192 37.2148 30.0014 38.1824C29.8997 38.634 29.8079 39.0121 29.7974 39.0226C29.7657 39.0544 29.7429 38.8466 29.6231 37.4384C29.5598 36.6951 29.4924 36.0169 29.4732 35.9311C29.3413 35.3408 28.8814 34.8251 28.2828 34.5965C28.0382 34.5031 27.4864 34.4651 27.2474 34.5251ZM27.461 35.9874C27.3953 36.0276 27.3249 36.0917 27.3045 36.1298C27.2693 36.1957 27.0028 37.0354 26.0429 40.1053C25.8102 40.8496 25.4053 42.1436 25.1433 42.9809C24.8812 43.8182 24.6449 44.5456 24.6181 44.5972C24.3658 45.083 23.6821 45.1036 23.3927 44.6342C23.2898 44.4673 23.2864 44.4418 23.1 42.3981C22.9963 41.2611 22.8921 40.2823 22.8684 40.2231C22.8447 40.1637 22.7733 40.0834 22.7098 40.0446C22.6 39.9775 22.4754 39.974 20.1566 39.9739C17.9209 39.9738 17.711 39.9791 17.626 40.0378C17.4258 40.1761 17.3685 40.3612 17.4636 40.5621C17.5787 40.8055 17.5349 40.8006 19.6402 40.8015C21.4409 40.8023 21.5534 40.8063 21.7041 40.875C21.8882 40.9587 22.0394 41.1075 22.1102 41.2746C22.1392 41.3429 22.2386 42.2708 22.3499 43.5111C22.8652 49.2527 22.9542 50.1714 23.005 50.2699C23.0337 50.3255 23.1161 50.4029 23.1882 50.4418C23.3011 50.5028 23.3395 50.5064 23.4662 50.4684C23.7428 50.3853 23.503 51.0802 25.8426 43.5823C26.1103 42.7244 26.3556 41.9602 26.3876 41.8842C26.5468 41.5068 26.9882 41.3388 27.3476 41.5188C27.7157 41.7032 27.7292 41.7532 27.882 43.4992C28.2837 48.0906 28.5723 51.1308 28.6155 51.2258C28.6747 51.3561 28.8263 51.4385 29.0069 51.4385C29.1117 51.4385 29.1717 51.4099 29.2633 51.3163C29.3768 51.2004 29.3978 51.1282 29.6761 49.8973C29.8374 49.1841 30.1427 47.8393 30.3546 46.909C30.5664 45.9787 30.8954 44.5324 31.0856 43.6951C31.2758 42.8578 31.4642 42.1132 31.5042 42.0405C31.5941 41.8772 31.7818 41.7446 31.9886 41.6979C32.209 41.6483 32.4665 41.7391 32.6347 41.9259C32.7744 42.0808 32.7902 42.1261 33.2419 43.6575C33.3791 44.1227 33.5152 44.5408 33.5444 44.5865C33.6455 44.7453 33.7336 44.7639 34.3872 44.7652C34.9972 44.7664 35.0109 44.7682 35.1605 44.8673C35.2526 44.9282 35.3444 45.0334 35.3924 45.1329C35.4712 45.296 35.4719 45.3232 35.4725 48.0204C35.4731 50.8206 35.4901 51.2813 35.6245 52.1527C36.2902 56.4682 39.5735 59.9325 43.8507 60.8323C44.1394 60.8931 44.5443 60.9623 44.7505 60.9862C45.2686 61.0461 45.4119 61.0875 45.5498 61.2167C45.8195 61.4693 45.8002 61.1626 45.8002 65.2024V68.8359L45.6872 68.9971C45.4631 69.3168 45.5012 69.3098 43.8882 69.331L42.4636 69.3498L42.2443 69.4612C41.8678 69.6526 41.5452 70.1135 41.5452 70.4601V70.5715H46.1188C50.3819 70.5715 50.6925 70.5672 50.6925 70.5082C50.6925 70.2078 50.4279 69.7424 50.1485 69.5513C49.8566 69.3517 49.6929 69.331 48.4057 69.331C47.28 69.331 47.2226 69.3276 47.0636 69.2504C46.9533 69.1969 46.8613 69.1125 46.7894 68.9987L46.6812 68.8276V65.164V61.5003L46.7746 61.3405C46.9127 61.1042 47.055 61.035 47.5853 60.9462C50.7199 60.4216 53.3264 58.6776 54.9597 56.0123C55.6634 54.8638 56.1394 53.5667 56.3829 52.1339L56.4787 51.5701L56.5004 48.4064L56.5221 45.2427L56.6361 45.08C56.6988 44.9906 56.8169 44.8782 56.8986 44.8304C57.0391 44.748 57.0759 44.7442 57.5931 44.7583C57.8934 44.7664 58.1802 44.7579 58.2304 44.7393C58.3875 44.681 58.4905 44.5518 58.5519 44.3359C58.8221 43.3854 59.2219 42.1136 59.2804 42.0182C59.4855 41.684 59.9007 41.5903 60.2414 41.8015C60.5529 41.9946 60.3547 41.2359 62.0713 48.8073C62.6871 51.5233 62.6205 51.2882 62.8008 51.3817C62.9796 51.4744 63.1658 51.455 63.2899 51.3306C63.3491 51.2712 63.4068 51.1824 63.4182 51.1332C63.4356 51.0583 63.8244 46.7771 64.163 42.9323C64.2498 41.9459 64.2539 41.9219 64.3612 41.7671C64.7261 41.2405 65.4692 41.3865 65.6631 42.0228C65.7304 42.2439 66.2514 43.9079 66.8693 45.8753C67.0414 46.4231 67.261 47.1251 67.3573 47.4352C68.1366 49.945 68.2415 50.254 68.3529 50.3672C68.5759 50.5938 68.9375 50.4839 69.025 50.1627C69.0594 50.0366 69.1795 48.745 69.623 43.7327C69.7263 42.5646 69.8297 41.518 69.8527 41.4068C69.9035 41.161 70.1341 40.9045 70.3612 40.8414C70.4549 40.8152 71.1742 40.8011 72.4119 40.8009L74.3182 40.8007L74.4457 40.6729C74.5502 40.5682 74.5731 40.5167 74.5731 40.3872C74.5731 40.2578 74.5502 40.2063 74.4457 40.1016L74.3182 39.9738H71.8364H69.3547L69.2306 40.0982C69.0794 40.2497 69.1044 40.0768 68.8935 42.4359C68.8011 43.4696 68.7075 44.3798 68.6855 44.4586C68.6376 44.6302 68.4299 44.8712 68.2744 44.9358C68.0963 45.0098 67.7797 44.9663 67.6034 44.8438C67.4065 44.707 67.3561 44.5931 67.0365 43.5635C66.8889 43.088 66.5687 42.0647 66.3249 41.2894C65.8612 39.8153 65.1802 37.6435 64.8825 36.6898C64.6982 36.0994 64.6239 35.9792 64.4145 35.9331C64.2773 35.9029 64.062 35.9938 63.9824 36.1156C63.9105 36.2257 63.9439 35.9019 63.5345 40.4518C63.1921 44.2561 63.2186 44.084 62.941 44.3093C62.7115 44.4955 62.3208 44.4872 62.0718 44.2909C61.9024 44.1572 61.833 43.9505 61.5791 42.8229C61.4427 42.2172 61.172 41.0281 60.9776 40.1805C60.7832 39.3329 60.5821 38.4453 60.5307 38.2081C60.4794 37.9709 60.4113 37.7369 60.3794 37.6881C60.221 37.4457 59.8018 37.465 59.6699 37.7209C59.6234 37.8111 59.0673 39.6318 58.4137 41.8344C57.9019 43.559 57.9209 43.5062 57.7531 43.6626C57.5178 43.8819 57.4578 43.8933 56.704 43.8635C56.1832 43.8429 55.9883 43.8478 55.9018 43.8838C55.669 43.9805 55.6786 43.8298 55.6786 47.3715C55.6786 49.2007 55.6622 50.8108 55.6407 51.0854C55.4631 53.3588 54.6554 55.3092 53.2066 56.963C51.9869 58.3555 50.259 59.4124 48.4211 59.8902C47.5192 60.1247 47.1033 60.1739 46.0064 60.1761C45.1336 60.1777 44.9514 60.1674 44.5068 60.0911C41.6388 59.5987 39.246 57.9966 37.7689 55.58C37.1069 54.4967 36.6992 53.3867 36.4551 52.0023L36.359 51.4573L36.3372 47.761L36.3154 44.0648L36.1873 43.95L36.0592 43.8353L35.3369 43.862C34.6715 43.8867 34.6017 43.8831 34.4516 43.8164C34.1289 43.6733 34.1248 43.6639 33.5593 41.7593C33.412 41.2631 33.1755 40.4765 33.0337 40.0113C32.892 39.5462 32.6816 38.8445 32.5662 38.4521C32.4507 38.0597 32.3276 37.7064 32.2927 37.667C32.1995 37.5619 31.9932 37.4852 31.8743 37.5114C31.8175 37.5239 31.7255 37.5817 31.6699 37.6399C31.5822 37.7317 31.5397 37.8745 31.3493 38.7188C31.2286 39.254 30.993 40.2923 30.8257 41.0263C30.6584 41.7602 30.4534 42.6652 30.37 43.0373C30.2867 43.4094 30.1947 43.7985 30.1656 43.9018C30.1057 44.1146 29.9346 44.3176 29.75 44.3949C29.3797 44.5501 28.92 44.3384 28.8013 43.9582C28.7787 43.8859 28.6086 42.1267 28.4233 40.0489C28.1646 37.1489 28.0722 36.2433 28.0254 36.151C27.9642 36.0305 27.7794 35.914 27.6497 35.9143C27.6116 35.9143 27.5267 35.9473 27.461 35.9874Z" fill="white"/>
</g>
<defs>
<filter id="filter0_d_506_580" x="12" y="19" width="68" height="61" filterUnits="userSpaceOnUse" color-interpolation-filters="sRGB">
<feFlood flood-opacity="0" result="BackgroundImageFix"/>
<feColorMatrix in="SourceAlpha" type="matrix" values="0 0 0 0 0 0 0 0 0 0 0 0 0 0 0 0 0 0 127 0" result="hardAlpha"/>
<feOffset dy="4"/>
<feGaussianBlur stdDeviation="2"/>
<feComposite in2="hardAlpha" operator="out"/>
<feColorMatrix type="matrix" values="0 0 0 0 0 0 0 0 0 0 0 0 0 0 0 0 0 0 0.25 0"/>
<feBlend mode="normal" in2="BackgroundImageFix" result="effect1_dropShadow_506_580"/>
<feBlend mode="normal" in="SourceGraphic" in2="effect1_dropShadow_506_580" result="shape"/>
</filter>
</defs>
</svg>
