<svg width="92" height="92" viewBox="0 0 92 92" fill="none" xmlns="http://www.w3.org/2000/svg">
<rect x="0.101562" y="0.25" width="91.3416" height="91.3416" rx="4.93739" fill="#5F56AF" fill-opacity="0.2"/>
<path d="M71 45.6777C70.9989 45.1908 70.7302 44.7391 70.2899 44.4836L65.1068 41.4765L70.2954 38.437C70.7329 38.1807 70.9992 37.7302 71 37.2453C71.0008 36.7602 70.7359 36.309 70.2991 36.0515L46.2933 21.8953C45.8081 21.6091 45.1919 21.6091 44.7067 21.8953L20.7009 36.0515C20.2642 36.309 19.9993 36.7602 20 37.2453C20.0008 37.7303 20.2671 38.1808 20.7046 38.437L25.8576 41.4556L20.7023 44.4883C20.2651 44.7455 19.9996 45.1967 20.0001 45.6821C20.0006 46.1674 20.267 46.6182 20.7047 46.8747L25.8577 49.8932L20.7023 52.9257C20.2658 53.1826 20.0004 53.6329 20.0001 54.1175C19.9998 54.6021 20.2647 55.0526 20.701 55.3099L44.7068 69.4661C44.9494 69.6091 45.2247 69.6807 45.5 69.6807C45.7754 69.6807 46.0508 69.6091 46.2933 69.4661L70.2991 55.3099C70.7368 55.0518 71.0019 54.5992 71 54.1131C70.9981 53.627 70.7296 53.1762 70.2899 52.9211L65.1068 49.914L70.2954 46.8746C70.7345 46.6173 71.0011 46.1645 71 45.6777ZM24.3151 37.2394L45.5 24.7466L66.685 37.2394C66.4814 37.3586 46.1072 49.2937 45.5 49.6494L24.3151 37.2394ZM66.6753 54.128L45.5 66.615L24.3109 54.1197L28.6826 51.5481L44.7105 60.9371C44.9522 61.0787 45.2261 61.1494 45.5 61.1494C45.774 61.1494 46.0479 61.0787 46.2895 60.9371L62.2732 51.574L66.6753 54.128ZM45.5 58.0868L24.3176 45.6783L28.6826 43.1106L44.7105 52.4996C44.9522 52.6412 45.2261 52.712 45.5 52.712C45.774 52.712 46.0479 52.6412 46.2895 52.4996L62.2732 43.1365L66.6685 45.6865C66.5471 45.7576 46.0608 57.7582 45.5 58.0868Z" fill="white"/>
</svg>
