<svg width="92" height="92" viewBox="0 0 92 92" fill="none" xmlns="http://www.w3.org/2000/svg">
<rect width="91.3416" height="91.3416" rx="4.93739" fill="#5F56AF" fill-opacity="0.2"/>
<g filter="url(#filter0_d_506_588)">
<path fill-rule="evenodd" clip-rule="evenodd" d="M28.493 18.8136C28.3363 19.2222 28.2078 20.5649 28.2078 21.7973C28.2078 23.8945 28.1335 24.038 27.0483 24.038C25.5553 24.038 23.6518 25.9415 23.6518 27.4345C23.6518 28.5289 23.5169 28.5945 21.2598 28.6009C18.5299 28.6091 17.4724 29.0906 17.8761 30.1426C18.0897 30.6998 18.8046 30.8721 20.904 30.8721C23.0025 30.8721 23.6518 31.0283 23.6518 31.5336C23.6518 32.027 22.9278 32.2298 20.8042 32.3309C18.3057 32.4503 17.9567 32.5783 17.9567 33.3779C17.9567 34.1775 18.3057 34.3055 20.8042 34.4249C22.9278 34.526 23.6518 34.7287 23.6518 35.2222C23.6518 35.7261 23.0075 35.8837 20.945 35.8837C18.1153 35.8837 17.2728 36.3794 18.2009 37.4984C18.5581 37.9285 19.6124 38.1617 21.2015 38.1617C22.5492 38.1617 23.6518 38.3667 23.6518 38.6173C23.6518 38.8679 22.5492 39.0729 21.2015 39.0729C19.6124 39.0729 18.5581 39.3062 18.2009 39.7363C17.2728 40.8553 18.1153 41.351 20.945 41.351C23.0075 41.351 23.6518 41.5086 23.6518 42.0125C23.6518 42.5059 22.9278 42.7087 20.8042 42.8098C18.3057 42.9292 17.9567 43.0572 17.9567 43.8568C17.9567 44.6564 18.3057 44.7844 20.8042 44.9038C22.8813 45.0026 23.6518 45.2122 23.6518 45.6792C23.6518 46.1462 22.8813 46.3558 20.8042 46.4546C18.3057 46.574 17.9567 46.702 17.9567 47.5016C17.9567 48.3012 18.3057 48.4292 20.8042 48.5486C22.9278 48.6497 23.6518 48.8525 23.6518 49.3459C23.6518 49.8498 23.0075 50.0074 20.945 50.0074C18.1153 50.0074 17.2728 50.5031 18.2009 51.6221C18.5581 52.0522 19.6124 52.2855 21.2015 52.2855C22.5492 52.2855 23.6518 52.4905 23.6518 52.7411C23.6518 52.9917 22.5492 53.1967 21.2015 53.1967C19.6124 53.1967 18.5581 53.4299 18.2009 53.86C17.2728 54.979 18.1153 55.4747 20.945 55.4747C23.0075 55.4747 23.6518 55.6323 23.6518 56.1362C23.6518 56.6297 22.9278 56.8324 20.8042 56.9335C18.3057 57.0529 17.9567 57.1809 17.9567 57.9805C17.9567 58.7801 18.3057 58.9081 20.8042 59.0275C22.9278 59.1286 23.6518 59.3314 23.6518 59.8248C23.6518 60.3301 23.0025 60.4863 20.904 60.4863C18.8046 60.4863 18.0897 60.6586 17.8761 61.2158C17.4724 62.2678 18.5299 62.7493 21.2598 62.7575C23.5169 62.7639 23.6518 62.8295 23.6518 63.9239C23.6518 65.4169 25.5553 67.3204 27.0483 67.3204C28.1427 67.3204 28.2083 67.4553 28.2146 69.7123C28.2228 72.4423 28.7044 73.4998 29.7564 73.0961C30.3136 72.8824 30.4858 72.1676 30.4858 70.0682C30.4858 67.9697 30.6421 67.3204 31.1474 67.3204C31.6408 67.3204 31.8435 68.0444 31.9447 70.1679C32.064 72.6665 32.1921 73.0155 32.9916 73.0155C33.7912 73.0155 33.9193 72.6665 34.0386 70.1679C34.1398 68.0444 34.3425 67.3204 34.8359 67.3204C35.3412 67.3204 35.4975 67.9697 35.4975 70.0682C35.4975 72.1676 35.6697 72.8824 36.2269 73.0961C37.2789 73.4998 37.7605 72.4423 37.7687 69.7123C37.7723 68.397 37.9805 67.3204 38.2311 67.3204C38.4817 67.3204 38.6867 68.423 38.6867 69.7707C38.6867 71.3598 38.92 72.4141 39.3501 72.7713C40.469 73.6993 40.9647 72.8569 40.9647 70.0272C40.9647 67.9646 41.1224 67.3204 41.6263 67.3204C42.1197 67.3204 42.3224 68.0444 42.4236 70.1679C42.5429 72.6665 42.671 73.0155 43.4706 73.0155C44.2701 73.0155 44.3982 72.6665 44.5175 70.1679C44.6164 68.0908 44.826 67.3204 45.293 67.3204C45.76 67.3204 45.9695 68.0908 46.0684 70.1679C46.1878 72.6665 46.3158 73.0155 47.1154 73.0155C47.915 73.0155 48.043 72.6665 48.1624 70.1679C48.2635 68.0444 48.4663 67.3204 48.9597 67.3204C49.4636 67.3204 49.6212 67.9646 49.6212 70.0272C49.6212 72.8569 50.1169 73.6993 51.2359 72.7713C51.666 72.4141 51.8992 71.3598 51.8992 69.7707C51.8992 68.423 52.1043 67.3204 52.3548 67.3204C52.6054 67.3204 52.8104 68.423 52.8104 69.7707C52.8104 71.3598 53.0437 72.4141 53.4738 72.7713C54.5928 73.6993 55.0885 72.8569 55.0885 70.0272C55.0885 67.9646 55.2461 67.3204 55.75 67.3204C56.2434 67.3204 56.4462 68.0444 56.5473 70.1679C56.6667 72.6665 56.7947 73.0155 57.5943 73.0155C58.3939 73.0155 58.5219 72.6665 58.6413 70.1679C58.7424 68.0444 58.9452 67.3204 59.4386 67.3204C59.9438 67.3204 60.1001 67.9697 60.1001 70.0682C60.1001 72.1676 60.2723 72.8824 60.8295 73.0961C61.8815 73.4998 62.3631 72.4423 62.3713 69.7123C62.3777 67.4553 62.4433 67.3204 63.5376 67.3204C64.1755 67.3204 65.2006 66.817 65.8157 66.2019C66.4307 65.5868 66.9342 64.5617 66.9342 63.9239C66.9342 62.8295 67.069 62.7639 69.3261 62.7575C72.0561 62.7493 73.1135 62.2678 72.7099 61.2158C72.4962 60.6586 71.7814 60.4863 69.6819 60.4863C67.5834 60.4863 66.9342 60.3301 66.9342 59.8248C66.9342 59.3314 67.6581 59.1286 69.7817 59.0275C72.2802 58.9081 72.6292 58.7801 72.6292 57.9805C72.6292 57.1809 72.2802 57.0529 69.7817 56.9335C67.6581 56.8324 66.9342 56.6297 66.9342 56.1362C66.9342 55.631 67.5834 55.4747 69.6819 55.4747C71.7814 55.4747 72.4962 55.3025 72.7099 54.7453C73.1135 53.6933 72.0561 53.2117 69.3261 53.2035C68.0108 53.1999 66.9342 52.9917 66.9342 52.7411C66.9342 52.4905 68.0367 52.2855 69.3844 52.2855C70.9736 52.2855 72.0278 52.0522 72.385 51.6221C73.3131 50.5031 72.4707 50.0074 69.6409 50.0074C67.5784 50.0074 66.9342 49.8498 66.9342 49.3459C66.9342 48.8525 67.6581 48.6497 69.7817 48.5486C72.2802 48.4292 72.6292 48.3012 72.6292 47.5016C72.6292 46.702 72.2802 46.574 69.7817 46.4546C67.7046 46.3558 66.9342 46.1462 66.9342 45.6792C66.9342 45.2122 67.7046 45.0026 69.7817 44.9038C72.2802 44.7844 72.6292 44.6564 72.6292 43.8568C72.6292 43.0572 72.2802 42.9292 69.7817 42.8098C67.6581 42.7087 66.9342 42.5059 66.9342 42.0125C66.9342 41.5086 67.5784 41.351 69.6409 41.351C72.4707 41.351 73.3131 40.8553 72.385 39.7363C72.0278 39.3062 70.9736 39.0729 69.3844 39.0729C68.0367 39.0729 66.9342 38.8679 66.9342 38.6173C66.9342 38.3667 68.0108 38.1585 69.3261 38.1549C72.0561 38.1467 73.1135 37.6651 72.7099 36.6131C72.4962 36.0559 71.7814 35.8837 69.6819 35.8837C67.5834 35.8837 66.9342 35.7274 66.9342 35.2222C66.9342 34.7287 67.6581 34.526 69.7817 34.4249C72.2802 34.3055 72.6292 34.1775 72.6292 33.3779C72.6292 32.5783 72.2802 32.4503 69.7817 32.3309C67.6581 32.2298 66.9342 32.027 66.9342 31.5336C66.9342 31.0283 67.5834 30.8721 69.6819 30.8721C71.7814 30.8721 72.4962 30.6998 72.7099 30.1426C73.1135 29.0906 72.0561 28.6091 69.3261 28.6009C67.069 28.5945 66.9342 28.5289 66.9342 27.4345C66.9342 25.9415 65.0307 24.038 63.5376 24.038C62.4433 24.038 62.3777 23.9031 62.3713 21.6461C62.3631 18.9161 61.8815 17.8586 60.8295 18.2623C60.2723 18.476 60.1001 19.1908 60.1001 21.2902C60.1001 23.3888 59.9438 24.038 59.4386 24.038C58.9452 24.038 58.7424 23.314 58.6413 21.1905C58.5219 18.6919 58.3939 18.3429 57.5943 18.3429C56.7947 18.3429 56.6667 18.6919 56.5473 21.1905C56.4462 23.314 56.2434 24.038 55.75 24.038C55.2447 24.038 55.0885 23.3888 55.0885 21.2902C55.0885 19.1908 54.9162 18.476 54.359 18.2623C53.3071 17.8586 52.8255 18.9161 52.8173 21.6461C52.8136 22.9619 52.6054 24.038 52.3548 24.038C52.1043 24.038 51.8992 22.9354 51.8992 21.5877C51.8992 19.9986 51.666 18.9443 51.2359 18.5871C50.1169 17.6591 49.6212 18.5015 49.6212 21.3312C49.6212 23.3938 49.4636 24.038 48.9597 24.038C48.4663 24.038 48.2635 23.314 48.1624 21.1905C48.043 18.6919 47.915 18.3429 47.1154 18.3429C46.3158 18.3429 46.1878 18.6919 46.0684 21.1905C45.9695 23.2676 45.76 24.038 45.293 24.038C44.826 24.038 44.6164 23.2676 44.5175 21.1905C44.3982 18.6919 44.2701 18.3429 43.4706 18.3429C42.671 18.3429 42.5429 18.6919 42.4236 21.1905C42.3224 23.314 42.1197 24.038 41.6263 24.038C41.1224 24.038 40.9647 23.3938 40.9647 21.3312C40.9647 18.5015 40.469 17.6591 39.3501 18.5871C38.92 18.9443 38.6867 19.9986 38.6867 21.5877C38.6867 22.9354 38.4817 24.038 38.2311 24.038C37.9805 24.038 37.7723 22.9619 37.7687 21.6461C37.7605 18.9161 37.2789 17.8586 36.2269 18.2623C35.6697 18.476 35.4975 19.1908 35.4975 21.2902C35.4975 23.3888 35.3412 24.038 34.8359 24.038C34.3425 24.038 34.1398 23.314 34.0386 21.1905C33.9193 18.6919 33.7912 18.3429 32.9916 18.3429C32.1921 18.3429 32.064 18.6919 31.9447 21.1905C31.8458 23.2676 31.6362 24.038 31.1692 24.038C30.7027 24.038 30.4927 23.268 30.3938 21.195C30.289 19.0031 30.0885 18.3197 29.5181 18.2113C29.1113 18.1338 28.6497 18.4049 28.493 18.8136ZM28.9236 35.6882C28.3545 36.2578 28.2078 37.4975 28.2078 41.7478C28.2078 47.2611 28.4825 48.185 30.1213 48.185C31.0676 48.185 31.0945 48.3404 30.5063 50.3911L30.0717 51.9078L31.3036 51.1123C31.9816 50.6744 33.25 49.837 34.1225 49.2507C35.6109 48.2506 36.133 48.185 42.5739 48.185C47.3058 48.185 49.6089 48.0151 49.9857 47.6383C50.3515 47.2725 50.5324 45.2423 50.5324 41.5036C50.5324 36.4455 50.449 35.8709 49.6513 35.444C49.1241 35.162 44.9271 34.9725 39.2047 34.9725C31.1168 34.9725 29.5291 35.0832 28.9236 35.6882ZM51.8992 42.6499C51.8992 46.4961 51.2887 48.3572 49.8048 49.0334C49.1793 49.3186 46.729 49.5518 44.3603 49.5518C40.1702 49.5518 40.0535 49.5801 40.0535 50.5997C40.0535 52.5611 40.7342 52.7411 48.1496 52.7411C55.0844 52.7411 55.1705 52.7534 57.0567 54.0304C60.3543 56.2629 60.2614 56.2506 59.9147 54.4017C59.6477 52.9784 59.7233 52.7411 60.4441 52.7411C62.0961 52.7411 62.3781 51.8267 62.3781 46.4692C62.3781 43.6212 62.1658 40.8944 61.9066 40.4097C61.4865 39.6247 60.9147 39.5285 56.6671 39.5285H51.8992V42.6499Z" fill="white"/>
</g>
<defs>
<filter id="filter0_d_506_588" x="13.793" y="18.1792" width="63" height="63" filterUnits="userSpaceOnUse" color-interpolation-filters="sRGB">
<feFlood flood-opacity="0" result="BackgroundImageFix"/>
<feColorMatrix in="SourceAlpha" type="matrix" values="0 0 0 0 0 0 0 0 0 0 0 0 0 0 0 0 0 0 127 0" result="hardAlpha"/>
<feOffset dy="4"/>
<feGaussianBlur stdDeviation="2"/>
<feComposite in2="hardAlpha" operator="out"/>
<feColorMatrix type="matrix" values="0 0 0 0 0 0 0 0 0 0 0 0 0 0 0 0 0 0 0.25 0"/>
<feBlend mode="normal" in2="BackgroundImageFix" result="effect1_dropShadow_506_588"/>
<feBlend mode="normal" in="SourceGraphic" in2="effect1_dropShadow_506_588" result="shape"/>
</filter>
</defs>
</svg>
