<svg width="92" height="92" viewBox="0 0 92 92" fill="none" xmlns="http://www.w3.org/2000/svg">
<rect x="0.101562" y="0.0708008" width="91.3416" height="91.3416" rx="4.93739" fill="#5F56AF" fill-opacity="0.2"/>
<g filter="url(#filter0_d_4494_9695)">
<path fill-rule="evenodd" clip-rule="evenodd" d="M51.1719 12.0651C51.416 12.1709 51.6309 12.5029 51.6309 12.7745C51.6309 13.2787 51.5191 13.3762 49.5749 14.5678C48.0836 15.4818 47.7638 15.7049 47.9027 15.7342C53.7871 16.977 58.9039 19.7402 63.0637 23.9211C64.3223 25.1861 65.1211 26.1022 66.0129 27.3032C70.7014 33.6173 72.7565 41.5549 71.7498 49.4613C71.0953 54.6017 69.1022 59.5586 66.0121 63.7313C62.3278 68.7063 57.16 72.4559 51.3435 74.3746C49.6247 74.9416 47.5112 75.4289 45.9025 75.6291C45.2409 75.7114 45.1419 75.7082 44.9107 75.5965C44.2108 75.2587 44.4037 74.1798 45.1847 74.064C47.8802 73.6646 49.0882 73.3947 50.9171 72.7831C53.1725 72.0289 55.2381 71.0413 57.2349 69.7625C61.1442 67.2587 64.557 63.5969 66.7862 59.514C69.0689 55.333 70.2176 51.0666 70.359 46.2443C70.5296 40.4219 68.8357 34.4801 65.6225 29.6299C61.9045 24.0178 56.3263 19.835 50.1008 17.9911C49.196 17.723 47.0943 17.2189 47.0536 17.2601C47.0409 17.2729 47.4952 18.0491 48.063 18.9849C49.5584 21.4494 49.572 21.4756 49.5138 21.7897C49.395 22.4307 48.644 22.7025 48.192 22.268C48.0777 22.158 47.4668 21.2009 46.8344 20.1412C46.2021 19.0814 45.4384 17.807 45.1373 17.3092C44.2915 15.9107 44.3 15.8891 46.1494 14.7434C50.7735 11.8787 50.7593 11.8863 51.1719 12.0651ZM39.1021 15.4268C39.1858 15.4678 39.3273 15.6328 39.4165 15.7934C39.5597 16.0513 39.569 16.1178 39.496 16.3643C39.39 16.7223 39.134 16.923 38.7114 16.9794C34.0833 17.597 30.1406 19.0454 26.4383 21.4885C23.7311 23.2748 21.0996 25.7916 19.1802 28.4302C16.9979 31.4301 15.4309 34.772 14.5153 38.3788C13.8878 40.8504 13.665 42.7222 13.6655 45.5172C13.666 47.7396 13.7533 48.7804 14.0986 50.6797C16.1703 62.0743 24.7887 71.0922 35.9899 73.5857C36.5082 73.7011 36.9453 73.7824 36.961 73.7664C36.9768 73.7504 36.9267 73.6455 36.8495 73.5332C36.7724 73.4209 36.4653 72.9201 36.167 72.4202C35.8687 71.9203 35.3785 71.107 35.0775 70.6129C34.7765 70.1187 34.5113 69.6379 34.488 69.5443C34.4276 69.3006 34.5827 68.8842 34.7976 68.7131C34.9195 68.6161 35.0897 68.5665 35.3009 68.5665C35.7199 68.5665 35.8554 68.7096 36.5753 69.9117C36.8866 70.4315 37.639 71.682 38.2473 72.6904C38.8622 73.7096 39.3708 74.6329 39.3927 74.7695C39.4678 75.2383 39.3153 75.3879 37.8215 76.3111C37.059 76.7823 35.7725 77.58 34.9624 78.0836C33.612 78.9234 33.4606 78.9996 33.1424 79C32.8381 79.0004 32.7683 78.97 32.5774 78.7538C32.3823 78.5328 32.3632 78.4696 32.3937 78.1479C32.4148 77.9249 32.4793 77.7398 32.5635 77.6599C32.6381 77.589 33.4827 77.0478 34.4402 76.4572C35.3978 75.8665 36.1637 75.3546 36.1423 75.3196C36.121 75.2845 36.0435 75.2559 35.9703 75.2559C35.897 75.2559 35.3152 75.1233 34.6772 74.9612C28.0547 73.2785 22.2124 69.3618 18.0716 63.8287C16.8404 62.1835 15.9761 60.7528 15.026 58.7869C11.6163 51.7317 11.0654 43.5892 13.4889 36.0648C16.0036 28.2569 21.6186 21.7584 28.9393 18.1834C31.7146 16.8282 34.4592 15.9658 37.513 15.4895C38.5455 15.3285 38.8751 15.3154 39.1021 15.4268ZM53.2115 32.189C53.9306 32.267 55.2166 32.5283 56.0088 32.7574C57.1367 33.0836 58.858 33.7695 58.8317 33.8823C58.8209 33.9289 58.8464 33.9455 58.8886 33.9191C58.9973 33.8511 60.1908 34.4624 60.1333 34.5567C60.1053 34.6023 60.1212 34.6114 60.1728 34.5792C60.2219 34.5484 60.4889 34.6585 60.7946 34.8354L61.3302 35.1455V46.6935C61.3302 53.045 61.3124 58.2416 61.2907 58.2416C61.1559 58.2416 60.8304 58.0044 60.8719 57.9364C60.9012 57.8885 60.8888 57.8759 60.8413 57.9056C60.7974 57.9331 60.5256 57.8349 60.2375 57.6874C59.9494 57.5399 59.2536 57.2327 58.6913 57.0049C58.129 56.7769 57.6926 56.564 57.7214 56.5318C57.7502 56.4996 57.7344 56.4961 57.6863 56.5241C57.6381 56.552 57.2825 56.4762 56.8959 56.3555C55.1609 55.8136 54.052 55.6275 52.2416 55.574C50.0508 55.5093 48.5198 55.7382 46.5642 56.423C45.9723 56.6303 45.4183 56.8053 45.3331 56.8118C45.2481 56.8184 45.1901 56.843 45.2045 56.8666C45.2189 56.8901 44.9491 57.0445 44.6049 57.2097C44.2607 57.3748 43.7285 57.6551 43.4221 57.8325L42.8651 58.155L42.8833 46.6191L42.9015 35.0832L43.4004 34.7453C44.8816 33.7422 46.8147 32.9053 48.6673 32.4653C49.8014 32.196 52.0277 32.0606 53.2115 32.189ZM34.3693 32.2861C35.4573 32.4527 36.382 32.7043 37.4676 33.1289C38.4309 33.5057 39.8742 34.2485 40.6024 34.7422L41.1053 35.0832L41.1222 46.6442C41.1333 54.1427 41.1148 58.1669 41.0695 58.0962C41.0311 58.0362 40.9992 58.0108 40.9986 58.0397C40.998 58.0687 40.8277 57.9902 40.6203 57.8652C38.9561 56.8631 36.9602 56.1304 34.7828 55.7223C34.1984 55.6128 33.7225 55.5885 32.2322 55.5919C30.5674 55.5959 30.3044 55.614 29.3515 55.7904C27.2317 56.1829 25.2547 56.9101 22.7305 58.2256C22.7008 58.2411 22.6766 53.054 22.6766 46.6988V35.1437L23.4489 34.7032C24.4322 34.1424 24.6607 34.0275 25.5988 33.622C28.6114 32.3197 31.6084 31.8632 34.3693 32.2861ZM54.0631 34.437C55.6147 34.6502 57.094 35.1333 58.6938 35.9494C59.8426 36.5354 60.005 36.6928 59.9938 37.2094C59.9876 37.4962 59.9497 37.5778 59.7255 37.7857C59.4124 38.0762 59.0661 38.1066 58.6493 37.8806C58.4997 37.7994 58.3416 37.7554 58.298 37.7827C58.2492 37.8132 58.239 37.799 58.2712 37.746C58.3369 37.6386 57.0625 37.0172 56.0841 36.6796C52.8627 35.568 49.4491 35.8938 45.992 37.6429C45.4274 37.9285 44.6101 38.1713 44.6981 38.0274C44.7151 37.9994 44.6508 37.9405 44.5552 37.8964C44.1508 37.71 44.0435 36.9666 44.3701 36.6147C44.6749 36.2864 46.589 35.4163 47.9217 35.0001C49.9519 34.3664 52.1095 34.1685 54.0631 34.437ZM33.5255 34.4306C35.4201 34.6966 37.3216 35.3257 39.1654 36.2963C39.6298 36.5407 39.7796 36.7152 39.8261 37.0653C39.8945 37.5818 39.5151 38.028 39.0074 38.028C38.8968 38.028 38.4021 37.8356 37.9082 37.6003C36.666 37.0086 36.6117 36.9863 35.6817 36.6843C34.5869 36.3288 33.7513 36.1589 32.6633 36.0706C30.4192 35.8885 28.3291 36.3398 26.0534 37.4977C25.4669 37.7961 24.9193 38.0279 24.8005 38.0279C24.4967 38.0281 24.1421 37.7543 24.0397 37.4404C23.9399 37.1342 24.0297 36.7458 24.2463 36.5475C24.4067 36.4006 26.0472 35.5478 26.501 35.3755C26.6928 35.3026 26.8209 35.2139 26.7952 35.1717C26.7687 35.1283 26.785 35.1192 26.8344 35.1501C26.8809 35.1792 27.1688 35.1203 27.4741 35.0191C29.3998 34.3809 31.6281 34.1642 33.5255 34.4306ZM53.4629 38.5132C54.9569 38.7012 55.8156 38.9066 57.1113 39.3856C58.0077 39.717 59.5939 40.5272 59.8002 40.759C60.2821 41.3004 59.8894 42.1725 59.1637 42.1725C59.0302 42.1725 58.7475 42.074 58.5282 41.9511C57.0992 41.1504 55.6299 40.6088 54.1977 40.3548C53.3955 40.2124 53.1105 40.1965 51.9345 40.228C50.9381 40.2546 50.3945 40.3052 49.839 40.4231C48.7298 40.6585 47.2932 41.1605 46.1923 41.6976C45.6568 41.9588 45.1241 42.1725 45.0085 42.1725C44.3412 42.1725 43.9515 41.4631 44.3006 40.8837C44.6012 40.3848 47.121 39.3126 49.1162 38.8346C50.3738 38.5333 52.4204 38.382 53.4629 38.5132ZM33.4536 38.5758C35.3161 38.8392 37.1618 39.4278 38.9081 40.3154C39.7903 40.7638 40.03 41.1692 39.7439 41.7291C39.4674 42.2702 39.0179 42.2998 38.1072 41.837C37.2894 41.4213 36.0675 40.9343 35.2139 40.6839C33.2719 40.1142 30.8808 40.0462 29.035 40.5082C28.2416 40.7068 27.5553 40.9391 27.5905 40.9971C27.6066 41.0237 27.5265 41.049 27.4123 41.0532C27.2981 41.0574 26.7091 41.3111 26.1032 41.6167C25.4974 41.9224 24.9134 42.1725 24.8055 42.1725C24.5049 42.1725 24.2172 41.9873 24.0873 41.7103C23.7655 41.0239 24.096 40.6655 25.8043 39.848C28.2091 38.6972 31.014 38.2308 33.4536 38.5758ZM53.9343 42.7237C54.8566 42.8436 56.1292 43.1687 57.0726 43.5255C57.8185 43.8076 59.417 44.5879 59.6193 44.7687C59.686 44.8283 59.7799 44.8524 59.8279 44.8223C59.8849 44.7868 59.8969 44.798 59.8622 44.8548C59.833 44.9027 59.8397 44.9813 59.8771 45.0296C60.1161 45.3372 60.0134 45.9297 59.6794 46.1704C59.3396 46.4153 58.9813 46.3645 58.2625 45.9696C56.8933 45.2175 55.5122 44.7282 54.0882 44.4911C52.8893 44.2912 51.0593 44.3253 49.9065 44.5689C48.4986 44.8662 47.1011 45.3685 45.7115 46.0768C44.9812 46.449 44.5866 46.4081 44.2989 45.9307C44.0116 45.4539 44.2086 44.905 44.7652 44.6313C44.9415 44.5447 45.0661 44.4418 45.0422 44.4026C45.0183 44.3634 45.0339 44.3533 45.0768 44.3802C45.1822 44.4461 45.6729 44.2032 45.6175 44.1125C45.5926 44.0719 45.6101 44.0634 45.6576 44.0931C45.7038 44.122 46.0563 44.0159 46.441 43.8573C49.0059 42.7998 51.5541 42.4143 53.9343 42.7237ZM33.3557 42.7226C35.1674 42.9449 36.8426 43.4614 38.6594 44.358C39.6283 44.8361 39.8471 45.0402 39.8477 45.4663C39.848 45.7252 39.6793 46.0575 39.4731 46.2035C39.1861 46.4071 38.841 46.3407 37.9366 45.9084C36.4597 45.2023 35.5703 44.892 34.0643 44.5574C33.4453 44.4199 33.1271 44.3978 31.7652 44.3981C30.3973 44.3982 30.0879 44.4199 29.4661 44.5595C28.3694 44.8055 27.5494 45.0739 27.6068 45.168C27.6375 45.2183 27.6234 45.2283 27.5693 45.1945C27.5214 45.1646 27.2982 45.2145 27.0732 45.3054C26.6955 45.4581 26.3865 45.6141 25.4499 46.125C24.8031 46.478 24.205 46.3156 24.0348 45.741C23.9373 45.4114 24.0424 44.9942 24.2622 44.8383C24.338 44.7847 24.376 44.7138 24.3466 44.681C24.3172 44.6483 24.3311 44.6434 24.3774 44.6702C24.4238 44.6971 24.5798 44.6485 24.7242 44.5624C24.9222 44.4441 24.9632 44.3892 24.8913 44.3387C24.8239 44.2912 24.8382 44.2834 24.9398 44.3119C25.0281 44.3366 25.3423 44.2257 25.755 44.0243C28.1001 42.8796 30.8279 42.4124 33.3557 42.7226ZM53.1756 46.8007C54.4024 46.8989 56.06 47.2669 57.0655 47.6642C57.3365 47.7713 58.0135 48.0815 58.57 48.3536C59.8755 48.9918 60.1622 49.3116 59.9667 49.9111C59.8761 50.189 59.6186 50.4108 59.2944 50.4903C59.1286 50.5308 58.8747 50.432 57.9293 49.9584C56.6532 49.3192 55.657 48.9551 54.5047 48.7067C53.8733 48.5706 53.5161 48.5433 52.3134 48.5394C50.8222 48.5346 50.4475 48.5775 49.1774 48.8993C48.0989 49.1725 46.1788 49.9153 45.6325 50.2707C44.9674 50.7035 44.2541 50.4329 44.1824 49.7208C44.1321 49.2197 44.2995 49.0333 45.2075 48.5792C47.8919 47.2368 50.7245 46.6046 53.1756 46.8007ZM32.9632 46.8246C33.87 46.9137 35.0745 47.1605 36.0302 47.4529C36.9051 47.7206 38.423 48.3352 38.826 48.5848C38.9554 48.665 39.1086 48.7123 39.1664 48.6898C39.2242 48.6674 39.2638 48.6775 39.2544 48.7124C39.245 48.7473 39.3494 48.853 39.4864 48.9473C40.0637 49.345 39.8962 50.2595 39.2078 50.4682C38.9481 50.5469 38.8926 50.5305 38.0801 50.1341C36.6026 49.4131 35.7243 49.0989 34.1721 48.7362C33.4165 48.5597 33.2136 48.543 31.8011 48.5413C30.4598 48.5396 30.1618 48.5607 29.5379 48.7019C27.9566 49.0597 26.8641 49.4776 25.5192 50.2393C25.2742 50.3781 24.983 50.4838 24.8347 50.4877C24.1476 50.506 23.7286 49.613 24.1782 49.0883C24.2485 49.0064 24.6993 48.7312 25.1799 48.4767C25.6606 48.2223 26.0295 47.987 25.9998 47.9538C25.97 47.9205 25.9865 47.9172 26.0365 47.9463C26.0865 47.9755 26.4583 47.8702 26.8627 47.7124C27.7953 47.3485 28.5267 47.1464 29.5535 46.9687C30.5058 46.804 32.0779 46.7375 32.9632 46.8246ZM52.8882 50.9427C54.3215 51.0464 55.5337 51.2928 56.834 51.7448C57.6475 52.0275 59.3718 52.8662 59.681 53.1295C60.2589 53.6216 60.0188 54.497 59.2641 54.6498C59.0972 54.6836 58.8706 54.595 58.1624 54.2193C56.8502 53.523 55.6877 53.106 54.2352 52.8105C53.3594 52.6323 51.1409 52.6337 50.2298 52.8131C48.7002 53.1143 47.6074 53.4875 46.0035 54.2565C45.122 54.6791 45.0695 54.6947 44.8051 54.6146C44.2553 54.4478 44.0071 53.8777 44.2648 53.3735C44.4439 53.0228 46.6383 51.9792 48.0192 51.588C48.2654 51.5182 48.4513 51.4356 48.4322 51.4044C48.4131 51.3732 48.4567 51.3633 48.529 51.3824C48.6014 51.4016 48.852 51.3677 49.086 51.3072C50.0374 51.0611 51.9674 50.876 52.8882 50.9427ZM32.4477 50.9454C33.6078 51.0094 35.2093 51.3259 36.4282 51.7322C37.6359 52.1348 39.4153 52.9713 39.6523 53.2478C40.0535 53.7159 39.7717 54.5075 39.1575 54.6383C38.9239 54.688 38.8342 54.6546 37.5306 54.0321C36.6853 53.6285 35.8774 53.3343 34.9265 53.0837C33.6497 52.7474 33.0989 52.6812 31.6215 52.6868C30.3967 52.6914 30.1678 52.7125 29.3943 52.8931C28.101 53.195 27.3596 53.4663 26.0727 54.1088C25.0753 54.6068 24.8726 54.6836 24.6717 54.6407C23.9791 54.4923 23.754 53.6407 24.2831 53.1705C24.5723 52.9135 25.7168 52.3157 26.5927 51.9642C28.4426 51.2217 30.6121 50.8442 32.4477 50.9454ZM53.0319 57.2725C54.5858 57.4047 56.9967 58.0575 58.4563 58.7413L58.7796 58.8928L51.9182 58.8881L45.0569 58.8835L45.6557 58.597C47.8432 57.5507 50.5621 57.0625 53.0319 57.2725ZM33.8131 57.2961C35.2289 57.4613 37.1526 58.0133 38.3751 58.6051L38.9499 58.8833L32.0885 58.8875C28.2687 58.8897 25.2749 58.8641 25.3349 58.8295C25.6731 58.635 27.2258 58.0656 28.0292 57.8416C29.5325 57.4225 30.4434 57.2868 31.9448 57.2584C32.6759 57.2446 33.5166 57.2615 33.8131 57.2961Z" fill="white"/>
</g>
<defs>
<filter id="filter0_d_4494_9695" x="8" y="12" width="68" height="75" filterUnits="userSpaceOnUse" color-interpolation-filters="sRGB">
<feFlood flood-opacity="0" result="BackgroundImageFix"/>
<feColorMatrix in="SourceAlpha" type="matrix" values="0 0 0 0 0 0 0 0 0 0 0 0 0 0 0 0 0 0 127 0" result="hardAlpha"/>
<feOffset dy="4"/>
<feGaussianBlur stdDeviation="2"/>
<feComposite in2="hardAlpha" operator="out"/>
<feColorMatrix type="matrix" values="0 0 0 0 0 0 0 0 0 0 0 0 0 0 0 0 0 0 0.25 0"/>
<feBlend mode="normal" in2="BackgroundImageFix" result="effect1_dropShadow_4494_9695"/>
<feBlend mode="normal" in="SourceGraphic" in2="effect1_dropShadow_4494_9695" result="shape"/>
</filter>
</defs>
</svg>
