<svg width="40" height="40" viewBox="0 0 40 40" fill="none" xmlns="http://www.w3.org/2000/svg">
<path d="M8.09531 19.0468C7.91064 18.7267 7.66473 18.4462 7.37162 18.2211C7.07851 17.996 6.74394 17.8309 6.38702 17.7352C6.03009 17.6394 5.6578 17.6149 5.2914 17.663C4.925 17.7111 4.57166 17.8309 4.25156 18.0156C3.93147 18.2003 3.65088 18.4462 3.42582 18.7393C3.20076 19.0324 3.03563 19.367 2.93987 19.7239C2.84411 20.0808 2.81959 20.4531 2.86771 20.8195C2.91583 21.1859 3.03564 21.5392 3.22031 21.8593L9.00156 31.875C10.5087 34.4283 12.9629 36.2835 15.8305 37.0371C18.6981 37.7906 21.7473 37.3817 24.315 35.8991C26.8827 34.4165 28.7614 31.9803 29.5424 29.12C30.3235 26.2597 29.9438 23.2068 28.4859 20.625L25.8297 16.0156C25.4338 15.4186 24.8251 14.9951 24.1277 14.8316C23.4303 14.6681 22.6968 14.7768 22.0768 15.1356C21.4568 15.4945 20.9971 16.0763 20.7915 16.7625C20.5859 17.4487 20.6498 18.1875 20.9703 18.8281" stroke="white" stroke-width="2" stroke-linecap="round" stroke-linejoin="round"/>
<path d="M16.7203 22.7345L10.7828 12.4532C10.5981 12.1331 10.3522 11.8525 10.0591 11.6275C9.76601 11.4024 9.43144 11.2373 9.07452 11.1415C8.71759 11.0458 8.3453 11.0212 7.9789 11.0694C7.6125 11.1175 7.25916 11.2373 6.93906 11.422C6.61897 11.6066 6.33838 11.8526 6.11332 12.1457C5.88826 12.4388 5.72313 12.7733 5.62737 13.1303C5.53161 13.4872 5.50709 13.8595 5.55521 14.2259C5.60333 14.5923 5.72314 14.9456 5.90781 15.2657L11.8453 25.547" stroke="white" stroke-width="2" stroke-linecap="round" stroke-linejoin="round"/>
<path d="M23.4703 23.172L16.9078 11.797C16.5349 11.1505 15.9204 10.6787 15.1995 10.4853C14.4787 10.2919 13.7105 10.3928 13.0641 10.7657C12.4176 11.1387 11.9458 11.7532 11.7524 12.474C11.559 13.1949 11.6599 13.963 12.0328 14.6095" stroke="white" stroke-width="2" stroke-linecap="round" stroke-linejoin="round"/>
<path d="M15.4703 10.5782L13.8609 7.78135C13.488 7.13489 12.8735 6.66306 12.1526 6.46966C11.4318 6.27627 10.6637 6.37714 10.0172 6.7501C9.37073 7.12306 8.8989 7.73756 8.7055 8.4584C8.51211 9.17924 8.61298 9.94739 8.98594 10.5939L9.36094 11.2345" stroke="white" stroke-width="2" stroke-linecap="round" stroke-linejoin="round"/>
<path d="M29.3766 29.922C31.2836 28.1951 32.5421 25.8676 32.9429 23.3263C33.3437 20.7851 32.8626 18.1832 31.5797 15.9532L28.9234 11.3595C28.7388 11.0394 28.4929 10.7588 28.1997 10.5337C27.9066 10.3087 27.5721 10.1435 27.2151 10.0478C26.8582 9.95202 26.4859 9.9275 26.1195 9.97562C25.7531 10.0237 25.3998 10.1436 25.0797 10.3282C24.7596 10.5129 24.479 10.7588 24.2539 11.0519C24.0289 11.345 23.8638 11.6796 23.768 12.0365C23.6722 12.3934 23.6477 12.7657 23.6958 13.1321C23.744 13.4985 23.8638 13.8519 24.0484 14.172" stroke="white" stroke-width="2" stroke-linecap="round" stroke-linejoin="round"/>
<path d="M24.4078 14.797L19.9859 7.14073C19.613 6.49426 18.9985 6.02243 18.2776 5.82904C17.5568 5.63564 16.7887 5.73652 16.1422 6.10948C15.4957 6.48244 15.0239 7.09693 14.8305 7.81778C14.6371 8.53862 14.738 9.30676 15.1109 9.95323" stroke="white" stroke-width="2" stroke-linecap="round" stroke-linejoin="round"/>
<path d="M27.625 1.76562L26.9844 4.17188" stroke="white" stroke-width="2" stroke-linecap="round" stroke-linejoin="round"/>
<path d="M32.3594 3.96875L30.9219 6.01563" stroke="white" stroke-width="2" stroke-linecap="round" stroke-linejoin="round"/>
<path d="M36.0313 7.64062L33.9844 9.07812" stroke="white" stroke-width="2" stroke-linecap="round" stroke-linejoin="round"/>
</svg>
