<svg width="92" height="92" viewBox="0 0 92 92" fill="none" xmlns="http://www.w3.org/2000/svg">
<rect x="0.207031" y="0.390137" width="91.3416" height="91.3416" rx="4.93739" fill="#5F56AF" fill-opacity="0.2"/>
<path d="M65.1549 43.9505C66.6482 46.1713 67.774 48.6645 68.4187 51.3334C68.0696 51.3164 67.7151 51.3068 67.3557 51.3068C58.5754 51.3068 50.7805 55.4983 45.8805 61.9614C43.6721 59.0413 40.8765 56.5949 37.6607 54.783C33.6179 52.5052 29.0488 51.3077 24.4008 51.3068H24.4004C24.0411 51.3068 23.6866 51.3164 23.3375 51.3334C23.9822 48.6645 25.1079 46.1713 26.6013 43.9505L45.195 51.3305L45.8781 51.6016L46.5611 51.3305L65.1549 43.9505ZM45.8781 19.6627L76.6514 31.8659L45.8776 44.0693L19.856 33.7642L17.2845 32.7458L17.2856 32.7219L16.0604 32.2377L15.1121 31.863L45.8781 19.6627ZM17.2448 33.6817L17.3244 35.5638L18.8894 72.5993H15.5934L17.2297 34.0381L17.2448 33.6817ZM45.8781 26.4656C44.6749 26.4656 43.4878 26.7002 42.5322 27.1706C41.6874 27.5865 40.447 28.5072 40.447 30.0915C40.447 31.6758 41.6874 32.5966 42.5322 33.0125C43.4878 33.4828 44.6749 33.7174 45.8781 33.7174C47.0813 33.7174 48.2684 33.4828 49.2239 33.0125C50.0688 32.5966 51.3092 31.6758 51.3092 30.0915C51.3092 28.5072 50.0688 27.5865 49.2239 27.1706C48.2684 26.7002 47.0813 26.4656 45.8781 26.4656Z" stroke="white" stroke-width="3.70304"/>
</svg>
