<svg width="40" height="40" viewBox="0 0 40 40" fill="none" xmlns="http://www.w3.org/2000/svg">
<path d="M14.7031 28.8438C12.9219 34.1406 5.85938 34.1406 5.85938 34.1406C5.85938 34.1406 5.85938 27.0781 11.1563 25.2969" stroke="white" stroke-width="2" stroke-linecap="round" stroke-linejoin="round"/>
<path d="M30.6094 16.4689L20 27.0783L12.9219 20.0002L23.5313 9.39081C27.5469 5.37518 31.5625 5.42206 33.2813 5.67206C33.5465 5.70744 33.7927 5.82912 33.9819 6.01832C34.1711 6.20751 34.2927 6.45372 34.3281 6.71893C34.5781 8.43768 34.625 12.4533 30.6094 16.4689Z" stroke="white" stroke-width="2" stroke-linecap="round" stroke-linejoin="round"/>
<path d="M28.8438 18.2344V28.3281C28.8391 28.6578 28.7043 28.9723 28.4687 29.2031L23.4219 34.2656C23.2618 34.4256 23.0612 34.539 22.8417 34.5939C22.6221 34.6488 22.3918 34.6431 22.1753 34.5773C21.9587 34.5115 21.7641 34.3882 21.6121 34.2205C21.4602 34.0528 21.3566 33.847 21.3125 33.625L20 27.0781" stroke="white" stroke-width="2" stroke-linecap="round" stroke-linejoin="round"/>
<path d="M21.764 11.1562H11.6703C11.3406 11.1609 11.0261 11.2957 10.7953 11.5313L5.7328 16.5781C5.57286 16.7382 5.4594 16.9388 5.40451 17.1583C5.34962 17.3779 5.35537 17.6082 5.42113 17.8247C5.4869 18.0413 5.61021 18.2359 5.77793 18.3879C5.94564 18.5398 6.15146 18.6434 6.37342 18.6875L12.9203 20" stroke="white" stroke-width="2" stroke-linecap="round" stroke-linejoin="round"/>
</svg>
