<svg width="92" height="92" viewBox="0 0 92 92" fill="none" xmlns="http://www.w3.org/2000/svg">
<rect x="0.101562" y="0.569336" width="91.3416" height="91.3416" rx="4.93739" fill="#5F56AF" fill-opacity="0.2"/>
<path d="M42.4207 37.8633H39.0703V56.2903H42.4207V37.8633Z" fill="white"/>
<path d="M52.4754 37.8633H49.125V56.2903H52.4754V37.8633Z" fill="white"/>
<path d="M45.7729 22.7871C48.898 22.7861 51.9914 23.4135 54.8692 24.632C57.747 25.8505 60.3504 27.6351 62.5247 29.8798V22.7871H65.8751V36.1886H52.4736V32.8382H60.7189C57.5804 29.3529 53.3205 27.0767 48.6787 26.4047C44.037 25.7328 39.3065 26.7076 35.3084 29.1598C31.3104 31.612 28.2974 35.3869 26.7924 39.829C25.2875 44.2711 25.3856 49.1 27.0698 53.4774C28.7539 57.8547 31.9178 61.5041 36.0121 63.7919C40.1065 66.0797 44.8727 66.8615 49.4833 66.0015C54.0939 65.1416 58.2579 62.6942 61.2522 59.0843C64.2465 55.4743 65.8821 50.9298 65.8751 46.2397H69.2255C69.2255 50.8782 67.85 55.4125 65.273 59.2692C62.696 63.126 59.0332 66.132 54.7478 67.907C50.4624 69.6821 45.7469 70.1465 41.1975 69.2416C36.6482 68.3367 32.4693 66.1031 29.1894 62.8232C25.9095 59.5433 23.6759 55.3644 22.771 50.8151C21.866 46.2657 22.3305 41.5502 24.1055 37.2648C25.8806 32.9794 28.8866 29.3166 32.7433 26.7396C36.6001 24.1626 41.1344 22.7871 45.7729 22.7871Z" fill="white"/>
</svg>
