<svg width="40" height="40" viewBox="0 0 40 40" fill="none" xmlns="http://www.w3.org/2000/svg">
<path d="M20 20L35 5" stroke="white" stroke-width="2" stroke-linecap="round" stroke-linejoin="round"/>
<path d="M30.6095 9.39069C27.9503 6.72343 24.3865 5.15172 20.6237 4.98663C16.8609 4.82154 13.1733 6.0751 10.2906 8.49921C7.40797 10.9233 5.54043 14.3413 5.05764 18.0767C4.57484 21.812 5.51198 25.5925 7.68355 28.6699C9.85513 31.7472 13.1029 33.8972 16.784 34.6943C20.4651 35.4913 24.3114 34.8773 27.5614 32.9738C30.8114 31.0704 33.2284 28.0161 34.334 24.4156C35.4396 20.8151 35.1531 16.9307 33.5314 13.5313" stroke="white" stroke-width="2" stroke-linecap="round" stroke-linejoin="round"/>
<path d="M25.2965 14.7033C24.0578 13.468 22.4256 12.7057 20.6833 12.5488C18.941 12.3918 17.1988 12.8501 15.7592 13.844C14.3197 14.838 13.2738 16.3048 12.8032 17.9896C12.3326 19.6745 12.4671 21.471 13.1833 23.067C13.8995 24.663 15.1521 25.9578 16.7235 26.7263C18.295 27.4949 20.086 27.6887 21.7855 27.2741C23.485 26.8595 24.9856 25.8627 26.0266 24.4568C27.0676 23.0509 27.5833 21.3248 27.484 19.5783" stroke="white" stroke-width="2" stroke-linecap="round" stroke-linejoin="round"/>
</svg>
