<svg width="92" height="92" viewBox="0 0 92 92" fill="none" xmlns="http://www.w3.org/2000/svg">
<rect x="0.207031" y="0.569336" width="91.3416" height="91.3416" rx="4.93739" fill="#5F56AF" fill-opacity="0.2"/>
<path d="M64.183 57.2569C62.7154 55.7882 61.0007 54.5895 59.1173 53.7157C61.7732 51.564 63.4677 48.2807 63.4677 44.5987C63.4677 38.1026 58.0502 32.7731 51.5539 32.8728C45.1572 32.9725 40.0035 38.1847 40.0035 44.5987C40.0035 48.2807 41.7038 51.564 44.354 53.7157C42.4702 54.5888 40.7553 55.7877 39.2882 57.2569C36.087 60.464 34.2694 64.697 34.1521 69.2115C34.1506 69.2741 34.1616 69.3363 34.1844 69.3946C34.2073 69.4529 34.2416 69.506 34.2853 69.5508C34.329 69.5956 34.3813 69.6312 34.4389 69.6555C34.4966 69.6798 34.5586 69.6923 34.6212 69.6923H37.9045C38.1566 69.6923 38.3677 69.4929 38.3736 69.2408C38.485 65.8403 39.8628 62.6567 42.2843 60.2412C43.5234 58.9955 44.9973 58.0079 46.6206 57.3357C48.2439 56.6634 49.9844 56.3198 51.7415 56.3247C55.3121 56.3247 58.6717 57.7142 61.1987 60.2412C63.6143 62.6567 64.9921 65.8403 65.1094 69.2408C65.1152 69.4929 65.3263 69.6923 65.5784 69.6923H68.8617C68.9243 69.6923 68.9863 69.6798 69.044 69.6555C69.1017 69.6312 69.1539 69.5956 69.1976 69.5508C69.2413 69.506 69.2756 69.4529 69.2985 69.3946C69.3214 69.3363 69.3324 69.2741 69.3308 69.2115C69.2135 64.697 67.396 60.464 64.183 57.2569ZM51.7415 52.1034C49.7363 52.1034 47.8484 51.3236 46.4354 49.9047C45.7262 49.2012 45.1661 48.3621 44.7883 47.4374C44.4106 46.5126 44.223 45.5213 44.2367 44.5225C44.2543 42.5995 45.0223 40.7409 46.365 39.3631C47.7721 37.9208 49.6542 37.1176 51.6653 37.0941C53.6528 37.0766 55.5818 37.8505 57.0007 39.24C58.4547 40.6647 59.2521 42.5702 59.2521 44.5987C59.2521 46.6039 58.4723 48.4859 57.0534 49.9047C56.3573 50.6042 55.5294 51.1586 54.6176 51.536C53.7059 51.9134 52.7283 52.1062 51.7415 52.1034ZM37.0544 46.1466C37.0016 45.6365 36.9723 45.1206 36.9723 44.5987C36.9723 43.6665 37.0602 42.7578 37.2244 41.8725C37.2655 41.6614 37.1541 41.4445 36.9606 41.3565C36.1632 40.9989 35.4303 40.5064 34.7971 39.8849C34.0509 39.1615 33.4638 38.2904 33.0731 37.3274C32.6824 36.3643 32.4968 35.3304 32.5281 34.2916C32.5808 32.4096 33.3372 30.6214 34.6564 29.2729C36.1046 27.7896 38.0511 26.9805 40.1208 27.004C41.9911 27.0216 43.797 27.7427 45.1631 29.0208C45.6262 29.4547 46.0249 29.9355 46.3591 30.4514C46.4764 30.6331 46.7051 30.7094 46.9044 30.639C47.9363 30.2814 49.0268 30.0293 50.1467 29.912C50.475 29.8768 50.6627 29.525 50.5161 29.2319C48.6106 25.462 44.7175 22.8588 40.2146 22.7885C33.7124 22.6888 28.2949 28.0183 28.2949 34.5086C28.2949 38.1905 29.9893 41.4738 32.6453 43.6255C30.7809 44.4874 29.063 45.6775 27.5737 47.1667C24.3608 50.3738 22.5432 54.6068 22.4259 59.1272C22.4244 59.1898 22.4353 59.252 22.4582 59.3103C22.4811 59.3686 22.5154 59.4217 22.5591 59.4665C22.6028 59.5113 22.655 59.5469 22.7127 59.5712C22.7704 59.5955 22.8324 59.608 22.895 59.608H26.1842C26.4363 59.608 26.6474 59.4086 26.6532 59.1565C26.7646 55.756 28.1425 52.5724 30.5639 50.1568C32.2877 48.4331 34.3984 47.2371 36.7026 46.6566C36.9313 46.598 37.0837 46.3811 37.0544 46.1466Z" fill="white"/>
</svg>
