<svg width="100" height="100" viewBox="0 0 100 100" fill="none" xmlns="http://www.w3.org/2000/svg">
<circle cx="50" cy="50" r="50" fill="#A86B3C"/>
<path fill-rule="evenodd" clip-rule="evenodd" d="M39.9819 32.0684C39.7845 32.1473 39.5265 32.3759 39.4127 32.5728C39.3664 32.6529 39.3196 33.1627 39.2996 33.8035L39.2655 34.8976L37.1845 34.9339C35.1567 34.9692 35.0918 34.9746 34.6477 35.1458C34.0129 35.3905 33.5744 35.6893 33.0927 36.2054C32.6104 36.7221 32.2323 37.4299 32.097 38.0692C32.017 38.4476 32.0012 40.5547 32.0001 50.972C31.999 63.1492 32.0019 63.4342 32.1337 63.9507C32.3251 64.7005 32.6379 65.2479 33.1927 65.8038C33.7474 66.3597 34.2936 66.6732 35.0418 66.865C35.5581 66.9973 35.8497 67 49.4658 67C63.082 67 63.3735 66.9973 63.8899 66.865C64.6358 66.6737 65.1839 66.3596 65.7429 65.8027C66.2818 65.2661 66.6616 64.5984 66.8019 63.9413C66.8481 63.7245 66.9119 63.5178 66.9435 63.4821C67.02 63.3955 67.0182 38.3317 66.9417 38.3791C66.9092 38.3993 66.8634 38.2753 66.8399 38.1037C66.7673 37.5731 66.3198 36.7205 65.8493 36.2165C65.3577 35.6898 64.922 35.3918 64.2839 35.1458C63.8399 34.9746 63.775 34.9692 61.7472 34.9339L59.6662 34.8976L59.6321 33.7911C59.6019 32.8118 59.5818 32.663 59.4573 32.4962C59.0905 32.0049 58.5145 31.8619 58.0325 32.1426C57.5539 32.4214 57.4861 32.6239 57.4598 33.8548L57.4367 34.9317H49.4658H41.4949L41.4719 33.8548C41.4507 32.8652 41.4358 32.757 41.2884 32.5194C41.018 32.0835 40.4419 31.8846 39.9819 32.0684ZM35.2361 37.2821C35.0464 37.3706 34.7794 37.5739 34.6428 37.7339C34.195 38.2582 34.1823 38.352 34.1823 41.1661V43.6838H49.4658H64.7493V41.1661C64.7493 38.352 64.7367 38.2582 64.2888 37.7339C64.1522 37.5739 63.8853 37.3706 63.6956 37.2821C63.36 37.1255 63.3 37.1211 61.4913 37.1205L59.6321 37.1198V38.5455C59.6321 39.9116 59.6257 39.9808 59.4786 40.1974C59.2563 40.5246 59.007 40.6856 58.6625 40.7245C58.2672 40.7692 57.8606 40.5663 57.6432 40.2159C57.4905 39.9698 57.4818 39.8893 57.4609 38.5386L57.4388 37.1198H49.4658H41.4928L41.4708 38.5386C41.4498 39.8893 41.4411 39.9698 41.2884 40.2159C41.071 40.5663 40.6644 40.7692 40.2691 40.7245C39.9246 40.6856 39.6753 40.5246 39.4531 40.1974C39.306 39.9808 39.2996 39.9116 39.2996 38.5455V37.1198L37.4403 37.1205C35.6317 37.1211 35.5716 37.1255 35.2361 37.2821ZM32.0323 50.9659C32.0323 57.8855 32.0404 60.7264 32.0502 57.2789C32.0599 53.8316 32.0599 48.1701 32.0502 44.6978C32.0404 41.2256 32.0323 44.0462 32.0323 50.9659ZM34.1984 54.6753L34.2165 63.4786L34.4269 63.8547C34.6556 64.2634 35.1024 64.621 35.5349 64.7413C35.8828 64.8382 63.0489 64.8382 63.3968 64.7413C63.8292 64.621 64.2761 64.2634 64.5048 63.8547L64.7152 63.4786L64.7333 54.6753L64.7514 45.8719H49.4658H34.1803L34.1984 54.6753ZM47.2318 48.1677C43.6487 48.6027 40.8996 50.1391 40.1802 52.1088C40.0292 52.5221 40.0223 52.6334 39.9979 55.0262C39.9809 56.6988 39.9983 57.6667 40.0511 57.98C40.38 59.9345 42.5556 61.5503 45.7887 62.2412C47.1163 62.5249 47.7778 62.5872 49.4658 62.5875C51.5707 62.588 52.9197 62.3971 54.5167 61.8732C57.0106 61.0549 58.602 59.6352 58.8806 57.98C58.9333 57.6667 58.9507 56.6988 58.9337 55.0262C58.9094 52.6334 58.9024 52.5221 58.7514 52.1088C58.0206 50.1078 55.2737 48.5927 51.5947 48.1614C50.5264 48.0362 48.2887 48.0394 47.2318 48.1677ZM47.9648 50.2901C45.6333 50.5707 43.8038 51.2089 42.8489 52.0749C42.3473 52.5298 42.2335 52.7341 42.2335 53.1794C42.2335 53.4585 42.2736 53.5722 42.4583 53.8147C43.098 54.6552 44.6579 55.4015 46.5661 55.78C49.9393 56.4491 53.8722 55.8622 55.8612 54.3931C56.456 53.9538 56.6982 53.6011 56.6982 53.1744C56.6982 52.7535 56.591 52.5454 56.1753 52.1592C55.3064 51.3519 53.9318 50.7785 52.0586 50.442C51.454 50.3333 50.9217 50.2965 49.7387 50.2812C48.8944 50.2703 48.0961 50.2743 47.9648 50.2901ZM42.1656 57.011C42.1661 57.6828 42.2457 57.9526 42.5477 58.3062C43.7988 59.7709 47.4646 60.6792 50.8645 60.3669C53.4952 60.1252 55.8176 59.1986 56.542 58.1016C56.7062 57.853 56.7314 57.7401 56.7552 57.1468L56.7821 56.4741L56.0658 56.849C54.2826 57.7823 52.2005 58.2121 49.4658 58.2115C46.7349 58.2109 44.8049 57.8168 42.9328 56.8772L42.1652 56.4921L42.1656 57.011Z" fill="white"/>
</svg>
