<svg width="57" height="57" viewBox="0 0 57 57" fill="none" xmlns="http://www.w3.org/2000/svg">
<path fill-rule="evenodd" clip-rule="evenodd" d="M2.07709 0.439031C1.82803 0.549719 1.36954 0.933018 1.05822 1.29046L0.492188 1.94057V21.0088V40.0773L1.23211 40.8674L1.97226 41.6574L11.1377 41.7258L20.3034 41.7939V45.5054C20.3034 50.1405 20.2459 50.256 17.8256 50.4928C16.1107 50.6606 15.3991 51.041 14.5634 52.2356C14.0137 53.0215 13.7743 55.3812 14.19 55.9158C14.4352 56.2314 16.2957 56.2788 28.4544 56.2788C40.613 56.2788 42.4735 56.2314 42.7187 55.9158C42.8996 55.6833 42.9643 55.0823 42.8989 54.2417C42.7146 51.867 41.2266 50.4786 38.8665 50.4786C37.9477 50.4786 37.6051 50.3594 37.1611 49.8853C36.6186 49.3064 36.6053 49.2018 36.6053 45.5351V41.7782H39.608H42.6105L46.2306 45.6704C49.932 49.6504 50.983 50.4634 52.4393 50.4733C53.5893 50.4812 55.1144 49.5931 55.7717 48.5331C56.9219 46.6777 56.6889 44.6513 55.1162 42.83L54.2153 41.7867L54.7499 41.5665C55.0438 41.4452 55.5392 41.0539 55.8505 40.697L56.4165 40.0476V20.9793V1.91084L55.6764 1.1208L54.9362 0.33076L28.7331 0.284117C14.3213 0.258499 2.32614 0.328102 2.07709 0.439031ZM2.46199 2.43334C2.25618 2.65303 2.19029 6.63247 2.19029 18.8647V35.0062L11.958 35.0691C20.9768 35.1273 21.745 35.1645 21.9757 35.5551C22.158 35.8634 22.158 36.0926 21.9757 36.4009C21.745 36.7915 20.9768 36.8287 11.958 36.8869L2.19029 36.9498V38.1074C2.19029 38.744 2.31256 39.3953 2.46199 39.5548C2.66893 39.7757 7.29005 39.8448 21.8791 39.8448H41.0247L41.3265 39.3288C41.6068 38.8498 41.5033 38.6787 39.8715 36.9268C38.1743 35.1046 38.0949 35.0514 37.5299 35.3632C35.0145 36.7502 31.434 37.2412 28.4856 36.6035C23.132 35.4456 19.0853 31.636 17.4441 26.209C16.9681 24.6359 16.8506 23.7639 16.8388 21.7191C16.8121 17.1592 18.0395 13.9729 21.0853 10.696C23.9535 7.60981 27.2073 6.16942 31.2943 6.17642C33.6374 6.18053 35.1524 6.56214 37.3977 7.71349C40.4645 9.28607 42.5473 11.4981 44.0996 14.8313C46.2849 19.5237 46.0028 25.3629 43.3816 29.6915L42.4551 31.2218L44.0538 32.9283C45.3123 34.2715 45.7112 34.5719 45.9288 34.3397C46.0809 34.1773 46.3649 34.0446 46.5598 34.0446C46.7547 34.0446 48.1336 35.3496 49.6241 36.9447C52.1991 39.7005 52.3798 39.8448 53.2544 39.8448C54.4442 39.8448 54.7184 39.5205 54.7184 38.1139V36.9628L52.6481 36.8935C50.9683 36.8369 50.5307 36.7441 50.3285 36.4009C50.1471 36.0933 50.1471 35.8627 50.3285 35.5551C50.5307 35.2119 50.9683 35.1191 52.6481 35.0625L54.7184 34.9932V18.8581C54.7184 6.63102 54.6525 2.65303 54.4467 2.43334C54.0523 2.01234 2.85641 2.01234 2.46199 2.43334ZM3.36765 4.36675C2.69384 5.08598 3.24946 6.01015 4.35549 6.01015C5.07164 6.01015 5.07164 6.01039 5.44251 8.00398C5.64651 9.10071 5.81315 10.6931 5.81315 11.5431C5.81292 12.9596 5.87428 13.1556 6.54877 13.8968C7.38945 14.8207 7.94892 14.9229 8.35601 14.2271C8.60665 13.7989 8.88401 13.7438 10.794 13.7438C12.7041 13.7438 12.9814 13.7989 13.2321 14.2271C13.3876 14.493 13.6924 14.7093 13.909 14.7078C14.3811 14.7049 15.7752 13.2341 15.7752 12.7394C15.7752 11.9165 15.2791 11.8104 11.428 11.8104C7.77526 11.8104 7.62424 11.7913 7.62424 11.327C7.62424 10.8654 7.77526 10.8437 10.9928 10.8437C13.418 10.8437 14.4235 10.7591 14.5838 10.5416C14.7063 10.3755 15.0359 9.23242 15.3167 8.00156C15.7267 6.20301 15.772 5.69307 15.5469 5.40354C15.3171 5.10797 14.5095 5.04345 11.0472 5.04345C7.07269 5.04345 6.81118 5.01541 6.5447 4.56009C6.31488 4.16713 6.0167 4.07674 4.95074 4.07674C4.22938 4.07674 3.51708 4.20725 3.36765 4.36675ZM7.25632 7.73209C7.3342 8.14754 7.39782 8.58255 7.39782 8.6988C7.39782 8.81505 8.71556 8.91027 10.326 8.91027C13.0602 8.91027 13.2626 8.87837 13.3826 8.42691C13.4533 8.16107 13.5687 7.72605 13.6394 7.46021C13.7637 6.99257 13.6598 6.97686 10.4413 6.97686H7.11481L7.25632 7.73209ZM28.2771 8.29375C22.7265 9.72834 18.4921 15.3671 18.4921 21.3242C18.4921 26.5335 21.2788 31.3301 25.6038 33.5646C36.4529 39.1698 47.7464 27.115 42.4952 15.5346C39.9644 9.95383 33.8677 6.84877 28.2771 8.29375ZM28.4797 10.2591C22.739 11.9071 19.1872 18.2518 20.6501 24.2466C22.1648 30.454 28.1 34.2831 33.7656 32.7079C39.1472 31.2117 42.6637 25.6782 41.8875 19.9278C40.9662 13.1004 34.5924 8.50425 28.4797 10.2591ZM29.0471 12.0637C27.6144 12.4479 25.5753 13.7361 24.5854 14.8823C24.0771 15.4711 23.3385 16.6794 22.9446 17.5671C22.2957 19.029 22.228 19.3995 22.228 21.49C22.228 23.6687 22.2755 23.901 23.0736 25.6246C24.092 27.8243 25.403 29.1944 27.5079 30.2587C28.8757 30.9504 29.2262 31.0236 31.1713 31.0236C33.1165 31.0236 33.4669 30.9504 34.8347 30.2587C36.9397 29.1944 38.2506 27.8243 39.269 25.6246C40.0681 23.899 40.1147 23.6706 40.1147 21.4774C40.1147 19.2842 40.0681 19.0558 39.269 17.3303C37.7392 14.0258 35.021 12.0869 31.6805 11.9172C30.7156 11.8681 29.5305 11.9341 29.0471 12.0637ZM25.1034 15.9672C24.7185 16.3781 24.7185 26.5768 25.1034 26.9876C25.4901 27.4004 36.8525 27.4004 37.2392 26.9876C37.6241 26.5768 37.6241 16.3781 37.2392 15.9672C36.8525 15.5544 25.4901 15.5544 25.1034 15.9672ZM4.28259 17.8907C3.90833 18.2902 3.92667 18.935 4.32221 19.2854C4.82395 19.7299 7.18228 19.5174 7.48635 19.0002C7.66703 18.6931 7.66703 18.4616 7.48635 18.1544C7.17481 17.6249 4.72093 17.4228 4.28259 17.8907ZM8.80816 17.8936C8.6551 18.057 8.5299 18.3731 8.5299 18.5962C8.5299 19.4121 9.08054 19.5619 11.8208 19.4916C14.0648 19.4338 14.5206 19.357 14.7309 19.0002C14.9125 18.6924 14.9125 18.4623 14.7309 18.1544C14.5201 17.7969 14.0635 17.7211 11.7839 17.664C9.87865 17.6164 9.00469 17.6838 8.80816 17.8936ZM26.643 21.4774V25.3442H31.1713H35.6996V21.4774V17.6106H34.794H33.8883V19.254C33.8883 20.2101 33.7746 21.0187 33.6166 21.1874C33.2466 21.5823 29.096 21.5823 28.7261 21.1874C28.568 21.0187 28.4544 20.2101 28.4544 19.254V17.6106H27.5487H26.643V21.4774ZM30.2657 18.5773V19.544H31.1713H32.077V18.5773V17.6106H31.1713H30.2657V18.5773ZM4.28259 21.7575C3.90833 22.157 3.92667 22.8018 4.32221 23.1522C4.82395 23.5967 7.18228 23.3843 7.48635 22.8671C7.66703 22.5599 7.66703 22.3284 7.48635 22.0212C7.17481 21.4917 4.72093 21.2896 4.28259 21.7575ZM8.80816 21.7604C8.6551 21.9238 8.5299 22.2399 8.5299 22.463C8.5299 23.2789 9.08054 23.4287 11.8208 23.3584C14.0648 23.3006 14.5206 23.2238 14.7309 22.8671C14.9125 22.5592 14.9125 22.3291 14.7309 22.0212C14.5201 21.6638 14.0635 21.5879 11.7839 21.5308C9.87865 21.4832 9.00469 21.5507 8.80816 21.7604ZM4.55746 26.9043C4.0487 27.4471 4.00161 27.6839 4.00161 29.6944C4.00161 31.7049 4.0487 31.9418 4.55746 32.4846C5.10855 33.0731 5.14817 33.0779 9.43555 33.0779C13.7229 33.0779 13.7626 33.0731 14.3136 32.4846C14.8224 31.9418 14.8695 31.7049 14.8695 29.6944C14.8695 27.6839 14.8224 27.4471 14.3136 26.9043C13.7626 26.3158 13.7229 26.311 9.43555 26.311C5.14817 26.311 5.10855 26.3158 4.55746 26.9043ZM5.81292 29.6944V31.1445H9.43555H13.0582V29.6944V28.2444H9.43555H5.81292V29.6944ZM40.4543 33.3196L39.6619 34.0238L41.3022 35.783L42.9424 37.5421L43.6764 36.7589L44.4102 35.9753L42.8285 34.2955L41.2468 32.6153L40.4543 33.3196ZM44.8676 38.155L43.2931 39.8487L47.0246 43.8508C49.0771 46.052 51.0313 48.0086 51.3675 48.1991C52.3646 48.7634 53.1016 48.6276 53.9486 47.7235C54.7608 46.8566 54.9213 46.0407 54.4678 45.0853C54.2183 44.5599 46.796 36.4614 46.5639 36.4614C46.4969 36.4614 45.7336 37.2234 44.8676 38.155ZM22.1148 45.5085C22.1148 47.5601 22.0154 49.5177 21.894 49.8587L21.6732 50.4786H28.4544H35.2355L35.0147 49.8587C34.8934 49.5177 34.794 47.5601 34.794 45.5085V41.7782H33.9182H33.0422L32.9351 43.5608C32.8081 45.6736 32.2577 46.8008 30.877 47.7759C29.6138 48.6682 27.4027 48.703 26.1184 47.8508C24.7194 46.9223 24.102 45.6931 23.975 43.5838L23.8665 41.7782H22.9905H22.1148V45.5085ZM25.7788 43.3564C25.8617 44.7453 25.9604 45.0278 26.6021 45.7127C27.2272 46.38 27.491 46.4909 28.4544 46.4909C29.4177 46.4909 29.6815 46.38 30.3067 45.7127C30.9483 45.0278 31.047 44.7453 31.1299 43.3564L31.2241 41.7782H28.4544H25.6846L25.7788 43.3564ZM16.331 53.0053C16.0253 53.3316 15.7752 53.7666 15.7752 53.972C15.7752 54.3043 17.1692 54.3454 28.4544 54.3454C39.7395 54.3454 41.1336 54.3043 41.1336 53.972C41.1336 53.7666 40.8834 53.3316 40.5777 53.0053L40.0221 52.412H28.4544H16.8866L16.331 53.0053Z" fill="#1D1D1B"/>
</svg>
