<svg width="57" height="57" viewBox="0 0 57 57" fill="none" xmlns="http://www.w3.org/2000/svg">
<path fill-rule="evenodd" clip-rule="evenodd" d="M20.2359 0.620383C19.8931 0.740436 19.4169 1.04032 19.1778 1.28663C18.2862 2.20439 18.1334 2.9381 18.1334 6.29884V9.52242L11.39 9.59782C4.94205 9.66975 4.61981 9.6958 4.03157 10.1924C3.69341 10.4779 3.29943 11.0918 3.15618 11.5566C2.96519 12.1772 2.89281 16.8248 2.88365 29.0705L2.87144 45.7397L1.50876 45.8134L0.146087 45.8873L0.0843851 48.683C0.00415076 52.3159 0.237441 53.2721 1.55847 54.7283C2.36561 55.6176 2.85967 55.9423 3.72916 56.1546C5.31052 56.5403 50.5791 56.5403 52.1604 56.1544C53.597 55.8039 54.8699 54.5344 55.5599 52.7633C55.9986 51.6385 56.0703 51.0538 56.0703 48.6086C56.0703 47.0437 55.9968 45.7765 55.9068 45.7926C55.817 45.8089 55.1302 45.8089 54.3806 45.7926L53.0179 45.7633L53.0057 29.0824C52.9966 16.8273 52.9242 12.1772 52.7332 11.5566C52.5899 11.0918 52.196 10.4779 51.8578 10.1924C51.2717 9.69754 50.9416 9.66951 44.8508 9.59733L38.4589 9.52167L38.3765 6.10785C38.2873 2.41076 38.1211 1.81 36.9453 0.932918C36.4159 0.538032 35.6038 0.490904 28.6088 0.448737C24.3463 0.423188 20.5784 0.50033 20.2359 0.620383ZM20.3824 2.10939C20.1205 2.22944 19.8015 2.54991 19.6738 2.82152C19.5223 3.14348 19.4416 6.29686 19.4416 11.889V20.4629H28.2597H37.0779L37.0844 12.0277C37.0888 6.47347 37.0103 3.39053 36.8544 3.00135C36.7242 2.67642 36.3787 2.28649 36.0865 2.13494C35.4407 1.80033 21.1078 1.77701 20.3824 2.10939ZM20.0364 4.8912C19.9814 5.06557 20.0248 5.40365 20.1327 5.64227C20.3037 6.02004 20.6739 6.07585 22.9922 6.07263C25.806 6.06866 26.2918 5.93174 26.1647 5.17843C26.093 4.75328 25.8233 4.70591 23.111 4.64315C20.85 4.59082 20.112 4.65035 20.0364 4.8912ZM27.421 4.98644C27.0948 5.95332 27.5965 6.0766 31.8413 6.07263C34.0752 6.07039 36.0351 5.97341 36.1966 5.85683C36.3584 5.74025 36.4552 5.43491 36.4118 5.17843C36.3383 4.74311 36.0412 4.70764 31.9459 4.64514C28.0393 4.58536 27.5435 4.62281 27.421 4.98644ZM20.1327 8.878C19.9468 9.13299 19.9531 9.32349 20.158 9.64222C20.3856 9.99643 20.7378 10.055 22.2801 9.99395C24.0899 9.92251 24.1292 9.90788 24.1292 9.30091C24.1292 8.69296 24.0921 8.67932 22.2548 8.60962C20.8732 8.55728 20.3152 8.62772 20.1327 8.878ZM25.5494 8.92463C25.3288 9.22725 25.3288 9.37458 25.5494 9.6772C25.7836 9.99816 26.5986 10.0441 31.0814 9.98725L36.3388 9.92102V9.30091V8.68081L31.0814 8.61458C26.5986 8.55778 25.7836 8.60366 25.5494 8.92463ZM4.71487 11.6462L4.17961 12.2549V28.8852V45.5153H4.72468H5.26975V29.286C5.26975 14.863 5.3079 13.0136 5.61227 12.6671C5.88372 12.3583 6.48395 12.2757 8.50114 12.2695C10.3941 12.2638 11.1561 12.1683 11.4707 11.8974C11.7971 11.6166 12.6081 11.5333 15.0136 11.5333C16.9482 11.5333 18.1334 11.439 18.1334 11.2853C18.1334 11.1255 15.8408 11.0372 11.6918 11.0372H5.24991L4.71487 11.6462ZM38.41 11.6573V12.2774H44.1723C49.1198 12.2774 49.9827 12.3325 50.2771 12.6671C50.5815 13.0136 50.6196 14.863 50.6196 29.286V45.5153H51.1647H51.7098V28.8852V12.2549L51.1745 11.6462L50.6395 11.0372H44.5246H38.41V11.6573ZM20.1495 12.8115C19.9764 13.0084 19.9653 13.2406 20.1135 13.5556C20.3117 13.9768 20.6689 14.0137 24.5463 14.0137C28.9496 14.0137 29.4502 13.8952 29.1242 12.929C29.005 12.5753 28.4586 12.5255 24.6945 12.5255C21.7426 12.5255 20.3224 12.6148 20.1495 12.8115ZM30.4943 12.684C30.1655 13.058 30.3626 13.7617 30.8336 13.8949C31.1035 13.9713 32.4524 14.0013 33.8314 13.9617L36.3388 13.8897V13.2696V12.6495L33.4922 12.5805C31.9267 12.5428 30.5776 12.5892 30.4943 12.684ZM11.9429 13.414C11.7942 13.8547 11.7572 33.0084 11.9054 32.8397C11.9575 32.7805 12.3962 30.1668 12.8805 27.0316C13.927 20.2538 13.8145 20.4629 16.4134 20.4629H18.1334V16.7422V13.0216H15.1043C12.5434 13.0216 12.0548 13.0821 11.9429 13.414ZM6.72334 13.9311C6.64333 14.0219 6.57792 21.1656 6.57792 29.8059V45.5153H13.4022C18.4192 45.5153 20.2958 45.5941 20.4881 45.8129C20.6403 45.9861 20.7497 46.816 20.7497 47.7973C20.7497 50.5925 20.4373 50.4761 27.9447 50.4761C35.4651 50.4761 35.1396 50.5992 35.1396 47.7563C35.1396 46.3023 35.2063 45.9883 35.5613 45.772C35.8257 45.611 38.4709 45.5153 42.6489 45.5153H49.3147L49.2585 29.7025L49.2024 13.8897L43.8062 13.8235L38.41 13.757V14.5056V15.254H39.9207C41.9824 15.254 42.1165 15.4368 42.1165 18.2481V20.4629H43.274C44.6714 20.4629 45.2441 20.8721 45.2175 21.8522C45.1752 23.4156 42.2759 41.4575 41.9829 41.9806L41.6704 42.5387H26.4401C12.5414 42.5387 11.1838 42.5028 10.9106 42.1287C10.6664 41.7941 10.6005 39.1485 10.5517 27.7422L10.492 13.7657H8.68036C7.68376 13.7657 6.80314 13.8401 6.72334 13.9311ZM20.1495 16.7802C19.9764 16.9771 19.9653 17.2093 20.1135 17.5243C20.3072 17.9358 20.6357 17.9824 23.3471 17.9824C25.7637 17.9824 26.4191 17.9083 26.6365 17.6104C26.853 17.3135 26.853 17.1631 26.6365 16.8662C26.4194 16.5686 25.7677 16.4942 23.3831 16.4942C21.4215 16.4942 20.3148 16.5922 20.1495 16.7802ZM28.0253 16.8608C27.9554 17.0684 27.9554 17.4082 28.0253 17.6158C28.1344 17.9388 28.7453 17.9837 32.2457 17.9259L36.3388 17.8584V17.2383V16.6182L32.2457 16.5507C28.7453 16.4929 28.1344 16.5378 28.0253 16.8608ZM38.41 18.6025V20.4629H39.6092H40.8083V18.6025V16.7422H39.6092H38.41V18.6025ZM14.9506 22.3232C14.9094 22.4596 14.278 26.4779 13.5476 31.2528C12.8172 36.0276 12.1662 40.1853 12.1006 40.4924L11.9813 41.0505H26.4865H40.9917L41.1169 40.3684C41.3488 39.1036 43.8607 22.5916 43.8607 22.3314C43.8607 21.9802 15.0568 21.972 14.9506 22.3232ZM19.7917 26.2299C19.4651 26.8106 17.9132 35.2115 17.9145 36.391C17.9152 36.8022 18.0796 37.1644 18.337 37.3211C18.6067 37.4854 21.7806 37.5779 27.143 37.5779C34.811 37.5779 35.5659 37.5407 35.9779 37.1438C36.3353 36.7995 36.62 35.6389 37.3539 31.5338C38.2531 26.505 38.2677 26.3482 37.8669 26.0148C37.5323 25.7365 35.8205 25.6718 28.7802 25.6718H20.1057L19.7917 26.2299ZM20.7497 27.2421C20.7497 27.2873 20.4064 29.2595 19.9867 31.6248C19.5669 33.9902 19.2236 35.9639 19.2236 36.0107C19.2236 36.0574 22.8247 36.0665 27.2263 36.0306L35.229 35.9656L35.9369 31.9969C36.3263 29.8141 36.6497 27.833 36.6553 27.5941C36.6652 27.1883 36.1454 27.16 28.7078 27.16C24.3309 27.16 20.7497 27.197 20.7497 27.2421ZM21.7634 29.2612C21.6958 29.4619 21.7904 29.7967 21.9738 30.0054C22.2572 30.3278 23.23 30.3846 28.4636 30.3846C34.9205 30.3846 35.618 30.2742 35.2909 29.3044C35.1673 28.938 34.4744 28.8964 28.5198 28.8964C22.8827 28.8964 21.868 28.9512 21.7634 29.2612ZM20.8287 33.2371C20.7596 33.4417 20.7602 33.7783 20.8298 33.985C20.9399 34.3111 21.8266 34.3518 27.5546 34.295C33.8144 34.2328 34.1567 34.2055 34.2315 33.763C34.2749 33.5065 34.1781 33.2011 34.0163 33.0846C33.8548 32.968 30.8495 32.871 27.3383 32.8688C21.8626 32.8655 20.9362 32.9179 20.8287 33.2371ZM0.121014 48.9879C0.121014 50.6932 0.155898 51.3909 0.198414 50.5381C0.241147 49.6856 0.241147 48.2904 0.198414 47.4376C0.155898 46.5851 0.121014 47.2826 0.121014 48.9879ZM1.37991 49.8387C1.46603 52.8355 1.73377 53.4653 3.31186 54.3828L4.27205 54.9409L27.9364 54.9355C50.5429 54.9303 51.6406 54.9094 52.4944 54.4684C52.9859 54.2144 53.6236 53.6308 53.9116 53.1716C54.3662 52.4463 54.4449 52.0021 54.5095 49.794L54.5838 47.2516H45.5158H36.4478V48.3802C36.4478 49.7908 35.9775 50.8519 35.0744 51.4782C34.4238 51.9297 33.94 51.9627 27.9447 51.9627C21.9493 51.9627 21.4655 51.9297 20.8149 51.4782C19.9119 50.8519 19.4416 49.7908 19.4416 48.3802V47.2516H10.3736H1.30556L1.37991 49.8387Z" fill="white"/>
</svg>
