<svg width="57" height="57" viewBox="0 0 57 57" fill="none" xmlns="http://www.w3.org/2000/svg">
<path fill-rule="evenodd" clip-rule="evenodd" d="M21.3519 0.89174C16.5055 2.03351 12.5548 5.66051 10.3019 11.0357C9.01661 14.1026 8.52156 16.5539 8.33611 20.7708L8.18361 24.2375L7.24392 24.4037C5.87617 24.6455 3.82094 25.9465 2.89281 27.1578C2.44904 27.7371 1.82723 28.8617 1.51088 29.6569C1.02281 30.8846 0.936197 31.4521 0.937069 33.4182C0.93816 35.4645 1.01234 35.9065 1.57546 37.2201C2.32751 38.9742 3.92217 40.8211 5.36127 41.604C6.27216 42.0998 6.82938 42.1729 10.2085 42.2397C13.7079 42.3087 14.0849 42.2724 14.7239 41.8024C16.1842 40.7283 16.2084 40.5893 16.2084 33.2808V26.689L15.6086 25.7618C15.2787 25.2517 14.8123 24.7608 14.5723 24.671C14.1697 24.5205 14.1359 24.2838 14.139 21.6308C14.1446 16.5338 15.0198 13.7267 17.5425 10.7141C18.4017 9.68833 19.2426 8.84886 19.4112 8.84886C19.5801 8.84886 19.812 9.22267 19.9268 9.67959C20.0492 10.1666 20.4421 10.7516 20.8769 11.0946C21.6096 11.6719 21.7014 11.6788 28.6445 11.6788C35.5978 11.6788 35.6783 11.6727 36.4092 11.092C36.8152 10.7694 37.2431 10.1615 37.36 9.74133C37.4767 9.32121 37.5956 8.9353 37.624 8.88385C37.7505 8.65539 39.2512 9.98471 40.1594 11.1298C42.2031 13.7061 43.1448 16.9776 43.15 21.5194L43.1533 24.2851L42.2963 25.2956C41.1956 26.5936 41.1391 27.0657 41.2281 34.2021C41.2896 39.1468 41.3492 39.965 41.6924 40.5819C42.2749 41.629 43.3379 42.292 44.4359 42.293L45.3913 42.294L45.2419 43.6447C44.9085 46.6609 43.1603 49.4459 40.7961 50.7263C39.8527 51.2375 39.1013 51.4256 37.6766 51.5074L35.7998 51.6149L35.6628 50.8071C35.3072 48.7101 32.5717 47.5513 32.5717 49.4976C32.5717 50.0703 32.8211 50.3412 33.6176 50.6329C33.9551 50.7567 34.0003 51.0338 33.9449 52.6456L33.8807 54.5144L30.3899 54.5864C26.5742 54.6654 26.1156 54.5422 25.6871 53.3222C25.4846 52.7462 25.4881 52.4138 25.7026 51.8033C26.0837 50.7178 26.5033 50.5267 28.5055 50.5267C29.8002 50.5267 30.338 50.4225 30.5926 50.1225C30.9982 49.644 31.0017 49.6098 30.7095 48.9661C30.513 48.5331 30.2389 48.4685 28.5967 48.4685C25.4371 48.4685 23.9537 49.7837 23.9537 52.5848C23.9537 54.297 24.5576 55.4622 25.8226 56.1905C26.5962 56.6361 27.1618 56.7012 30.2514 56.7012C32.9906 56.7012 33.9383 56.6127 34.4334 56.3109C35.0764 55.9188 35.7352 54.7557 35.7352 54.0127C35.7352 53.6973 36.0064 53.6139 37.0336 53.6139C42.3432 53.6139 46.2669 49.6355 46.9633 43.5462L47.0994 42.3545L49.1228 42.25C51.5009 42.1273 53.0094 41.3866 54.4634 39.6272C55.3446 38.5608 56.4621 36.2639 56.4621 35.5185C56.4621 35.2999 56.5603 35.0493 56.6803 34.9618C56.8003 34.8743 56.8984 34.0503 56.8984 33.1306C56.8984 32.0812 56.8171 31.5175 56.6803 31.6173C56.5603 31.7048 56.4621 31.5563 56.4621 31.2877C56.4621 30.3899 55.1478 27.6839 54.2441 26.7212C53.1277 25.5318 51.3716 24.5689 49.9589 24.3718L48.8767 24.2205L48.7718 20.2007C48.6524 15.6313 48.3252 14.0303 46.7925 10.5211C46.1146 8.969 45.4092 7.88821 43.9234 6.12514C41.7582 3.55603 40.4413 2.55782 37.8079 1.48964C36.2111 0.842087 35.7769 0.780343 32.7065 0.763363C29.7378 0.746897 29.3224 0.796808 29.1077 1.19506C28.9307 1.52308 28.9301 1.76749 29.1048 2.09551C29.3099 2.47987 29.836 2.5694 32.7037 2.70858C36.3531 2.88533 37.0842 3.07005 39.2261 4.35769C42.833 6.52622 45.6881 10.8743 46.736 15.7952C46.9319 16.7149 47.1538 19.0015 47.229 20.8763L47.3658 24.2851H46.1608H44.9556L44.85 20.8763C44.6967 15.9179 43.7565 12.871 41.4425 9.83343C40.1468 8.13236 38.2249 6.66618 36.4371 6.01503C35.1732 5.55477 34.4072 5.5046 28.6761 5.50743C24.0632 5.50949 22.0178 5.60494 21.2265 5.85449C19.3578 6.44415 17.7985 7.56071 16.1866 9.46399C13.5706 12.5525 12.3903 16.3576 12.3903 21.7016V24.2851H11.1576H9.92488L10.0595 20.8763C10.2205 16.7944 10.5975 14.8083 11.7327 12.0647C13.1711 8.58773 15.3093 5.98184 18.0677 4.3438C20.1164 3.12716 21.1058 2.85857 24.1489 2.69289C26.401 2.57043 26.8936 2.47035 27.0932 2.09551C27.2678 1.768 27.2676 1.52257 27.0928 1.19506C26.8917 0.817904 26.4841 0.738407 24.5851 0.704705C23.3378 0.68258 21.883 0.766707 21.3519 0.89174ZM22.5687 7.56276C21.2701 7.8347 21.2018 7.91085 21.4638 8.78969L21.6731 9.49203L28.5406 9.56047C34.8032 9.62273 35.432 9.59006 35.6807 9.18949C36.097 8.5193 36.0071 7.90082 35.4625 7.68703C34.7489 7.40686 23.8164 7.30138 22.5687 7.56276ZM26.4114 20.3082C18.4648 22.8318 16.0118 34.4699 22.0678 40.9176C24.3257 43.3216 27.4862 44.4507 30.3624 43.8806C38.8471 42.1991 42.0063 30.0693 35.7553 23.1745C33.2703 20.4335 29.5805 19.3018 26.4114 20.3082ZM26.4627 22.3129C22.3289 23.9331 19.8138 28.671 20.4836 33.5756C21.4501 40.6526 28.2598 44.2843 33.3783 40.4522C39.0524 36.2044 38.4465 26.1264 32.3182 22.8179C30.8361 22.0178 27.8686 21.7618 26.4627 22.3129ZM25.0025 25.1212C22.7511 27.0196 21.7025 29.6649 22.8628 30.5193C23.1946 30.7637 23.2991 31.1192 23.2991 32.0032C23.2991 32.8872 23.1946 33.2427 22.8628 33.4871C22.3184 33.888 22.2794 35.2307 22.7862 36.1265C23.8522 38.0107 25.7456 39.7213 26.7655 39.7213C27.0016 39.7213 27.3736 39.461 27.5922 39.1425C28.1302 38.3593 29.5724 38.3714 30.245 39.1646C30.8293 39.8536 31.1581 39.8602 32.2472 39.205C33.3436 38.5456 34.52 37.1584 35.0792 35.8656C35.6373 34.5759 35.6297 34.1941 35.0321 33.4895C34.3505 32.6857 34.3579 31.0788 35.0471 30.2656C35.4396 29.8025 35.5245 29.5005 35.4115 28.9697C35.0155 27.1094 32.4539 24.2851 31.1627 24.2851C30.8348 24.2851 30.3888 24.5166 30.1717 24.7996C29.8966 25.1583 29.4997 25.3142 28.8627 25.3142C28.2256 25.3142 27.8287 25.1583 27.5536 24.7996C26.9844 24.0579 26.1368 24.1647 25.0025 25.1212ZM5.88773 27.1305C3.70508 28.4166 2.56751 30.6103 2.57711 33.5149C2.5854 36.0071 3.81395 38.3478 5.73588 39.5327C6.36139 39.9184 7.14923 40.1031 8.51764 40.1847L10.4267 40.2989V33.3209V26.3433H8.82527C7.4754 26.3433 7.01374 26.467 5.88773 27.1305ZM12.1721 33.2896V40.2359H13.0324C14.5127 40.2359 14.5721 39.9686 14.5721 33.2896C14.5721 26.6106 14.5127 26.3433 13.0324 26.3433H12.1721V33.2896ZM31.2637 26.8537C31.1869 27.139 31.0571 27.3811 30.9753 27.3921C30.8932 27.403 29.9546 27.4354 28.8891 27.4642C27.2379 27.5089 26.9161 27.449 26.7095 27.0585C26.5759 26.8066 26.3678 26.6046 26.2465 26.6098C25.9147 26.6237 24.9359 27.6661 24.5039 28.4657C24.1697 29.0842 24.1642 29.1732 24.4612 29.1732C24.9905 29.1732 25.0823 29.5558 25.1194 31.9129C25.1565 34.2847 25.141 34.3588 24.5229 34.757C24.1407 35.0035 24.1788 35.1108 25.0415 36.2145C26.0656 37.5245 26.2808 37.6217 26.6918 36.959C26.917 36.5957 27.3415 36.5062 28.9613 36.4807C30.7187 36.453 30.9895 36.5096 31.2569 36.96C31.5589 37.4684 31.5628 37.4681 32.1336 36.9389C32.4488 36.6467 32.9085 36.1046 33.1553 35.7347C33.5912 35.0812 33.5925 35.0521 33.197 34.7112C32.8523 34.4141 32.7853 33.9783 32.7595 31.8638C32.7325 29.6162 32.7704 29.3546 33.1413 29.2404C33.368 29.1704 33.5535 29.0266 33.5535 28.9206C33.5535 28.5854 32.686 27.4117 32.0326 26.8632L31.4033 26.3348L31.2637 26.8537ZM43.2748 26.9152C42.9916 27.3916 42.9351 28.4539 42.9351 33.2896C42.9351 39.9686 42.9944 40.2359 44.4748 40.2359H45.335V33.2896V26.3433H44.4748C43.8329 26.3433 43.5281 26.4886 43.2748 26.9152ZM47.0805 33.3209V40.2989L48.9895 40.1847C50.3579 40.1031 51.1458 39.9184 51.7713 39.5327C53.6932 38.3478 54.9218 36.0071 54.93 33.5149C54.9396 30.6103 53.8021 28.4166 51.6194 27.1305C50.4934 26.467 50.0317 26.3433 48.6819 26.3433H47.0805V33.3209ZM27.2471 29.5782C26.8801 29.9422 26.4701 30.6713 26.3362 31.1985C25.8475 33.1218 27.2082 35.0874 29.0296 35.0894C30.8319 35.0915 32.1331 32.4447 31.2829 30.5059C30.5592 28.8555 28.4614 28.3731 27.2471 29.5782ZM28.2419 31.1874C27.5961 32.0287 27.9339 33.0323 28.8627 33.0323C29.8211 33.0323 30.24 31.499 29.4225 30.9831C28.8382 30.6145 28.6576 30.6458 28.2419 31.1874ZM0.898452 33.4182C0.899543 34.4087 0.938815 34.7822 0.986159 34.2487C1.03329 33.7148 1.03263 32.9044 0.984414 32.4478C0.936197 31.9909 0.897579 32.4277 0.898452 33.4182Z" fill="#1D1D1B"/>
</svg>
