<svg width="57" height="57" viewBox="0 0 57 57" fill="none" xmlns="http://www.w3.org/2000/svg">
<path fill-rule="evenodd" clip-rule="evenodd" d="M2.22634 0.815242C1.80724 1.0975 1.23324 1.6715 0.950984 2.0906L0.4375 2.85247V21.076V39.2994L0.950984 40.0613C1.23324 40.4804 1.80724 41.0544 2.22634 41.3367C2.98753 41.8497 2.99634 41.8501 12.1 41.8501H21.2117V45.463V49.076H17.0677C13.1312 49.076 12.8855 49.1017 12.1618 49.5894C10.6805 50.5875 10.373 51.3399 10.373 53.9642V56.3018H28.4375H46.502V53.9642C46.502 51.3399 46.1945 50.5875 44.7132 49.5894C43.9895 49.1017 43.7438 49.076 39.8073 49.076H35.6633V45.463V41.8501H44.775C53.8787 41.8501 53.8875 41.8497 54.6487 41.3367C55.0678 41.0544 55.6418 40.4804 55.924 40.0613L56.4375 39.2994V21.076V2.85247L55.924 2.0906C55.6418 1.6715 55.0678 1.0975 54.6487 0.815242L53.8868 0.301758H28.4375H2.98821L2.22634 0.815242ZM3.22937 2.3724C2.96405 2.50066 2.63392 2.85427 2.4955 3.15798C2.14076 3.93656 2.14008 38.2135 2.4946 38.9921C2.63256 39.2947 2.99295 39.6551 3.29553 39.793C4.07569 40.1485 52.7993 40.1485 53.5795 39.793C53.882 39.6551 54.2424 39.2947 54.3804 38.9921C54.7342 38.2153 54.7342 3.93656 54.3804 3.15979C54.2424 2.85721 53.882 2.49682 53.5795 2.35885C52.8336 2.01902 3.93185 2.03211 3.22937 2.3724ZM4.95363 4.81789V5.72111H28.4375H51.9214V4.81789V3.91466H28.4375H4.95363V4.81789ZM17.0695 7.88456C12.3942 9.01653 8.21631 13.2335 7.10669 17.9404C5.66289 24.0656 8.6896 30.4467 14.3246 33.1573C16.6615 34.2813 18.0856 34.6257 20.376 34.6209C24.0275 34.6135 27.1154 33.288 29.8522 30.5533C32.537 27.8707 33.8611 24.7119 33.8535 21.0084C33.841 14.8839 29.3979 9.27756 23.444 7.87418C21.6658 7.45508 18.8249 7.4596 17.0695 7.88456ZM18.1633 9.56479C13.1594 10.5692 9.5454 14.3943 8.72798 19.5518C8.10182 23.5013 9.99295 27.9883 13.3139 30.4331C17.5087 33.5213 23.1082 33.5213 27.303 30.4331C29.8838 28.5332 31.4455 25.7612 31.8953 22.2813C32.106 20.653 32.0777 20.2116 31.6532 18.4925C31.0587 16.0843 30.0857 14.3354 28.442 12.7211C26.8817 11.1886 25.3821 10.3614 23.1119 9.78066C21.3079 9.31934 19.7293 9.25047 18.1633 9.56479ZM13.0827 21.076V28.3018H20.3085H27.5343V21.076V13.8501H20.3085H13.0827V21.076ZM37.4698 14.7534V15.6566H38.373H39.2762V14.7534V13.8501H38.373H37.4698V14.7534ZM41.0827 14.7534V15.6566H45.5988H50.1149V14.7534V13.8501H45.5988H41.0827V14.7534ZM14.8891 21.076V26.4953H20.3085H25.7278V21.076V15.6566H24.373H23.0181V18.3663V21.076H20.3085H17.5988V18.3663V15.6566H16.244H14.8891V21.076ZM19.4052 17.463V19.2695H20.3085H21.2117V17.463V15.6566H20.3085H19.4052V17.463ZM37.4698 19.2695V20.1727H38.373H39.2762V19.2695V18.3663H38.373H37.4698V19.2695ZM41.0827 19.2695V20.1727H45.5988H50.1149V19.2695V18.3663H45.5988H41.0827V19.2695ZM37.4698 26.0437V29.205H43.7923H50.1149V26.0437V22.8824H43.7923H37.4698V26.0437ZM22.1149 25.1405C22.1149 25.4415 22.2655 25.5921 22.5665 25.5921C22.8675 25.5921 23.0181 25.4415 23.0181 25.1405C23.0181 24.8395 22.8675 24.6889 22.5665 24.6889C22.2655 24.6889 22.1149 24.8395 22.1149 25.1405ZM23.9214 25.1405C23.9214 25.4415 24.072 25.5921 24.373 25.5921C24.674 25.5921 24.8246 25.4415 24.8246 25.1405C24.8246 24.8395 24.674 24.6889 24.373 24.6889C24.072 24.6889 23.9214 24.8395 23.9214 25.1405ZM39.2762 26.0437V27.3985H43.7923H48.3085V26.0437V24.6889H43.7923H39.2762V26.0437ZM4.95363 37.334V38.2372H28.4375H51.9214V37.334V36.4308H28.4375H4.95363V37.334ZM23.0181 45.463V49.076H28.4375H33.8569V45.463V41.8501H28.4375H23.0181V45.463ZM13.1649 51.1466C12.5202 51.4587 12.1794 52.2689 12.1794 53.4898V54.4953H28.4375H44.6956V53.4898C44.6956 52.2273 44.351 51.4553 43.644 51.133C42.9033 50.7957 13.863 50.8086 13.1649 51.1466Z" fill="white"/>
</svg>
