<svg width="100" height="100" viewBox="0 0 100 100" fill="none" xmlns="http://www.w3.org/2000/svg">
<circle cx="50" cy="50" r="50" fill="#4457FF"/>
<path fill-rule="evenodd" clip-rule="evenodd" d="M38.4971 32.1319C37.8 32.3916 37.0769 33.1226 36.891 33.7555C36.7495 34.2376 36.7047 34.2688 36.0395 34.3485C34.2962 34.5577 33.0681 35.4056 32.3898 36.8687L32 37.7095V50.6568V63.604L32.3898 64.4449C32.8464 65.4297 33.7602 66.3176 34.7017 66.6911C35.3058 66.9307 36.2004 66.9473 50.4491 66.9829C66.9405 67.0241 66.2141 67.0577 66.7443 66.2321C66.9817 65.8627 66.994 65.1595 67 51.7072C67.0034 43.9319 66.8499 61.0967 66.9231 52.3668L66.4604 51.8945C66.1335 51.561 65.8737 51.4225 65.5748 51.4225H65.1519V49.6731C65.1519 47.1212 64.9442 46.8362 63.0813 46.8313L61.8974 46.8283L61.8535 42.2689L61.8094 37.7095L61.4529 36.9438C60.7618 35.4591 59.4732 34.5402 57.8309 34.3608C57.2172 34.2937 56.9662 34.2088 56.9662 34.0682C56.9662 33.7001 56.4292 32.7927 56.0471 32.5151C55.4389 32.073 54.6019 31.8961 53.957 32.0733C53.2054 32.2799 52.3663 33.0779 52.1872 33.7569L52.0442 34.2987H46.88H41.7158L41.6245 33.9159C41.2915 32.5196 39.7767 31.6555 38.4971 32.1319ZM38.7152 33.8194C38.4458 34.0118 38.4119 34.1577 38.4119 35.1204C38.4119 36.3229 38.6011 36.6654 39.2655 36.6654C39.8857 36.6654 40.049 36.3459 40.049 35.1319C40.049 34.1573 40.0155 34.0121 39.7457 33.8194C39.3628 33.5455 39.0981 33.5455 38.7152 33.8194ZM53.9952 33.8194C53.7259 34.0118 53.6919 34.1577 53.6919 35.1204C53.6919 35.994 53.7403 36.2494 53.9414 36.435C54.2474 36.7176 54.778 36.7322 55.1324 36.4679C55.5162 36.1813 55.5198 34.327 55.1373 33.8957C54.8292 33.5482 54.4133 33.5203 53.9952 33.8194ZM35.3819 36.1069C34.1713 36.4793 33.6118 37.4353 33.5272 39.2757L33.4678 40.5635H46.8542H60.2405V39.3757C60.2405 37.6263 59.813 36.7701 58.6715 36.2324C58.3714 36.0911 57.8718 35.974 57.5611 35.9724C57.0225 35.9695 56.9924 35.9919 56.9064 36.4595C56.7263 37.439 55.5982 38.3391 54.5581 38.333C53.4452 38.3264 52.489 37.5957 52.1695 36.5074L52.0115 35.9693H46.866H41.7203L41.6339 36.4101C41.5863 36.6526 41.3909 37.0604 41.1997 37.3164C39.9684 38.9636 37.4731 38.4951 36.8895 36.5074C36.7431 36.0087 36.6956 35.9702 36.2416 35.9813C35.972 35.9878 35.5852 36.0444 35.3819 36.1069ZM32.0652 50.6568C32.0652 57.8543 32.0817 60.7783 32.102 57.1546C32.1222 53.5309 32.1222 47.642 32.102 44.0682C32.0817 40.4943 32.0652 43.4592 32.0652 50.6568ZM33.5313 52.7102L33.5687 63.3256L33.8783 63.9171C34.0486 64.2424 34.4432 64.681 34.755 64.8916L35.322 65.2746L44.0977 65.3133L52.8733 65.352V63.8167V62.2814H52.4662C52.2093 62.2814 51.8947 62.1316 51.6135 61.8755L51.168 61.4696L51.1291 59.3347C51.0937 57.3949 51.1154 57.1586 51.3658 56.7475C51.5682 56.4154 51.8051 56.2504 52.2573 56.127L52.8733 55.9589V54.5323V53.1057L52.4 53.0151C51.8729 52.9142 51.2708 52.3775 51.1546 51.905C51.1127 51.7349 51.0986 50.7056 51.1232 49.6179L51.168 47.6401L51.6135 47.2341L52.0591 46.8283H56.1498H60.2405V44.4616V42.0949H46.8672H33.4939L33.5313 52.7102ZM37.26 44.0332C36.9244 44.1048 36.5781 44.3126 36.3391 44.5855C35.9645 45.0133 35.9562 45.0591 35.9562 46.6962C35.9562 49.1941 36.2237 49.4734 38.6165 49.4734C40.9647 49.4734 41.2769 49.1549 41.2769 46.7587C41.2769 44.4621 40.9455 44.0595 38.982 43.9714C38.3308 43.9422 37.5559 43.97 37.26 44.0332ZM44.8922 43.9895C43.5747 44.3278 43.3233 44.7706 43.3233 46.7537C43.3233 49.1539 43.6481 49.4734 46.0886 49.4734C47.486 49.4734 47.6922 49.4414 48.0282 49.1716C48.5919 48.7191 48.7805 48.1064 48.7802 46.7283C48.7799 44.6036 48.2864 44.0372 46.3726 43.965C45.7085 43.9399 45.0423 43.9509 44.8922 43.9895ZM37.4569 46.7587V47.942H38.6165H39.7762V46.7587V45.5753H38.6165H37.4569V46.7587ZM44.824 46.7587V47.9529L46.0178 47.9126L47.2115 47.8724V46.7587V45.6449L46.0178 45.6047L44.824 45.5645V46.7587ZM52.7369 49.8911V51.4225H58.1258H63.5147V49.8911V48.3597H58.1258H52.7369V49.8911ZM36.9678 51.0634C36.111 51.4442 35.9562 51.8343 35.9562 53.6125C35.9562 56.07 36.2997 56.4343 38.6165 56.4343C40.9333 56.4343 41.2769 56.07 41.2769 53.6125C41.2769 51.8196 41.12 51.4348 40.2351 51.0576C39.6519 50.8089 37.5322 50.8127 36.9678 51.0634ZM44.3151 51.072C44.0727 51.1795 43.7479 51.4747 43.5932 51.7278C43.3436 52.1365 43.3165 52.3716 43.3518 53.8217L43.3915 55.4552L43.8371 55.91L44.2828 56.3647L45.8835 56.4052C47.3051 56.4412 47.535 56.4137 47.936 56.1585C48.5682 55.7564 48.7805 55.138 48.7805 53.6984C48.7805 52.2022 48.4856 51.4568 47.7527 51.1002C47.1383 50.8013 44.9656 50.7834 44.3151 51.072ZM37.5531 52.4844C37.5001 52.5384 37.4569 53.1046 37.4569 53.7428V54.9029H38.6218H39.7868L39.7474 53.6847L39.7079 52.4666L38.6786 52.4265C38.1124 52.4044 37.606 52.4305 37.5531 52.4844ZM44.9201 52.4847C44.8673 52.5386 44.824 53.1071 44.824 53.7482V54.9138L46.0178 54.8735L47.2115 54.8333V53.6499V52.4666L46.1138 52.4266C45.51 52.4046 44.9729 52.4307 44.9201 52.4847ZM54.5105 54.5549V56.0166H59.9676H65.4248V54.5549V53.0931H59.9676H54.5105V54.5549ZM66.5399 57.1382C66.3226 57.4188 66.0537 57.5757 65.6872 57.6355L65.1519 57.7229V59.2365V60.75H65.6399C65.9973 60.75 66.2346 60.8589 66.5267 61.157L66.9255 61.5639C66.9255 60.2298 66.9101 56.7162 66.8914 56.7204C66.8727 56.7247 66.7144 56.9126 66.5399 57.1382ZM52.7369 59.2186V60.75H58.1258H63.5147V59.2186V57.6872H58.1258H52.7369V59.2186ZM36.836 58.0363C36.106 58.4147 35.9562 58.8596 35.9562 60.6483C35.9562 62.4411 36.1131 62.8259 36.9979 63.2032C37.5896 63.4554 39.6434 63.4554 40.2351 63.2032C41.1271 62.823 41.2769 62.4471 41.2769 60.5899V58.9362L40.8102 58.416L40.3434 57.8961L38.7978 57.8583C37.6144 57.8294 37.1547 57.8712 36.836 58.0363ZM44.1299 58.1439C43.442 58.6169 43.3275 58.9683 43.3258 60.6108C43.3233 63.0087 43.7992 63.455 46.2696 63.3723C47.5381 63.3299 47.702 63.2933 48.0371 62.9775C48.6045 62.4428 48.7805 61.8636 48.7805 60.5319C48.7805 59.1371 48.5483 58.4896 47.9046 58.089C47.5634 57.8767 47.2123 57.8274 46.038 57.827C44.7577 57.8265 44.5385 57.8629 44.1299 58.1439ZM37.4569 60.6164V61.875L38.5824 61.8345L39.7079 61.7942L39.7474 60.576L39.7868 59.3579H38.6218H37.4569V60.6164ZM44.8527 60.5704L44.8922 61.7942H46.0519H47.2115V60.6108V59.4275L46.0123 59.3871L44.8132 59.3469L44.8527 60.5704ZM54.5105 63.8128V65.3442H59.9676H65.4248V63.8128V62.2814H59.9676H54.5105V63.8128Z" fill="white"/>
</svg>
