<svg width="100" height="100" viewBox="0 0 100 100" fill="none" xmlns="http://www.w3.org/2000/svg">
<circle cx="50" cy="50" r="50" fill="#5F56AF"/>
<path fill-rule="evenodd" clip-rule="evenodd" d="M47.2506 32.0369C43.264 32.3897 39.6151 34.0957 36.843 36.9027C34.1224 39.6576 32.487 43.1234 32.0547 47.0502C31.945 48.0463 32.0089 50.4993 32.1694 51.4516C33.4494 59.051 39.4602 64.7389 46.9932 65.479C48.6626 65.643 51.2326 65.4525 51.7954 65.1231C52.123 64.9314 52.3054 64.5499 52.2645 64.1423C52.224 63.7402 52.0344 63.4668 51.6679 63.2823C51.4084 63.1517 51.3313 63.1479 50.6429 63.2322C50.2335 63.2823 49.8241 63.3381 49.7331 63.3562C49.5698 63.3887 49.5676 63.3786 49.5676 62.5972C49.5676 62.0245 49.5348 61.7354 49.4495 61.5528C49.2832 61.1975 48.935 60.9996 48.4765 60.9996C48.1626 60.9996 48.0596 61.037 47.8434 61.2295C47.521 61.5165 47.4355 61.8211 47.4349 62.6829L47.4345 63.3593L46.9012 63.2985C41.5877 62.6913 37.0225 59.1174 35.0567 54.0259C34.6324 52.9269 34.3601 51.7803 34.16 50.2503L34.115 49.9058L34.9088 49.8716C35.807 49.833 36.1015 49.7232 36.3307 49.342C36.625 48.8526 36.4404 48.1234 35.9554 47.8597C35.7572 47.7519 35.5394 47.7234 34.913 47.7234C34.4775 47.7234 34.1218 47.6982 34.1226 47.6674C34.1315 47.32 34.3726 45.8623 34.5162 45.2878C35.5755 41.0499 38.3278 37.5866 42.1596 35.6701C43.6275 34.9359 45.4599 34.3881 46.9024 34.2521L47.4345 34.202L47.4349 34.8653C47.4355 35.7107 47.5225 36.02 47.8393 36.302C48.2026 36.6255 48.5275 36.6688 48.9552 36.4505C49.4617 36.192 49.5676 35.9375 49.5676 34.9781V34.2016L50.1114 34.2482C50.4105 34.2738 51.0373 34.3768 51.5044 34.4772C55.8641 35.4135 59.5295 38.3394 61.4843 42.4437C62.1953 43.9367 62.6876 45.6624 62.8467 47.2199L62.8981 47.7234H62.0913C61.375 47.7234 61.2565 47.7424 61.0346 47.8927C60.5463 48.2234 60.3941 48.8456 60.6927 49.2904C61.0111 49.7649 61.1759 49.8343 62.0728 49.8717L62.8871 49.9058L62.8421 50.5114C62.7857 51.2722 62.9096 51.5547 63.4126 51.8116C63.8202 52.0198 64.1729 51.9806 64.5144 51.6892C64.8479 51.4047 64.9227 51.1442 65.0146 49.9483C65.1116 48.6864 65.029 47.1227 64.7967 45.8215C63.4708 38.3936 57.4035 32.7493 50.0089 32.0647C49.2151 31.9912 47.9155 31.9781 47.2506 32.0369ZM47.9717 40.6345C47.4525 40.9555 47.4738 40.7828 47.4488 44.8858C47.4364 46.9182 47.4473 48.7322 47.473 48.9168C47.5176 49.2376 47.6107 49.345 49.5897 51.3591C51.7504 53.5581 51.902 53.6779 52.4021 53.5827C52.9445 53.4796 53.2921 52.9695 53.2259 52.3736C53.1886 52.0382 53.1403 51.9812 51.3776 50.1928L49.5676 48.3562V44.8242C49.5676 41.3773 49.5638 41.2853 49.4136 41.0141C49.3288 40.8613 49.1665 40.6805 49.0528 40.6124C48.7725 40.4445 48.2622 40.4549 47.9717 40.6345ZM58.747 53.7995C56.9051 54.0666 55.3011 54.7722 54.7227 55.5696C54.2665 56.1987 54.2679 56.1823 54.291 60.4858L54.3118 64.3932L54.4946 64.7559C54.9958 65.751 56.3628 66.481 58.4384 66.8618C59.4209 67.042 61.8049 67.047 62.8083 66.8709C64.9413 66.4966 66.3462 65.7393 66.8192 64.7093L66.9985 64.3186L66.9993 60.3243L67 56.33L66.8104 55.9441C66.3483 55.004 65.1108 54.3047 63.2075 53.9081C62.2415 53.7068 59.7964 53.6473 58.747 53.7995ZM58.7561 55.9593C58.4495 56.0142 58.0044 56.1162 57.7669 56.1862C57.2693 56.3329 56.4817 56.7191 56.4817 56.8165C56.4817 57.0396 57.7335 57.5086 58.7887 57.6808C59.6224 57.8168 61.472 57.8345 62.3211 57.7145C63.4538 57.5543 64.7566 57.0777 64.7566 56.8234C64.7566 56.663 64.0163 56.3203 63.197 56.1014C62.5507 55.9288 62.3133 55.9064 60.895 55.8843C59.8025 55.8673 59.1412 55.8905 58.7561 55.9593ZM56.4082 59.8244V60.3821L56.8492 60.6205C57.8624 61.1681 59.9107 61.4672 61.6004 61.3144C62.7622 61.2093 63.8506 60.9381 64.452 60.6038L64.9037 60.3528L64.9253 59.8185C64.9372 59.5246 64.9206 59.2846 64.8885 59.2851C64.8564 59.2856 64.5787 59.3675 64.2713 59.4671C63.3655 59.7604 62.4851 59.8905 61.1123 59.9339C59.3565 59.9894 58.0578 59.8142 56.5736 59.3216C56.412 59.268 56.4082 59.2795 56.4082 59.8244ZM56.4235 63.3674L56.4449 63.945L56.921 64.1855C57.8861 64.6729 59.4688 64.9213 61.1524 64.8498C62.7505 64.7819 63.8729 64.5236 64.5991 64.0567L64.9405 63.8371V63.3054C64.9405 62.8295 64.9269 62.779 64.8118 62.8243C64.0164 63.1366 62.5483 63.4159 61.2627 63.4993C59.9664 63.5833 57.9651 63.3296 56.883 62.944C56.6448 62.8591 56.4392 62.7896 56.426 62.7896C56.4128 62.7896 56.4116 63.0496 56.4235 63.3674Z" fill="white"/>
</svg>
