<svg width="57" height="56" viewBox="0 0 57 56" fill="none" xmlns="http://www.w3.org/2000/svg">
<path fill-rule="evenodd" clip-rule="evenodd" d="M44.8581 0.34147C44.6063 0.548279 44.3955 1.14969 44.3236 1.86675C44.2155 2.94221 44.1167 3.10084 43.2454 3.59833C42.7177 3.89968 42.0037 4.35081 41.6583 4.60112C41.0648 5.03114 40.9851 5.03167 40.2009 4.6118C38.8219 3.87312 38.5689 3.99944 37.5422 5.94069C37.0261 6.91613 36.604 7.84807 36.604 8.01217C36.604 8.17626 37.0215 8.68703 37.5317 9.14753C38.3231 9.86173 38.4594 10.1316 38.4594 10.983V11.9814H33.3349C29.032 11.9814 28.1087 12.0489 27.5758 12.4023C26.3209 13.235 26.2891 13.422 26.2114 20.4806L26.139 27.0261L25.0135 26.5458C24.3945 26.2817 23.1964 25.9861 22.3513 25.8887L20.8146 25.7118L21.2606 25.163C22.0124 24.2378 22.3935 23.1468 22.8172 20.7046C23.0498 19.364 23.5533 17.6192 23.9945 16.6231C24.911 14.5548 25.7046 11.4909 25.7016 10.0331C25.6986 8.64692 24.6262 6.56633 23.4374 5.64115C21.4978 4.13176 19.6487 4.12394 18.0937 5.61875C17.1841 6.49313 17.1212 6.51163 15.0652 6.51163C12.4881 6.51163 10.7733 7.15315 9.31542 8.66229C8.0911 9.92971 7.75412 11.1398 7.90116 13.7393C7.98117 15.152 8.18735 16.0371 8.72124 17.2556C9.11365 18.151 9.61112 19.8214 9.82681 20.9674C10.2368 23.147 10.8064 24.6741 11.4236 25.2492C12.0512 25.8345 11.8366 25.9845 10.2229 26.0895C7.43082 26.271 5.14338 28.0453 3.94712 30.9568C3.3919 32.3081 3.33485 32.7728 3.24765 36.6605L3.15279 40.893H2.14463C1.01888 40.893 0.515838 41.4575 0.91915 42.2672C1.10654 42.6428 1.50104 42.7163 3.33485 42.7163H5.52651V47.825C5.52651 52.5947 5.56014 53.001 6.03303 53.946C6.35586 54.5909 6.8872 55.147 7.49785 55.4791C8.37637 55.9568 8.92997 56 14.1642 56C19.0443 56 19.9254 55.9406 20.2371 55.5908C20.6682 55.1063 20.6719 55.0717 20.3614 54.42C20.1339 53.9426 19.8182 53.9163 14.3161 53.9163C10.973 53.9163 8.33114 53.8082 8.0867 53.6613C7.33852 53.2115 7.14996 51.9185 7.14996 47.2356V42.7163H28.7368H50.3236L50.2475 47.6886C50.1731 52.5514 50.1594 52.6718 49.6239 53.1583C49.0995 53.6347 48.5269 53.6558 36.0992 53.6558C27.5974 53.6558 22.9673 53.7488 22.6734 53.9254C22.1678 54.2294 22.0853 54.9576 22.5032 55.427C22.7133 55.663 26.0266 55.7385 36.0126 55.7354L49.2438 55.7309L50.1474 55.1493C51.7553 54.114 51.9109 53.4599 51.9109 47.7344V42.7163H53.8822C55.5368 42.7163 55.9273 42.6334 56.3121 42.2013C56.8186 41.6325 56.7256 41.0173 56.0734 40.6253C55.8417 40.4859 53.8711 40.3721 51.6943 40.3721H47.7363V38.6882C47.7363 36.6873 47.5176 36.4651 45.5483 36.4651H44.2575V35.4233V34.3814H48.4212C54.5859 34.3814 54.5344 34.433 54.6524 28.1302C54.7452 23.1764 54.5852 22.3195 53.5923 22.4479L52.9545 22.5302L52.8386 27.2939C52.7449 31.1438 52.6558 32.1047 52.3747 32.3037C52.1834 32.4394 50.2789 32.5519 48.1422 32.5542L44.2575 32.5581V30.4486C44.2575 29.051 44.1318 28.0417 43.885 27.4575C42.8465 24.9997 39.459 24.8723 38.0781 27.2392C37.7943 27.7257 37.6421 28.6324 37.5735 30.247L37.4749 32.5581H33.3135C30.8883 32.5581 28.9648 32.4456 28.7034 32.2886C28.2734 32.0302 28.2549 31.6525 28.2549 23.2041C28.2549 16.0353 28.3145 14.3337 28.5742 14.0917C28.7971 13.8841 30.3595 13.8153 33.7345 13.8643L38.5754 13.9349L37.7177 14.534C36.4827 15.3961 36.4324 15.8936 37.3988 17.6804C38.6004 19.9016 38.7055 19.9665 40.0752 19.3273C41.1817 18.8108 41.242 18.8082 41.7546 19.257C42.047 19.513 42.7006 19.96 43.2071 20.2499C44.0395 20.7265 44.1512 20.9122 44.3667 22.1747L44.6054 23.5721L46.5412 23.6481C47.6672 23.6924 48.6009 23.6088 48.773 23.4484C48.936 23.2965 49.138 22.5883 49.2225 21.8746C49.3215 21.0357 49.4878 20.5767 49.6923 20.5767C49.8665 20.5767 50.5423 20.1735 51.1943 19.681L52.3794 18.785L53.3989 19.2916C53.9595 19.57 54.5866 19.7253 54.7923 19.6367C55.2527 19.4383 56.7812 16.5635 56.7812 15.8962C56.7812 15.6295 56.39 15.0632 55.9115 14.6376L55.0418 13.864L55.0571 11.8723L55.0725 9.88074L55.9268 9.22854C56.9719 8.43099 56.9939 7.96893 56.0739 6.13812C55.0305 4.06143 54.8969 3.98225 53.4031 4.55241C52.2664 4.98634 52.1064 4.99364 51.7383 4.63029C51.5143 4.40915 50.9009 3.98538 50.3751 3.68871C49.4428 3.16231 49.138 2.60361 49.1311 1.40781C49.1253 0.424558 48.4154 0 46.7766 0C45.9032 0 45.0996 0.142996 44.8581 0.34147ZM46.0045 2.13139C45.9463 2.31996 45.8686 2.88439 45.832 3.38579C45.7705 4.2211 45.643 4.36514 44.2985 5.11632C43.4919 5.56692 42.5981 6.1824 42.3121 6.48402C41.6954 7.13492 41.3434 7.16201 40.239 6.64394C39.4502 6.27382 39.3936 6.28294 39.0506 6.83304C38.7073 7.3834 38.7349 7.45659 39.6371 8.38281C40.4071 9.17332 40.5527 9.46608 40.4164 9.94873C40.2 10.7142 40.2 12.9881 40.4164 13.7536C40.553 14.2375 40.405 14.5313 39.6156 15.3419C38.7238 16.2569 38.6716 16.3814 38.959 16.905C39.2763 17.4827 39.4189 17.4835 40.6747 16.9149C41.3327 16.6172 41.4584 16.6593 42.4573 17.516C43.0485 18.0226 43.9991 18.6376 44.5696 18.8822C45.6355 19.3395 45.8714 19.7508 45.8777 21.1628C45.8805 21.7783 45.9753 21.8791 46.5516 21.8791C47.1665 21.8791 47.2388 21.7783 47.4213 20.6697C47.5308 20.0045 47.7769 19.369 47.9682 19.2577C48.1596 19.1465 48.7857 18.8012 49.3597 18.4904C49.9338 18.1797 50.6928 17.6184 51.0467 17.2428C51.6439 16.6093 51.7439 16.5846 52.4383 16.8979C53.8187 17.5207 53.9481 17.5217 54.2373 16.9151C54.4862 16.3926 54.4298 16.2436 53.7113 15.5232L52.9065 14.7163L52.9307 11.9059L52.9545 9.09544L53.8335 8.25935C54.6759 7.45816 54.697 7.39903 54.3435 6.83929C53.9915 6.28242 53.936 6.2733 53.1463 6.64394C52.0266 7.1693 51.5987 7.13388 51.0771 6.4723C50.8341 6.16417 49.985 5.57786 49.1902 5.16945C47.7307 4.41983 47.6178 4.25287 47.4534 2.60465C47.404 2.11003 47.2349 1.93369 46.7492 1.87092C46.3726 1.82221 46.0667 1.92927 46.0045 2.13139ZM18.9905 7.48837L18.2732 8.46512H15.4368C12.9494 8.46512 12.4814 8.53648 11.6365 9.04387C11.1063 9.36216 10.4593 9.92711 10.1986 10.2993C9.61437 11.1336 9.37641 12.811 9.64568 14.1953L9.84837 15.2372L10.2373 14.4066C10.9767 12.8269 11.206 12.7628 16.111 12.7628H20.562L21.1488 13.4791C21.4716 13.8732 21.9352 14.4808 22.1794 14.8296L22.6233 15.4638L23.1222 13.9661C24.2718 10.5152 24.2375 9.08242 22.9733 7.75847C22.0892 6.83278 21.4568 6.51163 20.5177 6.51163C19.8637 6.51163 19.5694 6.69994 18.9905 7.48837ZM44.8373 7.26593C43.0162 8.21273 42.1702 9.73905 42.1702 12.0775C42.1702 16.967 47.8309 18.7217 50.3937 14.6264C50.9997 13.6583 51.0992 13.2668 51.0992 11.8512C51.0992 10.44 50.9992 10.0435 50.4034 9.09362C49.0842 6.9901 46.8061 6.24205 44.8373 7.26593ZM45.1696 9.44603C44.2876 10.1136 43.6663 11.6363 43.8818 12.6013C44.1172 13.6538 45.142 14.8137 45.9957 14.9937C47.1312 15.2328 48.3871 14.6814 48.9131 13.7127C49.7856 12.1054 49.2793 10.0245 47.8274 9.25068C46.8005 8.70344 46.0811 8.75632 45.1696 9.44603ZM11.4818 16.0561L10.9345 17.2657L11.3533 19.5588C11.5836 20.8198 11.9167 22.2406 12.0936 22.7159C12.6999 24.3459 14.6781 25.7795 16.3276 25.7845C17.3775 25.7879 18.9782 24.9372 19.7667 23.9571C20.6026 22.9178 20.8466 22.1789 21.3174 19.2601L21.5927 17.5527L20.8071 16.2043L20.0216 14.8559L16.0254 14.8512L12.0291 14.8465L11.4818 16.0561ZM40.0216 27.6744C39.3428 28.2534 39.1552 29.399 39.1552 32.9658V36.4651H40.7786H42.4021V32.4469V28.4285L41.791 27.8888C41.092 27.271 40.569 27.2077 40.0216 27.6744ZM9.35322 27.8528C8.29589 28.142 7.34455 28.7751 6.52401 29.736C5.25191 31.2253 5.06267 32.0956 5.06267 36.4568V40.3721H16.4268H27.791V38.558C27.791 37.0311 27.862 36.7014 28.2395 36.4742C28.8198 36.1255 28.8507 36.1296 29.282 36.6138C29.5376 36.9011 29.6464 37.5229 29.6464 38.6976V40.3721H31.8496H34.0529V38.7312C34.0529 37.8021 34.1737 36.9545 34.3312 36.7777C34.4887 36.6008 35.2434 36.4651 36.0706 36.4651H37.5317V35.4233V34.3814H32.9977C28.1528 34.3814 27.5234 34.2441 26.7615 33.0225C26.5481 32.6808 26.3995 31.896 26.3995 31.1131C26.3995 30.0671 26.2884 29.6696 25.8777 29.2479C24.886 28.2295 23.8154 27.806 22.1472 27.7721L20.5346 27.7395L19.651 29.3531L18.7674 30.9664L19.5525 34.0266C20.373 37.2236 20.3547 38.0279 19.462 38.0279C18.8173 38.0279 18.6257 37.6177 17.8819 34.6419L17.1982 31.907L16.1302 31.8283L15.0622 31.7494L14.5977 33.5213C14.3421 34.4957 14.0104 35.8512 13.8602 36.5331C13.6517 37.4817 13.4608 37.8091 13.0489 37.9253C11.8095 38.2746 11.7603 37.6534 12.7219 33.786L13.4202 30.9763L12.5463 29.2979C11.7283 27.7268 11.6205 27.6208 10.8607 27.6411C10.4143 27.6528 9.73589 27.7481 9.35322 27.8528ZM13.8757 27.9852C13.8757 28.0484 14.0946 28.5173 14.3625 29.027C14.8243 29.9061 14.9129 29.9535 16.097 29.9535C17.3195 29.9535 17.3548 29.9321 17.8184 28.9116L18.2917 27.8698H16.0836C14.8693 27.8698 13.8757 27.9216 13.8757 27.9852ZM35.6764 39.4605V40.3721H40.7786H45.8809V39.4605V38.5488H40.7786H35.6764V39.4605Z" fill="white"/>
</svg>
