<svg width="100" height="100" viewBox="0 0 100 100" fill="none" xmlns="http://www.w3.org/2000/svg">
<circle cx="50" cy="50" r="50" fill="#FF7426"/>
<path fill-rule="evenodd" clip-rule="evenodd" d="M37.3693 33.0823C37.3156 33.1501 37.2717 33.5444 37.2717 33.9588V34.7118L35.997 34.7129C34.4186 34.7139 33.8072 34.919 33.3533 35.5992L33 36.1288V50.0277C33 62.1113 33.0273 63.9932 33.209 64.4365C33.652 65.5168 33.1474 65.4736 45.2913 65.4736H56.3563L56.7318 66.0672C57.149 66.7268 58.1671 67.3905 59.3189 67.7543C60.4754 68.1194 64.2379 68.0666 65.3736 67.6691C66.5423 67.2602 67.1964 66.8252 67.6381 66.163L68 65.6208L67.9994 60.5505C67.999 55.8785 67.9785 55.4379 67.7375 54.9397C67.4 54.2414 66.32 53.5662 64.9447 53.1934L63.8661 52.901V44.5149V36.1288L63.5128 35.5992C63.0796 34.9499 62.4495 34.7141 61.1447 34.7129L60.1457 34.7118V33.9244C60.1457 33.3816 60.0809 33.1054 59.9372 33.0359C59.5934 32.8694 59.3189 33.3143 59.3189 34.0378V34.7118H57.0529H54.7868L54.7448 33.8863C54.7066 33.1357 54.6715 33.0608 54.3583 33.0608C54.0451 33.0608 54.0099 33.1357 53.9718 33.8863L53.9297 34.7118H51.6024H49.275L49.233 33.8863C49.1948 33.1357 49.1597 33.0608 48.8465 33.0608C48.5332 33.0608 48.4981 33.1357 48.4599 33.8863L48.4179 34.7118H45.8839H43.3498L43.3078 33.8863C43.2696 33.1357 43.2345 33.0608 42.9213 33.0608C42.6081 33.0608 42.5729 33.1357 42.5347 33.8863L42.4927 34.7118H40.3031H38.1136L38.0716 33.8863C38.0371 33.2088 37.9791 33.0517 37.7483 33.01C37.5935 32.982 37.4231 33.0147 37.3693 33.0823ZM34.0548 36.2463C33.8589 36.5193 33.8268 37.0455 33.8268 39.9829V43.4016H48.4331H63.0394V39.9526C63.0394 35.7609 63.1101 35.9284 61.3405 35.9284H60.1457L60.1461 36.4063C60.1464 36.7795 60.2588 36.9606 60.6585 37.2319C62.0769 38.1947 62.1691 40.4978 60.8346 41.6322C60.4444 41.9639 60.219 42.0288 59.6537 41.9716C58.4847 41.8534 57.8031 40.9375 57.8031 39.4849C57.8031 38.4625 58.1864 37.6328 58.8388 37.2423C59.2273 37.0097 59.3189 36.8568 59.3189 36.4416V35.9284H57.0453H54.7717V36.4498C54.7717 36.7849 54.8418 36.9712 54.9677 36.9712C55.5213 36.9712 56.4252 38.4966 56.4252 39.4307C56.4252 40.235 55.8827 41.2797 55.271 41.6532C54.5342 42.103 54.1823 42.103 53.4455 41.6532C52.6739 41.182 52.2215 40.0923 52.362 39.043C52.4706 38.2322 53.1192 37.1948 53.6157 37.0377C53.8679 36.958 53.9449 36.8158 53.9449 36.431V35.9284H51.6024H49.2598L49.2603 36.4063C49.2605 36.7789 49.3731 36.9609 49.7709 37.2319C51.6861 38.5364 50.8286 42.198 48.664 41.9593C47.4802 41.8287 46.7094 40.6944 46.8257 39.2541C46.8995 38.3398 47.2489 37.6985 47.9271 37.2319C48.3194 36.9619 48.4324 36.7774 48.4327 36.4063L48.4331 35.9284H45.8839H43.3346V36.4287C43.3346 36.8229 43.4241 36.9757 43.7564 37.1493C44.8876 37.7402 45.2959 39.7646 44.5369 41.0194C43.9192 42.0409 42.6082 42.3018 41.7318 41.5778C41.2217 41.1561 40.8057 39.8742 40.9221 39.0824C41.0415 38.271 41.5473 37.4308 42.0861 37.1493C42.4184 36.9757 42.5079 36.8229 42.5079 36.4287V35.9284H40.3031H38.0984L38.102 36.4063C38.1049 36.7904 38.2106 36.9453 38.6409 37.1954C40.4392 38.2402 39.919 41.7 37.9254 41.9553C35.8041 42.2271 34.877 38.3471 36.7884 37.1974C37.1719 36.9668 37.2717 36.8057 37.2717 36.4176V35.9284H35.7773C34.5046 35.9284 34.2491 35.9755 34.0548 36.2463ZM38.1024 38.9378C38.0984 39.9371 38.094 39.9481 37.7195 39.8937C37.3725 39.8435 37.337 39.7693 37.2985 39.0133C37.2522 38.1038 37.1219 37.9894 36.7972 38.5741C36.1598 39.7218 37.0523 41.2286 38.0975 40.7691C38.5095 40.5878 38.9252 39.8647 38.9252 39.3287C38.9252 39.1822 38.741 38.8068 38.5158 38.4946L38.1066 37.927L38.1024 38.9378ZM42.0334 38.5741C41.7913 39.0099 41.7533 39.7938 41.9515 40.2609C42.1761 40.7901 42.8499 41.0479 43.3399 40.7919C43.8249 40.5385 44.0236 40.1497 44.0236 39.4543C44.0236 38.9413 43.6911 38.1877 43.4646 38.1877C43.3931 38.1877 43.3346 38.5301 43.3346 38.9486C43.3346 39.8356 43.0529 40.2797 42.7146 39.9257C42.5885 39.7936 42.5079 39.4128 42.5079 38.9486C42.5079 38.1069 42.3584 37.9889 42.0334 38.5741ZM48.0445 38.4107C47.5092 39.2244 47.6872 40.47 48.387 40.8056C49.4595 41.3199 50.3969 39.7672 49.7343 38.5741C49.4093 37.9889 49.2598 38.1069 49.2598 38.9486C49.2598 39.7654 49.0246 40.1747 48.6573 39.9969C48.4925 39.9172 48.4331 39.6631 48.4331 39.0381C48.4331 38.1839 48.317 37.9966 48.0445 38.4107ZM53.484 38.5056C52.8949 39.3266 53.4633 40.8525 54.3583 40.8525C55.2694 40.8525 55.8557 39.2138 55.2086 38.4754C54.8375 38.0516 54.7909 38.1057 54.7448 39.0133C54.7066 39.7639 54.6715 39.8388 54.3583 39.8388C54.0451 39.8388 54.0099 39.7639 53.9718 39.0133C53.9261 38.1154 53.8333 38.0188 53.484 38.5056ZM58.94 38.5268C58.5054 39.1179 58.5399 39.839 59.0327 40.4604C59.5235 41.0793 59.9995 41.1104 60.51 40.5566C60.9708 40.0565 61.03 39.0956 60.6342 38.544C60.2468 38.0042 60.1457 38.1066 60.1457 39.0381C60.1457 40.4803 59.3673 40.341 59.2909 38.8852L59.25 38.1053L58.94 38.5268ZM33.8268 54.09C33.8268 63.5039 33.8334 63.7439 34.1024 64.0832C34.3734 64.425 34.5616 64.4308 45.4016 64.4308H56.4252L56.43 59.9556C56.4336 56.7362 56.4828 55.3719 56.6053 55.0936C57.1122 53.9429 58.7067 53.1986 61.2825 52.9099L63.0394 52.713V48.5786V44.4443H48.4331H33.8268V54.09ZM35.8937 47.2365C35.8937 48.4854 35.9579 49.6585 36.0363 49.8435C36.1664 50.1499 36.3407 50.1796 38.0068 50.1796C39.2447 50.1796 39.888 50.1123 40 49.971C40.1739 49.7517 40.2427 45.7697 40.0817 45.2407C40.0106 45.0069 39.6901 44.9657 37.9459 44.9657H35.8937V47.2365ZM41.1299 47.3777C41.1299 49.2232 41.1748 49.8365 41.3212 49.9896C41.45 50.1245 42.1136 50.174 43.3537 50.1413L45.1949 50.0927L45.2331 47.5292L45.2711 44.9657H43.2006H41.1299V47.3777ZM46.3969 47.5245L46.435 50.0927H48.4331H50.4311V47.5727V45.0526L48.3949 45.0045L46.3587 44.9563L46.3969 47.5245ZM51.6331 47.5245L51.6713 50.0927L53.546 50.1408C55.0297 50.1791 55.4544 50.1377 55.5826 49.9431C55.6934 49.7746 55.7322 48.9635 55.7059 47.3749L55.6673 45.0526L53.6311 45.0045L51.5949 44.9563L51.6331 47.5245ZM56.7008 47.3777C56.7008 49.2232 56.7457 49.8365 56.892 49.9896C57.0209 50.1245 57.6845 50.174 58.9245 50.1413L60.7657 50.0927L60.8039 47.5292L60.8419 44.9657H58.7714H56.7008V47.3777ZM36.8583 47.5727V49.1368H38.0295H39.2008V47.5727V46.0085H38.0295H36.8583V47.5727ZM41.9567 47.5727V49.1368H43.1968H44.437V47.5727V46.0085H43.1968H41.9567V47.5727ZM47.1929 47.5727V49.1368H48.4331H49.6732V47.5727V46.0085H48.4331H47.1929V47.5727ZM52.4291 47.5727V49.1368H53.6004H54.7717V47.5727V46.0085H53.6004H52.4291V47.5727ZM57.6654 47.5727V49.1368H58.8366H60.0079V47.5727V46.0085H58.8366H57.6654V47.5727ZM35.8937 53.5543C35.8937 54.8369 35.9313 56.0101 35.9773 56.1613C36.0482 56.3941 36.3617 56.4362 38.0295 56.4362C39.6974 56.4362 40.0109 56.3941 40.0817 56.1613C40.2427 55.6322 40.1739 51.6502 40 51.4309C39.8869 51.2882 39.2131 51.2224 37.8642 51.2224H35.8937V53.5543ZM41.1606 53.7811L41.1988 56.3493L43.235 56.3975L45.2712 56.4456L45.2331 53.8774L45.1949 51.3093L43.1587 51.2611L41.1225 51.213L41.1606 53.7811ZM46.3969 53.7811L46.435 56.3493H48.4331H50.4311V53.8293V51.3093L48.3949 51.2611L46.3587 51.213L46.3969 53.7811ZM51.6024 53.834V56.4454L53.6348 56.3975L55.6673 56.3493L55.7059 54.0271C55.7318 52.4631 55.6925 51.6261 55.5856 51.4636C55.4642 51.279 54.9779 51.2224 53.5147 51.2224H51.6024V53.834ZM36.8583 53.8293V55.3934H38.0295H39.2008V53.8293V52.2651H38.0295H36.8583V53.8293ZM41.9567 53.8293V55.3934H43.1968H44.437V53.8293V52.2651H43.1968H41.9567V53.8293ZM47.1929 53.8293V55.3934H48.4331H49.6732V53.8293V52.2651H48.4331H47.1929V53.8293ZM52.4291 53.8293V55.3934H53.6004H54.7717V53.8293V52.2651H53.6004H52.4291V53.8293ZM59.6481 54.2617C58.6839 54.5264 57.8522 55.018 57.4718 55.5488C57.2137 55.9087 57.2137 55.9209 57.4718 56.2808C57.6162 56.4823 57.9543 56.7887 58.2234 56.9619C58.8505 57.3655 60.6169 57.8266 61.5364 57.8266H62.2499L61.8108 57.3429C61.4991 56.9997 61.3988 56.7697 61.4653 56.5509C61.517 56.3813 61.6288 56.2786 61.7136 56.3227C61.7987 56.3667 61.9921 56.4558 62.1437 56.5207L62.4193 56.6383L62.1437 56.3603C61.4765 55.6868 61.3858 55.5518 61.3858 55.2316C61.3858 55.0452 61.4476 54.8444 61.5229 54.7857C61.5983 54.7269 61.7244 54.5269 61.8033 54.3409C61.9371 54.0255 61.8984 54.0039 61.2184 54.0168C60.8178 54.0245 60.1112 54.1346 59.6481 54.2617ZM62.4343 54.2504C62.4756 54.3863 62.5977 54.5403 62.7055 54.5924C62.8134 54.6447 62.9016 54.8554 62.9016 55.0606C62.9016 55.3707 62.8397 55.419 62.5371 55.346L62.1725 55.2582L62.606 55.6859C63.1088 56.1823 63.1679 56.757 62.7638 57.2183C62.6122 57.3912 62.4882 57.5989 62.4882 57.6797C62.4882 58.0904 65.29 57.5488 66.2018 56.9619C66.8538 56.542 67.2018 56.0368 67.0904 55.6712C66.8717 54.9525 64.6068 54.0125 63.0781 54.006C62.5123 54.0038 62.3751 54.0557 62.4343 54.2504ZM35.8937 59.9236C35.8937 61.1725 35.9579 62.3456 36.0363 62.5305C36.1664 62.8369 36.3407 62.8666 38.0068 62.8666C39.2447 62.8666 39.888 62.7994 40 62.6581C40.1739 62.4387 40.2427 58.4568 40.0817 57.9277C40.0106 57.694 39.6901 57.6528 37.9459 57.6528H35.8937V59.9236ZM41.1299 60.0647C41.1299 61.9102 41.1748 62.5236 41.3212 62.6767C41.45 62.8115 42.1136 62.8611 43.3537 62.8284L45.1949 62.7797L45.2331 60.2163L45.2711 57.6528H43.2006H41.1299V60.0647ZM46.3969 60.2116L46.435 62.7797H48.4331H50.4311V60.2597V57.7397L48.3949 57.6915L46.3587 57.6434L46.3969 60.2116ZM51.6331 60.2116L51.6713 62.7797L53.546 62.8279C55.0297 62.8661 55.4544 62.8247 55.5826 62.6301C55.6934 62.4617 55.7322 61.6506 55.7059 60.0619L55.6673 57.7397L53.6311 57.6915L51.5949 57.6434L51.6331 60.2116ZM57.252 59.1384C57.252 60.5227 57.2769 60.653 57.6177 61.0513C58.0917 61.6056 59.4497 62.1276 60.9884 62.3475C63.1489 62.6562 65.9769 62.0223 66.8162 61.0411C67.1462 60.6554 67.1732 60.5126 67.1732 59.1505V57.6771L66.3783 58.0845C65.2045 58.686 63.9969 58.9236 62.1437 58.9173C60.3518 58.9112 58.888 58.5973 57.9303 58.0137C57.6046 57.8153 57.3187 57.6528 57.295 57.6528C57.2713 57.6528 57.252 58.3212 57.252 59.1384ZM36.8583 60.2597V61.8239H38.0295H39.2008V60.2597V58.6955H38.0295H36.8583V60.2597ZM41.9567 60.2597V61.8239H43.1968H44.437V60.2597V58.6955H43.1968H41.9567V60.2597ZM47.1929 60.2597V61.8239H48.4331H49.6732V60.2597V58.6955H48.4331H47.1929V60.2597ZM52.4291 60.2597V61.8239H53.6004H54.7717V60.2597V58.6955H53.6004H52.4291V60.2597ZM57.252 63.6065C57.252 65.3357 57.3782 65.6225 58.3783 66.1653C59.9125 66.9976 62.228 67.2384 64.3043 66.7819C65.5981 66.4972 66.2304 66.2099 66.7943 65.6505C67.1572 65.2904 67.1732 65.2089 67.1732 63.7194V62.1643L66.6249 62.5171C65.5798 63.1897 64.3389 63.4528 62.2126 63.4528C60.0863 63.4528 58.8454 63.1897 57.8003 62.5171L57.252 62.1643V63.6065Z" fill="white"/>
</svg>
