<svg width="57" height="57" viewBox="0 0 57 57" fill="none" xmlns="http://www.w3.org/2000/svg">
<path fill-rule="evenodd" clip-rule="evenodd" d="M39.6639 1.28256C34.0509 2.40637 29.6424 7.05143 28.7213 12.8115C28.51 14.1336 28.691 14.5357 29.4978 14.5357C29.885 14.5357 30.0462 14.3846 30.1407 13.9334C30.9339 10.1432 31.6604 8.57452 33.5614 6.54724C35.9855 3.96232 38.8481 2.7233 42.4177 2.7141C46.0913 2.70468 48.6369 3.74439 51.1916 6.29799C53.6794 8.78478 54.819 11.502 54.8073 14.9194C54.7999 17.1624 54.3794 18.9258 53.4254 20.715C52.6638 22.1435 51.1173 24.0164 50.8408 23.8455C50.7428 23.7851 50.594 23.1455 50.5103 22.4245C50.2062 19.805 48.9777 18.4781 46.8562 18.4781C45.5856 18.4781 45.4094 18.2486 46.2199 17.6493C46.5626 17.3961 47.101 16.6712 47.4165 16.0384C47.9277 15.0129 47.9897 14.636 47.9853 12.5763C47.9798 9.94868 47.6737 8.99658 46.4371 7.76041C44.9149 6.23863 42.3967 5.73378 40.3743 6.54461C39.2204 7.00741 37.6454 8.71557 37.2951 9.8845C37.1518 10.3626 37.0368 11.6785 37.0394 12.8089C37.0449 15.1844 37.3968 16.1974 38.6525 17.4527C39.0883 17.8881 39.4448 18.297 39.4448 18.3614C39.4448 18.4256 38.9422 18.4781 38.3275 18.4781C36.028 18.4781 35.0187 19.5036 34.5871 22.2786C34.4438 23.2001 34.254 23.9537 34.1655 23.9537C34.0768 23.9537 33.595 23.489 33.0947 22.9208C32.0844 21.7736 30.7945 19.2557 30.5605 17.9746C30.3118 16.6138 29.4161 16.0895 28.8567 16.9774C28.4938 17.5532 29.6641 20.8044 30.9253 22.7246C32.6348 25.3277 35.0527 27.153 38.2397 28.2468C39.7522 28.7659 40.3379 28.8485 42.5123 28.8496C44.6664 28.8509 45.2933 28.7648 46.8321 28.2569C56.7684 24.9779 59.7658 12.4817 52.3857 5.10431C48.9899 1.71009 44.4061 0.333091 39.6639 1.28256ZM40.8287 8.17152C39.9376 8.57606 38.9945 9.70534 38.6937 10.7286C38.5749 11.1323 38.6689 11.2105 39.4156 11.3298C40.8394 11.5574 43.737 10.7983 45.2653 9.79733C45.7942 9.45084 45.7997 9.42368 45.4226 9.00709C44.3191 7.78735 42.4319 7.44414 40.8287 8.17152ZM45.09 11.7131C43.4302 12.5533 41.6383 13.0025 39.9466 13.0025C38.5881 13.0025 38.5683 13.0111 38.5732 13.6048C38.5865 15.2692 40.1931 17.1002 41.8329 17.3201C44.7153 17.7067 46.5604 15.7754 46.4127 12.5266L46.3468 11.0769L45.09 11.7131ZM11.6635 18.0948C6.46811 23.268 4.72858 25.1439 3.72746 26.6523C-1.35022 34.303 -0.357866 44.789 6.04982 51.1942C12.4514 57.5932 22.0815 58.8179 30.023 54.243C31.1155 53.6137 33.1449 51.7373 38.7333 46.1897C44.9986 39.9703 46.0194 38.8671 46.0188 38.3158C46.0183 37.7862 45.5124 37.1666 43.1149 34.7582C40.903 32.5362 40.0386 31.8081 39.4849 31.7004C38.7745 31.5622 38.642 31.6745 33.6784 36.6236C29.2971 40.9922 28.6321 41.7415 28.8413 42.0749C29.321 42.8388 29.8249 42.6479 31.3677 41.1173L32.8763 39.6209L35.4462 42.1901L38.0164 44.759L35.0604 47.731C31.5723 51.2377 30.0916 52.4122 27.7223 53.5511C25.1138 54.8048 22.9954 55.2741 19.9439 55.2741C14.2051 55.2741 9.16493 52.8406 5.76936 48.4301C1.14699 42.4258 0.925906 33.6238 5.2378 27.2768C6.22292 25.8268 12.1755 19.5732 12.5708 19.5732C12.7055 19.5732 13.9242 20.678 15.279 22.0283L17.7418 24.4833L14.4683 27.7987C10.7883 31.5254 9.90903 32.9258 9.4145 35.8469C8.55908 40.9007 11.775 46.0999 16.7124 47.6449C18.6216 48.2422 21.3902 48.2279 23.2209 47.6116C25.8505 46.7261 28.062 44.943 27.6003 44.0805C27.2694 43.4628 26.875 43.5649 25.4013 44.6491C19.5293 48.9702 11.3815 45.242 11.0026 38.0608C10.9005 36.1277 11.2923 34.3149 12.1107 32.9337C12.3604 32.5121 15.5069 29.205 19.1027 25.5848C25.4342 19.2103 25.6408 18.9753 25.6408 18.147C25.6408 17.3412 25.4712 17.1219 22.7286 14.3804C20.1266 11.7795 19.7366 11.4694 19.0668 11.4694C18.3766 11.4694 17.7902 11.9939 11.6635 18.0948ZM16.2703 15.6891L13.8088 18.1564L16.3866 20.7266L18.9647 23.2969L21.5359 20.7198L24.1072 18.1428L21.6387 15.6821C20.2811 14.3287 19.0714 13.2216 18.9509 13.2216C18.8304 13.2216 17.6239 14.332 16.2703 15.6891ZM40.9786 19.7423C40.9786 20.5045 41.3048 21.3165 41.7235 21.5959C42.1837 21.903 43.1721 21.7611 43.6079 21.3254C43.9101 21.0234 44.0461 20.5954 44.0461 19.9469V19.0064H42.5123H40.9786V19.7423ZM37.3067 20.2325C36.6772 20.4921 36.4671 21.0015 36.0527 23.2728C35.8189 24.5534 35.7863 25.1934 35.9447 25.3842C36.239 25.7385 38.1564 26.5649 39.5543 26.9401C41.0362 27.3374 44.0179 27.3151 45.6421 26.8943C47.0285 26.5354 48.9555 25.6558 49.1911 25.2744C49.2662 25.1531 49.1661 24.141 48.9687 23.0253C48.532 20.5564 48.0478 19.9484 46.6032 20.0547C45.7865 20.1149 45.6921 20.1848 45.5617 20.8272C44.861 24.279 40.169 24.3046 39.4698 20.8604C39.3366 20.2045 39.2338 20.1155 38.5607 20.0746C38.1431 20.0494 37.5788 20.1204 37.3067 20.2325ZM23.8879 25.7232C21.7952 26.669 20.6006 28.4139 20.4312 30.773C20.3435 31.9926 20.4134 32.4153 20.8657 33.4026C21.9343 35.7361 23.814 36.9708 26.2981 36.9708C28.7822 36.9708 30.6619 35.7361 31.7305 33.4026C32.1828 32.4153 32.2527 31.9923 32.1653 30.7713C32.0507 29.1709 31.6907 28.3132 30.6232 27.0978C29.0909 25.3535 26.07 24.737 23.8879 25.7232ZM24.9646 26.9975C23.5434 27.4601 22.3679 28.8452 22.0336 30.4513C21.706 32.0239 22.7862 34.1197 24.3301 34.9069C26.0913 35.8051 28.5054 35.2843 29.6615 33.757C31.7294 31.0247 30.0629 27.1609 26.7052 26.9033C26.0595 26.8536 25.2762 26.8961 24.9646 26.9975ZM25.7659 28.8973C25.5766 29.0868 25.4217 29.4747 25.4217 29.7596C25.4217 30.1841 25.2928 30.2901 24.7096 30.3464C24.0796 30.407 23.9974 30.4907 23.9974 31.072C23.9974 31.6507 24.0809 31.7372 24.6966 31.7968C25.2996 31.855 25.4052 31.9575 25.4635 32.5412C25.6011 33.9167 26.9951 33.9167 27.1327 32.5412C27.191 31.9575 27.2966 31.855 27.8996 31.7968C28.5153 31.7372 28.5988 31.6507 28.5988 31.072C28.5988 30.4907 28.5166 30.407 27.8867 30.3464C27.3034 30.2901 27.1746 30.1841 27.1746 29.7596C27.1746 29.2508 26.6678 28.5532 26.2981 28.5532C26.1949 28.5532 25.9554 28.7081 25.7659 28.8973ZM36.5952 35.8918L34.0814 38.4117L36.6535 40.9828L39.2257 43.554L41.7978 40.9828L44.37 38.4117L41.8561 35.8918C40.4735 34.5056 39.2899 33.3717 39.2257 33.3717C39.1615 33.3717 37.9778 34.5056 36.5952 35.8918Z" fill="white"/>
</svg>
