<?xml version="1.0" encoding="UTF-8"?>
<svg xmlns="http://www.w3.org/2000/svg" width="116" height="46" viewBox="0 0 116 46" fill="none">
  <mask id="mask0_272_361" style="mask-type:luminance" maskUnits="userSpaceOnUse" x="0" y="0" width="116" height="46">
    <path d="M116 0H0V45.1619H116V0Z" fill="white"></path>
  </mask>
  <g mask="url(#mask0_272_361)">
    <mask id="mask1_272_361" style="mask-type:luminance" maskUnits="userSpaceOnUse" x="-9" y="-7" width="155" height="73">
      <path d="M145.025 -6.69818H-8.52496V65.6623H145.025V-6.69818Z" fill="white"></path>
    </mask>
    <g mask="url(#mask1_272_361)">
      <mask id="mask2_272_361" style="mask-type:luminance" maskUnits="userSpaceOnUse" x="-18" y="-14" width="155" height="73">
        <path d="M136.094 -13.9038H-17.4559V58.4567H136.094V-13.9038Z" fill="white"></path>
      </mask>
      <g mask="url(#mask2_272_361)">
        <path d="M2.90155 19.3102L4.65809 17.2406V5.50163L2.90155 3.42114V3.22882H10.1856V3.42114L8.42916 5.50163V10.8735H15.92V5.50163L14.1635 3.42114V3.22882H21.4476V3.42114L19.691 5.50163V17.2293L21.4476 19.3098V19.5021H14.1638V19.3098L15.9203 17.2402V11.4731H8.42946V17.2295L10.1859 19.31V19.5023H2.90155V19.3095V19.3102Z" fill="#100F0E"></path>
        <path d="M24.1962 13.927V5.50163L22.4294 3.42114V3.22882H29.7135V3.42114L27.9674 5.50163V14.1871C27.9674 17.2633 29.6103 19.118 32.3379 19.118C35.6751 19.118 36.9873 16.8334 36.9873 13.8477V5.70521L35.0862 3.40947V3.22852H39.4257V3.40947L37.535 5.70521V13.2936C37.535 17.4554 36.1608 19.7625 31.2014 19.7625C27.0892 19.7626 24.1962 17.6477 24.1962 13.927Z" fill="#100F0E"></path>
        <path d="M40.4586 19.3214L42.3599 17.1049V5.39972L40.3658 3.42072V3.22839H45.5214L51.6896 14.3L57.4135 3.22839H62.2386V3.42072L60.4821 5.50121V17.2293L62.2386 19.3214V19.5024H54.9544V19.3214L56.711 17.2293V5.90878L50.2328 18.2471H49.334L42.8971 6.45153V17.1049L44.7879 19.3214V19.5024H40.4587L40.4586 19.3214Z" fill="#100F0E"></path>
        <path d="M63.034 19.3102L65.245 17.2633L70.1321 5.70519L68.7372 3.42072V3.22839H73.2839L79.1629 17.2292L81.157 19.3097V19.502H73.0669V19.3097L74.9982 17.2404L73.8513 14.4698H67.0111L65.8953 17.2293L68.3543 19.3098V19.5021H63.0339V19.31L63.034 19.3102ZM73.6139 13.8365L70.4831 6.20268L67.2905 13.8365H73.6139Z" fill="#100F0E"></path>
        <path d="M84.7207 5.98783V17.0257L86.6114 19.3328V19.5024H82.3546V19.3328L84.173 17.0257V5.11708L82.055 3.42072V3.22839H87.1073L96.3959 14.809V5.69382L94.5051 3.39799V3.22839H98.8445V3.39799L96.9435 5.7051V19.2762L95.8068 19.8416L84.7207 5.98783Z" fill="#100F0E"></path>
        <path d="M100.478 18.8804L100.178 14.2775H100.364C101.634 17.4781 103.515 19.1745 105.984 19.1745C108.154 19.1745 109.456 18.3603 109.456 16.6525C109.456 14.8995 107.689 13.8704 105.354 12.7282L104.61 12.3663C102.513 11.3371 100.126 9.93478 100.126 7.52598C100.126 4.40463 102.978 2.96838 106.718 2.96838C108.413 2.96838 110.345 3.40955 111.646 3.85051L112.008 8.45337H111.833C110.676 5.61467 109.053 3.56777 106.274 3.56777C104.518 3.56777 103.422 4.51769 103.422 5.88625C103.422 7.43555 104.869 8.18199 106.749 8.99632L107.679 9.39212C110.22 10.478 112.762 12.129 112.762 15.0015C112.762 18.3377 109.631 19.774 105.902 19.774C103.773 19.7739 101.716 19.3214 100.478 18.8804Z" fill="#100F0E"></path>
        <path d="M8.31205 41.961C5.21851 41.961 3.00873 39.623 3.00873 36.2676C3.00873 32.905 5.211 30.5406 8.29064 30.5406C11.3985 30.5406 13.594 32.885 13.594 36.2676C13.594 39.623 11.3985 41.961 8.31205 41.961ZM8.31205 33.1344C5.21131 33.1344 3.37977 34.1918 3.37977 36.2671C3.37977 38.3292 5.21171 39.3734 8.31205 39.3734C11.3985 39.3734 13.2233 38.3161 13.2233 36.2671C13.2229 34.2048 11.4057 33.1344 8.31205 33.1344Z" fill="#100F0E"></path>
        <path d="M13.3016 29.9301L11.9972 28.8137H4.59877L3.28715 29.9301H3.16547V21.5168H6.02386V21.5956L3.5433 23.3754V26.4161H8.01971V24.4533L6.79374 23.205V23.0606H9.7732V23.205L8.39034 24.4533V26.417H11.9901L13.3016 25.1363H13.4228V29.9306L13.3016 29.9301Z" fill="#100F0E"></path>
        <path d="M15.4424 32.5612C15.4424 26.8692 19.5787 22.6201 26.4482 22.6201C28.7099 22.6201 30.899 23.0172 33.1122 23.6526L33.5113 29.1726H33.2212C32.2051 26.2599 30.3187 23.2953 26.4483 23.2953C22.0097 23.2953 20.2077 27.1738 20.2077 32.561C20.2077 38.3458 22.5177 41.5887 26.7507 41.5887C28.5891 41.5491 30.1856 40.7548 30.1856 39.6429V35.7382L27.549 33.3158V33.0775H34.3097V40.1726C32.3868 41.2713 29.9195 42.2773 26.2792 42.2773C19.6512 42.2773 15.4424 38.2929 15.4424 32.5612Z" fill="#100F0E"></path>
        <path d="M36.2928 41.7346L38.3488 39.2857V25.5721L36.2928 23.1232V22.9114H45.1217V23.1232L42.7633 25.5721V41.2582H48.2783L52.2332 35.9104L52.5719 35.9237L51.7371 41.9599H36.2928V41.7346Z" fill="#100F0E"></path>
        <path d="M75.6244 41.7346L77.6805 39.2989V25.5721L75.6244 23.1364V22.9114H85.5659C90.6457 22.9114 93.0161 24.8307 93.0161 27.4252C93.0161 29.4903 91.4197 31.2906 88.1662 32.0054V32.0451C91.9034 32.6143 93.911 34.4675 93.911 36.9296C93.911 40.8082 90.1256 41.9597 84.4291 41.9597H75.6243L75.6244 41.7346ZM84.3087 31.7803C87.1267 31.7803 88.4209 30.1654 88.4209 27.6767C88.4209 25.241 87.2599 23.6129 84.3208 23.6129H82.0954V31.7803H84.3087ZM84.2843 41.2581C87.5741 41.2581 89.1463 39.7887 89.1463 36.7972C89.1463 34.2027 87.7916 32.4686 84.4658 32.4686H82.0953V41.2581H84.2843Z" fill="#100F0E"></path>
        <path d="M95.4113 41.7346L97.4673 39.2857V25.5721L95.4113 23.1364V22.9114H111.086V28.2192H110.953L107.675 23.6126H101.881V31.8064H105.498L107.796 29.5296H108.062V35.076H107.796L105.498 32.5083H101.881V41.2582H108.533L112.56 36.6384L112.693 36.6515L111.956 41.9593H95.4113V41.7346Z" fill="#100F0E"></path>
      </g>
      <mask id="mask3_272_361" style="mask-type:luminance" maskUnits="userSpaceOnUse" x="-18" y="-14" width="155" height="73">
        <path d="M136.094 -13.9038H-17.4559V58.4567H136.094V-13.9038Z" fill="white"></path>
      </mask>
      <g mask="url(#mask3_272_361)">
        <mask id="mask4_272_361" style="mask-type:luminance" maskUnits="userSpaceOnUse" x="-18" y="-14" width="155" height="73">
          <path d="M136.094 -13.9038H-17.4559V58.4567H136.094V-13.9038Z" fill="white"></path>
        </mask>
        <g mask="url(#mask4_272_361)">
          <path d="M54.2128 31.6629V31.5891C54.3397 31.4673 54.4001 31.4696 54.4706 31.6206C54.5222 31.7383 54.6029 31.841 54.7051 31.919C54.7892 31.9923 54.8508 32.0879 54.8829 32.1948C54.9617 32.4218 55.088 32.6294 55.2533 32.8037C55.4794 33.027 55.4598 33.2927 55.4157 33.5591C55.3833 33.7567 55.2957 33.9441 55.4026 34.1467C55.433 34.2053 55.3982 34.278 55.3592 34.3371C55.3142 34.3968 55.2929 34.471 55.2992 34.5454C55.3057 34.6199 55.3395 34.6894 55.3942 34.7404C55.6355 35.028 55.8149 35.3624 55.9211 35.7225C56.0214 36.0304 56.2357 36.265 56.4536 36.4861C56.698 36.7392 56.8666 37.0558 56.9399 37.4001C57.1161 38.1632 57.4853 38.8683 58.0122 39.4477C58.2195 39.6738 58.4495 39.8782 58.6985 40.0575C58.5801 39.9913 58.4765 39.9015 58.394 39.7939C58.3116 39.6862 58.2519 39.5628 58.2187 39.4312C58.1541 39.1759 58.2108 39.0042 58.4332 38.8672C58.4821 38.8367 58.528 38.8144 58.5291 38.7466C58.5284 38.7123 58.539 38.6787 58.5594 38.6511C58.5798 38.6235 58.6086 38.6034 58.6416 38.5939C58.7291 38.5634 58.7551 38.4924 58.7797 38.413C58.8416 38.2139 58.8851 38.0096 58.9501 37.8111C58.9693 37.7294 59.0114 37.6549 59.0712 37.5962C59.1311 37.5374 59.2064 37.4968 59.2884 37.4791C59.735 37.4021 59.8324 37.08 59.8403 36.7096C59.8431 36.2474 59.9697 35.7943 60.2068 35.3976C60.299 35.2445 60.2628 35.1383 60.1115 35.0405C59.9275 34.9219 59.7165 34.8416 59.5939 34.6396C59.5473 34.5629 59.4496 34.5846 59.3714 34.5835C59.1583 34.5809 58.9547 34.5617 58.8042 34.3805C58.7876 34.3578 58.7657 34.3395 58.7404 34.3271C58.7151 34.3148 58.6872 34.3087 58.6591 34.3095C58.452 34.3578 58.2592 34.2216 58.0541 34.2724C57.997 34.2867 57.9381 34.281 57.9142 34.2176C57.9001 34.1825 57.8994 34.1434 57.9122 34.1078C57.9252 34.0722 57.9508 34.0427 57.9842 34.0248C58.1303 33.9413 58.129 33.807 58.1222 33.6722C58.1101 33.432 58.0184 33.3233 57.7866 33.246C57.71 33.2236 57.632 33.206 57.5532 33.1935C57.423 33.1708 57.299 33.1209 57.1893 33.0468C57.0798 32.9728 56.9872 32.8764 56.9175 32.764C56.7153 32.4507 56.3751 32.3826 56.0438 32.3149C55.9516 32.2959 55.8699 32.3649 55.7985 32.425C55.7501 32.472 55.6968 32.5137 55.6394 32.5493C55.3229 32.7166 55.1218 32.6232 55.0515 32.2744C55.0084 32.0623 55.015 31.8413 54.8474 31.6604C54.7442 31.5487 54.8425 31.3879 54.8391 31.2491C54.8376 31.1901 54.8845 31.1328 54.8413 31.0599C54.775 31.134 54.7688 31.2312 54.7216 31.3067C54.6631 31.4001 54.5939 31.4863 54.471 31.4424C54.3521 31.4001 54.3666 31.2951 54.3813 31.1929C54.4219 30.8261 54.5252 30.4691 54.6868 30.1374C54.8476 29.8336 55.0793 29.581 55.4468 29.5141C55.5228 29.5024 55.5949 29.4724 55.6568 29.4266C55.7187 29.381 55.7685 29.3209 55.802 29.2517C55.8642 29.1173 55.9589 29.0006 56.0776 28.912C56.1162 28.8867 56.1462 28.8501 56.163 28.807C56.1799 28.764 56.1828 28.7167 56.1715 28.672C56.152 28.5832 56.1659 28.4902 56.2105 28.411C56.2552 28.3318 56.3273 28.2717 56.4134 28.2423C56.5595 28.1861 56.6931 28.1016 56.8064 27.9936C56.9197 27.8856 57.0105 27.7564 57.0737 27.6131C57.1405 27.4655 57.2599 27.348 57.4086 27.2834C57.4569 27.2554 57.5138 27.2461 57.5686 27.2573C57.6233 27.2685 57.672 27.2995 57.7054 27.3443C57.7896 27.4458 58.02 27.394 58.0681 27.2698C58.0777 27.2454 58.0798 27.2089 58.0601 27.203C57.944 27.1705 57.8897 27.0317 57.7437 27.0407C57.6003 27.0498 57.5443 26.9328 57.6182 26.8048C57.6471 26.7572 57.6875 26.7177 57.736 26.6901C57.7843 26.6624 57.8389 26.6476 57.8945 26.6469C58.0852 26.6239 58.2777 26.6721 58.4351 26.7822C58.6905 26.8966 58.8183 26.8837 59.0156 26.7111C58.9623 26.6933 58.9057 26.688 58.8501 26.6956C58.7945 26.7033 58.7414 26.7237 58.6949 26.7554C58.6261 26.8068 58.5516 26.8559 58.46 26.8003C58.3504 26.6887 58.3535 26.6286 58.4954 26.5545C58.6528 26.4716 58.8033 26.3761 58.9453 26.269C59.0278 26.2072 59.0968 26.1509 58.9554 26.0739C58.9173 26.0529 58.8845 26.0235 58.8594 25.9879C58.8344 25.9523 58.8178 25.9114 58.8109 25.8685C58.7912 25.7521 58.7412 25.7112 58.6221 25.7484C58.5959 25.7616 58.5671 25.7692 58.5377 25.7708C58.5084 25.7722 58.4789 25.7676 58.4514 25.7572C58.4239 25.7467 58.399 25.7307 58.378 25.7101C58.3571 25.6894 58.3405 25.6646 58.3297 25.6373C58.2811 25.5348 58.201 25.5834 58.149 25.6361C57.829 25.9608 57.5068 26.2828 57.1898 26.6104C57.147 26.6702 57.1108 26.7345 57.0818 26.8021C57.0412 26.8658 56.9971 26.9327 56.9109 26.9181C56.8246 26.9035 56.7965 26.8267 56.7965 26.7506C56.8018 26.7144 56.7927 26.6775 56.7711 26.6479C56.7495 26.6184 56.7172 26.5984 56.6811 26.5924C56.6259 26.5819 56.5759 26.553 56.5392 26.5104C56.5026 26.4677 56.4816 26.4139 56.4797 26.3577C56.4804 26.3017 56.4972 26.2471 56.5283 26.2007C56.5593 26.1542 56.6033 26.1176 56.6546 26.0956C56.879 25.9685 57.0977 25.8325 57.3109 25.6874C57.4453 25.6012 57.5725 25.5043 57.6913 25.3978C57.7272 25.3638 57.8173 25.3385 57.7725 25.2776C57.7264 25.215 57.6597 25.2787 57.6116 25.3088C57.4336 25.4287 57.2626 25.5589 57.0995 25.6985C57.027 25.7648 56.9449 25.8198 56.856 25.8617C56.8316 25.8757 56.8031 25.8806 56.7755 25.8755C56.7478 25.8703 56.7229 25.8556 56.7052 25.8338C56.6766 25.6754 56.81 25.6004 56.893 25.517C58.2294 24.1558 59.9483 23.2334 61.8213 22.8724C62.1303 22.8299 62.4412 22.8041 62.7529 22.7949C62.7944 22.7918 62.8392 22.8085 62.8765 22.7767H63.246C63.3548 22.8055 63.4692 22.8055 63.5779 22.7767H63.7253C63.8077 22.8157 63.8951 22.786 63.9797 22.7951C64.0544 22.7858 64.1319 22.8154 64.2047 22.7767H64.3889C64.6609 22.8147 64.9358 22.814 65.2088 22.8376C65.6049 22.8804 65.9956 22.9639 66.3746 23.0868C67.5826 23.4481 68.7069 24.0455 69.6825 24.8443C69.9559 25.072 70.2147 25.3167 70.4574 25.5769C70.5074 25.6293 70.568 25.6775 70.5673 25.7611C70.5247 25.8789 70.4326 25.8481 70.3521 25.825C70.2469 25.7894 70.1492 25.735 70.0634 25.6646C69.9423 25.5695 69.8016 25.5025 69.6514 25.4686C69.5012 25.4346 69.3453 25.4346 69.1951 25.4684C68.9728 25.5143 68.9363 25.4786 68.9452 25.2545C68.9509 25.2241 68.947 25.1928 68.9338 25.1648C68.9206 25.1369 68.899 25.1138 68.8719 25.0989C68.4514 24.8848 68.0429 24.6357 67.5424 24.6639C67.432 24.6659 67.3225 24.6852 67.2181 24.7216C66.9887 24.8247 66.753 24.9136 66.5127 24.9879C66.4466 25.0059 66.388 25.0442 66.3446 25.0972C66.3196 25.1183 66.3015 25.1466 66.293 25.1784C66.2844 25.21 66.2858 25.2435 66.2968 25.2745C66.3078 25.3053 66.3281 25.3321 66.3548 25.3513C66.3815 25.3704 66.4133 25.3808 66.4461 25.3813C66.5381 25.3849 66.629 25.4015 66.7162 25.4309C66.7662 25.4476 66.8098 25.4793 66.8412 25.5216C66.8727 25.5639 66.8903 25.6149 66.8918 25.6675C66.889 25.7172 66.8711 25.7648 66.8404 25.8039C66.8097 25.8431 66.7678 25.8719 66.7203 25.8865C66.2907 26.0836 65.8639 26.2865 65.4376 26.4912C65.2741 26.5699 65.2714 26.5653 65.394 26.7121C65.487 26.8124 65.5374 26.9448 65.5346 27.0815C65.5385 27.1155 65.5341 27.15 65.5217 27.1819C65.5093 27.2138 65.4894 27.2422 65.4635 27.2647C65.4377 27.2873 65.4068 27.3032 65.3735 27.3111C65.3401 27.319 65.3054 27.3187 65.2722 27.3102C65.1625 27.2981 65.0576 27.2595 64.9489 27.2392C64.887 27.228 64.8235 27.2295 64.7622 27.2435C64.7009 27.2575 64.6431 27.2838 64.5922 27.3209C64.5414 27.3578 64.4986 27.4047 64.4663 27.4587C64.4341 27.5127 64.4131 27.5727 64.4047 27.635C64.4006 27.6947 64.4087 27.7547 64.4281 27.8114C64.4476 27.868 64.4783 27.9202 64.5183 27.9647C64.5581 28.0094 64.6067 28.0456 64.6607 28.0712C64.7149 28.0967 64.7736 28.1113 64.8335 28.1139C65.0116 28.1103 65.1882 28.0813 65.358 28.0275C65.4249 28.0132 65.4365 27.9406 65.4709 27.8908C65.7053 27.5517 65.9753 27.2596 66.4001 27.1557C66.502 27.1325 66.6077 27.1314 66.71 27.1524C66.8124 27.1734 66.9091 27.216 66.9935 27.2775C67.2059 27.4133 67.3919 27.5842 67.5917 27.7368C67.6223 27.7711 67.665 27.7926 67.7107 27.7969C67.7566 27.8013 67.8025 27.7881 67.839 27.7601C67.8573 27.7452 67.8784 27.7342 67.9011 27.7277C67.9238 27.7211 67.9475 27.7193 67.9709 27.7223C67.9943 27.7251 68.0168 27.7327 68.0372 27.7446C68.0576 27.7565 68.0754 27.7723 68.0895 27.7912C68.2074 27.9528 68.3933 27.9707 68.5528 28.0456C68.5731 28.055 68.5803 28.063 68.5898 28.0392C68.6507 27.8858 68.7934 27.9078 68.9173 27.8843C69.1158 27.8466 69.1904 27.7312 69.1351 27.5596C69.0599 27.3269 69.0813 27.2201 69.2194 27.1401C69.3595 27.0589 69.5015 27.0969 69.6581 27.2578C69.6666 27.2666 69.6744 27.2762 69.6928 27.2939C69.7365 27.2438 69.7519 27.1504 69.838 27.1581C69.9222 27.1656 69.9583 27.2387 69.9902 27.3046C70.0879 27.5099 70.2034 27.7062 70.3353 27.8913C70.3593 27.9156 70.3754 27.9465 70.3816 27.9801C70.3878 28.0137 70.3836 28.0483 70.3698 28.0796C70.3274 28.1556 70.2511 28.154 70.1743 28.1432C69.9235 28.1172 69.6699 28.1386 69.4268 28.2062C69.3802 28.2173 69.3152 28.221 69.3088 28.2773C69.3014 28.3454 69.3725 28.3593 69.4204 28.3804C69.5078 28.4102 69.6003 28.4224 69.6925 28.4162C69.9603 28.4212 70.057 28.5001 70.1114 28.7577C70.1495 28.8999 70.1713 29.046 70.1765 29.193C70.1739 29.3399 70.0944 29.4035 69.9604 29.3539C69.7553 29.289 69.5402 29.2615 69.3253 29.2727C69.0657 29.2859 68.809 29.2134 68.5946 29.0666C68.5129 29.0057 68.4799 29.0309 68.4559 29.1204C68.3868 29.3765 68.3252 29.4178 68.0831 29.3234C67.7401 29.19 67.4806 28.9029 67.1165 28.795C66.9933 28.7584 66.9294 28.6072 66.8921 28.4721C66.8894 28.4507 66.8823 28.43 66.8713 28.4115C66.8604 28.3929 66.8457 28.3767 66.8282 28.3641C66.8108 28.3514 66.7909 28.3423 66.7698 28.3376C66.7486 28.3329 66.7268 28.3325 66.7056 28.3366C66.1387 28.395 65.5711 28.4491 65.0086 28.5417C64.7981 28.5632 64.6027 28.6615 64.4599 28.8178C64.4241 28.8605 64.3756 28.9023 64.3697 28.9547C64.3341 29.2714 64.0768 29.4013 63.8654 29.5725C63.6003 29.7934 63.3842 30.0672 63.231 30.3763C63.1984 30.4292 63.1787 30.4891 63.1734 30.551C63.1682 30.6129 63.1774 30.6752 63.2005 30.7329C63.2566 30.8564 63.2858 30.9904 63.2861 31.126C63.2864 31.2617 63.2579 31.3959 63.2025 31.5197C63.1616 31.6327 63.1449 31.753 63.1535 31.8729C63.1621 31.9926 63.1958 32.1093 63.2523 32.2154C63.4465 32.6377 63.7642 32.9643 64.112 33.2595C64.1911 33.325 64.2872 33.3665 64.3891 33.3791C64.4909 33.3917 64.5943 33.3751 64.6869 33.331C65.0556 33.1776 65.4443 33.0777 65.8413 33.0345C65.9391 33.024 66.0374 33.0209 66.1357 33.0251C66.1762 33.0225 66.2163 33.0339 66.2495 33.0573C66.2828 33.0807 66.3071 33.1147 66.3183 33.1537C66.3543 33.2906 66.4524 33.3093 66.5712 33.3168C67.0005 33.3438 67.1588 33.5638 67.1091 33.9892C67.0931 34.0844 67.1013 34.1821 67.1333 34.2733C67.1652 34.3644 67.2197 34.4459 67.2918 34.5102C67.5804 34.7552 67.6423 35.0733 67.5806 35.4274C67.5342 35.6435 67.4658 35.8543 67.3765 36.0566C67.2349 36.3796 67.2152 36.7431 67.3212 37.0795C67.4823 37.5758 67.646 38.0712 67.7973 38.5705C67.8723 38.817 67.9477 38.8359 68.169 38.6946C68.3618 38.571 68.5015 38.3869 68.6842 38.2502C68.8301 38.1382 68.994 38.0517 69.1689 37.9944C69.4306 37.9112 69.4553 37.8755 69.4479 37.592C69.4456 37.555 69.4532 37.5179 69.4699 37.4848C69.4866 37.4516 69.5119 37.4236 69.5431 37.4035C69.6147 37.355 69.6728 37.289 69.7118 37.2117C69.7506 37.1345 69.7692 37.0485 69.7656 36.9621C69.7646 36.8567 69.7955 36.7535 69.8541 36.6659C70.2663 36.0683 70.5112 35.3914 70.78 34.7261C71.0422 34.0773 71.2914 33.4235 71.5526 32.7745C71.628 32.5872 71.6271 32.5848 71.4354 32.5421C71.2544 32.4972 71.0971 32.3853 70.9955 32.2289C70.8557 32.035 70.7269 31.8326 70.571 31.6511C70.4518 31.5166 70.3803 31.3465 70.3673 31.1671C70.3369 30.9162 70.2456 30.6764 70.1013 30.4689C70.0112 30.315 69.9527 30.1448 69.9294 29.968C69.9228 29.8943 69.9326 29.8201 69.958 29.7506C69.9634 29.7168 69.979 29.6855 70.0027 29.6609C70.0264 29.6362 70.0571 29.6194 70.0906 29.6127C70.1677 29.6015 70.2146 29.6533 70.253 29.7127C70.3688 29.8938 70.4746 30.0809 70.5704 30.2733C70.8003 30.7279 71.0429 31.1766 71.2446 31.6454C71.3176 31.8148 71.3307 31.8159 71.4882 31.7017C71.559 31.653 71.6357 31.6132 71.7161 31.583C72.0246 31.4573 72.1947 31.242 72.1886 30.9887C72.182 30.7099 72.016 30.5091 71.6923 30.3968C71.5542 30.3634 71.4298 30.2882 71.3361 30.1814C71.3006 30.1425 71.2771 30.0942 71.2684 30.0423C71.2597 29.9904 71.2661 29.937 71.287 29.8887C71.3088 29.8407 71.3452 29.8007 71.391 29.7744C71.4367 29.7482 71.4896 29.737 71.5421 29.7425C71.6161 29.7331 71.691 29.7485 71.7552 29.7863C71.9635 29.9487 72.2018 30.0679 72.4096 30.2275C72.7547 30.4913 72.8705 30.8851 72.9389 31.2894C72.9979 31.6383 73.0671 31.9859 73.1075 32.3379C73.1668 34.1311 72.6655 35.7674 71.7129 37.2728C70.6796 38.9318 69.1575 40.23 67.3562 40.9887C66.6773 41.2924 65.9588 41.4983 65.222 41.6002C64.5088 41.6809 63.7902 41.7012 63.0736 41.6611C62.7182 41.6587 62.3633 41.636 62.0105 41.5931C61.2404 41.4668 60.4904 41.2396 59.7797 40.9173C59.0086 40.5786 58.288 40.1349 57.6383 39.5988C56.7728 38.8893 56.0361 38.0359 55.4607 37.0761C54.9008 36.1422 54.5109 35.1166 54.309 34.0466C54.2652 33.7313 54.2394 33.4138 54.2317 33.0955C54.2294 33.0598 54.2419 33.0215 54.2133 32.9902V32.8058C54.2434 32.7097 54.2434 32.6067 54.2133 32.5107V31.9208C54.2428 31.8373 54.2428 31.7462 54.2133 31.6627" fill="#010101"></path>
        </g>
        <mask id="mask5_272_361" style="mask-type:luminance" maskUnits="userSpaceOnUse" x="-18" y="-14" width="155" height="73">
          <path d="M136.094 -13.9038H-17.4559V58.4567H136.094V-13.9038Z" fill="white"></path>
        </mask>
        <g mask="url(#mask5_272_361)">
          <path d="M54.2128 31.6629V31.5891C54.3397 31.4673 54.4001 31.4696 54.4706 31.6206C54.5222 31.7383 54.6029 31.841 54.7051 31.919C54.7892 31.9923 54.8508 32.0879 54.8829 32.1948C54.9617 32.4218 55.088 32.6294 55.2533 32.8037C55.4794 33.027 55.4598 33.2927 55.4157 33.5591C55.3833 33.7567 55.2957 33.9441 55.4026 34.1467C55.433 34.2053 55.3982 34.278 55.3592 34.3371C55.3142 34.3968 55.2929 34.471 55.2992 34.5454C55.3057 34.6199 55.3395 34.6894 55.3942 34.7404C55.6355 35.028 55.8149 35.3624 55.9211 35.7225C56.0214 36.0304 56.2357 36.265 56.4536 36.4861C56.698 36.7392 56.8666 37.0558 56.9399 37.4001C57.1161 38.1632 57.4853 38.8683 58.0122 39.4477C58.2195 39.6738 58.4495 39.8782 58.6985 40.0575C58.5801 39.9913 58.4765 39.9015 58.394 39.7939C58.3116 39.6862 58.2519 39.5628 58.2187 39.4312C58.1541 39.1759 58.2108 39.0042 58.4332 38.8672C58.4821 38.8367 58.528 38.8144 58.5291 38.7466C58.5284 38.7123 58.539 38.6787 58.5594 38.6511C58.5798 38.6235 58.6086 38.6034 58.6416 38.5939C58.7291 38.5634 58.7551 38.4924 58.7797 38.413C58.8416 38.2139 58.8851 38.0096 58.9501 37.8111C58.9693 37.7294 59.0114 37.6549 59.0712 37.5962C59.1311 37.5374 59.2064 37.4968 59.2884 37.4791C59.735 37.4021 59.8324 37.08 59.8403 36.7096C59.8431 36.2474 59.9697 35.7943 60.2068 35.3976C60.299 35.2445 60.2628 35.1383 60.1115 35.0405C59.9275 34.9219 59.7165 34.8416 59.5939 34.6396C59.5473 34.5629 59.4496 34.5846 59.3714 34.5835C59.1583 34.5809 58.9547 34.5617 58.8042 34.3805C58.7876 34.3578 58.7657 34.3395 58.7404 34.3271C58.7151 34.3148 58.6872 34.3087 58.6591 34.3095C58.452 34.3578 58.2592 34.2216 58.0541 34.2724C57.997 34.2867 57.9381 34.281 57.9142 34.2176C57.9001 34.1825 57.8994 34.1434 57.9122 34.1078C57.9252 34.0722 57.9508 34.0427 57.9842 34.0248C58.1303 33.9413 58.129 33.807 58.1222 33.6722C58.1101 33.432 58.0184 33.3233 57.7866 33.246C57.71 33.2236 57.632 33.206 57.5532 33.1935C57.423 33.1708 57.299 33.1209 57.1893 33.0468C57.0798 32.9728 56.9872 32.8764 56.9175 32.764C56.7153 32.4507 56.3751 32.3826 56.0438 32.3149C55.9516 32.2959 55.8699 32.3649 55.7985 32.425C55.7501 32.472 55.6968 32.5137 55.6394 32.5493C55.3229 32.7166 55.1218 32.6232 55.0515 32.2744C55.0084 32.0623 55.015 31.8413 54.8474 31.6604C54.7442 31.5487 54.8425 31.3879 54.8391 31.2491C54.8376 31.1901 54.8845 31.1328 54.8413 31.0599C54.775 31.134 54.7688 31.2312 54.7216 31.3067C54.6631 31.4001 54.5939 31.4863 54.471 31.4424C54.3521 31.4001 54.3666 31.2951 54.3813 31.1929C54.4219 30.8261 54.5252 30.4691 54.6868 30.1374C54.8476 29.8336 55.0793 29.581 55.4468 29.5141C55.5228 29.5024 55.5949 29.4724 55.6568 29.4266C55.7187 29.381 55.7685 29.3209 55.802 29.2517C55.8642 29.1173 55.9589 29.0006 56.0776 28.912C56.1162 28.8867 56.1462 28.8501 56.163 28.807C56.1799 28.764 56.1828 28.7167 56.1715 28.672C56.152 28.5832 56.1659 28.4902 56.2105 28.411C56.2552 28.3318 56.3273 28.2717 56.4134 28.2423C56.5595 28.1861 56.6931 28.1016 56.8064 27.9936C56.9197 27.8856 57.0105 27.7564 57.0737 27.6131C57.1405 27.4655 57.2599 27.348 57.4086 27.2834C57.4569 27.2554 57.5138 27.2461 57.5686 27.2573C57.6233 27.2685 57.672 27.2995 57.7054 27.3443C57.7896 27.4458 58.02 27.394 58.0681 27.2698C58.0777 27.2454 58.0798 27.2089 58.0601 27.203C57.944 27.1705 57.8897 27.0317 57.7437 27.0407C57.6003 27.0498 57.5443 26.9328 57.6182 26.8048C57.6471 26.7572 57.6875 26.7177 57.736 26.6901C57.7843 26.6624 57.8389 26.6476 57.8945 26.6469C58.0852 26.6239 58.2777 26.6721 58.4351 26.7822C58.6905 26.8966 58.8183 26.8837 59.0156 26.7111C58.9623 26.6933 58.9057 26.688 58.8501 26.6956C58.7945 26.7033 58.7414 26.7237 58.6949 26.7554C58.6261 26.8068 58.5516 26.8559 58.46 26.8003C58.3504 26.6887 58.3535 26.6286 58.4954 26.5545C58.6528 26.4716 58.8033 26.3761 58.9453 26.269C59.0278 26.2072 59.0968 26.1509 58.9554 26.0739C58.9173 26.0529 58.8845 26.0235 58.8594 25.9879C58.8344 25.9523 58.8178 25.9114 58.8109 25.8685C58.7912 25.7521 58.7412 25.7112 58.6221 25.7484C58.5959 25.7616 58.5671 25.7692 58.5377 25.7708C58.5084 25.7722 58.4789 25.7676 58.4514 25.7572C58.4239 25.7467 58.399 25.7307 58.378 25.7101C58.3571 25.6894 58.3405 25.6646 58.3297 25.6373C58.2811 25.5348 58.201 25.5834 58.149 25.6361C57.829 25.9608 57.5068 26.2828 57.1898 26.6104C57.147 26.6702 57.1108 26.7345 57.0818 26.8021C57.0412 26.8658 56.9971 26.9327 56.9109 26.9181C56.8246 26.9035 56.7965 26.8267 56.7965 26.7506C56.8018 26.7144 56.7927 26.6775 56.7711 26.6479C56.7495 26.6184 56.7172 26.5984 56.6811 26.5924C56.6259 26.5819 56.5759 26.553 56.5392 26.5104C56.5026 26.4677 56.4816 26.4139 56.4797 26.3577C56.4804 26.3017 56.4972 26.2471 56.5283 26.2007C56.5593 26.1542 56.6033 26.1176 56.6546 26.0956C56.879 25.9685 57.0977 25.8325 57.3109 25.6874C57.4453 25.6012 57.5725 25.5043 57.6913 25.3978C57.7272 25.3638 57.8173 25.3385 57.7725 25.2776C57.7264 25.215 57.6597 25.2787 57.6116 25.3088C57.4336 25.4287 57.2626 25.5589 57.0995 25.6985C57.027 25.7648 56.9449 25.8198 56.856 25.8617C56.8316 25.8757 56.8031 25.8806 56.7755 25.8755C56.7478 25.8703 56.7229 25.8556 56.7052 25.8338C56.6766 25.6754 56.81 25.6004 56.893 25.517C58.2294 24.1558 59.9483 23.2334 61.8213 22.8724C62.1303 22.8299 62.4412 22.8041 62.7529 22.7949C62.7944 22.7918 62.8392 22.8085 62.8765 22.7767H63.246C63.3548 22.8055 63.4692 22.8055 63.5779 22.7767H63.7253C63.8077 22.8157 63.8951 22.786 63.9797 22.7951C64.0544 22.7858 64.1319 22.8154 64.2047 22.7767H64.3889C64.6609 22.8147 64.9358 22.814 65.2088 22.8376C65.6049 22.8804 65.9956 22.9639 66.3746 23.0868C67.5826 23.4481 68.7069 24.0455 69.6825 24.8443C69.9559 25.072 70.2147 25.3167 70.4574 25.5769C70.5074 25.6293 70.568 25.6775 70.5673 25.7611C70.5247 25.8789 70.4326 25.8481 70.3521 25.825C70.2469 25.7894 70.1492 25.735 70.0634 25.6646C69.9423 25.5695 69.8016 25.5025 69.6514 25.4686C69.5012 25.4346 69.3453 25.4346 69.1951 25.4684C68.9728 25.5143 68.9363 25.4786 68.9452 25.2545C68.9509 25.2241 68.947 25.1928 68.9338 25.1648C68.9206 25.1369 68.899 25.1138 68.8719 25.0989C68.4514 24.8848 68.0429 24.6357 67.5424 24.6639C67.432 24.6659 67.3225 24.6852 67.2181 24.7216C66.9887 24.8247 66.753 24.9136 66.5127 24.9879C66.4466 25.0059 66.388 25.0442 66.3446 25.0972C66.3196 25.1183 66.3015 25.1466 66.293 25.1784C66.2844 25.21 66.2858 25.2435 66.2968 25.2745C66.3078 25.3053 66.3281 25.3321 66.3548 25.3513C66.3815 25.3704 66.4133 25.3808 66.4461 25.3813C66.5381 25.3849 66.629 25.4015 66.7162 25.4309C66.7662 25.4476 66.8098 25.4793 66.8412 25.5216C66.8727 25.5639 66.8903 25.6149 66.8918 25.6675C66.889 25.7172 66.8711 25.7648 66.8404 25.8039C66.8097 25.8431 66.7678 25.8719 66.7203 25.8865C66.2907 26.0836 65.8639 26.2865 65.4376 26.4912C65.2741 26.5699 65.2714 26.5653 65.394 26.7121C65.487 26.8124 65.5374 26.9448 65.5346 27.0815C65.5385 27.1155 65.5341 27.15 65.5217 27.1819C65.5093 27.2138 65.4894 27.2422 65.4635 27.2647C65.4377 27.2873 65.4068 27.3032 65.3735 27.3111C65.3401 27.319 65.3054 27.3187 65.2722 27.3102C65.1625 27.2981 65.0576 27.2595 64.9489 27.2392C64.887 27.228 64.8235 27.2295 64.7622 27.2435C64.7009 27.2575 64.6431 27.2838 64.5922 27.3209C64.5414 27.3578 64.4986 27.4047 64.4663 27.4587C64.4341 27.5127 64.4131 27.5727 64.4047 27.635C64.4006 27.6947 64.4087 27.7547 64.4281 27.8114C64.4476 27.868 64.4783 27.9202 64.5183 27.9647C64.5581 28.0094 64.6067 28.0456 64.6607 28.0712C64.7149 28.0967 64.7736 28.1113 64.8335 28.1139C65.0116 28.1103 65.1882 28.0813 65.358 28.0275C65.4249 28.0132 65.4365 27.9406 65.4709 27.8908C65.7053 27.5517 65.9753 27.2596 66.4001 27.1557C66.502 27.1325 66.6077 27.1314 66.71 27.1524C66.8124 27.1734 66.9091 27.216 66.9935 27.2775C67.2059 27.4133 67.3919 27.5842 67.5917 27.7368C67.6223 27.7711 67.665 27.7926 67.7107 27.7969C67.7566 27.8013 67.8025 27.7881 67.839 27.7601C67.8573 27.7452 67.8784 27.7342 67.9011 27.7277C67.9238 27.7211 67.9475 27.7193 67.9709 27.7223C67.9943 27.7251 68.0168 27.7327 68.0372 27.7446C68.0576 27.7565 68.0754 27.7723 68.0895 27.7912C68.2074 27.9528 68.3933 27.9707 68.5528 28.0456C68.5731 28.055 68.5803 28.063 68.5898 28.0392C68.6507 27.8858 68.7934 27.9078 68.9173 27.8843C69.1158 27.8466 69.1904 27.7312 69.1351 27.5596C69.0599 27.3269 69.0813 27.2201 69.2194 27.1401C69.3595 27.0589 69.5015 27.0969 69.6581 27.2578C69.6666 27.2666 69.6744 27.2762 69.6928 27.2939C69.7365 27.2438 69.7519 27.1504 69.838 27.1581C69.9222 27.1656 69.9583 27.2387 69.9902 27.3046C70.0879 27.5099 70.2034 27.7062 70.3353 27.8913C70.3593 27.9156 70.3754 27.9465 70.3816 27.9801C70.3878 28.0137 70.3836 28.0483 70.3698 28.0796C70.3274 28.1556 70.2511 28.154 70.1744 28.1432C69.9235 28.1172 69.6699 28.1386 69.4268 28.2062C69.3802 28.2173 69.3152 28.221 69.3088 28.2773C69.3014 28.3454 69.3725 28.3593 69.4204 28.3804C69.5078 28.4102 69.6003 28.4224 69.6925 28.4162C69.9603 28.4212 70.057 28.5001 70.1114 28.7577C70.1495 28.8999 70.1713 29.046 70.1765 29.193C70.1739 29.3399 70.0944 29.4035 69.9604 29.3539C69.7553 29.289 69.5402 29.2615 69.3253 29.2727C69.0657 29.2859 68.809 29.2134 68.5946 29.0666C68.5129 29.0057 68.4799 29.0309 68.4559 29.1204C68.3868 29.3765 68.3252 29.4178 68.0831 29.3234C67.7401 29.19 67.4806 28.9029 67.1165 28.795C66.9933 28.7584 66.9294 28.6072 66.8921 28.4721C66.8894 28.4507 66.8823 28.43 66.8713 28.4115C66.8604 28.3929 66.8457 28.3767 66.8282 28.3641C66.8108 28.3514 66.7909 28.3423 66.7698 28.3376C66.7486 28.3329 66.7268 28.3325 66.7056 28.3366C66.1387 28.395 65.5711 28.4491 65.0086 28.5417C64.7981 28.5632 64.6027 28.6615 64.4599 28.8178C64.4241 28.8605 64.3756 28.9023 64.3697 28.9547C64.3341 29.2714 64.0768 29.4013 63.8654 29.5725C63.6003 29.7934 63.3842 30.0672 63.231 30.3763C63.1984 30.4292 63.1787 30.4891 63.1734 30.551C63.1682 30.6129 63.1774 30.6752 63.2005 30.7329C63.2566 30.8564 63.2858 30.9904 63.2861 31.126C63.2864 31.2617 63.2579 31.3959 63.2025 31.5197C63.1616 31.6327 63.1449 31.753 63.1535 31.8729C63.1621 31.9926 63.1958 32.1093 63.2523 32.2154C63.4465 32.6377 63.7642 32.9643 64.112 33.2595C64.1911 33.325 64.2872 33.3665 64.3891 33.3791C64.4909 33.3917 64.5943 33.3751 64.6869 33.331C65.0556 33.1776 65.4443 33.0777 65.8413 33.0345C65.9391 33.0241 66.0374 33.0209 66.1357 33.0251C66.1762 33.0225 66.2163 33.0339 66.2495 33.0573C66.2828 33.0807 66.3071 33.1147 66.3183 33.1537C66.3543 33.2906 66.4524 33.3093 66.5712 33.3168C67.0005 33.3438 67.1588 33.5638 67.1091 33.9892C67.0931 34.0844 67.1013 34.1821 67.1333 34.2733C67.1652 34.3644 67.2197 34.4459 67.2918 34.5102C67.5804 34.7552 67.6423 35.0733 67.5806 35.4274C67.5342 35.6435 67.4658 35.8543 67.3765 36.0566C67.2349 36.3796 67.2152 36.7431 67.3212 37.0795C67.4823 37.5758 67.646 38.0712 67.7973 38.5705C67.8723 38.817 67.9477 38.8359 68.169 38.6946C68.3618 38.571 68.5015 38.3869 68.6842 38.2502C68.8301 38.1382 68.994 38.0517 69.1689 37.9944C69.4306 37.9112 69.4553 37.8754 69.4479 37.592C69.4456 37.555 69.4532 37.5179 69.4699 37.4848C69.4866 37.4516 69.5119 37.4236 69.5431 37.4035C69.6147 37.355 69.6728 37.289 69.7118 37.2117C69.7506 37.1345 69.7692 37.0485 69.7656 36.9621C69.7646 36.8567 69.7955 36.7535 69.8541 36.6659C70.2663 36.0683 70.5112 35.3914 70.78 34.7261C71.0422 34.0773 71.2914 33.4235 71.5526 32.7745C71.628 32.5872 71.6271 32.5848 71.4354 32.5421C71.2544 32.4972 71.0971 32.3853 70.9955 32.2289C70.8557 32.035 70.7269 31.8326 70.571 31.6511C70.4518 31.5166 70.3803 31.3465 70.3673 31.1671C70.3369 30.9162 70.2456 30.6764 70.1013 30.4689C70.0112 30.315 69.9527 30.1448 69.9294 29.968C69.9228 29.8943 69.9326 29.8201 69.958 29.7506C69.9634 29.7168 69.979 29.6855 70.0027 29.6609C70.0264 29.6362 70.0571 29.6194 70.0906 29.6127C70.1677 29.6015 70.2146 29.6533 70.253 29.7127C70.3688 29.8938 70.4746 30.0809 70.5704 30.2733C70.8003 30.7279 71.0429 31.1766 71.2446 31.6454C71.3176 31.8148 71.3307 31.8159 71.4882 31.7017C71.559 31.653 71.6357 31.6132 71.7161 31.583C72.0246 31.4573 72.1947 31.242 72.1886 30.9887C72.182 30.7099 72.016 30.5091 71.6923 30.3968C71.5542 30.3634 71.4298 30.2882 71.3361 30.1814C71.3006 30.1425 71.2771 30.0942 71.2684 30.0423C71.2597 29.9904 71.2661 29.937 71.287 29.8887C71.3088 29.8407 71.3452 29.8007 71.391 29.7744C71.4367 29.7482 71.4896 29.737 71.5421 29.7425C71.6161 29.7331 71.691 29.7485 71.7552 29.7863C71.9635 29.9487 72.2018 30.0679 72.4096 30.2275C72.7547 30.4913 72.8705 30.8851 72.9389 31.2894C72.9979 31.6383 73.0671 31.9859 73.1075 32.3379C73.1668 34.1311 72.6655 35.7674 71.7129 37.2728C70.6796 38.9318 69.1575 40.23 67.3562 40.9887C66.6773 41.2924 65.9588 41.4983 65.222 41.6002C64.5088 41.6809 63.7902 41.7012 63.0736 41.6611C62.7182 41.6587 62.3633 41.636 62.0105 41.5931C61.2404 41.4668 60.4904 41.2396 59.7797 40.9173C59.0086 40.5786 58.288 40.1349 57.6383 39.5988C56.7728 38.8893 56.0361 38.0359 55.4607 37.0761C54.9008 36.1422 54.5109 35.1166 54.309 34.0466C54.2652 33.7313 54.2394 33.4138 54.2317 33.0955C54.2294 33.0598 54.2419 33.0215 54.2133 32.9902V32.8058C54.2434 32.7097 54.2434 32.6067 54.2133 32.5107V31.9208C54.2426 31.8373 54.2424 31.7463 54.2128 31.6629Z" stroke="#010101" stroke-width="0.107865" stroke-miterlimit="10"></path>
        </g>
        <mask id="mask6_272_361" style="mask-type:luminance" maskUnits="userSpaceOnUse" x="-18" y="-14" width="155" height="73">
          <path d="M136.094 -13.9038H-17.4559V58.4567H136.094V-13.9038Z" fill="white"></path>
        </mask>
        <g mask="url(#mask6_272_361)">
          <path d="M58.4524 26.7966C58.3237 26.7903 58.1964 26.7682 58.0731 26.7306C57.8204 26.6876 57.6823 26.7693 57.653 26.98C57.7065 27.0032 57.7443 26.9639 57.7822 26.9415C57.866 26.8924 57.9436 26.8463 57.941 27.0058C57.9391 27.1134 58.0281 27.087 58.0869 27.1026C58.251 27.147 58.2676 27.1971 58.1524 27.3236C58.0742 27.4115 57.9724 27.475 57.8591 27.5069C57.7499 27.5373 57.6349 27.5837 57.6359 27.3909C57.6359 27.2963 57.5628 27.3059 57.502 27.3252C57.4011 27.3566 57.3132 27.4198 57.2513 27.5054C57.1854 27.594 57.1264 27.6875 57.0749 27.7853C56.9688 28.0097 56.7787 28.1833 56.5457 28.2688C56.266 28.374 56.239 28.438 56.2768 28.7381C56.2831 28.781 56.276 28.8248 56.2565 28.8635C56.2371 28.9021 56.2061 28.9339 56.1679 28.9544C56.0439 29.0358 55.945 29.15 55.8821 29.2843C55.8425 29.3713 55.7809 29.4464 55.7034 29.5024C55.6261 29.5585 55.5355 29.5934 55.4405 29.6038C55.2634 29.6325 55.0818 29.6743 55.054 29.9038C55.0492 29.9421 55.0205 29.9647 54.991 29.9452C54.8656 29.8634 54.8489 29.9727 54.8156 30.0435C54.6361 30.4348 54.5128 30.8496 54.4495 31.2754C54.4423 31.3204 54.416 31.3783 54.4833 31.4005C54.5076 31.4063 54.5331 31.404 54.5558 31.3939C54.5785 31.3837 54.5974 31.3664 54.6093 31.3445C54.6557 31.2793 54.6882 31.2052 54.7048 31.1269C54.7211 31.0415 54.7667 30.9645 54.8338 30.9091C54.8472 30.8963 54.8644 30.888 54.8828 30.8856C54.9013 30.8832 54.9199 30.8866 54.9363 30.8954C54.9682 30.9145 54.9615 30.9483 54.9577 30.9781C54.9374 31.1488 54.9192 31.3198 54.8931 31.4896C54.8819 31.528 54.8827 31.569 54.8956 31.607C54.9085 31.6449 54.9327 31.678 54.965 31.7018C55.0117 31.737 55.0489 31.7833 55.0734 31.8363C55.0978 31.8895 55.1086 31.9479 55.105 32.0062C55.1084 32.1045 55.1192 32.2022 55.137 32.2988C55.1843 32.5545 55.2719 32.6007 55.5206 32.5134C55.6133 32.4796 55.6966 32.4238 55.7632 32.351C55.8152 32.2942 55.8828 32.2542 55.9576 32.2358C56.0322 32.2175 56.1108 32.2218 56.1831 32.2481C56.5563 32.3457 56.8926 32.4868 57.0901 32.8496C57.1524 32.9508 57.2517 33.0235 57.3669 33.0526C57.4605 33.0822 57.5559 33.1062 57.6518 33.127C58.1265 33.2303 58.2571 33.4138 58.1998 33.8915C58.1897 33.9784 58.1746 34.0414 58.071 34.0595C58.0519 34.0625 58.0338 34.0693 58.0174 34.0796C58.0012 34.09 57.9872 34.1036 57.9764 34.1196C57.9657 34.1355 57.9584 34.1536 57.9549 34.1726C57.9515 34.1915 57.952 34.211 57.9565 34.2298C58.0327 34.2311 58.0722 34.1636 58.1329 34.1457C58.1906 34.1286 58.2524 34.1254 58.2852 34.1755C58.3423 34.264 58.4027 34.2425 58.486 34.2193C58.5566 34.1939 58.6336 34.1919 58.7054 34.2135C58.7773 34.235 58.8403 34.279 58.8853 34.3391C58.918 34.3863 58.9622 34.4246 59.0136 34.4501C59.0651 34.4757 59.1221 34.4879 59.1796 34.4855C59.2776 34.4926 59.3757 34.5017 59.4739 34.5024C59.5844 34.5032 59.6719 34.5162 59.7142 34.6465C59.7501 34.7569 59.8664 34.7999 59.962 34.8558C60.0593 34.9082 60.1534 34.9661 60.244 35.0292C60.2711 35.045 60.2947 35.0661 60.3135 35.0911C60.3323 35.1163 60.3458 35.1449 60.3533 35.1754C60.3608 35.2057 60.362 35.2374 60.357 35.2683C60.352 35.2993 60.3408 35.3289 60.324 35.3554C60.0094 35.8376 59.9299 36.3785 59.895 36.9356C59.8747 37.2603 59.7136 37.4742 59.3768 37.5355C59.2845 37.548 59.1988 37.5901 59.1323 37.6552C59.0658 37.7204 59.0222 37.8053 59.0078 37.8973C58.9634 38.0948 58.898 38.2875 58.8517 38.4846C58.8212 38.6145 58.7697 38.7014 58.5921 38.6577C58.6661 38.8201 58.6752 38.926 58.4601 38.9482C58.3142 38.9633 58.2456 39.1553 58.2852 39.3447C58.3156 39.4991 58.3816 39.6445 58.4778 39.7691C58.5741 39.8937 58.698 39.9943 58.8398 40.0627C58.8987 40.0931 58.9599 40.1201 59.0584 40.1669C58.9983 40.1989 58.9299 40.2119 58.8622 40.2041C58.7946 40.1962 58.731 40.1681 58.6796 40.1234C58.3126 39.875 57.9866 39.5708 57.7137 39.2216C57.318 38.7244 57.0373 38.1458 56.8916 37.5273C56.7952 37.08 56.564 36.6729 56.2292 36.3609C56.0467 36.1852 55.9107 35.9668 55.8334 35.7254C55.7275 35.3846 55.5561 35.0677 55.3289 34.7924C55.1507 34.5878 55.1593 34.5082 55.3123 34.2711C55.3547 34.2055 55.3666 34.1501 55.3092 34.0902C55.2728 34.048 55.2497 33.9961 55.2426 33.9409C55.2356 33.8856 55.245 33.8295 55.2697 33.7796C55.2971 33.7046 55.3186 33.6277 55.3341 33.5493C55.3747 33.286 55.4035 33.031 55.1634 32.8234C55.023 32.6843 54.9151 32.5157 54.8477 32.3298C54.7721 32.1567 54.7202 31.9717 54.5155 31.8889C54.4415 31.8591 54.4313 31.7538 54.4153 31.6794C54.3859 31.5441 54.3193 31.5312 54.2123 31.5881V31.4037C54.2263 31.3851 54.2362 31.3639 54.2416 31.3414C54.255 31.2639 54.2531 31.1847 54.2359 31.108C54.2359 31.0674 54.251 31.0293 54.2529 30.9889C54.2685 30.9243 54.2687 30.8569 54.2534 30.7922C54.2848 30.2498 54.4482 29.7355 54.5966 29.2192C54.6645 28.9905 54.7478 28.7666 54.8462 28.5494C55.2219 27.669 55.7219 26.8469 56.3308 26.1084C56.4298 25.9914 56.5223 25.8287 56.7197 25.8364C56.8357 25.834 56.9043 25.7451 56.9855 25.6842C57.1617 25.5507 57.3313 25.4086 57.5063 25.2735C57.5602 25.2331 57.618 25.1981 57.6788 25.1689C57.6965 25.1562 57.7167 25.1474 57.738 25.1431C57.7595 25.1388 57.7815 25.1391 57.8027 25.144C57.824 25.1488 57.844 25.1582 57.8614 25.1714C57.8787 25.1846 57.893 25.2013 57.9034 25.2205C57.9541 25.3089 57.8796 25.3547 57.8239 25.4008C57.5358 25.6406 57.2283 25.8563 56.9046 26.0455C56.8622 26.0702 56.8172 26.091 56.7772 26.1194C56.6785 26.1892 56.4994 26.2113 56.5473 26.3832C56.5952 26.5551 56.7597 26.5368 56.917 26.5198C56.912 26.6196 56.8542 26.702 56.8703 26.7938C56.8766 26.8298 56.8753 26.8734 56.922 26.8783C56.9558 26.8817 56.9783 26.8506 56.9862 26.8211C57.0582 26.5522 57.3198 26.4318 57.4556 26.2248C57.6187 25.9764 57.8968 25.8601 58.0491 25.614C58.0778 25.5741 58.1148 25.5407 58.1575 25.5162C58.2919 25.4296 58.37 25.4553 58.4054 25.6129C58.4257 25.7022 58.4654 25.7055 58.5331 25.6873C58.5746 25.6764 58.6166 25.667 58.6578 25.6548C58.795 25.6143 58.9116 25.5595 58.8817 25.8093C58.8585 26.0068 59.0408 26.0594 59.212 26.0723C59.2171 26.1743 59.1465 26.2193 59.0851 26.2674C58.9119 26.415 58.7186 26.5376 58.5113 26.6316C58.4167 26.6698 58.4058 26.7193 58.4495 26.7989L58.4524 26.7966Z" fill="#F3F2F1"></path>
        </g>
        <mask id="mask7_272_361" style="mask-type:luminance" maskUnits="userSpaceOnUse" x="-18" y="-14" width="155" height="73">
          <path d="M136.094 -13.9038H-17.4559V58.4567H136.094V-13.9038Z" fill="white"></path>
        </mask>
        <g mask="url(#mask7_272_361)">
          <path d="M63.5778 22.7773C63.5267 22.8048 63.4698 22.8192 63.4118 22.8192C63.3539 22.8192 63.2969 22.8048 63.2459 22.7773H63.5778Z" fill="#7CB7E4"></path>
        </g>
        <mask id="mask8_272_361" style="mask-type:luminance" maskUnits="userSpaceOnUse" x="-18" y="-14" width="155" height="73">
          <path d="M136.094 -13.9038H-17.4559V58.4567H136.094V-13.9038Z" fill="white"></path>
        </mask>
        <g mask="url(#mask8_272_361)">
          <path d="M54.2128 32.5114C54.2398 32.5559 54.2541 32.6069 54.2541 32.6589C54.2541 32.7109 54.2398 32.762 54.2128 32.8064V32.5114Z" fill="#F3F2F1"></path>
        </g>
        <mask id="mask9_272_361" style="mask-type:luminance" maskUnits="userSpaceOnUse" x="-18" y="-14" width="155" height="73">
          <path d="M136.094 -13.9038H-17.4559V58.4567H136.094V-13.9038Z" fill="white"></path>
        </mask>
        <g mask="url(#mask9_272_361)">
          <path d="M63.9858 22.8122C63.8982 22.8073 63.806 22.8358 63.7255 22.7772H63.9836C64.0092 22.7873 64.0092 22.799 63.9858 22.8122Z" fill="#7BB7E4"></path>
        </g>
        <mask id="mask10_272_361" style="mask-type:luminance" maskUnits="userSpaceOnUse" x="-18" y="-14" width="155" height="73">
          <path d="M136.094 -13.9038H-17.4559V58.4567H136.094V-13.9038Z" fill="white"></path>
        </mask>
        <g mask="url(#mask10_272_361)">
          <path d="M54.2128 31.6629C54.2389 31.7009 54.2529 31.7459 54.2529 31.792C54.2529 31.8381 54.2389 31.8831 54.2128 31.9211V31.6629Z" fill="#F3F2F1"></path>
        </g>
        <mask id="mask11_272_361" style="mask-type:luminance" maskUnits="userSpaceOnUse" x="-18" y="-14" width="155" height="73">
          <path d="M136.094 -13.9038H-17.4559V58.4567H136.094V-13.9038Z" fill="white"></path>
        </mask>
        <g mask="url(#mask11_272_361)">
          <path d="M63.986 22.8122C63.985 22.8005 63.9842 22.7888 63.9838 22.7772H64.205C64.1392 22.8358 64.0601 22.8063 63.986 22.8122Z" fill="#96C7EB"></path>
        </g>
        <mask id="mask12_272_361" style="mask-type:luminance" maskUnits="userSpaceOnUse" x="-18" y="-14" width="155" height="73">
          <path d="M136.094 -13.9038H-17.4559V58.4567H136.094V-13.9038Z" fill="white"></path>
        </mask>
        <g mask="url(#mask12_272_361)">
          <path d="M73.0894 31.9559C73.0887 32.0813 73.088 32.2067 73.0873 32.3323C72.9666 31.9574 72.9236 31.5651 72.8322 31.1837C72.7867 30.9479 72.6988 30.7224 72.5728 30.518C72.4872 30.3818 72.3668 30.2711 72.2239 30.1973C72.074 30.126 71.9352 30.0333 71.8117 29.9222C71.7889 29.9016 71.7642 29.8831 71.7381 29.8671C71.5937 29.778 71.4193 29.7922 71.3571 29.8969C71.292 30.0062 71.3594 30.159 71.5183 30.239C71.6025 30.2764 71.6888 30.3082 71.7769 30.3346C71.9179 30.3743 72.0423 30.4583 72.1319 30.5741C72.2214 30.6899 72.2715 30.8315 72.2745 30.9778C72.2775 31.1243 72.2334 31.2678 72.1487 31.3871C72.0639 31.5066 71.9431 31.5956 71.8038 31.6411C71.5168 31.7537 71.5168 31.7537 71.3189 31.9868C71.2628 31.8708 71.2088 31.7629 71.1582 31.6536C70.8613 31.0124 70.5408 30.3832 70.1912 29.7692C70.1679 29.7286 70.1565 29.6585 70.1043 29.6619C70.0398 29.666 70.0372 29.7382 70.0259 29.7902C69.9894 29.9798 70.0276 30.1762 70.1324 30.3383C70.2869 30.6355 70.4063 30.9497 70.4884 31.2746C70.6243 31.7164 70.9451 32.0782 71.288 32.3963C71.4107 32.5102 71.586 32.4751 71.7403 32.446C71.7462 32.4717 71.7468 32.4985 71.7421 32.5245C71.7374 32.5506 71.7277 32.5755 71.7133 32.5977C71.302 33.6301 70.8895 34.662 70.4758 35.6935C70.3392 36.0363 70.1642 36.3625 69.9542 36.6659C69.8782 36.7632 69.8372 36.8833 69.8378 37.0068C69.8465 37.1026 69.8261 37.1989 69.7792 37.2828C69.7323 37.3669 69.661 37.4348 69.5748 37.4775C69.501 37.5158 69.5037 37.5421 69.5353 37.6151C69.6126 37.793 69.5643 37.9464 69.3745 38.0003C68.9483 38.1214 68.6273 38.3859 68.323 38.6852C68.2911 38.7142 68.2568 38.7404 68.2204 38.7633C67.9261 38.9631 67.821 38.9292 67.7157 38.599C67.561 38.1134 67.4146 37.6247 67.2514 37.1425C67.1289 36.7912 67.14 36.4071 67.2826 36.0635C67.3574 35.8818 67.422 35.6962 67.4763 35.5074C67.5981 35.0567 67.4881 34.7666 67.0998 34.5033C67.0151 34.446 67.0736 34.397 67.0873 34.3461C67.1055 34.2789 67.1525 34.2087 67.0179 34.2311C66.939 34.2443 66.9679 34.1844 66.9761 34.1461C67.0007 34.0575 67.0206 33.9677 67.0357 33.877C67.0662 33.5838 66.925 33.423 66.6316 33.4069C66.5707 33.4036 66.5087 33.4048 66.4475 33.4011C66.36 33.3954 66.2711 33.3503 66.2648 33.2716C66.249 33.0626 66.1092 33.1006 65.9831 33.1092C65.5772 33.1277 65.1778 33.2196 64.8045 33.3802C64.4534 33.5385 64.1631 33.4662 63.9013 33.2002C63.6805 32.9865 63.4816 32.7512 63.3075 32.4979C63.0797 32.1492 62.9865 31.7837 63.1539 31.381C63.194 31.2909 63.2131 31.1928 63.2096 31.0942C63.206 30.9956 63.18 30.8992 63.1336 30.8121C63.0957 30.7308 63.0795 30.6412 63.0862 30.5518C63.093 30.4624 63.1226 30.3762 63.1722 30.3015C63.3882 29.8989 63.6998 29.5555 64.0795 29.3016C64.1238 29.2763 64.1616 29.2413 64.1902 29.1992C64.2189 29.1571 64.2375 29.1089 64.2448 29.0586C64.2942 28.7766 64.4961 28.6184 64.7518 28.5249C65.0968 28.3987 65.4636 28.4004 65.8212 28.3498C66.1067 28.3092 66.3951 28.2889 66.6805 28.2492C66.8439 28.2263 66.933 28.2761 66.9764 28.4413C67.0483 28.7153 67.2218 28.8488 67.4947 28.8406C67.5268 28.8363 67.5595 28.8423 67.588 28.8579C67.6165 28.8734 67.6393 28.8976 67.653 28.927C67.7906 29.1459 68.0178 29.2258 68.2507 29.2934C68.3366 29.3183 68.3585 29.2724 68.3609 29.1975C68.3573 29.132 68.3678 29.0664 68.3914 29.0051C68.4152 28.9439 68.4516 28.8884 68.4984 28.8423C68.6999 29.1343 69.0017 29.1825 69.3153 29.1889C69.5791 29.1943 69.8439 29.1868 70.1081 29.3349C70.1006 29.0948 70.0614 28.857 69.9918 28.6272C69.9504 28.4968 69.8235 28.4997 69.7114 28.5054C69.6164 28.5149 69.5205 28.505 69.4295 28.476C69.3386 28.447 69.2546 28.3998 69.1826 28.337C69.0931 28.2576 69.1069 28.2123 69.2177 28.1767C69.5923 28.0521 69.9921 28.0233 70.3806 28.093C70.1624 27.8156 69.9818 27.5105 69.8437 27.1858C69.7566 27.2831 69.7907 27.4074 69.7224 27.5057C69.6757 27.4263 69.624 27.3502 69.5674 27.2776C69.5489 27.2506 69.525 27.2277 69.4973 27.2103C69.4696 27.1929 69.4387 27.1813 69.4064 27.1763C69.374 27.1714 69.341 27.173 69.3094 27.1813C69.2777 27.1895 69.2481 27.2041 69.2223 27.2243C69.0976 27.3113 69.1539 27.4111 69.2088 27.5148C69.3216 27.7279 69.2001 27.9512 68.9342 27.9652C68.721 27.9767 68.5958 28.0277 68.6315 28.2775C68.5479 28.2295 68.5488 28.1609 68.5217 28.1088C68.5014 28.069 68.4782 28.014 68.4304 28.0553C68.2862 28.181 68.2291 28.0486 68.1519 27.9715C68.1115 27.9336 68.0734 27.8935 68.0376 27.8512C67.9796 27.7778 67.922 27.7621 67.8631 27.8457C67.7744 27.9717 67.694 27.9382 67.5928 27.8523C67.3961 27.6856 67.1895 27.5305 66.9861 27.372C66.8872 27.2872 66.7651 27.2338 66.6356 27.2189C66.5061 27.2038 66.375 27.2279 66.2593 27.288C65.9244 27.448 65.6483 27.6754 65.5043 28.0324C65.4887 28.0715 65.4862 28.1237 65.4288 28.1215C65.2417 28.1153 65.0695 28.2 64.8843 28.2067C64.776 28.2149 64.6678 28.1895 64.5746 28.1338C64.4812 28.0781 64.4074 27.995 64.3632 27.8958C64.3166 27.8113 64.2974 27.7145 64.3084 27.6187C64.3192 27.5229 64.3597 27.4328 64.4241 27.361C64.4837 27.2742 64.5688 27.2077 64.6675 27.1707C64.7663 27.1338 64.874 27.1282 64.9761 27.1546C65.0715 27.1779 65.1658 27.2062 65.262 27.2256C65.4418 27.2625 65.4829 27.2216 65.4583 27.0353C65.4295 26.8165 65.2805 26.6819 65.0973 26.5543C65.6142 26.3107 66.1136 26.0757 66.6132 25.8407C66.6576 25.8197 66.7023 25.7992 66.7465 25.7779C66.88 25.7137 66.8573 25.6303 66.7668 25.55C66.6753 25.4859 66.5632 25.4577 66.4522 25.4709C66.3411 25.4687 66.2384 25.4423 66.1985 25.3265C66.1795 25.2707 66.1785 25.2102 66.1956 25.1538C66.2129 25.0974 66.2474 25.0477 66.2943 25.0119C66.3162 24.9903 66.3411 24.972 66.3683 24.9576C67.1077 24.6183 67.8508 24.3706 68.623 24.8715C68.6793 24.9081 68.7429 24.9337 68.8025 24.9656C69.0852 25.117 69.0851 25.1173 68.9858 25.4147C69.0366 25.4489 69.0804 25.4117 69.1253 25.4001C69.2918 25.3544 69.4665 25.3473 69.6362 25.3794C69.8058 25.4115 69.966 25.4818 70.1043 25.585C70.2336 25.6763 70.351 25.8117 70.5398 25.7658C70.7233 25.9559 70.8964 26.1559 71.0586 26.3645C71.3756 26.7439 71.6521 27.1554 71.8832 27.5925C72.1291 28.0158 72.3383 28.4595 72.5082 28.9187C72.7031 29.4484 72.8534 29.9935 72.9574 30.5483C72.9741 30.6507 72.9948 30.7525 73.0137 30.8546C73.0004 30.8826 72.9936 30.9133 72.9936 30.9442C72.9936 30.9753 73.0004 31.0059 73.0137 31.034L73.0497 31.1138C73.0238 31.1955 73.0238 31.2832 73.0497 31.3649L73.0871 31.5183C73.0593 31.6629 73.0593 31.8114 73.0871 31.956" fill="#F3F2F1"></path>
        </g>
        <mask id="mask13_272_361" style="mask-type:luminance" maskUnits="userSpaceOnUse" x="-18" y="-14" width="155" height="73">
          <path d="M136.094 -13.9038H-17.4559V58.4567H136.094V-13.9038Z" fill="white"></path>
        </mask>
        <g mask="url(#mask13_272_361)">
          <path d="M60.2013 24.0537C60.5928 23.7007 61.0976 23.4991 61.6247 23.4853C62.5942 23.4549 63.5637 23.4278 64.5333 23.3999C64.5629 23.3992 64.5919 23.4087 64.6154 23.4269C64.3109 23.5931 64.0394 23.8207 63.685 23.8906C63.6293 23.9014 63.543 23.8561 63.5236 23.9324C63.5046 24.0065 63.5642 24.0698 63.6235 24.1168C63.6566 24.143 63.6946 24.1633 63.7499 24.1993C63.6541 24.2576 63.544 24.2885 63.4318 24.2884C63.2784 24.2908 63.1247 24.2945 62.9714 24.2893C62.7237 24.2739 62.4789 24.3499 62.2835 24.503C62.2174 24.5586 62.1411 24.6005 62.0588 24.6265C61.9765 24.6523 61.8899 24.6618 61.804 24.6542C61.7239 24.65 61.644 24.665 61.571 24.6981C61.4979 24.7312 61.4339 24.7812 61.3841 24.8441C61.2811 24.9748 61.1491 25.0796 60.9985 25.1503C60.7789 25.2315 60.5763 25.1729 60.4858 24.9981C60.4648 24.9656 60.4514 24.9288 60.4465 24.8904C60.4416 24.852 60.4455 24.813 60.4577 24.7762C60.4698 24.7396 60.4902 24.706 60.5171 24.6782C60.544 24.6504 60.5768 24.629 60.6131 24.6156C60.6817 24.5894 60.749 24.5598 60.8147 24.5268C60.9432 24.4475 60.92 24.3712 60.8537 24.2433C60.7278 24.001 60.5573 23.9763 60.3326 24.0649C60.3147 24.0695 60.296 24.0702 60.2777 24.0671C60.26 24.0659 60.2421 24.0614 60.2016 24.0544" fill="#F3F2F1"></path>
        </g>
        <mask id="mask14_272_361" style="mask-type:luminance" maskUnits="userSpaceOnUse" x="-18" y="-14" width="155" height="73">
          <path d="M136.094 -13.9038H-17.4559V58.4567H136.094V-13.9038Z" fill="white"></path>
        </mask>
        <g mask="url(#mask14_272_361)">
          <path d="M70.8334 37.2294C70.7501 37.223 70.6368 37.2381 70.5923 37.1262C70.5735 37.0735 70.5712 37.0164 70.5857 36.9623C70.6002 36.9083 70.6309 36.86 70.6735 36.8238C70.8207 36.6731 70.9374 36.5214 70.8455 36.2886C70.808 36.1931 70.8835 36.1262 70.9737 36.0979C71.2107 36.0241 71.3523 35.8798 71.3438 35.6185C71.3416 35.5936 71.3488 35.5689 71.364 35.5491C71.3792 35.5293 71.4013 35.516 71.4259 35.5117C71.485 35.4975 71.4851 35.5592 71.5053 35.5929C71.5429 35.6559 71.5807 35.7189 71.6169 35.7826C71.6282 35.7975 71.6361 35.8147 71.6403 35.8329C71.6443 35.8512 71.6445 35.8701 71.6408 35.8884C71.637 35.9067 71.6294 35.924 71.6185 35.9392C71.6076 35.9543 71.5936 35.967 71.5773 35.9763C71.3621 36.1068 71.3409 36.3187 71.329 36.5362C71.3243 36.6218 71.3269 36.7078 71.3214 36.7933C71.3011 37.0939 71.1478 37.2338 70.8332 37.2297" fill="#F3F2F1"></path>
        </g>
        <mask id="mask15_272_361" style="mask-type:luminance" maskUnits="userSpaceOnUse" x="-18" y="-14" width="155" height="73">
          <path d="M136.094 -13.9038H-17.4559V58.4567H136.094V-13.9038Z" fill="white"></path>
        </mask>
        <g mask="url(#mask15_272_361)">
          <path d="M59.2854 24.648C59.4203 24.6543 59.5341 24.6413 59.5529 24.7901C59.5638 24.8774 59.5615 24.9574 59.442 24.9498C59.3341 24.9431 59.3088 24.9995 59.3035 25.094C59.3055 25.1266 59.2998 25.1592 59.2868 25.1892C59.2739 25.2193 59.2541 25.2458 59.229 25.2668C59.2041 25.2878 59.1744 25.3026 59.1427 25.3101C59.1109 25.3175 59.0777 25.3175 59.046 25.3099C58.9913 25.3054 58.9291 25.2848 58.8879 25.3296C58.7775 25.4502 58.7095 25.3559 58.6647 25.2763C58.6509 25.2553 58.6424 25.2312 58.6403 25.2061C58.6381 25.181 58.6421 25.1558 58.652 25.1327C58.6619 25.1096 58.6775 25.0893 58.6971 25.0735C58.7168 25.0579 58.7401 25.0474 58.7648 25.0429C58.8204 25.0326 58.8715 25.0051 58.9107 24.9643C58.9498 24.9235 58.9752 24.8715 58.9831 24.8155C59.0253 24.6632 59.1751 24.6457 59.2855 24.6487" fill="#F3F2F1"></path>
        </g>
        <mask id="mask16_272_361" style="mask-type:luminance" maskUnits="userSpaceOnUse" x="-18" y="-14" width="155" height="73">
          <path d="M136.094 -13.9038H-17.4559V58.4567H136.094V-13.9038Z" fill="white"></path>
        </mask>
        <g mask="url(#mask16_272_361)">
          <path d="M58.4504 26.7993C58.4786 26.7879 58.5149 26.784 58.534 26.7637C58.7306 26.5567 58.9602 26.5981 59.1965 26.6684C58.9856 26.9738 58.6496 27.0307 58.4524 26.7967L58.4504 26.7993Z" fill="#F3F2F1"></path>
        </g>
        <mask id="mask17_272_361" style="mask-type:luminance" maskUnits="userSpaceOnUse" x="-18" y="-14" width="155" height="73">
          <path d="M136.094 -13.9038H-17.4559V58.4567H136.094V-13.9038Z" fill="white"></path>
        </mask>
        <g mask="url(#mask17_272_361)">
          <path d="M62.9922 24.8695C63.1615 24.7729 63.318 24.661 63.5098 24.6342C63.5707 24.6257 63.6462 24.6257 63.669 24.6922C63.6929 24.7619 63.6284 24.8055 63.5738 24.8308C63.485 24.8776 63.3872 24.9052 63.2871 24.9118C63.1869 24.9185 63.0865 24.9041 62.9922 24.8695Z" fill="#F3F2F1"></path>
        </g>
        <mask id="mask18_272_361" style="mask-type:luminance" maskUnits="userSpaceOnUse" x="-18" y="-14" width="155" height="73">
          <path d="M136.094 -13.9038H-17.4559V58.4567H136.094V-13.9038Z" fill="white"></path>
        </mask>
        <g mask="url(#mask18_272_361)">
          <path d="M73.0893 31.9559C73.034 31.8151 73.034 31.6586 73.0893 31.5179C73.0893 31.6639 73.0893 31.8099 73.0893 31.9559Z" fill="#D3E5F3"></path>
        </g>
        <mask id="mask19_272_361" style="mask-type:luminance" maskUnits="userSpaceOnUse" x="-18" y="-14" width="155" height="73">
          <path d="M136.094 -13.9038H-17.4559V58.4567H136.094V-13.9038Z" fill="white"></path>
        </mask>
        <g mask="url(#mask19_272_361)">
          <path d="M73.0516 31.3646C73.0272 31.3273 73.0142 31.2837 73.0142 31.239C73.0142 31.1945 73.0272 31.1508 73.0516 31.1135C73.0516 31.1974 73.0516 31.2811 73.0516 31.3646Z" fill="#D3E6F3"></path>
        </g>
        <mask id="mask20_272_361" style="mask-type:luminance" maskUnits="userSpaceOnUse" x="-18" y="-14" width="155" height="73">
          <path d="M136.094 -13.9038H-17.4559V58.4567H136.094V-13.9038Z" fill="white"></path>
        </mask>
        <g mask="url(#mask20_272_361)">
          <path d="M73.0153 31.0335C72.9931 31.0089 72.9808 30.9769 72.9808 30.9438C72.9808 30.9107 72.9931 30.8787 73.0153 30.8541V31.0335Z" fill="#D0E3F3"></path>
        </g>
        <mask id="mask21_272_361" style="mask-type:luminance" maskUnits="userSpaceOnUse" x="-18" y="-14" width="155" height="73">
          <path d="M136.094 -13.9038H-17.4559V58.4567H136.094V-13.9038Z" fill="white"></path>
        </mask>
        <g mask="url(#mask21_272_361)">
          <path d="M54.2516 31.3646C54.2516 31.2806 54.2516 31.1966 54.2516 31.1125C54.2763 31.1499 54.2895 31.1937 54.2895 31.2386C54.2895 31.2835 54.2763 31.3273 54.2516 31.3646Z" fill="#F3F2F1"></path>
        </g>
        <mask id="mask22_272_361" style="mask-type:luminance" maskUnits="userSpaceOnUse" x="-18" y="-14" width="155" height="73">
          <path d="M136.094 -13.9038H-17.4559V58.4567H136.094V-13.9038Z" fill="white"></path>
        </mask>
        <g mask="url(#mask22_272_361)">
          <path d="M54.2874 30.9981C54.288 30.9384 54.2887 30.8787 54.2894 30.8192C54.3113 30.844 54.323 30.876 54.3226 30.909C54.3223 30.9421 54.3097 30.9737 54.2874 30.9981Z" fill="#F3F2F1"></path>
        </g>
      </g>
    </g>
  </g>
</svg>
