<svg width="81" height="74" viewBox="0 0 81 74" fill="none" xmlns="http://www.w3.org/2000/svg">
<circle cx="19.8704" cy="54.2801" r="19.2923" fill="#DDDDDD"/>
<path d="M64.9603 2.14687C65.0817 1.77328 65.6102 1.77328 65.7316 2.14687L66.4806 4.45199C66.5348 4.61907 66.6905 4.73218 66.8662 4.73218H69.29C69.6828 4.73218 69.8461 5.23484 69.5283 5.46573L67.5675 6.89038C67.4253 6.99364 67.3659 7.17666 67.4201 7.34374L68.1691 9.64886C68.2905 10.0225 67.8629 10.3331 67.5451 10.1022L65.5843 8.67758C65.4422 8.57432 65.2497 8.57432 65.1076 8.67758L63.1467 10.1022C62.8289 10.3331 62.4014 10.0225 62.5227 9.64886L63.2717 7.34374C63.326 7.17666 63.2665 6.99364 63.1244 6.89038L61.1636 5.46573C60.8458 5.23484 61.0091 4.73218 61.4019 4.73218H63.8257C64.0013 4.73218 64.157 4.61907 64.2113 4.45199L64.9603 2.14687Z" fill="#5F56AF" fill-opacity="0.2"/>
<path d="M24.6621 63.3093C24.8829 63.53 24.7819 63.9069 24.4803 63.9877L16.1193 66.228C15.8178 66.3088 15.5419 66.0329 15.6227 65.7314L17.863 57.3704C17.9438 57.0689 18.3207 56.9679 18.5414 57.1886L24.6621 63.3093Z" fill="#5F56AF" fill-opacity="0.2"/>
<circle cx="74.8678" cy="20.1823" r="5.88541" fill="#DADADA"/>
<path d="M12.7089 5.56902C13.2634 5.40508 13.9396 5.21591 14.1966 5.14024C14.4535 5.07719 15.3732 5.01413 16.2252 5.00152C17.4695 4.98891 18.024 5.05197 18.9977 5.29158C19.6604 5.46813 20.526 5.72036 20.8912 5.87169C21.2698 6.02302 21.9596 6.38874 22.4465 6.6788C22.9333 6.98147 23.6637 7.49852 24.0694 7.85163C24.4751 8.20474 24.9755 8.7218 25.5571 9.52891L26.2062 9.15058C26.5579 8.9488 27.2071 8.64613 28.4648 8.20474L40.0552 8.16691C50.1579 8.14169 51.7809 8.16691 52.5653 8.34347C53.0792 8.44435 53.8501 8.7218 54.2829 8.93619C54.7292 9.16319 55.3378 9.54152 55.6353 9.79374C55.9464 10.046 56.4197 10.5504 56.7037 10.9287C56.9742 11.3071 57.38 12.0133 57.948 13.3753L57.9886 35.1925C58.0156 56.8332 58.0156 57.0223 57.7451 58.0186C57.5828 58.5735 57.2718 59.3428 57.0419 59.7211C56.7984 60.0994 56.298 60.7048 55.9193 61.0579C55.5542 61.3984 54.9456 61.8524 54.5669 62.0542C54.2017 62.2559 53.4985 62.5586 52.1325 63H28.8706L27.8562 62.6847C27.3017 62.5082 26.5173 62.1677 26.1386 61.9281C25.7464 61.6884 25.1784 61.2471 24.8673 60.957C24.5698 60.6543 24.1505 60.1625 23.9612 59.8472C23.7583 59.5319 23.4473 58.914 22.9198 57.6403L22.8387 27.2475L22.203 27.5376C21.5809 27.815 21.4998 27.815 16.3605 27.815C11.2212 27.815 11.1401 27.815 10.5585 27.5376C10.2204 27.3736 9.77411 27.0457 9.57124 26.8061C9.24666 26.4404 9.15199 26.1756 9.04379 25.2928C8.97617 24.7001 8.78683 23.9686 8.63806 23.6533C8.48929 23.3381 8.13766 22.8336 7.85365 22.5183C7.58316 22.2031 7.15038 21.6734 6.89341 21.3203C6.63645 20.9798 6.25777 20.324 6.04138 19.87C5.82499 19.416 5.5004 18.5206 5.32459 17.8901C5.09467 17.0577 5 16.3767 5 15.5192C5 14.6616 5.09467 13.9932 5.32459 13.1609C5.5004 12.5177 5.81146 11.6476 6.01433 11.2314C6.20367 10.8152 6.63645 10.109 6.96104 9.65502C7.2721 9.20102 8.00241 8.41913 8.57044 7.9273C9.13846 7.42285 10.0716 6.75447 10.6397 6.43919C11.2212 6.12391 12.1544 5.73297 12.7089 5.56902Z" fill="#1D1D1B"/>
<path d="M27.5199 13.9698C27.574 13.7176 27.6687 13.3771 27.7363 13.2131C27.8445 12.9357 27.8986 12.9231 30.3465 12.9987L30.5765 13.8184C30.7387 14.3859 30.9416 14.7643 31.2527 15.0669C31.4961 15.2939 31.9018 15.5714 32.1453 15.6597C32.3752 15.7606 32.8891 15.8362 33.2543 15.8362C33.633 15.8362 34.1198 15.7479 34.3362 15.6471C34.5526 15.5462 34.8231 15.4831 34.9178 15.5209C34.9989 15.5588 35.2694 15.8867 35.5129 16.2398C35.7428 16.6055 36.0133 17.0469 36.1079 17.2234C36.2567 17.5135 36.2161 17.5892 35.5805 18.1693C35.1071 18.6107 34.8502 18.9638 34.742 19.3673C34.6067 19.8213 34.6202 20.0736 34.7555 20.6158C34.8907 21.1707 35.0666 21.4229 36.2973 22.5579L35.8645 23.3272C35.6211 23.7434 35.31 24.21 35.1477 24.3487C34.8772 24.5883 34.8366 24.5883 34.2957 24.4118C33.9846 24.3109 33.4571 24.2226 33.119 24.2352C32.7809 24.2352 32.2535 24.3613 31.9424 24.5127C31.6178 24.664 31.2121 25.0045 31.0228 25.2567C30.8334 25.5216 30.617 26.0134 30.5359 26.3665C30.4683 26.707 30.3736 27.0223 30.333 27.0601C30.2924 27.0979 29.9138 27.1484 29.4945 27.1736C29.0617 27.1988 28.4937 27.1862 28.2232 27.1358C27.7363 27.0601 27.7093 27.0349 27.6417 26.5178C27.6011 26.2278 27.3847 25.7233 27.1683 25.3828C26.8978 25.0045 26.5597 24.6892 26.1946 24.5127C25.87 24.3613 25.3425 24.2352 25.0044 24.2352C24.6663 24.2226 24.1388 24.3109 23.8278 24.4118C23.3139 24.5883 23.2327 24.5757 23.0163 24.3866C22.8811 24.2731 22.5565 23.8191 21.8262 22.5579L22.5159 21.94C22.9757 21.5112 23.2462 21.1455 23.368 20.7546C23.4761 20.4014 23.5032 19.9853 23.4491 19.6826C23.395 19.4052 23.2733 19.0394 23.1786 18.8629C23.0839 18.6863 22.7999 18.3837 22.5565 18.1693C22.2995 17.9549 22.0426 17.7153 21.9885 17.627C21.9344 17.5513 22.0696 17.1478 22.2995 16.7442C22.5159 16.3533 22.827 15.8993 22.9757 15.7353C23.1245 15.584 23.2868 15.4579 23.3544 15.4579C23.4085 15.4705 23.5979 15.5462 23.7872 15.6471C23.9766 15.7479 24.4499 15.8236 24.8421 15.8362C25.2208 15.8362 25.7482 15.7606 25.9917 15.6723C26.2216 15.5714 26.6544 15.2561 26.9384 14.9787C27.2495 14.6508 27.4658 14.2724 27.5199 13.9698Z" fill="#EBEBEB"/>
<path d="M11.0334 29.7922C10.9117 29.4769 10.9387 29.3887 11.2228 29.1869C11.5203 28.9599 11.8314 28.9473 16.3891 28.9473C21.0685 28.9473 21.2579 28.9599 21.5148 29.1995C21.6636 29.3382 21.7853 29.4895 21.7853 29.54C21.7988 29.603 21.6906 29.767 21.312 30.2084L11.1687 30.1453L11.0334 29.7922Z" fill="#1D1D1B"/>
<path d="M10.9928 32.1C10.9793 31.9235 11.0334 31.7091 11.1146 31.6208C11.2363 31.5073 12.467 31.4695 16.3891 31.4695C21.3796 31.4695 21.5148 31.4821 21.6501 31.7217C21.7312 31.8604 21.7583 32.0874 21.7177 32.2262C21.6771 32.3649 21.5013 32.5288 21.312 32.6045C21.1091 32.6802 19.121 32.7306 16.335 32.7306C12.8863 32.7306 11.6285 32.6802 11.3715 32.5667C11.1687 32.4784 11.0199 32.2766 10.9928 32.1Z" fill="#1D1D1B"/>
<path d="M12.8322 34.5214C12.8186 34.3322 12.8863 34.1052 12.9945 34.0169C13.1432 33.9034 14.0358 33.8656 19.689 33.9287L19.8243 34.2692C19.9325 34.5466 19.9054 34.6601 19.689 34.8745C19.4321 35.1267 19.2833 35.1393 16.4026 35.1267C14.685 35.1267 13.2785 35.0763 13.1297 35.0006C12.9674 34.9249 12.8457 34.7358 12.8322 34.5214Z" fill="#1D1D1B"/>
<path d="M26.9468 10.1988C27.2714 10.0096 27.8664 9.75741 28.2722 9.64391C28.9619 9.42952 29.9086 9.41691 40.3765 9.4043C51.3583 9.4043 51.764 9.4043 52.6161 9.65652C53.1029 9.79524 53.8197 10.0979 54.1984 10.3501C54.5906 10.5897 55.1586 11.0942 55.4562 11.4473C55.7402 11.813 56.1324 12.4562 56.6058 13.629L56.6734 52.9126H24.2148V25.6726L24.5124 25.5339C24.7423 25.4204 24.9587 25.4204 25.3238 25.5339C25.6079 25.6096 25.9324 25.7987 26.0406 25.9627C26.1488 26.114 26.2841 26.4671 26.3246 26.7446C26.3787 27.022 26.5005 27.4003 26.5951 27.6021C26.7033 27.7913 26.9873 28.0435 27.2173 28.1696C27.5689 28.3336 27.9881 28.384 29.0836 28.384C30.1791 28.384 30.5984 28.3336 30.9365 28.1696C31.1799 28.0435 31.4639 27.7913 31.5721 27.6021C31.6668 27.4003 31.802 27.022 31.8561 26.7446C31.9102 26.4671 32.059 26.114 32.1807 25.9501C32.3024 25.7861 32.6135 25.597 32.8705 25.5213C33.2356 25.4204 33.4655 25.4456 33.8848 25.597C34.1823 25.7105 34.6557 25.7987 34.9262 25.7987C35.3319 25.7987 35.5618 25.6978 35.9946 25.3321C36.3192 25.0421 36.7655 24.4367 37.0901 23.844C37.5499 22.9738 37.6175 22.7595 37.5364 22.3307C37.4687 21.965 37.2929 21.6875 36.8737 21.3218C36.5491 21.0443 36.211 20.6786 36.1163 20.5021C36.0216 20.3255 35.9811 20.0102 36.0352 19.7832C36.0893 19.4932 36.3056 19.2157 36.7384 18.9005C37.1171 18.5978 37.4011 18.2573 37.4958 17.9798C37.604 17.6393 37.5905 17.3997 37.4417 16.971C37.3335 16.6557 36.9548 15.9873 36.6167 15.4955C36.1434 14.8145 35.8458 14.5244 35.4807 14.3731C35.0479 14.1965 34.8856 14.1839 34.4258 14.3226C34.1282 14.3983 33.6413 14.4992 33.3438 14.537C32.8975 14.5875 32.7217 14.537 32.3565 14.2722C32.0049 14.0074 31.9102 13.8182 31.8291 13.2885C31.775 12.885 31.6127 12.4814 31.4233 12.2796C31.2475 12.0779 30.8824 11.8635 30.6119 11.7878C30.3143 11.7121 29.5435 11.6743 28.8131 11.7121C28.1099 11.7374 27.4066 11.813 27.2578 11.8509C27.0279 11.9391 26.9468 11.8509 26.7169 11.3338C26.5681 11.0059 26.4328 10.6906 26.4193 10.6402C26.3923 10.5771 26.6357 10.388 26.9468 10.1988Z" fill="#EBEBEB"/>
<path d="M12.5261 6.96669C12.9724 6.79014 13.7703 6.56314 14.2842 6.44964C14.9334 6.31092 15.6637 6.27308 16.651 6.2983C17.4354 6.33614 18.4362 6.44964 18.8825 6.56314C19.3288 6.67664 20.1268 6.95408 20.6407 7.18108C21.1546 7.42069 21.9796 7.89991 22.4665 8.26564C22.9534 8.61875 23.6431 9.23669 23.9948 9.62764C24.3464 10.0186 24.9009 10.8257 25.2255 11.4184C25.5501 12.0111 25.8882 12.8182 26.1857 13.9659L25.78 14.2811C25.4554 14.546 25.2796 14.5838 24.8333 14.5334C24.5357 14.4955 24.0489 14.3946 23.7513 14.3064C23.278 14.1802 23.1427 14.1802 22.6694 14.3946C22.2907 14.5712 21.9796 14.8612 21.5739 15.454C21.2764 15.908 20.9112 16.5637 20.776 16.9042C20.5731 17.4087 20.5596 17.6231 20.6813 17.9762C20.7624 18.241 21.06 18.6067 21.4387 18.8968C21.8714 19.2121 22.0878 19.4895 22.1419 19.7796C22.196 20.0066 22.1554 20.3219 22.0608 20.4984C21.9661 20.675 21.628 21.0407 21.3034 21.3181C20.9383 21.646 20.6948 21.9865 20.6272 22.264C20.5596 22.6171 20.6272 22.8819 21.0059 23.6512C21.2628 24.1682 21.6686 24.8114 21.8985 25.0762C22.3177 25.5302 22.3177 25.5555 22.1284 25.9212C22.0202 26.1356 21.8038 26.35 21.655 26.4256C21.4928 26.5013 19.4235 26.5517 11.2413 26.5517L10.8355 26.1734C10.538 25.896 10.4298 25.6816 10.4298 25.3537C10.4298 25.1141 10.3622 24.6096 10.281 24.2565C10.1999 23.8908 9.96997 23.3107 9.79415 22.9576C9.60481 22.6171 9.19908 22.0496 8.90154 21.6965C8.59048 21.356 8.11712 20.7254 7.84664 20.3092C7.57615 19.8931 7.19746 19.149 7.00812 18.6698C6.83231 18.1906 6.60239 17.333 6.50772 16.7781C6.41305 16.2106 6.37248 15.3783 6.42657 14.8865C6.46715 14.4072 6.60239 13.6632 6.71059 13.247C6.81878 12.8309 7.18394 11.9859 7.50853 11.3554C7.92778 10.5609 8.37409 9.94291 9.03678 9.28714C9.53719 8.78269 10.3486 8.1143 10.8355 7.82425C11.3224 7.52158 12.0798 7.14325 12.5261 6.96669Z" fill="#EBEBEB"/>
<path d="M24.196 55.3569C24.1824 54.802 24.223 54.2976 24.2906 54.2597C24.3582 54.2093 31.6479 54.1841 56.6139 54.2345L56.6545 55.4326C56.6815 56.0884 56.6274 56.9711 56.5463 57.3873C56.4516 57.8035 56.2082 58.4719 55.9918 58.8754C55.7754 59.2664 55.3426 59.8339 55.0316 60.1365C54.707 60.4392 54.1795 60.8301 53.8414 61.0193C53.5033 61.1959 52.8676 61.4355 52.4213 61.549C51.7181 61.7129 50.1628 61.7381 28.6184 61.6751L27.6988 61.2715C27.1984 61.0445 26.4545 60.5527 26.0353 60.1996C25.5754 59.7834 25.1291 59.2411 24.8857 58.7745C24.6828 58.3584 24.4394 57.6521 24.3582 57.1981C24.2906 56.7441 24.2095 55.9244 24.196 55.3569Z" fill="#EBEBEB"/>
<path d="M12.2583 9.86861C12.5558 9.67944 13.1644 9.38938 13.6108 9.21283C14.0571 9.04888 14.4493 8.89755 14.4898 8.89755C14.5304 8.88494 14.7062 8.98583 14.882 9.11194C15.139 9.2885 15.1796 9.41461 15.112 9.69205C15.0579 9.93166 14.882 10.083 14.5304 10.2217C14.2464 10.3352 13.746 10.537 13.4349 10.7009C13.1103 10.8523 12.5288 11.2684 12.1501 11.6215C11.7579 11.9873 11.271 12.6052 11.0546 13.0088C10.8382 13.4249 10.5948 14.0555 10.5137 14.4338C10.4055 14.913 10.2702 15.1653 10.0674 15.2788C9.79687 15.4301 9.7022 15.4301 9.41819 15.2662C9.21532 15.1527 9.08008 14.9635 9.08008 14.7995C9.08008 14.6356 9.17475 14.1942 9.28294 13.8159C9.39114 13.4375 9.67515 12.7565 9.91859 12.3152C10.162 11.8738 10.6624 11.218 11.0411 10.8523C11.4063 10.4992 11.9608 10.0578 12.2583 9.86861Z" fill="#1D1D1B"/>
<path d="M37.008 13.6267C36.8321 13.3493 36.8321 13.2736 37.008 12.9962L37.2108 12.6809H40.4567C43.1616 12.6809 43.7431 12.7187 43.9054 12.87C44.0136 12.9709 44.1083 13.1601 44.1083 13.2862C44.1083 13.3997 44.0001 13.6015 43.8648 13.7276C43.662 13.9294 43.3238 13.9546 37.2108 13.942L37.008 13.6267Z" fill="#1D1D1B"/>
<path d="M27.311 17.2587C27.6626 17.0695 28.136 16.8804 28.3523 16.8173C28.5823 16.7669 29.0691 16.7543 29.4343 16.7921C29.813 16.8299 30.4081 17.0065 30.7732 17.1957C31.1384 17.3848 31.6117 17.7379 31.8281 17.9775C32.031 18.2172 32.315 18.6964 32.4367 19.0495C32.572 19.453 32.6261 19.907 32.5855 20.3106C32.5449 20.6511 32.3961 21.1682 32.2474 21.4456C32.0986 21.723 31.7605 22.1392 31.517 22.3662C31.2601 22.5932 30.8408 22.8707 30.5839 22.9968C30.2593 23.1355 29.7859 23.2112 29.0962 23.2112C28.4064 23.2112 27.9331 23.1355 27.6085 22.9968C27.3515 22.8707 26.9323 22.5932 26.6888 22.3662C26.4319 22.1392 26.1073 21.723 25.9585 21.4456C25.8098 21.1682 25.6475 20.6511 25.6204 20.3106C25.5663 19.8944 25.6204 19.4657 25.7692 19.0495C25.8909 18.6964 26.1479 18.2298 26.3372 18.0028C26.513 17.7884 26.9593 17.4479 27.311 17.2587Z" fill="#1D1D1B"/>
<path d="M31.7875 30.1473C31.9363 29.8698 32.2474 29.5167 32.5043 29.3654C32.9371 29.0879 33.0724 29.0753 35.7908 29.0753C38.3198 29.0879 38.685 29.1132 39.0366 29.3149C39.2665 29.441 39.5776 29.7942 39.7534 30.0968C40.0509 30.6265 40.0509 30.7652 40.0239 33.1361C39.9833 35.4187 39.9698 35.6457 39.6993 35.9736C39.5505 36.1628 39.2124 36.4528 38.9555 36.6168C38.5227 36.8942 38.3874 36.9068 35.7908 36.9068C33.2076 36.9068 33.0724 36.8942 32.6261 36.6168C32.3691 36.4528 32.0445 36.1628 31.8822 35.9736C31.6252 35.6457 31.5982 35.4187 31.5576 33.1361C31.5306 30.8913 31.5576 30.6013 31.7875 30.1473Z" fill="#1D1D1B"/>
<path d="M42.6612 30.286C42.9722 30.0464 43.4726 29.7563 43.7702 29.6554C44.0677 29.5545 44.7033 29.4663 45.1902 29.4663C45.7988 29.4663 46.2586 29.5419 46.6779 29.7185C47.016 29.8572 47.5435 30.2103 47.868 30.5004C48.2062 30.8157 48.5578 31.2949 48.7066 31.6984C48.8553 32.0515 48.977 32.619 48.977 32.9595C48.977 33.2874 48.8824 33.8423 48.7471 34.1828C48.5984 34.599 48.3008 35.0278 47.841 35.4565C47.3812 35.8727 46.9213 36.1628 46.475 36.3015C46.1099 36.4276 45.4607 36.5159 45.055 36.5159C44.4869 36.5159 44.1083 36.4276 43.4456 36.1123C42.8234 35.8223 42.4448 35.5322 42.1337 35.1286C41.8903 34.8134 41.6198 34.3342 41.5386 34.0567C41.444 33.7793 41.3763 33.2118 41.3899 32.7956C41.3899 32.2659 41.4981 31.8372 41.7415 31.3832C41.9308 30.9922 42.323 30.5256 42.6612 30.286Z" fill="#1D1D1B"/>
<path d="M41.214 38.7859C41.3628 38.5463 41.7009 38.2184 41.9444 38.067V38.0544C42.3771 37.7896 42.5259 37.777 45.1226 37.777C47.5029 37.777 47.8816 37.8022 48.3008 38.0166C48.5578 38.1427 48.9094 38.4706 49.0852 38.7354C49.3828 39.2147 49.3828 39.3282 49.3557 41.8378C49.3152 44.2591 49.3016 44.4735 49.0311 44.8014C48.8824 44.9905 48.5443 45.268 48.2873 45.4067C47.8951 45.6211 47.5299 45.6589 45.7312 45.6968C44.5816 45.722 43.3238 45.7094 42.9316 45.6715C42.3501 45.6085 42.1067 45.5076 41.6739 45.1166C41.3087 44.814 41.0653 44.4735 40.9841 44.1456C40.903 43.8555 40.8624 42.6827 40.8895 41.4342C40.93 39.4795 40.9706 39.1768 41.214 38.7859Z" fill="#1D1D1B"/>
<path d="M34.6412 38.5715C34.7629 38.4201 35.074 38.2436 35.3309 38.1805C35.5879 38.1175 35.9125 38.0923 36.0612 38.1301C36.21 38.1553 36.4805 38.294 36.6698 38.4075C36.8592 38.5336 37.6977 39.7317 38.5362 41.0811C39.4423 42.5566 40.0509 43.6664 40.0509 43.8681C40.0509 44.0699 39.9563 44.3978 39.8481 44.5996C39.7399 44.814 39.4423 45.0662 39.1719 45.1671C38.8067 45.3184 38.0764 45.3563 35.7908 45.3563C33.5592 45.3563 32.7883 45.3184 32.4502 45.1797C32.1797 45.0662 31.9093 44.814 31.7605 44.5113C31.5982 44.2086 31.5306 43.906 31.5847 43.679C31.6252 43.4898 32.2879 42.3296 33.0453 41.1063C33.8027 39.8704 34.5195 38.7354 34.6412 38.5715Z" fill="#1D1D1B"/>
<path d="M36.8051 57.7782C36.8051 57.6773 36.9268 57.4755 37.0756 57.3368C37.3325 57.0972 37.5354 57.0846 40.4296 57.0846C43.2698 57.072 43.5267 57.0972 43.8378 57.3242C44.1353 57.5386 44.1624 57.6143 43.9054 58.2826L40.5513 58.3079C37.7383 58.3457 37.1838 58.3205 37.008 58.1565C36.8998 58.0556 36.8051 57.8791 36.8051 57.7782Z" fill="#1D1D1B"/>
<path d="M42.2363 41.6098C42.2634 40.0208 42.331 39.4028 42.4663 39.2515C42.615 39.0623 42.9802 39.0371 45.1306 39.0371C47.1592 39.0371 47.6596 39.0749 47.8219 39.2263C47.9842 39.3776 48.0248 39.8316 48.0248 41.6602C48.0248 43.4006 47.9842 43.9428 47.8354 44.1446C47.6596 44.3842 47.4838 44.3968 42.7232 44.3968L42.4527 44.0816C42.2093 43.7915 42.1958 43.6149 42.2363 41.6098Z" fill="#EBEBEB"/>
<path d="M43.0121 31.8498C43.215 31.4967 43.5395 31.1815 43.8776 31.0049C44.2383 30.8115 44.644 30.7148 45.0948 30.7148C45.4735 30.7148 45.9739 30.8157 46.2309 30.9418C46.4879 31.0553 46.8801 31.358 47.0829 31.5976C47.3534 31.9003 47.5022 32.2282 47.5563 32.6696C47.6104 33.1362 47.5698 33.4515 47.3669 33.8676C47.2317 34.1829 46.8936 34.5865 46.6366 34.7882C46.3932 34.9774 45.9334 35.1666 45.6358 35.2044C45.3383 35.2548 44.8649 35.2548 44.5809 35.2044C44.2969 35.1666 43.8776 34.9522 43.5936 34.7126C43.3231 34.4982 43.0121 34.1325 42.8904 33.9307C42.7822 33.7163 42.6875 33.3001 42.6875 32.9848C42.6875 32.6191 42.7957 32.2156 43.0121 31.8498Z" fill="#EBEBEB"/>
<path d="M27.5843 18.6077C27.8006 18.4059 28.1929 18.1789 28.4363 18.1159H28.4228C28.6662 18.0402 29.0855 18.0276 29.3424 18.0528C29.5994 18.0907 29.9916 18.2294 30.2215 18.3555C30.4514 18.4816 30.776 18.8473 30.9518 19.1878C31.1953 19.667 31.2629 19.9193 31.1953 20.3102C31.1547 20.5877 30.9924 20.9534 30.8572 21.1299C30.7219 21.3065 30.3973 21.5713 30.1404 21.7353C29.8428 21.9244 29.4777 22.0127 29.099 22.0127C28.7879 22.0127 28.3687 21.937 28.1523 21.8362C27.9494 21.7479 27.6248 21.4957 27.4084 21.2687C27.2056 21.0543 27.0027 20.6633 26.9621 20.4111C26.908 20.1463 26.9486 19.7175 27.0298 19.4653C27.1109 19.2004 27.3543 18.8221 27.5843 18.6077Z" fill="#ECEFF1"/>
<path d="M32.8142 32.9969C32.8007 31.0169 32.8142 30.7773 33.0441 30.5629C33.2605 30.3612 33.5445 30.3359 35.7625 30.3359C37.7912 30.3359 38.2916 30.3738 38.4539 30.5251C38.6162 30.6764 38.6567 31.1304 38.6567 32.9464C38.6567 34.9012 38.6162 35.2164 38.4133 35.4182C38.2104 35.62 37.9129 35.6452 35.749 35.6326C33.6392 35.6326 33.2875 35.5948 33.0711 35.4056C32.8683 35.2164 32.8277 34.9264 32.8142 32.9969Z" fill="#EBEBEB"/>
<path d="M32.9316 43.9561C32.8911 43.8805 33.4861 42.8337 34.2435 41.6231C35.0009 40.4124 35.6906 39.4161 35.7582 39.4161C35.8394 39.4035 36.5291 40.3998 37.3 41.6231C38.0574 42.8337 38.6525 43.8805 38.6119 43.9561C38.5713 44.0318 37.4894 44.0822 35.7718 44.0822C34.0542 44.0822 32.9722 44.0318 32.9316 43.9561Z" fill="#EBEBEB"/>
</svg>
