<svg width="92" height="92" viewBox="0 0 92 92" fill="none" xmlns="http://www.w3.org/2000/svg">
<path d="M39.1719 3.59375H43.8438L48.1562 5.03125L51.0312 7.1875L53.1875 9.70312H56.7812L60.375 10.4219L63.9688 12.5781L65.7656 14.7344V15.4531H75.4688L78.7031 16.5312L80.8594 17.9688L83.0156 21.2031L83.375 22.2812V65.0469L81.9375 67.9219L79.4219 70.4375L76.5469 71.5156H52.1094V74.75H57.8594L60.0156 75.8281L61.8125 78.7031L63.6094 82.6562V85.5312L62.5312 87.3281L60.7344 88.7656H29.8281L27.6719 87.3281L26.5938 85.1719L26.9531 82.2969L29.8281 76.5469L31.2656 75.1094L32.3438 74.75H38.4531V71.5156H13.6562L10.0625 69.7188L7.90625 67.2031L6.82812 64.3281V23L8.26562 19.4062L10.7812 16.8906L13.2969 15.8125L15.0938 15.4531H27.3125L28.0312 12.2188L30.1875 8.625L33.4219 5.75L36.2969 4.3125L39.1719 3.59375ZM38.8125 5.39062L35.5781 6.46875L32.7031 8.625L30.5469 11.1406L29.1094 14.375L28.3906 17.25L25.5156 18.6875L23.3594 21.2031L22.6406 23V28.0312L20.125 29.8281L18.6875 32.7031V36.2969L20.125 39.1719L23 41.3281L24.0781 41.6875H65.4062L68.2812 40.25L70.7969 37.375L71.875 34.1406L71.5156 30.9062L69.7188 27.6719L66.4844 25.5156L64.6875 25.1562L65.4062 22.6406V18.3281L63.6094 14.7344L60.7344 12.5781L57.8594 11.5H54.9844L52.4688 11.8594L50.3125 8.98438L47.7969 6.82812L43.8438 5.39062H38.8125ZM14.375 17.25L11.5 18.6875L9.34375 21.2031L8.625 23V64.3281L10.0625 67.2031L12.2188 69L15.0938 70.0781H75.1094L78.3438 69L80.8594 66.4844L81.9375 63.25V23.7188L80.8594 20.8438L79.0625 18.6875L75.8281 17.25H66.8438L67.2031 21.5625L75.4688 21.9219L76.9062 23L77.2656 24.0781V58.9375L76.5469 60.7344L75.8281 61.0938H14.375L13.2969 59.6562V23.3594L14.0156 22.2812L15.0938 21.9219L21.5625 21.5625L23.3594 18.6875L24.4375 17.25H14.375ZM15.0938 23.3594L14.375 24.7969V58.5781L15.4531 60.0156H74.75L75.8281 58.9375V24.0781L75.1094 23.3594H66.8438V24.0781L70.4375 26.2344L72.2344 28.75L72.9531 30.9062V35.9375L71.1562 39.5312L70.7969 40.6094L69.3594 41.3281L66.4844 42.7656L63.6094 43.4844V46.7188L66.125 49.5938L67.2031 50.3125H69.3594L70.7969 51.75L70.4375 54.9844L67.9219 55.3438L66.125 54.9844L65.7656 51.3906L62.8906 48.5156L62.5312 47.7969L62.1719 43.4844H53.1875V47.0781L55.7031 49.9531L56.7812 50.6719H58.9375L60.0156 51.75V54.625L58.2188 55.7031L56.0625 55.3438L55.3438 54.2656L54.9844 51.3906L52.4688 48.875L51.75 47.0781L51.3906 43.4844H46V50.3125L47.4375 51.3906L47.7969 53.1875L47.0781 54.9844L46.3594 55.3438H44.2031L42.7656 54.2656V51.75L44.2031 50.3125V43.4844H38.8125L38.4531 47.7969L35.9375 50.6719L35.2188 51.3906V53.5469L34.5 54.9844L33.7812 55.3438H31.625L30.1875 53.9062V51.75L31.2656 50.6719L33.0625 50.3125L34.5 49.9531L37.0156 47.4375V43.4844H28.3906L27.6719 48.1562L24.7969 51.3906L24.4375 54.2656L23 55.3438H20.8438L19.7656 54.2656V51.3906L21.5625 50.3125H23.7188L26.5938 47.0781V43.4844L21.9219 42.4062L19.0469 40.25L17.6094 37.375L17.25 35.9375V33.0625L18.3281 29.8281L19.7656 28.0312L21.2031 26.9531L20.8438 23.3594H15.0938ZM21.5625 51.75L20.8438 53.1875L21.2031 53.9062L23 53.5469L22.6406 51.75H21.5625ZM32.3438 51.75L31.625 52.1094L31.9844 53.9062H33.4219L33.7812 52.4688L32.3438 51.75ZM44.5625 51.75L44.2031 53.5469L46 53.9062L46.3594 52.4688L45.6406 51.75H44.5625ZM67.5625 51.75L67.2031 53.1875L68.6406 53.9062L69.3594 53.1875L69 51.75H67.5625ZM57.1406 52.1094L56.7812 53.9062L58.2188 54.2656L58.9375 52.8281L58.2188 52.1094H57.1406ZM39.8906 71.5156V81.2188L40.6094 81.9375H49.9531L50.3125 81.5781V71.5156H39.8906ZM32.3438 76.5469L30.5469 78.7031L28.3906 83.375L28.75 85.8906L30.1875 86.9688L31.2656 87.3281H58.9375L60.7344 86.6094L61.8125 85.5312V83.0156L58.9375 77.2656L57.8594 76.5469H52.1094L51.75 81.9375L50.6719 83.0156L49.5938 83.375H40.6094L38.8125 82.2969L38.4531 76.5469H32.3438Z" fill="#5F56AF" fill-opacity="0.75"/>
<path d="M43.4844 14.375H47.0781L48.1562 15.8125V16.5312L50.6719 16.8906H52.8281L54.9844 19.4062L54.625 21.5625L55.3438 23.3594L57.1406 24.4375V28.0312L56.0625 29.1094L54.9844 30.1875L54.625 31.625V33.7812L52.4688 35.9375H49.5938L48.1562 36.6562L47.0781 38.0938H43.125L42.4062 37.375V36.2969L39.5312 35.9375H37.7344L35.5781 33.7812V30.9062L35.2188 29.1094L33.4219 28.3906V24.0781L34.8594 23.3594L35.5781 21.9219V19.0469L38.4531 16.5312L40.25 16.8906L42.0469 16.1719L42.7656 14.7344L43.4844 14.375ZM44.2031 16.1719L43.4844 17.6094L40.6094 18.6875H38.4531L37.375 20.125V22.2812L36.6562 24.7969L34.8594 25.1562V27.3125L36.6562 27.6719L37.0156 29.8281L37.375 32.3438L38.0938 33.7812L39.1719 34.1406L40.25 33.7812L43.4844 35.2188L44.2031 36.6562H46L46.7188 35.2188L49.2344 34.1406H51.75L52.8281 33.0625V30.9062L53.9062 28.0312L55.3438 27.3125V25.1562L53.9062 24.4375L52.8281 21.9219L53.1875 19.7656L51.3906 18.3281L49.5938 18.6875L46.7188 17.25L46.3594 16.1719H44.2031Z" fill="#5F56AF" fill-opacity="0.75"/>
<path d="M43.4844 19.7656H46.7188L49.5938 21.2031L51.0312 23L51.75 24.7969V28.0312L50.6719 30.1875L48.1562 32.3438L47.4375 32.7031H43.125L40.9688 31.625L39.1719 29.4688L38.4531 26.2344L39.1719 23.3594L40.25 21.5625L42.4062 20.125L43.4844 19.7656ZM43.4844 21.5625L40.9688 23.7188L40.25 25.5156L40.6094 28.3906L42.4062 30.5469L44.2031 31.2656L47.0781 30.9062L49.5938 28.75L49.9531 27.6719V24.7969L48.5156 22.6406L46.7188 21.5625H43.4844Z" fill="#5F56AF" fill-opacity="0.75"/>
<path d="M80.1406 75.1094L81.5781 75.4688L83.0156 78.3438L86.25 80.1406L85.8906 81.5781L83.0156 83.375L81.5781 86.25H79.7812L78.3438 83.375L76.9062 82.2969L75.1094 81.5781L75.4688 79.7812L78.3438 78.3438L80.1406 75.1094ZM80.5 78.3438L79.0625 80.1406L78.3438 80.8594L80.5 83.375L82.2969 81.5781L83.0156 80.5L81.2188 79.0625L80.5 78.3438Z" fill="#5F56AF" fill-opacity="0.75"/>
<path d="M6.82812 4.3125H9.34375L11.5 6.10938L11.8594 6.82812V9.34375L10.7812 11.1406L9.70312 11.8594H6.46875L4.67188 10.4219L4.3125 9.70312V6.46875L6.10938 4.67188L6.82812 4.3125ZM6.82812 6.10938L5.75 7.54688L6.10938 9.34375L7.54688 10.4219L9.70312 9.70312L10.0625 7.1875L8.98438 6.10938H6.82812Z" fill="#5F56AF" fill-opacity="0.75"/>
<path d="M80.8594 5.39062H83.0156L84.8125 6.46875L85.5312 7.54688V10.7812L84.0938 12.5781L83.375 12.9375H80.1406L78.3438 11.1406L77.9844 10.4219L78.3438 7.1875L79.7812 5.75L80.8594 5.39062ZM80.8594 7.1875L79.7812 8.26562L80.1406 10.7812L81.2188 11.5L83.0156 11.1406L84.0938 9.70312L83.375 7.54688L80.8594 7.1875Z" fill="#5F56AF" fill-opacity="0.75"/>
<path d="M86.25 35.2188H87.6875V49.9531H86.25V35.2188Z" fill="#5F56AF" fill-opacity="0.75"/>
<path d="M56.4219 63.25L58.9375 63.6094L60.0156 65.4062L59.2969 67.9219L56.7812 68.6406L54.9844 67.5625L54.625 65.0469L56.4219 63.25ZM56.7812 65.0469L56.4219 66.4844H57.8594V65.0469H56.7812Z" fill="#5F56AF" fill-opacity="0.75"/>
<path d="M71.1562 63.25L73.6719 63.6094L74.3906 64.3281V67.2031L73.3125 68.2812L71.5156 68.6406L69.7188 67.5625L69.3594 65.0469L71.1562 63.25ZM71.5156 65.0469L71.1562 66.4844H72.5938V65.0469H71.5156Z" fill="#5F56AF" fill-opacity="0.75"/>
<path d="M63.9688 63.25L66.125 63.6094L67.2031 64.6875V66.8438L66.125 68.2812L64.3281 68.6406L62.5312 67.5625L62.1719 67.2031V64.6875L62.8906 63.6094L63.9688 63.25ZM63.9688 65.0469L63.6094 66.125L65.0469 66.8438L65.4062 65.4062L63.9688 65.0469Z" fill="#5F56AF" fill-opacity="0.75"/>
<path d="M25.875 6.10938L27.3125 6.46875L26.9531 7.90625L24.7969 12.2188L24.0781 14.0156L22.6406 13.6562L23 11.1406L25.1562 6.82812L25.875 6.10938Z" fill="#5F56AF" fill-opacity="0.75"/>
<path d="M28.3906 3.23438H29.8281L29.4688 5.03125L28.75 5.75H27.6719L27.3125 4.3125L28.3906 3.23438Z" fill="#5F56AF" fill-opacity="0.75"/>
<path d="M86.6094 29.8281L87.6875 30.1875V32.3438H86.25V30.1875L86.6094 29.8281Z" fill="#5F56AF" fill-opacity="0.75"/>
</svg>
