<svg width="52" height="52" viewBox="0 0 52 52" fill="none" xmlns="http://www.w3.org/2000/svg">
<circle cx="25.79" cy="25.79" r="25.79" fill="#5F56AF" fill-opacity="0.2"/>
<mask id="path-2-inside-1_238_9" fill="white">
<path d="M20.5543 25.8742C21.6494 28.1357 23.4781 29.9597 25.7425 31.049C25.9095 31.1281 26.0942 31.1623 26.2785 31.1483C26.4628 31.1343 26.6402 31.0726 26.7934 30.9692L30.1191 28.7476C30.266 28.6479 30.4358 28.5871 30.6126 28.5708C30.7894 28.5546 30.9675 28.5833 31.1301 28.6545L37.3559 31.3283C37.5687 31.4169 37.7464 31.573 37.8618 31.7725C37.9772 31.972 38.0238 32.2039 37.9944 32.4325C37.7971 33.9726 37.0453 35.3881 35.8798 36.414C34.7143 37.4399 33.215 38.006 31.6622 38.0064C26.864 38.0064 22.2622 36.1003 18.8693 32.7074C15.4764 29.3145 13.5703 24.7127 13.5703 19.9145C13.5707 18.3618 14.1368 16.8624 15.1627 15.6969C16.1886 14.5314 17.6041 13.7796 19.1442 13.5823C19.3728 13.5529 19.6047 13.5995 19.8042 13.7149C20.0038 13.8303 20.1598 14.0081 20.2484 14.2208L22.9222 20.4599C22.9918 20.62 23.0209 20.7947 23.0069 20.9687C22.993 21.1427 22.9365 21.3106 22.8424 21.4576L20.6208 24.8365C20.5219 24.9894 20.4639 25.165 20.4522 25.3467C20.4406 25.5283 20.4757 25.71 20.5543 25.8742Z"/>
</mask>
<path d="M20.5543 25.8742C21.6494 28.1357 23.4781 29.9597 25.7425 31.049C25.9095 31.1281 26.0942 31.1623 26.2785 31.1483C26.4628 31.1343 26.6402 31.0726 26.7934 30.9692L30.1191 28.7476C30.266 28.6479 30.4358 28.5871 30.6126 28.5708C30.7894 28.5546 30.9675 28.5833 31.1301 28.6545L37.3559 31.3283C37.5687 31.4169 37.7464 31.573 37.8618 31.7725C37.9772 31.972 38.0238 32.2039 37.9944 32.4325C37.7971 33.9726 37.0453 35.3881 35.8798 36.414C34.7143 37.4399 33.215 38.006 31.6622 38.0064C26.864 38.0064 22.2622 36.1003 18.8693 32.7074C15.4764 29.3145 13.5703 24.7127 13.5703 19.9145C13.5707 18.3618 14.1368 16.8624 15.1627 15.6969C16.1886 14.5314 17.6041 13.7796 19.1442 13.5823C19.3728 13.5529 19.6047 13.5995 19.8042 13.7149C20.0038 13.8303 20.1598 14.0081 20.2484 14.2208L22.9222 20.4599C22.9918 20.62 23.0209 20.7947 23.0069 20.9687C22.993 21.1427 22.9365 21.3106 22.8424 21.4576L20.6208 24.8365C20.5219 24.9894 20.4639 25.165 20.4522 25.3467C20.4406 25.5283 20.4757 25.71 20.5543 25.8742Z" fill="#212121" stroke="#212121" stroke-width="3" stroke-linecap="round" stroke-linejoin="round" mask="url(#path-2-inside-1_238_9)"/>
</svg>
