<svg width="83" height="68" viewBox="0 0 83 68" fill="none" xmlns="http://www.w3.org/2000/svg">
<circle cx="28.2923" cy="48.2923" r="19.2923" fill="#DADADA"/>
<path d="M76.8197 43.788C76.941 43.4144 77.4696 43.4144 77.591 43.788L78.3399 46.0931C78.3942 46.2602 78.5499 46.3733 78.7256 46.3733H81.1493C81.5422 46.3733 81.7055 46.876 81.3877 47.1068L79.4268 48.5315C79.2847 48.6348 79.2252 48.8178 79.2795 48.9849L80.0285 51.29C80.1499 51.6636 79.7223 51.9742 79.4045 51.7433L77.4437 50.3187C77.3015 50.2154 77.1091 50.2154 76.967 50.3187L75.0061 51.7433C74.6883 51.9742 74.2607 51.6636 74.3821 51.29L75.1311 48.9849C75.1854 48.8178 75.1259 48.6348 74.9838 48.5315L73.0229 47.1068C72.7051 46.876 72.8685 46.3733 73.2613 46.3733H75.685C75.8607 46.3733 76.0164 46.2602 76.0707 46.0931L76.8197 43.788Z" fill="#141414"/>
<path d="M12.2305 32.8098C12.4512 33.0305 12.3502 33.4074 12.0487 33.4882L3.6877 35.7285C3.38618 35.8093 3.11028 35.5334 3.19107 35.2319L5.4314 26.8709C5.51219 26.5693 5.88908 26.4684 6.1098 26.6891L12.2305 32.8098Z" fill="#5F56AF" fill-opacity="0.2"/>
<mask id="path-4-inside-1_1122_5306" fill="white">
<path d="M39.6662 0.547138C39.985 0.398231 40.5909 0.196143 40.9949 0.121689C41.3988 0.0365993 41.909 -0.0165817 42.111 0.0046907C42.313 0.0259631 42.7169 0.0897804 43.0145 0.153598C43.3015 0.228051 43.8117 0.398231 44.1306 0.557774C44.4495 0.706681 45.0129 1.12149 45.3849 1.47249C45.8633 1.91921 46.1715 2.33402 46.4267 2.8552C46.6286 3.25937 46.8518 3.90818 46.9156 4.29108C47.0113 4.79099 47.0113 5.2058 46.9369 5.78016C46.8731 6.26942 46.6924 6.86505 46.4798 7.32241C46.2247 7.85422 45.9377 8.25839 45.4275 8.7583C45.0342 9.1412 44.4602 9.56665 43.5885 9.98146L43.6523 12.0874L44.3432 12.2257C44.7259 12.3108 45.3956 12.4916 45.8314 12.6511C46.2672 12.8001 46.9156 13.0766 47.2664 13.2574C47.6172 13.4276 48.1593 13.7467 49.0309 14.3423L56.0147 7.32241L55.8127 6.81187C55.6958 6.53533 55.5788 5.99288 55.547 5.5887C55.5151 5.19516 55.5363 4.5889 55.6001 4.2379C55.6639 3.88691 55.8552 3.31255 56.0147 2.96156C56.1847 2.61056 56.5993 2.01494 56.9501 1.6533C57.3859 1.17467 57.8005 0.866224 58.3213 0.600319C58.8209 0.355686 59.3418 0.196143 59.9158 0.111053C60.5642 0.0259631 60.9362 0.0259631 61.4571 0.121689C61.8398 0.185506 62.4563 0.398231 62.839 0.579046C63.2216 0.759862 63.7956 1.16404 64.1145 1.47249C64.4334 1.78094 64.848 2.31275 65.0393 2.65311C65.22 3.0041 65.4539 3.56782 65.5389 3.91882C65.6346 4.26981 65.709 4.8229 65.709 5.14198C65.709 5.46107 65.6346 6.00352 65.5495 6.33324C65.4645 6.6736 65.2625 7.20541 65.1031 7.50322C64.9543 7.81167 64.561 8.34348 64.2314 8.68384C63.87 9.06675 63.3704 9.43901 62.9452 9.65174C62.5626 9.84319 61.9673 10.0665 61.6165 10.141C61.2658 10.2155 60.6705 10.2474 60.2878 10.2261C59.9051 10.1942 59.3205 10.0772 58.3638 9.76873L51.4439 16.6823L52.0392 17.6927C52.3687 18.2458 52.7832 19.0754 52.9533 19.5221C53.134 19.9795 53.3466 20.7028 53.4423 21.1176C53.5379 21.543 53.6336 21.9578 53.6549 22.0217C53.6868 22.1174 53.995 22.1599 55.7702 22.1599L56.0891 21.543C56.2592 21.2133 56.6843 20.6496 57.0458 20.288C57.3965 19.9263 57.9386 19.5115 58.2363 19.352C58.5445 19.2031 59.076 19.001 59.4055 18.9159C59.7457 18.8308 60.2878 18.7563 60.6067 18.7563C60.9256 18.7563 61.4783 18.8308 61.8291 18.9265C62.1799 19.0116 62.7539 19.2456 63.0941 19.4264C63.4448 19.6179 63.987 20.054 64.3165 20.4049C64.646 20.7666 65.0287 21.2878 65.1669 21.5749C65.3157 21.8727 65.4858 22.3407 65.5708 22.6386C65.6452 22.9257 65.709 23.4788 65.709 23.8617C65.709 24.2446 65.6452 24.7871 65.5708 25.0849C65.4858 25.3721 65.3157 25.8507 65.1669 26.1485C65.0287 26.4357 64.6247 26.9781 64.274 27.3504C63.8275 27.829 63.413 28.1375 62.8921 28.3927C62.4775 28.5948 61.8398 28.8182 61.4571 28.882C60.9575 28.9777 60.5429 28.9777 59.9689 28.9033C59.48 28.8395 58.8847 28.6587 58.4276 28.4459C57.9174 28.2013 57.4816 27.8928 57.0458 27.4461C56.6843 27.0845 56.2592 26.5101 55.7702 25.5635H54.7285C53.995 25.5635 53.6868 25.6061 53.6549 25.6911C53.6336 25.7655 53.5381 26.1796 53.4426 26.5939L53.4423 26.5952C53.3466 27.0207 53.134 27.7439 52.9533 28.1907C52.7832 28.648 52.3687 29.4776 51.4439 31.0412L58.5339 38.1249L59.0122 37.9122C59.278 37.7952 59.7989 37.6569 60.1815 37.6037C60.5642 37.5505 61.202 37.5505 61.6165 37.6037C62.1126 37.6604 62.6086 37.8093 63.1047 38.0504C63.5086 38.2419 64.0933 38.6461 64.3909 38.9226C64.6885 39.2098 65.0499 39.6352 65.1987 39.8692C65.3476 40.1032 65.5708 40.5712 65.6877 40.9009C65.8153 41.2413 65.9535 41.8156 65.9854 42.1773C66.0172 42.5495 65.996 43.1345 65.9322 43.4855C65.8684 43.8365 65.6665 44.4322 65.4858 44.8151C65.305 45.198 64.9011 45.7723 64.5929 46.0914C64.2846 46.4105 63.7531 46.8253 63.413 47.0168C63.0622 47.1976 62.4988 47.4316 62.148 47.5167C61.7972 47.6124 61.2445 47.6868 60.9256 47.6868C60.6067 47.6868 60.054 47.6124 59.7032 47.5167C59.3524 47.4316 58.789 47.1976 58.4382 47.0168C58.0981 46.8253 57.5666 46.4105 57.2583 46.0914C56.9607 45.7723 56.578 45.2511 56.4292 44.9427C56.2698 44.6449 56.0678 44.0918 55.9721 43.7195C55.8446 43.2515 55.8127 42.8261 55.8552 42.2624C55.8871 41.8263 55.9934 41.2732 56.2273 40.6138L49.0309 33.3811L48.4676 33.764C48.1593 33.9768 47.6172 34.2958 47.2664 34.466C46.9156 34.6468 46.2672 34.9234 45.8314 35.0723C45.3956 35.2318 44.7259 35.4126 43.6523 35.636L43.5991 37.742L44.3007 38.1142C44.7578 38.3482 45.2255 38.7205 45.5975 39.1247C45.9271 39.4757 46.331 40.0713 46.5117 40.4542C46.6924 40.8584 46.8731 41.4859 46.9369 41.9433C47.0113 42.5176 47.0113 42.9325 46.9156 43.4324C46.8518 43.8153 46.6286 44.4534 46.4267 44.8682C46.1822 45.3788 45.8527 45.8149 45.3849 46.2509C45.0235 46.6019 44.4495 47.0168 44.1306 47.1763C43.8117 47.3252 43.2803 47.506 42.9614 47.5805C42.6425 47.6549 42.1641 47.7187 41.8984 47.7187C41.6327 47.7187 41.1543 47.6549 40.8354 47.5805C40.5165 47.506 39.985 47.3252 39.6662 47.1657C39.3473 47.0168 38.8051 46.6232 38.4437 46.2935C38.093 45.9638 37.6571 45.4213 37.4658 45.0703C37.2851 44.73 37.0512 44.1556 36.9662 43.8046C36.8705 43.4536 36.7961 42.9005 36.7961 42.5815C36.7961 42.2624 36.8705 41.7199 36.9556 41.3796C37.0406 41.0498 37.2426 40.518 37.3914 40.2096C37.5508 39.9118 37.9654 39.3693 38.3268 39.0183C38.6882 38.6567 39.2516 38.2312 40.1976 37.742L40.1445 35.636L39.4536 35.4977C39.0709 35.4126 38.4012 35.2318 37.9654 35.0723C37.5296 34.9234 36.8812 34.6468 36.5304 34.466C36.1796 34.2958 35.6375 33.9768 34.7659 33.3811L27.814 40.3585L28.016 40.9648C28.1648 41.4008 28.2179 41.8582 28.2179 42.5815C28.2179 43.3473 28.1648 43.7408 27.9841 44.2301C27.8565 44.5811 27.6014 45.1022 27.4101 45.3894C27.2187 45.6766 26.8254 46.1233 26.5384 46.3892C26.2408 46.6445 25.72 46.9955 25.3692 47.155C25.0184 47.3252 24.37 47.5273 23.9342 47.5911C23.2964 47.6975 22.9775 47.6975 22.3397 47.5805C21.9039 47.506 21.2342 47.2827 20.8515 47.0912C20.4051 46.8679 19.9374 46.5169 19.5228 46.0701C19.172 45.7085 18.7575 45.1341 18.598 44.8151C18.4492 44.496 18.2366 43.8684 18.141 43.4324C17.9603 42.6772 17.9496 42.5921 18.1303 41.7837C18.226 41.3157 18.4599 40.6244 18.6512 40.2415C18.8532 39.816 19.2146 39.3268 19.576 38.9651C19.9055 38.6354 20.4795 38.2312 20.8622 38.0504C21.2342 37.859 21.8082 37.6569 22.1271 37.5824C22.4566 37.508 23.0413 37.4654 23.4558 37.4973C23.8598 37.5293 24.4763 37.6463 25.433 37.9547L32.3529 31.0412L31.7576 30.0307C31.4281 29.4776 31.0136 28.648 30.8435 28.2013C30.6628 27.7439 30.4502 27.0207 30.3545 26.6059C30.2588 26.1804 30.1632 25.7656 30.1419 25.7018C30.11 25.6061 29.8018 25.5635 28.0266 25.5635L27.7077 26.1804C27.5376 26.5101 27.1124 27.0845 26.751 27.4461C26.3152 27.8928 25.8794 28.2013 25.3692 28.4459C24.9121 28.6587 24.3168 28.8395 23.8279 28.9033C23.2539 28.9777 22.8393 28.9777 22.3397 28.882C21.957 28.8182 21.3086 28.5948 20.9047 28.3927C20.3838 28.1375 19.9693 27.829 19.5228 27.3504C19.172 26.9781 18.7681 26.4357 18.6299 26.1485C18.4811 25.8507 18.311 25.3827 18.226 25.0849C18.1516 24.7977 18.0878 24.2446 18.0878 23.8617C18.0878 23.4788 18.1516 22.9364 18.226 22.6386C18.3004 22.3514 18.4811 21.8727 18.6299 21.5749C18.7681 21.2878 19.1508 20.7559 19.4803 20.4049C19.8098 20.054 20.3626 19.6179 20.7027 19.4264C21.0429 19.2456 21.6169 19.0116 21.9677 18.9265C22.3184 18.8308 22.8712 18.7563 23.1901 18.7563C23.509 18.7563 24.0617 18.8308 24.4125 18.9265C24.7633 19.0116 25.3373 19.2456 25.6774 19.4264C26.0176 19.6179 26.5491 20.0327 26.8467 20.3518C27.1443 20.6815 27.527 21.2133 28.0266 22.1599H29.0577C29.8018 22.1599 30.11 22.1174 30.1419 22.0323C30.1632 21.9579 30.2588 21.5432 30.3544 21.1285L30.3545 21.1282C30.4502 20.7028 30.6628 19.9795 30.8435 19.5328C31.0136 19.0754 31.4281 18.2458 32.3529 16.6823L25.4755 9.80064L24.8908 10.0134C24.5719 10.1304 24.0192 10.258 23.6684 10.3005C23.2964 10.3431 22.7436 10.3218 22.3397 10.2474C21.957 10.1835 21.3511 9.98146 20.9791 9.81128C20.6071 9.6411 20.0331 9.23693 19.6716 8.89657C19.2571 8.49239 18.9063 8.03503 18.6831 7.58831C18.4917 7.20541 18.2685 6.60978 18.1941 6.25878C18.1197 5.90779 18.0878 5.29089 18.1091 4.87608C18.141 4.4719 18.2685 3.84436 18.3961 3.49337C18.5236 3.14237 18.8106 2.58929 19.0339 2.2702C19.2571 1.95112 19.7248 1.47249 20.0649 1.19595C20.4051 0.930041 20.9791 0.610955 21.3299 0.472684C21.7125 0.323777 22.3184 0.206779 22.818 0.17487C23.3389 0.132325 23.8916 0.164234 24.2531 0.249324C24.5719 0.323777 25.1034 0.504593 25.4223 0.6535C25.7412 0.813043 26.3152 1.22786 26.6766 1.57885C27.1443 2.01494 27.4739 2.45102 27.729 2.96156C27.9735 3.46146 28.1329 3.98263 28.2179 4.55699C28.3136 5.28025 28.3136 5.52489 28.1542 6.2056C28.0479 6.64169 27.9416 7.09905 27.9097 7.21604C27.8672 7.38622 28.5687 8.14139 34.7233 14.3104L35.7332 13.7148C36.2859 13.385 37.115 12.9702 37.5615 12.8001C38.0185 12.6192 38.7414 12.4065 39.1559 12.3108C39.5811 12.2151 39.9957 12.1193 40.0595 12.0981C40.1551 12.0662 40.1976 11.7577 40.1976 9.98146L39.5811 9.66237C39.2516 9.49219 38.6882 9.06674 38.3268 8.70511C37.9654 8.35412 37.5508 7.81167 37.3914 7.51386C37.2426 7.20541 37.0406 6.6736 36.9556 6.34387C36.8705 6.00352 36.7961 5.46107 36.7961 5.14198C36.7961 4.8229 36.8705 4.26981 36.9662 3.91882C37.0512 3.56782 37.2851 2.99347 37.4658 2.65311C37.6571 2.31275 38.093 1.75967 38.4437 1.42994C38.7945 1.10022 39.3473 0.706681 39.6662 0.547138Z"/>
</mask>
<path d="M39.6662 0.547138C39.985 0.398231 40.5909 0.196143 40.9949 0.121689C41.3988 0.0365993 41.909 -0.0165817 42.111 0.0046907C42.313 0.0259631 42.7169 0.0897804 43.0145 0.153598C43.3015 0.228051 43.8117 0.398231 44.1306 0.557774C44.4495 0.706681 45.0129 1.12149 45.3849 1.47249C45.8633 1.91921 46.1715 2.33402 46.4267 2.8552C46.6286 3.25937 46.8518 3.90818 46.9156 4.29108C47.0113 4.79099 47.0113 5.2058 46.9369 5.78016C46.8731 6.26942 46.6924 6.86505 46.4798 7.32241C46.2247 7.85422 45.9377 8.25839 45.4275 8.7583C45.0342 9.1412 44.4602 9.56665 43.5885 9.98146L43.6523 12.0874L44.3432 12.2257C44.7259 12.3108 45.3956 12.4916 45.8314 12.6511C46.2672 12.8001 46.9156 13.0766 47.2664 13.2574C47.6172 13.4276 48.1593 13.7467 49.0309 14.3423L56.0147 7.32241L55.8127 6.81187C55.6958 6.53533 55.5788 5.99288 55.547 5.5887C55.5151 5.19516 55.5363 4.5889 55.6001 4.2379C55.6639 3.88691 55.8552 3.31255 56.0147 2.96156C56.1847 2.61056 56.5993 2.01494 56.9501 1.6533C57.3859 1.17467 57.8005 0.866224 58.3213 0.600319C58.8209 0.355686 59.3418 0.196143 59.9158 0.111053C60.5642 0.0259631 60.9362 0.0259631 61.4571 0.121689C61.8398 0.185506 62.4563 0.398231 62.839 0.579046C63.2216 0.759862 63.7956 1.16404 64.1145 1.47249C64.4334 1.78094 64.848 2.31275 65.0393 2.65311C65.22 3.0041 65.4539 3.56782 65.5389 3.91882C65.6346 4.26981 65.709 4.8229 65.709 5.14198C65.709 5.46107 65.6346 6.00352 65.5495 6.33324C65.4645 6.6736 65.2625 7.20541 65.1031 7.50322C64.9543 7.81167 64.561 8.34348 64.2314 8.68384C63.87 9.06675 63.3704 9.43901 62.9452 9.65174C62.5626 9.84319 61.9673 10.0665 61.6165 10.141C61.2658 10.2155 60.6705 10.2474 60.2878 10.2261C59.9051 10.1942 59.3205 10.0772 58.3638 9.76873L51.4439 16.6823L52.0392 17.6927C52.3687 18.2458 52.7832 19.0754 52.9533 19.5221C53.134 19.9795 53.3466 20.7028 53.4423 21.1176C53.5379 21.543 53.6336 21.9578 53.6549 22.0217C53.6868 22.1174 53.995 22.1599 55.7702 22.1599L56.0891 21.543C56.2592 21.2133 56.6843 20.6496 57.0458 20.288C57.3965 19.9263 57.9386 19.5115 58.2363 19.352C58.5445 19.2031 59.076 19.001 59.4055 18.9159C59.7457 18.8308 60.2878 18.7563 60.6067 18.7563C60.9256 18.7563 61.4783 18.8308 61.8291 18.9265C62.1799 19.0116 62.7539 19.2456 63.0941 19.4264C63.4448 19.6179 63.987 20.054 64.3165 20.4049C64.646 20.7666 65.0287 21.2878 65.1669 21.5749C65.3157 21.8727 65.4858 22.3407 65.5708 22.6386C65.6452 22.9257 65.709 23.4788 65.709 23.8617C65.709 24.2446 65.6452 24.7871 65.5708 25.0849C65.4858 25.3721 65.3157 25.8507 65.1669 26.1485C65.0287 26.4357 64.6247 26.9781 64.274 27.3504C63.8275 27.829 63.413 28.1375 62.8921 28.3927C62.4775 28.5948 61.8398 28.8182 61.4571 28.882C60.9575 28.9777 60.5429 28.9777 59.9689 28.9033C59.48 28.8395 58.8847 28.6587 58.4276 28.4459C57.9174 28.2013 57.4816 27.8928 57.0458 27.4461C56.6843 27.0845 56.2592 26.5101 55.7702 25.5635H54.7285C53.995 25.5635 53.6868 25.6061 53.6549 25.6911C53.6336 25.7655 53.5381 26.1796 53.4426 26.5939L53.4423 26.5952C53.3466 27.0207 53.134 27.7439 52.9533 28.1907C52.7832 28.648 52.3687 29.4776 51.4439 31.0412L58.5339 38.1249L59.0122 37.9122C59.278 37.7952 59.7989 37.6569 60.1815 37.6037C60.5642 37.5505 61.202 37.5505 61.6165 37.6037C62.1126 37.6604 62.6086 37.8093 63.1047 38.0504C63.5086 38.2419 64.0933 38.6461 64.3909 38.9226C64.6885 39.2098 65.0499 39.6352 65.1987 39.8692C65.3476 40.1032 65.5708 40.5712 65.6877 40.9009C65.8153 41.2413 65.9535 41.8156 65.9854 42.1773C66.0172 42.5495 65.996 43.1345 65.9322 43.4855C65.8684 43.8365 65.6665 44.4322 65.4858 44.8151C65.305 45.198 64.9011 45.7723 64.5929 46.0914C64.2846 46.4105 63.7531 46.8253 63.413 47.0168C63.0622 47.1976 62.4988 47.4316 62.148 47.5167C61.7972 47.6124 61.2445 47.6868 60.9256 47.6868C60.6067 47.6868 60.054 47.6124 59.7032 47.5167C59.3524 47.4316 58.789 47.1976 58.4382 47.0168C58.0981 46.8253 57.5666 46.4105 57.2583 46.0914C56.9607 45.7723 56.578 45.2511 56.4292 44.9427C56.2698 44.6449 56.0678 44.0918 55.9721 43.7195C55.8446 43.2515 55.8127 42.8261 55.8552 42.2624C55.8871 41.8263 55.9934 41.2732 56.2273 40.6138L49.0309 33.3811L48.4676 33.764C48.1593 33.9768 47.6172 34.2958 47.2664 34.466C46.9156 34.6468 46.2672 34.9234 45.8314 35.0723C45.3956 35.2318 44.7259 35.4126 43.6523 35.636L43.5991 37.742L44.3007 38.1142C44.7578 38.3482 45.2255 38.7205 45.5975 39.1247C45.9271 39.4757 46.331 40.0713 46.5117 40.4542C46.6924 40.8584 46.8731 41.4859 46.9369 41.9433C47.0113 42.5176 47.0113 42.9325 46.9156 43.4324C46.8518 43.8153 46.6286 44.4534 46.4267 44.8682C46.1822 45.3788 45.8527 45.8149 45.3849 46.2509C45.0235 46.6019 44.4495 47.0168 44.1306 47.1763C43.8117 47.3252 43.2803 47.506 42.9614 47.5805C42.6425 47.6549 42.1641 47.7187 41.8984 47.7187C41.6327 47.7187 41.1543 47.6549 40.8354 47.5805C40.5165 47.506 39.985 47.3252 39.6662 47.1657C39.3473 47.0168 38.8051 46.6232 38.4437 46.2935C38.093 45.9638 37.6571 45.4213 37.4658 45.0703C37.2851 44.73 37.0512 44.1556 36.9662 43.8046C36.8705 43.4536 36.7961 42.9005 36.7961 42.5815C36.7961 42.2624 36.8705 41.7199 36.9556 41.3796C37.0406 41.0498 37.2426 40.518 37.3914 40.2096C37.5508 39.9118 37.9654 39.3693 38.3268 39.0183C38.6882 38.6567 39.2516 38.2312 40.1976 37.742L40.1445 35.636L39.4536 35.4977C39.0709 35.4126 38.4012 35.2318 37.9654 35.0723C37.5296 34.9234 36.8812 34.6468 36.5304 34.466C36.1796 34.2958 35.6375 33.9768 34.7659 33.3811L27.814 40.3585L28.016 40.9648C28.1648 41.4008 28.2179 41.8582 28.2179 42.5815C28.2179 43.3473 28.1648 43.7408 27.9841 44.2301C27.8565 44.5811 27.6014 45.1022 27.4101 45.3894C27.2187 45.6766 26.8254 46.1233 26.5384 46.3892C26.2408 46.6445 25.72 46.9955 25.3692 47.155C25.0184 47.3252 24.37 47.5273 23.9342 47.5911C23.2964 47.6975 22.9775 47.6975 22.3397 47.5805C21.9039 47.506 21.2342 47.2827 20.8515 47.0912C20.4051 46.8679 19.9374 46.5169 19.5228 46.0701C19.172 45.7085 18.7575 45.1341 18.598 44.8151C18.4492 44.496 18.2366 43.8684 18.141 43.4324C17.9603 42.6772 17.9496 42.5921 18.1303 41.7837C18.226 41.3157 18.4599 40.6244 18.6512 40.2415C18.8532 39.816 19.2146 39.3268 19.576 38.9651C19.9055 38.6354 20.4795 38.2312 20.8622 38.0504C21.2342 37.859 21.8082 37.6569 22.1271 37.5824C22.4566 37.508 23.0413 37.4654 23.4558 37.4973C23.8598 37.5293 24.4763 37.6463 25.433 37.9547L32.3529 31.0412L31.7576 30.0307C31.4281 29.4776 31.0136 28.648 30.8435 28.2013C30.6628 27.7439 30.4502 27.0207 30.3545 26.6059C30.2588 26.1804 30.1632 25.7656 30.1419 25.7018C30.11 25.6061 29.8018 25.5635 28.0266 25.5635L27.7077 26.1804C27.5376 26.5101 27.1124 27.0845 26.751 27.4461C26.3152 27.8928 25.8794 28.2013 25.3692 28.4459C24.9121 28.6587 24.3168 28.8395 23.8279 28.9033C23.2539 28.9777 22.8393 28.9777 22.3397 28.882C21.957 28.8182 21.3086 28.5948 20.9047 28.3927C20.3838 28.1375 19.9693 27.829 19.5228 27.3504C19.172 26.9781 18.7681 26.4357 18.6299 26.1485C18.4811 25.8507 18.311 25.3827 18.226 25.0849C18.1516 24.7977 18.0878 24.2446 18.0878 23.8617C18.0878 23.4788 18.1516 22.9364 18.226 22.6386C18.3004 22.3514 18.4811 21.8727 18.6299 21.5749C18.7681 21.2878 19.1508 20.7559 19.4803 20.4049C19.8098 20.054 20.3626 19.6179 20.7027 19.4264C21.0429 19.2456 21.6169 19.0116 21.9677 18.9265C22.3184 18.8308 22.8712 18.7563 23.1901 18.7563C23.509 18.7563 24.0617 18.8308 24.4125 18.9265C24.7633 19.0116 25.3373 19.2456 25.6774 19.4264C26.0176 19.6179 26.5491 20.0327 26.8467 20.3518C27.1443 20.6815 27.527 21.2133 28.0266 22.1599H29.0577C29.8018 22.1599 30.11 22.1174 30.1419 22.0323C30.1632 21.9579 30.2588 21.5432 30.3544 21.1285L30.3545 21.1282C30.4502 20.7028 30.6628 19.9795 30.8435 19.5328C31.0136 19.0754 31.4281 18.2458 32.3529 16.6823L25.4755 9.80064L24.8908 10.0134C24.5719 10.1304 24.0192 10.258 23.6684 10.3005C23.2964 10.3431 22.7436 10.3218 22.3397 10.2474C21.957 10.1835 21.3511 9.98146 20.9791 9.81128C20.6071 9.6411 20.0331 9.23693 19.6716 8.89657C19.2571 8.49239 18.9063 8.03503 18.6831 7.58831C18.4917 7.20541 18.2685 6.60978 18.1941 6.25878C18.1197 5.90779 18.0878 5.29089 18.1091 4.87608C18.141 4.4719 18.2685 3.84436 18.3961 3.49337C18.5236 3.14237 18.8106 2.58929 19.0339 2.2702C19.2571 1.95112 19.7248 1.47249 20.0649 1.19595C20.4051 0.930041 20.9791 0.610955 21.3299 0.472684C21.7125 0.323777 22.3184 0.206779 22.818 0.17487C23.3389 0.132325 23.8916 0.164234 24.2531 0.249324C24.5719 0.323777 25.1034 0.504593 25.4223 0.6535C25.7412 0.813043 26.3152 1.22786 26.6766 1.57885C27.1443 2.01494 27.4739 2.45102 27.729 2.96156C27.9735 3.46146 28.1329 3.98263 28.2179 4.55699C28.3136 5.28025 28.3136 5.52489 28.1542 6.2056C28.0479 6.64169 27.9416 7.09905 27.9097 7.21604C27.8672 7.38622 28.5687 8.14139 34.7233 14.3104L35.7332 13.7148C36.2859 13.385 37.115 12.9702 37.5615 12.8001C38.0185 12.6192 38.7414 12.4065 39.1559 12.3108C39.5811 12.2151 39.9957 12.1193 40.0595 12.0981C40.1551 12.0662 40.1976 11.7577 40.1976 9.98146L39.5811 9.66237C39.2516 9.49219 38.6882 9.06674 38.3268 8.70511C37.9654 8.35412 37.5508 7.81167 37.3914 7.51386C37.2426 7.20541 37.0406 6.6736 36.9556 6.34387C36.8705 6.00352 36.7961 5.46107 36.7961 5.14198C36.7961 4.8229 36.8705 4.26981 36.9662 3.91882C37.0512 3.56782 37.2851 2.99347 37.4658 2.65311C37.6571 2.31275 38.093 1.75967 38.4437 1.42994C38.7945 1.10022 39.3473 0.706681 39.6662 0.547138Z" stroke="#1D1D1B" stroke-width="2.8" mask="url(#path-4-inside-1_1122_5306)"/>
<path d="M59.0973 4.0888C59.2355 3.89735 59.5544 3.64208 59.7883 3.53572C60.0965 3.38681 60.3835 3.34426 60.713 3.37617C60.9788 3.40808 61.3083 3.51444 61.4571 3.63144C61.6059 3.7378 61.8292 3.99307 61.9674 4.19516C62.1268 4.42916 62.2012 4.71634 62.2012 5.00351C62.2012 5.25878 62.1374 5.58851 62.0524 5.74805C61.978 5.91823 61.7335 6.20541 61.5209 6.38622C61.2977 6.58831 60.9682 6.76913 60.7343 6.80103C60.5217 6.84358 60.1709 6.82231 59.969 6.75849C59.767 6.69467 59.4269 6.47131 59.2249 6.25859C58.8741 5.89696 58.8528 5.83314 58.8528 5.16306C58.8528 4.5887 58.906 4.37598 59.0973 4.0888Z" fill="#EBEBEB"/>
<path d="M41.9728 6.84358C41.9303 6.84358 41.8984 6.07777 41.8984 5.14178C41.8984 4.2058 41.9303 3.43999 41.9728 3.43999C42.026 3.43999 42.2705 3.54635 42.5256 3.68462C42.7913 3.82289 43.0783 4.07816 43.2059 4.29089C43.3335 4.51425 43.4185 4.85461 43.4185 5.14178C43.4185 5.42896 43.3335 5.76932 43.2059 5.99268C43.0783 6.20541 42.7913 6.46068 42.5256 6.59895C42.2705 6.73722 42.026 6.84358 41.9728 6.84358Z" fill="#EBEBEB"/>
<path d="M58.991 23.0106C59.1186 22.7873 59.3843 22.5426 59.6607 22.4044V22.3937C59.9158 22.2661 60.2666 22.1597 60.4473 22.1597C60.6174 22.1597 60.9788 22.2661 61.2339 22.4044C61.4996 22.5426 61.7866 22.7979 61.9142 23.0106C62.0418 23.234 62.1268 23.5743 62.1268 23.8615C62.1268 24.1487 62.0418 24.4891 61.9142 24.7124C61.7866 24.9251 61.4996 25.1804 61.2339 25.3187C60.9788 25.457 60.6174 25.5633 60.4473 25.5633C60.2772 25.5633 59.9371 25.4676 59.7032 25.3506C59.4694 25.2336 59.1824 24.9996 59.0654 24.8401C58.9379 24.6592 58.8422 24.3295 58.821 23.9679C58.7997 23.5318 58.8422 23.2872 58.991 23.0106Z" fill="#EBEBEB"/>
<path d="M41.9835 44.2937C41.9303 44.2937 41.8984 43.5279 41.9091 42.5813C41.9197 40.8795 41.9197 40.8795 42.1429 40.9539C42.2705 40.9858 42.5043 41.0922 42.6744 41.1666C42.8339 41.2517 43.0677 41.4964 43.1953 41.7091C43.3335 41.9644 43.4185 42.2941 43.4185 42.5919C43.4185 42.8791 43.3335 43.2194 43.2059 43.4428C43.0783 43.6555 42.7913 43.9108 42.5256 44.0491C42.2705 44.1873 42.026 44.2937 41.9835 44.2937Z" fill="#EBEBEB"/>
<path d="M59.4694 41.5176C59.6076 41.3262 59.8839 41.1135 60.0859 41.039C60.2879 40.9646 60.5961 40.9007 60.7662 40.9007C60.9363 40.8901 61.2977 40.9965 61.5528 41.1347C61.8079 41.2624 62.1055 41.5176 62.2118 41.6878C62.3394 41.9005 62.4032 42.209 62.4032 42.5919C62.4032 42.9854 62.3394 43.2939 62.2012 43.5172C62.0843 43.7087 61.7973 43.964 61.5634 44.081C61.3296 44.198 60.9575 44.2937 60.7449 44.2937C60.5217 44.2831 60.1709 44.1873 59.969 44.0703C59.767 43.9533 59.5013 43.73 59.395 43.5704C59.278 43.4109 59.1611 43.0918 59.1398 42.8578C59.108 42.6238 59.1186 42.3047 59.1611 42.1345C59.193 41.975 59.3418 41.6985 59.4694 41.5176Z" fill="#EBEBEB"/>
<path d="M41.8984 18.8623L41.9091 17.0967L41.9303 15.3311L42.6319 15.4055C43.0146 15.4481 43.6523 15.5757 44.0456 15.682C44.4496 15.799 45.0661 16.033 45.4275 16.2139C45.7995 16.4053 46.3098 16.6925 46.5755 16.8733C46.8413 17.0541 47.309 17.4477 47.6279 17.7455C47.9361 18.0327 48.4038 18.5645 48.6589 18.9155C48.9034 19.2665 49.2648 19.8834 49.4455 20.2982C49.6369 20.7023 49.8814 21.4043 49.9983 21.8404C50.1471 22.4041 50.2003 22.9891 50.2003 23.8613C50.2003 24.7547 50.1471 25.3078 49.977 25.9354C49.8601 26.4034 49.6262 27.0734 49.4668 27.4244C49.2967 27.7754 49.0097 28.2966 48.8078 28.5944C48.6058 28.8816 48.2019 29.3815 47.9042 29.7006C47.6172 30.009 47.0857 30.477 46.735 30.7217C46.3842 30.9663 45.7995 31.3279 45.4275 31.5087C45.0661 31.6896 44.4496 31.9235 44.0456 32.0405C43.6523 32.1469 43.0146 32.2639 41.8984 32.3703V28.8603L44.1519 27.7542C45.7783 26.9671 46.533 26.5416 46.8306 26.2438C47.0539 26.0204 47.3621 25.5631 47.5216 25.244C47.7342 24.776 47.7873 24.4995 47.7873 23.8613C47.7873 23.2976 47.7235 22.9253 47.5747 22.585C47.4578 22.319 47.1495 21.8723 46.8838 21.5958C46.4905 21.1491 46.0865 20.9151 41.8984 18.8623Z" fill="#EBEBEB"/>
<path d="M38.3996 18.9905C38.7185 18.799 39.1118 18.597 39.2925 18.5438C39.4732 18.4906 39.9515 18.4587 40.3555 18.4693C41.057 18.5012 41.2377 18.5757 43.6401 19.7244C45.5215 20.6285 46.3081 21.0646 46.7014 21.4156C47.0097 21.6921 47.3498 22.1388 47.5093 22.4792C47.7431 22.9578 47.7963 23.2131 47.7963 23.8619C47.7857 24.4894 47.7325 24.7872 47.5199 25.2446C47.3605 25.5637 47.0309 26.0317 46.7758 26.2763C46.4144 26.6273 45.6916 27.0315 41.0996 29.2332H40.196C39.3563 29.2332 39.2394 29.2013 38.6122 28.8609C38.2402 28.6588 37.8043 28.3185 37.6343 28.1164C37.4748 27.9143 37.2303 27.4995 37.0921 27.2123C36.8583 26.7124 36.8477 26.5422 36.8158 24.0746C36.7945 22.0218 36.8158 21.3517 36.9433 20.9369C37.0284 20.6391 37.2622 20.1605 37.4642 19.8733C37.6874 19.5436 38.0382 19.2139 38.3996 18.9905Z" fill="#EBEBEB"/>
<path d="M40.2831 4.29084C40.4107 4.06748 40.6764 3.82285 40.9528 3.68457C41.2079 3.5463 41.5268 3.43994 41.6543 3.43994C41.8988 3.43994 41.8988 3.43994 41.8988 5.14174C41.8988 6.83289 41.8988 6.84353 41.665 6.84353C41.5268 6.84353 41.2291 6.7478 40.9953 6.63081C40.7614 6.51381 40.4744 6.27981 40.3575 6.12027C40.23 5.93945 40.1343 5.60973 40.113 5.2481C40.0918 4.81201 40.1343 4.56738 40.2831 4.29084Z" fill="#EBEBEB"/>
<path d="M21.7023 4.17384C21.8512 3.98239 22.1382 3.75903 22.3401 3.68457C22.5421 3.61012 22.8504 3.55694 23.0311 3.55694C23.2011 3.5463 23.5625 3.65267 23.8177 3.79094C24.0834 3.92921 24.3704 4.18448 24.498 4.3972C24.6255 4.62056 24.7106 4.96092 24.7106 5.2481C24.7106 5.54591 24.6255 5.87563 24.4873 6.1309C24.3491 6.3649 24.0834 6.60953 23.8283 6.73717C23.5944 6.85417 23.2224 6.94989 22.9992 6.94989C22.7866 6.94989 22.4145 6.83289 22.1807 6.69462C21.9256 6.54572 21.6811 6.29045 21.5535 6.03518C21.4153 5.73736 21.3622 5.46082 21.3941 5.06728C21.426 4.69501 21.5216 4.40784 21.7023 4.17384Z" fill="#EBEBEB"/>
<path d="M21.6492 22.8617C21.7555 22.7021 22.0425 22.4681 22.287 22.3618C22.5208 22.2554 22.8504 22.1597 23.0311 22.1597C23.2011 22.1597 23.5413 22.2448 23.7751 22.3511C24.0409 22.4788 24.296 22.7021 24.4554 22.968C24.6255 23.2446 24.7106 23.5424 24.7106 23.8615C24.7106 24.1486 24.6255 24.489 24.498 24.7124C24.3704 24.9251 24.0834 25.1804 23.8177 25.3186C23.5625 25.4569 23.2011 25.5633 23.0311 25.5633C22.8504 25.5633 22.5208 25.4675 22.287 25.3505C22.0531 25.2335 21.7661 24.9995 21.6492 24.84C21.4897 24.6273 21.4366 24.3826 21.4366 23.8615C21.4366 23.3509 21.4897 23.0957 21.6492 22.8617Z" fill="#EBEBEB"/>
<path d="M21.5642 41.7303C21.6917 41.5176 21.9893 41.2517 22.2445 41.1134C22.6059 40.922 22.8291 40.8794 23.1905 40.922C23.4562 40.9539 23.7858 41.0602 23.9346 41.1772C24.0834 41.2836 24.3066 41.5389 24.4448 41.7409C24.6043 41.9749 24.6787 42.2621 24.6787 42.5493C24.6787 42.8046 24.5936 43.1768 24.4873 43.3896C24.381 43.6236 24.1259 43.8788 23.8814 44.0277C23.6476 44.166 23.2755 44.283 23.0523 44.283C22.8397 44.283 22.4677 44.1873 22.2338 44.0703C21.9787 43.9426 21.713 43.698 21.5748 43.464C21.4366 43.2087 21.3516 42.879 21.3516 42.5812C21.3516 42.294 21.4366 41.9537 21.5642 41.7303Z" fill="#EBEBEB"/>
<path d="M40.3575 41.5814C40.4638 41.4219 40.7508 41.1879 40.9953 41.0815C41.2291 40.9751 41.5268 40.8794 41.6543 40.8794C41.8988 40.8794 41.8988 40.89 41.8988 42.5812C41.8988 44.2724 41.8988 44.283 41.6543 44.283C41.5268 44.283 41.2291 44.1873 40.9953 44.0703C40.7614 43.9533 40.4744 43.7193 40.3575 43.5597C40.1981 43.347 40.1449 43.1024 40.1449 42.5812C40.1449 42.0707 40.1981 41.8154 40.3575 41.5814Z" fill="#EBEBEB"/>
<path d="M39.6137 15.6291C39.9645 15.544 40.3897 15.4483 40.5704 15.427C40.7511 15.4057 41.1125 15.3738 41.8991 15.3525V18.8625L41.2826 18.6391C40.8255 18.4689 40.5066 18.4264 39.9858 18.4583C39.4649 18.5009 39.1354 18.5966 38.6146 18.8731C38.2425 19.0752 37.8067 19.4049 37.6366 19.607C37.4772 19.8091 37.2327 20.2239 37.0945 20.5111C36.8606 21.0216 36.85 21.128 36.85 23.8615C36.85 26.595 36.8606 26.7014 37.0945 27.2119C37.2327 27.5097 37.4772 27.9139 37.6366 28.116C37.8067 28.3181 38.2425 28.6584 38.6146 28.8605C39.2311 29.2009 39.3693 29.2328 40.1452 29.2328C40.7086 29.2328 41.1444 29.169 41.8991 28.8605V32.4237L41.0806 32.3492C40.6236 32.296 39.8901 32.1684 39.4543 32.0408C39.0185 31.9238 38.2957 31.6366 37.8598 31.4132C37.424 31.1792 36.7756 30.7644 36.4355 30.4879C36.0847 30.2113 35.5213 29.6476 35.1812 29.2328C34.8304 28.818 34.3733 28.1054 34.1394 27.6374C33.9162 27.1694 33.6292 26.3823 33.5123 25.8824C33.3635 25.2655 33.2891 24.6273 33.2891 23.8615C33.2891 23.1063 33.3635 22.4469 33.5017 21.8406C33.6292 21.3407 33.9056 20.5536 34.1394 20.0857C34.3627 19.6177 34.8304 18.905 35.1812 18.4902C35.5213 18.086 36.0847 17.5117 36.4355 17.2351C36.7756 16.948 37.4984 16.5119 38.0193 16.2566C38.5401 16.0013 39.263 15.7142 39.6137 15.6291Z" fill="#EBEBEB"/>
<path d="M41.8047 25.0845V23.8613V22.6382L43.0271 23.2232C43.6968 23.5423 44.2495 23.8294 44.2495 23.8613C44.2495 23.8933 43.6968 24.1804 41.8047 25.0845Z" fill="white"/>
<path d="M40.1992 25.8821V23.8612V21.8403L40.8051 22.1381C41.1453 22.2977 41.4429 22.4679 41.4748 22.5104C41.5067 22.5636 41.5598 22.5955 41.6023 22.5955C41.6555 22.5849 41.7299 22.5849 41.7937 22.5849C41.8575 22.5849 41.9 23.0848 41.9 23.8612C41.9 24.6377 41.8575 25.1376 41.7937 25.1376C41.7299 25.1376 41.6555 25.1376 41.613 25.1269C41.5598 25.1269 41.5067 25.1588 41.4748 25.212C41.4429 25.2546 41.1453 25.4247 40.1992 25.8821Z" fill="white"/>
</svg>
