<svg width="52" height="52" viewBox="0 0 52 52" fill="none" xmlns="http://www.w3.org/2000/svg">
<circle cx="25.79" cy="25.79" r="25.79" fill="#5F56AF" fill-opacity="0.2"/>
<path d="M18.6123 38.0516C20.7289 39.2876 23.1865 39.998 25.8003 39.998C33.7981 39.998 40.4463 32.937 39.9776 24.9526C39.4946 16.7124 32.0082 10.3618 23.3854 11.7825C17.4474 12.7628 12.6885 17.5791 11.7651 23.5177C11.2253 26.9558 11.9356 30.2093 13.4841 32.8944L12.2197 37.597C11.9356 38.6625 12.9158 39.6286 13.967 39.3303L18.6123 38.0516Z" fill="#292D32"/>
<path d="M23.8553 25.1536C24.4028 26.2844 25.3172 27.1964 26.4494 27.741C26.5329 27.7806 26.6252 27.7977 26.7174 27.7907C26.8095 27.7837 26.8982 27.7528 26.9748 27.7011L28.6377 26.5903C28.7111 26.5405 28.796 26.5101 28.8844 26.502C28.9728 26.4938 29.0619 26.5082 29.1432 26.5438L32.2561 27.8807C32.3625 27.925 32.4513 28.003 32.509 28.1028C32.5667 28.2025 32.59 28.3185 32.5753 28.4328C32.4767 29.2029 32.1008 29.9106 31.518 30.4236C30.9353 30.9365 30.1856 31.2196 29.4092 31.2198C27.0101 31.2198 24.7092 30.2667 23.0128 28.5702C21.3163 26.8738 20.3633 24.5729 20.3633 22.1738C20.3635 21.3974 20.6465 20.6477 21.1595 20.065C21.6724 19.4822 22.3802 19.1064 23.1502 19.0077C23.2645 18.993 23.3805 19.0163 23.4802 19.074C23.58 19.1317 23.658 19.2206 23.7023 19.327L25.0392 22.4465C25.074 22.5265 25.0886 22.6139 25.0816 22.7009C25.0746 22.7879 25.0464 22.8719 24.9993 22.9454L23.8885 24.6348C23.8391 24.7112 23.8101 24.7991 23.8042 24.8899C23.7984 24.9807 23.816 25.0715 23.8553 25.1536Z" fill="#C5C2E2"/>
</svg>
