<svg width="76" height="78" viewBox="0 0 76 78" fill="none" xmlns="http://www.w3.org/2000/svg">
<circle cx="17.6676" cy="60.463" r="16.9469" fill="#DADADA"/>
<path d="M46.3802 7.81142C46.5015 7.43783 47.0301 7.43783 47.1515 7.81142L48.0622 10.6145C48.1165 10.7816 48.2722 10.8947 48.4479 10.8947H51.3952C51.788 10.8947 51.9514 11.3974 51.6336 11.6282L49.2491 13.3606C49.107 13.4639 49.0475 13.6469 49.1018 13.814L50.0126 16.6171C50.134 16.9907 49.7064 17.3013 49.3886 17.0704L47.0041 15.338C46.862 15.2348 46.6696 15.2348 46.5275 15.338L44.143 17.0704C43.8252 17.3013 43.3976 16.9907 43.519 16.6171L44.4298 13.814C44.4841 13.6469 44.4246 13.4639 44.2825 13.3606L41.898 11.6282C41.5803 11.3974 41.7436 10.8947 42.1364 10.8947H45.0837C45.2594 10.8947 45.4151 10.7816 45.4694 10.6145L46.3802 7.81142Z" fill="#141414"/>
<path d="M24.3967 62.2821C24.6175 62.5029 24.5165 62.8798 24.215 62.9606L16.0828 65.1396C15.7813 65.2204 15.5054 64.9445 15.5861 64.6429L17.7652 56.5107C17.846 56.2092 18.2228 56.1082 18.4436 56.329L24.3967 62.2821Z" fill="#5F56AF" fill-opacity="0.2"/>
<circle cx="59.9094" cy="25.6272" r="4.88988" fill="#DADADA"/>
<path d="M52.1621 33.2324C61.2523 34.0792 68.101 37.6903 68.101 42.0237C68.101 46.9797 59.1852 50.9893 48.1774 50.9893C43.2961 50.9893 38.8133 50.1924 35.3516 48.8974" fill="#EBEBEB"/>
<path d="M52.1621 33.2324C61.2523 34.0792 68.101 37.6903 68.101 42.0237C68.101 46.9797 59.1852 50.9893 48.1774 50.9893C43.2961 50.9893 38.8133 50.1924 35.3516 48.8974" stroke="#1D1D1B" stroke-width="1.62198" stroke-linecap="round" stroke-linejoin="round"/>
<path d="M12.3125 30.0698V40.0316C12.3125 44.9876 21.2283 48.9973 32.2361 48.9973C43.2439 48.9973 52.1597 44.9876 52.1597 40.0316V30.0698" fill="white"/>
<path d="M12.3125 30.0698V40.0316C12.3125 44.9876 21.2283 48.9973 32.2361 48.9973C43.2439 48.9973 52.1597 44.9876 52.1597 40.0316V30.0698" stroke="#1D1D1B" stroke-width="1.62198" stroke-linecap="round" stroke-linejoin="round"/>
<path d="M32.2361 39.0362C43.2396 39.0362 52.1597 35.0222 52.1597 30.0706C52.1597 25.119 43.2396 21.105 32.2361 21.105C21.2326 21.105 12.3125 25.119 12.3125 30.0706C12.3125 35.0222 21.2326 39.0362 32.2361 39.0362Z" fill="#EBEBEB" stroke="#1D1D1B" stroke-width="1.62198" stroke-linecap="round" stroke-linejoin="round"/>
<path d="M24.2637 38.2876V48.2494" stroke="#141414" stroke-width="1.62198" stroke-linecap="round" stroke-linejoin="round"/>
<path d="M28.252 48.8219V51.9848C28.252 56.9408 37.1678 60.9504 48.1756 60.9504C59.1834 60.9504 68.0992 56.9408 68.0992 51.9848V42.0229" stroke="#1D1D1B" stroke-width="1.62198" stroke-linecap="round" stroke-linejoin="round"/>
<path d="M56.1445 50.2427V60.2045" stroke="#1D1D1B" stroke-width="1.62198" stroke-linecap="round" stroke-linejoin="round"/>
<path d="M40.2031 38.2876V60.2036" stroke="#141414" stroke-width="1.62198" stroke-linecap="round" stroke-linejoin="round"/>
</svg>
