<svg width="61" height="61" viewBox="0 0 61 61" fill="none" xmlns="http://www.w3.org/2000/svg">
<path d="M42.7261 30.4009L42.733 30.3898C42.95 30.0372 43.2055 29.6922 43.5289 29.397C45.008 27.9791 47.2808 27.6665 49.102 28.7192L42.7261 30.4009ZM42.7261 30.4009L42.7199 30.4124L42.5705 30.6862C42.5289 30.7578 42.4895 30.8186 42.4532 30.87C42.414 30.8145 42.3711 30.747 42.3261 30.6651L42.3215 30.6568L42.3167 30.6488L42.1662 30.3979C41.5389 29.3164 40.5396 28.5756 39.3497 28.2629C38.1286 27.9232 36.8715 28.0932 35.814 28.7213C35.8134 28.7217 35.8127 28.7221 35.812 28.7225L33.5063 30.0653C32.3464 30.7174 31.5261 31.7942 31.1873 33.0647L31.1867 33.0673C30.8493 34.3605 31.0181 35.6881 31.6665 36.844L31.671 36.8521L31.6759 36.8601C31.7196 36.9316 31.754 36.996 31.7809 37.0529C31.7133 37.0604 31.6344 37.0652 31.5434 37.0652C28.8037 37.0652 26.5701 39.2951 26.5701 42.0131V44.4023C26.5701 47.1203 28.8037 49.3502 31.5434 49.3502C31.6342 49.3502 31.7128 49.355 31.7798 49.3623C31.7534 49.4194 31.7195 49.484 31.6759 49.5553L31.6688 49.5669L31.6623 49.579C31.5364 49.8128 31.4135 50.063 31.319 50.3327H22.8763C16.1374 50.3327 10.668 44.8632 10.668 38.1243V22.8743C10.668 16.1355 16.1374 10.666 22.8763 10.666H38.1263C44.8652 10.666 50.3346 16.1355 50.3346 22.8743V29.4303M42.7261 30.4009L50.3346 29.4303M50.3346 29.4303L49.1024 28.7194L50.3346 29.4303Z" stroke="#1D1D1B"/>
<path d="M42.8672 29.3567C42.7101 29.5349 42.5712 29.7206 42.4465 29.9067C41.7468 28.8389 40.7004 28.1037 39.4771 27.7814C38.1276 27.407 36.7319 27.5945 35.5573 28.2915L33.2547 29.6326C31.9769 30.352 31.0736 31.5399 30.701 32.937L30.6996 32.9423C30.3771 34.1786 30.4767 35.448 30.9803 36.5948C28.2275 36.8759 26.0668 39.2061 26.0668 42.0143V42.8697H24.7539C21.1124 42.8697 18.1289 39.8861 18.1289 36.2447V24.7563C18.1289 21.1149 21.1124 18.1313 24.7539 18.1313H36.2422C39.8837 18.1313 42.8672 21.1149 42.8672 24.7563V29.3567Z" fill="#EBEBEB" stroke="#1D1D1B" stroke-width="2"/>
<path d="M23.0234 6.99023V10.1673H22.8709C21.6001 10.1673 20.3801 10.3452 19.2109 10.7011V6.99023C19.2109 5.94815 20.0497 5.08398 21.1172 5.08398C22.1593 5.08398 23.0234 5.94815 23.0234 6.99023Z" fill="#292D32"/>
<path d="M32.4062 6.99023V10.1673H28.5938V6.99023C28.5938 5.94815 29.4579 5.08398 30.5 5.08398C31.5421 5.08398 32.4062 5.94815 32.4062 6.99023Z" fill="#292D32"/>
<path d="M41.8086 6.99023V10.7011C40.6394 10.3452 39.394 10.1673 38.1232 10.1673H37.9961V6.99023C37.9961 5.94815 38.8603 5.08398 39.9023 5.08398C40.9444 5.08398 41.8086 5.94815 41.8086 6.99023Z" fill="#292D32"/>
<path d="M55.914 21.0986C55.914 22.1661 55.0752 23.0049 54.0077 23.0049H50.8306V22.8778C50.8306 21.607 50.6527 20.3615 50.2969 19.1924H54.0077C55.0752 19.1924 55.914 20.0565 55.914 21.0986Z" fill="#292D32"/>
<path d="M23.0234 50.8306V54.0077C23.0234 55.0498 22.1593 55.914 21.1172 55.914C20.0497 55.914 19.2109 55.0498 19.2109 54.0077V50.2969C20.3801 50.6527 21.6001 50.8306 22.8709 50.8306H23.0234Z" fill="#292D32"/>
<path d="M10.6991 19.1924C10.3433 20.3615 10.1654 21.607 10.1654 22.8778V23.0049H6.98828C5.9462 23.0049 5.08203 22.1661 5.08203 21.0986C5.08203 20.0565 5.9462 19.1924 6.98828 19.1924H10.6991Z" fill="#292D32"/>
<path d="M10.1654 28.5938V32.4062H6.98828C5.9462 32.4062 5.08203 31.5421 5.08203 30.5C5.08203 29.4325 5.9462 28.5938 6.98828 28.5938H10.1654Z" fill="#292D32"/>
<path d="M10.6991 41.8076H6.98828C5.9462 41.8076 5.08203 40.9435 5.08203 39.9014C5.08203 38.8339 5.9462 37.9951 6.98828 37.9951H10.1654V38.1222C10.1654 39.393 10.3433 40.6385 10.6991 41.8076Z" fill="#292D32"/>
<path d="M49.6923 33.0146L49.6988 33.0184L49.7053 33.0221C50.4383 33.4344 50.7027 34.3908 50.2722 35.1287C49.8395 35.8705 49.6277 36.6271 49.6277 37.3355C49.6277 38.2536 49.9973 39.0807 50.7107 39.6573C51.4019 40.2159 52.3271 40.4705 53.3472 40.4705C54.2248 40.4705 54.9143 41.173 54.9143 42.0122V44.4013C54.9143 45.2405 54.2248 45.943 53.3472 45.943C52.3271 45.943 51.4019 46.1976 50.7107 46.7562C49.9973 47.3328 49.6277 48.1599 49.6277 49.078C49.6277 49.7839 49.838 50.5378 50.2677 51.2771C50.424 51.557 50.4918 51.8197 50.4918 52.0518C50.4918 52.5874 50.1974 53.1146 49.7053 53.3914L49.6988 53.3951L49.6923 53.3989L47.3794 54.746L47.3794 54.7459L47.3712 54.7508C46.8006 55.0904 46.033 54.9009 45.6665 54.2853L45.6647 54.2823L45.5162 54.0347C44.8001 52.8005 43.7233 51.9604 42.4435 51.9604C41.1637 51.9604 40.0868 52.8005 39.3708 54.0347L39.2222 54.2823L39.2168 54.2914L39.2115 54.3006C38.8712 54.8962 38.0946 55.0881 37.5503 54.7563L37.5397 54.7498L37.5289 54.7436L35.1906 53.3965L35.1906 53.3965L35.1817 53.3914C34.4487 52.9791 34.1843 52.0228 34.6148 51.2848C35.0318 50.5698 35.2847 49.8117 35.2847 49.078C35.2847 48.1512 34.902 47.3246 34.1838 46.752C33.4882 46.1975 32.5599 45.943 31.5397 45.943C30.6811 45.943 29.9727 45.2341 29.9727 44.4013V42.0122C29.9727 41.1794 30.6812 40.4705 31.5397 40.4705C32.5599 40.4705 33.4882 40.216 34.1838 39.6615C34.902 39.0889 35.2847 38.2623 35.2847 37.3355C35.2847 36.6045 35.0337 35.8492 34.6193 35.1364C34.4629 34.8565 34.3952 34.5938 34.3952 34.3618C34.3952 33.8261 34.6896 33.2989 35.1817 33.0221L35.1817 33.0221L35.1906 33.017L37.5289 31.6699L37.5397 31.6637L37.5503 31.6572C38.0946 31.3254 38.8712 31.5173 39.2115 32.1129L39.2168 32.1221L39.2222 32.1312L39.3708 32.3788C40.0868 33.613 41.1637 34.4531 42.4435 34.4531C43.7233 34.4531 44.8001 33.613 45.5162 32.3789L45.6647 32.1312L45.6665 32.1282C46.033 31.5126 46.8006 31.3231 47.3712 31.6627L47.3712 31.6628L47.3794 31.6675L49.6923 33.0146ZM37.0718 43.2068C37.0718 46.1736 39.4766 48.5784 42.4435 48.5784C45.4104 48.5784 47.8152 46.1736 47.8152 43.2068C47.8152 40.2399 45.4104 37.8351 42.4435 37.8351C39.4766 37.8351 37.0718 40.2399 37.0718 43.2068Z" stroke="#1D1D1B" stroke-width="2"/>
<path d="M46.8176 43.2061C46.8176 45.6207 44.8605 47.5778 42.4459 47.5778C40.0313 47.5778 38.0742 45.6207 38.0742 43.2061C38.0742 40.7916 40.0313 38.8345 42.4459 38.8345C44.8605 38.8345 46.8176 40.7916 46.8176 43.2061Z" fill="#EBEBEB"/>
</svg>
