<svg width="45" height="45" viewBox="0 0 45 45" fill="none" xmlns="http://www.w3.org/2000/svg">
<path d="M14.8125 1.35312C15.4875 1.09052 16.875 0.696634 17.9062 0.452796C19.3125 0.133932 20.4 0.021392 22.3125 0.00263524C24.3563 -0.0161215 25.2375 0.0589054 26.9062 0.43404C28.05 0.677877 29.5688 1.10928 30.2812 1.39063C30.9937 1.65323 32.2687 2.23468 33.0938 2.66609C33.9188 3.11625 34.9125 3.71646 35.3063 4.01657C35.7 4.33544 36.0188 4.71057 36.0188 4.86062C36 5.01068 35.9062 5.25452 35.775 5.36706C35.6438 5.49835 35.4375 5.61089 35.3063 5.61089C35.175 5.61089 34.6125 5.32954 34.0875 4.97317C33.5438 4.63554 32.475 4.03533 31.725 3.6602C30.9937 3.28506 29.7188 2.77863 28.9313 2.49728C28.125 2.23468 26.6625 1.89706 25.6875 1.76577C24.7125 1.61571 23.2687 1.48442 22.5 1.48442C21.7313 1.48442 20.4937 1.5782 19.7812 1.67198C19.0688 1.78452 17.7938 2.04712 16.9688 2.25344C16.1437 2.45977 14.7188 2.98495 13.7812 3.43511C12.8438 3.86652 11.625 4.523 11.0625 4.87938C10.5 5.25452 9.45 6.0423 8.71875 6.66127C7.9875 7.28024 6.825 8.49943 6.13125 9.38099C5.4375 10.2438 4.44375 11.7631 3.9375 12.7384C3.45 13.7138 2.8125 15.1956 2.53125 16.0209C2.26875 16.8462 1.9125 18.3655 1.7625 19.3971C1.55625 20.635 1.5 21.9668 1.55625 23.336C1.6125 24.4802 1.78125 26.0745 1.96875 26.8998C2.1375 27.7251 2.56875 29.1131 2.90625 29.9946C3.2625 30.8762 3.8625 32.1704 4.25625 32.8644C4.65 33.5772 5.34375 34.6275 6.65625 36.2781L6.75 34.7963C6.825 33.6522 6.91875 33.2771 7.1625 33.1082C7.40625 32.9582 7.59375 32.9582 7.81875 33.1082C8.11875 33.2958 8.15625 33.6897 8.2125 35.9217C8.25 37.8912 8.2125 38.5852 8.025 38.754C7.85625 38.9228 7.05 38.9791 5.175 38.9416C2.925 38.9041 2.55 38.8666 2.3625 38.5852C2.2125 38.3414 2.2125 38.1538 2.3625 37.9287C2.53125 37.6661 2.90625 37.5723 5.60625 37.4035L4.59375 36.0906C4.03125 35.3778 3.15 33.9711 2.64375 32.9957C2.1375 32.0204 1.51875 30.6136 1.25625 29.9008C0.99375 29.1881 0.6 27.7063 0.39375 26.6184C0.13125 25.3054 0 23.9425 0 22.5295C0 21.179 0.13125 19.7159 0.39375 18.4217C0.61875 17.2963 0.99375 15.7958 1.25625 15.083C1.51875 14.3703 2.025 13.1699 2.4 12.4571C2.75625 11.7443 3.43125 10.5439 3.91875 9.83116C4.3875 9.09964 5.60625 7.67413 6.65625 6.64251C7.6875 5.59214 9.1125 4.37295 9.84375 3.90403C10.5562 3.41636 11.7 2.75987 12.375 2.42225C13.05 2.08463 14.1375 1.59696 14.8125 1.35312Z" fill="#1D1D1B"/>
<path d="M36.75 9.08089C36.6937 7.09267 36.7312 6.45495 36.9187 6.24862C37.125 6.02354 37.725 5.98603 39.8063 6.02354C42.0563 6.07981 42.45 6.11733 42.6375 6.41743C42.7875 6.64251 42.7875 6.83008 42.6375 7.07392C42.4687 7.31776 42.0938 7.41154 39.3938 7.58035L40.4062 8.89332C40.9688 9.62483 41.85 11.0128 42.3562 11.9882C42.8625 12.9635 43.4813 14.3703 43.7438 15.083C44.0063 15.7958 44.4 17.2776 44.6062 18.3655C44.8687 19.6972 45 21.0289 45 22.4919C45 24.03 44.8688 25.2679 44.55 26.806C44.3063 27.9877 43.8937 29.507 43.6312 30.1822C43.3875 30.8574 42.9 31.9453 42.5625 32.6206C42.225 33.2958 41.5125 34.4775 40.9875 35.2465C40.4813 36.0155 39.45 37.2722 38.7188 38.0413C38.0062 38.7915 36.7687 39.8982 36 40.4796C35.2313 41.0611 33.825 41.9239 32.9062 42.4116C31.9875 42.8805 30.5812 43.4995 29.8125 43.7621C29.0438 44.0059 27.6 44.3998 26.625 44.6061C25.3687 44.8875 24.1688 45 22.5 45C20.6812 45 19.6875 44.9062 18.0375 44.5311C16.8937 44.2685 15.4125 43.8558 14.7562 43.612C14.1187 43.3682 13.05 42.8992 12.375 42.5616C11.7 42.224 10.6688 41.6238 10.0688 41.2299C9.4875 40.8173 9 40.4234 9 40.3108C9 40.1983 9.075 39.9544 9.1875 39.7481C9.28125 39.5418 9.50625 39.373 9.65625 39.373C9.80625 39.373 10.2938 39.6168 10.725 39.9169C11.175 40.1983 12.225 40.7985 13.0687 41.2299C13.9312 41.6425 15.2812 42.2053 16.0687 42.4866C16.875 42.7492 18.3375 43.0868 19.3125 43.2181C20.2875 43.3682 21.7313 43.4995 22.5 43.4995C23.2687 43.4995 24.4875 43.4057 25.2188 43.3119C25.9312 43.1994 27.2062 42.9368 28.0312 42.7304C28.8563 42.5241 30.3 41.9989 31.2188 41.5488C32.1375 41.1174 33.375 40.4609 33.9375 40.1045C34.5 39.7294 35.55 38.9416 36.2812 38.3226C36.9938 37.7036 38.175 36.4845 38.8688 35.6029C39.5625 34.7401 40.5562 33.2208 41.0437 32.2454C41.55 31.2701 42.1875 29.7883 42.4313 28.963C42.6938 28.1377 43.0125 26.956 43.1438 26.3371C43.2938 25.7181 43.3875 23.9925 43.4062 22.4919C43.4062 20.56 43.3125 19.3221 43.0687 18.1779C42.8812 17.2963 42.4313 15.8708 42.0938 14.9893C41.7375 14.1077 41.1375 12.8135 40.7438 12.1195C40.35 11.4067 39.6562 10.3563 38.3438 8.70575L38.25 10.1875C38.175 11.3317 38.0812 11.7068 37.8187 11.8756C37.5938 12.0257 37.4062 12.0257 37.1625 11.8756C36.9 11.7068 36.825 11.2754 36.75 9.08089Z" fill="#1D1D1B"/>
<path d="M18.7125 8.74327C18.675 6.96138 18.7313 6.37992 18.9375 6.21111C19.125 6.06105 20.2125 5.98603 22.4813 5.98603C24.9 5.98603 25.8375 6.0423 26.025 6.21111C26.1938 6.37992 26.25 7.14895 26.25 11.0503L27.8438 11.7631L29.5312 10.0937C30.45 9.19343 31.35 8.44316 31.5 8.44316C31.65 8.4244 32.85 9.51229 34.1625 10.8253C35.475 12.1382 36.5625 13.3387 36.5437 13.4887C36.5437 13.6388 35.7937 14.5391 33.225 17.1463L33.9375 18.7406H36.225C37.8375 18.7406 38.6063 18.7969 38.775 18.9657C38.9438 19.1532 39 20.0911 39 22.4919C39 24.8178 38.9438 25.8494 38.775 26.0182C38.625 26.1683 37.8375 26.2433 33.9375 26.2433L33.225 27.8376L34.8938 29.5257C35.7938 30.4448 36.5437 31.3451 36.5437 31.4952C36.5625 31.6452 35.475 32.8456 34.1625 34.1774C32.85 35.4903 31.65 36.5595 31.5 36.5595C31.35 36.5407 30.45 35.7905 27.8438 33.2208L26.25 33.9335L26.1937 36.7095C26.1562 39.2792 26.1187 39.523 25.6875 40.1983C25.425 40.6109 24.8813 41.1549 24.4875 41.4175C23.8875 41.8114 23.5125 41.9051 22.5 41.9051C21.4875 41.9051 21.1125 41.8114 20.5125 41.4175C20.1188 41.1549 19.575 40.6109 19.3125 40.1983C18.8813 39.523 18.8438 39.2792 18.75 33.9335L17.1562 33.2208L15.4688 34.8901C14.5312 35.7905 13.65 36.5407 13.5 36.5407C13.35 36.5595 12.15 35.4716 10.8375 34.1586C9.525 32.8456 8.4375 31.6452 8.45625 31.4952C8.45625 31.3451 9.20625 30.4448 11.775 27.8376L11.0625 26.2433H8.75625C7.1625 26.2433 6.39375 26.187 6.225 26.0182C6.05625 25.8494 5.98125 24.8553 5.9625 22.4732C5.925 19.866 5.98125 19.1532 6.1875 18.9657C6.35625 18.8156 7.2375 18.7406 11.0625 18.7406L11.7563 17.1463L10.1063 15.4582C9.1875 14.5203 8.45625 13.6388 8.45625 13.4887C8.4375 13.3387 9.525 12.1382 10.8375 10.8253C12.15 9.49353 13.35 8.4244 13.5 8.4244C13.65 8.44316 14.5312 9.19343 17.1562 11.7631L18.75 11.0503L18.7125 8.74327Z" fill="#1D1D1B"/>
<path d="M21.1875 17.671C21.1875 17.4835 21.2812 16.4706 21.4125 15.4202L21.6187 13.4883H23.3437L23.5875 15.4015C23.7 16.4706 23.8125 17.4835 23.8125 17.671C23.8125 17.9336 23.625 17.9899 22.5 17.9899C21.375 17.9899 21.1875 17.9336 21.1875 17.671Z" fill="#EBEBEB"/>
<path d="M21.7687 28.5124V24.0108V19.5092H23.2687V28.5124H21.7687Z" fill="#EBEBEB"/>
<path d="M21.1875 17.671C21.1875 17.4835 21.2812 16.4706 21.4125 15.4202L21.6187 13.4883H23.3437L23.5875 15.4015C23.7 16.4706 23.8125 17.4835 23.8125 17.671C23.8125 17.9336 23.625 17.9899 22.5 17.9899C21.375 17.9899 21.1875 17.9336 21.1875 17.671Z" stroke="#EBEBEB" stroke-width="1.19"/>
<path d="M21.7687 28.5124V24.0108V19.5092H23.2687V28.5124H21.7687Z" stroke="#EBEBEB" stroke-width="1.19"/>
<path d="M22.5 30.7444C20.3812 30.7444 20.25 30.7257 20.25 30.3693C20.25 30.0129 20.3812 29.9941 22.5 29.9941C24.6188 29.9941 24.75 30.0129 24.75 30.3693C24.75 30.7257 24.6188 30.7444 22.5 30.7444Z" fill="#1D1D1B"/>
<path d="M17.9249 17.5959C18.3374 17.2208 18.8249 16.8269 19.0312 16.7143C19.2374 16.6018 19.4624 16.4893 19.5374 16.4893C19.6312 16.4893 19.6874 16.6393 19.6874 16.8081C19.7062 16.9957 19.3687 17.3708 18.9374 17.6522C18.5249 17.9523 17.9437 18.5337 17.6437 18.9651C17.3437 19.4153 16.9499 20.2406 16.7812 20.8033C16.5374 21.5348 16.4624 22.1725 16.5374 22.9603C16.5937 23.5793 16.8374 24.4984 17.0812 25.0236C17.3249 25.53 17.8687 26.299 18.2812 26.7117C18.6937 27.1431 19.3124 27.5932 19.6499 27.7433C19.9687 27.8933 20.2499 28.1372 20.2499 28.2497C20.2499 28.381 20.0624 28.4936 19.8187 28.4936C19.5937 28.4936 19.0687 28.2685 18.6562 27.9684C18.2437 27.6683 17.6812 27.1806 17.3999 26.8805C17.1187 26.5804 16.6687 25.8301 16.3874 25.2111C16.0874 24.5546 15.8437 23.6168 15.7874 22.9603C15.7312 22.2101 15.8062 21.4598 16.0312 20.7095C16.2187 20.0905 16.5562 19.284 16.7812 18.9276C17.0249 18.5713 17.5312 17.971 17.9249 17.5959Z" fill="#EBEBEB"/>
<path d="M26.0062 17.6147C25.6312 17.3521 25.3124 16.9957 25.3124 16.8081C25.3124 16.6393 25.3499 16.4893 25.4062 16.4893C25.4624 16.4893 25.7249 16.6018 26.0249 16.7519C26.3062 16.9019 26.8874 17.3896 27.3187 17.8397C27.7499 18.2899 28.3499 19.1527 28.6312 19.7717C29.0812 20.7283 29.1562 21.1409 29.1562 22.4914C29.1562 23.8419 29.0812 24.2545 28.6312 25.2111C28.3312 25.8301 27.8812 26.5804 27.5999 26.8805C27.3187 27.1806 26.7562 27.6683 26.3437 27.9684C25.9312 28.2685 25.4062 28.4936 25.1812 28.4936C24.9374 28.4936 24.7687 28.3998 24.8062 28.2872C24.8249 28.1747 25.3124 27.7808 25.8749 27.4057C26.5687 26.9368 27.1124 26.374 27.5249 25.6801C27.8624 25.1173 28.2187 24.3108 28.3312 23.8982C28.4437 23.4855 28.4999 22.6415 28.4437 22.0225C28.3874 21.4035 28.2187 20.597 28.0499 20.2406C27.8999 19.8842 27.5437 19.2465 27.2437 18.8338C26.9437 18.4212 26.3812 17.8773 26.0062 17.6147Z" fill="#EBEBEB"/>
<path d="M20.0063 12.1197C20.175 12.0259 20.25 11.3319 20.25 9.73762V7.48682H24.75V9.70011C24.7313 11.2757 24.8063 11.9509 24.975 12.0822C25.1063 12.1948 25.8563 12.5699 26.625 12.9075C27.7125 13.3764 28.1063 13.4702 28.4063 13.3389C28.6125 13.2264 29.4188 12.4949 31.5938 10.3003L34.6875 13.3952L33.0938 14.9895C32.2313 15.8711 31.5188 16.6776 31.5 16.7714C31.5 16.8839 31.7813 17.5967 32.1188 18.3657C32.4563 19.1347 32.7938 19.885 32.8688 20.0163C32.9625 20.1664 33.6563 20.2414 37.5 20.2414V24.743H35.2875C33.7125 24.7242 33.0375 24.7993 32.8875 24.9681C32.7563 25.0994 32.4375 25.7559 32.1563 26.4311C31.8938 27.1063 31.6313 27.8003 31.575 27.9879C31.5188 28.1942 32.025 28.8507 34.6875 31.5892L31.5938 34.6841L30.0938 33.1835C29.2688 32.3582 28.4438 31.6455 28.2563 31.5892C28.0875 31.5329 27.6 31.6642 27.1875 31.8706C26.775 32.0769 26.4 32.2457 26.3438 32.2457C26.2875 32.2457 26.25 31.7017 26.25 31.0265C26.25 29.8636 26.2688 29.7886 26.8125 29.526C27.1313 29.3759 27.7875 28.832 28.3125 28.3068C28.8188 27.8003 29.4938 26.8813 29.7938 26.2998C30.0938 25.6996 30.4313 24.7618 30.5438 24.2366C30.6563 23.6926 30.75 22.8486 30.75 22.3609C30.75 21.8545 30.6375 21.0479 30.4875 20.5227C30.3563 20.0163 30.0375 19.1723 29.775 18.6471C29.5125 18.1406 28.875 17.2591 28.3313 16.7339C27.7688 16.1337 26.8875 15.5147 25.0313 14.6331L24.8813 13.5452C24.7875 12.945 24.6188 12.3448 24.5063 12.2135C24.3563 12.0447 23.7188 11.9697 22.5 11.9697C21.2813 11.9697 20.6438 12.0447 20.4938 12.2135C20.3813 12.3448 20.2125 12.945 19.9688 14.6331L18.8438 15.1583C18.225 15.4397 17.2875 16.0962 16.725 16.6401C16.2 17.184 15.525 18.0656 15.2438 18.5908C14.9813 19.1347 14.6438 19.9975 14.5125 20.5227C14.3625 21.0292 14.25 21.9295 14.25 22.4922C14.25 23.0549 14.3625 23.9365 14.5125 24.4616C14.6438 24.9681 14.9438 25.7746 15.1875 26.2435C15.4313 26.7125 15.8813 27.4065 16.2 27.8003C16.5188 28.1942 17.2313 28.832 18.7688 29.9011L18.75 31.064C18.75 31.7205 18.7125 32.2457 18.6563 32.2457C18.6 32.2457 18.225 32.0769 17.8125 31.8706C17.4 31.6642 16.95 31.4954 16.8375 31.4954C16.7063 31.5142 15.8813 32.2269 13.4063 34.6841L10.3125 31.5892L11.7375 30.1824C12.5063 29.4134 13.2375 28.6069 13.35 28.4006C13.4813 28.1005 13.3875 27.7066 12.9188 26.6187C12.5813 25.8496 12.2063 25.0994 12.0938 24.9681C11.9625 24.7993 11.2875 24.7242 7.5 24.743V20.2414H9.69375C11.2875 20.2601 11.9625 20.1851 12.0938 20.0163C12.2063 19.885 12.5813 19.1347 12.9188 18.3657C13.3875 17.2778 13.4813 16.8839 13.35 16.5838C13.2375 16.3775 12.5063 15.571 10.3125 13.3952L13.4063 10.3003L15 11.8946C15.8813 12.7575 16.6875 13.4702 16.7813 13.489C16.875 13.489 17.6063 13.2076 18.375 12.87C19.1438 12.5324 19.8938 12.1948 20.0063 12.1197Z" fill="#EBEBEB"/>
<path d="M20.343 39.1861L20.2867 34.9659L20.2305 30.7456H24.7305L24.6555 39.1861L24.0367 39.7863C23.5117 40.3115 23.3055 40.4053 22.4992 40.4053C21.693 40.4053 21.4867 40.3115 20.343 39.1861Z" fill="#EBEBEB"/>
<path d="M17.6437 18.9851C17.9437 18.5349 18.5063 17.9722 18.9 17.7096C19.275 17.447 19.6125 17.2407 19.6313 17.2407C19.65 17.2407 19.6312 17.6534 19.5938 18.1786C19.5187 18.9663 19.5563 19.1539 19.875 19.3415C20.2313 19.5666 20.25 19.7916 20.25 23.7493C20.25 26.4128 20.175 27.9321 20.0625 27.9321C19.9688 27.9321 19.5 27.6882 19.0312 27.3694C18.5625 27.0505 17.9437 26.4503 17.6437 26.0001C17.3437 25.5687 16.9688 24.8184 16.8 24.3308C16.6313 23.8243 16.5 22.999 16.5 22.4926C16.5 21.9674 16.6313 21.1609 16.8 20.6544C16.9688 20.1668 17.3437 19.4165 17.6437 18.9851Z" fill="#EBEBEB"/>
<path d="M25.125 19.3415C25.4438 19.1539 25.4812 18.9851 25.4062 18.1786C25.3313 17.5971 25.3687 17.2407 25.5 17.2407C25.5938 17.2407 26.1 17.6346 26.5875 18.1223C27.075 18.6287 27.6938 19.4353 27.9375 19.9604C28.2937 20.7107 28.3875 21.1984 28.3875 22.4926C28.4063 23.8243 28.3312 24.237 27.9562 24.931C27.7125 25.3999 27.3375 26.0189 27.1125 26.3377C26.8687 26.6566 26.25 27.1818 24.75 28.1196V23.8431C24.75 19.7916 24.7688 19.5666 25.125 19.3415Z" fill="#EBEBEB"/>
</svg>
