<svg width="92" height="92" viewBox="0 0 92 92" fill="none" xmlns="http://www.w3.org/2000/svg">
<path d="M3.59375 3.95312H28.3906L29.4688 5.03125L29.1094 6.82812L28.3906 7.1875H12.9375V13.6562H43.4844L44.2031 11.8594L46.7188 8.625L48.1562 7.54688L33.7812 7.1875L32.7031 6.46875V4.67188L33.4219 3.95312H61.0938L66.125 5.03125L70.0781 7.1875L71.875 8.98438L74.3906 11.8594L75.8281 14.7344L76.5469 17.25V19.0469L78.7031 19.4062L81.5781 21.5625L82.6562 23.3594L83.0156 24.7969V28.3906L81.5781 31.2656L79.4219 33.4219L76.9062 34.1406V37.7344L75.8281 40.25L73.6719 42.0469L70.4375 43.125L67.9219 46L67.5625 49.9531L69.3594 50.3125L85.1719 56.4219L88.0469 58.5781L90.5625 61.4531L92 65.0469V73.3125L91.6406 73.6719H89.8438L89.125 72.9531L88.7656 66.4844L87.6875 63.25L85.8906 61.0938L82.2969 58.9375L73.6719 55.7031L72.5938 57.1406L69 64.3281L67.9219 65.4062L65.7656 65.7656L64.3281 65.4062L63.9688 66.125L64.3281 70.4375L66.4844 83.375V84.8125H77.9844V69.7188L78.3438 69.3594H80.5L80.8594 70.0781V84.8125H89.125V77.625L90.9219 76.9062L92 77.625V86.25L90.5625 87.6875L89.8438 88.0469H28.75L26.9531 86.9688L26.2344 85.1719V67.9219L26.5938 65.7656H3.95312L1.4375 64.6875L0 62.8906V6.82812L1.79688 4.67188L3.59375 3.95312ZM3.59375 7.1875L2.875 8.26562V13.6562H10.0625V7.1875H3.59375ZM56.4219 7.1875L52.8281 8.26562L49.5938 10.4219L47.0781 12.9375L45.2812 16.8906L46.3594 17.6094L48.1562 17.9688L48.875 23H53.1875L58.9375 21.5625L62.5312 20.125L66.125 18.3281L68.2812 19.0469L69.7188 20.125L70.4375 17.9688L73.3125 17.25L71.875 13.6562L68.6406 10.0625L65.7656 8.26562L62.1719 7.1875H56.4219ZM2.875 16.5312V61.4531L3.95312 62.5312H27.6719L30.1875 58.9375L34.1406 56.4219V56.0625L10.7812 55.7031L10.4219 55.3438V53.5469L42.7656 53.1875L51.0312 49.9531V48.5156L10.7812 48.1562L10.4219 46.3594L10.7812 46L50.3125 45.6406L48.1562 42.7656L47.0781 40.9688H10.4219V38.8125L10.7812 38.4531L46 38.0938L45.6406 35.5781L42.4062 34.8594L41.3281 33.7812L11.5 33.4219L10.4219 33.0625V31.2656L10.7812 30.9062L36.6562 30.5469L35.9375 28.75L35.5781 26.2344L11.1406 25.875L10.4219 25.5156V23.7188L11.1406 23.3594L36.2969 23L38.4531 20.4844L42.0469 18.6875L42.4062 16.5312H2.875ZM44.9219 20.4844V32.7031H45.6406V20.4844H44.9219ZM72.9531 20.4844V32.7031H73.6719V20.4844H72.9531ZM65.7656 21.5625L60.375 24.0781L54.9844 25.5156L48.875 26.2344V37.7344L50.3125 40.9688L52.4688 43.4844L56.0625 45.2812L57.1406 45.6406H61.4531L65.0469 44.2031L66.8438 42.4062H63.9688L62.5312 43.8438L61.4531 44.2031H58.5781L56.4219 43.125L56.0625 42.4062V39.5312L57.5 38.0938L58.5781 37.7344H61.4531L63.25 38.8125L63.9688 39.5312H69L69.7188 37.7344V24.7969L66.8438 21.5625H65.7656ZM40.9688 22.2812L38.8125 24.7969L38.4531 26.9531L39.5312 29.4688L41.3281 30.9062H41.6875V22.2812H40.9688ZM76.9062 22.2812V30.9062L78.7031 29.8281L79.7812 28.3906L80.1406 26.2344L79.0625 23.7188L77.2656 22.2812H76.9062ZM72.9531 35.5781L72.5938 38.8125L73.6719 37.7344V35.5781H72.9531ZM58.9375 40.6094V41.3281H61.0938V40.6094H58.9375ZM53.9062 47.7969V50.3125L58.9375 56.4219L60.375 55.7031L63.25 52.1094L64.6875 50.3125V47.7969L58.5781 48.5156L53.9062 47.7969ZM66.4844 52.8281L63.6094 56.0625L61.8125 58.2188L62.1719 59.6562L65.7656 62.1719H66.4844L70.0781 54.9844V53.9062L66.4844 52.8281ZM51.3906 52.8281L48.1562 54.2656L51.3906 61.0938L52.1094 62.1719L53.5469 61.4531L56.7812 59.2969L56.0625 57.5L52.1094 52.8281H51.3906ZM44.9219 55.3438L35.5781 58.9375L32.3438 61.0938L30.1875 63.9688L29.4688 66.125V84.8125H37.7344L38.0938 69.7188H40.25L40.6094 84.8125H52.1094L54.9844 68.2812V66.125L54.2656 65.0469L51.75 65.4062L49.9531 64.3281L45.6406 55.7031L44.9219 55.3438ZM58.9375 61.0938L56.7812 62.8906L57.5 64.6875H61.0938L61.8125 62.8906L59.2969 61.0938H58.9375ZM57.8594 67.5625L54.9844 84.8125H63.25L62.8906 80.5L60.7344 67.9219L60.375 67.5625H57.8594Z" fill="#ffffff" fill-opacity="0.75"/>
</svg>
