<svg width="83" height="81" viewBox="0 0 83 81" fill="none" xmlns="http://www.w3.org/2000/svg">
<circle cx="20.1282" cy="61.1194" r="19.2923" fill="#DADADA"/>
<path d="M61.054 8.62343C61.1754 8.24984 61.7039 8.24984 61.8253 8.62343L62.5743 10.9286C62.6286 11.0956 62.7843 11.2087 62.96 11.2087H65.3837C65.7765 11.2087 65.9399 11.7114 65.6221 11.9423L63.6612 13.3669C63.5191 13.4702 63.4596 13.6532 63.5139 13.8203L64.2629 16.1254C64.3843 16.499 63.9567 16.8097 63.6389 16.5788L61.678 15.1541C61.5359 15.0509 61.3435 15.0509 61.2013 15.1541L59.2405 16.5788C58.9227 16.8097 58.4951 16.499 58.6165 16.1254L59.3655 13.8203C59.4198 13.6532 59.3603 13.4702 59.2182 13.3669L57.2573 11.9423C56.9395 11.7114 57.1028 11.2087 57.4956 11.2087H59.9194C60.0951 11.2087 60.2508 11.0956 60.3051 10.9286L61.054 8.62343Z" fill="#141414"/>
<path d="M13.7813 43.112C14.002 43.3327 13.901 43.7096 13.5995 43.7904L5.23848 46.0307C4.93697 46.1115 4.66106 45.8356 4.74185 45.5341L6.98218 37.1731C7.06297 36.8716 7.43986 36.7706 7.66058 36.9913L13.7813 43.112Z" fill="#5F56AF" fill-opacity="0.2"/>
<circle cx="76.5729" cy="21.7726" r="5.88541" fill="#DADADA"/>
<rect x="24.0977" y="49.6997" width="42.0266" height="6.51105" fill="#EBEBEB"/>
<path d="M22.1094 31.9537H68.1175V26.1509H45.5H22.1094V31.9537Z" fill="#EBEBEB" stroke="#141414" stroke-width="1.62198" stroke-linecap="round" stroke-linejoin="round"/>
<path d="M29.1875 31.9531V49.6486" stroke="#141414" stroke-width="1.62198" stroke-linecap="round" stroke-linejoin="round"/>
<path d="M39.8008 31.9531V49.6486" stroke="#141414" stroke-width="1.62198" stroke-linecap="round" stroke-linejoin="round"/>
<path d="M50.4258 31.9531V49.6486" stroke="#141414" stroke-width="1.62198" stroke-linecap="round" stroke-linejoin="round"/>
<path d="M61.0391 31.9531V49.6486" stroke="#141414" stroke-width="1.62198" stroke-linecap="round" stroke-linejoin="round"/>
<path d="M23.8789 49.6489H66.348" stroke="#141414" stroke-width="1.62198" stroke-linecap="round" stroke-linejoin="round"/>
<path d="M20.3398 56.7266H69.8871" stroke="#141414" stroke-width="1.62198" stroke-linecap="round" stroke-linejoin="round"/>
</svg>
