<svg width="92" height="92" viewBox="0 0 92 92" fill="none" xmlns="http://www.w3.org/2000/svg">
<path d="M72.5938 1.4375H76.5469L78.3438 2.15625L78.7031 3.59375L76.1875 6.46875L74.0312 8.625V12.5781H77.9844L82.6562 7.90625L84.4531 8.26562L85.1719 10.0625V13.6562L83.7344 17.6094L81.5781 20.125L80.5 20.8438L83.7344 21.9219L84.8125 23.3594V29.8281L83.7344 31.625L80.1406 32.7031L78.7031 34.1406L78.3438 36.6562L80.1406 39.8906L79.7812 42.0469L77.2656 44.9219L75.1094 46.7188H72.2344L70.0781 45.2812H67.9219L66.125 46.3594L64.6875 50.6719L62.8906 51.75H56.7812L54.9844 50.6719L53.9062 47.0781H53.1875L51.3906 49.2344L47.7969 51.0312L43.8438 51.3906L40.25 50.3125L36.6562 47.0781L35.2188 43.125V39.8906L36.2969 36.6562L38.8125 33.7812L39.8906 33.0625L38.8125 32.3438L35.9375 31.625L34.8594 29.8281V23.3594L36.2969 21.5625L39.5312 20.8438L40.9688 19.4062L41.3281 18.6875V16.5312L39.8906 14.375V11.5L42.4062 8.625L44.2031 6.82812L46.7188 6.46875L49.9531 8.26562L52.4688 7.90625L53.9062 6.46875L54.9844 2.875L56.4219 1.79688H63.25L65.0469 3.23438L65.7656 6.10938L68.2812 3.23438L71.1562 1.79688L72.5938 1.4375ZM57.5 4.67188L56.0625 8.625L53.9062 10.4219L51.75 11.1406L48.1562 10.7812L46.3594 9.70312L44.9219 10.4219L42.7656 12.5781L43.4844 14.375L44.2031 15.8125V19.0469L43.125 21.5625L40.9688 23.3594L37.7344 24.4375V29.1094L41.3281 30.1875L43.125 31.9844L48.1562 32.3438L47.4375 28.3906V24.7969L48.5156 21.2031L50.6719 17.9688L53.5469 15.8125L57.5 14.375H62.1719L64.3281 14.7344V9.34375L62.8906 7.1875L62.1719 4.67188H57.5ZM72.9531 4.3125L70.0781 5.75L67.9219 8.26562L67.2031 9.70312V14.0156L67.5625 16.5312L65.0469 19.4062L49.5938 34.8594L48.1562 35.2188L47.0781 34.8594H43.125L40.9688 35.9375L38.8125 38.4531L38.0938 40.6094L38.4531 43.8438L40.25 46.7188L42.7656 48.1562L46 48.5156L48.875 47.4375L51.0312 44.9219L51.75 43.4844V37.7344L70.0781 19.4062L71.5156 19.0469L72.5938 19.4062H76.5469L79.4219 17.9688L81.5781 15.4531L81.9375 13.2969L79.0625 15.4531L71.5156 15.0938L71.1562 10.7812V7.1875L73.6719 4.67188L72.9531 4.3125ZM57.8594 16.8906L54.625 18.3281L51.75 20.8438L50.3125 23.7188L49.9531 25.5156V28.0312L50.3125 29.4688L51.75 28.75L62.8906 17.6094L61.8125 16.8906H57.8594ZM71.875 21.9219L72.2344 24.7969V28.75L71.1562 32.3438L68.6406 35.9375L66.125 37.7344L61.4531 39.1719H58.5781L54.9844 38.4531L54.625 38.8125V43.4844L56.4219 45.2812L57.5 48.875H62.1719L63.25 45.2812L65.0469 43.4844L67.2031 42.4062H70.7969L72.9531 43.4844H74.3906L76.9062 40.9688L76.1875 39.1719L75.4688 37.375V34.5L76.5469 31.9844L78.3438 30.1875L81.9375 29.1094V24.4375L78.7031 23.3594L77.2656 22.2812L71.875 21.9219ZM69 24.4375L57.5 35.9375L58.5781 36.6562H61.0938L65.0469 35.2188L67.5625 33.0625L69.3594 29.8281L69.7188 28.3906V25.1562L69 24.4375Z" fill="#5F56AF" fill-opacity="0.75"/>
<path d="M32.3438 51.0312H37.375L41.3281 52.4688L44.9219 54.625L57.8594 58.2188L60.375 60.375L60.7344 61.0938L66.4844 59.6562L77.2656 56.4219L81.2188 55.7031H84.4531L87.6875 56.7812L89.4844 58.2188L90.5625 60.7344V63.9688L89.4844 66.8438L87.3281 69.3594L84.4531 70.7969L63.9688 78.7031L55.3438 81.9375L52.1094 82.6562H47.7969L33.7812 78.7031H30.1875L25.875 80.8594L26.2344 81.9375V85.5312L24.4375 87.6875L17.25 90.5625H14.7344L12.9375 89.4844L11.1406 85.8906L4.3125 69.3594L1.4375 62.5312V60.0156L2.51562 58.2188L4.67188 56.7812L10.0625 54.625H13.6562L15.4531 56.4219L16.5312 57.8594L26.9531 52.8281L32.3438 51.0312ZM32.7031 53.9062L28.0312 55.7031L17.25 60.7344L18.3281 63.9688L24.0781 77.625L24.7969 77.9844L28.75 76.1875L29.8281 75.8281H34.5L48.1562 79.7812H51.75L57.5 77.9844L75.4688 71.1562L85.1719 67.2031L86.9688 65.0469L87.6875 63.25V61.0938L86.25 59.2969L84.0938 58.5781L79.4219 58.9375L62.1719 63.9688L61.4531 64.3281L60.7344 67.9219L58.9375 70.0781L56.7812 71.1562H52.4688L36.6562 66.8438L36.2969 64.6875L39.8906 65.0469L53.1875 68.6406H56.0625L58.2188 66.8438L58.5781 66.125V63.25L56.7812 61.0938L51.0312 59.2969L43.4844 57.1406L39.8906 54.9844L36.6562 53.9062H32.7031ZM10.7812 57.5L5.03125 60.0156L4.3125 60.7344L4.67188 62.5312L11.8594 79.7812L15.0938 87.3281L16.5312 87.6875L23.3594 84.8125L23 81.9375L16.5312 66.4844L12.9375 57.8594L12.5781 57.5H10.7812Z" fill="#5F56AF" fill-opacity="0.75"/>
<path d="M43.8438 36.6562H46.3594L48.5156 38.0938L49.5938 39.5312L49.9531 42.7656L48.5156 45.2812L46.7188 46.3594H43.4844L41.6875 45.2812L40.25 43.4844V39.8906L41.6875 37.7344L43.8438 36.6562ZM44.2031 39.5312L43.125 40.6094L43.4844 43.125L46 43.4844L47.0781 42.0469L46.7188 40.25L45.6406 39.5312H44.2031Z" fill="#5F56AF" fill-opacity="0.75"/>
</svg>
