<svg width="44" height="44" viewBox="0 0 44 44" fill="none" xmlns="http://www.w3.org/2000/svg">
<circle cx="21.7676" cy="21.7676" r="21.7676" fill="#5F56AF"/>
<path d="M18.9082 21.9072H24.4252" stroke="white" stroke-linecap="round" stroke-linejoin="round"/>
<path d="M18.9082 24.666H24.4252" stroke="white" stroke-linecap="round" stroke-linejoin="round"/>
<path d="M15.4592 14.3213H27.8723C28.0552 14.3213 28.2306 14.3939 28.36 14.5233C28.4893 14.6526 28.562 14.828 28.562 15.0109V28.1137C28.562 28.6624 28.344 29.1886 27.956 29.5766C27.568 29.9646 27.0418 30.1826 26.4931 30.1826H16.8384C16.2897 30.1826 15.7635 29.9646 15.3755 29.5766C14.9875 29.1886 14.7695 28.6624 14.7695 28.1137V15.0109C14.7695 14.828 14.8422 14.6526 14.9715 14.5233C15.1008 14.3939 15.2763 14.3213 15.4592 14.3213Z" stroke="white" stroke-linecap="round" stroke-linejoin="round"/>
<path d="M17.5293 12.9424V15.7009" stroke="white" stroke-linecap="round" stroke-linejoin="round"/>
<path d="M21.666 12.9424V15.7009" stroke="white" stroke-linecap="round" stroke-linejoin="round"/>
<path d="M25.8047 12.9424V15.7009" stroke="white" stroke-linecap="round" stroke-linejoin="round"/>
</svg>
