<svg width="92" height="92" viewBox="0 0 92 92" fill="none" xmlns="http://www.w3.org/2000/svg">
<path d="M5.39062 2.875H86.6094L88.7656 4.67188L89.125 5.39062V46.7188H86.25V23.3594H29.1094V20.125H86.25L85.8906 7.1875L84.8125 6.10938H7.1875L6.10938 7.1875L5.75 20.125H24.4375V23.3594H5.75L6.10938 63.25L6.46875 63.9688L35.5781 64.3281V67.5625H5.39062L3.23438 65.7656L2.875 65.0469V5.39062L4.67188 3.23438L5.39062 2.875Z" fill="#ffffff" fill-opacity="0.75"/>
<path d="M57.8594 39.5312H70.7969V45.2812L73.6719 45.6406L76.9062 42.4062L78.3438 42.7656L86.6094 51.0312L85.8906 52.4688L83.0156 55.3438L83.7344 57.5L89.125 57.8594V70.7969L83.7344 71.1562L83.0156 73.6719L86.6094 77.2656L84.4531 79.7812L77.625 86.6094L75.1094 84.4531L73.6719 83.0156L71.1562 83.7344L70.7969 89.125H57.8594L57.5 83.7344L55.3438 83.0156L51.75 86.6094L50.3125 85.8906L42.4062 77.9844L42.7656 76.5469L45.6406 73.6719L45.2812 70.7969H39.5312V57.8594H45.2812L45.6406 54.9844L42.4062 51.75L43.125 50.3125L51.0312 42.4062L52.4688 43.125L54.9844 45.6406L57.8594 45.2812V39.5312ZM61.0938 42.7656V47.7969L57.8594 48.5156L55.3438 49.9531L53.9062 49.2344L51.75 47.0781L50.3125 47.7969L47.0781 51.0312L47.7969 52.4688L49.9531 54.625L49.2344 56.4219L47.7969 60.0156V61.0938H42.7656V67.5625H47.7969L48.5156 70.7969L49.9531 73.6719L49.2344 75.1094L47.0781 77.625L51.3906 81.9375L53.9062 79.7812L55.3438 79.0625L59.2969 80.8594L60.7344 81.2188L61.0938 86.25H67.5625V81.2188L71.5156 80.1406L73.3125 79.0625L74.75 79.4219L77.2656 81.9375L79.7812 79.7812L81.9375 77.2656L79.0625 74.3906L79.4219 72.9531L81.2188 68.2812V67.5625H86.25V61.0938L81.2188 60.7344L79.7812 56.7812L79.0625 54.625L81.9375 51.75L79.7812 49.2344L77.2656 47.0781L74.3906 49.9531L72.2344 49.2344L68.6406 47.7969H67.5625V42.7656H61.0938Z" fill="#ffffff" fill-opacity="0.75"/>
<path d="M61.8125 51.3906H67.2031L70.7969 52.8281L72.9531 54.2656L75.8281 57.5L77.2656 61.0938L77.625 62.8906V66.125L76.1875 70.7969L73.6719 74.0312L70.0781 76.5469L66.125 77.625H62.8906L58.9375 76.5469L55.7031 74.3906L53.1875 71.5156L51.75 68.6406L51.3906 67.2031V61.8125L52.8281 57.8594L55.3438 54.625L58.5781 52.4688L61.8125 51.3906ZM62.1719 54.625L58.5781 56.4219L56.7812 58.2188L54.9844 61.0938L54.625 62.1719V66.4844L56.0625 69.7188L58.5781 72.5938L61.4531 74.0312L63.25 74.3906H65.7656L69.7188 72.9531L71.875 71.1562L73.6719 68.2812L74.3906 65.7656V63.25L73.3125 60.0156L71.875 57.8594L69.3594 55.7031L66.4844 54.625H62.1719Z" fill="#ffffff" fill-opacity="0.75"/>
<path d="M49.9531 8.625H82.2969V17.6094H49.9531V8.625ZM53.1875 11.8594V14.375H79.0625V11.8594H53.1875Z" fill="#ffffff" fill-opacity="0.75"/>
<path d="M22.6406 8.625H31.625V17.6094H22.6406V8.625ZM25.875 11.8594V14.375H28.3906V11.8594H25.875Z" fill="#ffffff" fill-opacity="0.75"/>
<path d="M9.70312 8.625H18.6875V17.6094H9.70312V8.625ZM12.9375 11.8594V14.375H15.4531V11.8594H12.9375Z" fill="#ffffff" fill-opacity="0.75"/>
<path d="M25.5156 34.5H28.3906L28.75 34.8594L28.3906 39.1719L26.2344 52.8281L25.875 53.1875L22.6406 52.8281L24.7969 38.4531L25.5156 34.5Z" fill="#ffffff" fill-opacity="0.75"/>
<path d="M32.3438 36.2969L34.8594 38.4531L39.8906 43.4844L39.1719 44.9219L32.7031 51.3906L30.1875 49.2344L32.3438 46.7188L34.8594 44.2031L34.1406 42.7656L30.1875 38.8125L32.3438 36.2969Z" fill="#ffffff" fill-opacity="0.75"/>
<path d="M19.0469 36.2969L21.2031 38.0938L20.8438 39.5312L16.8906 43.4844L17.6094 44.9219L21.2031 48.5156L20.8438 49.9531L19.0469 51.3906L11.8594 44.2031L12.5781 42.7656L19.0469 36.2969Z" fill="#ffffff" fill-opacity="0.75"/>
</svg>
