<svg width="79" height="81" viewBox="0 0 79 81" fill="none" xmlns="http://www.w3.org/2000/svg">
<circle cx="36.1075" cy="16.1515" r="4.07236" fill="#DADADA"/>
<circle cx="25.2923" cy="61.2923" r="19.2923" fill="#DADADA"/>
<path d="M73.7454 53.788C73.8668 53.4144 74.3954 53.4144 74.5167 53.788L75.2657 56.0931C75.32 56.2602 75.4757 56.3733 75.6514 56.3733H78.0751C78.4679 56.3733 78.6313 56.876 78.3135 57.1068L76.3526 58.5315C76.2105 58.6348 76.151 58.8178 76.2053 58.9849L76.9543 61.29C77.0757 61.6636 76.6481 61.9742 76.3303 61.7433L74.3694 60.3187C74.2273 60.2154 74.0349 60.2154 73.8927 60.3187L71.9319 61.7433C71.6141 61.9742 71.1865 61.6636 71.3079 61.29L72.0569 58.9849C72.1112 58.8178 72.0517 58.6348 71.9096 58.5315L69.9487 57.1068C69.6309 56.876 69.7942 56.3733 70.1871 56.3733H72.6108C72.7865 56.3733 72.9422 56.2602 72.9965 56.0931L73.7454 53.788Z" fill="#141414"/>
<path d="M9.15627 42.8098C9.37699 43.0305 9.276 43.4074 8.97449 43.4882L0.61348 45.7285C0.311966 45.8093 0.0360615 45.5334 0.116852 45.2319L2.35718 36.8709C2.43797 36.5693 2.81486 36.4684 3.03558 36.6891L9.15627 42.8098Z" fill="#5F56AF" fill-opacity="0.2"/>
<mask id="path-5-inside-1_1031_5218" fill="white">
<path fill-rule="evenodd" clip-rule="evenodd" d="M20.9998 10.0015L44.2383 10.0334C64.4748 10.0547 67.5513 10.0759 68.1048 10.2142C68.4561 10.31 69.0096 10.5546 69.329 10.778C69.659 11.0015 70.0742 11.4057 70.2658 11.7036C70.4574 12.0014 70.6916 12.4802 70.7768 12.7674C70.9045 13.2248 70.9258 15.5333 70.9258 28.5438C70.9258 38.3415 70.8832 43.9584 70.8193 44.2776C70.7555 44.5648 70.5532 45.0542 70.3616 45.3733C70.17 45.6925 69.7867 46.1286 69.4887 46.352C69.2013 46.5754 68.6477 46.852 68.2645 46.969C67.5938 47.1818 67.2851 47.1818 49.7418 47.1818L50.306 49.3839C50.6147 50.6073 50.9022 51.6605 50.9447 51.7243C50.998 51.8307 51.5835 51.8626 53.2867 51.8626C55.2241 51.8626 55.6393 51.8839 56.2354 52.0647C56.6186 52.1817 57.2361 52.4796 57.6086 52.7349C57.9919 52.9902 58.4922 53.4264 58.7264 53.7243C58.9499 54.0115 59.2799 54.554 59.4503 54.9157C59.6099 55.2881 59.8016 55.9051 59.8654 56.2987C59.9399 56.7029 59.9612 57.1497 59.9186 57.3093C59.8867 57.4795 59.7483 57.7029 59.6206 57.82C59.3757 58.0327 59.2799 58.0327 44.4192 58.0327C32.8373 58.0221 29.4202 58.0008 29.2924 57.8944C29.1966 57.82 29.0582 57.6497 28.9837 57.5008C28.8914 57.3235 28.8701 57.0398 28.9198 56.6498C28.9518 56.3306 29.0795 55.7774 29.1966 55.4264C29.3243 55.0753 29.5692 54.554 29.7608 54.2668C29.9524 53.9796 30.3676 53.5009 30.6869 53.2136C31.0063 52.9264 31.4853 52.5753 31.7515 52.4477C32.0176 52.3094 32.4966 52.1285 32.816 52.0328C33.2737 51.8945 33.8805 51.8626 35.6157 51.8626C37.2657 51.8626 37.8405 51.8307 37.8937 51.7243C37.9363 51.6605 38.2237 50.6073 39.0966 47.1818L20.8401 47.1286L20.2546 46.8946C19.9353 46.7669 19.4562 46.4797 19.2008 46.2563C18.9453 46.0329 18.6259 45.6818 18.4982 45.4797C18.3598 45.2776 18.1788 44.8414 18.083 44.5223C17.9233 43.9904 17.9127 42.4904 17.934 28.4055C17.9659 13.7674 17.9766 12.8419 18.1575 12.395C18.264 12.1291 18.4769 11.7355 18.6366 11.5014C18.7962 11.278 19.0943 10.9695 19.2966 10.8206C19.4988 10.661 19.9672 10.4164 20.3398 10.2674L20.9998 10.0015ZM20.6272 11.9695C20.244 12.1716 20.0417 12.3631 19.8608 12.7142C19.7224 12.9801 19.6053 13.3738 19.6053 13.5972C19.6053 13.8418 19.6585 13.9908 19.7437 13.9908C19.8182 13.9908 20.2866 14.044 20.7762 14.1078C21.2766 14.161 21.8301 14.2567 22.0004 14.3099C22.1814 14.3631 22.3837 14.5227 22.4475 14.6503C22.5221 14.7886 22.5966 15.2886 22.6072 15.7673C22.6392 16.4695 22.6817 16.6929 22.8521 16.8737C23.0117 17.0439 23.1501 17.0865 23.363 17.0333C23.5227 17.0014 23.9272 16.7141 24.2679 16.395C24.7682 15.9163 24.9492 15.8099 25.2472 15.8099C25.524 15.8099 25.8008 15.9376 26.2585 16.2673C26.6098 16.5227 27.2485 17.0971 27.6743 17.5439C28.1001 17.9907 28.6431 18.6503 28.8772 19.0226C29.1114 19.3843 29.3031 19.7886 29.3031 19.9269C29.3031 20.0758 29.0582 20.4056 28.6537 20.7992C28.3024 21.1502 27.9937 21.5758 27.9511 21.7353C27.9192 21.8949 27.9298 22.097 27.9937 22.1821C28.0469 22.2673 28.2066 22.4055 28.345 22.48C28.494 22.5438 28.9518 22.6077 29.3776 22.6077C30.0269 22.6077 30.1866 22.6502 30.4102 22.8524C30.6231 23.0332 30.7082 23.2672 30.804 23.8843C30.8679 24.3523 30.8998 25.2353 30.8573 26.0119C30.8253 26.7459 30.7402 27.597 30.6656 27.8948C30.5805 28.1927 30.4208 28.5118 30.3037 28.6076C30.1653 28.7033 29.7714 28.7778 29.1647 28.7991C28.4195 28.831 28.196 28.8735 28.015 29.0438C27.834 29.214 27.8021 29.331 27.866 29.5757C27.8979 29.7565 28.196 30.1608 28.5047 30.4799C28.9731 30.9693 29.0795 31.1288 29.0795 31.4373C29.0795 31.7139 28.9518 31.9905 28.6111 32.448C28.3556 32.799 27.7914 33.4373 27.3443 33.8628C26.8972 34.2884 26.2266 34.8203 25.8647 35.0543C25.5027 35.299 25.0876 35.4905 24.9598 35.4798C24.8108 35.4798 24.4808 35.2352 24.0763 34.8415C23.725 34.4905 23.3098 34.1713 23.1501 34.1394C22.9905 34.0969 22.7882 34.1182 22.6924 34.1713C22.6072 34.2352 22.4795 34.3947 22.405 34.533C22.3304 34.6713 22.2772 35.1288 22.2772 35.533C22.2772 36.0224 22.2134 36.3628 22.1069 36.5224C22.0217 36.65 21.7982 36.8096 21.6066 36.8628C21.415 36.9266 20.904 37.0117 20.4569 37.0543L19.6585 37.1287L19.6053 39.416H69.2119C69.2119 37.2032 69.2013 37.0756 69.0309 37.0756C68.9245 37.0756 68.5519 37.033 68.2006 36.9692C67.8493 36.9053 67.4554 36.7671 67.3277 36.65C67.1254 36.4692 67.0829 36.3309 67.0829 35.7245C67.0829 35.3309 67.019 34.8415 66.9445 34.6394C66.8806 34.4373 66.7529 34.2352 66.6571 34.1713C66.5719 34.1182 66.359 34.1075 66.178 34.1501C66.0077 34.1926 65.5819 34.5118 65.22 34.8522C64.7942 35.2883 64.4961 35.4905 64.3151 35.4905C64.1767 35.4905 63.7616 35.2883 63.4103 35.0437C63.059 34.799 62.5267 34.3841 62.2074 34.1075C61.8987 33.8416 61.4196 33.3309 61.1322 32.9799C60.8448 32.6288 60.5148 32.1501 60.3764 31.9161C60.2274 31.6501 60.1635 31.4054 60.2061 31.2565C60.2486 31.1182 60.4935 30.8097 60.7596 30.565C61.0257 30.3097 61.3132 29.9586 61.3983 29.7671C61.4835 29.5757 61.5474 29.3735 61.5474 29.3097C61.5474 29.2565 61.3983 29.1076 61.2067 28.9906C60.9406 28.831 60.6745 28.7778 60.057 28.7884C59.4503 28.7884 59.2054 28.7459 59.0138 28.597C58.8754 28.4906 58.7264 28.214 58.6625 27.9267C58.6093 27.6608 58.5135 26.9906 58.4603 26.4374C58.407 25.7991 58.407 25.0438 58.4815 24.363C58.5348 23.7779 58.6412 23.2034 58.7051 23.0864C58.769 22.9694 58.8967 22.8204 58.9925 22.746C59.0883 22.6715 59.4928 22.6183 59.9506 22.6183C60.5574 22.6077 60.8341 22.5545 61.1003 22.3949C61.2919 22.2779 61.4409 22.1077 61.4409 22.0226C61.4409 21.9375 61.377 21.7353 61.2919 21.5758C61.2067 21.4162 60.898 21.0439 60.5999 20.746C60.1848 20.3417 60.057 20.1396 60.057 19.8949C60.057 19.6822 60.2274 19.3311 60.5787 18.8311C60.8661 18.4269 61.377 17.7992 61.7177 17.4375C62.069 17.0865 62.6651 16.5652 63.0377 16.2886C63.538 15.9376 63.8361 15.7993 64.0809 15.7993C64.347 15.7993 64.5706 15.9376 65.0603 16.3844C65.4116 16.7035 65.8267 16.9907 65.9651 17.0226C66.1142 17.0546 66.3058 17.0226 66.4016 16.9482C66.4974 16.8737 66.6145 16.6397 66.6677 16.4375C66.7209 16.2354 66.7529 15.7673 66.7422 15.395C66.7209 14.7886 66.7422 14.7035 66.9764 14.512C67.1255 14.395 67.4874 14.2567 67.7748 14.2035C68.0729 14.1503 68.5306 14.0759 68.7861 14.044L69.2651 13.9695C69.148 13.1184 68.999 12.7355 68.8606 12.5546C68.7222 12.3844 68.4029 12.1291 68.1474 12.0014L67.6684 11.7674L21.1488 11.7036L20.6272 11.9695ZM19.6691 20.2141C20.5314 20.3417 21.0317 20.4694 21.3404 20.5864C21.6492 20.7034 22.1708 21.0013 22.5008 21.2566C22.8308 21.5013 23.2779 21.9162 23.5014 22.1821C23.7143 22.4481 24.0017 22.8736 24.1401 23.1396C24.2679 23.4055 24.4595 23.8843 24.5553 24.2034C24.6405 24.5332 24.7256 25.1715 24.7256 25.6395C24.7256 26.1927 24.6511 26.7459 24.5127 27.1821C24.3956 27.5651 24.1188 28.1608 23.8953 28.5118C23.6717 28.8629 23.2459 29.3629 22.9585 29.6182C22.6711 29.8735 22.0963 30.2459 21.6917 30.448C21.2766 30.6395 20.6379 30.8629 20.2759 30.9373L19.6053 31.065L19.6159 35.4798C19.9779 35.4798 20.1908 35.4586 20.3079 35.4266C20.4569 35.3841 20.5421 35.2352 20.6059 34.8628C20.6485 34.5862 20.7869 34.1501 20.904 33.8841C21.0211 33.6182 21.2446 33.2671 21.4043 33.0969C21.5533 32.9373 21.8833 32.7033 22.1175 32.5969C22.3517 32.4905 22.6817 32.4054 22.8627 32.3948C23.033 32.3948 23.395 32.4692 23.6611 32.5543C23.9166 32.6501 24.385 32.9054 24.6937 33.1394L25.2579 33.565C26.5885 32.2884 27.025 31.8309 27.0782 31.7352C27.1421 31.5969 27.0676 31.4161 26.7908 31.0437C26.5779 30.7671 26.333 30.2671 26.2479 29.948C26.1521 29.6076 26.1201 29.2352 26.1627 29.0438C26.2053 28.8735 26.333 28.5438 26.4608 28.3204C26.5885 28.097 26.8547 27.8097 27.0676 27.6714C27.2698 27.5331 27.6318 27.3736 27.866 27.3097C28.1001 27.2459 28.4834 27.1502 28.7176 27.1076L29.1434 27.0225C29.2605 25.8736 29.2711 25.2672 29.2392 24.9481L29.186 24.363C28.4089 24.2247 27.9511 24.0864 27.6637 23.9587C27.3763 23.8311 26.9718 23.5438 26.7801 23.3311C26.5885 23.1077 26.3756 22.7247 26.3118 22.48C26.2266 22.1502 26.2159 21.8736 26.3011 21.4907C26.3756 21.1609 26.5992 20.7141 26.8972 20.2992L27.3869 19.629C26.0988 18.2886 25.6518 17.8631 25.5453 17.8099C25.4069 17.746 25.2259 17.8099 24.8534 18.0758C24.5766 18.2673 24.1827 18.4907 23.9805 18.5758C23.7675 18.6503 23.3843 18.7141 23.1288 18.7141C22.8627 18.7035 22.5008 18.629 22.3304 18.5333C22.1495 18.4482 21.8833 18.2354 21.7237 18.0758C21.5746 17.9056 21.3724 17.6184 21.2766 17.4269C21.1808 17.2354 21.053 16.7992 20.9892 16.4695C20.9253 16.129 20.8082 15.8205 20.7443 15.778C20.6804 15.7354 20.393 15.6929 20.1162 15.6929H19.6053L19.6691 20.2141ZM68.3496 16.161C68.3603 16.3418 68.3071 16.7354 68.2219 17.0333C68.1261 17.3205 67.9025 17.746 67.7109 17.9694C67.5193 18.2035 67.2213 18.4588 67.0403 18.5439C66.87 18.629 66.508 18.7035 66.2419 18.7141C65.9758 18.7141 65.5712 18.6503 65.3371 18.5652C65.1029 18.4907 64.709 18.2673 64.4641 18.0758C64.2087 17.8737 63.9638 17.7248 63.9106 17.7248C63.8467 17.7248 63.4635 18.0545 63.059 18.4694C62.6438 18.8737 62.2287 19.3311 62.1435 19.4801C61.9945 19.7247 62.0051 19.7673 62.3245 20.1396C62.5054 20.363 62.7503 20.7354 62.8567 20.9694C62.9632 21.2034 63.0483 21.6396 63.0483 21.9481C63.0483 22.2885 62.9738 22.6609 62.8461 22.9055C62.7396 23.1289 62.5374 23.4055 62.399 23.5332C62.2606 23.6608 61.9945 23.8311 61.8028 23.9268C61.6112 24.0225 61.1535 24.1608 60.7916 24.2353L60.1209 24.3736C60.0677 25.4374 60.0783 26.0544 60.1103 26.4161L60.1741 27.0863C61.1216 27.1927 61.6325 27.3523 61.9306 27.5012C62.218 27.6502 62.6012 27.9587 62.7822 28.1821C63.0377 28.5012 63.1122 28.7246 63.1441 29.1927C63.1761 29.6501 63.1229 29.9267 62.9525 30.331C62.8248 30.6182 62.5799 31.0225 62.4096 31.2352L62.1116 31.6075C62.878 32.4586 63.3464 32.9054 63.6338 33.1394L64.1661 33.565C64.709 33.0756 65.0496 32.8416 65.2838 32.7246C65.518 32.6075 65.8906 32.4799 66.1142 32.448C66.3271 32.4054 66.7103 32.4373 66.9658 32.5012C67.2213 32.565 67.6045 32.7884 67.8493 33.0118C68.1155 33.2565 68.3603 33.6182 68.488 33.9692C68.5945 34.2777 68.6903 34.7245 68.6903 34.9586C68.6903 35.3415 68.7222 35.3841 68.9564 35.3841H69.2225L69.1693 30.9799C68.3496 30.7671 67.8387 30.5756 67.5193 30.4054C67.2 30.2459 66.6677 29.8735 66.3483 29.5757C66.029 29.2778 65.6138 28.7991 65.4222 28.5118C65.2306 28.2246 64.9858 27.7246 64.8793 27.4055C64.7622 27.0757 64.6345 26.5012 64.6025 26.1289C64.5493 25.6502 64.5706 25.1821 64.6877 24.6396C64.7835 24.1928 64.9964 23.5545 65.1774 23.2034C65.3477 22.8524 65.6777 22.3417 65.9012 22.0864C66.1248 21.8204 66.6251 21.3949 66.9977 21.1396C67.3809 20.8843 68.0196 20.5758 68.4561 20.4481L69.2225 20.2247V15.7035C68.7755 15.7142 68.5732 15.7354 68.488 15.7673C68.3816 15.7993 68.339 15.9482 68.3496 16.161ZM19.6372 42.7138C19.6691 44.118 19.6904 44.3308 19.8927 44.5967C20.0204 44.7669 20.2759 45.0116 20.4782 45.1393C20.6804 45.2776 21.085 45.4265 21.3724 45.4797C21.7024 45.5435 30.7614 45.5754 44.7386 45.5648L67.5725 45.5435C68.3922 45.1286 68.7435 44.8414 68.9032 44.6393C69.1587 44.2989 69.1693 44.2138 69.2013 42.7031L69.2225 41.1287H19.5946L19.6372 42.7138ZM40.225 49.4158C39.9483 50.5009 39.7141 51.469 39.6821 51.5754C39.6395 51.7456 39.9163 51.7562 44.4299 51.7562H49.2202C49.1031 51.3094 48.8476 50.2881 48.5815 49.203L48.0812 47.235C41.5876 47.1924 40.7999 47.2137 40.7573 47.3201C40.7254 47.3946 40.4912 48.3307 40.225 49.4158Z"/>
</mask>
<path fill-rule="evenodd" clip-rule="evenodd" d="M20.9998 10.0015L44.2383 10.0334C64.4748 10.0547 67.5513 10.0759 68.1048 10.2142C68.4561 10.31 69.0096 10.5546 69.329 10.778C69.659 11.0015 70.0742 11.4057 70.2658 11.7036C70.4574 12.0014 70.6916 12.4802 70.7768 12.7674C70.9045 13.2248 70.9258 15.5333 70.9258 28.5438C70.9258 38.3415 70.8832 43.9584 70.8193 44.2776C70.7555 44.5648 70.5532 45.0542 70.3616 45.3733C70.17 45.6925 69.7867 46.1286 69.4887 46.352C69.2013 46.5754 68.6477 46.852 68.2645 46.969C67.5938 47.1818 67.2851 47.1818 49.7418 47.1818L50.306 49.3839C50.6147 50.6073 50.9022 51.6605 50.9447 51.7243C50.998 51.8307 51.5835 51.8626 53.2867 51.8626C55.2241 51.8626 55.6393 51.8839 56.2354 52.0647C56.6186 52.1817 57.2361 52.4796 57.6086 52.7349C57.9919 52.9902 58.4922 53.4264 58.7264 53.7243C58.9499 54.0115 59.2799 54.554 59.4503 54.9157C59.6099 55.2881 59.8016 55.9051 59.8654 56.2987C59.9399 56.7029 59.9612 57.1497 59.9186 57.3093C59.8867 57.4795 59.7483 57.7029 59.6206 57.82C59.3757 58.0327 59.2799 58.0327 44.4192 58.0327C32.8373 58.0221 29.4202 58.0008 29.2924 57.8944C29.1966 57.82 29.0582 57.6497 28.9837 57.5008C28.8914 57.3235 28.8701 57.0398 28.9198 56.6498C28.9518 56.3306 29.0795 55.7774 29.1966 55.4264C29.3243 55.0753 29.5692 54.554 29.7608 54.2668C29.9524 53.9796 30.3676 53.5009 30.6869 53.2136C31.0063 52.9264 31.4853 52.5753 31.7515 52.4477C32.0176 52.3094 32.4966 52.1285 32.816 52.0328C33.2737 51.8945 33.8805 51.8626 35.6157 51.8626C37.2657 51.8626 37.8405 51.8307 37.8937 51.7243C37.9363 51.6605 38.2237 50.6073 39.0966 47.1818L20.8401 47.1286L20.2546 46.8946C19.9353 46.7669 19.4562 46.4797 19.2008 46.2563C18.9453 46.0329 18.6259 45.6818 18.4982 45.4797C18.3598 45.2776 18.1788 44.8414 18.083 44.5223C17.9233 43.9904 17.9127 42.4904 17.934 28.4055C17.9659 13.7674 17.9766 12.8419 18.1575 12.395C18.264 12.1291 18.4769 11.7355 18.6366 11.5014C18.7962 11.278 19.0943 10.9695 19.2966 10.8206C19.4988 10.661 19.9672 10.4164 20.3398 10.2674L20.9998 10.0015ZM20.6272 11.9695C20.244 12.1716 20.0417 12.3631 19.8608 12.7142C19.7224 12.9801 19.6053 13.3738 19.6053 13.5972C19.6053 13.8418 19.6585 13.9908 19.7437 13.9908C19.8182 13.9908 20.2866 14.044 20.7762 14.1078C21.2766 14.161 21.8301 14.2567 22.0004 14.3099C22.1814 14.3631 22.3837 14.5227 22.4475 14.6503C22.5221 14.7886 22.5966 15.2886 22.6072 15.7673C22.6392 16.4695 22.6817 16.6929 22.8521 16.8737C23.0117 17.0439 23.1501 17.0865 23.363 17.0333C23.5227 17.0014 23.9272 16.7141 24.2679 16.395C24.7682 15.9163 24.9492 15.8099 25.2472 15.8099C25.524 15.8099 25.8008 15.9376 26.2585 16.2673C26.6098 16.5227 27.2485 17.0971 27.6743 17.5439C28.1001 17.9907 28.6431 18.6503 28.8772 19.0226C29.1114 19.3843 29.3031 19.7886 29.3031 19.9269C29.3031 20.0758 29.0582 20.4056 28.6537 20.7992C28.3024 21.1502 27.9937 21.5758 27.9511 21.7353C27.9192 21.8949 27.9298 22.097 27.9937 22.1821C28.0469 22.2673 28.2066 22.4055 28.345 22.48C28.494 22.5438 28.9518 22.6077 29.3776 22.6077C30.0269 22.6077 30.1866 22.6502 30.4102 22.8524C30.6231 23.0332 30.7082 23.2672 30.804 23.8843C30.8679 24.3523 30.8998 25.2353 30.8573 26.0119C30.8253 26.7459 30.7402 27.597 30.6656 27.8948C30.5805 28.1927 30.4208 28.5118 30.3037 28.6076C30.1653 28.7033 29.7714 28.7778 29.1647 28.7991C28.4195 28.831 28.196 28.8735 28.015 29.0438C27.834 29.214 27.8021 29.331 27.866 29.5757C27.8979 29.7565 28.196 30.1608 28.5047 30.4799C28.9731 30.9693 29.0795 31.1288 29.0795 31.4373C29.0795 31.7139 28.9518 31.9905 28.6111 32.448C28.3556 32.799 27.7914 33.4373 27.3443 33.8628C26.8972 34.2884 26.2266 34.8203 25.8647 35.0543C25.5027 35.299 25.0876 35.4905 24.9598 35.4798C24.8108 35.4798 24.4808 35.2352 24.0763 34.8415C23.725 34.4905 23.3098 34.1713 23.1501 34.1394C22.9905 34.0969 22.7882 34.1182 22.6924 34.1713C22.6072 34.2352 22.4795 34.3947 22.405 34.533C22.3304 34.6713 22.2772 35.1288 22.2772 35.533C22.2772 36.0224 22.2134 36.3628 22.1069 36.5224C22.0217 36.65 21.7982 36.8096 21.6066 36.8628C21.415 36.9266 20.904 37.0117 20.4569 37.0543L19.6585 37.1287L19.6053 39.416H69.2119C69.2119 37.2032 69.2013 37.0756 69.0309 37.0756C68.9245 37.0756 68.5519 37.033 68.2006 36.9692C67.8493 36.9053 67.4554 36.7671 67.3277 36.65C67.1254 36.4692 67.0829 36.3309 67.0829 35.7245C67.0829 35.3309 67.019 34.8415 66.9445 34.6394C66.8806 34.4373 66.7529 34.2352 66.6571 34.1713C66.5719 34.1182 66.359 34.1075 66.178 34.1501C66.0077 34.1926 65.5819 34.5118 65.22 34.8522C64.7942 35.2883 64.4961 35.4905 64.3151 35.4905C64.1767 35.4905 63.7616 35.2883 63.4103 35.0437C63.059 34.799 62.5267 34.3841 62.2074 34.1075C61.8987 33.8416 61.4196 33.3309 61.1322 32.9799C60.8448 32.6288 60.5148 32.1501 60.3764 31.9161C60.2274 31.6501 60.1635 31.4054 60.2061 31.2565C60.2486 31.1182 60.4935 30.8097 60.7596 30.565C61.0257 30.3097 61.3132 29.9586 61.3983 29.7671C61.4835 29.5757 61.5474 29.3735 61.5474 29.3097C61.5474 29.2565 61.3983 29.1076 61.2067 28.9906C60.9406 28.831 60.6745 28.7778 60.057 28.7884C59.4503 28.7884 59.2054 28.7459 59.0138 28.597C58.8754 28.4906 58.7264 28.214 58.6625 27.9267C58.6093 27.6608 58.5135 26.9906 58.4603 26.4374C58.407 25.7991 58.407 25.0438 58.4815 24.363C58.5348 23.7779 58.6412 23.2034 58.7051 23.0864C58.769 22.9694 58.8967 22.8204 58.9925 22.746C59.0883 22.6715 59.4928 22.6183 59.9506 22.6183C60.5574 22.6077 60.8341 22.5545 61.1003 22.3949C61.2919 22.2779 61.4409 22.1077 61.4409 22.0226C61.4409 21.9375 61.377 21.7353 61.2919 21.5758C61.2067 21.4162 60.898 21.0439 60.5999 20.746C60.1848 20.3417 60.057 20.1396 60.057 19.8949C60.057 19.6822 60.2274 19.3311 60.5787 18.8311C60.8661 18.4269 61.377 17.7992 61.7177 17.4375C62.069 17.0865 62.6651 16.5652 63.0377 16.2886C63.538 15.9376 63.8361 15.7993 64.0809 15.7993C64.347 15.7993 64.5706 15.9376 65.0603 16.3844C65.4116 16.7035 65.8267 16.9907 65.9651 17.0226C66.1142 17.0546 66.3058 17.0226 66.4016 16.9482C66.4974 16.8737 66.6145 16.6397 66.6677 16.4375C66.7209 16.2354 66.7529 15.7673 66.7422 15.395C66.7209 14.7886 66.7422 14.7035 66.9764 14.512C67.1255 14.395 67.4874 14.2567 67.7748 14.2035C68.0729 14.1503 68.5306 14.0759 68.7861 14.044L69.2651 13.9695C69.148 13.1184 68.999 12.7355 68.8606 12.5546C68.7222 12.3844 68.4029 12.1291 68.1474 12.0014L67.6684 11.7674L21.1488 11.7036L20.6272 11.9695ZM19.6691 20.2141C20.5314 20.3417 21.0317 20.4694 21.3404 20.5864C21.6492 20.7034 22.1708 21.0013 22.5008 21.2566C22.8308 21.5013 23.2779 21.9162 23.5014 22.1821C23.7143 22.4481 24.0017 22.8736 24.1401 23.1396C24.2679 23.4055 24.4595 23.8843 24.5553 24.2034C24.6405 24.5332 24.7256 25.1715 24.7256 25.6395C24.7256 26.1927 24.6511 26.7459 24.5127 27.1821C24.3956 27.5651 24.1188 28.1608 23.8953 28.5118C23.6717 28.8629 23.2459 29.3629 22.9585 29.6182C22.6711 29.8735 22.0963 30.2459 21.6917 30.448C21.2766 30.6395 20.6379 30.8629 20.2759 30.9373L19.6053 31.065L19.6159 35.4798C19.9779 35.4798 20.1908 35.4586 20.3079 35.4266C20.4569 35.3841 20.5421 35.2352 20.6059 34.8628C20.6485 34.5862 20.7869 34.1501 20.904 33.8841C21.0211 33.6182 21.2446 33.2671 21.4043 33.0969C21.5533 32.9373 21.8833 32.7033 22.1175 32.5969C22.3517 32.4905 22.6817 32.4054 22.8627 32.3948C23.033 32.3948 23.395 32.4692 23.6611 32.5543C23.9166 32.6501 24.385 32.9054 24.6937 33.1394L25.2579 33.565C26.5885 32.2884 27.025 31.8309 27.0782 31.7352C27.1421 31.5969 27.0676 31.4161 26.7908 31.0437C26.5779 30.7671 26.333 30.2671 26.2479 29.948C26.1521 29.6076 26.1201 29.2352 26.1627 29.0438C26.2053 28.8735 26.333 28.5438 26.4608 28.3204C26.5885 28.097 26.8547 27.8097 27.0676 27.6714C27.2698 27.5331 27.6318 27.3736 27.866 27.3097C28.1001 27.2459 28.4834 27.1502 28.7176 27.1076L29.1434 27.0225C29.2605 25.8736 29.2711 25.2672 29.2392 24.9481L29.186 24.363C28.4089 24.2247 27.9511 24.0864 27.6637 23.9587C27.3763 23.8311 26.9718 23.5438 26.7801 23.3311C26.5885 23.1077 26.3756 22.7247 26.3118 22.48C26.2266 22.1502 26.2159 21.8736 26.3011 21.4907C26.3756 21.1609 26.5992 20.7141 26.8972 20.2992L27.3869 19.629C26.0988 18.2886 25.6518 17.8631 25.5453 17.8099C25.4069 17.746 25.2259 17.8099 24.8534 18.0758C24.5766 18.2673 24.1827 18.4907 23.9805 18.5758C23.7675 18.6503 23.3843 18.7141 23.1288 18.7141C22.8627 18.7035 22.5008 18.629 22.3304 18.5333C22.1495 18.4482 21.8833 18.2354 21.7237 18.0758C21.5746 17.9056 21.3724 17.6184 21.2766 17.4269C21.1808 17.2354 21.053 16.7992 20.9892 16.4695C20.9253 16.129 20.8082 15.8205 20.7443 15.778C20.6804 15.7354 20.393 15.6929 20.1162 15.6929H19.6053L19.6691 20.2141ZM68.3496 16.161C68.3603 16.3418 68.3071 16.7354 68.2219 17.0333C68.1261 17.3205 67.9025 17.746 67.7109 17.9694C67.5193 18.2035 67.2213 18.4588 67.0403 18.5439C66.87 18.629 66.508 18.7035 66.2419 18.7141C65.9758 18.7141 65.5712 18.6503 65.3371 18.5652C65.1029 18.4907 64.709 18.2673 64.4641 18.0758C64.2087 17.8737 63.9638 17.7248 63.9106 17.7248C63.8467 17.7248 63.4635 18.0545 63.059 18.4694C62.6438 18.8737 62.2287 19.3311 62.1435 19.4801C61.9945 19.7247 62.0051 19.7673 62.3245 20.1396C62.5054 20.363 62.7503 20.7354 62.8567 20.9694C62.9632 21.2034 63.0483 21.6396 63.0483 21.9481C63.0483 22.2885 62.9738 22.6609 62.8461 22.9055C62.7396 23.1289 62.5374 23.4055 62.399 23.5332C62.2606 23.6608 61.9945 23.8311 61.8028 23.9268C61.6112 24.0225 61.1535 24.1608 60.7916 24.2353L60.1209 24.3736C60.0677 25.4374 60.0783 26.0544 60.1103 26.4161L60.1741 27.0863C61.1216 27.1927 61.6325 27.3523 61.9306 27.5012C62.218 27.6502 62.6012 27.9587 62.7822 28.1821C63.0377 28.5012 63.1122 28.7246 63.1441 29.1927C63.1761 29.6501 63.1229 29.9267 62.9525 30.331C62.8248 30.6182 62.5799 31.0225 62.4096 31.2352L62.1116 31.6075C62.878 32.4586 63.3464 32.9054 63.6338 33.1394L64.1661 33.565C64.709 33.0756 65.0496 32.8416 65.2838 32.7246C65.518 32.6075 65.8906 32.4799 66.1142 32.448C66.3271 32.4054 66.7103 32.4373 66.9658 32.5012C67.2213 32.565 67.6045 32.7884 67.8493 33.0118C68.1155 33.2565 68.3603 33.6182 68.488 33.9692C68.5945 34.2777 68.6903 34.7245 68.6903 34.9586C68.6903 35.3415 68.7222 35.3841 68.9564 35.3841H69.2225L69.1693 30.9799C68.3496 30.7671 67.8387 30.5756 67.5193 30.4054C67.2 30.2459 66.6677 29.8735 66.3483 29.5757C66.029 29.2778 65.6138 28.7991 65.4222 28.5118C65.2306 28.2246 64.9858 27.7246 64.8793 27.4055C64.7622 27.0757 64.6345 26.5012 64.6025 26.1289C64.5493 25.6502 64.5706 25.1821 64.6877 24.6396C64.7835 24.1928 64.9964 23.5545 65.1774 23.2034C65.3477 22.8524 65.6777 22.3417 65.9012 22.0864C66.1248 21.8204 66.6251 21.3949 66.9977 21.1396C67.3809 20.8843 68.0196 20.5758 68.4561 20.4481L69.2225 20.2247V15.7035C68.7755 15.7142 68.5732 15.7354 68.488 15.7673C68.3816 15.7993 68.339 15.9482 68.3496 16.161ZM19.6372 42.7138C19.6691 44.118 19.6904 44.3308 19.8927 44.5967C20.0204 44.7669 20.2759 45.0116 20.4782 45.1393C20.6804 45.2776 21.085 45.4265 21.3724 45.4797C21.7024 45.5435 30.7614 45.5754 44.7386 45.5648L67.5725 45.5435C68.3922 45.1286 68.7435 44.8414 68.9032 44.6393C69.1587 44.2989 69.1693 44.2138 69.2013 42.7031L69.2225 41.1287H19.5946L19.6372 42.7138ZM40.225 49.4158C39.9483 50.5009 39.7141 51.469 39.6821 51.5754C39.6395 51.7456 39.9163 51.7562 44.4299 51.7562H49.2202C49.1031 51.3094 48.8476 50.2881 48.5815 49.203L48.0812 47.235C41.5876 47.1924 40.7999 47.2137 40.7573 47.3201C40.7254 47.3946 40.4912 48.3307 40.225 49.4158Z" stroke="black" stroke-width="2.27734" mask="url(#path-5-inside-1_1031_5218)"/>
<path d="M19.6172 29.3093L19.6278 25.5753L19.6491 21.8413L20.0324 21.9158C20.2453 21.9477 20.6498 22.0966 20.9478 22.2243C21.2353 22.3626 21.6824 22.6711 21.9272 22.9051C22.1827 23.1498 22.5446 23.6711 22.7256 24.0647C23.0237 24.6923 23.0769 24.9051 23.0769 25.6391C23.0769 26.3838 23.0343 26.5859 22.7469 27.1817C22.5233 27.6391 22.2146 28.0434 21.842 28.3838C21.5227 28.671 21.0224 28.9901 20.703 29.1072C20.4049 29.2135 20.0324 29.3093 19.6172 29.3093Z" fill="#EBEBEB"/>
<path d="M67.2545 23.0541C67.4886 22.7987 67.957 22.4477 68.3083 22.2775C68.6596 22.1073 69.0109 21.969 69.0854 21.969C69.1919 21.969 69.2132 22.7243 69.2132 25.5859C69.2132 28.9582 69.2025 29.2029 69.0322 29.2029C68.9257 29.2029 68.6064 29.0859 68.3083 28.9476C68.0209 28.7987 67.5525 28.437 67.2757 28.1497C66.999 27.8519 66.6583 27.3838 66.5306 27.0966C66.339 26.6923 66.2857 26.4051 66.2857 25.6391C66.2857 24.8306 66.3283 24.586 66.5625 24.0966C66.7115 23.7775 67.0203 23.2987 67.2545 23.0541Z" fill="#EBEBEB"/>
<path d="M40.7678 17.8419C40.7252 17.7993 41.4916 17.4057 42.471 16.9483C43.461 16.5015 44.302 16.1291 44.3658 16.1291C44.4297 16.1185 45.292 16.4908 46.3033 16.9376C47.3146 17.3951 48.1236 17.7887 48.1023 17.8206C48.081 17.8525 47.2826 18.2142 46.3246 18.6397C45.3665 19.0653 44.5149 19.4163 44.451 19.4163C44.3765 19.4163 43.5355 19.0759 42.5881 18.6716C41.63 18.2568 40.821 17.8844 40.7678 17.8419Z" stroke="#1D1D1B"/>
<path d="M39.469 24.6503L39.4265 21.8844L39.3945 19.1078L41.3426 19.9589C42.4178 20.4376 43.3652 20.8418 43.4397 20.8631C43.5355 20.895 43.5674 21.5546 43.5674 23.6716C43.5674 25.8418 43.5355 26.4269 43.4397 26.3843C43.3652 26.3524 42.4391 25.9481 39.469 24.6503Z" stroke="#1D1D1B"/>
<path d="M45.2175 20.9376L47.2933 20.0333L49.3584 19.1184L49.3904 21.8525C49.401 23.3524 49.3797 24.6077 49.3371 24.6503C49.2946 24.6928 48.5175 25.0439 47.602 25.4375C46.6971 25.8311 45.8029 26.2141 45.26 26.4375L45.2175 20.9376Z" stroke="#1D1D1B"/>
<path d="M33.5716 33.8202C33.5822 33.4159 33.6461 33.267 33.9335 32.9691L34.2848 32.6074H37.5422L35.1045 35.0648L34.6255 35.0223C34.2635 34.9797 34.0719 34.884 33.8484 34.6393C33.6142 34.3734 33.5609 34.2138 33.5716 33.8202Z" fill="#1D1D1B"/>
<path d="M37.4677 35.0542L38.6919 33.8308L39.9161 32.6074H41.5874L39.1497 35.0542H37.4677Z" fill="#1D1D1B"/>
<path d="M41.4916 35.0542L42.7158 33.8308L43.94 32.6074H53.361L53.6804 32.8947C53.8613 33.0649 54.0423 33.3308 54.0955 33.5117C54.1381 33.6819 54.1381 33.9691 54.0955 34.15C54.0529 34.3202 53.8826 34.5861 53.4462 35.001L41.4916 35.0542Z" fill="#1D1D1B"/>
</svg>
