<svg width="92" height="92" viewBox="0 0 92 92" fill="none" xmlns="http://www.w3.org/2000/svg">
<path d="M7.1875 9.42773H84.8125L85.1719 9.91395V69.7182H91.6406L92 70.2044V80.4149L90.5625 83.3321L88.4062 85.277H3.59375L1.4375 83.3321L0 80.4149V70.2044L0.359375 69.7182H6.82812V9.91395L7.1875 9.42773ZM9.70312 12.8312V69.7182H82.2969V12.8312H9.70312ZM2.51562 73.6079V77.4976L3.23438 79.9287L4.3125 81.3873L5.75 81.8735H86.25L88.0469 80.9011L89.125 79.4424L89.4844 77.4976V73.6079H57.5L56.4219 77.9838L54.9844 78.9562H37.0156L35.2188 77.4976L34.5 73.6079H2.51562ZM37.375 73.6079L37.7344 75.5527H54.2656L54.625 73.6079H37.375Z" fill="#5F56AF" fill-opacity="0.75"/>
<path d="M59.6644 33.7383H61.0856L62.2699 35.2751L64.6385 37.3241L67.0071 38.6048L69.8494 39.3731L70.56 42.1906L70.7969 45.7764L70.3232 49.8745L69.1388 53.2042L67.4808 56.2777L64.8754 59.3513L62.5067 61.4003L61.0856 62.4249H59.6644L57.0589 60.3758L54.6903 58.0707L52.7955 55.5093L50.9006 51.4113L50.19 48.5938L49.9531 45.2641L50.4268 40.9099L50.9006 39.3731L54.2166 38.3486L56.8221 36.8118L58.4801 35.2751L59.6644 33.7383ZM60.1381 36.2996L58.4801 38.0925L55.4009 40.1415L52.3217 41.1661L51.848 44.7519L52.0849 48.3377L52.7955 50.899H53.0323L53.2692 43.9835H56.5852L56.8221 40.3977H63.9279L64.1648 43.9835H67.4808L67.7177 50.899L68.1914 50.3867L68.6651 48.3377L68.902 45.008L68.4283 41.1661L65.3491 40.1415L62.9805 38.6048L60.6119 36.2996H60.1381ZM58.4801 41.9344L58.2433 45.5203L54.9272 45.7764V50.1306L58.0064 50.3867L58.2433 50.6429L58.4801 53.9726H62.2699L62.5067 50.6429L62.7436 50.3867L65.8228 50.1306V45.7764L62.5067 45.5203L62.2699 41.9344H58.4801ZM53.506 52.1797L53.9798 53.7164L55.6378 56.0216L58.0064 58.5829L60.1381 60.1197L61.3224 59.6074L63.4542 57.8145L65.3491 55.7655L67.244 52.6919V52.1797H64.1648L63.9279 55.5093L63.6911 55.7655H57.0589L56.8221 55.5093L56.5852 52.1797H53.506Z" fill="#5F56AF" fill-opacity="0.75"/>
<path d="M71.1562 75.5527H75.8281L76.1875 76.0389V78.9562L75.8281 79.4424H71.1562L70.7969 78.9562V76.0389L71.1562 75.5527Z" fill="#5F56AF" fill-opacity="0.75"/>
<path d="M64.6875 75.5527H69L69.7188 76.5252L69.3594 78.9562L69 79.4424H64.6875L63.9688 78.47L64.3281 76.0389L64.6875 75.5527Z" fill="#5F56AF" fill-opacity="0.75"/>
<path d="M77.9844 75.5527H82.2969L83.0156 76.5252L82.6562 78.9562L82.2969 79.4424H77.9844L77.625 78.9562V76.0389L77.9844 75.5527Z" fill="#5F56AF" fill-opacity="0.75"/>
<g clip-path="url(#clip0_3336_8691)">
<path d="M37.0156 24.0156H48.1562L49.2344 25.4743V36.171L48.5156 37.1434L43.125 37.6296L41.3281 40.0607L40.25 39.5744V37.1434H36.2969L35.5781 35.6847L33.7812 38.1158H38.4531V41.0331H42.4062L43.4844 42.4917V46.3814H45.6406L46.7188 47.3539V58.0506L45.6406 59.5092H43.4844V62.9127L42.0469 64.8575H24.4375L23 62.9127V59.5092H20.8438L19.7656 58.0506V47.3539L20.8438 46.3814H23V42.4917L24.0781 41.0331H28.0312V38.1158H32.7031L30.9062 35.1985L31.2656 32.2812L31.9844 31.3088H34.5L35.2188 32.2812L35.5781 25.4743L37.0156 24.0156ZM37.375 25.9605L37.0156 26.4467V35.1985L41.3281 35.6847H42.4062L47.7969 35.1985V25.9605H37.375ZM32.7031 33.2537V35.1985L34.1406 34.7123L33.7812 33.2537H32.7031ZM29.4688 40.0607V41.0331H37.0156V40.0607H29.4688ZM24.7969 42.9779L24.0781 44.4366V60.9678L24.7969 62.9127H41.6875L42.4062 61.454V43.9504L41.6875 42.9779H24.7969ZM21.2031 48.3263V57.5643H23V48.3263H21.2031ZM43.4844 48.3263V57.5643H45.2812V48.3263H43.4844Z" fill="#5F56AF" fill-opacity="0.75"/>
<path d="M17.9688 21.584H30.1875L30.9062 22.5564V33.2531L30.1875 34.2255H26.2344V37.1428L24.7969 36.6566L23.3594 34.7117L17.9688 34.2255L17.25 33.2531V22.5564L17.9688 21.584ZM18.6875 23.5288V32.2807L19.0469 32.7669L24.0781 33.2531L24.7969 33.7393V32.7669H29.1094L29.4688 32.2807V23.5288H18.6875Z" fill="#5F56AF" fill-opacity="0.75"/>
<path d="M28.3906 53.1875H38.0938L38.4531 53.6737V57.0772L37.0156 60.4807L34.8594 61.9393H31.2656L29.4688 60.4807L28.0312 57.0772V53.6737L28.3906 53.1875ZM29.4688 55.1324L29.8281 57.5634L31.625 59.9945H34.8594L36.6562 58.0496L37.0156 55.1324H29.4688Z" fill="#5F56AF" fill-opacity="0.75"/>
<path d="M37.375 46.3809L39.8906 46.8671L40.6094 48.3257L40.25 51.7292L39.5312 52.2154H37.0156L36.2969 51.243V47.8395L37.375 46.3809ZM37.7344 48.3257L38.0938 50.7568L39.1719 50.2706L38.8125 48.3257H37.7344Z" fill="#5F56AF" fill-opacity="0.75"/>
<path d="M27.3125 46.3809H29.1094L30.1875 47.3533V51.243L29.4688 52.2154H26.9531L25.875 50.2706L26.2344 47.3533L27.3125 46.3809ZM27.6719 48.3257V50.2706H28.75L29.1094 49.2981L28.75 48.3257H27.6719Z" fill="#5F56AF" fill-opacity="0.75"/>
<path d="M19.4062 29.8496H28.75V31.7945H19.4062V29.8496Z" fill="#5F56AF" fill-opacity="0.75"/>
<path d="M37.7344 26.9316H47.0781V28.8765H37.7344V26.9316Z" fill="#5F56AF" fill-opacity="0.75"/>
<path d="M19.4062 24.0156H28.75V25.9605H19.4062V24.0156Z" fill="#5F56AF" fill-opacity="0.75"/>
<path d="M38.8125 29.8496H46.3594V31.7945H38.8125V29.8496Z" fill="#5F56AF" fill-opacity="0.75"/>
<path d="M20.4844 26.9316H27.6719V28.8765H20.4844V26.9316Z" fill="#5F56AF" fill-opacity="0.75"/>
<path d="M37.7344 32.7676H47.0781V34.2262H37.7344V32.7676Z" fill="#5F56AF" fill-opacity="0.75"/>
</g>
<defs>
<clipPath id="clip0_3336_8691">
<rect width="33.0625" height="44.7316" fill="white" transform="translate(16.8906 21.0977)"/>
</clipPath>
</defs>
</svg>
