<svg width="44" height="44" viewBox="0 0 44 44" fill="none" xmlns="http://www.w3.org/2000/svg">
<g id="Icon">
<circle id="Ellipse 1" cx="21.7676" cy="21.7676" r="21.7676" fill="#5F56AF"/>
<path id="Vector" d="M28.392 29.1061L28.3847 29.109L28.3774 29.1122C27.921 29.31 27.4076 29.4064 26.8448 29.4064C26.0194 29.4064 25.1106 29.212 24.1502 28.7907L24.1469 28.7893C23.1507 28.3599 22.1651 27.7902 21.1725 27.0762C20.1616 26.344 19.2164 25.522 18.3013 24.6245C17.3945 23.7174 16.5899 22.7558 15.8525 21.7552C15.1388 20.7625 14.5709 19.7789 14.1607 18.8044C13.7547 17.8401 13.5598 16.9288 13.5598 16.084C13.5598 15.5402 13.6558 15.0203 13.8421 14.5544L13.8422 14.5544L13.8444 14.5486C14.027 14.0768 14.3172 13.6456 14.7416 13.2526L14.7494 13.2453L14.7571 13.2377C15.2411 12.7536 15.7307 12.5598 16.2239 12.5598C16.3947 12.5598 16.5652 12.5964 16.7235 12.6694C16.8813 12.7422 17.0117 12.8439 17.1069 12.9814L17.1069 12.9814L17.1101 12.986L19.186 15.9212C19.3466 16.1534 19.4327 16.2971 19.4769 16.4186L19.4843 16.4391L19.4933 16.4589C19.5507 16.5852 19.5686 16.6855 19.5686 16.7826C19.5686 16.8706 19.5394 16.9883 19.4478 17.1454C19.3467 17.3188 19.2149 17.4955 19.034 17.6765L19.0289 17.6815L19.0239 17.6867L18.3475 18.3988C18.2501 18.4976 18.1685 18.6139 18.1148 18.7537C18.0609 18.8938 18.0462 19.0288 18.0462 19.147C18.0462 19.2901 18.0794 19.4216 18.0957 19.486C18.0968 19.4902 18.0978 19.4941 18.0987 19.4977L18.1136 19.5573L18.141 19.6123C18.1503 19.6308 18.1566 19.6456 18.1619 19.6594C18.1679 19.675 18.1731 19.6904 18.1824 19.7181L18.197 19.7621L18.2187 19.803C18.4109 20.166 18.733 20.5823 19.1278 21.049L19.1277 21.0491L19.1359 21.0583C19.5471 21.5232 19.9875 22.019 20.4669 22.4984C20.9606 22.9922 21.4372 23.4322 21.9325 23.8542L21.9339 23.8554C22.4198 24.2665 22.8473 24.5613 23.1977 24.7468L23.2387 24.7685L23.2714 24.7794C23.275 24.7811 23.2804 24.7838 23.2902 24.7887L23.2922 24.7897C23.3044 24.7958 23.3253 24.8062 23.3475 24.8164C23.3638 24.8239 23.3841 24.8327 23.4076 24.8417C23.5892 24.9215 23.7633 24.92 23.8382 24.9194C23.844 24.9194 23.8492 24.9193 23.8537 24.9193C23.9996 24.9193 24.1463 24.8943 24.2893 24.8308C24.4299 24.7683 24.5389 24.681 24.6257 24.5941L24.6258 24.5941L25.3062 23.9135C25.3063 23.9134 25.3063 23.9134 25.3063 23.9134C25.5093 23.7104 25.6822 23.5845 25.8233 23.5075L25.8304 23.5037L25.8373 23.4996C25.9992 23.4052 26.0982 23.3788 26.2 23.3788C26.2971 23.3788 26.3973 23.3967 26.5236 23.454C26.7068 23.5373 26.879 23.6252 27.0462 23.7505L27.0519 23.7548L27.0577 23.759L30.0309 25.8726L30.0309 25.8726L30.0366 25.8766C30.181 25.9765 30.2778 26.0925 30.3444 26.2175C30.3986 26.3628 30.4282 26.4821 30.4372 26.605C30.4051 26.7035 30.3754 26.8039 30.3482 26.8961C30.3372 26.9335 30.3265 26.9696 30.3163 27.0036C30.27 27.157 30.2257 27.2919 30.1711 27.4168C30.0312 27.6944 29.8632 27.9525 29.6524 28.1945C29.2491 28.6289 28.8335 28.9295 28.392 29.1061Z" stroke="white" stroke-width="1.11955"/>
</g>
</svg>
