<svg width="92" height="92" viewBox="0 0 92 92" fill="none" xmlns="http://www.w3.org/2000/svg">
<path d="M14.7344 1.4375H77.2656L80.5 3.59375L81.9375 6.10938V18.6875L83.7344 19.0469L86.25 20.8438L87.6875 23.7188V74.3906L85.5312 77.625L83.0156 79.0625H56.7812L57.5 81.5781L60.375 83.375L61.8125 85.5312V90.2031L61.4531 90.5625H30.5469L30.1875 90.2031V85.5312L31.625 83.375L34.5 81.5781L35.2188 79.0625H8.98438L5.75 76.9062L4.3125 74.3906V23.7188L5.75 20.8438L8.98438 18.6875H10.0625V6.10938L12.2188 2.875L14.7344 1.4375ZM17.25 4.3125L14.7344 5.39062L13.2969 7.1875L12.9375 10.0625H79.0625L78.7031 7.1875L76.9062 5.03125L74.75 4.3125H17.25ZM12.9375 12.9375V64.6875H79.0625V12.9375H12.9375ZM9.34375 22.2812L7.54688 24.4375L7.1875 25.875V64.6875H10.0625V22.2812H9.34375ZM81.9375 22.2812V64.6875H84.8125V25.875L83.7344 23.3594L82.6562 22.2812H81.9375ZM7.1875 67.5625V71.875L8.26562 74.3906L10.0625 75.8281L11.5 76.1875H80.5L83.0156 75.1094L84.4531 73.3125L84.8125 71.875V67.5625H7.1875ZM38.8125 79.0625L38.0938 80.8594V81.9375H53.9062L53.5469 79.4219L53.1875 79.0625H38.8125ZM35.9375 84.8125L33.7812 85.8906L33.4219 87.6875H58.5781L58.2188 85.8906L56.0625 84.8125H35.9375Z" fill="#5F56AF" fill-opacity="0.75"/>
<path d="M42.0469 17.25H49.9531L54.625 18.6875L58.5781 20.8438L62.1719 24.0781L64.6875 27.3125L65.0469 28.75H69.7188L71.875 30.1875L73.3125 32.3438V45.2812L71.875 47.4375L69.7188 48.875H65.0469L64.3281 50.6719L62.1719 53.5469L59.6562 56.0625L54.625 58.9375L49.9531 60.375H42.0469L37.375 58.9375L33.4219 56.7812L29.8281 53.5469L27.3125 50.3125L26.9531 48.875H22.2812L20.125 47.4375L18.6875 45.2812V32.3438L20.125 30.1875L22.2812 28.75H26.9531L27.6719 26.9531L29.8281 24.0781L32.3438 21.5625L35.9375 19.4062L40.25 17.6094L42.0469 17.25ZM39.8906 21.2031L35.5781 23.3594L31.625 26.9531L30.5469 28.75H36.2969L39.5312 23.3594L40.9688 21.2031H39.8906ZM51.0312 21.2031L53.5469 25.1562L55.7031 28.75H61.4531L59.2969 25.875L56.4219 23.3594L52.1094 21.2031H51.0312ZM44.2031 22.6406L41.6875 25.5156L40.25 28.0312V28.75H44.5625V22.6406H44.2031ZM47.4375 22.6406V28.75H51.75L51.0312 26.5938L48.1562 23L47.4375 22.6406ZM24.4375 31.625L22.2812 32.7031L21.5625 34.5V43.125L22.6406 45.2812L24.4375 46H67.5625L69.7188 44.9219L70.4375 43.125V34.5L69.3594 32.3438L67.5625 31.625H24.4375ZM30.5469 48.875L32.7031 51.75L35.5781 54.2656L39.8906 56.4219L40.9688 56.0625L37.7344 51.3906L36.2969 48.875H30.5469ZM40.25 48.875L40.9688 51.0312L43.8438 54.625L44.5625 54.9844V48.875H40.25ZM47.4375 48.875V54.9844L49.2344 53.5469L51.75 49.5938V48.875H47.4375ZM55.7031 48.875L52.4688 54.2656L51.0312 56.4219L52.8281 56.0625L56.4219 54.2656L60.375 50.6719L61.4531 48.875H55.7031Z" fill="#5F56AF" fill-opacity="0.75"/>
<path d="M54.625 34.5H57.5L57.8594 37.375L59.2969 35.9375H61.4531L62.8906 37.375L63.25 34.5H66.125V42.7656L65.7656 43.125H63.6094L60.7344 40.25L59.2969 40.9688L57.1406 43.125H54.9844L54.625 42.7656V34.5Z" fill="#5F56AF" fill-opacity="0.75"/>
<path d="M40.25 34.5H43.125L43.4844 37.375L44.9219 35.9375H47.0781L48.5156 37.375L48.875 34.5H51.75V42.7656L51.3906 43.125H49.2344L46.3594 40.25L44.9219 40.9688L42.7656 43.125H40.6094L40.25 42.7656V34.5Z" fill="#5F56AF" fill-opacity="0.75"/>
<path d="M25.875 34.5H28.75L29.1094 37.375L30.5469 35.9375H32.7031L34.1406 37.375L34.5 34.5H37.375V42.7656L37.0156 43.125H34.8594L31.9844 40.25L30.5469 40.9688L28.3906 43.125H26.2344L25.875 42.7656V34.5Z" fill="#5F56AF" fill-opacity="0.75"/>
<path d="M58.9375 58.9375H76.1875V61.8125H58.9375V58.9375Z" fill="#5F56AF" fill-opacity="0.75"/>
<path d="M15.8125 58.9375H33.0625V61.8125H15.8125V58.9375Z" fill="#5F56AF" fill-opacity="0.75"/>
<path d="M67.5625 53.1875H76.1875V56.0625H67.5625V53.1875Z" fill="#5F56AF" fill-opacity="0.75"/>
<path d="M15.8125 53.1875H24.4375V56.0625H15.8125V53.1875Z" fill="#5F56AF" fill-opacity="0.75"/>
<path d="M44.5625 70.4375H47.4375V73.3125H44.5625V70.4375Z" fill="#5F56AF" fill-opacity="0.75"/>
</svg>
