<svg width="58" height="58" viewBox="0 0 58 58" fill="none" xmlns="http://www.w3.org/2000/svg">
<circle cx="29" cy="29" r="28.5" fill="#FAFAFA" stroke="url(#paint0_linear_1526_12200)"/>
<mask id="path-2-inside-1_1526_12200" fill="white">
<path fill-rule="evenodd" clip-rule="evenodd" d="M22.9137 14.0455C22.5245 14.132 21.9579 14.4442 21.682 14.724C21.5417 14.8663 21.3379 15.1585 21.2291 15.3731L21.0313 15.7634L21.0141 20.9571L20.9968 26.1508L20.7198 26.1153C20.0902 26.0346 19.4809 25.6128 19.1872 25.0543C19.0596 24.8117 19.0339 24.6779 19.0361 24.2655C19.0393 23.6314 19.1891 23.3232 19.74 22.8173C20.1067 22.4805 20.1366 22.4345 20.101 22.2621C20.0511 22.0206 19.8542 21.8697 19.5892 21.8697C19.4188 21.8697 19.3032 21.9366 18.9709 22.2272C17.9819 23.0922 17.7342 24.3801 18.3374 25.5212C18.7524 26.3063 19.6156 26.8907 20.5626 27.0277L21.0001 27.091V28.4831V29.8751H20.7855C20.545 29.8751 20.5615 29.904 20.403 29.2031C20.3449 28.946 20.2444 28.6812 20.1797 28.6147C20.115 28.5483 19.9004 28.4463 19.7029 28.3882C19.5054 28.3302 19.1193 28.181 18.8449 28.0566C18.5226 27.9107 18.3014 27.8437 18.2199 27.8675C18.1506 27.8878 17.8801 28.0323 17.6188 28.1885C17.3576 28.3448 17.1195 28.4727 17.0897 28.4727C17.06 28.4727 16.9038 28.3513 16.7427 28.2029L16.4498 27.9332L16.7916 27.443C16.9861 27.1641 17.135 26.8835 17.137 26.7924C17.139 26.7042 17.0423 26.448 16.922 26.223C16.8018 25.998 16.6436 25.6427 16.5704 25.4335C16.4972 25.2243 16.3876 25.024 16.3267 24.9885C16.2659 24.953 15.9425 24.8656 15.6081 24.7944L15.0001 24.6649V24.2655V23.866L15.6081 23.7365C15.9425 23.6653 16.2659 23.5779 16.3267 23.5425C16.3876 23.507 16.4972 23.3066 16.5704 23.0975C16.6436 22.8882 16.8018 22.5329 16.922 22.308C17.0423 22.083 17.1391 21.8292 17.1372 21.744C17.1353 21.6588 16.9801 21.3664 16.7924 21.0943L16.451 20.5995L16.765 20.306L17.0789 20.0124L17.6024 20.3314C17.9 20.5128 18.1998 20.6519 18.2973 20.6538C18.3916 20.6556 18.6657 20.5647 18.9063 20.4517C19.1469 20.3388 19.5054 20.1992 19.7029 20.1417C19.9004 20.0842 20.1156 19.9827 20.1811 19.9162C20.3109 19.7844 20.6251 18.5574 20.6251 18.1824C20.6251 17.7927 20.1887 17.5946 19.8611 17.8355C19.7347 17.9285 19.6777 18.0702 19.5595 18.5862L19.4138 19.2223L18.8676 19.4381L18.3214 19.6539L17.7328 19.301C17.3645 19.0802 17.0773 18.948 16.9656 18.948C16.821 18.948 16.647 19.079 16.0498 19.6373C15.4527 20.1957 15.3126 20.3583 15.3126 20.4935C15.3126 20.5979 15.4539 20.8664 15.6901 21.2108L16.0676 21.7611L15.8352 22.2751L15.6028 22.7892L15.0983 22.8878C13.9672 23.1088 14.0001 23.0676 14.0001 24.2655C14.0001 25.4634 13.9672 25.4221 15.0983 25.6432L15.6028 25.7417L15.8352 26.2558L16.0676 26.7699L15.6901 27.3202C15.4539 27.6645 15.3126 27.933 15.3126 28.0375C15.3126 28.1727 15.4527 28.3353 16.0498 28.8936C16.647 29.452 16.821 29.5829 16.9656 29.5829C17.0773 29.5829 17.3645 29.4508 17.7328 29.23L18.3214 28.877L18.8676 29.0928L19.4138 29.3087L19.5595 29.9447C19.7449 30.7539 19.8064 30.81 20.5067 30.81H20.9965L21.0139 35.5316L21.0313 40.2532L21.2671 40.6992C21.5455 41.2258 21.9049 41.552 22.5 41.8183L22.9063 42H29H35.0937L35.5112 41.8151C36.0922 41.5577 36.4541 41.2265 36.7353 40.6947L36.9687 40.2532L36.9859 35.0564L37.0032 29.8596L37.2802 29.8951C37.9098 29.9758 38.5191 30.3976 38.8128 30.9561C38.9404 31.1987 38.9661 31.3325 38.9639 31.7449C38.9607 32.3771 38.8109 32.6872 38.2674 33.1864C38.0516 33.3846 37.8749 33.5897 37.8749 33.6422C37.8749 33.7868 38.0449 34.0635 38.159 34.1044C38.4423 34.206 38.6213 34.14 39.0291 33.7832C40.2612 32.7056 40.3129 30.9555 39.1466 29.8121C38.7023 29.3768 38.0866 29.0766 37.4481 28.9843L36.9999 28.9194V27.5273V26.1353H37.2145C37.4561 26.1353 37.4407 26.108 37.6004 26.8209C37.73 27.3991 37.7941 27.4625 38.4687 27.6811C38.7437 27.7703 39.0908 27.9099 39.2401 27.9914C39.6276 28.2029 39.7979 28.1764 40.3976 27.8109L40.9211 27.4919L41.2351 27.7854L41.5491 28.0791L41.2369 28.5242C40.7671 29.194 40.77 29.1752 41.0512 29.7232C41.1847 29.9835 41.3544 30.3677 41.4283 30.5769C41.5022 30.7861 41.6124 30.9864 41.6733 31.0219C41.7341 31.0574 42.0575 31.1448 42.3919 31.216L42.9999 31.3455V31.7449V32.1444L42.3919 32.2739C42.0575 32.3451 41.7341 32.4325 41.6733 32.4679C41.6124 32.5035 41.5022 32.7038 41.4283 32.913C41.3544 33.1222 41.1847 33.5064 41.0512 33.7667C40.77 34.3147 40.7671 34.2959 41.2369 34.9657L41.5491 35.4108L41.2351 35.7044L40.9211 35.998L40.3976 35.679C40.1 35.4976 39.8002 35.3585 39.7027 35.3567C39.6084 35.3548 39.3343 35.4458 39.0937 35.5587C38.8531 35.6717 38.4946 35.8112 38.2971 35.8688C38.0996 35.9263 37.8844 36.0278 37.8189 36.0942C37.6891 36.226 37.3749 37.453 37.3749 37.828C37.3749 38.2177 37.8113 38.4158 38.1389 38.1749C38.2656 38.0818 38.3224 37.9397 38.4426 37.415C38.5644 36.8834 38.6127 36.7637 38.7171 36.7353C38.7867 36.7163 39.0311 36.6215 39.2601 36.5247L39.6766 36.3486L40.2658 36.7055C40.6381 36.931 40.921 37.0624 41.034 37.0624C41.1791 37.0624 41.3522 36.9321 41.9502 36.3731C42.5508 35.8115 42.6874 35.6526 42.6874 35.5152C42.6874 35.4089 42.5483 35.1433 42.3107 34.7962L41.934 34.2458L42.1656 33.7335L42.3972 33.2212L42.9017 33.1226C44.0328 32.9016 43.9999 32.9428 43.9999 31.7449C43.9999 30.5471 44.0328 30.5883 42.9017 30.3673L42.3972 30.2687L42.1648 29.7546L41.9324 29.2405L42.3099 28.6902C42.5461 28.3459 42.6874 28.0774 42.6874 27.973C42.6874 27.8377 42.5473 27.6751 41.9502 27.1168C41.353 26.5585 41.179 26.4275 41.0344 26.4275C40.9226 26.4275 40.6344 26.5603 40.263 26.783L39.6701 27.1385L39.2569 26.9638C39.0296 26.8677 38.7867 26.7736 38.7171 26.7546C38.6127 26.7262 38.5644 26.6065 38.4426 26.0749C38.2548 25.2555 38.1951 25.2004 37.4933 25.2004H37.0035L36.9861 20.4788L36.9687 15.7572L36.7353 15.3158C36.4541 14.784 36.0922 14.4527 35.5112 14.1954L35.0937 14.0104L29.125 14.001C25.6521 13.9955 23.0549 14.0141 22.9137 14.0455ZM23 14.9925C22.6933 15.0829 22.1701 15.5894 22.076 15.8871C21.9655 16.2367 21.9655 39.7737 22.076 40.1234C22.1775 40.4443 22.6952 40.9284 23.0385 41.0232C23.4092 41.1256 34.5908 41.1256 34.9615 41.0232C35.3048 40.9284 35.8225 40.4443 35.924 40.1234C36.033 39.7785 36.0346 16.2357 35.9256 15.8957C35.8848 15.7682 35.7298 15.5375 35.5811 15.3829C35.1045 14.8872 35.5075 14.9153 28.9733 14.9221C24.9687 14.9262 23.1523 14.9477 23 14.9925ZM27.1535 15.9945C27.0567 16.0849 27 16.2047 27 16.3185C27 16.4324 27.0567 16.5522 27.1535 16.6426L27.3068 16.786H29H30.6932L30.8466 16.6426C30.9433 16.5522 31 16.4324 31 16.3185C31 16.2047 30.9433 16.0849 30.8466 15.9945L30.6932 15.8511H29H27.3068L27.1535 15.9945ZM39.1534 17.8644C38.8527 18.1454 39.0042 18.6168 39.4193 18.6918C39.5872 18.7221 39.6509 18.699 39.8099 18.5503C39.9405 18.4283 39.9999 18.3156 39.9999 18.1902C39.9999 17.9481 39.7579 17.7209 39.4999 17.7209C39.3782 17.7209 39.2501 17.7739 39.1534 17.8644ZM39.1534 19.7343C38.8527 20.0153 39.0042 20.4866 39.4193 20.5616C39.5872 20.5919 39.6509 20.5689 39.8099 20.4202C39.9405 20.2981 39.9999 20.1855 39.9999 20.0601C39.9999 19.818 39.7579 19.5908 39.4999 19.5908C39.3782 19.5908 39.2501 19.6438 39.1534 19.7343ZM39.1534 21.6041C38.8527 21.8851 39.0042 22.3565 39.4193 22.4315C39.5872 22.4618 39.6509 22.4387 39.8099 22.2901C39.9405 22.168 39.9999 22.0554 39.9999 21.93C39.9999 21.6879 39.7579 21.4607 39.4999 21.4607C39.3782 21.4607 39.2501 21.5137 39.1534 21.6041ZM25.1425 26.736C24.1037 27.7073 24 27.8224 24 28.0052C24 28.188 24.1037 28.3032 25.1425 29.2744C26.1577 30.2235 26.3078 30.3425 26.4891 30.3425C26.7614 30.3425 27 30.1207 27 29.8677C27 29.704 26.8848 29.571 26.1122 28.8424L25.2243 28.0052L26.1122 27.168C26.8848 26.4394 27 26.3064 27 26.1428C27 25.8897 26.7614 25.6679 26.4891 25.6679C26.3078 25.6679 26.1577 25.7869 25.1425 26.736ZM29.1908 25.7705C29.0816 25.8532 28.9529 26.2541 28.5293 27.8303C28.2401 28.9067 28.0027 29.8478 28.0017 29.9215C27.9993 30.1114 28.2674 30.3425 28.4903 30.3425C28.8788 30.3425 28.9054 30.2837 29.4707 28.1802C29.7599 27.1037 29.9973 26.1626 29.9983 26.0889C30.0026 25.7566 29.4809 25.5509 29.1908 25.7705ZM31.1534 25.8113C31.0541 25.9042 31 26.021 31 26.1428C31 26.3064 31.1152 26.4394 31.8878 27.168L32.7757 28.0052L31.8878 28.8424C31.1152 29.571 31 29.704 31 29.8677C31 30.1207 31.2386 30.3425 31.5109 30.3425C31.6922 30.3425 31.8423 30.2235 32.8575 29.2744C33.8963 28.3032 34 28.188 34 28.0052C34 27.8224 33.8963 27.7073 32.8575 26.736C31.8423 25.7869 31.6922 25.6679 31.5109 25.6679C31.3775 25.6679 31.2536 25.7176 31.1534 25.8113ZM18.3349 33.5564C17.9843 33.6873 17.8846 34.1642 18.1648 34.3702C18.4421 34.5742 18.7605 34.5105 18.9274 34.2176C19.0365 34.026 19.0158 33.8712 18.8594 33.7105C18.6926 33.5389 18.5187 33.4878 18.3349 33.5564ZM18.3349 35.4263C17.9843 35.5571 17.8846 36.0341 18.1648 36.24C18.4421 36.444 18.7605 36.3803 18.9274 36.0875C19.0365 35.8959 19.0158 35.7411 18.8594 35.5803C18.6926 35.4088 18.5187 35.3577 18.3349 35.4263ZM18.3349 37.2962C17.9843 37.427 17.8846 37.9039 18.1648 38.1099C18.4421 38.3139 18.7605 38.2502 18.9274 37.9573C19.0365 37.7657 19.0158 37.611 18.8594 37.4502C18.6926 37.2786 18.5187 37.2276 18.3349 37.2962Z"/>
</mask>
<path fill-rule="evenodd" clip-rule="evenodd" d="M22.9137 14.0455C22.5245 14.132 21.9579 14.4442 21.682 14.724C21.5417 14.8663 21.3379 15.1585 21.2291 15.3731L21.0313 15.7634L21.0141 20.9571L20.9968 26.1508L20.7198 26.1153C20.0902 26.0346 19.4809 25.6128 19.1872 25.0543C19.0596 24.8117 19.0339 24.6779 19.0361 24.2655C19.0393 23.6314 19.1891 23.3232 19.74 22.8173C20.1067 22.4805 20.1366 22.4345 20.101 22.2621C20.0511 22.0206 19.8542 21.8697 19.5892 21.8697C19.4188 21.8697 19.3032 21.9366 18.9709 22.2272C17.9819 23.0922 17.7342 24.3801 18.3374 25.5212C18.7524 26.3063 19.6156 26.8907 20.5626 27.0277L21.0001 27.091V28.4831V29.8751H20.7855C20.545 29.8751 20.5615 29.904 20.403 29.2031C20.3449 28.946 20.2444 28.6812 20.1797 28.6147C20.115 28.5483 19.9004 28.4463 19.7029 28.3882C19.5054 28.3302 19.1193 28.181 18.8449 28.0566C18.5226 27.9107 18.3014 27.8437 18.2199 27.8675C18.1506 27.8878 17.8801 28.0323 17.6188 28.1885C17.3576 28.3448 17.1195 28.4727 17.0897 28.4727C17.06 28.4727 16.9038 28.3513 16.7427 28.2029L16.4498 27.9332L16.7916 27.443C16.9861 27.1641 17.135 26.8835 17.137 26.7924C17.139 26.7042 17.0423 26.448 16.922 26.223C16.8018 25.998 16.6436 25.6427 16.5704 25.4335C16.4972 25.2243 16.3876 25.024 16.3267 24.9885C16.2659 24.953 15.9425 24.8656 15.6081 24.7944L15.0001 24.6649V24.2655V23.866L15.6081 23.7365C15.9425 23.6653 16.2659 23.5779 16.3267 23.5425C16.3876 23.507 16.4972 23.3066 16.5704 23.0975C16.6436 22.8882 16.8018 22.5329 16.922 22.308C17.0423 22.083 17.1391 21.8292 17.1372 21.744C17.1353 21.6588 16.9801 21.3664 16.7924 21.0943L16.451 20.5995L16.765 20.306L17.0789 20.0124L17.6024 20.3314C17.9 20.5128 18.1998 20.6519 18.2973 20.6538C18.3916 20.6556 18.6657 20.5647 18.9063 20.4517C19.1469 20.3388 19.5054 20.1992 19.7029 20.1417C19.9004 20.0842 20.1156 19.9827 20.1811 19.9162C20.3109 19.7844 20.6251 18.5574 20.6251 18.1824C20.6251 17.7927 20.1887 17.5946 19.8611 17.8355C19.7347 17.9285 19.6777 18.0702 19.5595 18.5862L19.4138 19.2223L18.8676 19.4381L18.3214 19.6539L17.7328 19.301C17.3645 19.0802 17.0773 18.948 16.9656 18.948C16.821 18.948 16.647 19.079 16.0498 19.6373C15.4527 20.1957 15.3126 20.3583 15.3126 20.4935C15.3126 20.5979 15.4539 20.8664 15.6901 21.2108L16.0676 21.7611L15.8352 22.2751L15.6028 22.7892L15.0983 22.8878C13.9672 23.1088 14.0001 23.0676 14.0001 24.2655C14.0001 25.4634 13.9672 25.4221 15.0983 25.6432L15.6028 25.7417L15.8352 26.2558L16.0676 26.7699L15.6901 27.3202C15.4539 27.6645 15.3126 27.933 15.3126 28.0375C15.3126 28.1727 15.4527 28.3353 16.0498 28.8936C16.647 29.452 16.821 29.5829 16.9656 29.5829C17.0773 29.5829 17.3645 29.4508 17.7328 29.23L18.3214 28.877L18.8676 29.0928L19.4138 29.3087L19.5595 29.9447C19.7449 30.7539 19.8064 30.81 20.5067 30.81H20.9965L21.0139 35.5316L21.0313 40.2532L21.2671 40.6992C21.5455 41.2258 21.9049 41.552 22.5 41.8183L22.9063 42H29H35.0937L35.5112 41.8151C36.0922 41.5577 36.4541 41.2265 36.7353 40.6947L36.9687 40.2532L36.9859 35.0564L37.0032 29.8596L37.2802 29.8951C37.9098 29.9758 38.5191 30.3976 38.8128 30.9561C38.9404 31.1987 38.9661 31.3325 38.9639 31.7449C38.9607 32.3771 38.8109 32.6872 38.2674 33.1864C38.0516 33.3846 37.8749 33.5897 37.8749 33.6422C37.8749 33.7868 38.0449 34.0635 38.159 34.1044C38.4423 34.206 38.6213 34.14 39.0291 33.7832C40.2612 32.7056 40.3129 30.9555 39.1466 29.8121C38.7023 29.3768 38.0866 29.0766 37.4481 28.9843L36.9999 28.9194V27.5273V26.1353H37.2145C37.4561 26.1353 37.4407 26.108 37.6004 26.8209C37.73 27.3991 37.7941 27.4625 38.4687 27.6811C38.7437 27.7703 39.0908 27.9099 39.2401 27.9914C39.6276 28.2029 39.7979 28.1764 40.3976 27.8109L40.9211 27.4919L41.2351 27.7854L41.5491 28.0791L41.2369 28.5242C40.7671 29.194 40.77 29.1752 41.0512 29.7232C41.1847 29.9835 41.3544 30.3677 41.4283 30.5769C41.5022 30.7861 41.6124 30.9864 41.6733 31.0219C41.7341 31.0574 42.0575 31.1448 42.3919 31.216L42.9999 31.3455V31.7449V32.1444L42.3919 32.2739C42.0575 32.3451 41.7341 32.4325 41.6733 32.4679C41.6124 32.5035 41.5022 32.7038 41.4283 32.913C41.3544 33.1222 41.1847 33.5064 41.0512 33.7667C40.77 34.3147 40.7671 34.2959 41.2369 34.9657L41.5491 35.4108L41.2351 35.7044L40.9211 35.998L40.3976 35.679C40.1 35.4976 39.8002 35.3585 39.7027 35.3567C39.6084 35.3548 39.3343 35.4458 39.0937 35.5587C38.8531 35.6717 38.4946 35.8112 38.2971 35.8688C38.0996 35.9263 37.8844 36.0278 37.8189 36.0942C37.6891 36.226 37.3749 37.453 37.3749 37.828C37.3749 38.2177 37.8113 38.4158 38.1389 38.1749C38.2656 38.0818 38.3224 37.9397 38.4426 37.415C38.5644 36.8834 38.6127 36.7637 38.7171 36.7353C38.7867 36.7163 39.0311 36.6215 39.2601 36.5247L39.6766 36.3486L40.2658 36.7055C40.6381 36.931 40.921 37.0624 41.034 37.0624C41.1791 37.0624 41.3522 36.9321 41.9502 36.3731C42.5508 35.8115 42.6874 35.6526 42.6874 35.5152C42.6874 35.4089 42.5483 35.1433 42.3107 34.7962L41.934 34.2458L42.1656 33.7335L42.3972 33.2212L42.9017 33.1226C44.0328 32.9016 43.9999 32.9428 43.9999 31.7449C43.9999 30.5471 44.0328 30.5883 42.9017 30.3673L42.3972 30.2687L42.1648 29.7546L41.9324 29.2405L42.3099 28.6902C42.5461 28.3459 42.6874 28.0774 42.6874 27.973C42.6874 27.8377 42.5473 27.6751 41.9502 27.1168C41.353 26.5585 41.179 26.4275 41.0344 26.4275C40.9226 26.4275 40.6344 26.5603 40.263 26.783L39.6701 27.1385L39.2569 26.9638C39.0296 26.8677 38.7867 26.7736 38.7171 26.7546C38.6127 26.7262 38.5644 26.6065 38.4426 26.0749C38.2548 25.2555 38.1951 25.2004 37.4933 25.2004H37.0035L36.9861 20.4788L36.9687 15.7572L36.7353 15.3158C36.4541 14.784 36.0922 14.4527 35.5112 14.1954L35.0937 14.0104L29.125 14.001C25.6521 13.9955 23.0549 14.0141 22.9137 14.0455ZM23 14.9925C22.6933 15.0829 22.1701 15.5894 22.076 15.8871C21.9655 16.2367 21.9655 39.7737 22.076 40.1234C22.1775 40.4443 22.6952 40.9284 23.0385 41.0232C23.4092 41.1256 34.5908 41.1256 34.9615 41.0232C35.3048 40.9284 35.8225 40.4443 35.924 40.1234C36.033 39.7785 36.0346 16.2357 35.9256 15.8957C35.8848 15.7682 35.7298 15.5375 35.5811 15.3829C35.1045 14.8872 35.5075 14.9153 28.9733 14.9221C24.9687 14.9262 23.1523 14.9477 23 14.9925ZM27.1535 15.9945C27.0567 16.0849 27 16.2047 27 16.3185C27 16.4324 27.0567 16.5522 27.1535 16.6426L27.3068 16.786H29H30.6932L30.8466 16.6426C30.9433 16.5522 31 16.4324 31 16.3185C31 16.2047 30.9433 16.0849 30.8466 15.9945L30.6932 15.8511H29H27.3068L27.1535 15.9945ZM39.1534 17.8644C38.8527 18.1454 39.0042 18.6168 39.4193 18.6918C39.5872 18.7221 39.6509 18.699 39.8099 18.5503C39.9405 18.4283 39.9999 18.3156 39.9999 18.1902C39.9999 17.9481 39.7579 17.7209 39.4999 17.7209C39.3782 17.7209 39.2501 17.7739 39.1534 17.8644ZM39.1534 19.7343C38.8527 20.0153 39.0042 20.4866 39.4193 20.5616C39.5872 20.5919 39.6509 20.5689 39.8099 20.4202C39.9405 20.2981 39.9999 20.1855 39.9999 20.0601C39.9999 19.818 39.7579 19.5908 39.4999 19.5908C39.3782 19.5908 39.2501 19.6438 39.1534 19.7343ZM39.1534 21.6041C38.8527 21.8851 39.0042 22.3565 39.4193 22.4315C39.5872 22.4618 39.6509 22.4387 39.8099 22.2901C39.9405 22.168 39.9999 22.0554 39.9999 21.93C39.9999 21.6879 39.7579 21.4607 39.4999 21.4607C39.3782 21.4607 39.2501 21.5137 39.1534 21.6041ZM25.1425 26.736C24.1037 27.7073 24 27.8224 24 28.0052C24 28.188 24.1037 28.3032 25.1425 29.2744C26.1577 30.2235 26.3078 30.3425 26.4891 30.3425C26.7614 30.3425 27 30.1207 27 29.8677C27 29.704 26.8848 29.571 26.1122 28.8424L25.2243 28.0052L26.1122 27.168C26.8848 26.4394 27 26.3064 27 26.1428C27 25.8897 26.7614 25.6679 26.4891 25.6679C26.3078 25.6679 26.1577 25.7869 25.1425 26.736ZM29.1908 25.7705C29.0816 25.8532 28.9529 26.2541 28.5293 27.8303C28.2401 28.9067 28.0027 29.8478 28.0017 29.9215C27.9993 30.1114 28.2674 30.3425 28.4903 30.3425C28.8788 30.3425 28.9054 30.2837 29.4707 28.1802C29.7599 27.1037 29.9973 26.1626 29.9983 26.0889C30.0026 25.7566 29.4809 25.5509 29.1908 25.7705ZM31.1534 25.8113C31.0541 25.9042 31 26.021 31 26.1428C31 26.3064 31.1152 26.4394 31.8878 27.168L32.7757 28.0052L31.8878 28.8424C31.1152 29.571 31 29.704 31 29.8677C31 30.1207 31.2386 30.3425 31.5109 30.3425C31.6922 30.3425 31.8423 30.2235 32.8575 29.2744C33.8963 28.3032 34 28.188 34 28.0052C34 27.8224 33.8963 27.7073 32.8575 26.736C31.8423 25.7869 31.6922 25.6679 31.5109 25.6679C31.3775 25.6679 31.2536 25.7176 31.1534 25.8113ZM18.3349 33.5564C17.9843 33.6873 17.8846 34.1642 18.1648 34.3702C18.4421 34.5742 18.7605 34.5105 18.9274 34.2176C19.0365 34.026 19.0158 33.8712 18.8594 33.7105C18.6926 33.5389 18.5187 33.4878 18.3349 33.5564ZM18.3349 35.4263C17.9843 35.5571 17.8846 36.0341 18.1648 36.24C18.4421 36.444 18.7605 36.3803 18.9274 36.0875C19.0365 35.8959 19.0158 35.7411 18.8594 35.5803C18.6926 35.4088 18.5187 35.3577 18.3349 35.4263ZM18.3349 37.2962C17.9843 37.427 17.8846 37.9039 18.1648 38.1099C18.4421 38.3139 18.7605 38.2502 18.9274 37.9573C19.0365 37.7657 19.0158 37.611 18.8594 37.4502C18.6926 37.2786 18.5187 37.2276 18.3349 37.2962Z" stroke="#5F56AF" stroke-opacity="0.5" mask="url(#path-2-inside-1_1526_12200)"/>
<defs>
<linearGradient id="paint0_linear_1526_12200" x1="58" y1="0" x2="0" y2="58" gradientUnits="userSpaceOnUse">
<stop stop-color="#5F56AF" stop-opacity="0.5"/>
<stop offset="1" stop-color="#5F56AF"/>
</linearGradient>
</defs>
</svg>
