<svg width="58" height="58" viewBox="0 0 58 58" fill="none" xmlns="http://www.w3.org/2000/svg">
<circle cx="29" cy="29" r="29" fill="#FAFAFA"/>
<circle cx="29" cy="29" r="28.5" stroke="#5F56AF" stroke-opacity="0.5"/>
<path fill-rule="evenodd" clip-rule="evenodd" d="M24.0521 13.2363C23.6746 13.3725 23.3619 13.5955 23.1614 13.8712C22.745 14.4441 22.7636 14.2757 22.7427 17.6604L22.7237 20.746L19.797 20.7642L16.8702 20.7824L16.4583 20.9776C15.7097 21.3324 15.1956 22.009 15.0641 22.8126C14.9747 23.358 14.9806 37.8422 15.0704 38.3324C15.2478 39.3014 15.9343 40.0455 16.8778 40.2912C17.1878 40.3719 17.9053 40.3869 21.4683 40.3869H25.6915L25.9228 40.9255C26.351 41.9224 26.3542 42.4516 25.9363 43.2056L25.7257 43.5857L24.9718 43.6012C24.5572 43.6097 24.152 43.6321 24.0714 43.6509C23.7535 43.7251 23.7007 44.346 23.9987 44.5055C24.1564 44.5898 33.8441 44.5898 34.0019 44.5055C34.2756 44.359 34.2565 43.7667 33.9745 43.6585C33.9155 43.6358 33.5205 43.6173 33.0965 43.6172L32.3258 43.6171L32.1585 43.348C31.5141 42.3115 31.5004 41.6443 32.104 40.7037L32.3047 40.391L36.6858 40.3731L41.067 40.3552L41.431 40.2082C42.1794 39.906 42.7981 39.1169 42.9315 38.2944C43.022 37.7369 43.0232 23.4119 42.9328 22.841C42.8004 22.0042 42.3076 21.3401 41.554 20.9831L41.1303 20.7824L38.2035 20.7642L35.2768 20.746L35.2581 17.6604C35.2398 14.6177 35.2375 14.5709 35.0986 14.2898C34.8867 13.861 34.6252 13.5778 34.2486 13.3692L33.9093 13.1813L29.0953 13.1674C25.2666 13.1564 24.2344 13.1705 24.0521 13.2363ZM24.2496 14.2409C23.8552 14.4401 23.7431 14.6856 23.743 15.3508L23.7429 15.8734H29.0003H34.2577V15.3318C34.2577 14.7156 34.1784 14.5041 33.8628 14.279L33.6559 14.1315L29.0953 14.1142L24.5346 14.0969L24.2496 14.2409ZM23.7429 22.8727V28.8586H29.0003H34.2577V22.8727V16.8868H29.0003H23.7429V22.8727ZM28.2077 19.4042C27.2307 19.7532 26.5964 20.4628 26.3965 21.4308C26.3194 21.804 26.3085 21.8193 26.0907 21.8599C25.6854 21.9352 25.2617 22.1574 25.0488 22.4061C24.3964 23.1683 24.6712 24.3811 25.6115 24.8894C25.8615 25.0245 25.9067 25.0263 29.0003 25.0263C32.1131 25.0263 32.1376 25.0253 32.3972 24.8865C32.7561 24.6945 33.1474 24.2322 33.2445 23.8853C33.3601 23.4724 33.2937 22.9049 33.089 22.5556C32.8889 22.2142 32.4057 21.9115 31.9665 21.8524L31.6705 21.8125L31.6273 21.4987C31.5639 21.0374 31.2073 20.3746 30.8354 20.0268C30.6604 19.863 30.3255 19.6393 30.0912 19.5296C29.731 19.3609 29.5776 19.3272 29.0953 19.3105C28.6683 19.2957 28.4455 19.3193 28.2077 19.4042ZM28.553 20.3274C28.2206 20.4205 27.9412 20.6044 27.7044 20.8858C27.4347 21.2064 27.3392 21.5006 27.3391 22.0118C27.339 22.4194 27.3195 22.5006 27.1907 22.6294C27.0727 22.7474 26.974 22.7778 26.707 22.7781C25.9993 22.7788 25.6776 22.9802 25.6776 23.4226C25.6776 23.63 25.7159 23.7116 25.8831 23.861L26.0886 24.0445H29.0243H31.9601L32.1255 23.8791C32.4632 23.5414 32.3801 22.9909 31.9698 22.8479C31.859 22.8093 31.5861 22.7777 31.3633 22.7777C31.0229 22.7777 30.9344 22.754 30.8098 22.6294C30.68 22.4996 30.6619 22.422 30.6646 22.0055C30.667 21.6391 30.6354 21.4631 30.527 21.2394C30.3689 20.9127 29.9757 20.5279 29.669 20.3998C29.3557 20.2689 28.8734 20.2376 28.553 20.3274ZM17.0426 21.794C16.649 21.9169 16.3675 22.1586 16.18 22.535L16.0151 22.8659V29.1243V35.3828H29.0003H41.9855V29.1243V22.8659L41.8206 22.535C41.7299 22.353 41.5601 22.1312 41.4434 22.0422C41.0171 21.717 40.8518 21.7009 37.9532 21.7009H35.2712V22.3768C35.2712 22.9188 35.2921 23.0758 35.3768 23.1694C35.5114 23.3182 35.5126 23.6294 35.379 23.7769C35.2864 23.8793 35.274 24.2929 35.2577 27.8158L35.2395 31.7406L35.0838 32.0547C34.8853 32.4552 34.5161 32.8244 34.1404 32.9981C33.8473 33.1335 33.8245 33.1342 29.0003 33.1342H24.1546L23.8469 32.9827C23.4375 32.7812 23.1291 32.4621 22.927 32.0311L22.761 31.6773L22.7429 27.7892C22.7275 24.4997 22.7104 23.8806 22.632 23.7686C22.5118 23.597 22.5131 23.2584 22.6344 23.1577C22.7082 23.0965 22.7294 22.9251 22.7294 22.3899V21.7009L20.0215 21.7051C17.9496 21.7083 17.2499 21.7292 17.0426 21.794ZM19.1177 23.0826C19.0162 23.1648 18.9674 23.2865 18.9461 23.5102C18.9061 23.9312 19.0807 24.1712 19.4273 24.1712C19.7532 24.1712 20.1328 23.7941 20.1314 23.4718C20.1302 23.1983 20.081 23.1199 19.8578 23.0351C19.5912 22.9337 19.2766 22.9539 19.1177 23.0826ZM20.806 23.099C20.6784 23.1994 20.6391 23.2865 20.6391 23.4693C20.6391 23.8341 20.8066 23.9495 21.3358 23.9495C21.8651 23.9495 22.0326 23.8341 22.0326 23.4693C22.0326 23.1247 21.8146 22.9677 21.3358 22.9677C21.0645 22.9677 20.9307 23.0008 20.806 23.099ZM36.1234 23.1232C35.9347 23.3119 35.9204 23.5918 36.089 23.8C36.1959 23.932 36.2634 23.9495 36.6646 23.9495C37.084 23.9495 37.1308 23.9358 37.272 23.7718C37.4731 23.5379 37.4648 23.378 37.2397 23.1529C37.0754 22.9886 37.0109 22.9677 36.6667 22.9677C36.3394 22.9677 36.2546 22.992 36.1234 23.1232ZM38.0237 23.1232C37.8008 23.3461 37.8184 23.6115 38.0741 23.8819C38.3259 24.1482 38.5434 24.2382 38.7492 24.1615C38.9802 24.0753 39.0675 23.9175 39.0697 23.5825C39.0725 23.1652 38.8798 22.9677 38.47 22.9677C38.2457 22.9677 38.1436 23.0033 38.0237 23.1232ZM19.2053 24.562C18.9082 24.7059 18.8196 25.4088 19.0601 25.7146C19.2207 25.9187 19.5398 25.9396 19.7611 25.7604C19.8913 25.655 19.9106 25.5844 19.9106 25.2165C19.9106 24.8318 19.8946 24.7799 19.7329 24.6408C19.5422 24.4767 19.4193 24.4584 19.2053 24.562ZM38.2948 24.6142C38.1358 24.7393 38.1216 24.7867 38.1216 25.1893C38.1216 25.5437 38.146 25.6525 38.2483 25.7548C38.4247 25.9312 38.7586 25.9215 38.934 25.7349C39.1152 25.542 39.1318 24.891 38.9609 24.6852C38.7917 24.4815 38.5027 24.4507 38.2948 24.6142ZM19.0843 26.3537C18.9533 26.4847 18.9288 26.5697 18.9288 26.8949C18.9288 27.2201 18.9533 27.3052 19.0843 27.4362C19.2745 27.6264 19.5762 27.6411 19.7487 27.4686C20.014 27.2034 19.9916 26.5493 19.7097 26.3276C19.4906 26.1552 19.2737 26.1643 19.0843 26.3537ZM38.2885 26.3295C38.1376 26.4481 38.1216 26.5018 38.1216 26.8885C38.1216 27.2537 38.143 27.3364 38.2682 27.454C38.4629 27.6369 38.7575 27.633 38.934 27.4451C39.045 27.3269 39.0717 27.2219 39.0717 26.9038C39.0717 26.5692 39.048 26.4854 38.9162 26.3537C38.7262 26.1637 38.5099 26.1553 38.2885 26.3295ZM19.1016 28.0351C18.9663 28.1416 18.8446 28.1618 18.3399 28.1618C17.8431 28.1618 17.7135 28.1827 17.5898 28.2828L17.4403 28.4038L17.4216 30.1446L17.403 31.8854L17.5585 32.0663L17.7142 32.2474L19.3499 32.2663C20.2495 32.2768 21.0493 32.2693 21.1273 32.2497C21.2052 32.2302 21.3268 32.1521 21.3974 32.0763C21.52 31.9448 21.5259 31.8588 21.5259 30.2056V28.4727L21.3704 28.3173C21.2244 28.1712 21.1731 28.1618 20.5251 28.1618C19.9157 28.1618 19.8219 28.147 19.7206 28.0351C19.6576 27.9654 19.5287 27.9084 19.4343 27.9084C19.3399 27.9084 19.1902 27.9654 19.1016 28.0351ZM38.2943 28.0351C38.1565 28.1435 38.0373 28.1618 37.4693 28.1618C36.9102 28.1618 36.7818 28.1809 36.6559 28.2828L36.5063 28.4038L36.4877 30.1446L36.469 31.8854L36.6246 32.0663L36.7802 32.2474L38.4159 32.2663C39.3155 32.2768 40.1153 32.2693 40.1933 32.2497C40.2713 32.2302 40.3928 32.1521 40.4635 32.0763C40.586 31.9448 40.5919 31.8588 40.5919 30.2056V28.4727L40.4364 28.3173C40.2929 28.1737 40.2342 28.1618 39.6705 28.1618C39.156 28.1618 39.0347 28.1419 38.899 28.0351C38.8104 27.9654 38.6744 27.9084 38.5966 27.9084C38.5189 27.9084 38.3829 27.9654 38.2943 28.0351ZM18.4221 30.1872V31.2656H19.5004H20.5788L20.5614 30.2046L20.5441 29.1436L19.4831 29.1262L18.4221 29.1089V30.1872ZM37.4882 30.1872V31.2656H38.5665H39.6448L39.6275 30.2046L39.6101 29.1436L38.5491 29.1262L37.4882 29.1089V30.1872ZM23.7429 30.6807C23.7429 31.6018 23.8198 31.8367 24.1934 32.0574C24.4026 32.1809 24.5217 32.184 29.0003 32.184C33.4788 32.184 33.5979 32.1809 33.8071 32.0574C34.1808 31.8367 34.2577 31.6018 34.2577 30.6807V29.872H29.0003H23.7429V30.6807ZM29.0003 30.3961C28.7619 30.5146 28.5996 30.8864 28.6865 31.115C28.8415 31.5227 29.2015 31.6781 29.5608 31.4922C29.7945 31.3714 29.8871 31.2171 29.8871 30.9489C29.8871 30.6838 29.7948 30.5265 29.5716 30.4111C29.3481 30.2955 29.2097 30.2919 29.0003 30.3961ZM16.0165 37.2989C16.0181 38.3842 16.0774 38.6051 16.4666 38.9743C16.9211 39.4055 15.9122 39.3735 29.0141 39.372C40.3534 39.3707 40.8882 39.3655 41.1303 39.2552C41.4562 39.1069 41.8317 38.6894 41.9176 38.3803C41.9545 38.2471 41.9849 37.732 41.9851 37.2356L41.9855 36.333H29.0003H16.0151L16.0165 37.2989ZM26.8146 40.4977C27.1891 41.4223 27.1881 41.418 27.1913 42.1288C27.194 42.7472 27.1753 42.8701 27.0249 43.2214L26.8555 43.6173H29.0007H31.146L30.963 43.2138C30.5743 42.3567 30.5732 41.6137 30.9591 40.789L31.1473 40.3869H28.9585C26.8991 40.3869 26.7724 40.3934 26.8146 40.4977Z" fill="#5F56AF" fill-opacity="0.5"/>
</svg>
