<svg width="58" height="58" viewBox="0 0 58 58" fill="none" xmlns="http://www.w3.org/2000/svg">
<circle cx="29" cy="29" r="28.5" fill="#FAFAFA" stroke="#5F56AF"/>
<path fill-rule="evenodd" clip-rule="evenodd" d="M20.0074 11.5943C19.7955 11.6516 19.4909 11.7755 19.3306 11.8694C18.9009 12.1213 18.351 12.7596 18.1633 13.2242L18 13.6287V27.3884V41.1481L18.232 41.6194C18.5276 42.2199 19.0019 42.6937 19.5832 42.9692L20.0409 43.1861L25.9426 43.2052L31.8445 43.2243L31.8079 43.4156C31.7601 43.6655 31.8241 43.7776 32.4115 44.4731C32.9539 45.1155 34.0559 46.0801 34.3242 46.1474C34.4505 46.1791 34.6613 46.0966 35.1312 45.8318C35.4809 45.6346 35.807 45.4732 35.8556 45.4732C35.9042 45.4732 36.0798 45.5286 36.2456 45.5964C36.5329 45.7138 36.5538 45.7427 36.6905 46.2122C36.9402 47.0698 36.9685 47.1427 37.0987 47.2605C37.3872 47.5216 39.8111 47.5912 40.5228 47.3588C40.8222 47.261 40.8391 47.2272 41.1529 46.0998C41.2603 45.7139 41.27 45.7034 41.6366 45.5788L42.0107 45.4517L42.6614 45.8186C43.16 46.0996 43.356 46.1756 43.4995 46.1432C43.9495 46.0419 45.9092 44.0821 46.0105 43.6322C46.0429 43.4887 45.9669 43.2927 45.6859 42.7941L45.319 42.1433L45.4469 41.767C45.5647 41.4204 45.5975 41.3848 45.8623 41.3159C46.0205 41.2747 46.3661 41.1778 46.6304 41.1005C47.3192 40.8991 47.3412 40.8353 47.3412 39.034C47.3412 37.2794 47.3071 37.1679 46.7194 37C46.5029 36.9381 46.1565 36.8392 45.9495 36.7801C45.5845 36.6759 45.5695 36.6616 45.4459 36.2976L45.3183 35.9226L45.6882 35.2762C45.9578 34.8053 46.0469 34.5847 46.0164 34.4635C45.8861 33.944 43.8066 31.8909 43.4108 31.8909C43.369 31.8909 43.0295 32.0596 42.6563 32.2659L41.9777 32.6408L41.6182 32.4946C41.2793 32.3567 41.2529 32.3272 41.1546 31.9785C41.0974 31.7751 41.0017 31.4354 40.9421 31.2236C40.8792 31.0005 40.7778 30.8088 40.7009 30.7677C40.4573 30.6373 39.2025 30.5375 38.3925 30.5842L37.6021 30.6297L37.5832 22.1292C37.5654 14.2076 37.5557 13.6072 37.4402 13.312C37.1746 12.6328 36.4488 11.907 35.7696 11.6414C35.4751 11.5261 34.9253 11.5165 27.9228 11.5037C21.4585 11.4919 20.3382 11.5047 20.0074 11.5943ZM20.1783 12.5603C19.2463 12.9216 18.9501 13.4614 18.9501 14.7987V15.6344H27.7875H36.625L36.6019 14.7019C36.5836 13.9568 36.5518 13.7148 36.4439 13.4974C36.2776 13.1623 35.9149 12.8026 35.5711 12.6315C35.3256 12.5094 34.9262 12.5021 27.8525 12.49C22.259 12.4804 20.3391 12.498 20.1783 12.5603ZM18.9501 25.7331V34.8467H25.3981H31.8462L31.8048 34.6398C31.771 34.4706 31.82 34.356 32.0738 34.0112C32.6749 33.1947 34.1169 31.8909 34.419 31.8909C34.4805 31.8909 34.8093 32.0493 35.1496 32.2428C35.49 32.4363 35.8152 32.5947 35.8722 32.5947C36.0049 32.5947 36.4924 32.3703 36.5603 32.278C36.5887 32.2393 36.6124 28.7003 36.6131 24.4136L36.6141 16.6196H27.7821H18.9501V25.7331ZM26.3394 20.1593C25.2124 20.4659 24.4187 20.9359 23.6215 21.7686C22.5569 22.8805 22.0475 24.1635 22.0475 25.7331C22.0475 28.3039 23.6365 30.4739 26.0931 31.258C26.8374 31.4956 28.2741 31.5346 29.0908 31.3395C30.2372 31.0656 31.1285 30.5496 31.951 29.6838C32.5605 29.0422 32.9469 28.4008 33.2497 27.5277C33.4731 26.8835 33.4816 26.8193 33.482 25.7683C33.4824 24.8197 33.4609 24.609 33.3175 24.1522C32.7932 22.4825 31.7314 21.2499 30.192 20.524C29.4047 20.1527 28.9468 20.0532 27.8876 20.0234C27.0609 20.0001 26.86 20.0177 26.3394 20.1593ZM26.8165 21.3658C26.5338 21.5817 26.1617 22.0606 25.9243 22.5141C25.8495 22.6571 25.861 22.6808 26.0375 22.7481C26.3513 22.8678 26.9881 23.0237 27.1635 23.0237C27.3235 23.0237 27.3247 23.0169 27.3247 22.0737C27.3247 20.9897 27.3192 20.9821 26.8165 21.3658ZM28.2395 22.0737C28.2395 22.9927 28.2444 23.0237 28.3877 23.0237C28.5869 23.0237 29.3576 22.8212 29.5579 22.7163L29.7187 22.6321L29.3661 22.095C29.0349 21.5905 28.5375 21.1236 28.3312 21.1236C28.2604 21.1236 28.2395 21.3399 28.2395 22.0737ZM24.944 21.8861C24.8003 21.9967 24.7933 22.0231 24.8869 22.1007C24.9765 22.1751 25.0114 22.1547 25.1052 21.9731C25.2317 21.7285 25.183 21.7023 24.944 21.8861ZM30.4589 21.9731C30.5528 22.1547 30.5876 22.1751 30.6773 22.1007C30.7708 22.0231 30.7639 21.9967 30.6202 21.8861C30.3812 21.7023 30.3325 21.7285 30.4589 21.9731ZM23.8296 23.0766C23.4882 23.5888 23.3174 23.9705 23.1682 24.5537C22.9695 25.3307 22.9382 25.2843 23.6448 25.2608L24.2577 25.2405L24.342 24.5687C24.4167 23.9724 24.5187 23.4764 24.6223 23.2067C24.6485 23.1383 24.1778 22.7416 24.0713 22.7424C24.0608 22.7424 23.952 22.8928 23.8296 23.0766ZM31.2095 22.9131C31.082 23.0034 30.9647 23.0901 30.9489 23.1058C30.9333 23.1215 30.9684 23.2981 31.027 23.4982C31.0857 23.6983 31.1725 24.1722 31.22 24.5513L31.3065 25.2405L31.9194 25.2608C32.4032 25.2769 32.5324 25.2607 32.5324 25.1841C32.5324 24.9765 32.2519 24.0049 32.1084 23.7156C31.9336 23.3629 31.5284 22.7409 31.4768 22.7458C31.4574 22.7476 31.3371 22.8229 31.2095 22.9131ZM29.7174 23.7066C29.5819 23.7661 29.2019 23.8698 28.8729 23.937L28.2747 24.0591V24.6498V25.2405L29.2775 25.26L30.2804 25.2796L30.2805 25.0489C30.2807 24.7373 30.0661 23.5852 30.0092 23.5925C29.9842 23.5956 29.8529 23.6469 29.7174 23.7066ZM25.4267 24.0265C25.3827 24.2297 25.328 24.5948 25.305 24.8378L25.263 25.2797L26.2763 25.2601L27.2895 25.2405V24.6498V24.0591L26.6913 23.9358C26.3623 23.868 26.0039 23.7776 25.895 23.7348C25.5613 23.6039 25.5114 23.635 25.4267 24.0265ZM23.0693 26.5561C23.1694 27.1491 23.5815 28.1093 23.9316 28.566L24.0532 28.7246L24.3232 28.5324C24.5596 28.3643 24.5883 28.3137 24.5537 28.1275C24.532 28.0105 24.4667 27.6614 24.4088 27.3518C24.3508 27.0421 24.3023 26.67 24.301 26.5248L24.2985 26.2609H23.659H23.0194L23.0693 26.5561ZM25.3128 26.736C25.3395 26.9973 25.3958 27.3482 25.4379 27.5157C25.5047 27.7816 25.5334 27.8143 25.663 27.772C25.9415 27.681 26.7961 27.4684 27.0607 27.4245L27.3247 27.3805V26.8208V26.2609H26.2945H25.2644L25.3128 26.736ZM28.2395 26.8208V27.3805L28.5034 27.4214C28.7457 27.4589 29.6644 27.6902 29.9389 27.7827C30.0314 27.8139 30.0712 27.7461 30.1353 27.447C30.1795 27.2409 30.2347 26.8897 30.258 26.6667L30.3004 26.2609H29.2699H28.2395V26.8208ZM31.211 26.9119C31.1653 27.27 31.0847 27.7278 31.0319 27.9295L30.9359 28.296L31.2155 28.5207L31.4952 28.7455L31.6252 28.5764C31.8993 28.2201 32.2605 27.4423 32.3936 26.9218C32.47 26.6234 32.5324 26.3526 32.5324 26.3201C32.5324 26.2875 32.2538 26.2609 31.9132 26.2609H31.2941L31.211 26.9119ZM27.0432 28.4205C26.7173 28.4744 25.8468 28.7441 25.8468 28.7913C25.8468 28.8169 25.9596 29.026 26.0975 29.256C26.3802 29.7275 26.7276 30.1099 27.0419 30.2955L27.2543 30.421V29.3966C27.2543 28.8331 27.2463 28.3765 27.2367 28.3818C27.227 28.387 27.1399 28.4044 27.0432 28.4205ZM28.2851 28.4204C28.2601 28.4455 28.2395 28.8882 28.2395 29.4044C28.2395 30.1083 28.2615 30.3426 28.3275 30.3424C28.4936 30.3419 28.851 30.0764 29.0981 29.7698C29.3607 29.4441 29.7522 28.8015 29.7083 28.7682C29.6475 28.722 29.2393 28.585 28.9785 28.5233C28.3986 28.3861 28.3297 28.3758 28.2851 28.4204ZM24.8615 29.3576C24.7734 29.4146 24.7908 29.454 24.9671 29.5965C25.2261 29.8058 25.2568 29.7862 25.1112 29.5047C24.9833 29.2572 25.0007 29.2675 24.8615 29.3576ZM30.4551 29.5006C30.3318 29.7391 30.3561 29.7551 30.5995 29.5956C30.7983 29.4654 30.818 29.3897 30.668 29.3322C30.5995 29.3059 30.5254 29.3645 30.4551 29.5006ZM37.9909 31.5958C37.7992 31.6411 37.7723 31.6899 37.6154 32.278C37.5224 32.6263 37.3937 32.9632 37.3293 33.0266C37.2649 33.09 36.9002 33.2737 36.5187 33.4347L35.8251 33.7276L35.4631 33.5395C35.264 33.4361 34.9659 33.2729 34.8008 33.1769C34.5217 33.0145 34.4889 33.0099 34.334 33.1114C34.1281 33.2463 33.0387 34.3378 32.9562 34.4918C32.9136 34.5715 32.9988 34.7861 33.2484 35.2276C33.4776 35.633 33.5882 35.903 33.5649 35.9997C33.479 36.3568 33.0186 37.3549 32.8926 37.4573C32.8166 37.5191 32.4695 37.6432 32.1213 37.733L31.4882 37.8962L31.4405 38.5355C31.4143 38.887 31.4196 39.3957 31.4524 39.6658L31.5119 40.1569L32.1605 40.3343C32.5172 40.4319 32.8604 40.5631 32.923 40.6259C33.0199 40.7229 33.4437 41.6565 33.5649 42.0398C33.5869 42.1093 33.4511 42.4422 33.2444 42.8255L32.8858 43.4907L33.2359 43.9047C33.5483 44.2741 34.1834 44.8682 34.4119 45.0048C34.4601 45.0336 34.7777 44.8974 35.1429 44.6916L35.7888 44.3275L36.1487 44.4841C36.3466 44.5702 36.6511 44.6894 36.8252 44.749C37.295 44.9098 37.404 45.0541 37.6005 45.7742L37.7775 46.4233L38.3086 46.4855C38.6007 46.5197 39.11 46.5252 39.4405 46.4977L40.0414 46.4476L40.2359 45.7512C40.3429 45.3682 40.4664 45.0265 40.5103 44.9917C40.5543 44.957 40.9061 44.7946 41.2921 44.6309L41.9939 44.3333L42.3478 44.5133C42.5423 44.6123 42.8499 44.7781 43.0314 44.8816L43.3613 45.0698L43.6417 44.8477C43.9973 44.566 44.9183 43.5829 44.9183 43.4849C44.9183 43.4443 44.7758 43.164 44.6016 42.862C44.4275 42.56 44.285 42.2442 44.285 42.1601C44.285 41.9346 44.7701 40.7403 44.912 40.6162C44.9792 40.5575 45.3212 40.4355 45.672 40.345L46.3098 40.1806L46.3522 39.924C46.4073 39.5907 46.4084 38.3736 46.3538 38.1008C46.3139 37.9014 46.2756 37.8796 45.7029 37.7302C44.9077 37.5229 44.8145 37.4582 44.6689 37.0134C44.6019 36.8087 44.4882 36.5237 44.4161 36.3801C44.2219 35.9934 44.2514 35.8132 44.6108 35.1901C44.9088 34.6735 44.9287 34.6104 44.8439 34.4521C44.7361 34.2505 43.4785 33.0169 43.3809 33.0169C43.3445 33.0169 43.0615 33.1594 42.7518 33.3336C42.4421 33.5078 42.1104 33.6503 42.0149 33.6503C41.9195 33.6503 41.639 33.5597 41.3917 33.4489C41.1445 33.3382 40.8559 33.2271 40.7507 33.2019C40.5141 33.1452 40.4359 33.0027 40.2294 32.2522C40.1398 31.9267 40.0499 31.6438 40.0295 31.6234C39.9713 31.5652 38.2207 31.5414 37.9909 31.5958ZM37.8961 34.8783C36.7286 35.161 35.6023 36.0779 35.0822 37.169C34.746 37.8743 34.6433 38.3173 34.6447 39.055C34.6484 41.0038 35.9786 42.7043 37.8805 43.1915C38.5073 43.3521 39.7124 43.2984 40.3245 43.0825C41.5159 42.6624 42.5454 41.6227 42.9611 40.4196C43.1005 40.016 43.1234 39.8132 43.1212 38.9988C43.1188 38.1445 43.1001 38.002 42.9354 37.586C42.6789 36.9379 42.398 36.512 41.8878 35.9979C41.3794 35.4857 40.6001 35.0461 39.9137 34.8843C39.3741 34.7571 38.4084 34.7543 37.8961 34.8783ZM37.9864 35.8563C36.5601 36.3263 35.6289 37.5814 35.6289 39.034C35.6289 40.3562 36.3729 41.4827 37.6373 42.0748C38.0234 42.2556 38.1241 42.2712 38.9013 42.2712C39.7281 42.2712 39.7568 42.2658 40.2736 42.0159C40.9068 41.7098 41.2992 41.3814 41.6331 40.8783C42.371 39.7666 42.371 38.3014 41.6331 37.1896C41.2988 36.686 40.9062 36.3577 40.2736 36.0529C39.7831 35.8166 39.6935 35.7973 39.0069 35.781C38.5385 35.7699 38.1648 35.7974 37.9864 35.8563ZM18.9505 38.2774C18.9507 39.7449 18.98 40.8278 19.0237 40.9851C19.1351 41.3862 19.5065 41.8198 19.927 42.0394L20.3032 42.236H26.3785C29.8588 42.236 32.4702 42.2092 32.4925 42.1733C32.5376 42.1003 32.2645 41.4484 32.1607 41.3813C32.122 41.3563 31.8178 41.2643 31.4845 41.1768C30.6895 40.9681 30.5837 40.8687 30.5258 40.2753C30.5007 40.0184 30.4652 39.754 30.4469 39.688C30.4164 39.5779 30.186 39.5662 27.6746 39.5473C24.9783 39.5269 24.9333 39.5242 24.7843 39.3751C24.6002 39.191 24.5888 38.902 24.7581 38.7149C24.8786 38.5818 24.9882 38.5765 27.6467 38.5765H30.4099L30.447 38.383C30.4674 38.2766 30.5045 37.9939 30.5293 37.7548C30.5593 37.4663 30.6179 37.2808 30.7037 37.2032C30.7748 37.1389 31.1387 36.9967 31.5124 36.8874C31.8861 36.778 32.2011 36.6779 32.2122 36.6649C32.297 36.5665 32.5233 35.9445 32.4925 35.8946C32.4702 35.8586 29.5783 35.8319 25.7019 35.8319H18.9501L18.9505 38.2774Z" fill="#5F56AF"/>
</svg>
