<svg width="54" height="53" viewBox="0 0 54 53" fill="none" xmlns="http://www.w3.org/2000/svg">
<circle cx="26.9105" cy="26.3636" r="26.3636" fill="#5F56AF"/>
<circle cx="26.9105" cy="26.3636" r="25.9091" stroke="#5F56AF" stroke-opacity="0.5" stroke-width="0.909091"/>
<path fill-rule="evenodd" clip-rule="evenodd" d="M22.4128 12.0325C22.0696 12.1563 21.7853 12.359 21.6031 12.6096C21.2245 13.1305 21.2414 12.9774 21.2225 16.0544L21.2052 18.8595L18.5445 18.876L15.8838 18.8926L15.5093 19.07C14.8288 19.3926 14.3614 20.0076 14.2418 20.7382C14.1606 21.234 14.166 34.4014 14.2476 34.8471C14.4088 35.728 15.033 36.4044 15.8907 36.6278C16.1725 36.7012 16.8248 36.7148 20.0639 36.7148H23.9031L24.1135 37.2045C24.5027 38.1107 24.5056 38.5919 24.1257 39.2773L23.9343 39.6228L23.2489 39.6369C22.8719 39.6447 22.5036 39.665 22.4303 39.6821C22.1413 39.7495 22.0933 40.314 22.3642 40.459C22.5076 40.5357 31.3146 40.5357 31.458 40.459C31.7068 40.3258 31.6895 39.7874 31.4331 39.689C31.3795 39.6684 31.0204 39.6515 30.635 39.6515L29.9343 39.6514L29.7822 39.4067C29.1965 38.4644 29.184 37.8579 29.7327 37.0028L29.9151 36.7186L33.898 36.7023L37.8809 36.686L38.2118 36.5524C38.8921 36.2777 39.4546 35.5603 39.5759 34.8126C39.6581 34.3058 39.6592 21.283 39.5771 20.764C39.4567 20.0032 39.0087 19.3996 38.3236 19.075L37.9385 18.8926L35.2777 18.876L32.6171 18.8595L32.6001 16.0544C32.5834 13.2883 32.5814 13.2458 32.4551 12.9902C32.2625 12.6004 32.0247 12.343 31.6823 12.1533L31.3739 11.9825L26.9975 11.9699C23.5169 11.9599 22.5785 11.9727 22.4128 12.0325ZM22.5923 12.9457C22.2337 13.1268 22.1319 13.35 22.1318 13.9547L22.1316 14.4298H26.9111H31.6906V13.9375C31.6906 13.3773 31.6185 13.185 31.3316 12.9804L31.1435 12.8462L26.9975 12.8306L22.8514 12.8149L22.5923 12.9457ZM22.1316 20.7928V26.2345H26.9111H31.6906V20.7928V15.3511H26.9111H22.1316V20.7928ZM26.1906 17.6397C25.3024 17.9569 24.7258 18.6021 24.5441 19.4821C24.474 19.8213 24.464 19.8352 24.2661 19.8721C23.8976 19.9405 23.5125 20.1425 23.3189 20.3687C22.7258 21.0615 22.9756 22.1641 23.8304 22.6262C24.0577 22.749 24.0988 22.7507 26.9111 22.7507C29.741 22.7507 29.7633 22.7498 29.9992 22.6235C30.3255 22.449 30.6812 22.0287 30.7695 21.7134C30.8746 21.338 30.8142 20.8221 30.6281 20.5046C30.4463 20.1942 30.0069 19.919 29.6077 19.8653L29.3386 19.8291L29.2994 19.5437C29.2417 19.1243 28.9175 18.5218 28.5794 18.2056C28.4203 18.0567 28.1158 17.8533 27.9029 17.7537C27.5754 17.6003 27.4359 17.5696 26.9975 17.5544C26.6093 17.541 26.4068 17.5624 26.1906 17.6397ZM26.5045 18.4789C26.2023 18.5636 25.9483 18.7308 25.7331 18.9866C25.4879 19.278 25.4011 19.5455 25.401 20.0102C25.4009 20.3807 25.3831 20.4546 25.2661 20.5717C25.1588 20.6789 25.069 20.7065 24.8263 20.7068C24.183 20.7074 23.8905 20.8906 23.8905 21.2928C23.8905 21.4813 23.9253 21.5555 24.0774 21.6913L24.2641 21.8581H26.9329H29.6018L29.7523 21.7077C30.0592 21.4007 29.9837 20.9003 29.6107 20.7703C29.51 20.7352 29.2619 20.7065 29.0593 20.7065C28.7499 20.7065 28.6694 20.6849 28.5562 20.5717C28.4381 20.4536 28.4217 20.3831 28.4241 20.0045C28.4263 19.6714 28.3976 19.5114 28.2991 19.308C28.1553 19.011 27.7979 18.6612 27.519 18.5448C27.2342 18.4257 26.7958 18.3973 26.5045 18.4789ZM16.0405 19.8122C15.6826 19.9239 15.4268 20.1437 15.2563 20.4858L15.1064 20.7867V26.4761V32.1657H26.9111H38.7158V26.4761V20.7867L38.5659 20.4858C38.4835 20.3204 38.3292 20.1188 38.223 20.0378C37.8355 19.7422 37.6852 19.7275 35.0501 19.7275H32.6119V20.342C32.6119 20.8348 32.6309 20.9775 32.7079 21.0626C32.8303 21.1978 32.8314 21.4807 32.71 21.6148C32.6258 21.708 32.6145 22.0839 32.5997 25.2866L32.5831 28.8546L32.4416 29.1401C32.2611 29.5042 31.9255 29.8399 31.584 29.9977C31.3175 30.1209 31.2968 30.1214 26.9111 30.1214H22.5059L22.2262 29.9837C21.8541 29.8005 21.5737 29.5105 21.39 29.1187L21.2391 28.797L21.2226 25.2623C21.2086 22.2719 21.1931 21.7091 21.1218 21.6073C21.0125 21.4513 21.0137 21.1435 21.1239 21.052C21.191 20.9963 21.2103 20.8405 21.2103 20.3539V19.7275L18.7486 19.7314C16.865 19.7343 16.229 19.7533 16.0405 19.8122ZM17.927 20.9837C17.8347 21.0584 17.7903 21.169 17.771 21.3724C17.7346 21.7551 17.8933 21.9733 18.2084 21.9733C18.5047 21.9733 18.8498 21.6305 18.8485 21.3375C18.8474 21.0889 18.8027 21.0176 18.5997 20.9404C18.3574 20.8483 18.0715 20.8667 17.927 20.9837ZM19.4618 20.9986C19.3457 21.0898 19.31 21.169 19.31 21.3352C19.31 21.6668 19.4623 21.7718 19.9435 21.7718C20.4246 21.7718 20.5769 21.6668 20.5769 21.3352C20.5769 21.0219 20.3787 20.8792 19.9435 20.8792C19.6968 20.8792 19.5751 20.9093 19.4618 20.9986ZM33.3867 21.0206C33.2151 21.1921 33.2022 21.4466 33.3555 21.6358C33.4526 21.7558 33.5139 21.7718 33.8787 21.7718C34.26 21.7718 34.3025 21.7593 34.4308 21.6102C34.6137 21.3975 34.6062 21.2522 34.4015 21.0475C34.2521 20.8982 34.1935 20.8792 33.8806 20.8792C33.583 20.8792 33.506 20.9013 33.3867 21.0206ZM35.1142 21.0206C34.9116 21.2232 34.9276 21.4645 35.16 21.7103C35.3889 21.9523 35.5867 22.0342 35.7738 21.9644C35.9838 21.8861 36.0631 21.7426 36.0651 21.4381C36.0677 21.0588 35.8925 20.8792 35.5199 20.8792C35.316 20.8792 35.2233 20.9115 35.1142 21.0206ZM18.0066 22.3286C17.7365 22.4594 17.656 23.0984 17.8746 23.3763C18.0206 23.5619 18.3107 23.5809 18.5119 23.418C18.6302 23.3222 18.6478 23.258 18.6478 22.9236C18.6478 22.5738 18.6332 22.5266 18.4862 22.4002C18.3128 22.251 18.2011 22.2344 18.0066 22.3286ZM35.3606 22.376C35.2162 22.4897 35.2032 22.5328 35.2032 22.8989C35.2032 23.221 35.2254 23.3199 35.3184 23.4129C35.4788 23.5733 35.7823 23.5645 35.9418 23.3948C36.1065 23.2195 36.1216 22.6277 35.9662 22.4405C35.8125 22.2554 35.5497 22.2274 35.3606 22.376ZM17.8966 23.9574C17.7775 24.0764 17.7553 24.1538 17.7553 24.4494C17.7553 24.7451 17.7775 24.8224 17.8966 24.9415C18.0695 25.1144 18.3438 25.1278 18.5006 24.9709C18.7417 24.7298 18.7214 24.1352 18.4652 23.9336C18.2659 23.777 18.0688 23.7852 17.8966 23.9574ZM35.3549 23.9354C35.2178 24.0432 35.2032 24.0921 35.2032 24.4435C35.2032 24.7756 35.2227 24.8507 35.3365 24.9577C35.5135 25.124 35.7813 25.1204 35.9418 24.9496C36.0427 24.8421 36.067 24.7466 36.067 24.4575C36.067 24.1533 36.0454 24.0771 35.9256 23.9574C35.7529 23.7846 35.5562 23.777 35.3549 23.9354ZM17.9123 25.4859C17.7893 25.5827 17.6787 25.6011 17.2199 25.6011C16.7683 25.6011 16.6505 25.6201 16.538 25.7111L16.402 25.8211L16.3851 27.4037L16.3681 28.9862L16.5095 29.1507L16.651 29.3153L18.138 29.3325C18.9558 29.342 19.6829 29.3352 19.7538 29.3174C19.8247 29.2997 19.9352 29.2287 19.9994 29.1597C20.1109 29.0402 20.1162 28.962 20.1162 27.4591V25.8838L19.9748 25.7425C19.8421 25.6097 19.7955 25.6011 19.2064 25.6011C18.6524 25.6011 18.5671 25.5877 18.4751 25.4859C18.4178 25.4226 18.3006 25.3708 18.2148 25.3708C18.1289 25.3708 17.9929 25.4226 17.9123 25.4859ZM35.3602 25.4859C35.235 25.5845 35.1266 25.6011 34.6103 25.6011C34.102 25.6011 33.9853 25.6185 33.8708 25.7111L33.7348 25.8211L33.7178 27.4037L33.7009 28.9862L33.8423 29.1507L33.9838 29.3153L35.4708 29.3325C36.2886 29.342 37.0157 29.3352 37.0866 29.3174C37.1575 29.2997 37.268 29.2287 37.3322 29.1597C37.4436 29.0402 37.449 28.962 37.449 27.4591V25.8838L37.3076 25.7425C37.1771 25.6119 37.1238 25.6011 36.6113 25.6011C36.1436 25.6011 36.0333 25.583 35.9099 25.4859C35.8294 25.4226 35.7057 25.3708 35.6351 25.3708C35.5644 25.3708 35.4408 25.4226 35.3602 25.4859ZM17.2946 27.4424V28.4227H18.2749H19.2552L19.2394 27.4582L19.2237 26.4937L18.2591 26.4779L17.2946 26.4621V27.4424ZM34.6274 27.4424V28.4227H35.6077H36.588L36.5722 27.4582L36.5564 26.4937L35.5919 26.4779L34.6274 26.4621V27.4424ZM22.1316 27.891C22.1316 28.7284 22.2016 28.9419 22.5412 29.1425C22.7314 29.2548 22.8397 29.2577 26.9111 29.2577C30.9825 29.2577 31.0908 29.2548 31.281 29.1425C31.6207 28.9419 31.6906 28.7284 31.6906 27.891V27.1559H26.9111H22.1316V27.891ZM26.9111 27.6323C26.6944 27.74 26.5469 28.078 26.6259 28.2858C26.7668 28.6565 27.094 28.7977 27.4207 28.6288C27.6331 28.5189 27.7173 28.3787 27.7173 28.1348C27.7173 27.8939 27.6334 27.7508 27.4305 27.6459C27.2273 27.5409 27.1015 27.5375 26.9111 27.6323ZM15.1077 33.9076C15.1091 34.8942 15.1631 35.095 15.5169 35.4306C15.93 35.8227 15.0129 35.7936 26.9237 35.7922C37.2322 35.791 37.7183 35.7863 37.9385 35.686C38.2347 35.5512 38.576 35.1717 38.6541 34.8906C38.6877 34.7696 38.7153 34.3013 38.7155 33.85L38.7158 33.0294H26.9111H15.1064L15.1077 33.9076ZM24.9242 36.8156C25.2646 37.6561 25.2637 37.6522 25.2666 38.2984C25.2691 38.8606 25.2521 38.9723 25.1154 39.2917L24.9613 39.6516H26.9115H28.8618L28.6954 39.2847C28.3421 38.5056 28.341 37.8301 28.6918 37.0804L28.8629 36.7148H26.8731C25.0009 36.7148 24.8858 36.7207 24.9242 36.8156Z" fill="white"/>
</svg>
