<svg width="54" height="54" viewBox="0 0 54 54" fill="none" xmlns="http://www.w3.org/2000/svg">
<circle cx="27.1839" cy="27.2718" r="26.3636" fill="#5F56AF"/>
<circle cx="27.1839" cy="27.2718" r="25.9091" stroke="#5F56AF" stroke-opacity="0.5" stroke-width="0.909091"/>
<path fill-rule="evenodd" clip-rule="evenodd" d="M19.1555 12.0092C17.9173 12.1348 16.8656 12.6461 15.9552 13.565C15.458 14.0668 15.2988 14.2821 15.0378 14.8052C14.4084 16.0668 14.4579 14.9856 14.4579 27.4654C14.4579 38.2617 14.4601 38.4469 14.5927 38.9655C15.0758 40.8545 16.4861 42.2696 18.4226 42.8084L18.9556 42.9567H27.1848H35.4139L35.9469 42.8078C37.8934 42.2641 39.292 40.8609 39.7768 38.9655C39.9094 38.4469 39.9116 38.2617 39.9116 27.4654C39.9116 16.669 39.9094 16.4839 39.7768 15.9653C39.3868 14.4405 38.3878 13.2002 37.0182 12.5406C35.776 11.9424 36.4557 11.9834 27.5512 11.9684C23.2268 11.9611 19.4487 11.9794 19.1555 12.0092ZM18.6008 12.9701C17.4514 13.2482 16.3169 14.1549 15.8016 15.2073C15.4449 15.9358 15.3242 16.4273 15.3242 17.1513V17.737H27.1848H39.0454V17.1513C39.0454 16.4273 38.9246 15.9358 38.5679 15.2073C38.1831 14.4213 37.4969 13.7351 36.7109 13.3503C35.671 12.8411 36.3015 12.8722 27.1541 12.8785C20.7079 12.883 18.8798 12.9026 18.6008 12.9701ZM19.0556 14.0416C18.7479 14.1796 18.4748 14.445 18.3096 14.7661C18.1054 15.1633 18.1589 15.8359 18.4246 16.2131C18.6968 16.5997 19.1042 16.8042 19.6018 16.8042C21.0575 16.8042 21.5984 14.9651 20.3799 14.1588C20.04 13.9338 19.4184 13.8788 19.0556 14.0416ZM19.2192 14.9688C18.8451 15.3429 19.081 15.938 19.6033 15.938C19.9478 15.938 20.1883 15.7051 20.1883 15.3716C20.1883 15.2064 20.1377 15.0817 20.0248 14.9688C19.9119 14.8558 19.7872 14.8052 19.622 14.8052C19.4568 14.8052 19.332 14.8558 19.2192 14.9688ZM25.8158 15.102C25.7258 15.192 25.6522 15.2989 25.6522 15.3396C25.6522 15.4423 25.7902 15.6946 25.8788 15.7537C25.9191 15.7806 26.5068 15.8026 27.1848 15.8026C27.8627 15.8026 28.4504 15.7806 28.4908 15.7537C28.5793 15.6946 28.7173 15.4423 28.7173 15.3396C28.7173 15.2989 28.6437 15.192 28.5537 15.102C28.3921 14.9404 28.3758 14.9385 27.1848 14.9385C25.9938 14.9385 25.9774 14.9404 25.8158 15.102ZM15.3242 27.5986V36.594H27.1848H39.0454V27.5986V18.6033H27.1848H15.3242V27.5986ZM26.5391 19.4659C25.9784 19.7205 25.4648 20.305 25.0157 21.1997C24.824 21.5817 24.7529 21.6688 24.6641 21.6304C23.7764 21.2466 22.576 21.1238 21.976 21.3554C21.352 21.5962 20.9213 22.2986 20.9213 23.0754C20.9213 23.4701 21.0734 24.2065 21.2521 24.6765C21.3266 24.8727 21.3877 25.0396 21.3877 25.0472C21.3877 25.0549 21.1746 25.1682 20.914 25.299C20.0072 25.7541 19.4324 26.2662 19.1747 26.8488C18.9916 27.2629 19.0355 27.8721 19.2785 28.2868C19.537 28.7279 20.1073 29.2092 20.7884 29.5608C21.2731 29.8112 21.3884 29.8982 21.3525 29.9864C21.1819 30.406 21.053 30.8584 20.9797 31.294C20.7179 32.8525 21.6007 33.8551 23.0995 33.7016C23.465 33.6641 24.3441 33.4387 24.6637 33.3005C24.7528 33.2619 24.8368 33.373 25.091 33.865C26.2821 36.1713 28.0874 36.1713 29.2786 33.865C29.5327 33.373 29.6167 33.2619 29.7058 33.3005C30.2212 33.5234 30.9392 33.6797 31.4826 33.6872C32.1927 33.6971 32.496 33.606 32.8679 33.271C33.5665 32.6418 33.6197 31.4687 33.017 29.9864C32.9811 29.8982 33.0969 29.811 33.5844 29.5592C35.8907 28.3681 35.8907 26.5627 33.5844 25.3716C33.0924 25.1175 32.9813 25.0334 33.0199 24.9443C33.2497 24.4129 33.4026 23.7137 33.4085 23.1676C33.4161 22.4575 33.3241 22.1527 32.9904 21.7822C32.3612 21.0837 31.188 21.0304 29.7058 21.6332C29.6176 21.669 29.5304 21.5532 29.2786 21.0657C28.5431 19.6419 27.4971 19.031 26.5391 19.4659ZM26.7463 20.328C26.4561 20.5051 26.1584 20.8875 25.8509 21.4786C25.705 21.7591 25.5856 22.0052 25.5856 22.0256C25.5856 22.0459 25.728 22.1445 25.9021 22.2447C26.0762 22.3449 26.4361 22.5721 26.702 22.7495L27.1854 23.0722L27.5682 22.8154C27.7788 22.6741 28.1385 22.446 28.3675 22.3085C28.5966 22.171 28.7839 22.0428 28.7839 22.0235C28.7839 21.9104 28.2069 20.908 28.0079 20.6756C27.5995 20.1984 27.1583 20.0768 26.7463 20.328ZM26.9849 21.2882C26.7769 21.3923 26.7181 21.7919 26.8861 21.9599C27.0238 22.0976 27.3437 22.0995 27.4799 21.9635C27.6049 21.8384 27.6187 21.4454 27.5013 21.3515C27.3471 21.2282 27.1525 21.2043 26.9849 21.2882ZM22.3268 22.1509C22.202 22.197 22.0371 22.3195 21.9604 22.4231C21.7644 22.6877 21.7697 23.4616 21.9718 24.1004C22.199 24.8187 22.1249 24.7852 23.0319 24.5811C23.4653 24.4836 23.8795 24.3952 23.9523 24.3846C24.0252 24.3741 24.0935 24.3058 24.104 24.233C24.1146 24.1601 24.203 23.7459 24.3004 23.3125C24.5037 22.4092 24.5334 22.4789 23.8531 22.2636C23.3055 22.0901 22.6268 22.0401 22.3268 22.1509ZM30.7496 22.1943C30.1634 22.3538 29.9167 22.466 29.9167 22.5732C29.9167 22.6194 29.9899 22.9669 30.0795 23.3455C30.169 23.724 30.2515 24.1084 30.2627 24.1997C30.2758 24.3059 30.3311 24.3725 30.4164 24.3847C30.4897 24.3952 30.9043 24.4836 31.3376 24.5811C32.2409 24.7843 32.1712 24.814 32.3866 24.1338C32.6785 23.2117 32.6158 22.4909 32.221 22.2323C31.9602 22.0613 31.3011 22.0444 30.7496 22.1943ZM22.787 23.0676C22.5249 23.3297 22.7145 23.8006 23.082 23.8006C23.263 23.8006 23.52 23.5216 23.52 23.3252C23.52 23.1483 23.2829 22.9344 23.0869 22.9344C22.9952 22.9344 22.8603 22.9943 22.787 23.0676ZM25.1251 23.5391C25.0485 23.8717 24.9859 24.1647 24.9859 24.1903C24.9859 24.2158 25.1737 24.221 25.4033 24.2017C25.7666 24.1712 25.8615 24.1326 26.1362 23.9029C26.3098 23.7578 26.4518 23.6333 26.4518 23.6263C26.4518 23.592 25.3845 22.9344 25.3287 22.9344C25.2933 22.9344 25.2017 23.2065 25.1251 23.5391ZM28.4508 23.2676C28.1759 23.4475 27.951 23.6092 27.951 23.627C27.951 23.6448 28.0843 23.7734 28.2471 23.9128C28.5046 24.1332 28.5982 24.1708 28.9654 24.2017L29.3876 24.237L29.3463 24.0355C29.1807 23.227 29.0961 22.9348 29.0285 22.9374C28.9856 22.9391 28.7256 23.0877 28.4508 23.2676ZM30.9828 23.0676C30.7968 23.2536 30.8141 23.4965 31.0251 23.6625C31.2459 23.8362 31.4123 23.8376 31.5825 23.6673C31.8464 23.4034 31.6545 22.9344 31.2827 22.9344C31.191 22.9344 31.0561 22.9943 30.9828 23.0676ZM25.4345 25.7173L24.7194 26.4348V27.4676V28.5005L25.4367 29.2156L26.1542 29.9308H27.187H28.2198L28.935 29.2134L29.6502 28.496V27.4632V26.4303L28.9328 25.7151L28.2154 25H27.1826H26.1497L25.4345 25.7173ZM23.7532 25.2991C23.7165 25.3112 23.4541 25.3733 23.1702 25.437C22.8862 25.5008 22.6537 25.5801 22.6537 25.6133C22.6537 25.6664 23.3129 26.7324 23.3457 26.7324C23.3527 26.7324 23.4772 26.5904 23.6223 26.4169C23.8519 26.1421 23.8906 26.0472 23.9211 25.6839C23.9548 25.2816 23.9361 25.2386 23.7532 25.2991ZM30.4483 25.6819C30.479 26.0479 30.5172 26.1416 30.7485 26.4183L31.0134 26.7353L31.1267 26.5851C31.2783 26.3842 31.6324 25.7936 31.6839 25.656C31.7249 25.5465 31.6026 25.5062 30.6147 25.3038L30.4131 25.2625L30.4483 25.6819ZM21.1788 26.1385C19.4882 27.0297 19.4919 27.9117 21.1898 28.795C21.4748 28.9433 21.7246 29.0646 21.7449 29.0646C21.7653 29.0646 21.8639 28.9222 21.9641 28.7481C22.0643 28.5739 22.2913 28.2142 22.4686 27.9485L22.7911 27.4654L22.4686 26.9823C22.2913 26.7166 22.0643 26.3568 21.9641 26.1827C21.8639 26.0086 21.7607 25.8671 21.7348 25.8683C21.7088 25.8694 21.4586 25.991 21.1788 26.1385ZM32.3417 26.2827C32.2041 26.5117 31.976 26.8714 31.8348 27.0819L31.578 27.4647L31.9006 27.9481C32.0781 28.214 32.3052 28.5739 32.4054 28.7481C32.5056 28.9222 32.6022 29.0646 32.62 29.0646C32.6948 29.0646 33.5037 28.6319 33.7685 28.4502C33.9264 28.3419 34.1437 28.1315 34.2516 27.9827C34.7148 27.3433 34.3367 26.7092 33.1334 26.1071C32.8686 25.9746 32.6384 25.8662 32.6218 25.8662C32.6052 25.8662 32.4791 26.0536 32.3417 26.2827ZM21.0516 27.1691C21.0044 27.226 20.9657 27.3594 20.9657 27.4654C20.9657 27.731 21.0972 27.8652 21.3578 27.8652C21.6285 27.8652 21.7875 27.7173 21.7875 27.4654C21.7875 27.3607 21.7404 27.2279 21.6828 27.1703C21.5482 27.0357 21.1629 27.035 21.0516 27.1691ZM26.8896 27.1703C26.8321 27.2279 26.785 27.3607 26.785 27.4654C26.785 27.7082 26.942 27.8652 27.1848 27.8652C27.4276 27.8652 27.5846 27.7082 27.5846 27.4654C27.5846 27.2226 27.4276 27.0656 27.1848 27.0656C27.0801 27.0656 26.9473 27.1127 26.8896 27.1703ZM32.6867 27.1703C32.6291 27.2279 32.582 27.3607 32.582 27.4654C32.582 27.5701 32.6291 27.7029 32.6867 27.7605C32.8154 27.8892 33.1137 27.8963 33.28 27.7747C33.4244 27.6691 33.4461 27.3235 33.3179 27.1691C33.2066 27.035 32.8213 27.0357 32.6867 27.1703ZM22.9933 28.7277C22.8065 29.0189 22.6537 29.2843 22.6537 29.3174C22.6537 29.3681 22.9687 29.4556 23.8216 29.6417C23.9489 29.6695 23.9547 29.647 23.9214 29.2504C23.8906 28.8831 23.8525 28.7893 23.6223 28.5139C23.4772 28.3403 23.3527 28.1983 23.3457 28.1983C23.3387 28.1983 23.1801 28.4366 22.9933 28.7277ZM30.7473 28.5139C30.5171 28.7893 30.4789 28.8831 30.4482 29.2504C30.4148 29.647 30.4206 29.6695 30.5479 29.6417C31.4008 29.4556 31.7158 29.3681 31.7158 29.3174C31.7158 29.2643 31.0566 28.1983 31.0238 28.1983C31.0168 28.1983 30.8923 28.3403 30.7473 28.5139ZM31.7824 30.2418C31.6175 30.2923 31.2127 30.3886 30.8829 30.4557C30.3972 30.5545 30.2796 30.6016 30.2647 30.704C30.2546 30.7735 30.1666 31.1849 30.0691 31.6183C29.8659 32.5215 29.836 32.4514 30.5164 32.6678C31.1477 32.8685 31.8213 32.9034 32.1156 32.7505C32.4697 32.5666 32.598 32.261 32.5579 31.6965C32.5234 31.2093 32.3145 30.4381 32.1677 30.256C32.092 30.1621 32.048 30.1605 31.7824 30.2418ZM22.092 30.4717C21.6479 31.5815 21.711 32.4685 22.254 32.7505C22.5483 32.9034 23.2218 32.8685 23.8531 32.6678C24.5335 32.4514 24.5037 32.5215 24.3004 31.6183C24.203 31.1849 24.1146 30.7704 24.1041 30.6971C24.0919 30.6117 24.0253 30.5564 23.9191 30.5433C23.8278 30.5321 23.4434 30.4496 23.0649 30.3601C22.6863 30.2705 22.3372 30.1973 22.2892 30.1973C22.2411 30.1973 22.1524 30.3208 22.092 30.4717ZM25.0232 30.8953C25.1835 31.6776 25.2717 31.9964 25.328 31.9964C25.3843 31.9964 26.4518 31.3391 26.4518 31.3044C26.4518 31.2974 26.3098 31.1729 26.1362 31.0279C25.8611 30.7979 25.7669 30.7596 25.4013 30.7289L24.9819 30.6937L25.0232 30.8953ZM28.9496 30.7238C28.6102 30.7576 28.5007 30.804 28.2333 31.0277C28.0597 31.1729 27.9177 31.2974 27.9177 31.3044C27.9177 31.3391 28.9852 31.9964 29.0415 31.9964C29.0982 31.9964 29.1834 31.6876 29.3497 30.8803C29.3742 30.7612 29.3844 30.6683 29.3722 30.6739C29.3602 30.6795 29.17 30.702 28.9496 30.7238ZM22.787 31.2634C22.5231 31.5274 22.715 31.9964 23.0869 31.9964C23.2962 31.9964 23.52 31.7786 23.52 31.5749C23.52 31.3832 23.2616 31.1302 23.0659 31.1302C22.9858 31.1302 22.8603 31.1901 22.787 31.2634ZM30.9944 31.2844C30.9147 31.3692 30.8496 31.5041 30.8496 31.5842C30.8496 31.7797 31.0772 31.9964 31.2827 31.9964C31.3743 31.9964 31.5092 31.9364 31.5825 31.8631C31.842 31.6037 31.6557 31.1302 31.2943 31.1302C31.209 31.1302 31.0741 31.1996 30.9944 31.2844ZM26.8183 32.1039C26.635 32.2323 26.2828 32.4569 26.0353 32.6029C25.7879 32.749 25.5856 32.8851 25.5856 32.9053C25.5856 33.02 26.1609 34.0207 26.3616 34.2552C27.0965 35.1138 27.8391 34.8094 28.5752 33.3476C28.69 33.1196 28.7839 32.9194 28.7839 32.9027C28.7839 32.8859 28.5966 32.7597 28.3675 32.6223C28.1385 32.4847 27.7803 32.2577 27.5716 32.1177C27.3629 31.9777 27.183 31.8648 27.1718 31.8668C27.1606 31.8688 27.0015 31.9755 26.8183 32.1039ZM26.8896 32.9673C26.7551 33.1019 26.7544 33.4872 26.8884 33.5985C27.0429 33.7267 27.3885 33.7051 27.4941 33.5607C27.6157 33.3943 27.6085 33.096 27.4799 32.9673C27.4222 32.9097 27.2894 32.8626 27.1848 32.8626C27.0801 32.8626 26.9473 32.9097 26.8896 32.9673ZM15.3242 37.9127C15.3242 39.3776 16.3041 40.9172 17.6586 41.5805C18.6974 42.0892 18.0741 42.0579 27.1848 42.0579C36.2954 42.0579 35.6721 42.0892 36.7109 41.5805C38.0655 40.9172 39.0454 39.3776 39.0454 37.9127V37.4603H27.1848H15.3242V37.9127ZM26.6537 38.4637C25.5848 38.913 25.4271 40.3571 26.3742 41.0222C26.6358 41.2058 26.7119 41.225 27.1787 41.225C27.6285 41.225 27.7292 41.2018 27.9689 41.0432C28.824 40.4774 28.8392 39.2218 27.9981 38.6313C27.7597 38.4639 27.6378 38.4275 27.2652 38.4125C27.0194 38.4026 26.7442 38.4257 26.6537 38.4637ZM26.8458 39.3448C26.5507 39.5713 26.5162 39.9003 26.7576 40.1871C26.8948 40.3502 26.9822 40.3921 27.1848 40.3921C27.3873 40.3921 27.4747 40.3502 27.6119 40.1871C27.8004 39.9631 27.8262 39.7955 27.707 39.5714C27.5893 39.3506 27.4418 39.2636 27.1848 39.2636C27.0565 39.2636 26.904 39.3001 26.8458 39.3448ZM19.5369 39.4964C19.3328 39.6393 19.3328 40.0122 19.5369 40.1551C19.6578 40.2398 19.9084 40.2588 20.9028 40.2588C22.0319 40.2588 22.1304 40.2491 22.254 40.1256C22.3272 40.0523 22.3872 39.9173 22.3872 39.8257C22.3872 39.7341 22.3272 39.5992 22.254 39.5259C22.1304 39.4023 22.0319 39.3926 20.9028 39.3926C19.9084 39.3926 19.6578 39.4117 19.5369 39.4964ZM32.1156 39.5259C32.0423 39.5992 31.9823 39.7341 31.9823 39.8257C31.9823 39.9173 32.0423 40.0523 32.1156 40.1256C32.2391 40.2491 32.3377 40.2588 33.4667 40.2588C34.8552 40.2588 34.9808 40.2229 34.9808 39.8257C34.9808 39.4285 34.8552 39.3926 33.4667 39.3926C32.3377 39.3926 32.2391 39.4023 32.1156 39.5259Z" fill="white"/>
</svg>
