<svg width="54" height="53" viewBox="0 0 54 53" fill="none" xmlns="http://www.w3.org/2000/svg">
<circle cx="26.9066" cy="26.3636" r="25.9091" fill="#5F56AF" stroke="url(#paint0_linear_3338_17700)" stroke-width="0.909091"/>
<mask id="path-2-inside-1_3338_17700" fill="white">
<path fill-rule="evenodd" clip-rule="evenodd" d="M31.1095 10.3223C29.708 10.6882 28.2414 11.6493 27.4186 12.7409C26.4567 14.0171 25.9008 15.4742 25.9008 16.7194V17.3463L26.6417 17.2955C27.5715 17.2317 28.3617 16.961 29.1239 16.4451C29.9055 15.916 30.228 15.6081 30.7939 14.8505C31.3279 14.1359 31.6291 13.5706 31.9027 12.7705C32.13 12.1055 32.3286 10.7141 32.2442 10.3779C32.1708 10.0853 32.0416 10.0789 31.1095 10.3223ZM30.2287 17.8168C29.9173 17.888 29.3111 18.073 28.8817 18.2278C26.2496 19.177 26.3727 19.1449 25.7992 19.0321C25.5097 18.9752 24.8382 18.7647 24.307 18.5643C21.5152 17.5113 19.8417 17.4954 17.8184 18.5026C16.9818 18.9191 16.7741 19.0741 15.9774 19.8766C15.3507 20.5079 14.9589 20.9947 14.6807 21.4878C13.259 24.0076 12.9016 27.182 13.6536 30.612C14.7117 35.4387 17.6766 40.0898 20.3688 41.1468C21.2063 41.4757 21.8612 41.412 23.6108 40.8314C26.3611 39.9186 26.7883 39.9129 29.3569 40.7555C31.0169 41.3 31.0832 41.3139 31.8714 41.2833C32.5813 41.2557 32.7585 41.2133 33.3097 40.9387C34.9689 40.1121 37.064 37.2014 38.4211 33.8375L38.7241 33.0863L38.2347 32.8146C36.9228 32.086 35.7077 30.8222 35.1619 29.6184C34.6982 28.5958 34.5762 27.9907 34.5744 26.7055C34.5719 24.9545 34.911 23.9112 35.923 22.5561C36.3663 21.9624 37.2358 21.143 37.6676 20.9119C37.7651 20.8597 37.8448 20.7801 37.8448 20.7351C37.8448 20.69 37.6464 20.4146 37.404 20.1233C36.5993 19.1565 35.2936 18.3278 33.9671 17.9422C33.1074 17.6924 31.0722 17.624 30.2287 17.8168Z"/>
</mask>
<path fill-rule="evenodd" clip-rule="evenodd" d="M31.1095 10.3223C29.708 10.6882 28.2414 11.6493 27.4186 12.7409C26.4567 14.0171 25.9008 15.4742 25.9008 16.7194V17.3463L26.6417 17.2955C27.5715 17.2317 28.3617 16.961 29.1239 16.4451C29.9055 15.916 30.228 15.6081 30.7939 14.8505C31.3279 14.1359 31.6291 13.5706 31.9027 12.7705C32.13 12.1055 32.3286 10.7141 32.2442 10.3779C32.1708 10.0853 32.0416 10.0789 31.1095 10.3223ZM30.2287 17.8168C29.9173 17.888 29.3111 18.073 28.8817 18.2278C26.2496 19.177 26.3727 19.1449 25.7992 19.0321C25.5097 18.9752 24.8382 18.7647 24.307 18.5643C21.5152 17.5113 19.8417 17.4954 17.8184 18.5026C16.9818 18.9191 16.7741 19.0741 15.9774 19.8766C15.3507 20.5079 14.9589 20.9947 14.6807 21.4878C13.259 24.0076 12.9016 27.182 13.6536 30.612C14.7117 35.4387 17.6766 40.0898 20.3688 41.1468C21.2063 41.4757 21.8612 41.412 23.6108 40.8314C26.3611 39.9186 26.7883 39.9129 29.3569 40.7555C31.0169 41.3 31.0832 41.3139 31.8714 41.2833C32.5813 41.2557 32.7585 41.2133 33.3097 40.9387C34.9689 40.1121 37.064 37.2014 38.4211 33.8375L38.7241 33.0863L38.2347 32.8146C36.9228 32.086 35.7077 30.8222 35.1619 29.6184C34.6982 28.5958 34.5762 27.9907 34.5744 26.7055C34.5719 24.9545 34.911 23.9112 35.923 22.5561C36.3663 21.9624 37.2358 21.143 37.6676 20.9119C37.7651 20.8597 37.8448 20.7801 37.8448 20.7351C37.8448 20.69 37.6464 20.4146 37.404 20.1233C36.5993 19.1565 35.2936 18.3278 33.9671 17.9422C33.1074 17.6924 31.0722 17.624 30.2287 17.8168Z" stroke="white" stroke-width="1.81818" mask="url(#path-2-inside-1_3338_17700)"/>
<defs>
<linearGradient id="paint0_linear_3338_17700" x1="53.2702" y1="0" x2="0.542969" y2="52.7273" gradientUnits="userSpaceOnUse">
<stop stop-color="#5F56AF" stop-opacity="0.5"/>
<stop offset="1" stop-color="#5F56AF"/>
</linearGradient>
</defs>
</svg>
