<svg width="53" height="54" viewBox="0 0 53 54" fill="none" xmlns="http://www.w3.org/2000/svg">
<circle cx="26.6332" cy="27.2718" r="25.9091" fill="#5F56AF" stroke="url(#paint0_linear_3338_17714)" stroke-width="0.909091"/>
<path fill-rule="evenodd" clip-rule="evenodd" d="M14.5236 12.86C13.8938 13.1812 13.9063 12.8892 13.9063 27.2703C13.9063 41.7297 13.8905 41.3773 14.5493 41.6867C14.9127 41.8572 31.3158 41.8629 31.6787 41.6925C32.2954 41.4029 32.3343 41.1318 32.3343 37.1142V33.3352L32.6989 33.2983C33.0417 33.2638 33.0674 33.2207 33.1297 32.5758C33.1959 31.8917 33.1974 31.8896 33.7263 31.7519C34.018 31.6759 34.4576 31.5219 34.7033 31.4096L35.1498 31.2054L35.6369 31.6227C35.9047 31.8523 36.1828 32.04 36.2549 32.04C36.4204 32.04 37.9025 30.7332 37.9025 30.5873C37.9025 30.5279 37.6922 30.2903 37.4351 30.0593L36.9677 29.6393L37.3026 28.9749C37.4867 28.6096 37.6373 28.2336 37.6373 28.1394C37.6373 28.0097 37.8124 27.9683 38.3618 27.9683C39.2489 27.9683 39.3608 27.8333 39.3608 26.7627C39.3608 25.8187 39.1916 25.6415 38.2908 25.6415C37.804 25.6415 37.6373 25.5979 37.6373 25.4704C37.6373 25.3762 37.4867 25.0002 37.3026 24.6349L36.9677 23.9705L37.4351 23.5505C37.6922 23.3195 37.9025 23.0788 37.9025 23.0155C37.9025 22.8703 36.4132 21.5698 36.247 21.5698C36.1792 21.5698 35.908 21.7547 35.644 21.9809L35.1642 22.392L34.4453 22.0984C34.0498 21.9368 33.622 21.8042 33.4943 21.8036C33.3074 21.8027 33.2623 21.6991 33.2623 21.2712C33.2623 20.5929 33.0767 20.2901 32.6611 20.2901H32.3343V16.9687C32.3343 13.4427 32.285 13.1327 31.6787 12.848C31.318 12.6785 14.8567 12.69 14.5236 12.86ZM14.8608 13.5658C14.7599 13.6544 14.7017 14.101 14.7017 14.7874V15.8693H23.1203H31.5388V14.8318C31.5388 14.2612 31.5026 13.7115 31.4584 13.6103C31.3862 13.4452 30.5347 13.4262 23.1989 13.4262C17.0143 13.4262 14.9811 13.4603 14.8608 13.5658ZM14.7017 26.8049V37.0425H23.1203H31.5388V35.1811V33.3197H31.2339C30.7741 33.3197 30.6108 33.0992 30.6108 32.4785C30.6108 32.047 30.5568 31.9003 30.3788 31.8474C30.2511 31.8095 29.8228 31.6526 29.4269 31.499L28.707 31.2194L28.2145 31.6415C27.8479 31.9556 27.6521 32.044 27.4489 31.9875C27.144 31.9025 25.9707 30.807 25.9707 30.6072C25.9707 30.5369 26.183 30.2884 26.4428 30.0551L26.9147 29.6309L26.5838 29.0032C26.4018 28.6579 26.2211 28.2839 26.1823 28.1719C26.1276 28.0146 25.9658 27.9683 25.471 27.9683C25.1187 27.9683 24.7589 27.9054 24.6714 27.8287C24.4589 27.6422 24.4589 25.9676 24.6714 25.7811C24.7589 25.7044 25.1187 25.6415 25.471 25.6415C25.9658 25.6415 26.1276 25.5952 26.1823 25.438C26.2211 25.3259 26.4018 24.9519 26.5838 24.6066L26.9147 23.9789L26.4188 23.5332C25.957 23.1182 25.935 23.0672 26.0998 22.7969C26.2788 22.5035 27.4552 21.5698 27.646 21.5698C27.7028 21.5698 27.9647 21.7544 28.2282 21.9801L28.707 22.3904L29.4269 22.1108C29.8228 21.9572 30.2511 21.8003 30.3788 21.7624C30.5568 21.7095 30.6108 21.5628 30.6108 21.1313C30.6108 20.5106 30.7741 20.2901 31.2339 20.2901H31.5388V18.4287V16.5673H23.1203H14.7017V26.8049ZM16.6438 18.9488C16.6027 19.0429 16.6603 19.2 16.7718 19.2978C17.073 19.5621 28.1059 19.5667 28.3556 19.3027C28.4456 19.2076 28.4847 19.0505 28.4423 18.9537C28.3277 18.6915 16.7585 18.6867 16.6438 18.9488ZM31.4063 21.5556C31.4063 22.1703 31.29 22.3098 30.6771 22.4302C30.4583 22.4732 29.9043 22.6724 29.446 22.873L28.6126 23.2376L28.116 22.8119L27.6192 22.3863L27.2602 22.7014L26.9012 23.0164L27.3894 23.455L27.8774 23.8937L27.5581 24.3895C27.3825 24.6622 27.1152 25.1995 26.9641 25.5834L26.6894 26.2814L25.9985 26.3165L25.3078 26.3518V26.8049V27.258L25.9985 27.2933L26.6894 27.3284L26.9641 28.0264C27.1152 28.4103 27.3825 28.9476 27.5581 29.2203L27.8774 29.7161L27.3894 30.1548L26.9012 30.5934L27.2602 30.9084L27.6192 31.2235L28.1087 30.8041L28.5982 30.3847L29.556 30.8052C30.0828 31.0364 30.643 31.2257 30.8009 31.2257C31.2421 31.2257 31.4063 31.4528 31.4063 32.0633V32.6217H31.9366H32.4669V31.9901V31.3585L33.2292 31.165C33.6484 31.0585 34.2729 30.8332 34.617 30.6641L35.2423 30.3568L35.7481 30.7901L36.2539 31.2235L36.6129 30.9084L36.9719 30.5934L36.4781 30.1496L35.9842 29.7058L36.3345 29.157C36.5271 28.8551 36.7839 28.307 36.9052 27.9392L37.1258 27.2703H37.8456H38.5653V26.8049V26.3396H37.8413H37.1172L36.972 25.8451C36.8921 25.5731 36.639 25.0236 36.4095 24.6237L35.9923 23.8967L36.482 23.4566L36.9719 23.0164L36.6129 22.7014L36.2539 22.3863L35.7481 22.8197L35.2423 23.253L34.617 22.9457C34.2729 22.7766 33.6484 22.5513 33.2292 22.4448L32.4669 22.2513V21.6197V20.9881H31.9366H31.4063V21.5556ZM16.7231 21.4712C16.6179 21.5636 16.6111 21.6725 16.7012 21.8202C16.8232 22.0203 17.0593 22.0351 20.1373 22.0351C23.2153 22.0351 23.4515 22.0203 23.5734 21.8202C23.8431 21.378 23.5517 21.3371 20.1373 21.3371C17.8511 21.3371 16.8302 21.3772 16.7231 21.4712ZM31.0004 23.817C29.5297 24.1787 28.357 25.5041 28.357 26.8049C28.357 27.4836 28.7732 28.3445 29.3736 28.9078C30.1054 29.5943 30.9076 29.8901 32.0028 29.8772C33.9131 29.8547 35.41 28.5049 35.41 26.8049C35.41 26.0394 35.0391 25.1868 34.4815 24.6709C33.6517 23.903 32.1492 23.5345 31.0004 23.817ZM16.7231 24.0306C16.6179 24.123 16.6111 24.2319 16.7012 24.3796C16.8232 24.5797 17.0591 24.5945 20.1258 24.5945C22.8916 24.5945 23.4458 24.5666 23.5843 24.42C23.7159 24.2808 23.7159 24.2103 23.5843 24.071C23.4458 23.9245 22.894 23.8965 20.1477 23.8965C17.8536 23.8965 16.8302 23.9366 16.7231 24.0306ZM31.0165 24.5067C30.0154 24.8011 29.1539 25.8642 29.1539 26.8049C29.1539 28.2082 30.75 29.4247 32.2913 29.1962C34.2679 28.9031 35.273 27.0255 34.2391 25.5572C33.5869 24.6307 32.1676 24.1681 31.0165 24.5067ZM16.7169 26.5955C16.4912 26.7935 16.4912 31.9351 16.7169 32.1331C16.8316 32.2337 17.7381 32.2727 19.9603 32.2727C22.8741 32.2727 23.0523 32.2603 23.1819 32.0477C23.3654 31.7468 23.3654 26.9819 23.1819 26.6809C23.0523 26.4683 22.8741 26.4559 19.9603 26.4559C17.7381 26.4559 16.8316 26.4949 16.7169 26.5955ZM17.3532 29.3643V31.5747H19.9385H22.5237V29.3643V27.1539H19.9385H17.3532V29.3643ZM16.7718 34.312C16.6603 34.4098 16.6027 34.5669 16.6438 34.661C16.7081 34.808 17.539 34.8321 22.542 34.8321C27.8235 34.8321 28.3731 34.8143 28.449 34.6407C28.6581 34.1628 28.3216 34.1341 22.5078 34.1341C17.7196 34.1341 16.9472 34.1581 16.7718 34.312ZM14.7017 39.2878C14.7017 40.3361 14.753 40.8801 14.8608 40.9747C14.9811 41.0802 17.0143 41.1143 23.1989 41.1143C30.5347 41.1143 31.3862 41.0953 31.4584 40.9302C31.5026 40.829 31.5388 40.0699 31.5388 39.2434V37.7405H23.1203H14.7017V39.2878ZM20.8518 39.3027C20.6896 39.6735 20.9435 39.7182 23.2037 39.7182H25.4588L25.4165 39.4565C25.3746 39.1985 25.3429 39.1943 23.1505 39.1629C21.2888 39.1361 20.9148 39.1589 20.8518 39.3027Z" fill="white"/>
<defs>
<linearGradient id="paint0_linear_3338_17714" x1="52.9968" y1="0.908203" x2="0.269531" y2="53.6355" gradientUnits="userSpaceOnUse">
<stop stop-color="#5F56AF" stop-opacity="0.5"/>
<stop offset="1" stop-color="#5F56AF"/>
</linearGradient>
</defs>
</svg>
