<svg width="53" height="53" viewBox="0 0 53 53" fill="none" xmlns="http://www.w3.org/2000/svg">
<circle cx="26.3597" cy="26.3636" r="25.9091" fill="#5F56AF" stroke="url(#paint0_linear_3338_17686)" stroke-width="0.909091"/>
<mask id="path-2-inside-1_3338_17686" fill="white">
<path fill-rule="evenodd" clip-rule="evenodd" d="M20.826 12.7679C20.4722 12.8466 19.9571 13.1304 19.7063 13.3847C19.5788 13.5141 19.3934 13.7797 19.2946 13.9748L19.1147 14.3297L19.0991 19.0512L19.0834 23.7728L18.8316 23.7405C18.2592 23.6671 17.7053 23.2837 17.4383 22.7759C17.3223 22.5554 17.299 22.4337 17.3009 22.0588C17.3038 21.4824 17.44 21.2022 17.9408 20.7423C18.2742 20.4361 18.3014 20.3943 18.269 20.2376C18.2237 20.0181 18.0447 19.8808 17.8037 19.8808C17.6489 19.8808 17.5437 19.9416 17.2416 20.2058C16.3426 20.9922 16.1174 22.163 16.6658 23.2004C17.0431 23.9141 17.8277 24.4453 18.6886 24.57L19.0863 24.6275V25.893V27.1585H18.8913C18.6727 27.1585 18.6877 27.1847 18.5436 26.5476C18.4907 26.3138 18.3994 26.0731 18.3406 26.0127C18.2817 25.9523 18.0867 25.8596 17.9071 25.8068C17.7276 25.754 17.3766 25.6184 17.1271 25.5053C16.8341 25.3726 16.633 25.3117 16.5589 25.3334C16.4959 25.3518 16.25 25.4832 16.0125 25.6252C15.775 25.7673 15.5586 25.8835 15.5315 25.8835C15.5044 25.8835 15.3625 25.7732 15.216 25.6383L14.9498 25.3931L15.2605 24.9474C15.4373 24.6939 15.5727 24.4389 15.5745 24.356C15.5763 24.2758 15.4884 24.0429 15.379 23.8384C15.2698 23.6339 15.1259 23.3109 15.0594 23.1207C14.9928 22.9305 14.8932 22.7484 14.8378 22.7161C14.7826 22.6838 14.4886 22.6044 14.1846 22.5397L13.6318 22.4219V22.0588V21.6957L14.1846 21.578C14.4886 21.5132 14.7826 21.4338 14.8378 21.4015C14.8932 21.3692 14.9928 21.1871 15.0594 20.997C15.1259 20.8067 15.2698 20.4838 15.379 20.2793C15.4884 20.0747 15.5764 19.844 15.5747 19.7666C15.573 19.6891 15.4319 19.4233 15.2612 19.1759L14.9508 18.7261L15.2363 18.4593L15.5216 18.1924L15.9976 18.4824C16.2681 18.6473 16.5407 18.7737 16.6293 18.7754C16.715 18.7771 16.9642 18.6944 17.1829 18.5917C17.4017 18.4891 17.7276 18.3622 17.9071 18.3099C18.0867 18.2576 18.2823 18.1653 18.3418 18.1049C18.4598 17.9851 18.7454 16.8697 18.7454 16.5288C18.7454 16.1745 18.3488 15.9944 18.051 16.2134C17.936 16.2979 17.8842 16.4267 17.7767 16.8959L17.6442 17.4741L17.1477 17.6703L16.6512 17.8665L16.1161 17.5456C15.7812 17.3449 15.5202 17.2248 15.4186 17.2248C15.2872 17.2248 15.129 17.3438 14.5861 17.8514C14.0432 18.359 13.9159 18.5068 13.9159 18.6297C13.9159 18.7247 14.0444 18.9688 14.2591 19.2818L14.6023 19.7821L14.391 20.2494L14.1798 20.7168L13.7211 20.8064C12.6929 21.0073 12.7227 20.9698 12.7227 22.0588C12.7227 23.1478 12.6929 23.1103 13.7211 23.3113L14.1798 23.4009L14.391 23.8682L14.6023 24.3355L14.2591 24.8358C14.0444 25.1489 13.9159 25.393 13.9159 25.4879C13.9159 25.6108 14.0432 25.7587 14.5861 26.2662C15.129 26.7738 15.2872 26.8928 15.4186 26.8928C15.5202 26.8928 15.7812 26.7727 16.1161 26.572L16.6512 26.2511L17.1477 26.4473L17.6442 26.6435L17.7767 27.2218C17.9453 27.9573 18.0012 28.0084 18.6378 28.0084H19.0831L19.099 32.3007L19.1147 36.5931L19.3291 36.9985C19.5822 37.4773 19.9089 37.7738 20.45 38.0159L20.8193 38.1811H26.359H31.8988L32.2783 38.013C32.8065 37.779 33.1355 37.4779 33.3911 36.9944L33.6033 36.5931L33.619 31.8687L33.6347 27.1444L33.8865 27.1767C34.4589 27.25 35.0127 27.6335 35.2798 28.1412C35.3958 28.3618 35.4191 28.4834 35.4171 28.8583C35.4142 29.4331 35.278 29.715 34.7839 30.1687C34.5877 30.349 34.4271 30.5354 34.4271 30.5831C34.4271 30.7146 34.5817 30.9661 34.6854 31.0033C34.9429 31.0957 35.1056 31.0356 35.4764 30.7113C36.5965 29.7317 36.6435 28.1406 35.5832 27.1012C35.1793 26.7054 34.6196 26.4326 34.0391 26.3486L33.6317 26.2897V25.0241V23.7587H33.8268C34.0464 23.7587 34.0324 23.7338 34.1776 24.3819C34.2954 24.9075 34.3536 24.9652 34.9669 25.164C35.2169 25.245 35.5325 25.3719 35.6682 25.446C36.0205 25.6383 36.1753 25.6142 36.7205 25.2819L37.1964 24.9919L37.4818 25.2588L37.7673 25.5257L37.4835 25.9304C37.0564 26.5393 37.0591 26.5222 37.3146 27.0204C37.436 27.257 37.5903 27.6063 37.6575 27.7965C37.7246 27.9867 37.8249 28.1688 37.8802 28.2011C37.9355 28.2333 38.2295 28.3127 38.5335 28.3775L39.0862 28.4952V28.8583V29.2215L38.5335 29.3392C38.2295 29.4039 37.9355 29.4834 37.8802 29.5156C37.8249 29.5479 37.7246 29.73 37.6575 29.9202C37.5903 30.1104 37.436 30.4597 37.3146 30.6963C37.0591 31.1944 37.0564 31.1774 37.4835 31.7863L37.7673 32.1909L37.4818 32.4579L37.1964 32.7248L36.7205 32.4347C36.4499 32.2698 36.1774 32.1434 36.0887 32.1417C36.003 32.14 35.7538 32.2227 35.5351 32.3254C35.3163 32.4281 34.9904 32.5549 34.8109 32.6073C34.6314 32.6595 34.4357 32.7518 34.3762 32.8122C34.2582 32.932 33.9726 34.0475 33.9726 34.3884C33.9726 34.7427 34.3693 34.9228 34.6671 34.7037C34.7823 34.6191 34.8339 34.4899 34.9432 34.013C35.054 33.5297 35.0979 33.4208 35.1927 33.395C35.256 33.3777 35.4782 33.2916 35.6864 33.2035L36.065 33.0434L36.6007 33.3679C36.9391 33.5729 37.1963 33.6924 37.299 33.6924C37.4309 33.6924 37.5883 33.574 38.1319 33.0657C38.678 32.5552 38.8021 32.4108 38.8021 32.2859C38.8021 32.1892 38.6756 31.9477 38.4597 31.6322L38.1172 31.1318L38.3277 30.6661L38.5383 30.2004L38.9969 30.1108C40.0252 29.9098 39.9953 29.9473 39.9953 28.8583C39.9953 27.7693 40.0252 27.8068 38.9969 27.6059L38.5383 27.5163L38.327 27.0489L38.1158 26.5816L38.4589 26.0813C38.6737 25.7683 38.8021 25.5242 38.8021 25.4292C38.8021 25.3063 38.6748 25.1585 38.1319 24.6509C37.589 24.1433 37.4309 24.0243 37.2994 24.0243C37.1978 24.0243 36.9358 24.145 36.5981 24.3475L36.0591 24.6707L35.6834 24.5118C35.4769 24.4245 35.256 24.3389 35.1927 24.3217C35.0979 24.2959 35.054 24.187 34.9432 23.7037C34.7725 22.9588 34.7182 22.9088 34.0802 22.9088H33.6349L33.6191 18.6164L33.6033 14.324L33.3911 13.9227C33.1355 13.4393 32.8065 13.1381 32.2783 12.9042L31.8988 12.736L26.4727 12.7274C23.3155 12.7224 20.9543 12.7394 20.826 12.7679ZM20.9045 13.6288C20.6256 13.711 20.15 14.1715 20.0645 14.4421C19.9641 14.76 19.9641 36.1572 20.0645 36.4751C20.1567 36.7669 20.6274 37.2069 20.9395 37.2931C21.2764 37.3862 31.4416 37.3862 31.7785 37.2931C32.0906 37.2069 32.5613 36.7669 32.6535 36.4751C32.7526 36.1615 32.7541 14.759 32.6551 14.4499C32.6179 14.334 32.477 14.1243 32.3419 13.9837C31.9086 13.5331 32.2749 13.5587 26.3347 13.5648C22.6942 13.5686 21.0429 13.5881 20.9045 13.6288ZM24.6803 14.5398C24.5924 14.6219 24.5409 14.7308 24.5409 14.8343C24.5409 14.9378 24.5924 15.0467 24.6803 15.1289L24.8198 15.2593H26.359H27.8983L28.0377 15.1289C28.1257 15.0467 28.1772 14.9378 28.1772 14.8343C28.1772 14.7308 28.1257 14.6219 28.0377 14.5398L27.8983 14.4094H26.359H24.8198L24.6803 14.5398ZM35.5894 16.2396C35.3161 16.4951 35.4538 16.9236 35.8311 16.9918C35.9837 17.0194 36.0417 16.9984 36.1862 16.8632C36.3049 16.7523 36.359 16.6498 36.359 16.5359C36.359 16.3158 36.1389 16.1092 35.9044 16.1092C35.7937 16.1092 35.6773 16.1574 35.5894 16.2396ZM35.5894 17.9395C35.3161 18.195 35.4538 18.6235 35.8311 18.6917C35.9837 18.7192 36.0417 18.6983 36.1862 18.5631C36.3049 18.4521 36.359 18.3497 36.359 18.2357C36.359 18.0156 36.1389 17.8091 35.9044 17.8091C35.7937 17.8091 35.6773 17.8573 35.5894 17.9395ZM35.5894 19.6394C35.3161 19.8949 35.4538 20.3234 35.8311 20.3916C35.9837 20.4191 36.0417 20.3981 36.1862 20.263C36.3049 20.152 36.359 20.0496 36.359 19.9356C36.359 19.7155 36.1389 19.509 35.9044 19.509C35.7937 19.509 35.6773 19.5572 35.5894 19.6394ZM22.8522 24.3048C21.9079 25.1877 21.8136 25.2924 21.8136 25.4586C21.8136 25.6247 21.9079 25.7294 22.8522 26.6124C23.7751 27.4752 23.9115 27.5834 24.0764 27.5834C24.3239 27.5834 24.5409 27.3818 24.5409 27.1517C24.5409 27.0029 24.4361 26.882 23.7338 26.2196L22.9266 25.4586L23.7338 24.6975C24.4361 24.0351 24.5409 23.9142 24.5409 23.7654C24.5409 23.5354 24.3239 23.3337 24.0764 23.3337C23.9115 23.3337 23.7751 23.4419 22.8522 24.3048ZM26.5325 23.427C26.4332 23.5022 26.3162 23.8667 25.9311 25.2995C25.6682 26.2781 25.4524 27.1336 25.4515 27.2007C25.4493 27.3733 25.6931 27.5834 25.8956 27.5834C26.2488 27.5834 26.2731 27.5299 26.7869 25.6176C27.0499 24.639 27.2657 23.7835 27.2666 23.7165C27.2704 23.4144 26.7962 23.2274 26.5325 23.427ZM28.3167 23.4641C28.2264 23.5485 28.1772 23.6548 28.1772 23.7654C28.1772 23.9142 28.2819 24.0351 28.9843 24.6975L29.7914 25.4586L28.9843 26.2196C28.2819 26.882 28.1772 27.0029 28.1772 27.1517C28.1772 27.3818 28.3941 27.5834 28.6417 27.5834C28.8065 27.5834 28.9429 27.4752 29.8658 26.6124C30.8102 25.7294 30.9044 25.6247 30.9044 25.4586C30.9044 25.2924 30.8102 25.1877 29.8658 24.3048C28.9429 23.4419 28.8065 23.3337 28.6417 23.3337C28.5204 23.3337 28.4078 23.3789 28.3167 23.4641ZM16.6635 30.5051C16.3448 30.6241 16.2541 31.0577 16.5088 31.2449C16.761 31.4304 17.0504 31.3725 17.2021 31.1062C17.3013 30.932 17.2824 30.7913 17.1403 30.6452C16.9887 30.4892 16.8306 30.4428 16.6635 30.5051ZM16.6635 32.205C16.3448 32.324 16.2541 32.7575 16.5088 32.9448C16.761 33.1302 17.0504 33.0723 17.2021 32.8061C17.3013 32.6319 17.2824 32.4912 17.1403 32.345C16.9887 32.1891 16.8306 32.1427 16.6635 32.205ZM16.6635 33.9049C16.3448 34.0238 16.2541 34.4574 16.5088 34.6447C16.761 34.8301 17.0504 34.7722 17.2021 34.506C17.3013 34.3318 17.2824 34.1911 17.1403 34.0449C16.9887 33.889 16.8306 33.8425 16.6635 33.9049Z"/>
</mask>
<path fill-rule="evenodd" clip-rule="evenodd" d="M20.826 12.7679C20.4722 12.8466 19.9571 13.1304 19.7063 13.3847C19.5788 13.5141 19.3934 13.7797 19.2946 13.9748L19.1147 14.3297L19.0991 19.0512L19.0834 23.7728L18.8316 23.7405C18.2592 23.6671 17.7053 23.2837 17.4383 22.7759C17.3223 22.5554 17.299 22.4337 17.3009 22.0588C17.3038 21.4824 17.44 21.2022 17.9408 20.7423C18.2742 20.4361 18.3014 20.3943 18.269 20.2376C18.2237 20.0181 18.0447 19.8808 17.8037 19.8808C17.6489 19.8808 17.5437 19.9416 17.2416 20.2058C16.3426 20.9922 16.1174 22.163 16.6658 23.2004C17.0431 23.9141 17.8277 24.4453 18.6886 24.57L19.0863 24.6275V25.893V27.1585H18.8913C18.6727 27.1585 18.6877 27.1847 18.5436 26.5476C18.4907 26.3138 18.3994 26.0731 18.3406 26.0127C18.2817 25.9523 18.0867 25.8596 17.9071 25.8068C17.7276 25.754 17.3766 25.6184 17.1271 25.5053C16.8341 25.3726 16.633 25.3117 16.5589 25.3334C16.4959 25.3518 16.25 25.4832 16.0125 25.6252C15.775 25.7673 15.5586 25.8835 15.5315 25.8835C15.5044 25.8835 15.3625 25.7732 15.216 25.6383L14.9498 25.3931L15.2605 24.9474C15.4373 24.6939 15.5727 24.4389 15.5745 24.356C15.5763 24.2758 15.4884 24.0429 15.379 23.8384C15.2698 23.6339 15.1259 23.3109 15.0594 23.1207C14.9928 22.9305 14.8932 22.7484 14.8378 22.7161C14.7826 22.6838 14.4886 22.6044 14.1846 22.5397L13.6318 22.4219V22.0588V21.6957L14.1846 21.578C14.4886 21.5132 14.7826 21.4338 14.8378 21.4015C14.8932 21.3692 14.9928 21.1871 15.0594 20.997C15.1259 20.8067 15.2698 20.4838 15.379 20.2793C15.4884 20.0747 15.5764 19.844 15.5747 19.7666C15.573 19.6891 15.4319 19.4233 15.2612 19.1759L14.9508 18.7261L15.2363 18.4593L15.5216 18.1924L15.9976 18.4824C16.2681 18.6473 16.5407 18.7737 16.6293 18.7754C16.715 18.7771 16.9642 18.6944 17.1829 18.5917C17.4017 18.4891 17.7276 18.3622 17.9071 18.3099C18.0867 18.2576 18.2823 18.1653 18.3418 18.1049C18.4598 17.9851 18.7454 16.8697 18.7454 16.5288C18.7454 16.1745 18.3488 15.9944 18.051 16.2134C17.936 16.2979 17.8842 16.4267 17.7767 16.8959L17.6442 17.4741L17.1477 17.6703L16.6512 17.8665L16.1161 17.5456C15.7812 17.3449 15.5202 17.2248 15.4186 17.2248C15.2872 17.2248 15.129 17.3438 14.5861 17.8514C14.0432 18.359 13.9159 18.5068 13.9159 18.6297C13.9159 18.7247 14.0444 18.9688 14.2591 19.2818L14.6023 19.7821L14.391 20.2494L14.1798 20.7168L13.7211 20.8064C12.6929 21.0073 12.7227 20.9698 12.7227 22.0588C12.7227 23.1478 12.6929 23.1103 13.7211 23.3113L14.1798 23.4009L14.391 23.8682L14.6023 24.3355L14.2591 24.8358C14.0444 25.1489 13.9159 25.393 13.9159 25.4879C13.9159 25.6108 14.0432 25.7587 14.5861 26.2662C15.129 26.7738 15.2872 26.8928 15.4186 26.8928C15.5202 26.8928 15.7812 26.7727 16.1161 26.572L16.6512 26.2511L17.1477 26.4473L17.6442 26.6435L17.7767 27.2218C17.9453 27.9573 18.0012 28.0084 18.6378 28.0084H19.0831L19.099 32.3007L19.1147 36.5931L19.3291 36.9985C19.5822 37.4773 19.9089 37.7738 20.45 38.0159L20.8193 38.1811H26.359H31.8988L32.2783 38.013C32.8065 37.779 33.1355 37.4779 33.3911 36.9944L33.6033 36.5931L33.619 31.8687L33.6347 27.1444L33.8865 27.1767C34.4589 27.25 35.0127 27.6335 35.2798 28.1412C35.3958 28.3618 35.4191 28.4834 35.4171 28.8583C35.4142 29.4331 35.278 29.715 34.7839 30.1687C34.5877 30.349 34.4271 30.5354 34.4271 30.5831C34.4271 30.7146 34.5817 30.9661 34.6854 31.0033C34.9429 31.0957 35.1056 31.0356 35.4764 30.7113C36.5965 29.7317 36.6435 28.1406 35.5832 27.1012C35.1793 26.7054 34.6196 26.4326 34.0391 26.3486L33.6317 26.2897V25.0241V23.7587H33.8268C34.0464 23.7587 34.0324 23.7338 34.1776 24.3819C34.2954 24.9075 34.3536 24.9652 34.9669 25.164C35.2169 25.245 35.5325 25.3719 35.6682 25.446C36.0205 25.6383 36.1753 25.6142 36.7205 25.2819L37.1964 24.9919L37.4818 25.2588L37.7673 25.5257L37.4835 25.9304C37.0564 26.5393 37.0591 26.5222 37.3146 27.0204C37.436 27.257 37.5903 27.6063 37.6575 27.7965C37.7246 27.9867 37.8249 28.1688 37.8802 28.2011C37.9355 28.2333 38.2295 28.3127 38.5335 28.3775L39.0862 28.4952V28.8583V29.2215L38.5335 29.3392C38.2295 29.4039 37.9355 29.4834 37.8802 29.5156C37.8249 29.5479 37.7246 29.73 37.6575 29.9202C37.5903 30.1104 37.436 30.4597 37.3146 30.6963C37.0591 31.1944 37.0564 31.1774 37.4835 31.7863L37.7673 32.1909L37.4818 32.4579L37.1964 32.7248L36.7205 32.4347C36.4499 32.2698 36.1774 32.1434 36.0887 32.1417C36.003 32.14 35.7538 32.2227 35.5351 32.3254C35.3163 32.4281 34.9904 32.5549 34.8109 32.6073C34.6314 32.6595 34.4357 32.7518 34.3762 32.8122C34.2582 32.932 33.9726 34.0475 33.9726 34.3884C33.9726 34.7427 34.3693 34.9228 34.6671 34.7037C34.7823 34.6191 34.8339 34.4899 34.9432 34.013C35.054 33.5297 35.0979 33.4208 35.1927 33.395C35.256 33.3777 35.4782 33.2916 35.6864 33.2035L36.065 33.0434L36.6007 33.3679C36.9391 33.5729 37.1963 33.6924 37.299 33.6924C37.4309 33.6924 37.5883 33.574 38.1319 33.0657C38.678 32.5552 38.8021 32.4108 38.8021 32.2859C38.8021 32.1892 38.6756 31.9477 38.4597 31.6322L38.1172 31.1318L38.3277 30.6661L38.5383 30.2004L38.9969 30.1108C40.0252 29.9098 39.9953 29.9473 39.9953 28.8583C39.9953 27.7693 40.0252 27.8068 38.9969 27.6059L38.5383 27.5163L38.327 27.0489L38.1158 26.5816L38.4589 26.0813C38.6737 25.7683 38.8021 25.5242 38.8021 25.4292C38.8021 25.3063 38.6748 25.1585 38.1319 24.6509C37.589 24.1433 37.4309 24.0243 37.2994 24.0243C37.1978 24.0243 36.9358 24.145 36.5981 24.3475L36.0591 24.6707L35.6834 24.5118C35.4769 24.4245 35.256 24.3389 35.1927 24.3217C35.0979 24.2959 35.054 24.187 34.9432 23.7037C34.7725 22.9588 34.7182 22.9088 34.0802 22.9088H33.6349L33.6191 18.6164L33.6033 14.324L33.3911 13.9227C33.1355 13.4393 32.8065 13.1381 32.2783 12.9042L31.8988 12.736L26.4727 12.7274C23.3155 12.7224 20.9543 12.7394 20.826 12.7679ZM20.9045 13.6288C20.6256 13.711 20.15 14.1715 20.0645 14.4421C19.9641 14.76 19.9641 36.1572 20.0645 36.4751C20.1567 36.7669 20.6274 37.2069 20.9395 37.2931C21.2764 37.3862 31.4416 37.3862 31.7785 37.2931C32.0906 37.2069 32.5613 36.7669 32.6535 36.4751C32.7526 36.1615 32.7541 14.759 32.6551 14.4499C32.6179 14.334 32.477 14.1243 32.3419 13.9837C31.9086 13.5331 32.2749 13.5587 26.3347 13.5648C22.6942 13.5686 21.0429 13.5881 20.9045 13.6288ZM24.6803 14.5398C24.5924 14.6219 24.5409 14.7308 24.5409 14.8343C24.5409 14.9378 24.5924 15.0467 24.6803 15.1289L24.8198 15.2593H26.359H27.8983L28.0377 15.1289C28.1257 15.0467 28.1772 14.9378 28.1772 14.8343C28.1772 14.7308 28.1257 14.6219 28.0377 14.5398L27.8983 14.4094H26.359H24.8198L24.6803 14.5398ZM35.5894 16.2396C35.3161 16.4951 35.4538 16.9236 35.8311 16.9918C35.9837 17.0194 36.0417 16.9984 36.1862 16.8632C36.3049 16.7523 36.359 16.6498 36.359 16.5359C36.359 16.3158 36.1389 16.1092 35.9044 16.1092C35.7937 16.1092 35.6773 16.1574 35.5894 16.2396ZM35.5894 17.9395C35.3161 18.195 35.4538 18.6235 35.8311 18.6917C35.9837 18.7192 36.0417 18.6983 36.1862 18.5631C36.3049 18.4521 36.359 18.3497 36.359 18.2357C36.359 18.0156 36.1389 17.8091 35.9044 17.8091C35.7937 17.8091 35.6773 17.8573 35.5894 17.9395ZM35.5894 19.6394C35.3161 19.8949 35.4538 20.3234 35.8311 20.3916C35.9837 20.4191 36.0417 20.3981 36.1862 20.263C36.3049 20.152 36.359 20.0496 36.359 19.9356C36.359 19.7155 36.1389 19.509 35.9044 19.509C35.7937 19.509 35.6773 19.5572 35.5894 19.6394ZM22.8522 24.3048C21.9079 25.1877 21.8136 25.2924 21.8136 25.4586C21.8136 25.6247 21.9079 25.7294 22.8522 26.6124C23.7751 27.4752 23.9115 27.5834 24.0764 27.5834C24.3239 27.5834 24.5409 27.3818 24.5409 27.1517C24.5409 27.0029 24.4361 26.882 23.7338 26.2196L22.9266 25.4586L23.7338 24.6975C24.4361 24.0351 24.5409 23.9142 24.5409 23.7654C24.5409 23.5354 24.3239 23.3337 24.0764 23.3337C23.9115 23.3337 23.7751 23.4419 22.8522 24.3048ZM26.5325 23.427C26.4332 23.5022 26.3162 23.8667 25.9311 25.2995C25.6682 26.2781 25.4524 27.1336 25.4515 27.2007C25.4493 27.3733 25.6931 27.5834 25.8956 27.5834C26.2488 27.5834 26.2731 27.5299 26.7869 25.6176C27.0499 24.639 27.2657 23.7835 27.2666 23.7165C27.2704 23.4144 26.7962 23.2274 26.5325 23.427ZM28.3167 23.4641C28.2264 23.5485 28.1772 23.6548 28.1772 23.7654C28.1772 23.9142 28.2819 24.0351 28.9843 24.6975L29.7914 25.4586L28.9843 26.2196C28.2819 26.882 28.1772 27.0029 28.1772 27.1517C28.1772 27.3818 28.3941 27.5834 28.6417 27.5834C28.8065 27.5834 28.9429 27.4752 29.8658 26.6124C30.8102 25.7294 30.9044 25.6247 30.9044 25.4586C30.9044 25.2924 30.8102 25.1877 29.8658 24.3048C28.9429 23.4419 28.8065 23.3337 28.6417 23.3337C28.5204 23.3337 28.4078 23.3789 28.3167 23.4641ZM16.6635 30.5051C16.3448 30.6241 16.2541 31.0577 16.5088 31.2449C16.761 31.4304 17.0504 31.3725 17.2021 31.1062C17.3013 30.932 17.2824 30.7913 17.1403 30.6452C16.9887 30.4892 16.8306 30.4428 16.6635 30.5051ZM16.6635 32.205C16.3448 32.324 16.2541 32.7575 16.5088 32.9448C16.761 33.1302 17.0504 33.0723 17.2021 32.8061C17.3013 32.6319 17.2824 32.4912 17.1403 32.345C16.9887 32.1891 16.8306 32.1427 16.6635 32.205ZM16.6635 33.9049C16.3448 34.0238 16.2541 34.4574 16.5088 34.6447C16.761 34.8301 17.0504 34.7722 17.2021 34.506C17.3013 34.3318 17.2824 34.1911 17.1403 34.0449C16.9887 33.889 16.8306 33.8425 16.6635 33.9049Z" fill="white" stroke="white" stroke-width="0.909091" mask="url(#path-2-inside-1_3338_17686)"/>
<defs>
<linearGradient id="paint0_linear_3338_17686" x1="52.7234" y1="0" x2="-0.00390625" y2="52.7273" gradientUnits="userSpaceOnUse">
<stop stop-color="#5F56AF" stop-opacity="0.5"/>
<stop offset="1" stop-color="#5F56AF"/>
</linearGradient>
</defs>
</svg>
