<svg width="53" height="54" viewBox="0 0 53 54" fill="none" xmlns="http://www.w3.org/2000/svg">
<circle cx="26.6371" cy="27.2718" r="26.3636" fill="#5F56AF"/>
<circle cx="26.6371" cy="27.2718" r="25.9091" stroke="#5F56AF" stroke-opacity="0.5" stroke-width="0.909091"/>
<path fill-rule="evenodd" clip-rule="evenodd" d="M15.9781 13.8742C15.6294 14.0231 15.3051 14.2867 15.1191 14.5721L14.8203 15.0307V27.2711V39.5116L15.1205 39.9724C15.3118 40.266 15.6267 40.5192 15.9886 40.6703C16.5349 40.8985 16.8372 40.9075 23.9746 40.9075H31.3927L32.0029 40.6407C33.0535 40.1813 33.1072 40.0076 33.1064 37.078L33.1056 34.5256L35.2236 34.4852C37.1167 34.4493 37.3828 34.4186 37.7293 34.1965C38.4686 33.7224 38.4567 33.8372 38.4567 27.2711C38.4567 20.705 38.4686 20.8198 37.7293 20.3458C37.3828 20.1237 37.1167 20.0929 35.2236 20.057L33.1056 20.0167L33.1064 17.4642C33.1072 14.5346 33.0535 14.3609 32.0029 13.9016L31.3927 13.6348L23.9656 13.6349C16.7935 13.635 16.5191 13.6432 15.9781 13.8742ZM16.2257 14.4636C15.6393 14.7743 15.4876 15.1507 15.5364 16.1748L15.5763 17.0142L23.9947 17.0448L32.4131 17.0753V16.0683C32.4131 15.1234 32.3884 15.0377 32.0122 14.6742L31.6111 14.2869L24.1435 14.2561C16.8703 14.226 16.6641 14.2313 16.2257 14.4636ZM15.5075 27.2711V36.8759H23.9603H32.4131V35.6956V34.5151L25.9189 34.4801C18.7874 34.4416 18.9831 34.4619 18.5196 33.7148C18.2311 33.2497 18.2311 21.2926 18.5196 20.8274C18.9831 20.0804 18.7874 20.1007 25.9189 20.0621L32.4131 20.0271V18.8467V17.6664H23.9603H15.5075V27.2711ZM19.3085 20.9663C19.1282 21.1381 19.0811 21.4333 19.0811 22.3892V23.5952H28.4273H37.7734V22.4095C37.7734 20.5609 38.8401 20.7494 28.3798 20.7494C19.9867 20.7494 19.5245 20.7604 19.3085 20.9663ZM20.4889 21.2533C20.2789 21.4795 19.8791 22.7712 19.9617 22.9569C20.0158 23.0787 20.3346 23.1209 21.1991 23.1209C21.8394 23.1209 22.3965 23.0748 22.4369 23.0186C22.5506 22.8598 22.0174 21.324 21.8091 21.2101C21.5283 21.0565 20.6449 21.0854 20.4889 21.2533ZM23.6537 21.1829C23.4503 21.2539 22.8813 22.8391 22.9997 23.0045C23.1366 23.1955 25.3983 23.1522 25.485 22.9569C25.5926 22.715 25.1364 21.4254 24.8826 21.2533C24.6667 21.1071 23.983 21.0679 23.6537 21.1829ZM26.6898 21.1958C26.5072 21.2973 26.0907 22.4443 26.0907 22.8461C26.0907 23.1131 26.1258 23.1209 27.3277 23.1209C28.5193 23.1209 28.5647 23.1111 28.5632 22.8541C28.5613 22.5012 28.1947 21.4699 27.9988 21.2663C27.8349 21.0959 26.955 21.0486 26.6898 21.1958ZM29.6941 21.2533C29.4773 21.4808 29.0809 22.756 29.167 22.9494C29.2688 23.1782 31.5342 23.1997 31.6245 22.9727C31.7117 22.7533 31.2097 21.3152 31.0069 21.2043C30.7352 21.0554 29.8512 21.0885 29.6941 21.2533ZM20.8644 22.1207C20.682 22.5347 20.6775 22.528 21.1427 22.528C21.5596 22.528 21.6445 22.3929 21.4716 22.0042C21.3441 21.7175 21.0142 21.7808 20.8644 22.1207ZM23.9122 22.1723C23.7707 22.5227 23.7755 22.528 24.2424 22.528C24.774 22.528 24.766 22.5377 24.5823 22.1207C24.4022 21.7122 24.0884 21.7363 23.9122 22.1723ZM27.002 22.0834C26.8714 22.5037 26.8901 22.528 27.3438 22.528C27.7209 22.528 27.7622 22.4961 27.6892 22.2612C27.6437 22.1146 27.6055 21.9544 27.6045 21.9055C27.5998 21.6857 27.0777 21.8398 27.002 22.0834ZM30.0766 21.9847C30.0766 22.0772 30.0391 22.2373 29.9931 22.3405C29.9281 22.4867 30.0039 22.528 30.3368 22.528C30.7689 22.528 30.8549 22.3968 30.6804 22.0042C30.5767 21.7712 30.0766 21.755 30.0766 21.9847ZM19.0811 28.7943C19.0811 33.106 19.0972 33.4129 19.3325 33.5966C19.5608 33.775 20.3895 33.7929 28.4037 33.7929C37.0404 33.7929 37.2294 33.7879 37.4985 33.5557C37.7639 33.3267 37.7734 33.1605 37.7734 28.7533V24.1881H28.4273H19.0811V28.7943ZM27.2469 25.3138C27.1981 25.4818 26.986 25.6961 26.7756 25.79C26.4416 25.939 26.3721 25.9384 26.2251 25.7858C25.9588 25.5088 25.7809 25.5724 25.0637 26.2005C24.4371 26.7494 24.4029 26.8097 24.568 27.0757C24.8117 27.4686 24.6352 27.8594 24.1481 28.006L23.7432 28.1277L23.783 29.0334C23.8201 29.8767 23.8447 29.9417 24.1396 29.9779C24.5359 30.0264 24.8064 30.5545 24.5894 30.8564C24.3376 31.2067 24.4182 31.3702 25.1227 31.9387C25.8625 32.5358 25.9743 32.5745 26.2198 32.3193C26.4426 32.0878 27.1903 32.3072 27.1903 32.6041C27.1903 32.9782 27.5308 33.0944 28.518 33.0575C29.4107 33.0239 29.4601 33.0069 29.4989 32.72C29.5566 32.2922 30.291 32.0488 30.6584 32.3357C30.9007 32.5248 30.952 32.5014 31.69 31.8647C32.4281 31.2279 32.4552 31.1837 32.236 30.9746C31.9035 30.6577 32.1855 30.0241 32.6814 29.9743C33.0168 29.9407 33.0333 29.9025 33.0722 29.0711C33.1127 28.2052 33.1119 28.2029 32.7042 28.0702C32.1441 27.8877 31.9341 27.4692 32.2164 27.0974C32.4218 26.8271 32.4087 26.7933 31.9186 26.3252C31.2417 25.6788 30.9496 25.5487 30.5696 25.7242C30.1553 25.9154 29.5616 25.7075 29.503 25.3507C29.4611 25.096 29.3862 25.0751 28.3969 25.0428C27.3574 25.009 27.334 25.0145 27.2469 25.3138ZM27.9755 25.8468C27.9362 25.9764 27.7279 26.1366 27.5128 26.2025C27.2976 26.2686 27.0142 26.376 26.8829 26.4411C26.5694 26.5968 26.1303 26.5923 26.0157 26.4322C25.957 26.3504 25.8095 26.3977 25.6039 26.5644C25.3507 26.7695 25.3143 26.8667 25.4306 27.0273C25.6366 27.3118 25.133 28.4749 24.7354 28.6332C24.352 28.7858 24.3164 29.4055 24.691 29.4055C25.0023 29.4055 25.6084 30.5932 25.4923 30.976C25.3864 31.3254 25.7663 31.6897 26.0837 31.5431C26.4481 31.3748 27.8618 31.8851 27.9639 32.2217C28.0746 32.5872 28.8396 32.6117 28.8396 32.2498C28.8396 31.9068 30.3045 31.3434 30.6789 31.5425C30.8893 31.6544 30.9874 31.6368 31.2066 31.4477C31.4259 31.2585 31.4463 31.1739 31.3166 30.9923C31.0858 30.6693 31.7388 29.4055 32.1364 29.4055C32.3522 29.4055 32.4131 29.3273 32.4131 29.0498C32.4131 28.7702 32.3528 28.6941 32.1312 28.6941C31.9336 28.6941 31.7879 28.5611 31.644 28.2494C31.5311 28.0049 31.3734 27.6914 31.2934 27.5528C31.191 27.3751 31.1915 27.2308 31.2952 27.0637C31.4946 26.7422 31.0468 26.359 30.679 26.5365C30.5053 26.6205 30.2796 26.5923 29.8788 26.4367C29.5719 26.3175 29.2125 26.1914 29.0801 26.1564C28.9478 26.1214 28.8396 25.9844 28.8396 25.8519C28.8396 25.5112 28.0787 25.5066 27.9755 25.8468ZM27.3856 27.1402C26.0159 27.6769 25.5606 29.1177 26.4103 30.2255C27.4246 31.5478 29.9701 31.316 30.6171 29.8425C30.8233 29.373 30.7994 28.504 30.5699 28.1249C30.1314 27.4007 29.2067 26.9111 28.2908 26.918C28.1012 26.9194 27.694 27.0195 27.3856 27.1402ZM27.6485 27.7514C26.5368 28.2292 26.3558 29.3022 27.2561 30.0789C27.6264 30.3984 27.8202 30.4727 28.2829 30.4727C29.7396 30.4727 30.5464 29.3009 29.8086 28.257C29.3271 27.5758 28.5049 27.3833 27.6485 27.7514ZM15.5992 37.5478C15.4388 37.6861 15.5046 39.2948 15.6833 39.6031C15.7777 39.7662 16.0706 39.9936 16.3341 40.1085C16.7768 40.3016 17.3761 40.3151 24.2123 40.2864L31.6111 40.2553L32.0122 39.868C32.3884 39.5047 32.4131 39.4188 32.4131 38.4748V37.4688H24.052C19.4533 37.4688 15.6495 37.5043 15.5992 37.5478Z" fill="white"/>
</svg>
