<svg width="58" height="58" viewBox="0 0 58 58" fill="none" xmlns="http://www.w3.org/2000/svg">
<circle cx="29" cy="29" r="28.5" fill="#FAFAFA" stroke="url(#paint0_linear_1526_12197)"/>
<mask id="path-2-inside-1_1526_12197" fill="white">
<path fill-rule="evenodd" clip-rule="evenodd" d="M33.6239 11.3553C32.0823 11.7578 30.469 12.815 29.5639 14.0158C28.5059 15.4196 27.8944 17.0224 27.8944 18.3921V19.0817L28.7094 19.0258C29.7322 18.9556 30.6014 18.6579 31.4398 18.0904C32.2996 17.5083 32.6543 17.1697 33.2768 16.3364C33.8642 15.5502 34.1955 14.9285 34.4965 14.0483C34.7465 13.3169 34.965 11.7863 34.8722 11.4165C34.7914 11.0946 34.6493 11.0876 33.6239 11.3553ZM32.6551 19.5992C32.3125 19.6776 31.6457 19.8811 31.1733 20.0514C28.2781 21.0955 28.4135 21.0602 27.7826 20.9361C27.4642 20.8735 26.7255 20.6419 26.1412 20.4215C23.0702 19.2633 21.2293 19.2457 19.0037 20.3536C18.0835 20.8118 17.855 20.9823 16.9786 21.8651C16.2893 22.5594 15.8583 23.0949 15.5523 23.6374C13.9884 26.4092 13.5953 29.901 14.4225 33.674C15.5864 38.9833 18.8477 44.0996 21.8092 45.2623C22.7305 45.6241 23.4508 45.5539 25.3754 44.9153C28.4007 43.9112 28.8707 43.905 31.6961 44.8318C33.5221 45.4307 33.5951 45.4461 34.4621 45.4124C35.2429 45.382 35.4379 45.3354 36.0441 45.0333C37.8693 44.1241 40.174 40.9223 41.6667 37.222L42 36.3958L41.4617 36.0968C40.0186 35.2954 38.682 33.9052 38.0816 32.581C37.5716 31.4562 37.4373 30.7906 37.4353 29.3769C37.4326 27.4508 37.8056 26.3031 38.9188 24.8125C39.4064 24.1594 40.3629 23.258 40.8379 23.0039C40.9451 22.9465 41.0328 22.8589 41.0328 22.8093C41.0328 22.7598 40.8146 22.4569 40.5479 22.1364C39.6627 21.0729 38.2265 20.1614 36.7674 19.7372C35.8217 19.4624 33.5829 19.3872 32.6551 19.5992Z"/>
</mask>
<path fill-rule="evenodd" clip-rule="evenodd" d="M33.6239 11.3553C32.0823 11.7578 30.469 12.815 29.5639 14.0158C28.5059 15.4196 27.8944 17.0224 27.8944 18.3921V19.0817L28.7094 19.0258C29.7322 18.9556 30.6014 18.6579 31.4398 18.0904C32.2996 17.5083 32.6543 17.1697 33.2768 16.3364C33.8642 15.5502 34.1955 14.9285 34.4965 14.0483C34.7465 13.3169 34.965 11.7863 34.8722 11.4165C34.7914 11.0946 34.6493 11.0876 33.6239 11.3553ZM32.6551 19.5992C32.3125 19.6776 31.6457 19.8811 31.1733 20.0514C28.2781 21.0955 28.4135 21.0602 27.7826 20.9361C27.4642 20.8735 26.7255 20.6419 26.1412 20.4215C23.0702 19.2633 21.2293 19.2457 19.0037 20.3536C18.0835 20.8118 17.855 20.9823 16.9786 21.8651C16.2893 22.5594 15.8583 23.0949 15.5523 23.6374C13.9884 26.4092 13.5953 29.901 14.4225 33.674C15.5864 38.9833 18.8477 44.0996 21.8092 45.2623C22.7305 45.6241 23.4508 45.5539 25.3754 44.9153C28.4007 43.9112 28.8707 43.905 31.6961 44.8318C33.5221 45.4307 33.5951 45.4461 34.4621 45.4124C35.2429 45.382 35.4379 45.3354 36.0441 45.0333C37.8693 44.1241 40.174 40.9223 41.6667 37.222L42 36.3958L41.4617 36.0968C40.0186 35.2954 38.682 33.9052 38.0816 32.581C37.5716 31.4562 37.4373 30.7906 37.4353 29.3769C37.4326 27.4508 37.8056 26.3031 38.9188 24.8125C39.4064 24.1594 40.3629 23.258 40.8379 23.0039C40.9451 22.9465 41.0328 22.8589 41.0328 22.8093C41.0328 22.7598 40.8146 22.4569 40.5479 22.1364C39.6627 21.0729 38.2265 20.1614 36.7674 19.7372C35.8217 19.4624 33.5829 19.3872 32.6551 19.5992Z" stroke="#5F56AF" stroke-opacity="0.5" stroke-width="2" mask="url(#path-2-inside-1_1526_12197)"/>
<defs>
<linearGradient id="paint0_linear_1526_12197" x1="58" y1="0" x2="0" y2="58" gradientUnits="userSpaceOnUse">
<stop stop-color="#5F56AF" stop-opacity="0.5"/>
<stop offset="1" stop-color="#5F56AF"/>
</linearGradient>
</defs>
</svg>
