<svg width="58" height="58" viewBox="0 0 58 58" fill="none" xmlns="http://www.w3.org/2000/svg">
<circle cx="29" cy="29" r="29" fill="#FAFAFA"/>
<circle cx="29" cy="29" r="28.5" stroke="#5F56AF" stroke-opacity="0.5"/>
<path fill-rule="evenodd" clip-rule="evenodd" d="M20.1684 12.2107C18.8063 12.3489 17.6495 12.9113 16.648 13.9221C16.1011 14.474 15.9259 14.7109 15.6388 15.2863C14.9465 16.674 15.001 15.4847 15.001 29.2125C15.001 41.0885 15.0034 41.2922 15.1493 41.8626C15.6807 43.9406 17.232 45.4971 19.3621 46.0898L19.9485 46.253H29.0005H38.0525L38.6389 46.0892C40.78 45.4911 42.3185 43.9476 42.8517 41.8626C42.9976 41.2922 43 41.0885 43 29.2125C43 17.3365 42.9976 17.1328 42.8517 16.5624C42.4228 14.8851 41.3239 13.5208 39.8173 12.7953C38.4509 12.1372 39.1986 12.1824 29.4036 12.1658C24.6467 12.1578 20.4909 12.178 20.1684 12.2107ZM19.5582 13.2677C18.2938 13.5736 17.0459 14.571 16.479 15.7286C16.0867 16.5299 15.9539 17.0706 15.9539 17.8671V18.5113H29.0005H42.0472V17.8671C42.0472 17.0706 41.9143 16.5299 41.522 15.7286C41.0986 14.864 40.3438 14.1092 39.4793 13.6859C38.3354 13.1258 39.0289 13.16 28.9668 13.167C21.8759 13.1719 19.8651 13.1934 19.5582 13.2677ZM20.0584 14.4463C19.72 14.5981 19.4195 14.8901 19.2379 15.2433C19.0132 15.6802 19.072 16.42 19.3643 16.835C19.6638 17.2602 20.1118 17.4852 20.6592 17.4852C22.2605 17.4852 22.8555 15.4622 21.5152 14.5753C21.1412 14.3277 20.4575 14.2673 20.0584 14.4463ZM20.2384 15.4662C19.8269 15.8777 20.0863 16.5323 20.6609 16.5323C21.0398 16.5323 21.3044 16.2762 21.3044 15.9093C21.3044 15.7276 21.2487 15.5904 21.1245 15.4662C21.0003 15.342 20.8631 15.2863 20.6814 15.2863C20.4997 15.2863 20.3625 15.342 20.2384 15.4662ZM27.4946 15.6128C27.3957 15.7118 27.3147 15.8294 27.3147 15.8741C27.3147 15.9871 27.4665 16.2647 27.5639 16.3297C27.6082 16.3593 28.2547 16.3835 29.0005 16.3835C29.7463 16.3835 30.3928 16.3593 30.4371 16.3297C30.5345 16.2647 30.6863 15.9871 30.6863 15.8741C30.6863 15.8294 30.6053 15.7118 30.5064 15.6128C30.3286 15.435 30.3106 15.4329 29.0005 15.4329C27.6904 15.4329 27.6724 15.435 27.4946 15.6128ZM15.9539 29.3591V39.254H29.0005H42.0472V29.3591V19.4642H29.0005H15.9539V29.3591ZM28.2903 20.4131C27.6735 20.6931 27.1085 21.3361 26.6146 22.3203C26.4037 22.7404 26.3255 22.8363 26.2278 22.7941C25.2514 22.3719 23.9309 22.2368 23.2709 22.4915C22.5845 22.7564 22.1107 23.529 22.1107 24.3835C22.1107 24.8177 22.278 25.6278 22.4745 26.1447C22.5566 26.3606 22.6237 26.5441 22.6237 26.5525C22.6238 26.561 22.3893 26.6856 22.1026 26.8294C21.1052 27.3301 20.4729 27.8934 20.1895 28.5343C19.988 28.9898 20.0364 29.6599 20.3037 30.116C20.588 30.6012 21.2153 31.1307 21.9645 31.5175C22.4977 31.793 22.6245 31.8886 22.5851 31.9857C22.3974 32.4472 22.2555 32.9448 22.175 33.424C21.8869 35.1383 22.858 36.2412 24.5067 36.0723C24.9088 36.0311 25.8758 35.7832 26.2274 35.6312C26.3254 35.5887 26.4178 35.7109 26.6973 36.2521C28.0076 38.789 29.9934 38.789 31.3037 36.2521C31.5832 35.7109 31.6757 35.5887 31.7736 35.6312C32.3406 35.8763 33.1304 36.0482 33.7281 36.0565C34.5093 36.0673 34.8429 35.9672 35.252 35.5987C36.0204 34.9066 36.079 33.6161 35.4159 31.9857C35.3765 31.8886 35.5039 31.7927 36.0401 31.5157C38.577 30.2054 38.577 28.2196 36.0401 26.9093C35.4989 26.6298 35.3767 26.5374 35.4192 26.4394C35.672 25.8548 35.8402 25.0857 35.8466 24.4849C35.855 23.7039 35.7538 23.3686 35.3867 22.961C34.6946 22.1926 33.4041 22.134 31.7736 22.7971C31.6766 22.8365 31.5807 22.7091 31.3037 22.1729C30.4947 20.6066 29.344 19.9347 28.2903 20.4131ZM28.5182 21.3614C28.1989 21.5562 27.8715 21.9768 27.5333 22.6271C27.3728 22.9356 27.2414 23.2063 27.2414 23.2287C27.2414 23.2511 27.398 23.3595 27.5896 23.4698C27.7811 23.58 28.177 23.8299 28.4695 24.0251L29.0012 24.38L29.4223 24.0975C29.6539 23.9421 30.0496 23.6912 30.3015 23.5399C30.5535 23.3887 30.7596 23.2476 30.7596 23.2264C30.7596 23.102 30.1249 21.9994 29.906 21.7437C29.4567 21.2188 28.9714 21.0851 28.5182 21.3614ZM28.7806 22.4176C28.5519 22.5321 28.4872 22.9717 28.672 23.1565C28.8235 23.3079 29.1754 23.3101 29.3251 23.1604C29.4626 23.0228 29.4778 22.5905 29.3487 22.4873C29.1791 22.3516 28.965 22.3253 28.7806 22.4176ZM23.6568 23.3666C23.5194 23.4173 23.338 23.552 23.2537 23.666C23.0381 23.9571 23.0439 24.8084 23.2662 25.5111C23.5162 26.3012 23.4346 26.2643 24.4323 26.0398C24.9091 25.9325 25.3647 25.8353 25.4449 25.8237C25.525 25.8121 25.6001 25.737 25.6117 25.6569C25.6233 25.5767 25.7205 25.1211 25.8277 24.6443C26.0513 23.6507 26.084 23.7274 25.3357 23.4905C24.7333 23.2997 23.9868 23.2447 23.6568 23.3666ZM32.9218 23.4144C32.277 23.5898 32.0056 23.7132 32.0056 23.8311C32.0056 23.8819 32.0862 24.2642 32.1847 24.6806C32.2831 25.097 32.3739 25.5199 32.3863 25.6203C32.4006 25.7371 32.4615 25.8103 32.5553 25.8237C32.636 25.8353 33.0919 25.9325 33.5687 26.0398C34.5623 26.2633 34.4856 26.296 34.7225 25.5477C35.0437 24.5335 34.9746 23.7405 34.5404 23.4561C34.2535 23.2681 33.5285 23.2494 32.9218 23.4144ZM24.163 24.375C23.8747 24.6633 24.0832 25.1812 24.4875 25.1812C24.6865 25.1812 24.9692 24.8743 24.9692 24.6583C24.9692 24.4637 24.7084 24.2284 24.4928 24.2284C24.392 24.2284 24.2436 24.2944 24.163 24.375ZM26.7349 24.8936C26.6506 25.2594 26.5817 25.5818 26.5817 25.6099C26.5817 25.638 26.7884 25.6437 27.0409 25.6225C27.4405 25.5889 27.5449 25.5464 27.8471 25.2937C28.0381 25.1342 28.1942 24.9973 28.1942 24.9896C28.1942 24.9517 27.0202 24.2284 26.9588 24.2284C26.9199 24.2284 26.8191 24.5277 26.7349 24.8936ZM30.3931 24.5949C30.0908 24.7928 29.8434 24.9707 29.8434 24.9903C29.8434 25.0099 29.99 25.1513 30.1691 25.3047C30.4523 25.5471 30.5553 25.5885 30.9593 25.6224L31.4237 25.6613L31.3782 25.4396C31.1961 24.5503 31.103 24.2288 31.0286 24.2318C30.9814 24.2336 30.6955 24.397 30.3931 24.5949ZM33.1784 24.375C32.9738 24.5796 32.9928 24.8468 33.2249 25.0293C33.4677 25.2204 33.6508 25.2219 33.838 25.0346C34.1284 24.7443 33.9173 24.2284 33.5082 24.2284C33.4074 24.2284 33.259 24.2944 33.1784 24.375ZM27.0752 27.2897L26.2886 28.0788V29.2149V30.3511L27.0777 31.1378L27.8668 31.9244H29.0029H30.1391L30.9258 31.1353L31.7124 30.3462V29.2101V28.0739L30.9233 27.2872L30.1342 26.5006H28.9981H27.8619L27.0752 27.2897ZM25.2258 26.8296C25.1855 26.8429 24.8968 26.9112 24.5844 26.9813C24.272 27.0515 24.0164 27.1387 24.0164 27.1753C24.0164 27.2337 24.7414 28.4063 24.7776 28.4063C24.7853 28.4063 24.9222 28.2501 25.0817 28.0591C25.3344 27.7569 25.3769 27.6526 25.4105 27.2529C25.4476 26.8103 25.427 26.763 25.2258 26.8296ZM32.5904 27.2507C32.6242 27.6533 32.6662 27.7563 32.9206 28.0607L33.212 28.4094L33.3366 28.2442C33.5034 28.0232 33.8929 27.3736 33.9496 27.2222C33.9947 27.1017 33.8601 27.0574 32.7734 26.8348L32.5517 26.7893L32.5904 27.2507ZM22.3939 27.753C20.5343 28.7332 20.5384 29.7034 22.4061 30.6751C22.7195 30.8382 22.9943 30.9716 23.0167 30.9716C23.0391 30.9716 23.1475 30.815 23.2578 30.6235C23.368 30.4319 23.6177 30.0362 23.8128 29.7439L24.1675 29.2125L23.8128 28.6811C23.6177 28.3888 23.368 27.9931 23.2578 27.8016C23.1475 27.61 23.034 27.4544 23.0055 27.4557C22.977 27.4569 22.7018 27.5907 22.3939 27.753ZM34.6731 27.9115C34.5218 28.1635 34.2709 28.5591 34.1155 28.7907L33.833 29.2118L34.1879 29.7435C34.3831 30.036 34.633 30.4319 34.7432 30.6235C34.8535 30.815 34.9597 30.9716 34.9793 30.9716C35.0616 30.9716 35.9513 30.4956 36.2426 30.2958C36.4163 30.1767 36.6554 29.9452 36.774 29.7815C37.2835 29.0782 36.8676 28.3807 35.544 27.7184C35.2527 27.5727 34.9995 27.4534 34.9812 27.4534C34.963 27.4534 34.8243 27.6596 34.6731 27.9115ZM22.2541 28.8866C22.2021 28.9492 22.1596 29.0959 22.1596 29.2125C22.1596 29.5047 22.3042 29.6523 22.5909 29.6523C22.8887 29.6523 23.0635 29.4896 23.0635 29.2125C23.0635 29.0974 23.0117 28.9513 22.9484 28.8879C22.8003 28.7399 22.3765 28.7391 22.2541 28.8866ZM28.6759 28.8879C28.6125 28.9513 28.5607 29.0974 28.5607 29.2125C28.5607 29.4796 28.7334 29.6523 29.0005 29.6523C29.2676 29.6523 29.4403 29.4796 29.4403 29.2125C29.4403 28.9454 29.2676 28.7727 29.0005 28.7727C28.8854 28.7727 28.7393 28.8246 28.6759 28.8879ZM35.0526 28.8879C34.9893 28.9513 34.9375 29.0974 34.9375 29.2125C34.9375 29.3277 34.9893 29.4737 35.0526 29.5371C35.1942 29.6787 35.5223 29.6865 35.7053 29.5527C35.8641 29.4366 35.888 29.0565 35.7469 28.8866C35.6245 28.7391 35.2007 28.7399 35.0526 28.8879ZM24.3899 30.6011C24.1845 30.9213 24.0164 31.2133 24.0164 31.2498C24.0164 31.3055 24.3629 31.4017 25.301 31.6065C25.441 31.6371 25.4474 31.6123 25.4108 31.176C25.3769 30.7719 25.335 30.6688 25.0817 30.3659C24.9222 30.175 24.7853 30.0188 24.7776 30.0188C24.7698 30.0188 24.5954 30.2808 24.3899 30.6011ZM32.9193 30.3659C32.666 30.6688 32.6241 30.7719 32.5902 31.176C32.5536 31.6123 32.56 31.6371 32.7 31.6065C33.6381 31.4017 33.9846 31.3055 33.9846 31.2498C33.9846 31.1913 33.2596 30.0188 33.2234 30.0188C33.2157 30.0188 33.0788 30.175 32.9193 30.3659ZM34.0579 32.2666C33.8765 32.3222 33.4312 32.428 33.0684 32.5018C32.5342 32.6105 32.4049 32.6624 32.3885 32.775C32.3773 32.8514 32.2805 33.304 32.1733 33.7807C31.9497 34.7742 31.9169 34.6972 32.6653 34.9351C33.3598 35.156 34.1006 35.1943 34.4244 35.0262C34.814 34.8238 34.9551 34.4877 34.911 33.8668C34.873 33.3309 34.6432 32.4825 34.4818 32.2821C34.3985 32.1789 34.3501 32.1771 34.0579 32.2666ZM23.3984 32.5195C22.91 33.7403 22.9793 34.7159 23.5766 35.0262C23.9004 35.1943 24.6412 35.156 25.3357 34.9351C26.0841 34.6972 26.0513 34.7742 25.8277 33.7807C25.7205 33.304 25.6233 32.848 25.6117 32.7674C25.5983 32.6735 25.5251 32.6126 25.4083 32.5983C25.3079 32.5859 24.885 32.4951 24.4686 32.3967C24.0522 32.2982 23.6682 32.2176 23.6154 32.2176C23.5625 32.2176 23.4649 32.3535 23.3984 32.5195ZM26.6228 32.9854C26.7991 33.8459 26.8962 34.1966 26.9581 34.1966C27.02 34.1966 28.1942 33.4736 28.1942 33.4354C28.1942 33.4277 28.0381 33.2908 27.8471 33.1313C27.5445 32.8782 27.4408 32.8361 27.0387 32.8024L26.5773 32.7637L26.6228 32.9854ZM30.9418 32.7968C30.5684 32.834 30.448 32.885 30.1539 33.131C29.9629 33.2908 29.8068 33.4277 29.8068 33.4354C29.8068 33.4736 30.981 34.1966 31.0429 34.1966C31.1053 34.1966 31.199 33.857 31.3819 32.9689C31.4089 32.8379 31.4201 32.7358 31.4067 32.7418C31.3935 32.748 31.1843 32.7728 30.9418 32.7968ZM24.163 33.3904C23.8727 33.6807 24.0837 34.1966 24.4928 34.1966C24.723 34.1966 24.9692 33.957 24.9692 33.733C24.9692 33.5222 24.685 33.2438 24.4698 33.2438C24.3816 33.2438 24.2436 33.3097 24.163 33.3904ZM33.1911 33.4134C33.1035 33.5067 33.0318 33.6551 33.0318 33.7432C33.0318 33.9583 33.2822 34.1966 33.5082 34.1966C33.609 34.1966 33.7574 34.1307 33.838 34.05C34.1234 33.7646 33.9186 33.2438 33.5209 33.2438C33.4272 33.2438 33.2788 33.3201 33.1911 33.4134ZM28.5974 34.3149C28.3958 34.4562 28.0083 34.7032 27.7362 34.8638C27.464 35.0245 27.2414 35.1742 27.2414 35.1964C27.2414 35.3226 27.8742 36.4233 28.095 36.6813C28.9035 37.6258 29.7203 37.2909 30.53 35.683C30.6563 35.4322 30.7596 35.2119 30.7596 35.1935C30.7596 35.1751 30.5535 35.0363 30.3015 34.8851C30.0496 34.7338 29.6555 34.484 29.426 34.33C29.1964 34.176 28.9985 34.0519 28.9862 34.0541C28.9739 34.0563 28.7989 34.1737 28.5974 34.3149ZM28.6759 35.2646C28.5279 35.4127 28.5271 35.8365 28.6746 35.9589C28.8445 36.1 29.2246 36.0761 29.3407 35.9173C29.4745 35.7343 29.4667 35.4062 29.3251 35.2646C29.2617 35.2013 29.1157 35.1495 29.0005 35.1495C28.8854 35.1495 28.7393 35.2013 28.6759 35.2646ZM15.9539 40.7046C15.9539 42.316 17.0317 44.0095 18.5217 44.7391C19.6645 45.2987 18.9788 45.2643 29.0005 45.2643C39.0222 45.2643 38.3366 45.2987 39.4793 44.7391C40.9693 44.0095 42.0472 42.316 42.0472 40.7046V40.2069H29.0005H15.9539V40.7046ZM28.4163 41.3107C27.2406 41.8049 27.067 43.3934 28.1089 44.125C28.3967 44.327 28.4804 44.3481 28.9938 44.3481C29.4887 44.3481 29.5994 44.3226 29.863 44.1481C30.8037 43.5257 30.8204 42.1446 29.8952 41.4951C29.6329 41.3109 29.4988 41.2708 29.089 41.2543C28.8186 41.2435 28.5159 41.2689 28.4163 41.3107ZM28.6276 42.2798C28.303 42.529 28.2651 42.8909 28.5306 43.2064C28.6815 43.3858 28.7777 43.4319 29.0005 43.4319C29.2233 43.4319 29.3195 43.3858 29.4704 43.2064C29.6777 42.96 29.7061 42.7756 29.5749 42.5292C29.4455 42.2862 29.2832 42.1906 29.0005 42.1906C28.8594 42.1906 28.6916 42.2307 28.6276 42.2798ZM20.5878 42.4466C20.3633 42.6038 20.3633 43.014 20.5878 43.1712C20.7208 43.2643 20.9965 43.2853 22.0904 43.2853C23.3323 43.2853 23.4407 43.2746 23.5766 43.1387C23.6572 43.0581 23.7232 42.9097 23.7232 42.8089C23.7232 42.7081 23.6572 42.5597 23.5766 42.479C23.4407 42.3432 23.3323 42.3325 22.0904 42.3325C20.9965 42.3325 20.7208 42.3534 20.5878 42.4466ZM34.4244 42.479C34.3438 42.5597 34.2778 42.7081 34.2778 42.8089C34.2778 42.9097 34.3438 43.0581 34.4244 43.1387C34.5603 43.2746 34.6687 43.2853 35.9106 43.2853C37.438 43.2853 37.5761 43.2458 37.5761 42.8089C37.5761 42.372 37.438 42.3325 35.9106 42.3325C34.6687 42.3325 34.5603 42.3432 34.4244 42.479Z" fill="#5F56AF" fill-opacity="0.5"/>
</svg>
